<svg xmlns="http://www.w3.org/2000/svg" xmlns:xlink="http://www.w3.org/1999/xlink" viewBox="0 0 512 512"><path fill="#d0103a" d="M0 0h512v512H0z"/><path fill="#fedf00" d="M0 0h348v512H0z"/><path fill="#0018a8" d="M0 0h164v512H0z"/><path fill="#c7b37f" d="M240 173c7 0 9 6 15 6l10-3q2-2 6-2 5-1 6 3l1 5-2 7-1 3q1 4 7 5 3 1 10-4-3 0-4-3 0-4 3-4h2v-1l3-2 2 1h5l1 1h3q3 0 4 2l1 1 4 2 1 2h1l2 4v2q-3 6-9 11l-3 6 1 2 2-2q3 0 3 2v2l3-1h2l7 3a17 17 0 0 1 6 13c-1 4 0 12-11 15q3 1 3 4 0 4-3 4l-3-1q-3 3-3 8l1 4 3 5 3-2 4 1v1l1 1v3l1 1 1 2q-1 4-5 4h-2l4 3 2 9-2 9-6 6-13 5-8 2h-12q-7 0-14 5 4 2 4 6 0 3-4 5h-2l-1 1-3 1q-3 1-5-2l-4 4-2 1-3-2-3-3-5 2-3-1-2-1-1-1q-4-1-4-5 0-3 3-5-6-5-13-5h-12l-8-2-7-1q-12-5-14-18v-2q0-7 5-11h-3q-3-1-3-5v-2l1-1 1-2v-1l4-3 3 2 2-3q3-2 2-6l-1-4-1-3-3 1q-3-1-4-4 0-3 3-4l-4-2-4-5-2-4-1-5v-1q0-5 4-9l5-4 6-2 2 1h1v-1q0-2 3-3l2 2 1-1-3-7q-7-5-9-13l3-4h1l1-1 1-1 2-1 1-2 4-1h3l1-1h5l2-1 2 1 2 1 1 1q4 1 4 4l-1 3-3 1 9 2q7 0 8-4l-2-4-1-7 1-5q2-3 5-3"/><g fill="none" stroke="#703d29"><path stroke-linejoin="round" d="m218 191 2 2 3-1v-3l-1-2z"/><path stroke-linecap="round" d="M321 253q-3-2-4 0 0 4 4 3l2-1 1-3-1-2-1-1h-3q-7 1-9 11l-1 9 5 9 8 5h3q5-1 3-5-3-4-6-1v3q3 2 3-1"/><path d="m307 283 5-3 7 2a15 15 0 0 1 9 13l-2 8c-1 1-2 7-12 11l-21 3q-13 0-20 6"/><path d="m309 293 1-3q2-2 5-1l2 2 1 1v2q2 10-5 14l-11 4h-25l-5 1-1 1h-1l-8 3-2 2-1 1-3 5v1q0 4 4 4m4-136 1 3q0 3-3 3-5-1-3-7 4-5 12 1l-1-3q1-5 4-8l-1-5h-4q-4 3-13 4-10-1-14-4h-4v5l3 8v3c4-2 9-5 12-1q1 6-4 7l-3-3 1-3"/><path stroke-linecap="round" d="m252 192 2 4-3 4m2-3-1 2"/><path fill="#c7b37f" stroke="none" d="m221 187 1 1v4h-1l-1 1h-2l-1-1v-1h-1v-1z"/><path stroke-linecap="round" d="M220 190q-1-3-2-1-2 2 1 4l3-1 1-4-2-1q-4-3-6 1-2 6 4 9l12 3q11-2 16-6h2v2"/><path d="m198 289-1 1-2 1-1 1v1l-1 2v2m15-8v3l-1 1-1 2-1 1h-3m54 31q0 3-4 4h-1m72-46a15 15 0 0 1 5 11l-2 7q2 5-12 12l-21 3q-12-1-20 6"/><path d="M310 290q2-2 5-1l2 2m4-8h5q3 0 2-5l-1-2"/><path stroke-linecap="round" d="m192 224-4 2-2 6m37-42q0 3-2 3"/><path d="M318 218c3 0 14 2 15 15 0 13-8 15-12 16"/><path d="M319 218c6-1 13 4 13 16 0 9-6 14-9 15m-8 14v-2l1-1v-2l1-1 1-1m6-3v1l-1 1v1h-1l-1 1h-1m-12-43 1-1v-1l1-2 1-1 1-1 2-2 2-2 1-1 1-1 1-2v-1l1-2v-3m-10 103 1-1h1l1-1v-2m-126-10h3m4-29v2h-1l-1 1h-1m8-13v3l-1 1h-1l-1 1h-2m12-32v1l-1 1v1l-1 1h-2m0-5v1"/><path stroke-linecap="round" d="m203 243-1 1m120 36h1q3 1 2-2"/><path d="m318 256 4 1 2-2v-3l-1-1-1-1v-1m5 28v-1l-1-2-1-1m1 0q0-2-3-2m-3 2-1-1-4-8q1-6 3-8m-45 67 2-1 1-1 1-1 2-1h1l3-1h3m-24 15-6 5-6-5"/><path stroke-linecap="round" d="m252 330-2 3"/><path d="m252 328-1 2m-1 3-1 1-2 1-1 1m-5-143 1-2-4-8q-1-3 1-5h4q4 3 13 5-9-2-13-5h-4q-2 3-1 5l4 8-1 2m15-10 14-5h3-4q-3 3-13 5m64 90a12 12 0 0 1-5-10q0-6 3-8m-56 78-6 5-7-5"/><path stroke-linecap="round" d="m245 195 2-1h3l-1 2"/><path d="M236 199q7 0 10-4m26 131 1 1v1l-1 2-3-2m-33-129 10-4m78 85h-2l-1-1q-3-1-7-7l-2-4v-2l1-5 3-7q1-2 3-2m-115-32 2 5q0 4-7 8l-5-1"/><path d="m205 229 1 2-1 3-7 3-5-1-3-4m15 2 1 4q0 3-3 5l-1 1m103-17v2m0-3v4m0-13v6m0-7v7m-1 66-4 4-4 4-6 1-5 1h-5l-6-1h-4l-9 1-5 3-5-3-9-1h-4l-6 1-10-1-6-1-5-4m34 43 2-1m24-2h3l1-1 1-1v-3m38-109q1-3-2-4m-106 37-3 4m3-38-3 3h-4"/><path stroke-linecap="round" d="M195 226q3 1 2-2l-2-2"/><path d="m200 293 1 1h1v-4h-5l-2 1-1 2-1 2q-1 7 4 12"/><path stroke-linecap="round" d="m272 326 1 1v1l-2 2-2-2"/><path d="M312 188a6 6 0 0 1 5 5l-3 8c-2 3-9 8-9 13q0 6 3 7t5-1q2-4-1-6c-3 0-3 4-1 4m14 55-2-2-3 3 1 2"/><path d="m307 220-2 5q0 4 7 8l5-1m-125-8-4 3-1 5v5l2 5v1h1m51 74q6 2 10 7a8 8 0 0 1-2 10l-5 1-4-2m-37-90 3 6q0 5-3 6"/><path stroke-linecap="round" d="M201 253q5 6 5 11 0 7-4 11"/><path d="m264 200 1-2v-3l1 3-2 1m41 70v16m0-18v18m0-34v11m0-10v9m0-21v7m0-8v9m0-16v3m0-3v4m-1 52-1 1-3 4-5 3-5 2-5 1h-5l-6-1h-4l-9 1-5 3-5-3-9-1h-5l-5 1-10-1-10-5-2-2m-2-3-2 7-4 2q-4-1-4-3"/><path d="m205 287 1 2v5m-17 15 9 6 21 3q12-1 20 5m14-3 3 5m-6 9h-1l-5 2-3-2m-5-3 1 1 4 2m21 0-6 5-6-5v-1m12 1h1l5 2 3-2 1-1"/><path d="M271 333v1l-1 1-2 1h-1m7-12 2 2 1 3-1 3-5 2m0-1-4-1m51-54-4-6-1-3-1-3 1-5 3-7 2-2m-1-61q3 2 3 5t-3 7c-2 3-9 8-8 12l1 2m-3 3 2 1h3m-17-35 2 2q0 6-5 9l-6 2"/><path d="m292 193-3-1v-1m-12 4-1-1q-2 0-1-3l3-9q0-6-4-8"/><path stroke-linecap="round" d="M278 181v2l-1 2-1 2v1l-1 2v1l-1 1 1 1m30 101h1l4 3q4-1 4-3 0-3-2-3l-1-1"/><path d="M190 284h-3q-4-1-4-6m11-25q0 4-3 4l-3-2v-2m17-19 1 1m-1-6 1 1"/><path stroke-linecap="round" d="m206 232-1 2-7 4-5-2-3-4"/><path d="m204 220 2 3"/><path stroke-linecap="round" d="M206 227a9 9 0 0 1-7 6l-5-1"/><path d="M192 226q1 4 4 4c4 0 6-6 3-9"/><path stroke-linecap="round" d="m184 244 1 2 5 3m4 0q6-1 5-5t-3-4"/><path d="m200 215 2 2"/><path stroke-linecap="round" d="m200 195 4 4m115 25a4 4 0 0 1-3 6l-4-2"/><path d="M305 199v13"/><path stroke-linecap="round" d="M195 226q3 1 2-2 0-2-4-1-3 5 3 6 7-1 3-9-6-5-13 0a17 17 0 0 0-6 10v7l2 6 1 1 2 2 8 3q6-1 6-6-2-4-6-3-2 3 1 5l2-3m103-57h5l1 6-2 5"/><path stroke-linecap="round" d="M304 186q5-3 7 1l1 5-4 7"/><path d="M316 191q4 1 4 5t-4 7c-2 3-8 7-8 12l3 3"/><path stroke-linecap="round" d="M316 226q-2 1-2-2 1-2 4-1 4 5-3 6-6-1-2-9 6-5 13 0 3 3 5 10 3 8-4 17l-9 2q-6-1-5-6 1-4 5-3 3 3-1 5-2-1-1-3"/><path d="M314 224q2-4 5-3 9 2 9 12 0 12-9 13l-4-3"/><path stroke-linecap="square" d="M318 223q7 2 7 11c0 4 0 9-8 11"/><path d="M327 276a3 3 0 1 0-5 2"/><path stroke-linecap="round" d="m316 272 5 4m-1 9q-5-4-13-2l-3 3a8 8 0 0 0 2 8l4 2q4-1 3-2l-1-4-3 1v2"/><path stroke-linecap="round" d="M272 327q1 2-1 2-3 1-3-2 1-3 4-4l4 3v2l-1 3-4 2q-6-1-6-6c0-6 9-10 13-10l14-2 8-1 7-1 10-5a14 14 0 0 0 4-18l-8-5q-5 0-8 4l1 5 3 2 4-2-1-4-3 1v2"/><path stroke-linecap="round" d="M270 317q-6 2-9 7l-1 4 2 6 6 1 3-2"/><path d="M308 243q-3 2-3 6 0 5 3 6"/><path stroke-linecap="round" d="M310 253q-5 6-5 11 0 7 4 11"/><path d="M293 186v-1q2-3 6-1 3 3 2 7l-4 5"/><path stroke-linecap="round" d="M212 185h-5l-1 6q0 2 3 5"/><path d="M207 186q-4-3-7 1l-1 5a9 9 0 0 0 5 7"/><path d="M200 188a6 6 0 0 0-5 5q0 5 3 8 6 5 8 13 0 6-3 7t-4-1q-3-4 0-6c3 0 4 4 1 4"/><path d="M195 191q-4 1-4 4 0 4 4 8c2 3 8 7 8 12q0 2-3 3"/><path stroke-linecap="round" d="M191 253q2-2 3 0 0 4-4 3l-2-1v-5l1-1h3q6 1 10 11v9l-5 9-8 5h-3q-4-2-2-5 2-5 5-1l1 1-1 2q-2 2-3-1"/><path d="M187 280h2l2-1 7-7 1-3v-8l-3-7q-1-2-4-2m-7 24a3 3 0 1 1 5 2"/><path d="m186 273 3-2 3 3-1 2m1-3a12 12 0 0 0 5-10l-3-8"/><path stroke-linecap="round" d="m196 272-5 4"/><path d="M204 283q-2-3-5-3l-7 2a15 15 0 0 0-7 9l-1 4 2 8q-1 3 12 11l20 3q14 0 21 6"/><path stroke-linecap="round" d="M192 285q4-4 12-2l3 3a8 8 0 0 1-1 8l-4 2-4-2q0-4 2-4l2 1v2"/><path d="m202 293-1-3-4-1-2 2-1 1-1 2q-2 10 5 14l12 4h24l5 1 1 1h1l8 3 2 2 1 1 4 5v1q0 4-5 4"/><path d="M239 327q-1 2 1 2 3 1 3-2t-4-4l-4 3v2l1 3 4 2q6-1 6-6c0-6-9-10-12-10l-15-2-8-1-7-1-10-5a14 14 0 0 1-4-18 12 12 0 0 1 9-5q4 0 7 4v5l-4 2-4-2q0-4 2-4l2 1v2"/><path stroke-linecap="round" d="m219 186-1-1q-2-3-5-1-3 3-2 7l3 5"/><path d="M293 192q-4 4-11 4-2 1-6-1-2-1-1-5 2-2 3-8 0-7-5-8c-5-2-10 3-13 4l-4 1-5-1c-3-1-8-6-13-4q-5 1-4 8 1 6 3 8 0 4-2 5l-6 2q-7-1-11-5"/><path stroke-linecap="round" d="m238 316 4 1q6 2 9 7l1 6"/><path d="m238 333 3 1q5 0 6-7l-3-5"/><path stroke-linecap="round" d="M239 327q-1 2 1 3 3-1 3-3l-1-3"/><path d="M312 188q5 1 5 6l-3 7-4 3"/><path stroke-linecap="round" d="m309 185 2 2 2 5q-2 5-5 7m-4-14 1 1 1 5-3 5m-4-12q2 3 2 7l-4 5m9 32 1 2 5 3 5-1m-130 43 3 2v1l-1 2q-2 2-3-2"/><path d="M193 249q7 3 9 11v9l-4 9-2 2h-1m-6-9q2 0 3 3l-1 2"/><path d="M188 273q2 0 3 3l-1 2"/><path stroke-linecap="round" d="M203 256q3 2 3 6m0 7-1 3-3 4"/><path d="m203 244 3 3"/><path stroke-linecap="round" d="m206 240-2 3m-8-14h2l1-1 1-1v-2"/><path d="m193 223-2 1-3 2-2 5v6l2 4 1 1 4 2"/><path stroke-linecap="round" d="M202 216q1 2-2 2"/><path d="M197 223q-3-3-8 0l-2 1-1 1-1 2-1 2v7l2 5a8 8 0 0 0 6 5q3 0 4-3"/><path stroke-linecap="round" d="M291 190q1-3 2-1 2 2-1 4l-3-1-1-4 2-1q4-3 7 1 1 6-5 9l-11 3q-11-2-17-6h-2v2"/><path stroke-linecap="round" d="m293 188 1 1q1 2-2 4m14 41q-2 6 2 10h2"/><path d="m307 228-2 3 1 3 8 3 5-1 3-5m-17 50v2l-2 6-3 4-5 3-5 2-5 1h-5l-6-1h-4l-9 1-5 3-5-3-4-1h-10l-5 1h-5l-6-1-5-2-4-3-4-4-1-6v-83h98z"/><path fill="#c7b37f" stroke="none" d="M198 293a2 2 0 1 1 4 0 2 2 0 0 1-4 0m-12-15 2-1 1 1-1 2zm7-35 1-2 2 2-2 1zm25-53 1-1 1 1-1 2z"/><g stroke="#c7b37f" stroke-linecap="round"><path d="M191 251v1h-1v1m4 22 1-1v-1l1-1v-1m-1 11-1 1h-1l-1 1-1 1m12-30-1-1v-1h-1"/><path stroke-linecap="butt" d="M203 244h-1l-1 1"/><path d="M190 231v1l1 1 2 2 1 1m-1-5 1 1h4m6-32-2-1-2-2-1-1m6-4 1 1 1 2 2 2m1-5 1 1 1 1 1 1 1 1"/></g><path fill="#703d29" stroke="none" d="m267 185-2-1-4 2-5 1-6-1-3-2-2 2v1l1-2h1l4 2 5 1 5-1 4-2zv1h1z"/></g><g fill="#703d29"><path d="M212 299h-1l1 1-1 1-2 2v1-5l1-1h-1l-1-1h-1v1h1v7z"/><path d="M214 300h-3l1 1-1 4-1 1h1l1 1v-1zm3 1v2h-2zm-2 4-1 1 1 1h1zv-1h1v2l1 1h1l-1-3h1l1-1-2-3h-3l1 1zm6 2h2l1 1v-1l-1-1 1-4 1-1 1 1v1l1-1v-1h-3l-2-1h-1v2l1-1h1v5zm11-3h-1l1 1-1 1-1 3-1-3v-2h-1l-1-1v1h1l1 6v1zm0 6 2 1 2-2-1-2-2-2 1-1q3 1 2 2v-2h-1l-2 1q-1 2 1 2l1 2-1 1-2-2zm13-4h-1l1 1v1l-2 3-1-3v-2h-2l1 1 1 5 1 1zm1 5-1 1h3q-1 1-2-2v-3h1l4 5v-5l1-1v-1h-2l1 2v3h-1l-3-4v-1h-2l1 2zm8-4 1-1h-3zv5h2l-1-1zm4 4-1 1h3l-1-1v-5h1l1 1v-2h-5v2l1-1h1zm5-2v-2l1 2zm2 0v3h2v-1q0 1 0 0l-3-6h-1l-2 6v1h2l-1-1v-1h1zm6-4h1l2 1v-2h-3l-2 1zl1 4-1 1h3l-1-1v-2q-1 0 0 0l1 1 1-1-1-2-1 1h-1zm3 3q1 3 4 2 2-1 2-4-1-3-3-3-3 2-3 5m1-1q-1-2 2-3 2 0 2 3 1 2-1 3-3-1-3-3m7-3v-1l2 1-1 2h-1zm0 4-1 1 1 1 1-1h1l-1-1v-2h1l1 2 1 1 1-1h-1l-2-3h1v-1q0-2-3-2l-1 1h-1l1 1zm7-1 1-1zl-1-4v-1h1l1 1v-1l-1-1-2 1-3 1v1l1 1v-2h2zm4-6v-1zh-1zl1 4v2l1-1h2l-2-1zm2 2q1 3 4 2 3-2 2-4l-4-3q-3 2-2 5m1-1q-2-2 1-3 2-1 3 2l-1 4q-3-1-3-3m6-4v-1l2 1-1 2zm1 4-1 2h1l1-1h1zl-1-1v-1h1l1 1 2 1 1-1h-1l-2-2v-2l-3-1-1 1h-1v1h1z"/></g><g fill="#fedf00" transform="translate(0 77)scale(.512)"><path fill="#d52b1e" d="M413 249h82v82h-82z"/><path id="ad-a" fill="#fff" d="m451 314-1 5-2 4-3 4-6 2q-8-3-10-11-2-9-7-6v4l4 3-3 4s-6-1-8-8q-1-5 5-8 9-1 11 5c2 4 3 12 9 11q5-3 5-8l2-2z"/><use xlink:href="#ad-a" width="100%" height="100%" transform="matrix(-1 0 0 1 908 0)"/><path d="m461 279 11-12 2-3h-3v-2l3-1v-2h-3v-2h1l2-1h1c2-3 10-6 15-1 4 4 3 11-2 13a6 6 0 0 1-7-1l2-4q5 2 5-2t-4-5-5 3l-1 4v4l-3 3-11 12-43 47-3-3z"/><path fill="#fff" d="M430 283s2 13 11 34q6-3 13-3l12 2 12-33-24-31z"/><path d="m456 262 17 22s-2 11-9 26l-8-1zm-5 0-16 22s2 11 9 26l7-1z"/></g><g fill="#d52b1e"><path fill="#fedf00" d="M258 204h42v42h-42z"/><path d="M264 204h6v42h-6zm12 0h6v42h-6zm12 0h6v42h-6z"/></g><g fill="#d52b1e"><path fill="#fedf00" d="m211 283 2 3 2 3 6 4 9 1 5-1h13l5 2v-44h-42v30z"/><path d="m216 291 2 1 3 1v-42h-5zm24 2v-42h-5v42zm9-42h-5v42h5zm-19 0v43h-4v-43z"/></g><g transform="translate(0 77)scale(.512)"><path fill="#fedf00" d="m586 402-3 7-4 6a26 26 0 0 1-13 7l-17 2-10-1-11-1h-6l-18 4v-86h82v59z"/><g id="ad-b"><path fill="#d52b1e" d="M525 347h-1l-1 1-1 1h-1v2l-1 1-2 1h-1v2l1 1v1h1l2 1h2l1 1h2l2 1v1l1 4 1 1-2 2v3l2 2v2l1 2 1 1v-1l1-1v-2h1l-1-1-2-2 1-1 2-2h1l1 1h2v10h-1v1l1 1h2v-1h1v-7l1-2v-3h10l3 1v2h1v-1h2v1h1v-2h1v2l-1 1-1 2-1 1-1 1-2 1v1l1 1h2v-1h1l1-1 1-1 3-4 1-1 1-1v-2l1 1v8l-1 2h-1v1l1 1h2v-2h1v-1l1-4v-2l1-2-1-4-1-1v-6l3-2v-4l-1-1-3-1-4-1h-4l-5 1h-11l-6 1h-4l-2-1h1l1-2 1-1h-3l-1 1-2-1zm2 12"/><g fill="none" stroke="#fedf00" stroke-linecap="round"><path d="M569 360h-4l-7-1-3 2h-2l1-1-2 1-2-1 1-1h-1l-1-1h1l4-1 8 1 6-1 1-2-1-1-1-1"/><path fill="#fcd900" stroke-linecap="butt" d="M525 351h-2v1h2z"/><path d="m536 364 1 2v4m7-7v1l-1 4v0m-11-4c1 0 0 4 2 4"/><path stroke-linecap="butt" d="M560 370h1l2-2"/><path d="m552 368 8-3m-4-1h1q1-1 2 1l5 3h0l1 1"/><path fill="#fcd900" stroke-linecap="butt" d="m518 355 1-1 1 1v1l-1-1z"/></g><path fill="#0065bd" d="m525 364-2-1h1l1-1v-2h1l1 1v4zm-1 1a1 1 0 1 1 1 1zm-2-16v-2l-1-1v-3h1l1 1v3h1l-1 1zm4 10 2 1 4-4 1-4h-2l-2 4zm5 18 1-1h1l-1 3v1h-1zm33 2 1 1 2 1h-4zm-10-2 2 1 1 1h-4zm-17 2 1 1 2 1h-5zm-9-30-1-1 1-1v-1l-1-1 1-2 1-1v2l1 2v2l-1 1z"/></g><use xlink:href="#ad-b" width="100%" height="100%" y="37"/></g><path fill="none" d="M211 204h42v42h-42zm47 0h42v42h-42zm-47 79 2 3 2 3 6 4 9 1 5-1h13l5 2v-44h-42v30zm89 0-1 3-3 3-6 4-9 1-5-1h-13l-5 2v-44h42v30z"/></svg>