<svg xmlns="http://www.w3.org/2000/svg" xmlns:xlink="http://www.w3.org/1999/xlink" viewBox="0 0 512 512"><defs><path id="ai-b" fill="#f90" d="m271 87 8 10c-2 2-2 1-2 5q3-4 5-3c4 4 1 13-3 15-3 2-3 0-8 3q3 2 8 0v7q2-1 2-6c2-5 11-9 11-14q3-1 6 1-3-6-6-6-2-7-10-9l-6-1c-1-2-6-4-5-2"/></defs><clipPath id="ai-a"><path d="M0 0v128h299v128h-43zm256 0H128v299H0v-43z"/></clipPath><path fill="#012169" d="M0 0h512v512H0z"/><path stroke="#fff" stroke-width="50" d="m0 0 256 256m0-256L0 256"/><path stroke="#c8102e" stroke-width="30" d="m0 0 256 256m0-256L0 256" clip-path="url(#ai-a)"/><path stroke="#fff" stroke-width="75" d="M128 0v299M0 128h299"/><path stroke="#c8102e" stroke-width="50" d="M128 0v299M0 128h299"/><path fill="#012169" d="M0 256h256V0h85v341H0z"/><path fill="#fff" d="M324 224c0 91 9 122 29 143a179 179 0 0 0 35 30 180 180 0 0 0 35-30c20-21 29-52 29-143-14 7-22 10-34 10a78 78 0 0 1-30-10 78 78 0 0 1-30 10c-12 0-20-3-34-10"/><g transform="matrix(1.96 0 0 2.002 -141 95)"><use xlink:href="#ai-b"/><circle cx="281" cy="91" r="1" fill="#fff" fill-rule="evenodd"/></g><g transform="matrix(-.916 -1.77 1.733 -.935 463 861)"><use xlink:href="#ai-b"/><circle cx="281" cy="91" r="1" fill="#fff" fill-rule="evenodd"/></g><g transform="matrix(-1.01 1.716 -1.68 -1.031 825 -71)"><use xlink:href="#ai-b"/><circle cx="281" cy="91" r="1" fill="#fff" fill-rule="evenodd"/></g><path fill="#9cf" d="m340 347 13 20a179 179 0 0 0 35 30 180 180 0 0 0 35-30l13-20z"/><path fill="#fdc301" d="M321 221c0 94 10 126 31 148a187 187 0 0 0 36 31 186 186 0 0 0 36-31c21-22 31-54 31-148-15 6-23 10-35 10q-17-3-32-10-15 7-31 10c-13 0-21-4-36-10m4 5c14 6 22 9 33 9a76 76 0 0 0 30-9q13 8 30 9c11 0 19-3 33-9 0 89-10 119-29 140a176 176 0 0 1-34 29 176 176 0 0 1-34-29c-20-21-29-52-29-140"/></svg>