<svg xmlns="http://www.w3.org/2000/svg" xmlns:xlink="http://www.w3.org/1999/xlink" viewBox="0 0 512 512"><path fill="red" d="M0 0h512v512H0z"/><path id="al-a" fill="#000001" d="M205 100c-5 0-13 1-13 5-14-2-15 3-15 8q3-3 5-3 2-1 5 2l5 4h-12l-6-3-5-4q-6-5-5 2 3 6 11 7l9 1h11l-6 3q-6 0-11-2 0 3 9 6 16 3 25 7 8 5 11 9 7 10 6 12 2 14-9 16-6 1-10-3-4-3-3-12c0-3 3-9 1-11l-35-16q-5 0-6 4a54 54 0 0 1-38-25c-5-8-12 0-11 8q4 13 17 19 12 8 28 9c5 1 5 8-1 9-13 0-23 0-33-10-7-6-12 2-9 6 3 14 23 18 43 14 8-2 3 7 1 7-8 6-23 12-37 0q-10-6-8 6c6 17 29 14 44 5 4-2 8 3 3 7-19 13-29 13-37 8-11-4-12 8-6 12 7 4 26 1 39-7 6-5 6 2 2 5-15 13-22 17-38 15-9-1-8 9-2 13 9 6 26-3 40-14 5-3 6 2 3 7a57 57 0 0 1-23 20 29 29 0 0 1-19 0c-7-2-7 5-4 10q5 6 20 2 15-6 25-20c6-5 6 2 3 7q-20 31-42 27c-8-1-9 5-5 10q13 10 27 0l31-33q9-5 6 9-2 8-15 15c-7 4-2 9 3 9q6 0 13-8c6-7 6-11 10-21q6-7 8 2c-3 11-5 12-10 17-5 4 3 6 6 4q12-10 14-19c2-5 8-3 5 5q-9 26-35 29-3 1-2 4l7 8-32 8-16-10c-1-4-2-9-10-5q-8-4-12 1 7 0 8 3 5 9 14 5l9 8h-18q-10-10-16-1-5-1-7 4 5-2 7 0 10 5 15 0l18 1-8 5q-13-4-16 9l-2 10q1-5 6-8 12 3 12-6l15-8 12 4q2 9 12 6c7 1 6 4 7 6q4-5-3-10-4-8-10-4c-5-1-6-3-11-5l32-8 8 7q3 2 4 0l17-27q4-5 10-7 3-2 6 1 2 2 2 9-1 8-4 11l-6 9q-8 9-14 11c-7 5-9 3-15 3q-10 1-3 8a21 21 0 0 0 14 3l10-7c3-4 8 0 4 4q-9 12-20 13-11 3-1 8c10 4 18-4 23-9q6-6 5 2-4 16-16 15-9 1-1 8c10 7 17-5 21-13q4-7 7 2 0 11-12 21l21 32 20-228-20-36-11-11v-2l4-1q-5-6-16-8l10-1a32 32 0 0 0-14-11l9-7q-11-1-20-4zm1 9q6 1 6 3 0 3-6 4-6 0-7-4 0-2 7-3"/><use xlink:href="#al-a" width="100%" height="100%" transform="matrix(-1 0 0 1 512 0)"/></svg>