<svg xmlns="http://www.w3.org/2000/svg" viewBox="0 0 512 512"><path fill="#3a7dce" d="M0 0h512v512H0z"/><path fill="#fff" d="M108 241c-4-8-4-8-4-16h-3c-1 0-1 8-5 6 0-1 3-6 0-8l-1-8s-4 3-7-5c-1-3-3 2-3 2s1 2-1 3l-6-4c-3-2 0-5-5-7 3-10 3-8 12-12-5-4-5-4-9-10q-6-2-12-8c-7-10-10-29-10-43 4-5 10 16 19 22l12 5 14 12 16 6c7 6 10 14 15 16 6 0 7-4 9-4q15-1 17-6c2-2 7 2 21-4l-1-8s3-3 8-2c0-3 0-13 5-17q-3-6-1-6 3-1 3-5c-2-9 1-9 2-11 0-3-3-2-2-5 1-4 6-5 7-8 1-2-2-4-1-5v-11c9-3 12-12 15-8 2-12 4-16 14-16 2-4-4-7-2-8q5-1 11 6c1 2 1-3 2-3q4-1 5-3l3-10q3-3 4 8c8 0 24 2 31 4q7 1 14-2c4 4 7 1 9 10 3 5 7 0 8 2 6 18 26 6 28 6s5 8 7 8c4-1 3-3 6-2-1 7 5 14 5 19h3l4-5 8 1 18 6q2 6 7 5c3 2 1 5 2 5q5-4 8-2 6 3 9 10v22l5 13c-1 7 5 19 5 22q-1 5-5 10c7 6 0 15-3 21 26 6 14 18 35 12-5 14-4 13 2 26-11 8-1 11-8 20 0 1 5 9 11 9-2 16-7 10-5 33-14 0-8 18-18 16 1 11 6 12 4 24-7 2-7 2-11 7l-5-2c-2 10-5 12 0 22h-9c0 3 4 4 4 8 0 1-10 8-17 8-2 5 5 10 4 12-8 2-11 13-11 13s4 2 3 4q-2-2-7-2c-2 1-6 0-10 8-4 2-6 1-10 6-1-5-4 0-6 2l-7 6 2-6-9 2h-1l-2-6-8 8-4-2-5 8c-1 0-5-5-8-4-17 7-20-14-23-2q-3-2-6 0c-2 1-3-3-5-3-4 0-4 4-6 3-2-9-13-8-14-12s5-4 7-6c1-4-2-6 4-10 7-6 3-8 4-12q4-7 1-13l-7-18c-4-1-4 7-9 9-10 4-29-10-32-10s-17 4-16-4c-2 7-10 2-10 2-7 0-4 6-9 5l-24-2v4l-14-8-12-4c-10-4-5-13-22-7v-12h-9c3-24 0-12-2-34l-7 2c-7-10 10-8-5-15 0 0 0-12-4-8l2 6c-14-2-17-6-17-22 0 0 11 2 10 0-1-3-4-22-3-23 0-3 10-9 8-15z"/><path fill="none" stroke="#fff" stroke-linejoin="round" stroke-width="3" d="M596 298v3zM120 148s-3 0-3 3zm-1-6q-3 0-3 2zm13 36s3 0 2 3z" transform="matrix(.86021 0 0 .96774 -50 10)"/></svg>