<svg xmlns="http://www.w3.org/2000/svg" xmlns:xlink="http://www.w3.org/1999/xlink" viewBox="0 0 512 512"><path fill="#74acdf" d="M0 0h512v512H0z"/><path fill="#fff" d="M0 171h512v170H0z"/><g id="ar-c" transform="translate(-154)scale(1.024)"><path id="ar-a" fill="#f6b40e" stroke="#85340a" stroke-width="1" d="m397 251 28 62 2 1v-1l-24-64m0 24c-1 9 5 14 4 23-1 8 4 13 5 16v6q2 0 2-7c0-4-4-6-3-16s-4-13-3-22"/><use xlink:href="#ar-a" width="100%" height="100%" transform="rotate(23 400 250)"/><use xlink:href="#ar-a" width="100%" height="100%" transform="rotate(45 400 250)"/><use xlink:href="#ar-a" width="100%" height="100%" transform="rotate(68 400 250)"/><path id="ar-b" fill="#85340a" d="M404 274c1 9 6 13 5 22 2-7-3-12-3-22m-8-23 20 42-16-44"/><use xlink:href="#ar-b" width="100%" height="100%" transform="rotate(23 400 250)"/><use xlink:href="#ar-b" width="100%" height="100%" transform="rotate(45 400 250)"/><use xlink:href="#ar-b" width="100%" height="100%" transform="rotate(68 400 250)"/></g><use xlink:href="#ar-c" width="100%" height="100%" transform="rotate(90 256 256)"/><use xlink:href="#ar-c" width="100%" height="100%" transform="rotate(180 256 256)"/><use xlink:href="#ar-c" width="100%" height="100%" transform="rotate(-90 256 256)"/><circle cx="256" cy="256" r="28" fill="#f6b40e" stroke="#85340a" stroke-width="2"/><path id="ar-h" fill="#843511" stroke-width="1" d="M266 250q-3 0-5 3 4 3 10-1zm0 0 4 2q-5 3-8 0z"/><use xlink:href="#ar-d" width="100%" height="100%" transform="matrix(-1 0 0 1 512 0)"/><use xlink:href="#ar-e" width="100%" height="100%" transform="matrix(-1 0 0 1 512 0)"/><use xlink:href="#ar-f" width="100%" height="100%" transform="translate(19)"/><use xlink:href="#ar-g" width="100%" height="100%" transform="matrix(-1 0 0 1 512 0)"/><path fill="#85340a" d="M252 260a2 2 0 1 0 2 3l2 1 3-1 1 1a2 2 0 0 0 1-4l1 1a1 1 0 0 1-3 0l-3 2-3-2-1 2a1 1 0 0 1 0-3m2 6-5 3 3-2h8l3 2-5-3z"/><path fill="#85340a" d="m253 268-4 1 7 1 7-1h-7z"/><path fill="#85340a" d="M250 269h-1c4 1 2 3 7 3s3-2 7-3c-5 0-3 3-7 3s-3-3-6-3"/><path fill="#85340a" d="M260 276a4 4 0 0 0-8 0 4 4 0 0 1 8 0"/><path id="ar-e" fill="#85340a" stroke-width="1" d="M238 250q9-6 15-2l2 4q1 3-2 8h1q2-5 1-10l-1-2q-7-7-16 2"/><path id="ar-d" fill="#85340a" stroke-width="1" d="m246 249 5 1 2 1v1l-3-2zl-6 3q-1-1 6-3"/><use xlink:href="#ar-h" width="100%" height="100%" transform="translate(-20)"/><circle id="ar-f" cx="246" cy="252" r="2" fill="#85340a" stroke-width="1"/><path id="ar-g" fill="#85340a" stroke-width="1" d="M241 253q6 4 10 2l1-2-2 1q-3 2-9-1"/></svg>