<svg xmlns="http://www.w3.org/2000/svg" xml:space="preserve" version="1.0" viewBox="0 0 512 512"><path fill="#006233" d="M0 0v512h512V0Z" class="arab-fil0 arab-str0"/><g fill="#fff" fill-rule="evenodd" stroke="#fff"><path stroke="none" d="M192 265c-10 14-3 23 7 24 7 0 21-9 21-20l-4-2q3 6-4 11c-9 8-28 8-20-13"/><path d="M1277 2882c146 4 192-137 102-258l-8 13c5 56 14 112 15 170-18 20-44 13-49-10 1-32-10-58-23-83l-7 13q15 31 20 70c-42 50-88 60-71-6-33 58 17 98 73 10 13 60 59 22 62 9 5-39 3-103-8-153 41 70 42 121 21 155-24 37-76 55-127 70z" transform="matrix(.38779 0 0 .35285 -224 -716)"/><path d="M1360 2722c-31 2-47-4-30-27 16-23 32-5 36 26 4 28-55 64-75 64-31 0-45-39-17-75-36 104 79 44 86 12zm-22-24c-3 0-6 7-4 8 5 4 14 2 15 0 2-5-5-8-11-8z" transform="matrix(.38779 0 0 .35285 -224 -716)"/><path d="M1191 2771c-30 59-1 83 38 77 22-4 51-20 67-42q1-72-4-141c15-18-2-18-7-37-3 11-9 23-3 32q6 70 6 142-45 34-69 33c-33-1-40-29-28-64z" transform="matrix(.38779 0 0 .35285 -224 -716)"/><path d="M1252 2787c-1-45-1-95-5-126 15-18-1-18-6-38-3 12-10 24-4 32q4 72 5 143c4-2 8-3 10-11z" transform="matrix(.38779 0 0 .35285 -224 -716)"/><path stroke="none" d="m216 267-3-5 1-6 5 6m2 1 10 1c13 1 26-1 25 14a26 23 0 0 1-26 22c-16 0-30-16-5-46h8q7 2 15-3l-2-28q-2-6 1-12c2 7 9 7 3 13l1 26c-3 5-5 9-14 11-9-2-13-13-23-9 3-11 27-13 29-5-1 9-24 5-30 33-1 8 8 16 19 16 9-1 20-7 21-18 1-9-13-7-18-7q-13 0-17-3m8-19q5-2 9 0l-4 3z"/><path d="M1194 2651a49 49 0 0 1 5 21c-2 10-11 20-20 20q-9 3-17-10 0-3-5-2-14 24-26 23c-19 0-13-16-30-21-7-1-19 6-24 20-23 64-43 0-35-29q4 44 16 44c5 0 9-12 16-25 5-9 17-26 29-26s5 21 28 21q16 0 32-26 3 2 3 5c2 6 12 22 26 8q0-7-4-10z" transform="matrix(.38779 0 0 .35285 -224 -716)"/><path stroke="none" d="M267 201q-7 2-10-2 6 0 7-4-3-4-10-4-11 0-11 6 5-1 7 2-8 4-20 3c-12 1-13-4-17-8l-1-1c-4 0-7 12-11 12-4-1-3-8-4-12-1 7 1 30 14 5h1q6 10 18 10 9-1 23-7 2 4 9 5 10 1 13-8c1-2 1-7-2-7-4 0-7 9-6 16l1-2m-17-10q4-2 7 1l-4 1zm18 5q1-3 4-5 1 3-4 5m16 4-2-6q0-8 8-7l11 3 11 3q2 2-1 3l-23 10q-6 0-10-7l-2-26 3-3 1 27zm6 1q-6 0-5-5-2-6 4-6l15 5z"/><path stroke="none" d="M286 209v4h1z"/><path stroke-linecap="round" stroke-linejoin="round" stroke-width="4" d="m1094 2719 7-8 8 7-7 7zm18-3 7-7 8 7-7 7zm-49-75 7-7 8 7-8 7zm3 22 7-8 8 7-8 7zm128 35 7-5 6 6-7 5zm-86-136 5-4 5 4-5 5zm12-1 5-5 5 5-5 4zm246 54-5 3-4-4 5-3z" transform="matrix(.38779 0 0 .35285 -224 -716)"/><path stroke="none" d="M225 254v3h5l4-3z"/><path d="m1265 2600 4-1v10l-3 1z" transform="matrix(.38779 0 0 .35285 -224 -716)"/></g><path fill="#fff" d="M256 348c55 0 100-41 100-91a87 87 0 0 0-35-69 75 75 0 0 1 21 52c0 43-39 78-86 78s-86-35-86-78a75 75 0 0 1 21-52 87 87 0 0 0-35 69c0 50 45 91 100 91" class="arab-fil2"/><g fill="#fff" stroke="#000" stroke-width="8"><path d="M-54 1623c-88 44-198 32-291-28q-7-4-2 12c10 29 18 52-12 95-13 19 2 22 24 20 112-11 222-36 275-57zm-2 52c-35 14-95 31-162 43-27 4-26 21 22 27 49 5 112-30 150-61z" class="arab-fil2 arab-str2" transform="matrix(.25022 0 0 .22768 256 29)"/><path d="M0 1579c12 0 34-5 56-8 41-7 11 56-56 56v21c68 0 139-74 124-107-21-48-79-7-124-7s-103-41-124 7c-15 33 56 107 124 107v-21c-67 0-97-63-56-56 22 3 44 8 56 8z" class="arab-fil2 arab-str2" transform="matrix(.25022 0 0 .22768 256 29)"/><path d="M54 1623c88 44 198 32 291-28q7-4 2 12c-10 29-18 52 12 95 13 19-2 22-24 20-112-11-222-36-275-57zm2 52c35 14 94 31 162 43 27 4 26 21-22 27-49 5-112-30-150-61z" class="arab-fil2 arab-str2" transform="matrix(.25022 0 0 .22768 256 29)"/><path d="M3 1665c2 17 5 54 28 38 31-21 38-37 38-67 0-19-23-47-69-47s-69 28-69 47c0 30 7 46 38 67 23 16 25-21 28-38 1-6 6-4 6 0z" class="arab-fil2 arab-str2" transform="matrix(.25022 0 0 .22768 256 29)"/></g><g fill="#fff" stroke="#000" stroke-width="8"><path d="M-29 384c-13-74-122-79-139-91-20-13-17 0-10 20 20 52 88 73 119 79 25 4 33 6 30-8z" class="arab-fil2 arab-str2" transform="matrix(.25022 0 0 .22768 256 29)"/><path d="M4 386c11-76-97-112-110-129-15-18-17-7-10 14 13 45 60 98 88 112 23 12 30 17 32 3z" class="arab-fil2 arab-str2" transform="matrix(.25022 0 0 .22768 256 29)"/><path d="M93 430c10-91-78-105-101-134-15-18-16-8-11 13 10 46 54 100 81 117 21 13 30 18 31 4z" class="arab-fil2 arab-str2" transform="matrix(.25022 0 0 .22768 256 29)"/><path d="M66 410c-91-59-155-26-181-29-25-3-33 13 10 37 53 29 127 25 156 14 30-12 21-18 15-22zm137 40c-28-98-93-82-112-94s-21-9-17 13c8 39 75 82 108 95 12 4 27 10 21-14z" class="arab-fil2 arab-str2" transform="matrix(.25022 0 0 .22768 256 29)"/><path d="M190 467c-78-63-139-16-163-23-18-5-10 7-3 12 50 35 112 54 160 32 19-8 20-10 6-21zm169 64c1-62-127-88-154-126-16-23-30-11-22 26 12 48 100 101 148 111 29 6 28-4 28-11z" class="arab-fil2 arab-str2" transform="matrix(.25022 0 0 .22768 256 29)"/><path d="M355 542c-81-73-149-49-174-56-25-6-35 9 4 39 48 36 122 43 153 36s23-14 17-19zm145 107c-23-106-96-128-114-148-17-20-35-14-20 34 18 57 77 107 108 119 30 13 28 3 26-5z" class="arab-fil2 arab-str2" transform="matrix(.25022 0 0 .22768 256 29)"/><path d="M499 663c-59-95-136-92-160-105-23-14-39-2-8 39 36 50 110 78 144 80s28-7 24-14z" class="arab-fil2 arab-str2" transform="matrix(.25022 0 0 .22768 256 29)"/><path d="M575 776c34-108-44-148-52-166q-14-27-23 1c-22 77 49 152 60 167 11 14 13 7 15-2z" class="arab-fil2 arab-str2" transform="matrix(.25022 0 0 .22768 256 29)"/><path d="M559 806c-27-121-98-114-114-131-17-17-19-5-16 17 8 59 79 99 111 119 10 6 22 13 19-5zm68 142c49-114-9-191-27-208-18-16-29-23-23 0 8 35-20 125 23 191 14 22 16 43 27 17z" class="arab-fil2 arab-str2" transform="matrix(.25022 0 0 .22768 256 29)"/><path d="M601 971c11-70-29-134-72-159-25-15-26-11-26 10 2 65 63 119 81 149 17 28 16 7 17 0z" class="arab-fil2 arab-str2" transform="matrix(.25022 0 0 .22768 256 29)"/><path d="M590 1153c-36-132 39-208 62-223 22-16 36-22 26 3-15 37 1 140-56 205-18 22-25 45-32 15z" class="arab-fil2 arab-str2" transform="matrix(.25022 0 0 .22768 256 29)"/><path d="M598 1124c30-115-35-180-55-193-19-13-31-18-22 3 12 32-1 122 49 178 16 19 22 38 28 12z" class="arab-fil2 arab-str2" transform="matrix(.25022 0 0 .22768 256 29)"/><path d="M561 1070c-54 58-55 143-31 193 15 29 17 27 31 6 38-61 15-149 17-188 1-37-11-17-17-11z" class="arab-fil2 arab-str2" transform="matrix(.25022 0 0 .22768 256 29)"/><path d="M650 1162c0 80-49 145-101 165-30 11-30 8-26-16 14-90 83-123 108-152 24-28 19-5 19 3z" class="arab-fil2 arab-str2" transform="matrix(.25022 0 0 .22768 256 29)"/><path d="M464 1400c88-80 41-136 45-188 2-28-9-21-19-11-56 55-59 153-47 191 5 17 13 15 21 8z" class="arab-fil2 arab-str2" transform="matrix(.25022 0 0 .22768 256 29)"/><path d="M582 1348c-29 88-106 142-171 145-38 2-37-1-24-27 49-94 136-105 175-129 36-22 23 2 20 11z" class="arab-fil2 arab-str2" transform="matrix(.25022 0 0 .22768 256 29)"/><path d="M343 1513c114-57 91-152 112-176 15-17-3-15-12-9-67 39-121 101-122 167 0 25 2 28 22 18z" class="arab-fil2 arab-str2" transform="matrix(.25022 0 0 .22768 256 29)"/><path d="M187 1619c144 23 211-86 253-96 22-5 6-14-5-15-96-11-218 34-255 84-15 20-15 24 7 27z" class="arab-fil2 arab-str2" transform="matrix(.25022 0 0 .22768 256 29)"/><path d="M333 1448a279 279 0 0 1-218 179c-38 3-38-1-24-26 65-118 178-138 218-168 34-26 27 6 24 15zM29 384c13-74 122-79 139-91 20-13 17 0 10 20-20 52-88 73-119 79-25 4-33 6-30-8z" class="arab-fil2 arab-str2" transform="matrix(.25022 0 0 .22768 256 29)"/><path d="M-4 386c-11-76 97-112 110-129 15-18 17-7 10 14-13 45-60 98-88 112-23 12-30 17-32 3z" class="arab-fil2 arab-str2" transform="matrix(.25022 0 0 .22768 256 29)"/><path d="M-93 430c-10-91 78-105 101-134 15-18 16-8 11 13-10 46-54 100-81 117-21 13-30 18-31 4z" class="arab-fil2 arab-str2" transform="matrix(.25022 0 0 .22768 256 29)"/><path d="M-66 410c91-59 155-26 181-29 25-3 33 13-10 37-53 29-127 25-156 14-30-12-21-18-15-22zm-137 40c28-98 93-82 112-94s21-9 17 13c-8 39-75 82-108 95-12 4-27 10-21-14z" class="arab-fil2 arab-str2" transform="matrix(.25022 0 0 .22768 256 29)"/><path d="M-190 467c78-63 139-16 163-23 18-5 10 7 3 12-50 35-112 54-160 32-19-8-20-10-6-21zm-169 64c-1-62 127-88 154-126 16-23 30-11 22 26-12 48-100 101-148 111-29 6-28-4-28-11z" class="arab-fil2 arab-str2" transform="matrix(.25022 0 0 .22768 256 29)"/><path d="M-355 542c81-73 149-49 174-56 25-6 35 9-4 39-48 36-122 43-153 36s-23-14-17-19zm-145 107c23-106 96-128 114-148 17-20 35-14 20 34-18 57-77 107-108 119-30 13-28 3-26-5z" class="arab-fil2 arab-str2" transform="matrix(.25022 0 0 .22768 256 29)"/><path d="M-499 663c59-95 136-92 160-105 23-14 39-2 8 39-36 50-110 78-144 80s-28-7-24-14z" class="arab-fil2 arab-str2" transform="matrix(.25022 0 0 .22768 256 29)"/><path d="M-575 776c-34-108 44-148 52-166q15-27 23 1c22 77-49 152-60 167-11 14-13 7-15-2z" class="arab-fil2 arab-str2" transform="matrix(.25022 0 0 .22768 256 29)"/><path d="M-559 806c27-121 98-114 114-131 17-17 19-5 16 17-8 59-79 99-111 119-10 6-22 13-19-5zm-68 142c-49-114 9-191 27-208 18-16 29-23 23 0-8 35 20 125-23 191-14 22-16 43-27 17z" class="arab-fil2 arab-str2" transform="matrix(.25022 0 0 .22768 256 29)"/><path d="M-601 971c-11-70 29-134 72-159 25-15 26-11 26 10-2 65-63 119-81 149-17 28-16 7-17 0z" class="arab-fil2 arab-str2" transform="matrix(.25022 0 0 .22768 256 29)"/><path d="M-590 1153c36-132-39-208-62-223-22-16-36-22-26 3 15 37-1 140 56 205 18 22 24 45 32 15z" class="arab-fil2 arab-str2" transform="matrix(.25022 0 0 .22768 256 29)"/><path d="M-598 1124c-30-115 35-180 55-193 19-13 31-18 22 3-12 32 1 122-49 178-16 19-22 38-28 12z" class="arab-fil2 arab-str2" transform="matrix(.25022 0 0 .22768 256 29)"/><path d="M-561 1070c54 58 55 143 31 193-15 29-17 27-31 6-38-61-15-149-17-188-1-37 11-17 17-11z" class="arab-fil2 arab-str2" transform="matrix(.25022 0 0 .22768 256 29)"/><path d="M-650 1162c0 80 49 145 101 165 30 11 30 8 26-16-14-90-83-123-108-152-24-28-19-5-19 3z" class="arab-fil2 arab-str2" transform="matrix(.25022 0 0 .22768 256 29)"/><path d="M-464 1400c-88-80-41-136-45-188-2-28 9-21 19-11 56 55 59 153 47 191-5 17-13 15-21 8z" class="arab-fil2 arab-str2" transform="matrix(.25022 0 0 .22768 256 29)"/><path d="M-582 1348c29 88 106 142 171 145 38 2 37-1 24-27-49-94-136-105-175-129-36-22-23 2-20 11z" class="arab-fil2 arab-str2" transform="matrix(.25022 0 0 .22768 256 29)"/><path d="M-343 1513c-114-57-91-152-112-176-15-17 3-15 12-9 67 39 121 101 122 167 0 25-2 28-22 18z" class="arab-fil2 arab-str2" transform="matrix(.25022 0 0 .22768 256 29)"/><path d="M-187 1619c-144 23-211-86-253-96-22-5-6-14 5-15 96-11 218 34 255 84 15 20 15 24-7 27z" class="arab-fil2 arab-str2" transform="matrix(.25022 0 0 .22768 256 29)"/><path d="M-333 1448c29 95 137 173 218 179 38 3 38-1 24-26-65-118-178-138-218-168-34-26-27 6-24 15z" class="arab-fil2 arab-str2" transform="matrix(.25022 0 0 .22768 256 29)"/></g><path fill="#006233" d="M298 137c-4-3-22-1-25-3 6 5 20 1 25 3m43 9c-4-7-26-11-30-16 6 10 23 9 30 16m-4 7c-8-8-27-5-33-9 14 11 21 3 33 9m-48-33q9 3 15 11-6-5-16-10zm82 47c-3-7-15-14-16-17 4 9 13 11 16 17m3 12c-10-14-26-12-32-18 5 5 23 9 32 18m23 22c1-15-11-21-12-29 0 10 13 24 12 29m-6 9c-2-14-19-15-22-22 0 7 20 15 22 22m14-8c9 10 3 25 7 36-5-8-3-28-7-36m-15 43c14 13 8 28 14 34-7-9-6-26-14-34m28 2c-11 11-4 29-10 37 7-7 6-29 10-37m-14 0c-2-14-15-21-17-28-1 7 14 19 17 28m-7 32c2 9-6 29-4 35-5-10 5-31 4-35m18 21c-6 17-17 16-20 26 2-10 17-19 20-26m-36 8c-7 11-1 24-7 32 8-8 4-23 7-32m17 30c-8 15-26 14-34 25 8-14 30-16 34-25m-31-1c-16 9-11 20-23 31 15-11 14-23 23-31m-8 39c-15 0-36 18-49 16 13 3 37-13 49-16m-24-16c-1 14-40 23-44 32 5-12 39-21 44-32m-88-256q-9-5-13-11 3 8 11 12zm-9 4c-7-3-16-3-20-8 2 5 11 7 18 9zm-22 29c5-3 22-1 25-3-6 5-20 1-25 3m-43 9c4-7 26-11 30-16-6 10-23 9-30 16m4 7c8-8 27-5 33-9-13 11-21 3-33 9m33-22c5-9 18-10 22-15-5 8-17 9-22 15m39-8c13-6 27-1 33-3-8 4-27 2-33 3m-106 44c3-7 15-14 16-17-4 9-13 11-16 17m-3 12c10-14 26-12 32-18-5 5-23 9-32 18m-23 22c-1-15 11-21 12-29 0 10-13 24-12 29m6 9c2-14 19-14 22-22 0 7-20 15-22 22m-14-8c-9 10-3 25-7 36 5-8 3-28 7-36m15 43c-14 13-8 28-14 34 7-9 6-26 14-34m-28 2c11 11 4 29 10 37-7-7-6-29-10-37m14 0c2-14 15-21 17-28 1 7-14 19-17 28m7 32c-2 9 6 29 4 35 5-10-5-31-4-35m-18 21c6 17 17 16 20 26-2-10-17-19-20-26m36 8c7 11 1 24 7 32-8-8-4-23-7-32m-17 30c8 15 26 14 34 25-8-14-30-16-34-25m31-1c16 9 11 20 23 31-15-11-14-23-23-31m8 39c15 0 36 18 49 16-13 3-37-13-49-16m24-16c1 14 40 23 44 32-4-12-39-21-44-32m57-236c3-13 18-15 20-22-1 8-19 16-20 22m44-31c-2 10-18 15-21 22 1-10 18-15 21-22m-13 22c8-11 24-8 30-15-4 8-24 8-30 15" class="arab-fil0"/><path fill="none" stroke="#f7c608" stroke-linecap="round" stroke-linejoin="round" stroke-width="2" d="M373 256c0 59-53 107-118 107s-117-48-117-107 53-107 118-107 117 48 117 107"/><path fill="#f7c608" d="M232 363v1l-2 2-9-2 3-8 9 1 1 2-1 1m-20-5v-1q2-2 3-1l8 2-3 9-8-3-1-3"/><path fill="#006233" d="m231 363-2 1-7-2 2-5 7 1 1 2h-1m-16-4 2-1 7 3-2 6-7-2-1-3"/><path fill="#f7c608" d="m200 353-1 1-2 1-8-4 5-8 8 4 1 2-1 1m-18-10 1-1h2l7 4-5 7-7-4v-3"/><path fill="#006233" d="m199 352-2 1-6-4 4-5 6 4 1 1-1 1m-15-9 2-1 6 4-4 5-6-3v-3"/><path fill="#f7c608" d="m173 335-2 1h-2l-6-6 7-6 6 6v2l-1 1m-14-15 1-1 3 1 5 6-7 6-6-7 1-3"/><path fill="#006233" d="m172 333-1 1h-2l-5-5 5-4 5 4v2l-1 1m-11-12 2 1 4 5-5 4-5-5 1-3"/><path fill="#f7c608" d="m152 310-2 1-2-1-4-7 8-4 5 7-1 2-1 1m-9-17 1-1 2 1 3 7-8 4-4-8 2-2"/><path fill="#006233" d="m151 308-2-1-3-6 6-2 4 6-1 1-1 1m-7-15h2l2 7-6 2-3-6 2-2"/><path fill="#f7c608" d="M139 281h-1l-3-1-1-8 9-1 2 8-1 2h-2m-3-19h2l2 1v8l-9 1-1-8 3-2"/><path fill="#006233" d="m139 280-1-1-2-7 7-1 1 7v1h-1m-3-16 1 1 1 7-7 1-1-7 2-1"/><path fill="#f7c608" d="M136 250h-1l-2-2 1-8 9 1v8l-2 2h-2m3-19h2l1 2-2 8-9-2 2-8 3-1"/><path fill="#006233" d="m137 249-1-1-1-1v-7l7 1-1 7-1 1h-1m2-16h1q2 0 1 2l-1 6-7-1 2-6 2-1"/><path fill="#f7c608" d="m143 220-1-1-2-2 4-7 9 3-4 8h-3m8-17h2l1 2-4 7-9-3 4-8h3"/><path fill="#006233" d="M144 218h-1l-1-2 3-6 6 3-2 6-2 1-1-1m7-14h1l1 2-4 6-6-3 3-6h3"/><path fill="#f7c608" d="m159 192-1-1-1-2 6-6 7 5-5 7h-3l-1-1m14-15 1 1v3l-6 5-7-5 6-6h3"/><path fill="#006233" d="M160 191v-1l5-5 5 4-5 5h-1l-1-1m11-12 1 1v2l-5 5-5-4 5-5h2"/><path fill="#f7c608" d="m183 170-1-1v-3l7-4 5 7-7 5-2-1-1-1m18-10 1 1-1 2-8 4-5-7 8-4q2-1 3 1"/><path fill="#006233" d="M184 169v-1l6-4 4 5-6 4h-2l-1-1m15-9 1 1-1 2-6 3-4-5 6-4 3 1"/><path fill="#f7c608" d="M212 155v-2q-1-2 1-2l8-2 3 8-8 3-3-1v-2m20-5 1 1-2 2-8 2-3-8 9-2 2 2"/><path fill="#006233" d="m214 154 1-1 7-2 2 6-7 2-2-1v-1m16-4-1 1-7 2-2-6 7-2 2 2"/><path fill="#f7c608" d="m245 147 2-2h9v9h-9l-2-2v-1m21 0v1l-1 2h-9v-9h9l1 3"/><path fill="#006233" d="M247 148v-1l2-2h7v6l-7 1-2-1v-1m18 0-2 1-7-1v-6h7l2 2"/><path fill="#f7c608" d="m277 149 1-1 2-2 8 2-2 9-9-2-1-2v-1m21 5-1 1q0 2-2 1l-8-2 2-9 9 3 1 3"/><path fill="#006233" d="M279 150v-1l2-1 7 1-2 6-7-1-1-2m17 4-2 1-7-3 2-6 7 2 1 3"/><path fill="#f7c608" d="M310 159v-1l3-1 7 4-5 8-7-4-1-3 1-1m18 10-1 2h-2l-8-4 5-8 8 5v3"/><path fill="#006233" d="M311 160h3l6 3-4 6-6-4-1-1 1-1m14 8v1h-2l-6-3 4-6 6 4v2"/><path fill="#f7c608" d="m337 177 1-1h3l6 6-7 6-6-6v-2l1-1m14 14-1 1h-3l-5-6 7-6 6 6-1 3"/><path fill="#006233" d="m338 179 1-1h2l5 5-5 4-5-5v-2h1m11 12h-2l-5-5 5-4 5 5-1 2"/><path fill="#f7c608" d="m359 202 1-1 2 1 4 7-8 3-4-7v-2h2m9 17h-4l-3-8 8-3 4 7-2 3"/><path fill="#006233" d="M359 203h3l3 6-6 3-3-6v-2h1m7 14-2-1-3-6 6-3 3 6-1 2"/><path fill="#f7c608" d="M371 230h2l2 1 2 8-10 2-2-8 2-2h1m3 19h-1l-2-1-1-8 9-2 2 8-3 2"/><path fill="#006233" d="M371 232h1l2 1 1 6-7 1-1-6 1-2h1m3 16h-1l-2-1-1-7 7-1 1 7-2 2"/><path fill="#f7c608" d="M375 261h1l2 2-1 8-10-1 1-8 2-1h1m-2 19h-2l-1-2 1-8 10 1-2 8-3 1"/><path fill="#006233" d="M374 263h1l1 1v7l-7-1v-6l2-2h1m-3 16-1-1 2-7 6 1-1 6q0 2-2 1"/><path fill="#f7c608" d="M368 292h1q3 2 2 3l-4 7-8-4 3-7 2-1 1 1m-8 17h-1q-2-1-1-3l4-7 8 4-3 7h-4"/><path fill="#006233" d="m367 293 1 1 1 1-3 6-6-2 2-6 2-1h1m-7 15v-1l3-6 6 2-3 6-3 1"/><path fill="#f7c608" d="m353 319 1 1v3l-5 6-8-6 6-6h3m-13 15-2-1v-2l6-6 8 6-6 6-4-1"/><path fill="#006233" d="m351 320 1 1v2l-4 5-6-4 5-5h2m-11 12v-2l5-5 5 4-4 5h-3"/><path fill="#f7c608" d="m329 342 1 1v2l-8 5-5-7 7-5h3v1m-17 11-1-1q-1-2 1-2l7-4 5 7-7 4q-2 1-3-1"/><path fill="#006233" d="M327 343v2l-6 4-4-5 6-4h2v1m-14 9-1-1 1-2 6-3 4 5-7 3-2-1"/><path fill="#f7c608" d="M300 357v2l-1 2-9 2-2-8 8-3 2 2v1m-19 5 1-2 9-2 3 9-9 2-2-2"/><path fill="#006233" d="m298 358-1 1-7 2-2-6 7-2 2 1v1m-17 4 1-1 7-2 2 6-7 2-2-1"/><path fill="#f7c608" d="M266 365v1l-1 2h-9v-8l9-1 1 2v1m-21 0v-1l2-2 9 1v8h-9l-2-3"/><path fill="#006233" d="m265 365-2 1h-7v-6h7l2 1m-18 1v-1l1-1h8v6h-7l-2-2"/></svg>