<svg xmlns="http://www.w3.org/2000/svg" viewBox="0 0 512 512"><path fill="#006" d="M0 0h512v512H0Z"/><path fill="#bd1021" d="M0 256 512 0v512Z"/><path fill="#fff" d="M41 256 511 27v458"/><path d="M335 289c5 0 5 5 5 5l19 1q3-9 10-3l9 5c2-10 16-8 16-8 6-14 6-14 3-16l-5-4a28 28 0 0 1-5-14c-1-3-5 2-6 1h-10v2l-4-1-2 2-6-1-12 3-13 9q-8 6-8 4c-1 6-13 12-13 12q-5 4-11 0c-4-2 0-7 0-7 1-2 2-2 2-9q1-7 11-15l16-20q1 6 2 5l4-7 4-4q-3-1-12 5c-5 5-9 3-9 3q-5-3-4-4c-3-12 8-20 8-20-14-3-4-21 14-29 17-8 17-11 17-11l2 3 12-7 15-8 1 4c28-10 56-32 56-32v5c5-5 21-14 21-14 0 6-5 8-5 8l1 3 15-11c5 4 1 11 1 11l3-2c1 7-7 13-7 13l4-1c-2 7-16 15-16 15q2 3-1 6-4 2-4 4c1 1 7-3 7-3 1 3-7 9-7 9 6 1 21-6 21-6q-2 9-14 13l-7 3c1 1 11-2 11-2-3 7-13 11-13 11q5 3 11-3l15-7h9c6-2 10 1 10 1 9 0 10 4 10 4l4 2q2 4 2 10l-1 3-1 3c0 1-2 7-17 7h-21l-3 1c-6 3-3-2-10 4s-11 5-11 5l-13 11q-5 3 0 4h10c-4 2-1 4-1 4l7-2c2 4-4 10-4 10h6q-1 5-7 7-4 2-2 3v4c-5-4-5 0-5 0l-1 10h-3l-6 8-2-3c-2 5-7 8-7 8l1 9h-4v1l36 1q2-1 3 4-1 5-3 4l-39-1-2 2c-2 1-1-1-2 4-1 4-8-1-8-1l-5 5q-1-9-6-3c-3 5 5 4 5 4l48-7q4-1 7 3c1 4-6 4-6 4l-47 6q-3 3-5 2 0 5-4 5l-6 1c-5 4-8 1-8 1q-4 2-8-1t-3-4l-30 3-2 1q0 3-2 5l3 6c0 4-5 4-3 7q5 3 13-2 8-3 12-2l12 3q6 1 5-2l2-2 1 3 4-2-2 3c-4 2 1 1 1 1l17-2 15 6v-4l4 2q2-2 1-3c10 6-2 8-6 9q-4 2-3 3l7-2 7-1q9 0 8 2l-6 1q3 3 1 4c-5-5-8 0-8 0l7 1 5 3 6 2q3 3 2 4l-4-3q-1 4-3 4c4-5-5-7-8-6l-7 2c8 7 13 5 13 5-1 3-7 2-7 2l2 3-10-4c-5-4-10-2-10-2 5 5-2 9-2 9-3 2 1 4 1 4q-4-1-4-3-3 0-4 2c0-4 5-2 5-6q1-6-18-5c-13 2-17-2-17-2l-1 1q3 2 3 5v2l-2-3-2 2v3q-3-1-1-5c2-2-3-4-3-4-1-2-6 0-6 0-9 1-14-4-14-4l-3-1c-9 4-18-5-18-5q-10 1-12-5l-6-6q-5-3-3-9l2-3c-4-6 7-8 7-9q0-4 5-4l4-2 4 1c1-1 6-5 10-3q8 2 9 1l29-4c2-3 3-6 11-8s13-6 13-6l-5-1-3-3-12 7c-9 5-9-6-9-6h-19q-1 6-3 6h-7c-4-2-4-8-4-8a65 65 0 0 0-32 7c-23-12-42-14-42-14 29-3 44-11 44-11a68 68 0 0 0 30 9q3-7 5-7z"/><path fill="#ffc221" d="M301 336q-7 4-4 6l-1 4-2 2q1 8 6 8l4 5a9 9 0 0 0 9 5q3 0 1-2l-4-3 6 5c6 7 12 6 14 5q3 0 2-1l-2-1c-9-1-12-7-12-7a26 26 0 0 0 17 7l2 1-3-1-1 1 3 1c2 0 0 0 4 3s13 0 13 0q-8-3-7-4c-8 1-11-4-11-4l-6-4q-6-4-5-6 1 3 7 5l4 1h-4l5 3c9 1 4-3 4-3 7 2 8-1 8-1 1 3 6 2 6 2-6 4-1 3-1 3h8q2 3 3 2h4q5 3 10 2l5 1-6 1q-3 2-15 0c-12-2-7-2-7-2l3 5 2 1 2-2 6 3v-2q5 3 6 2v-2l2 1h4l-2-1c4-3 12-2 12-2q6 3 5 5l3 2v-2l3 4c3-4-3-7-3-7h8l7 3 6 3-3-3v-1h3l-9-6 4-1-5-1h14c-2-4-12-3-15-3h-4l4-1 7-2q4-2 6-1-2-3-9 0-6 3-7 2l8-3q-2-1-6 1l-5-1 7-3-6-2q-4 6-13 1-9-4-10-3a15 15 0 0 1 16 1q6 3 6 1l-2-2c11 5 15 2 17 0 3-1-1-3-1-3q-1 5-7 4l-11-5q-8-2-17 0h-10q-5 0-14-3a25 25 0 0 0-16 3q-9 4-10 1-3-2-1-5c2-3 2-2 1-5q-1-4-3-4 5-4 3-5-1-1 2-2v-1l-1-1-5-1c-6-2-11 3-11 3q-4-3-5-1l-3 2q-2-1-4 2v5q-2 1-2 3v4l-1-2v-2l-2 2 2-4 3-4q-2-1-3 1"/><path d="M308 361s-3-3-3-6v-4 2l-1 2-2-3v-3l-3-1q-3 0 2 5l3 4zm14-9 1-4v-6l1-2c2-2-1-4 3-7l2-2-6 3c-2 1-10 5-8 7q3 3 1 4s-5-2-3-6l3-4 4-2 5-4-3 1-6 3c-1 2-5 5-4 9q-2 0-5-5s-8 10 9 14z"/><path fill="#ffc221" d="m396 319 47-7q5-1 6 2c1 3-5 3-5 3l-44 6-2-1z"/><path fill="#5a3719" d="M306 339s-4 10 14 12l1-2q2-3 1-7c-2-2 1-1 1-4l2-4s-6 2-8 5c-3 3 3 4 0 7l-5-4q-1 1-6-3"/><path d="M325 351s4 4 10 4q7 0 9-4l1 3s5-4 13-1l7 3-11 3c-8 4-30 3-29-8"/><path fill="#5a3719" d="m317 334 4-2zm-16 18s-3-3-1-3q1-1 1 3"/><path d="M385 371s2-4 8-4 7 3 14 4c0 0-9 2-15 0z"/><path fill="#5a3719" d="M327 354s9 5 16-1l2 2s6-5 16 1l-6 2c-7 3-23 5-28-4"/><path d="m361 359 15 1h7q-4 3 9 1c10-1 0 2 7 3 0 0-17 8-38-5"/><path fill="#5a3719" d="M383 354s5-2 10 0c4 2 3 3 7 3 0 0-3 3-8 0zm6 15s5-2 10 0l3 1q-1 2-8 1zm-25-9h17s-7 4 11 2h3q-2 1 1 2s-13 6-32-4"/><path d="m310 351 3 2 4 4 4 3s-9 2-13-3c0 1-3-3 2-6"/><path fill="#5a3719" d="m377 371-8-2c-4-2-6 0-8-2q-6-2-9-1c-1 0-4 0 0-2l-4-2q1 1-6 1s2 4-6 3a11 11 0 0 0 11 3s0 2 4 3l6 3s1-2-5-5l7 1c4 1 13 3 18 0m2 4s1 2 4 1q4-1 11 1s0-3-8-4zm-69-23s-3 3-1 6l9 2-2-2-3-4zm-3-13s-5 10 13 12l1-2q3-3 1-7-1-1 2-4-1-2 1-4s-6 2-8 5c-3 2 3 4 0 7l-5-4q-1 1-6-3z"/><path d="M355 362s4-1 14 3q14 5 16 3s-6 3-14-1-9-2-16-5"/><path fill="#ffc221" d="M418 360h3l3-1zm-7-6 3-1-3-2zm-76-25s-1-1 2-2l33-4 2 1q1 2-8 3l-27 3z"/><path fill="#ffc221" d="M365 327s0 5 4 5q6 1 7-2t0-6l-3 1q-3 0-3 2l1 2-2-1q1-2-2-1z"/><path fill="#ffc221" d="M383 324c3 0 2 5 0 7q-5 3-6 2-2-1 0-2l1-6 1-1z"/><path fill="#ffc221" d="M385 325s2 2 0 5q-1 1 1 1c2 0 7-2 6-5l-1-1q-1 1 0 0 3 0-2-4h-1l-3 2z"/><path fill="#ffc221" d="m390 321 3 3v1c1 0 5 0 4-3q-1-3-4-3-1-1-3 1zm-17 3-3-2 4-1 2 3zm6 0 4-1q1-2-6-2zm5-1 3-2-3-1h-3q2 0 3 3m1-4 3 2 3-3z"/><path fill="#5a3719" d="M294 310s8-6 12-5l7-1 11-1s-5-4-15-4l-12 6s-10-5-20-2z"/><path fill="#ffc221" d="m376 322 1 3q-2 0-1-1zm-10 0s-1 1 1 1l3-2h7l2-1h2l4-2q4 0 0-2v-1l2 1 2 1q-1-1 3-5l1-2h-5l-12 6q-6 0-10 6m-108-25 15 4s1-2-5-3c0 0 14-1 28 6 0 0 7-6 30-4v-4s-16 0-30-9c0 0-13 6-38 10m69 6c-1-13 4-14 4-14h5s-4 5-3 14l-3 1z"/><path fill="#5a3719" d="M330 311s-2-2-2-5l2-1q3 0 3 2l3 4z"/><path fill="#ffc221" d="M335 305v-5c0-7 1-6 2-5h2s-1-8-4-4l-1 11v5z"/><path fill="#5a3719" d="M363 305s4 1-3 2c0 0 1 9 9 3l9-5 1-2-1-1h-3l-2-1-1 2 3 1c0-1 3-2 0 0s-4-1-5-2zm-24 1h-2s-1 1-2-1v2s2 9 4-1"/><path fill="#ffc221" d="M336 295s-1 6 1 10h22v-10h-3v8h-1v-8h-2v8h-1v-8h-2v8h-1v-8h-3v8-8h-3v8h-1v-8h-3l1 8h-1v-8zm24 11s0-11 2-14q2-3 6 0l9 5 2 3q2 4-3 0l-3-2c-3-1 0 1 1 2q2 1 0 2z"/><path d="M368 298s-2-2 1-2q3 0 2 5c0 3-2-2-3-3m-3 10s-2 1-1 2q5-1 5-3zm3-3h2z"/><path fill="#ffc221" d="M380 302s0 4 4 5q1 1 2-1l-1-3-2-1h2l-2-1 2-1-1-1-1-1q1 1 2-1l-1-1h1q2-2 0-2h1l2-2c1-1 5-3 0-2q-7 2-7 4z"/><path fill="#ffc221" d="M391 305h2q0 2-2 3h-3l-2-2 1-1zm-5-1 1 1 5-1v-1h-5zm0-3 1 2h4l1-1q1-2-1-1zm0-3v2h3l3-1h-4z"/><path fill="#5a3719" d="m450 305 1 3-48-2 1-2z"/><path fill="#ffc221" d="M387 296v2h4l2-1-3-1h2l2-1q2-1-1-1-2 0 0-1h2v-1q0-1 0 0h1v-1h10v-2h2v-2q2-3 0-6l-4 5q-4 5-7 4l-7 1c-1 1 3 1 1 1l-2 1v1l-2 1zm4 12v1h3q2 0 1-2z"/><path fill="#ffc221" d="M396 294s4-4 7-1l4 3v1h1l1 1q2 1 0 1h-5s-2 0-1-1v-2 1l-2 1v1h-1c-1 0-4 1-1 1 4 0 0 0 2 2q3 3 0 4v1h2q-1 3-6 2l1-1-2-1-2-3q2 0 0-1v-1l3 1q2-1-1-1-3-1-2-2t2-1l-2-2 2-1q1 0 0 0z"/><path d="m399 295 1-1q2 1 0 1z"/><path fill="#ffc221" d="M403 299v2l1 3 46 1q-1-1 2-5z"/><path fill="#5a3719" d="m451 304 1-3q2-1 3 2-1 5-3 4z"/><path fill="#7b3c20" d="m398 315 3-4s9 6 8 1v-3l4-2h-8l-2 1q-2 3-6 1h-2v2zm18-16h-5l-5-5 1-2 2-4q0-2 1-1c1 1 5 5 6 4l1-2q0-2 1-1l1 4 1 5s-6-2-4 2m-20-10s3 2 5-1q3-2 2-5-2-4 1-5l2-5q1-5 4-7c1-1 4-3-1-4-4 0-14-3-16-7q-4-3-4-1l2 8c3 8 4 8 7 9q4 2 3 6z"/><path fill="#5a3719" d="M409 279s0 8 6 11l1-7 3 1-3-3c-3-1-1-6 0-7v-3q-2-2 1-1 4 0 1-2t0-3q6-1 4-3-4 0 0-2 5-1 2-2l-2-1q2-1-2-3c-3 0-8 1-4-2s-6-1-2-3c5-2-1-1-2-1v-1q0-2-2-1-1 2-1-1h-2l-4 1q-1-2-4 0-4 2-2-1s1-3-3 0-1-3-4-1q-4 3-4 1t-4 1c-3 2-1-2 0-2 0-1 2-6-1-2 0 0-2 3-5-2 0 0-3 5-4 2q-1-3-3 0v-2q0-3-7 1c-5 4 2 1-2 3s-14 8-5 6c9-1-5 4-1 5 3 1 2 4 14 0 12-3 10 0 16-3s-1 1 7 1 1 0 3 1q4 4 15 7c7 1 8-2 6 1l-3 5q-3 1-5 7c0 4-5 4-3 9z"/><path fill="#5a3719" d="m419 288-1-3 1 1s4-4-1-6q-4-3 0-5 2 0 0-3-2-1 2-2 3 0 1-1l-2-2s7-3 5-5q-3-1 2-2l2-3h-3v-2q-2-3-6-2-2 1 0-2 1-2-2-2l2-3h-5l1-2h-4l1-2-7 2h-6q-1-1 2-3c1-1 1-3-7 2q-1 1-2-3l-4 4-1-1q1-2-1 0-2 1-1-2l-1-4-4 4-4-4q-1-4-2 0l-2 4-2-3v2l-2-4s-8 4-9 7h-12l3-4q-1 1-2-2h3c1 0-2-3 1-4 2 0 4 2 3-2l-1-3 6 2c1-1-1-2 3-2 5 1 3-1 5-2 2 0 2 1 1-6s6 4 1-8l-3-5s-1 3-3 1c-3-3-9-3-6-5q3-3 2-6s-3 3-7 1-5 1-9 1l4-4c3-3-2 1-4 1q-4 1 1-3c5-3 13-9 12-14 0 0 2 3 7 1q8-2 11-6l7-6q2-1 1 2-2 5-12 10-10 4-11 7c-2 1-8 5-4 4 4 0 12 0 8-1-3-1-7 1-4-2l9-6c4-2 9-6 9-1-1 4-9 9-11 11q-3 1-2 2l-1 2v5l2 1 2 1 2 1q0 2 1-1t-1-1q-4 1-3-1l-1-1v-2l4-2 3-3c0-1-3 3-5 3q-2 1-1-2t6-4c2 0 6 1 4 3-1 3-7 6-4 6l3 1q2 2 0 4l-2 3s-3-4-3-1v5l4 2c1 0-4 2-2 2q4 1 7-3s-5-1-6-3c0 0 5-1 3-6 0 0 6 2 3 4q-3 2-1 3l2 1 1 1v3q3 0 1-2c-2-1 2-1 0-2l-2-1c-1-1 21-13 10-9 0 0 2-5 5-5q5 1 2 5-2 4-7 5s6 3-1 8l-1 1 5-3 3-3c2-1 10-6 12-10 3-4 3-5 8-8s4-3 4-4l3-4 13-8 11-8c2-3 8-6 10-6q2 2-4 6l-14 11-12 7q-3 0-4 3c-1 3-6 6-7 7q-4 2-5 5l-2 4-13 9s5 1 2 5l-3 3s8-2 3 4q-2 2 1 0 2-3 1-5l8-2q7 0 0-2s3-3 6-1q3 1-1 4l-9 3q2 1 8-1l3-1v3l-2 2q1 2-2 2-4 2-3 3 2 3-2 4-2-1-2-3-1-1-6 1-5 1-4-2-1 2-4 0-2-3 1-4l3-2q-5 1-8-2 0-2 2-2h3l2-3-3 2-6-3c-3 2 2 1 2 1q2 0-2 5-4 3 0 2c3 0 9 0 5 3l-6 4q-2-1 1-3h-1q-2 1-3-2-2-1-1-3l1-3q-2 2-2-1l-1-2v5q2 0 1 2-3 1-1 2 3 0 1 2-1 2 1 1 2 0 2 2 0 3 2 1 6-2 8 1-1 3 2 0c2-1 3 2 5 0q3-3 5 0 3 3-1 5c-3 2 1 1 3 0s7-2 10-1q4 2 6 0 4-1 7 2l8 2-8 2q-6 0-7 2l3 3h4q-1 1 1 3 3 2 2 3c-1 1 2 1 0 3q-3 2-3 5 1 3-1 2v4c-1 2-6 2-5 8l4-5 2-5 2-2v-4c2-1 0-1 2-3 2-1-1-2 0-3 2-2-4-4-2-5s5-3-5-2c0 0 2-4 10-4l-2 4h2l-2 3 5 4q-1-1-4 2l2 3q-1-1-3 2c-1 2-2 0-2 2l-1 2v2l1 3h-3q1 1-1 4c-2 0 1 1-1 1l-4 5 4-3 4-4q3-4 2-5l1-5q1-4 6-3l-3-4 4-2-6-4 5-5h-3l3-3 2 3q2-2 8-2s1 3-6 10h7q1 1-7 6c-5 2 1 4-4 4-6-1-4 1-4 4v6s-4-1-4 3l-2 6-4-2q0 2-7 8"/><path fill="#7b3c20" d="m413 235 4 2q5 0 2-3-3-2 3 0 3 2 4 1 2-2 1-3l2 1 1 1q-2 3 2 1l4-6 1 2q2 1 3-2l2-4q0 2 4 0c3-3 2-1 5-2l9-6q2-2 5-1c3 1 8-5 8-7v-2l-2-1-3 1c-1 1 2 1 1 2l-5 2q-5 0-5 2 2 2-1 3h-4l-5 5-2-1-2 3-3-2-4 4-2-2q1 2-5 6l-2-2-7 5q-3 0 0-2 1-1-1-3c-2-2-2 1-3 1h-2l-3 1q-2-1-3 1 1 3-1 5z"/><path fill="#5a3719" d="M424 230s0-3-2-4c0 0 14-2 4-8 0 0 12-2 9-6s-6-4-6-3q1-2 4-2s11 4 8 0l-3-4 9 5 1-3 4 2 1-2 4 4 1-3 4 2 1-3s5 2 6-1c0 0 5 1 2 3-5 2-1-1-5 2l-7 5c-1-1-3 3-5 1q-1-2-2 1l-3 4-2-2-2 3-3-2-4 4-3-2q1 2-4 6l-2-2z"/><path fill="#5a3719" d="M417 224s-2 1-1 2h2c2 0 19-3 4-8l3-1c3 0 12-3 8-6-5-4-9 1-5-3q3-5 1-5l-11 7q-5 2-2 4c4 1 6-3 6-2 1 1-7 5-5 7q0 2 2 3h3z"/><path d="M423 215s-2 1 0 0l6-2q-2-1-6 2"/><path fill="#7b3c20" d="M450 197s8 0 12 2l6 4s-1 3-6 1v3l-4-2-1 2q0-2-5-3l-1 1-5-1v2s-6-5-11-4l4 6s-10-1-8-7c1-6-1-4 6-4z"/><path fill="#5a3719" d="M401 213v1l6-2q2-2 0 1l-5 5s7-2 11-6l8-5c7-4 11-10 7-9l-11 7q-5 3-4 1l7-4c4-4 3-3 3-5 0-1-1-4 5-8 7-3 28-15 30-19q-1-2-14 6l-15 10q-2-1-3 2l-11 10-2 4z"/><path fill="#5a3719" d="M429 197h-3q-3-2 2-6l14-5s-1 4-11 7z"/><path fill="#aa5323" d="M432 194v2s19 2 29-10c0 0-13 1-19 5q0-2 14-8c14-6 14-8 15-10 0 0-13 4-19 4l-2 1-12 7s5 0 6-2c0 0-3 9-12 11"/><path fill="#5a3719" d="M396 205s-3 2-2 3q1 1 7-2c3-4 13-11 7-12 0 0-7 0-7 4 0 5-5 7-5 7m-17-3s5 3 3 5c0 0 15-12 10-15-4-3-7 2-6 3h2zm-4-4s3 1 3 3c0 1 10-7 8-11-2-1-7-2-7 1-1 3 5 0 3 2zm35-7s-2 2 0 3q2 1 4-2l6-6 4-4c2-1 14-7 21-14l12-9q11-7 14-12l-6 3-12 7-4 2-5 5-25 18z"/><path fill="#aa5323" d="m395 196 6-1c3 0 19-15 23-18l20-14 4-5 7-3c3-2 21-13 20-19l-33 21-26 19-10 9q-10 6-11 11"/><path fill="#aa5323" d="M389 190s5 0 6 2l13-10c2-3-1-2 5-6l29-20 12-9c5-3 22-11 20-18l-16 10-6 3-11 9-15 11c-5 3-15 9-20 14z"/><path fill="#aa5323" d="m374 189 3 1s5-5 9 0c0 0 18-13 20-16s5-3 12-8l16-11 12-10c3-2 12-7 10-12 0 0-7 4-11 9-5 5-4 0-9 4l-17 13c-6 3-2 3-7 5-4 3-3 3-5 3l-5 3-11 7z"/><path fill="#aa5323" d="M379 179s-1-2 1-3q4-3 5-8c1-2 0-2 5-4a201 201 0 0 0 41-23l9-6q1 1-1 4l-23 16-11 6c-2 2-1 2-10 7l-10 5 7-3 11-6 8-6c2 0 15-9 19-11l6-4q2 1 0 2l-9 8-11 6-3 4-8 4q-4 2-6 5l-20 11z"/><path fill="#aa5323" d="m438 141-1 2q2 2 6-1l14-11q3-2 3-5zm16-1 7-6 12-8q1 1-2 4l-11 8z"/><path fill="#7b3c20" d="M361 174s-5 3-3 4q4 3 6 1l3-1q3 0 6-3 2-4 7-6l3-5zm-30 23s4-2 9 0l-1-2s6-2 7-4q1-3 3-3c1-1 9-8 8-9l-2-4q2 0-9 6-13 4-23 15-10 13 2 16-1-2 19-2c13 1 17 6 18 7s4 4 1 10q2 1 3-2 0-3 1-1l1-2-2-8h1s3 2 2-2c-2-4-3-2-3-2q1 3-4-1l-9-5q-3-1 1-1l4-3h-4a14 14 0 0 0-13 2s2-5-2-5q-5 0-11 4-1-2 4-8c4-2 3-1 5-1q3-2 2-4s5 1 13-6c0 0-4 6-10 7q1 1-6 4-6 3-5 4"/><path fill="#5a3719" d="M317 227s2-15 16-16q16-1 19 1c3 2 8 3 6 5q-3 2-4 1c-1-1 3-3 1-3q-4-1-3 2l-2 4q0-2-3 0c-3 2 0 1 0 1h2q0 2-4 5l-7 2q-4 0-11 5-7 6-10-1z"/><path d="M333 226s1-3-1-4c0 0-8 1-10-1 0 0 8 0 13-2q6-4 2-4l-5 2v-3h5q2 1 9-2l4 3-1 3-1 1-3 2-3 4s2-5-2-6l-7 2s4 3 0 5"/><path fill="#5a3719" d="M340 217s-1-1 1-2q4 1 4 3-1 3-5-1"/><path fill="#fff" d="M461 194s-4 1 0 3q5 5 8 5 5 1 5 5l-2 5q-1 3 3 2l5-3q3 0 1 1-4 1-1 1h20q6-1 8-6l1-2q2-2 0-2l-3 2 1-1 3-2v-2l-1-2q2-3-1-2l-11 6-8 2-9 3c-3 2-3-1-2-1q0 2 5-1c3-3 2 0 11-3s7-3 10-5q7-2 5-4-3-4-6 0a37 37 0 0 1-17 7s20-9 18-10l-6-3q-1-1-5 1l-5 2-7 2-9 5q-1-1 10-6l11-5-4-1-6 2-7 2-7 3 3-2c2-1-1-1 3-1h1l9-4-10 2-4 1-7 4z"/><path fill="#5a3719" d="m344 215 3 2q1 2 1-1 0-2-3-2z"/><path fill="#7b3c20" d="m339 241 7-2c0 1-1-4 1-3h2v-4h5v-7l5 3v-2h3c1 1 2-8-2-10q1 1-5 3c-6 2-4 1-5 5s-3 3-7 5l-5 7z"/><path fill="#999" d="M473 190c1-1-2-1 2-1h1l9-4q-2-1-10 2l-4 1-7 4-3 2s-4 1 0 3q6 5 8 5 5 1 6 5l-2 5q-2 3 2 2l5-3q3 0 1 1-4 1-1 1h20q6-1 8-6l1-2q2-2 0-2-1 2-3 2l1-1q2 0 3-2l1-2-2-1h-2l-7 3-7 2c-3 1-9 5-10 2l-2 1q-5 2-3-1-1 2-2 0 0-2 3-2 5-1 5-3l-5 2q-3 1-5-1 0-4-5-4-5-2-3-4 2-3 7-4"/><path d="m486 210 12-4h1zq-3 1 0-1zm1 2s8-3 9-2q1 1-1 1zq-1 0 0 0m12-3h2z"/><path fill="#fff" d="M305 273s0-6 3-10 19-20 21-24l2 4 5-6 2 5 10-2-3 4h13s-11 6-8 7h6s-3 4-9 4c0 0 7 0 9 2 0 0-7 1-13 5l-1-2-2 3-7 6q-2 3-7 4 1-1-1-3l-6 2h-11l4-2c1 0 8 1 8-4 1-4-4-3-2-5l2-3-3 3-4 6-6 6z"/><path fill="#fff" d="m312 269 3-1 2-2v-3l2 1s3 6-7 5"/><path fill="#999" d="M307 265c0 4 6 2 6 2l-4 4c0-2-4-3-4-3zm21-23 1-2 3 4s2-5 4-6l2 5 10-2-3 4h13s-11 6-8 7h6s-3 4-9 4c0 0 7 0 9 2l-5 1-8-1 8-4q0-2-4 0s-5-4-1-7l-5 1q-1-1 2-3s-6-1-7 3v-4l-6 4q1-1-2-6m-11 28h-5l2-1z"/><path d="m327 253 4 3 3-3 2 3 2-2 4 1v-5l4 1s-1-2 5-5c0 0-5 1-7 3h-3v5l-4-1v1l-3-3-3 3z"/><path fill="#ffc221" d="m312 285 3-1c2-2 10-7 10-10q0-5-4-3-2 2-1 4 1 1-4 6z"/><path fill="#ffc221" d="M311 286s-5-2 0-5 7-3 7-5q2-2-1-1c-2 1-9 5-10 2q1 1 6-1 7-2 5-3c-3-1-11 0-12 1l-2 1-2 5q-2 3 1 6z"/><path d="m309 274-1 1h2z"/><path fill="#fff" d="M311 285s-3-1 0-3l7-4z"/></svg>