<svg xmlns="http://www.w3.org/2000/svg" viewBox="0 0 512 512"><path fill="#00008B" d="M0 0h512v512H0z"/><path fill="#fff" d="M256 0v32l-95 96 95 94v34h-33l-96-94-93 94H0v-34l93-93L0 37V0h31l96 94 93-94z"/><path fill="red" d="m92 162 6 17-77 77H0v-1zm62-6 27 4 75 74v22zM256 0l-96 98-2-22 75-76zM0 1l97 94-30-4L0 25z"/><path fill="#fff" d="M88 0v256h80V0zM0 88v80h256V88z"/><path fill="red" d="M0 104v48h256v-48zM104 0v256h48V0z"/><path fill="#fff" d="m202 403-46 5 5 46-33-32-33 32 5-46-46-6 39-25-24-39 44 15 15-43 16 43 44-15-25 40zm223 8-21 2 2 21-14-14-15 14 2-20-21-3 18-11-11-18 19 7 7-20 7 20 20-7-11 18zm-10-117 3-13-10-9 13-2 6-12 5 12 13 2-10 9 3 13-11-7zm-84-60-20 2 1 20-14-14-15 14 3-21-21-2 18-11-11-18 19 7 8-19 6 19 20-6-11 17zm176-33-21 3 2 20-15-14-15 15 2-21-21-3 18-11-11-18 20 6 7-19 7 19 20-6-11 18zm-82-84-21 3 2 20-15-14-15 14 2-21-20-3 17-10-10-18 19 6 8-19 6 20 20-7-11 18z"/></svg>