<svg xmlns="http://www.w3.org/2000/svg" viewBox="0 0 512 512"><defs><clipPath id="aw-a"><path fill="gray" d="M0 0h512v512H0z"/></clipPath></defs><g clip-path="url(#aw-a)"><path fill="#39c" d="M0 0v512h768V0z"/><path fill="#ff0" d="M0 341v29h768v-29zm0 57v29h768v-29z"/><path fill="#9cc" d="m122 28 2 3zm-2 5 2 2zm4 0 3 2z"/><path fill="#ccf" d="m120 35 2 3zm4 0 3 3z"/><path fill="#6cc" d="m117 40 3 2z"/><path fill="#c66" d="m122 40 2 2z"/><path fill="#6cc" d="m127 40 2 2z"/><path fill="#ccf" d="m117 42 3 3zm10 0 2 3z"/><path fill="#fcc" d="m120 45 2 2zm4 0 3 2z"/><path fill="#6cc" d="m115 47 2 3z"/><path fill="#c00" stroke="#fff" stroke-width="3" d="m122 33-17 63-63 17 63 17 17 63 17-63 63-17-63-17z"/><path fill="#6cc" d="m129 47 3 3z"/><path fill="#9cf" d="m115 50 2 2zm14 1 3 2z"/><path fill="#fcc" d="m117 52 3 2zm10 0 2 2z"/><path fill="#69c" d="m113 54 2 3z"/><path fill="#c33" d="m118 56 1 1zm10 0v1z"/><path fill="#69c" d="m132 54 2 3z"/><path fill="#9cf" d="m113 57 2 2zm19 0 2 2z"/><path fill="#fcc" d="m115 59 2 2zm14 0 3 2z"/><path fill="#69c" d="m110 61 3 3zm24 0 2 3z"/><path fill="#9cc" d="m110 64 3 2zm24 0 2 2z"/><path fill="#cff" d="m110 66 3 3zm24 0 2 3z"/><path fill="#69c" d="m108 69 2 2z"/><path fill="#fcc" d="m113 69 2 2zm19 0 2 2z"/><path fill="#69c" d="m136 69 3 2z"/><path fill="#9cc" d="m108 71 2 2z"/><path fill="#c33" d="m113 73 1 1zm19 0 1 1z"/><path fill="#9cc" d="m136 71 3 2z"/><path fill="#cff" d="m108 73 2 3zm28 0 3 3z"/><path fill="#fcc" d="m110 76 3 2zm24 0 2 2z"/><path fill="#9cc" d="m105 78 3 2z"/><path fill="#c33" d="m111 80 1 1zm24 0 1 1z"/><path fill="#9cc" d="m139 78 2 2z"/><path fill="#ccf" d="m105 80 3 3zm34 0 2 3z"/><path fill="#fcc" d="m108 83 2 2zm28 0 3 2z"/><path fill="#9cc" d="m103 85 2 3z"/><path fill="#c33" d="M109 87v1zm28 0 1 1z"/><path fill="#9cc" d="m141 85 2 3z"/><path fill="#ccf" d="m103 88 2 2zm38 0 2 2z"/><path fill="#fcc" d="m105 90 3 2zm34 0 2 2z"/><path fill="#9cc" d="m101 92 2 3z"/><path fill="#c33" d="m105 92 3 3zm34 0 2 3z"/><path fill="#9cc" d="m144 92 2 3zm-50 3 2 2z"/><path fill="#ccf" d="m96 95 2 2zm52 0 3 2z"/><path fill="#9cc" d="m151 95 2 2zm-65 2 3 3z"/><path fill="#ccf" d="m89 97 2 2z"/><path fill="#fcc" d="m98 97 3 2z"/><path fill="#c33" d="m101 97 2 2zm42 0 3 2z"/><path fill="#fcc" d="m146 97 2 2z"/><path fill="#ccf" d="m155 97 3 2z"/><path fill="#9cc" d="m158 97 2 2z"/><path fill="#69c" d="m77 100 2 2z"/><path fill="#9cc" d="m79 100 3 2z"/><path fill="#cff" d="m82 100 2 2z"/><path fill="#fcc" d="m91 100 2 2z"/><path fill="#c33" d="m95 100 2 1zm55 0 1 1z"/><path fill="#fcc" d="m153 100 2 2z"/><path fill="#cff" d="m163 100 2 2z"/><path fill="#9cc" d="m165 100 2 2z"/><path fill="#69c" d="m167 100 3 2zm-97 2 2 2z"/><path fill="#9cc" d="m72 102 3 2z"/><path fill="#cff" d="m75 102 2 2z"/><path fill="#fcc" d="m84 102 2 2z"/><path fill="#c33" d="m88 103 2 1zm69 0 2 1z"/><path fill="#fcc" d="m160 102 2 2z"/><path fill="#cff" d="m170 102 2 2z"/><path fill="#9cc" d="m172 102 2 2z"/><path fill="#69c" d="m174 102 3 2zm-111 2 2 3z"/><path fill="#9cf" d="m65 104 2 3z"/><path fill="#fcc" d="m77 104 2 3z"/><path fill="#c33" d="m81 105 1 1zm83 0 2 1z"/><path fill="#fcc" d="m167 104 3 3z"/><path fill="#9cf" d="m179 104 3 3z"/><path fill="#69c" d="m182 104 2 3z"/><path fill="#6cc" d="m55 107 3 2z"/><path fill="#9cf" d="m58 107 2 2z"/><path fill="#fcc" d="m67 107 3 2zm110 0 2 2z"/><path fill="#9cf" d="m186 107 3 2z"/><path fill="#6cc" d="m189 107 2 2zm-141 2 3 2z"/><path fill="#ccf" d="m51 109 2 2z"/><path fill="#fcc" d="m60 109 3 2z"/><path fill="#c33" d="m64 110 2 1zm117 0 1 1z"/><path fill="#fcc" d="m184 109 2 2z"/><path fill="#ccf" d="m194 109 2 2z"/><path fill="#6cc" d="m196 109 2 2z"/><path fill="#9cc" d="m41 111 3 3z"/><path fill="#ccf" d="m44 111 2 3z"/><path fill="#fcc" d="m53 111 2 3zm138 0 2 3z"/><path fill="#ccf" d="m201 111 2 3z"/><path fill="#9cc" d="m203 111 2 3zm-167 3 3 2z"/><path fill="#c66" d="m48 114 3 2zm148 0 2 2z"/><path fill="#9cc" d="m208 114 2 2zm-167 2 2 2z"/><path fill="#ccf" d="m44 116 2 2z"/><path fill="#fcc" d="m53 116 2 2zm138 0 2 2z"/><path fill="#ccf" d="m201 116 2 2z"/><path fill="#9cc" d="m203 116 2 2z"/><path fill="#6cc" d="m48 119 3 2z"/><path fill="#ccf" d="m51 119 2 2z"/><path fill="#fcc" d="m60 119 3 2z"/><path fill="#c33" d="m64 119 2 1zm117 0 1 1z"/><path fill="#fcc" d="m184 119 2 2z"/><path fill="#ccf" d="m194 119 2 2z"/><path fill="#6cc" d="m196 119 2 2zm-141 2 3 2z"/><path fill="#9cf" d="m58 121 2 2z"/><path fill="#fcc" d="m67 121 3 2zm110 0 2 2z"/><path fill="#9cf" d="m186 121 3 2z"/><path fill="#6cc" d="m189 121 2 2z"/><path fill="#69c" d="m63 123 2 3z"/><path fill="#9cf" d="m65 123 2 3z"/><path fill="#fcc" d="m77 123 2 3z"/><path fill="#c33" d="m81 124 1 1zm83 0 2 1z"/><path fill="#fcc" d="m167 123 3 3z"/><path fill="#9cf" d="m179 123 3 3z"/><path fill="#69c" d="m182 123 2 3zm-112 3 2 2z"/><path fill="#9cc" d="m72 126 3 2z"/><path fill="#cff" d="m75 126 2 2z"/><path fill="#fcc" d="m84 126 2 2z"/><path fill="#c33" d="M88 127h2zm69 0h2z"/><path fill="#fcc" d="m160 126 2 2z"/><path fill="#cff" d="m170 126 2 2z"/><path fill="#9cc" d="m172 126 2 2z"/><path fill="#69c" d="m174 126 3 2zm-97 2 2 2z"/><path fill="#9cc" d="m79 128 3 2z"/><path fill="#cff" d="m82 128 2 2z"/><path fill="#fcc" d="m91 128 2 2z"/><path fill="#c33" d="m95 129 2 1zm55 0 1 1z"/><path fill="#fcc" d="m153 128 2 2z"/><path fill="#cff" d="m163 128 2 2z"/><path fill="#9cc" d="m165 128 2 2z"/><path fill="#69c" d="m167 128 3 2z"/><path fill="#9cc" d="m86 130 3 3z"/><path fill="#ccf" d="m89 130 2 3z"/><path fill="#fcc" d="m98 130 3 3z"/><path fill="#c33" d="m101 130 2 3zm42 0 3 3z"/><path fill="#fcc" d="m146 130 2 3z"/><path fill="#ccf" d="m155 130 3 3z"/><path fill="#9cc" d="m158 130 2 3zm-64 3 2 2z"/><path fill="#ccf" d="m96 133 2 2zm52 0 3 2z"/><path fill="#9cc" d="m151 133 2 2zm-50 2 2 3z"/><path fill="#c33" d="m105 135 3 3zm34 0 2 3z"/><path fill="#9cc" d="m144 135 2 3z"/><path fill="#fcc" d="m105 138 3 2zm34 0 2 2z"/><path fill="#ccf" d="m103 140 2 2z"/><path fill="#c33" d="M109 142v1zm28 0 1 1z"/><path fill="#ccf" d="m141 140 2 2z"/><path fill="#9cc" d="m103 142 2 3zm38 0 2 3z"/><path fill="#fcc" d="m108 145 2 2zm28 0 3 2z"/><path fill="#ccf" d="m105 147 3 3z"/><path fill="#c33" d="m111 149 1 1zm24 0 1 1z"/><path fill="#ccf" d="m139 147 2 3z"/><path fill="#9cc" d="m105 150 3 2zm34 0 2 2z"/><path fill="#fcc" d="m110 152 3 2zm24 0 2 2z"/><path fill="#cff" d="m108 154 2 3z"/><path fill="#c33" d="m113 156 1 1zm19 0 1 1z"/><path fill="#cff" d="m136 154 3 3z"/><path fill="#9cc" d="m108 157 2 2zm28 0 3 2z"/><path fill="#69c" d="m108 159 2 2z"/><path fill="#fcc" d="m113 159 2 2zm19 0 2 2z"/><path fill="#69c" d="m136 159 3 2z"/><path fill="#cff" d="m110 161 3 3zm24 0 2 3z"/><path fill="#9cc" d="m110 164 3 2zm24 0 2 2z"/><path fill="#69c" d="m110 166 3 2zm24 0 2 2z"/><path fill="#fcc" d="m115 169 2 2zm14 0 3 2z"/><path fill="#9cf" d="m113 171 2 2z"/><path fill="#c33" d="m118 173 1 1zm10 0v1z"/><path fill="#9cf" d="m132 171 2 2z"/><path fill="#69c" d="m113 173 2 3zm19 0 2 3z"/><path fill="#fcc" d="m117 176 3 2zm10 0 2 2z"/><path fill="#9cf" d="m115 178 2 2zm14 0 3 2z"/><path fill="#6cc" d="m115 180 2 3zm14 0 3 3z"/><path fill="#fcc" d="m120 183 2 2zm4 0 3 2z"/><path fill="#ccf" d="m117 185 3 2zm10 0 2 2z"/><path fill="#6cc" d="m117 188 3 2z"/><path fill="#c66" d="m122 188 2 2z"/><path fill="#6cc" d="m127 188 2 2z"/><path fill="#ccf" d="m120 192 2 3zm4 0 3 3z"/><path fill="#9cc" d="m120 195 2 2zm4 0 3 2zm-3 4 3 3z"/></g></svg>