<svg xmlns="http://www.w3.org/2000/svg" viewBox="0 0 512 512"><defs><clipPath id="ba-a"><path d="M0 0h512v512H0z"/></clipPath></defs><g fill-rule="evenodd" clip-path="url(#ba-a)"><path fill="#009" d="M0 0h512v512H0z"/><path fill="#fc0" d="m77 0 437 437V0z"/><path fill="#FFF" d="m461 470-26-19-27 19 11-31-27-19h33l10-31 10 31h33l-26 20zm77 11h-33l-10-31-10 31h-33l27 19-10 31 26-19 27 19-10-31zM392 380l26-20h-33l-10-31-10 31h-33l27 19-10 31 26-19 26 20zm-60-61 26-19h-33l-10-31-10 31h-33l26 19-10 31 27-19 26 19zm-60-59 26-20h-33l-10-31-10 31h-33l27 19-10 31 26-19 27 19zm-61-61 27-19h-33l-10-31-10 31h-33l26 19-10 31 27-19 26 19zm-59-60 26-19h-33l-10-31-10 31H92l27 19-11 31 27-19 26 19zM92 79l26-19H85L75 29 65 60H32l27 19-10 31 26-19 26 19zM32 19 58 0H25L15-31 5 0h-33l27 19-10 31 26-19 26 19z"/></g></svg>