<svg xmlns="http://www.w3.org/2000/svg" viewBox="0 0 512 512"><defs><clipPath id="bi-a"><path fill="gray" d="M61 337h175v175H61z"/></clipPath></defs><g fill-rule="evenodd" clip-path="url(#bi-a)" transform="translate(-178 -986)scale(2.9257)"><path fill="#18b637" d="m0 337 147 88L0 512zm293 0-146 88 146 87z"/><path fill="#cf0921" d="m0 337 147 88 146-88zm0 175 147-87 146 87z"/><path fill="#fff" d="M293 337h-27L0 496v16h27l266-159z"/><path fill="#fff" d="M197 425a51 51 0 1 1-101 0 51 51 0 0 1 101 0"/><path fill="#fff" d="M0 337v16l266 159h27v-16L27 337z"/><path fill="#cf0921" stroke="#18b637" d="M157 405h-7l-3 6-4-5-6-1 3-5-3-6h6l4-6 3 6h7l-4 6zm-22 39h-7l-3 5-4-5-7-1 4-5-3-6h6l4-6 3 6h7l-4 6zm44 0h-7l-3 5-3-5-7-1 3-5-3-6h7l3-6 4 6h6l-3 6z"/></g></svg>