<svg xmlns="http://www.w3.org/2000/svg" viewBox="0 0 512 512"><path fill="#cf142b" d="M0 0h512v512H0z"/><path fill="#006" d="M0 0h256v256H0z"/><path fill="#fff" d="M256 0v32l-95 96 95 94v34h-33l-96-94-93 94H0v-34l93-93L0 37V0h31l96 94 93-94z"/><path fill="#c8102e" d="m92 162 6 17-77 77H0v-1zm62-6 27 4 75 74v22zM256 0l-96 98-2-22 75-76zM0 1l97 94-30-4L0 25z"/><path fill="#fff" d="M88 0v256h80V0zM0 88v80h256V88z"/><path fill="#c8102e" d="M0 104v48h256v-48zM104 0v256h48V0z"/><path fill="#fff" d="M467 147v161c0 43-86 57-86 57s-87-14-87-57V147z"/><path fill="#2f8f22" d="M467 308c0 43-86 57-86 57s-87-14-87-57l2-5s-1 7 5 12c0 0-5-8 0-15 0 0-2 10 4 15 0 0-3-8 0-16 0 0-1 14 5 17 0 0 2-9-1-14 0 0 5 2 5 14l1-10c1 0 1 10 4 12v-6q-2-6 1-6-1 2 3 9s-2-8 1-9c0 0-1 7 5 8l-1-4v-4s1 6 4 7v-7s0 5 4 7q-2-1-2-8l29 1 15 1 45-3 7-7s3 4-1 11q2 1 6-8 2 1-1 8s5-5 6-11c0 0 2 6-3 12 0 0 5-2 7-8q2 1-3 9s8-4 8-13c0 0 3 5-1 12q2-1 5-9 2-1 0 9s5-5 5-10q1 1-3 11 1 1 6-7 1 1-2 7 1 2 5-6l-1 6q1 1 3-7z"/><path fill="#d40000" stroke="#000" stroke-linejoin="round" d="m423 215-7-1h-7s2-3-2-6v5h-2l-3-3q2 0 3-4l-3-4v2s-4-2 1-5 4-4 3-5l-4-4 1 3q-1 2-2 0v-4q2 1 6-3s2-5-4-7l1 3s-1 3-3 1l-2-4s5 0 4-5c0 0-1 4-7-1 0 0 4-4 2-8h-5s4-3 3-5l-5 1q1-1-2-5l-4 2-4-4-3 4-4-2v5l-4-2q-2-1-2 2l1 4s-7-2-6 2l3 6s-4 5-7 1l1 4s3 3 1 4c0 0-3 2-4-2 0 0-4 5 1 8q1 1 6-1s-1 8-4 6q-2 0 1-3-2-1-5 4-2 2 3 5s4 1 0 4l-1 4s2 3-2 3h-4v4q1-2-8 0l-5 1-1 3 2 3v4l1 1 11-5 11-6 9 1 6 1h7l5-2h8l8 4 10 6 5 1 4-1v-8z"/><path fill="#d40000" stroke="#000" stroke-linejoin="round" d="M336 224s4 2 6-1c0 0 2-4-3-6 0 0 3-3 0-6h-5q0-2-3-3l-3 3q-2-1-5 1s-3 3 1 5l3 1 3-2 3 1s-1 3 3 7z"/><path fill="#64b4d1" stroke="#000" d="M429 216a7 7 0 0 1 7 4c3 6-3 10-3 10v3c8 1 7 9 7 9l-3-2q-7-1-12 9c-4 7-2 9-2 17 1 8 13 13 13 13l-9 25c-4 10-12 5-15 3q-2-2-4 0c-1 1 6 6-6 11s-14 8-16 10c-2 1-10 0-11-1l-3-3-14-6c-6-3-5-6-5-7s2-6-5-2c-6 5-12-2-12-2l-7-16-4-12 4-2q7-5 9-12c2-5 0-13 0-14-1-2-5-9-9-11-5-1-8 3-8 3s-1-9 7-10v-3s-5-4-3-10c0 0 2-4 7-4l-1 3s-1 12 17 4c19-9 18-10 29-5h7s12-5 15-3l16 9s13 5 15-4z"/><path fill="#fff" stroke="#00247d" stroke-miterlimit="10" d="m373 271-1-6q-1-1 1-7l3-3 4-3 2-1s3-4 9 0l5-3q1-1 4 1s4-2 7 2c0 0 4-3 7 2 0 0 4-2 6 2l2 6 2 7 7 8-16 6h-7l-13 3-25 2-6-8z"/><path fill="#d40000" stroke="#000" stroke-linejoin="round" d="m353 312-6 1q-2 0-5 3h-5s-8-1-8 4c0 0-9 1-5 9 0 0 2 6 7 1 0 1-3 5 3 7 0 0 5 1 6-4l-1-4 4-2s-5 5 0 8c0 0 7 1 7-5q-1-2 2-5s5-1 7-6c0 0-7-4-6-8zm-15-58s-6-2-8 0h-8l-6 5-1 7v5l-4 2c0 1-3 4-6 1 0 0 1 4 6 4q-2 0 0 7 2 0-1 8s5-2 5-7q-1-1 1-6-2 0 1 7s3 3 1 7c0 0 4-2 4-7-1-5-3-3-2-8l2 4a7 7 0 0 1 3 7s2-4 2-7l-2-4 8-5 5-8z"/><path fill="none" stroke="#000" stroke-miterlimit="10" d="m325 276-4-3m-6-2 2 1 2 1"/><path d="m330 265-3-1-1 1 1 2s2 1-2 3c0 0 4-1 3-3l-1-2z"/><path fill="#784421" stroke="#000" d="m385 275 2-1-14-48z"/><path d="M339 328s-4-2-6 1l2-2q0-2 4-3l-3 3z"/><path fill="#64b4d1" stroke="#00247d" stroke-miterlimit="3" d="M327 336s-5-3-2-9l2-1s3 1 1 5zm11 5s-8-3-5-9l2-2q2-1 2 4-1 1 1 7z"/><path d="m336 320-3 2-2-1h2z"/><path fill="#64b4d1" stroke="#00247d" stroke-miterlimit="3" d="M343 340s6-2 4-8q1-1-3-2s-3 1-1 5q2 0 0 5z"/><path fill="#f5ce00" stroke="#000" stroke-miterlimit="3" d="m369 213 6 2s5 2 12 0l5-2-3 5v3l2 3s-2 1-6-2c0 0-4-3-9 0l-6 2 4-4-2-3z"/><path fill="#fff" d="M345 333v-1zv3l1 1v1-5"/><path fill="#d40000" stroke="#000" stroke-linejoin="round" d="M425 224s-4 2-6-1c0 0-2-4 3-6v-6h5q0-2 3-3l3 3q2-1 5 1s3 3-1 5l-3 1-3-2-3 1s1 3-3 7z"/><path fill="#f5ce00" stroke="#000" stroke-miterlimit="3" d="m392 220-1 1h-1v-1l1-3h8l15 8 7 2s7 0 10-4q2-2 0-6l-2-1-2 1v3l2-1v3s-4 6-15-1l-15-8s-7-3-11 2c0 0-4 5 1 8q1 2 5-1 2-1-1-4-1-1-3 1c-2 2 2 3 2 1z"/><path fill="#e4cb5e" stroke="#000" stroke-miterlimit="3" d="M335 245v-9l2-2q2-3 3 2l4-4q1-2 4 0l3-3s3-2 3 4l3-2s2-2 4 1l4 4 1 3 1 3 2 1q1-1 3 3c1 0 1-1 2 11v21l-14 18-23-7-10-4-2-7 9-5 5-13-1-10z"/><path fill="#784421" stroke="#000" d="m399 256 1-1 3-2 4 13v3s6 1 7 10l-5 10-8-5-2-1z"/><path fill="#fff" d="M326 328v5-1l1-4"/><path fill="none" stroke="#000" stroke-miterlimit="10" d="M349 327v-2l-1-1m6-91 1 4 3 6"/><path fill="#d40000" stroke="#000" stroke-linejoin="round" d="m408 312 6 1q2 0 5 3h5c1 0 8-1 8 4 0 0 9 1 5 9 0 0-2 6-7 1 0 1 3 5-3 7 0 0-5 1-6-4l1-4-4-2s5 5 0 8c0 0-6 1-7-5q1-2-2-5s-5-1-7-6c0 0 7-4 6-8z"/><path fill="none" stroke="#000" stroke-miterlimit="10" d="m351 243 6 48m-4-48 6 45m-5-45 7 44"/><path fill="#784421" stroke="#000" d="m366 284 2-1-14-48z"/><path fill="none" stroke="#000" stroke-miterlimit="10" d="m358 241 14 36m-15-35 14 37"/><path fill="#fff" d="M335 338s-2-2-1-5h-1q-1 1 2 5"/><path fill="none" stroke="#000" stroke-miterlimit="10" d="m359 241 14 32m-18-30 9 44"/><path fill="#f5ce00" stroke="#000" stroke-miterlimit="3" d="M427 275c-6-4-7-11-7-11a25 25 0 0 1 1-15c4-8 11-10 11-10s-7 5-9 11v11l2 8z"/><path fill="#784421" stroke="#000" d="m400 255-26 8-2 12c-6 9-19 11-19 11l10 11 19 4 10-8 9-9v-15z"/><path fill="none" stroke="#000" stroke-miterlimit="10" d="m372 272 28-10m-36 20s22-4 37-13l6-3"/><path fill="none" stroke="#000" stroke-miterlimit="10" d="m407 269-6 4s-25 11-43 12m43-4s-19 10-30 10"/><path fill="#d40000" stroke="#000" stroke-linejoin="round" d="M423 254s6-2 8 0h8l6 5 2 7-1 5 4 2c0 1 3 4 6 1 0 0-1 4-6 4q2 0 0 7l1 8s-5-2-4-7l-1-6-2 7q-2 1 0 7s-5-2-4-7c0-5 3-3 1-8l-2 4a7 7 0 0 0-2 7s-3-4-2-7l1-4-8-5-5-8z"/><path fill="#fff" stroke="#00247d" stroke-miterlimit="10" d="M328 284s1-3 4-2c0 0 1-6 8-6 6 0 7 6 7 7l5-3s5 0 4 9l1 1s4-10 12-8c0 0 8 3 3 11 0 0 4 6 8 5q5 1 10-8c4-6 12-7 14-6q3 0 4 3s4-15 20-13l6 4 2 1-4 10-8 19-6 2-7-4-3 1v6l-9 7-6 2-7 5-1 4s-4-2-8 0l-2-4-4-3-15-8-3-9-3-1-3 4h-5l-7-4z"/><path fill="none" stroke="#000" stroke-miterlimit="3" d="M396 214s-6 0-6 6"/><path fill="#f5ce00" stroke="#000" stroke-miterlimit="3" d="M434 279c-10-3-13-14-13-14a26 26 0 0 1 2-15c4-11 12-11 12-11a4 4 0 0 1 5 3l-1 3q-5 2-5 0v-3l2-1 1 2-2-2q0-2-6 4s-5 6-5 14c0 0-1 15 15 18l-5 12-6 17s-5 9-14 5c0 0-6-2-6-6 0 0 0-4 3-4q1-1 3 2 2 2-3 2l-1-1 2-1q1 1 0 0h-2v1l1 1 1 1 3 2 7-1 3-4 6-14 3-9z"/><path fill="#f5ce00" stroke="#000" stroke-miterlimit="3" d="M405 307s2 0 2 2q1 1-3 2-2 0-2-4 0-2 4-2 1-1 4 4 1 1-1 6-4 5-8 6l-12 5s-4 3-2 5l2 2 1-2-1 1h-1v-2l3-1 1 3q1 2-3 2l-3-1q-3-4-1-8l5-3 9-4 7-4 1-4v-2z"/><path fill="none" stroke="#000" stroke-miterlimit="3" d="M406 307s2 0 3 3l1 2m1-9s-3 0-1 3l3 5"/><path fill="#f5ce00" stroke="#000" stroke-miterlimit="3" d="m369 220 1 1h1v-1q1-1-1-3h-8l-6 4-8 4-8 2s-7 0-10-4v-6l3-1 1 1v3l-2-1 1 3s4 6 14-1l15-8s7-3 11 2c0 0 4 5-1 8q-1 2-5-1-2-1 1-4 1-1 3 1 0 4-2 1zm-35 55c6-3 8-11 8-11q0-13-2-15c-4-8-11-10-11-10s7 5 9 11v11l-2 8z"/><path fill="none" stroke="#000" stroke-miterlimit="3" d="M366 214s6 0 5 6"/><path fill="#f5ce00" stroke="#000" stroke-miterlimit="3" d="M327 279c10-3 13-14 13-14a26 26 0 0 0-1-15c-5-11-13-11-13-11a4 4 0 0 0-5 3l2 3q4 2 4 0v-3l-2-1-1 2q-1-1 2-2 1-2 7 4s4 6 4 14c0 0 1 15-15 18l5 12s3 11 7 17c0 0 4 9 13 5 0 0 6-2 6-6 0 0 0-4-3-4q-1-1-3 2-1 2 3 2l1-1-1-1q-1 1 0 0h1v2l-2 1-3 2-7-1-3-4-5-14-4-9z"/><path fill="#f5ce00" stroke="#000" stroke-miterlimit="3" d="M356 307s-2 0-2 2q-1 1 3 2 2 0 2-4 0-2-4-2-1-1-4 4-1 1 1 6 4 5 9 6l11 5s4 3 2 5l-2 2-1-2 1 1h1l1-2-4-1-1 3q0 2 3 2l3-1q3-4 1-8l-5-3-9-4-6-4-2-4q-1-1 1-2z"/><path fill="none" stroke="#000" stroke-miterlimit="3" d="M356 307s-3 0-4 3l-1 2m0-9s2 0 1 3l-4 5m28-91s5-4 10 0m-40 31s1-3-3-8l-3-7m8-4 2 7 3 7"/><path fill="none" stroke="#000" stroke-miterlimit="10" d="M349 254s2 2 1 6m-8-8s2 1 2 7q-1 2 3 6m-5 1s7 0 7 4c0 0 0 4 2 4 0 0 4 0 4 4m-11-7 2 3m7-7 2 4m5-35 3 3m3 9s3 2 3 10l1 8"/><path fill="#784421" stroke="#000" d="M351 243s6 1 9-3v-1s-6-1-9 4z"/><path fill="none" stroke="#000" stroke-miterlimit="10" d="m372 275 29-10"/><path fill="#784421" stroke="#000" d="M370 237v-1l10-4v1z"/><path fill="none" stroke="#000" stroke-miterlimit="10" d="m371 236 6 33m-5-33 8 33m-7-34 9 33m-5-34 11 25m-10-25 12 24m-11-25 13 24m-15 13 5-2m-9-2 27-9m-27 11s19-5 27-9m-21 25 1 3 3-1-1-3m5-1 1 3 2-1-1-3m-16-18v-4l26-8 1 4m-16 1 1 4m8-7 2 4m0-5 2 4m0-4 2 3m0-4 2-1 2 3m-3-3 1 4"/><path fill="none" stroke="#00247d" stroke-miterlimit="10" d="M337 299s-5-5 0-10c0 0-6-2-5-7m14 21s-5 1-4-9l-3 6 2 5c1 1 6 2 7-1m-8-16s-2 2-1 5m3-5s0 4 2 6m0-7s0 4 3 6m-2-8s0 5 3 8m14-1s2-4 5-3l-1 2q-1 2 2 3 1 1 4-1"/><path fill="none" stroke="#00247d" stroke-miterlimit="10" d="M371 309s-9-4-8-10q-1-2 4-5m-2 3s-1 3 1 5m1-6s-2 3 0 5m2-7s-2 3 0 5m-8 11s4 4 8 4m-10-3 7 4m-9-3s6 5 9 5m14 5s-5 3-1 6m-2-9 9-5m-7 6 11-6m-7 7 12-8m-6 7 10-7m2-5s-3-4-11 0l9-5m9-16v5m-14 10s2-3 6-4q-1 2 5 2s5-1 3-7q3-2-7-5m18-7s7 1 6 6c0 0 1 8-7 9m7-12s1-3 5-5m-4-2 2 3m-3-1 2 3m-3-1 2 2m-34-31s1-2 5-1m12 15s2-7 8-5m-2 0-1-6m-4 6v2"/><path fill="#64b4d1" stroke="#00247d" stroke-miterlimit="3" d="M424 341s7-3 5-9l-3-2q-2-1-2 4 1 1-1 7z"/><path fill="#fff" d="M426 338s2-2 2-5q-1 0 0 0 1 1-1 5z"/><path fill="#64b4d1" stroke="#00247d" stroke-miterlimit="3" d="M434 336s5-3 2-9l-2-1s-3 1-1 5z"/><path fill="#fff" d="M435 328v5-1s1-2-1-4"/><path fill="#64b4d1" stroke="#00247d" stroke-miterlimit="3" d="M418 340s-5-2-4-8q-1-1 3-2s3 1 1 5z"/><path fill="#fff" d="M416 333v-1zv3l-1 1v1-5"/><path d="M423 328s3-2 6 1l-3-2q0-2-4-3l3 3zm2-8 3 2 2-1h-2z"/><path fill="none" stroke="#000" stroke-miterlimit="10" d="m412 327 1-2v-1m23-48 4-3m6-2-2 1-2 1"/><path d="m431 265 3-1 1 1-1 2c1 0-2 1 2 3 0 0-4-1-3-3l2-2z"/><path fill="#64b4d1" stroke="#00247d" stroke-miterlimit="3" d="m433 222 1-5q1-5 4-3v3z"/><path fill="#fff" d="M434 219s2-1 1-4h1z"/><path fill="#64b4d1" stroke="#00247d" stroke-miterlimit="3" d="m433 220-3-3q-2-5 1-5 1-1 2 3z"/><path fill="#fff" d="m432 217-2-3s3 1 3 3z"/><path fill="#64b4d1" stroke="#00247d" stroke-miterlimit="3" d="m429 219-3-2q-3-2-1-4l3 1z"/><path fill="#fff" d="m428 217-3-2h-1 1l4 2z"/><path fill="#64b4d1" stroke="#00247d" stroke-miterlimit="3" d="m431 220-4-1q-5 0-4 3l3 1z"/><path fill="#fff" d="M424 221h4v1zq-1 0 0 0"/><path fill="none" stroke="#000" stroke-miterlimit="3" d="m427 211 1 2"/><path fill="none" stroke="#000" stroke-miterlimit="10" d="M433 211v3"/><path fill="#64b4d1" stroke="#00247d" stroke-miterlimit="3" d="m328 222-1-5q-1-5-3-3l-1 3z"/><path fill="#fff" d="m327 219-1-4h-1zq0 1 0 0"/><path fill="#64b4d1" stroke="#00247d" stroke-miterlimit="3" d="m329 220 2-3q2-5-1-5-1-1-2 3z"/><path fill="#fff" d="m329 217 2-3s-3 1-3 3z"/><path fill="#64b4d1" stroke="#00247d" stroke-miterlimit="3" d="m332 219 3-2q4-2 1-4l-3 1z"/><path fill="#fff" d="m333 217 3-2z"/><path fill="#64b4d1" stroke="#00247d" stroke-miterlimit="3" d="m330 220 4-1q5 0 4 3l-3 1z"/><path fill="#fff" d="M337 221h-4v1h4q1 0 0 0z"/><path fill="none" stroke="#000" stroke-miterlimit="3" d="m334 211-1 2"/><path fill="none" stroke="#000" stroke-miterlimit="10" d="M328 211v3"/><path d="m394 194 1 5q-1 3 1 3l2-2s2 4-2 6q0 2-5 0v-5l-1-6 1 5s0 6 4 6q1 1 3-4l-2 1a2 2 0 0 1-2-3zm-5 9s0 5-4 6l-1-3-1-4 1 4v4c-1 0 7-1 5-7m-5-4-2-4v-4 7q-1 1-3-3-3-4-4-3l2 3q2 4 7 4m-11-7 1 4-4-3q-2-1-2 5l-4-4 3 2q-1-1 4-4-1 1 3 3zm5-6 3 2 4-2s-1 3-4 3q-1 1-3-3m-13 19 2 2s1 1 2-1l3-2-3 3-1 1-2-1zm16-30c-3 0 0 3 0 3q-1 6-6 4v-4c1-1-2 1-1 4q4 3 7-1 4 4 7 1c2-3-1-4-1-4s2 3 0 4q-4 2-5-4s3-3-1-3m2-4 1 5q1-1-1-5m-10 5s0-3-2-3zm16 0s1-3 3-3zm-19 3 3-1zm-5-13 4 2-3 2 1-2zm32 0-4 2 2 2-1-2zm-15 2 4-1h4l-4 1z"/><path fill="#fff" d="M384 170s1-3 6-2q0 2-6 2"/><circle cx="387" cy="169" r="1" fill="#784421"/><circle cx="387" cy="169" r="1"/><path d="m374 164 5 1h3l4-3-5 3-1-3 2-2q-2 0-3 2l1 3-1-1zm7 17v2q3 1 0-2m-1-13-4-1h-4l4 1q1 2 4 0"/><path fill="#fff" d="M378 170s-1-3-6-2q-1 2 6 2"/><circle cx="375" cy="169" r="1" fill="#784421"/><circle cx="375" cy="169" r="1"/><path fill="none" stroke="#000" d="M467 147v161c0 43-86 57-86 57s-86-14-86-57V147z"/></svg>