<svg xmlns="http://www.w3.org/2000/svg" xmlns:xlink="http://www.w3.org/1999/xlink" viewBox="0 0 512 512"><path fill="#f7e017" d="M0 0h512v512H0z"/><path fill="#fff" d="M0 36v227l512 107V249z"/><path fill="#000001" d="M0 156v107l512 213V370z"/><g fill="#cf1126" transform="translate(-256)scale(.71111)"><path d="M696 570a117 117 0 0 1-50-17l-5-3v4q0 9-9 11-11 1-23-8a68 68 0 0 0-25-14 40 40 0 0 0-28 4l-3 1v-9q3-5 10-7l4-2-2-4q-5-8 3-14 9-6 22-1l4 1-2-6q-5-5-4-12a15 15 0 0 1 14-14q6-1 18 10a144 144 0 0 0 86 41c8 1 24 1 34-1a156 156 0 0 0 82-40q7-8 15-8 6-1 11 5 5 4 3 11 1 5-2 8-5 7 3 3c7-3 17-1 22 3q7 7 1 14l-2 5 5 1q9 2 10 13l-1 3-5-2q-9-3-19-3-7 0-13 2a58 58 0 0 0-19 11q-9 9-17 8-8 0-12-5v-12l-5 3-19 10a182 182 0 0 1-82 10"/><path d="M706 525a136 136 0 0 1-98-55c-24-34-32-78-24-118q6-28 25-49a115 115 0 0 0-8 74c9 50 51 92 101 99 20 6 40 0 59-6 42-15 74-55 78-99q5-37-11-71c6 3 14 16 19 24 16 31 16 69 7 102-13 42-45 79-88 92a166 166 0 0 1-60 7"/><g id="bn-a"><path d="M512 470q-4-1-4 5l7 5a54 54 0 0 0 24 3l17-3q6-1 8-5 1-3-3-4l-9 3-21 2-14-4z"/><path d="M515 460q-5 0-4 5l8 5a42 42 0 0 0 18 3h1l14-3q5-1 8-5 1-3-2-4l-6 1a44 44 0 0 1-20 4l-13-4z"/><path d="M518 450q-3 0-3 4l3 4a30 30 0 0 0 19 5h1l12-3q5-1 7-5l-1-4-5 1-15 4-13-4z"/><path d="M482 303c-4 3-1 9-1 13q1 20 8 39c6 12 19 19 27 29q3 8 2 17v46q11 7 23 6c4-1 13-2 14-6l-1-80q-6-11-17-17l-14-17c-3-4-13-6-9 2l9 19c0 4 5 11 1 13a25 25 0 0 0-11-10c-4-3-12-5-13-11a43 43 0 0 0-11-22q3-12-7-21"/><path d="M491 304q-4 2-1 6l1 14a44 44 0 0 1 11 21q1 4 5 6l15 9q1 2 1 0l-3-7q-5-5-11-6-1-7-4-12-3-6-7-9 1-10-3-19z"/><path d="M500 307q-3 1-1 4l1 14q5 5 8 11l3 9 8 5-4-8-4-8q-4-5-4-12 0-8-4-14z"/><path d="m509 308-2 2 1 3 1 10 2 7 4-2 1-1-3-14-3-5z"/></g><use xlink:href="#bn-a" width="100%" height="100%" transform="matrix(-1 0 0 1 1440 0)"/><path d="M716 476a36 36 0 0 1-30-24q1-1 4 2l8 2 9 7c2 1 7 4 6 0q-2-4-1-7l8-12q3 2 5 6 4 5 4 11c-2 1-2 6 1 4q6-2 10-7l10-4 5-2-7 12a32 32 0 0 1-19 11z"/><path d="m732 460-2-8-8-12c-3-1-5 4-6 6q-6 6-7 14c-2 2-5-2-6-4a19 19 0 0 1-4-12 51 51 0 0 1 4-21q4-8 4-17 2-7-4-12c-4-3 2-4 4-2 3 0 5 5 8 4q0-5 4-8c2-4 4 1 5 3 2 2 0 7 3 7q4-5 9-7 4-1 3 2-5 4-6 10-1 9 2 16 8 14 6 30-2 8-8 12z"/><path d="m727 390-6-7q-3 1-5 4c-1 2-3 6-6 3q-6-4-5-13 1-11 6-21v-14q-3-7-9-13h6l8 6q2-2 2-6 1-5 4-2c2 2 0 6 3 8q2-3 6-5h7q0 3-3 6a20 20 0 0 0-4 18l5 14-1 17q-2 6-7 7z"/><path d="M712 327q-5-3-5-10l2-5q4-6-1-4-8 3-8-4-1-2 3-7 4-4 3-5l-9 8-12 11q-15 9-23 2-3-3 0-5l5-4 16-12q5-2 2-3c-3 0-12 7-20 13l-7 5-13 1q-6-1-7-6l2-1 5-4c6-5 17-10 25-12q4-1-1-2a56 56 0 0 0-25 12c-8 7-21 6-25-1l-1-3 21-8 18-6q4-2 0-2-5-1-19 6c-12 6-15 7-22 6q-8 0-14-6l-7-11 16 1c9 0 11 0 15-2a84 84 0 0 0 24-12 58 58 0 0 1 37-13q17 0 27 10l5 3 1-9 4 1 1 8 2-2q2-4 10-8c9-5 24-5 37 0l17 9a90 90 0 0 0 24 12c6 2 19 3 25 1l5-1c2 0-2 8-6 12q-12 12-35 0c-9-5-21-8-21-5l2 1 18 6 19 7q3 0 0 5t-12 5q-6 0-13-5c-8-7-27-14-27-10l4 1a56 56 0 0 1 23 11l6 4v3q-3 5-9 5-8 1-15-5-16-13-22-14-4 0 3 4l16 11 5 4q2 1-1 5-4 5-9 3-12-1-26-16l-9-8 3 5q5 5 2 9-1 4-6 2-6-1-2 3 5 8-2 15l-3 3-3-3q-4-6-8 0l-2 3z"/><path d="m727 233-5 4-5-3v27h10z"/><path d="M695 204a88 88 0 0 1-9 33l11-11 8 10 8-10 9 8 8-8 8 10 8-8 12 9c-4-10-10-19-10-33-12 9-41 10-53 0"/><path d="m717 198-13 1-8 3c0 8 41 12 52 0l-8-4-13-1v8h-10z"/><path d="M725 154h-6v49h6z"/><path d="m725 155-3 24 25 12-13-17 17-5zm-3-6q-6 0-6 3 0 4 6 3 8-1 7-3-1-3-7-3"/></g><g fill="#f7e017"><path d="M250 401q3-1 5-6l1-4h-3l-1 3q3 5-8 6h-5q-5-1-3 1l2 1zm15-1 4-1 3-3q3-4-1-10-3-3-4 1-3 3 0 2l3 2q2 5-2 5-3 0-4 2l-1 3zm-5-3 1-9-1-7-2 2v2l1 8q-1 9 1 4"/><path d="m248 394 1-6 1-5q0-3-2-1l-2 1v15l1-1zm-11 1q4-4 3-9l1-6q-5 2-3 5l-1 8q-3 2-5-1c1-3-3-2-4-1q-4 2-3-1-2-3-6-1c-2 0 0-4-3-3q-8 1-14-3-4-2-1-6l4-8c3-2-2-1-3 0-2 1 0 4-2 6q-2 4-5 4-5-2-9-6c-2-1-1 3 0 4l8 4q3 1 5 4l15 3c2 0 0 3 3 3q3-1 5 1c-2 2 2 2 3 2q3-2 5 1 3 3 7 1z"/><path d="m195 374 3-5 2-4q1-2-2-1l-1 1-3 8q-3 3-1 3zm-27-17q-3 0 0 2l2 2q2 5 8 5h4v5l3-2q5-2 5-5 0-2-4-3l-3 2q-6 4-10-2-2-4-5-4m18 7v2h-2zm135-4-3 1v8h2q4-2 3 1-2 6-9 12l-3 2h4q6-4 8-9 2-2 2-7l-1-7zm0 2 1 2-1 3-2-1q-1-3 2-4m-22 31a16 16 0 0 0 8-8l2-3-4-2q-2 0-1-3 1-4-1-5l-1 1v3q0 3-2 5l-2 2 1 1 2-1 2-1 1 1 1 2c0 2-7 7-12 7l-4-1-1-2 1-3q1-3-2 1-3 3-1 6c0 1 5 2 7 1zm28-16q4-3 4-10v-4l2-1q5-2 5-6l-2 1-6 4-1 5q0 6-4 11l-1 2zm-29-3h-1l-1 1zm40-10-2-1v1zm-48-27-2 2v1l4 7 1 9-3 2-6-1-6 2-2-2v4h5l1 4h4l2-4 3-1a6 6 0 0 0 4-6l-3-12zm-6 23 2 3q-2 1-3-1t1-2"/><path d="M230 347h-2q-5 5-2 7 3 1-1 4-6 2-15-1-3-2-2 1l5 3q7 2 12-1l4-3 2-3h3q4 1 4 3l3 1h5l2 1 6 1h8l4 1q7-2 10-6l2-1q6-1 1-2l-5-1-4-1q-3 0-3 2l2 1 4 1 1 1-7 3h-8l-1-1-1-1-3 1h-3l-5-1h-5v-4h-3q-6 2-5-2 0-3-3-3m-1 3h1v1h-2z"/><path d="M222 352q2 0 3-6l-1-3q-2 0-2 4l-1 3q-5 2-8-1l1-3q4-6-1-2-2 3-2 0 1-2-2-1l-1 2-1 1q-3 0-4-2l8-9 2-3h-1l-2 1-5 6q-7 8-3 8a6 6 0 0 0 7 0l2-1v2q0 4 2 5a9 9 0 0 0 9-1m111-37v6q-1 3-6 3-5 2-6 6c0 1-2 4-3 1q-3-2-6 0l-2 4-3-3q-2 1 0 5 2 2 1 5-2 3-6 2l-3-5q1 3-2 2l-2-5-2 4 4 9 1 4 1-6h5q4-1 6-5v-6l7 1q1 3-1 6l-6 8q-3 3 0 2 6-3 8-9l1-8q2-2 6-2t3-4 3-5q3-1 4-6 1-2-2-3m-8 13c3 1 0 5-1 2q-1-2 1-2m-11 3c3 0 2 4 0 2q-2-1 0-2m-111 18-1-1-1 1zm36-4-1-1v1zm-45-22-3 2-4 5-4-1-2-4q-2-1-3 2l3 3 3 2q0 3 2 2 3 1 1 4v4l2-2 1-1h8l5-2 6-6q2-2-1-3l-3 3-5 6h-5l2-2q2-1 2-3l-3-1-7 3q-2-1 0-3l5-6q3-1 1-2zm1 10q2 2-1 2t-1-1zm-4 3q3 0 1 1t-1-1"/><path d="M223 339h-2zm80-7q0-2-2-1l1 2zm-124-10 1-3v-4q4-1 7 3 2 2-1 3v2l4-3q-1-4-5-6l-5-1q-5-1-3 4 1 7-4 2a11 11 0 0 1-4-9q0-7 5-7 4-1 1-2-6 0-9 7-1 8 7 14 4 3 6 0m149-5v-2l1-2 1-2h-4l1-1q3-2 0-2-2-1-3 3-1 2 1 2l1 2q0 3 2 2m14-2 1-2 2-2q5-3 3-8l-6-7-6-4v4q2 0 6 4 5 5 4 7-1 3-5-2l-3-3-1 1 2 4q4 5 1 6l-1 1-10-11v2l1 2 7 8 2 2zm6-18-10-10-1 2q0 3 2 2l5 4 4 4zm-51 99a1 1 0 1 1-3 0 1 1 0 1 1 3 0m4-2a1 1 0 1 1-2 0 1 1 0 1 1 2 0"/></g></svg>