<svg xmlns="http://www.w3.org/2000/svg" viewBox="0 0 512 512"><path fill="#007934" d="M0 0h512v512H0z"/><path fill="#ffe000" d="M0 0h512v341H0z"/><path fill="#d52b1e" d="M0 0h512v171H0z"/><path fill="#a05a2c" d="M308 225 203 329l-1-1 104-104z"/><path fill="#e7e7e7" d="m314 218-1 4-2-1v1l-2 1 2 1h2l-3 1h-2l-1-1-1-2 1-3v2l2 1v-1l2-1-2-1zl5-4z"/><path fill="#a05a2c" d="m328 238-134 75-1-1 134-76z"/><path fill="#e7e7e7" d="m336 233-2 3-2-2-1 2h-2l2 2h2-6l-1-2 1-1 1-3v2l1 1 1-1h2l-2-2h5l6-3z"/><path fill="#a05a2c" d="m316 232-120 91-2-1 121-91z"/><path fill="#e7e7e7" d="m324 226-2 4-2-2v2h-3l3 1 2 1h-6q-2 0-1-1v-2l1-3v2l1 2v-2h3l-2-2 4-1 6-3z"/><path fill="#a05a2c" d="m204 225 105 104 1-1-104-104z"/><path fill="#e7e7e7" d="m198 218 1 4 2-1v1l2 1-2 1h-2l3 1h2l2-1v-2l-1-3v2l-2 1 1-1-3-1 2-1zl-5-4z"/><path fill="#a05a2c" d="m185 238 134 75 1-1-134-76z"/><path fill="#e7e7e7" d="m176 233 2 3 2-2 1 2h2l-2 2h-2 6l1-2-1-1-1-3v2l-1 1-1-1h-2l2-2h-5l-6-3z"/><path fill="#a05a2c" d="m196 232 120 91 2-1-121-91z"/><path fill="#e7e7e7" d="m188 226 2 4 2-2v2h3l-3 1-2 1h6q2 0 1-1v-2l-1-3v2l-1 2-1-2h-2l2-2-5-1-5-3z"/><path fill="#00e519" d="M235 302a41 41 0 0 1 18-4q-15 10-18 4"/><path fill="#ffe533" d="M235 302q3 6 18-4z"/><path fill="none" d="M235 302q3 6 18-4z"/><path fill="none" d="m235 302 18-4q-15 9-18 4"/><path fill="#a05a2c" d="m285 235-27 56-3-1-4 3-1 5c2 2-1 4-1 4l-4 2-5 10-4 7-11-6 17-20q6-10 10-12c4-1 5-6 4-7l5-1 20-40q1-1 2 1l1-2z"/><path fill="#cce5e5" d="m286 223 1 1h1l2 1-32 66h-3l22-45 11-20-3-1-1-2 13-23z"/><path fill="#e7e7e7" d="m286 223 1 1h1l2 1-32 66h-3l22-45 11-20-3-1-1-2 13-23z"/><path fill="none" d="M244 291q-5 0-3 5m2-3h-2m16-14-5 11c-3 2-4 8-4 9l-9 14"/><path fill="#cce5e5" d="M258 291c-1-1-6-5-11-4l-6 9 8 5 1-1v-2q1-5 4-5h2z"/><path fill="none" d="M258 291c-1-1-6-5-11-4l-6 9 8 5 1-1v-2q1-5 4-5h2z"/><path fill="#cce5e5" d="M253 291q-3 0-5 3z"/><path fill="none" d="M253 291q-3 0-5 3m-3 1v-1l-1-1zm2-4h1l1-1h-1z"/><path fill="#cce5e5" d="m283 241 1-2-5-2-1 1v1z"/><path fill="none" d="m283 241 1-2-5-2-1 1v1z"/><path fill="#00e519" d="M229 305c4-3 16-4 18-4q-15 10-18 4"/><path fill="#ffe533" d="M229 305q3 6 18-4z"/><path fill="none" d="M229 305q3 6 18-4z"/><path fill="none" d="M229 305a43 43 0 0 1 18-4q-15 9-18 4"/><path fill="#a05a2c" d="m278 237-26 56h-3l-4 3-1 4c2 2-1 4-1 5l-3 2-5 10-4 6-11-5c4-8 16-20 16-21q6-9 10-11 5-4 4-7l4-2 19-40q3-1 2 1l1-2z"/><path fill="none" d="m278 237-26 56h-3l-4 3-1 4c2 2-1 4-1 5l-3 2-5 10-4 6-11-5c4-8 16-20 16-21q6-9 10-11 5-4 4-7l4-2 19-40q3-1 2 1l1-2z"/><path fill="#cce5e5" d="M279 225h2l2 1-31 66h-3l21-45 10-20-3-1-1-2 13-23z"/><path fill="#e7e7e7" d="M279 225h2l2 1-31 66h-3l21-45 10-20-3-1-1-2 13-23z"/><path fill="none" d="M238 293q-5 0-3 5m2-2-2-1m16-14-5 11q-4 6-4 9l-8 15"/><path fill="#cce5e5" d="M252 293c-2 0-6-4-11-4l-6 9 8 6 1-2v-2q0-4 4-4l2-1z"/><path fill="none" d="M252 293c-2 0-6-4-11-4l-6 9 8 6 1-2v-2q0-4 4-4l2-1z"/><path fill="#cce5e5" d="m247 294-5 2z"/><path fill="none" d="m247 294-5 2m-4 1 2 1v-1l-1-1zm3-4 1 1 1-1z"/><path fill="#cce5e5" d="m276 243 1-2-5-2-1 1v1z"/><path fill="none" d="m276 243 1-2-5-2-1 1v1z"/><path fill="#00e519" d="M278 302a41 41 0 0 0-18-4q15 9 18 4"/><path fill="#ffe533" d="M278 302q-3 5-18-4z"/><path fill="none" d="M278 302q-3 5-18-4z"/><path fill="none" d="M278 302c-4-3-17-4-18-4q15 10 18 4"/><path fill="#a05a2c" d="m227 234 27 56h3l5 3q2 4 0 5 0 3 2 4l3 2 5 10 4 7c3 0 11-6 12-6-5-8-17-20-17-21q-5-9-11-11-5-4-4-7l-4-2-20-40q-2-1-2 1l-1-2z"/><path fill="#cce5e5" d="M226 222h-1l-2 1 32 66h3l-22-45-10-20 3-1v-2l-13-23z"/><path fill="#e7e7e7" d="M226 222h-1l-2 1 32 66h3l-22-45-10-20 3-1v-2l-13-23z"/><path fill="none" d="M269 290q5 1 2 5m-1-2 2-1m-16-14q2 9 5 12l4 8 8 15"/><path fill="#cce5e5" d="M255 291q3-3 10-5l7 9-9 6-1-1 1-2q-1-5-4-5h-3z"/><path fill="none" d="M255 291q3-3 10-5l7 9-9 6-1-1 1-2q-1-5-4-5h-3z"/><path fill="#cce5e5" d="m259 291 5 2z"/><path fill="none" d="m259 291 5 2m4 1-1 1-1-1zm-3-3v-1l1-1z"/><path fill="#cce5e5" d="M229 240v-2l5-2 1 1-1 1z"/><path fill="none" d="M229 240v-2l5-2 1 1-1 1z"/><path fill="#00e519" d="M283 305c-4-3-16-4-17-4 8 7 17 7 17 4"/><path fill="#ffe533" d="M283 305c0 3-9 3-17-4z"/><path fill="none" d="M283 305c0 3-9 3-17-4z"/><path fill="none" d="m283 305-17-4c8 7 17 7 17 4"/><path fill="#a05a2c" d="m234 237 26 56h3l4 3q2 3 1 5c-1 1 2 3 1 4l4 2 5 10 3 7c3 0 11-6 12-6-5-8-17-20-16-21q-6-9-11-11-4-4-4-7l-4-2-19-40q-2-1-2 1l-1-2z"/><path fill="none" d="m234 237 26 56h3l4 3q2 3 1 5c-1 1 2 3 1 4l4 2 5 10 3 7c3 0 11-6 12-6-5-8-17-20-16-21q-6-9-11-11-4-4-4-7l-4-2-19-40q-2-1-2 1l-1-2z"/><path fill="#cce5e5" d="M233 225h-1l-2 1 30 66h3l-21-45-10-20 3-1 1-2-13-23z"/><path fill="#e7e7e7" d="M233 225h-1l-2 1 30 66h3l-21-45-10-20 3-1 1-2-13-23z"/><path fill="none" d="M274 293q6 0 3 5m-1-2 2-1m-16-14 5 11q4 6 3 9l9 15"/><path fill="#cce5e5" d="M260 293c2 0 7-4 11-4l6 9-8 6-1-2v-2q0-4-4-4l-2-1z"/><path fill="none" d="M260 293c2 0 7-4 11-4l6 9-8 6-1-2v-2q0-4-4-4l-2-1z"/><path fill="#cce5e5" d="m265 294 5 2z"/><path fill="none" d="m265 294 5 2m4 1-1 1-1-1 1-1zm-3-4-1 1-1-1z"/><path fill="#cce5e5" d="M236 243v-2l5-2 1 1-1 1z"/><path fill="none" d="M236 243v-2l5-2 1 1-1 1z"/><path fill="#a05a2c" d="m251 267 38-40-2-1-38 40z"/><path fill="#e7e7e7" fill-rule="evenodd" d="m288 226-5-2q0-3 4-4c-1 3 3 4 3 4z"/><path fill="#e7e7e7" d="m290 224 3 2q3 0 5-2 1 2-2 6-4 5-7 2 2-1 2-3l-2-2"/><path fill="#e7e7e7" d="m292 224-3 4-2-2 3-3z"/><path fill="#007934" fill-rule="evenodd" d="m243 310-1 9 2-2q2 0 2-8l-1-3zm3-22-3 17q0 2 2-1l2-12z"/><path fill="#d52b1e" fill-rule="evenodd" d="m252 304-2-3v4s2 1 1 4h1v-2z"/><path fill="#ffe000" fill-rule="evenodd" d="M242 319s4-3 4-10l1-2s0 2 0 0l1-3 2 1-1 10-1 2h-1q-1 3-5 2m5-26-2 11 2 3q0 2 0 0v-2l1-8z"/><path fill="#ffe000" fill-rule="evenodd" d="m246 319-1 2 2-1 1-3h-1zm2-12v-3l-1 1z"/><path fill="#d52b1e" fill-rule="evenodd" d="m251 306-1-1-2 12s0 4-2 4c0 0 1 11 4 8l1-6-1-6 1-8z"/><path fill="#d52b1e" fill-rule="evenodd" d="m253 304 1 1-3 21v-6q-1-6 1-11z"/><path fill="#f7e214" fill-rule="evenodd" d="m248 297-1 8s2-3 3 0v-4z"/><path fill="#007934" fill-rule="evenodd" d="M247 307s-1-6-4-2v3l1 3h2z"/><path fill="#d52b1e" d="m222 253-2-14-13-13s-1 10-6 16z"/><path fill="#ffe000" d="m223 253 1-11-8-8c0 4-4 9-4 15"/><path fill="#007934" d="M230 261c1-4-2-5 2-11l-8-8-2 11 6 5"/><path fill="#d52b1e" d="M200 288v-19l3-22-15-10-3 32a66 66 0 0 0 0 23q2 12 7 17c7 7 21 3 21 3 12-2 19-10 19-10l-10 2c-14-1-20 2-20-12"/><path fill="#f7e214" d="m240 297-7 2-8 1c-18 0-16-11-15-29l1-19-13-7c-4 11-2 19-3 25s-2 18 0 24c3 12 13 12 26 10l10-2z"/><path fill="#007a3d" d="m241 297-7 2-8 1q-21 2-20-29l3-21 7 4v1l-1 10c0 17 11 30 25 32z"/><path fill="none" d="M192 246c1 2 9 13 13 16m-12-9c1 2 10 15 15 16m-17 4q2 4 10 10m-7 4c4 4 14 12 24 13m-24-7c2 3 7 15 26 9m-29-6c1 2 11 18 28 12"/><path fill="#d52b1e" d="M211 283c-2-5 1-14 0-20l2-21-14-10-3 32c-1 8-2 19-1 25q5 15 8 15c7 6 23 6 25 5 11-4 16-12 16-12l-11 1c-14-1-21 0-22-15"/><path fill="#ffe000" d="m251 292-7 2h-8c-19 1-16-11-16-29v-16l-11-8q-4 15-3 23c-1 7-2 19 0 24 3 13 13 12 26 11l10-2z"/><path fill="#007934" d="m252 292-7 2-8 1q-22 2-20-30c0-7 0-8 3-18l11 10c1 0-2 3-1 7q0 25 21 28l2-14"/><path fill="none" d="m203 240 13 16m-12-8c1 2 10 15 15 15m-17 4q2 5 10 11m-7 3c4 4 14 13 24 13m-24-6c2 2 7 14 26 9m-29-7c1 3 11 18 28 12"/><path fill="#e8a30e" d="m188 239-1 6v11l1 6h-2v-6l1-11z"/><path fill="none" d="m188 239-1 6v11l1 6q-1 2-2 1v-7l1-11z"/><path fill="#f7e214" d="m188 237-1 10-1 9v5l-3-1 2-5zs-1 4 0 0"/><path fill="#e8a30e" d="m188 237-1 10-1 9v5l-3-1 2-5zs-1 4 0 0m-1 17h1m2 2-1-1m18-20-1 7v10l1 6q-1 3-3 1l1-7v-10zq0-2 1 0"/><path fill="none" d="m199 233-1 7v10l1 6q-1 3-2 1v-7l1-10zq0-2 0 0"/><path fill="#e8a30e" d="m199 231-2 11v8l-1 5h1-3l2-5z"/><path fill="none" d="m199 231-2 11v8l-1 5q0 1 0 0h-2l2-5zm-1 18 1-1m4 1h-1m1-2h-1m3 0h-1"/><path fill="#e8a30e" d="m207 225 1 9-1 7v4h2l-1-4z"/><path fill="#e8a30e" d="m207 225 1 9-1 7v4h2l-1-4zm0 16h1m-1-2h1m-1-1h1m-4 2"/><path fill="#005000" d="M241 236h1z"/><path fill="#fff" fill-rule="evenodd" d="M253 274h-1zm-1 1 2-1"/><path fill="#e8a30e" fill-rule="evenodd" d="M226 303c0 3-7 7-13 0-6-4-5-12 0-13l58-57 4-3 10 9-3 4z"/><path fill="#e7e7e7" fill-rule="evenodd" d="M275 229c3-3 14 6 11 10-3 3-14-6-11-10"/><path fill="#cccccf" fill-rule="evenodd" d="M285 238c-2 1-10-5-9-8 2-2 11 6 9 8"/><path fill="none" d="M282 243a17 17 0 0 1-11-10m-24 48a17 17 0 0 1-13-12m10 15a17 17 0 0 1-12-12m-2 27a19 19 0 0 1-13-13m10 16a19 19 0 0 1-13-13m-1 15q-1 3-3 2m15-2q-4 3-7 2"/><path fill="#e8a30e" d="m210 304 1 2 2-2-2-2z"/><path fill="none" d="M213 304q0 2-2 1m14-2q-3 5-7 3"/><path fill="#007934" fill-rule="evenodd" d="m269 310 1 9-2-2q-2 0-2-8l1-3zm-3-22 3 17q0 2-2-1l-2-11z"/><path fill="#d52b1e" fill-rule="evenodd" d="m260 304 2-3v4s-2 1-2 4v-2z"/><path fill="#ffe000" fill-rule="evenodd" d="M270 319s-4-3-4-10l-1-2s0 2 0 0l-1-3-2 1 2 12h1q1 3 5 2m-5-26 2 11-2 3q0 2 0 0v-2l-1-8z"/><path fill="#ffe000" fill-rule="evenodd" d="M267 319v2l-2-1-1-3h1zm-2-12-1-3 1 1z"/><path fill="#d52b1e" fill-rule="evenodd" d="m261 306 1-1 2 12s0 4 2 4c0 0-1 11-4 8q-2-1-1-6l1-6-2-8z"/><path fill="#d52b1e" fill-rule="evenodd" d="m259 304-1 1 3 21v-6q1-6-1-11z"/><path fill="#f7e214" fill-rule="evenodd" d="m264 297 1 8s-2-3-3 0v-4z"/><path fill="#007934" fill-rule="evenodd" d="M265 307s1-6 4-2v3l-1 3h-2z"/><path fill="#d52b1e" d="m290 253 2-14 12-13s2 10 7 16z"/><path fill="#ffe000" d="m289 253-1-11 8-8c0 4 4 9 4 15"/><path fill="#007934" d="M282 261c-1-4 2-5-2-11l8-8 2 11-6 5"/><path fill="#d52b1e" d="M312 288c2-4-1-13 0-19l-3-22 15-10 3 32v23q-2 12-7 17c-7 7-21 3-21 3-12-2-19-10-19-10l10 2c14-1 20 2 20-12"/><path fill="#f7e214" d="m272 297 7 2 8 1c19 0 16-11 16-29l-2-19 13-7c4 11 2 19 3 25s2 18 0 24c-3 12-13 12-26 10l-10-2z"/><path fill="#007a3d" d="m271 297 7 2 8 1q21 2 20-29l-3-21-7 4v1l1 10c0 17-11 30-25 32z"/><path fill="none" d="M320 246c-1 2-9 13-13 16m12-9c-1 2-10 15-15 16m17 4q-2 4-10 10m7 4c-4 4-14 12-24 13m24-7c-2 3-7 15-26 9m29-6c-1 2-11 18-28 12"/><path fill="#d52b1e" d="M301 283q2-9 0-20l-2-21 14-10 3 32c1 8 2 19 1 25q-5 15-8 15c-7 6-23 6-25 5-11-4-16-12-16-12l12 1c14-1 21 0 21-15"/><path fill="#ffe000" d="m261 292 7 2h8c19 1 16-11 16-29v-16l11-8q5 15 3 23c1 7 2 19 0 24-3 13-13 12-26 11l-10-2z"/><path fill="#007934" d="m260 292 7 2 8 1q22 2 20-30c0-7 0-8-3-18l-11 10 1 7q0 25-21 28l-2-14"/><path fill="none" d="m309 240-13 16m12-8c-1 2-10 15-14 15m16 4q-2 5-10 11m7 3c-4 4-14 13-24 13m24-6c-2 2-7 14-26 9m29-7c-1 3-11 18-28 12"/><path fill="#f7e214" d="m324 239 1 6v11l-1 6h2v-6l-1-11z"/><path fill="#e8a30e" d="m324 239 1 6v11l-1 6q1 2 2 1v-7l-1-11z"/><path fill="#f7e214" d="m324 237 1 10 1 9v5l3-1-2-5zs1 4 0 0"/><path fill="#e8a30e" d="m324 237 1 10 1 9v5l3-1-2-5zs1 4 0 0m1 17h-1m-2 2 1-1m-4-7h1m-1 8"/><path fill="#f7e214" d="m313 233 1 7v10l-1 6q1 3 2 1v-17zq0-2-1 0"/><path fill="#e8a30e" d="m313 233 1 7v10l-1 6q1 3 2 1v-7l-1-10zq0-2 0 0"/><path fill="#f7e214" d="m313 231 2 11v13h3l-2-5z"/><path fill="#e8a30e" d="m313 231 2 11v8l1 5q0 1 0 0h2l-2-5zm-3 19h1m-1-2h1m-3 0h1m-11-24v20h-2l1-4zm7 1-1 9 1 7v4h-2l1-4zm0 16h-1m1-2h-1m1-1h-1m1-1h-1m1-2h-1m1-1h-1m1 6h-1"/><path fill="#005000" d="M271 236h-1z"/><path fill="#fff" fill-rule="evenodd" d="m261 275-3-1"/><path fill="#d52b1e" d="m226 230 2-4 4-1q1 1-2 3z"/><path fill="#a05a2c" fill-rule="evenodd" d="m226 229 31 41 2-1-32-42z"/><path fill="#d52b1e" d="M225 221s4 0 3-2q-1-3-3-2l-5 1-3 6 3 6v6l3-1 3-5 2-4 4-1-2-2z"/><path fill="none" d="M225 221s4 0 3-2q-1-3-3-2l-5 1-3 6 3 6v6l3-1 3-5 2-4 4-1-2-2z"/><path fill="none" d="M225 221h-2q-2 0-3 3m11 0-3 1-4 4-4 4m10-10-2 1-1 2"/><path fill="#e8a30e" fill-rule="evenodd" d="M286 303c0 3 7 7 13 0 6-4 5-12 0-13l-58-57-4-3-10 9 3 4z"/><path fill="#e7e7e7" fill-rule="evenodd" d="M237 229c-3-3-14 6-11 10 3 3 14-6 11-10"/><path fill="#cccccf" fill-rule="evenodd" d="M227 238c2 1 10-5 9-8-2-2-11 6-9 8"/><path fill="none" d="M230 243q8-2 11-10m24 48a17 17 0 0 0 13-12m-10 15a17 17 0 0 0 12-12m2 27a19 19 0 0 0 13-13m-10 16a19 19 0 0 0 13-13m1 15q1 3 3 2m-15-2q4 3 7 2"/><path fill="#e8a30e" d="m303 304-2 2-2-2 2-2z"/><path fill="none" d="M299 304q0 2 2 1m-14-2q4 5 7 3"/><path fill="#007934" fill-rule="evenodd" d="M277 187q4 6 5 13a24 24 0 0 1-7 22q-10 7-18 7l-7 3 1-2 8-2q13 0 21-13 6-16-3-28"/><path fill="#007934" fill-rule="evenodd" d="m284 219-3 1h-2l-2 1-2 2 3 1 3-1 1-1zm-6 1h-1l-1 1z"/><path fill="#007934" fill-rule="evenodd" d="m284 219-5 3-5 1 5-1zm-2 4-5 2q-3-1-5 1 7 4 10-3"/><path fill="#007934" fill-rule="evenodd" d="M278 228c-1-1-9-4-10-1q4 4 10 1"/><path fill="#007934" fill-rule="evenodd" d="m276 230-3-1h-2l-6-1q3 6 11 2m1-2q-6 1-10-1h-1zm5-4-12 2h-1c10 0 10-1 13-3"/><path fill="#007934" fill-rule="evenodd" d="M276 230c-4 0-5 1-11-1l-2-1h1c8 4 7 2 12 2m-12-4-1 2h-1z"/><path fill="#d52b1e" d="M284 199a1 1 16 1 1-1 0z"/><path fill="#007934" fill-rule="evenodd" d="M279 217c0-3-1 1-3-4l-1-5 4 4z"/><path fill="#007934" fill-rule="evenodd" d="m275 208 2 4q3 4 2 5"/><path fill="#007934" fill-rule="evenodd" d="m276 210 3 7q-1-5-3-6zm11 3-3 2-1 1h-2l-2 2 3 1 4-2z"/><path fill="#007934" fill-rule="evenodd" d="m278 219 5-2 4-4-4 3z"/><path fill="#007934" fill-rule="evenodd" d="m288 208-2 2-2 2h-1l-2 3h2q3 0 4-4z"/><path fill="#d52b1e" d="M279 213a1 1 62 1 0 1-1z"/><path fill="#007934" fill-rule="evenodd" d="M280 215q6-2 8-7zm9-11-2 2-2 1-1 1-1 2 2 1 2-2 1-2z"/><path fill="#007934" fill-rule="evenodd" d="m287 207-5 4zm1-6-2 2-1 1-1 1-1 2 2 1 2-2 1-2zm-5-1v1zm3 4-4 4zm-6 10v-1z"/><path fill="#007934" fill-rule="evenodd" d="m281 195-2-1zm6 0q-4 3-3 8c3 3 3-5 3-8"/><path fill="#007934" fill-rule="evenodd" d="M284 190q-3 3-1 8c4 1 2-5 1-9"/><path fill="#007934" fill-rule="evenodd" d="M281 186q4 5 0 8l-1-3z"/><path fill="#007934" fill-rule="evenodd" d="M278 183q-2 4 1 7 3-2-1-7"/><path fill="#007934" fill-rule="evenodd" d="M277 188c-4 0-2-3-3-6q4 1 3 6m2 4c-1-4-4-2-6-4q2 5 6 5m2 5q-4 0-7-5 5 1 7 5"/><path fill="#007934" fill-rule="evenodd" d="m281 201-1-3-4-4q0 6 5 7"/><path fill="#007934" fill-rule="evenodd" d="m282 204-6-6c1 3 0 7 6 6"/><path fill="#007934" fill-rule="evenodd" d="M281 209c-5 0-4-5-4-7l3 3z"/><path fill="#007934" fill-rule="evenodd" d="m281 212-1-2-4-5q-2 3 1 5zm-5 8q-4-4-1-9c1 3 4 6 1 9m2-31-4-7z"/><path fill="#007934" fill-rule="evenodd" d="m276 221-1-9zm5-8-5-8zm1-3-5-9 5 8m1-5-7-7zm0-3-7-8zm-1-5-8-5zm-2-4-7-5zm7 2q-1 5-4 9zm-3-5q0 5-2 9v-1q2-2 2-8m-2-4-1 10zm-4-3q2 5 1 8 1-4-1-8m-5 34q2 5-2 7c-2-5 1-4 2-7"/><path fill="#007934" fill-rule="evenodd" d="m273 217-2 8h-1zm8-22v-2zm2 6-1-1zm-3 13 1-1h-1zm0 1 2-1z"/><path fill="#d52b1e" d="M278 219v-1z"/><path fill="#007934" fill-rule="evenodd" d="m277 220 1-1z"/><path fill="#d52b1e" d="M276 218h1a1 1 10 1 0-1 0"/><path fill="#007934" fill-rule="evenodd" d="m264 229-2-1z"/><path fill="#d52b1e" d="M264 230v-1"/><path fill="#007934" fill-rule="evenodd" d="M270 220a6 6 0 0 1-5 7q0-6 5-7"/><path fill="#007934" fill-rule="evenodd" d="m270 220-5 8h-1z"/><path fill="#d52b1e" d="M264 228v-1"/><path fill="#007934" fill-rule="evenodd" d="m262 228 2-1zm3-5-2 3-2 2c-2-3 3-4 4-5m0 0-5 5zm-30-36q-4 6-5 13a24 24 0 0 0 7 22q10 7 18 7l7 3-1-2-8-2q-13 0-20-13-7-16 2-28"/><path fill="#007934" fill-rule="evenodd" d="M250 228c-1 0-5 4-8 4l-3-1 2-2z"/><path fill="#007934" d="m239 231 8-2"/><path fill="#007934" fill-rule="evenodd" d="m247 223 4 4 1 2-1-1z"/><path fill="#007934" d="m252 229-4-5"/><path fill="#007934" fill-rule="evenodd" d="M235 188q0-3 2-5l2-1v2z"/><path fill="#007934" d="m239 182-3 4"/><path fill="#007934" fill-rule="evenodd" d="M234 189v-5l1-1v1z"/><path fill="#007934" d="m235 183-1 5"/><path fill="#007934" fill-rule="evenodd" d="m234 189 4-2 1-1h-1z"/><path fill="#007934" d="m239 186-4 2"/><path fill="#007934" fill-rule="evenodd" d="m233 192-1-6v-2l1 2z"/><path fill="#007934" d="M233 184v6"/><path fill="#007934" fill-rule="evenodd" d="M232 194q-2-2-2-6v-2l1 2z"/><path fill="#007934" d="m230 186 1 6"/><path fill="#007934" fill-rule="evenodd" d="m231 196-3-5v-2l1 2z"/><path fill="#007934" d="m228 190 2 5"/><path fill="#007934" fill-rule="evenodd" d="m233 192 5-2 1-2-2 1z"/><path fill="#007934" d="m239 188-5 3"/><path fill="#007934" fill-rule="evenodd" d="m232 194 5-2 1-1h-2z"/><path fill="#007934" d="m238 191-4 2"/><path fill="#007934" fill-rule="evenodd" d="m231 196 5-1 1-2h-1z"/><path fill="#007934" d="m237 193-4 3"/><path fill="#007934" fill-rule="evenodd" d="M231 195v-1zh-1v-1z"/><path fill-rule="evenodd" d="M230 192v2zm1 0v1z" overflow="visible" style="marker:none"/><path fill="#007934" fill-rule="evenodd" d="m231 195 1-1h1-1v1h1v-1 1z"/><path fill-rule="evenodd" d="M233 193v1z" overflow="visible" style="marker:none"/><path fill="#007934" fill-rule="evenodd" d="m230 199-3-5v-2l1 2z"/><path fill="#007934" d="m227 192 2 6"/><path fill="#007934" fill-rule="evenodd" d="M230 199q2 1 5-2l1-2-1 1z"/><path fill="#007934" d="m236 195-4 4"/><path fill="#007934" fill-rule="evenodd" d="m230 202 5-3 1-1h-1z"/><path fill="#007934" d="m236 198-5 3"/><path fill="#007934" fill-rule="evenodd" d="m229 202-4-5v-2l2 2z"/><path fill="#007934" d="m225 195 3 6"/><path fill="#007934" fill-rule="evenodd" d="m230 206 5-4v-2l-1 1z"/><path fill="#007934" d="m235 200-4 4"/><path fill="#007934" fill-rule="evenodd" d="m229 206-4-4-1-2 2 1z"/><path fill="#007934" d="m224 200 4 4"/><path fill="#007934" fill-rule="evenodd" d="M229 204v-1h-1zl-1-1h-1z"/><path fill-rule="evenodd" d="m229 201-1 2z" overflow="visible" style="marker:none"/><path fill="#007934" fill-rule="evenodd" d="m229 204 1-1h1-1v1l1-1h1l-1 1z"/><path fill-rule="evenodd" d="m232 202-1 1zm-1 0" overflow="visible" style="marker:none"/><path fill="#007934" fill-rule="evenodd" d="m230 209-6-4-1-2 2 1z"/><path fill="#007934" d="m224 203 4 5"/><path fill="#007934" fill-rule="evenodd" d="m230 209 5-4 1-3-2 1z"/><path fill="#007934" d="m236 202-4 6"/><path fill="#007934" fill-rule="evenodd" d="m231 213 5-5v-3l-1 1z"/><path fill="#007934" d="m236 205-3 6"/><path fill="#007934" fill-rule="evenodd" d="m231 213-7-4-1-3 2 1z"/><path fill="#007934" d="m223 206 6 5"/><path fill="#007934" fill-rule="evenodd" d="m235 219 3-6v-2l-1 2z"/><path fill="#007934" d="m238 211-2 6"/><path fill="#007934" fill-rule="evenodd" d="M235 219q-3 1-8-2l-2-2h2z"/><path fill="#007934" d="M225 215q4 3 7 3"/><path fill="#007934" fill-rule="evenodd" d="M233 217q-3 0-8-4l-1-2 2 1z"/><path fill="#007934" d="m224 211 6 4"/><path fill="#007934" fill-rule="evenodd" d="M233 217c0-1 4-3 4-6v-3l-1 2z"/><path fill="#007934" d="m237 208-3 6"/><path fill="#007934" fill-rule="evenodd" d="m232 215-1-1-1-1 1 1h-2l1 1z"/><path fill-rule="evenodd" d="M229 213a1 1 46 1 1 1 1 1 1 46 1 1-1-1" overflow="visible" style="marker:none"/><path fill-rule="evenodd" d="M230 212a1 1 72 1 1 0 1 1 1 72 1 1 0-1" overflow="visible" style="marker:none"/><path fill="#007934" fill-rule="evenodd" d="m232 215 1-1-1-1 1-1v2-1h1l-1 1z"/><path fill-rule="evenodd" d="M234 211a1 1 8 1 0-1 2 1 1 8 1 0 1-2" overflow="visible" style="marker:none"/><path fill-rule="evenodd" d="M232 211a1 1 72 1 0 1 2 1 1 72 1 0-1-2" overflow="visible" style="marker:none"/><path fill="#007934" fill-rule="evenodd" d="M237 221q-3 2-8 0l-2-1h2z"/><path fill="#007934" d="m227 220 7 1"/><path fill="#007934" fill-rule="evenodd" d="m237 221 2-5-1-2v2z"/><path fill="#007934" d="M238 214q1 3-1 5"/><path fill="#007934" fill-rule="evenodd" d="M241 224q-3 2-9 1l-2-2h2z"/><path fill="#007934" d="m230 223 8 1"/><path fill="#007934" fill-rule="evenodd" d="M241 224v-6l-2-1v2z"/><path fill="#007934" d="m239 217 2 5"/><path fill="#007934" fill-rule="evenodd" d="M238 223h-1l-1-1zh-2l1 1z"/><path fill-rule="evenodd" d="M234 223a1 1 24 1 1 2 0 1 1 24 1 1-2 0" overflow="visible" style="marker:none"/><path fill-rule="evenodd" d="M235 221a1 1 50 1 1 1 1 1 1 50 1 1-1-1" overflow="visible" style="marker:none"/><path fill="#007934" fill-rule="evenodd" d="m238 223 1-1-1-1v-1l1 1v1-2 3"/><path fill-rule="evenodd" d="M239 219a1 1 70 1 0 0 1 1 1 70 1 0 0-1m-2 1a1 1 44 1 0 1 1 1 1 44 1 0-1-1" overflow="visible" style="marker:none"/><path fill="#007934" fill-rule="evenodd" d="M244 226q-2 2-8 2l-3-1h2q4-2 8-1"/><path fill="#007934" d="M233 227h8"/><path fill="#007934" fill-rule="evenodd" d="M246 227h-3l2 1h-2v1l2-1z"/><path fill-rule="evenodd" d="M242 228a1 1 5 1 1 1 1 1 1 5 1 1-1-1m0-2a1 1 31 1 1 2 1 1 1 31 1 1-2-1" overflow="visible" style="marker:none"/><path fill="#007934" fill-rule="evenodd" d="M245 226q1-1-1-6l-2-1v2z"/><path fill="#007934" d="m242 219 2 5"/><path fill="#007934" fill-rule="evenodd" d="m247 227-1-1-1-1 1 1h1v-1l-1-1h1z"/><path fill-rule="evenodd" d="M245 223a1 1 43 1 0 1 1 1 1 43 1 0-1-1m-1 2a1 1 17 1 0 1 0 1 1 17 1 0-1 0" overflow="visible" style="marker:none"/><path fill="#452c25" d="m255 223-2 6 5-6 2-1-3-2z"/><path fill="none" d="m255 223-2 6 5-6 2-1-3-2z"/><path fill="#452c25" d="m246 227-3 7 5-8h-1z"/><path fill="none" d="m246 227-3 7 5-8h-1z"/><path fill="#452c25" d="m247 226-3 6 5-8h-1z"/><path fill="none" d="m247 226-3 6 5-8h-1z"/><path fill="#452c25" d="m248 225-4 6 6-8h-1z"/><path fill="none" d="m248 225-4 6 6-8h-1z"/><path fill="#452c25" d="m249 224-4 5 7-7h-2z"/><path fill="none" d="m249 224-4 5 7-7h-2z"/><path fill="#452c25" d="m249 222-3 6 5-8h-1z"/><path fill="none" d="m249 222-3 6 5-8h-1z"/><path fill="#452c25" d="m248 227-3 6 5-8h-1z"/><path fill="none" d="m248 227-3 6 5-8h-1z"/><path fill="#452c25" d="m250 225-2 5 5-5c2-3-3 0-3 0"/><path fill="none" d="m250 225-2 5 5-5c2-3-3 0-3 0"/><path fill="#452c25" d="m251 225-2 6 4-6c1-3 0 0 0 0v-3z"/><path fill="none" d="m251 225-2 6 4-6c1-3 0 0 0 0v-3z"/><path fill="#452c25" d="m249 224-4 6 7-7h-1z"/><path fill="none" d="m249 224-4 6 7-7h-1z"/><path fill="#452c25" d="m250 225-4 6 6-7h-1z"/><path fill="none" d="m250 225-4 6 6-7h-1z"/><path fill="#452c25" d="m250 226-4 5c1 1 7-6 7-6h-2z"/><path fill="none" d="m250 226-4 5c1 1 7-6 7-6h-2z"/><path fill="#452c25" d="m251 219-4 5q3 0 5-4c2-2-1-1-1-1"/><path fill="none" d="m251 219-4 5q3 0 5-4c2-2-1-1-1-1"/><path fill="#452c25" d="m251 224-3 6 4-6 1-2z"/><path fill="none" d="m251 224-3 6 4-6 1-2z"/><path fill="#452c25" d="M251 222s2-5 0 1c-3 6-4 5-4 5l2-5 3-3"/><path fill="none" d="M251 222s2-5 0 1c-3 6-4 5-4 5l2-5 3-3"/><path fill="#452c25" d="M253 221s3-5 0 1-4 5-4 5l3-4 2-4"/><path fill="none" d="M253 221s3-5 0 1-4 5-4 5l3-4 2-4"/><path fill="#452c25" d="m252 219-3 6q3 1 5-5 0-2-2-1"/><path fill="#e8a30e" d="M291 268a35 39 0 1 1-70 0 35 39 0 1 1 70 0"/><path fill="none" stroke="#390" d="M228 268c0-18 13-32 28-32s28 14 28 32" color="#000" font-family="Sans" font-weight="400" overflow="visible" style="line-height:normal;text-indent:0;text-align:start;text-decoration-line:none;text-transform:none;marker:none"/><path fill="#007934" d="M221 270c1 21 16 37 35 37s34-16 35-37z"/><path fill="none" d="M291 268a35 39 0 1 1-70 0 35 39 0 1 1 70 0"/><path fill="#d52b1e" d="m250 240 1 4 1 3-1 1-6-4 4 6h-3l-4-1 3 2 3 1v1l-7 2 7 1-3 2-3 2h4l3-1-4 6 6-4v4l-1 4 2-4 2-2h1l1 7 1-7h1l2 2 2 4-1-4-1-3 1-1 6 4-4-6 3 1h4l-3-2-3-1v-1l7-1-7-2 3-2 3-2h-4l-3 1 4-6-6 4v-4l1-4-2 4-2 2h-1l-1-7-1 7h-1l-2-2z" overflow="visible" style="marker:none"/><path d="M262 253q-3-3-5-1v4-4q3-3 5 1"/><path d="m260 252-2 1h-1 1zl2 1zm1 1h-3z"/><circle cx="259" cy="253" r="1"/><path d="M258 253h3zm3 1h-4zm-3 2a1 1 0 1 1-1 0l-1 1h1a1 1 0 1 0 1-1m1 3-2-1h-1v1h2m0 0h-2zm1 0-3 1zm-9-7h5v4-4q-3-3-5 1"/><path d="m253 252 1 1h1zl-2 1zm-2 1h3z"/><circle cx="-253" cy="253" r="1" transform="scale(-1 1)"/><path d="M254 253h-3zm-3 1h4zm3 2a1 1 0 1 0 1 0l1 1h-1a1 1 0 1 1-1-1m-1 3 2-1h1v1h-1zm1 0h2zm0 0 2 1z"/><path fill="#007934" d="m259 276 5-1h5v-1l-2-1-3-2q4 3 12 1h3l5-1-2-1-3-2-5-3h-2l-5-5-8-5-3-1-6 3-4 3-8 5-10 5c9 0-7 3 31 6"/><path fill="#007934" d="m238 266 13-9 1 1 1-1h2l-4 3v1l2-1v1l-2 1-2 2 2-1 2-1 3-2-1 2h1l-3 2h-1l-1 1-2 3-2 1s-4 4-5 3c0-2-4 2-14-1m33 0h-1 3v-1h-1v-1l2 1 2-1h1-1l-1 1h2l1-1h1l-1 1h1l1-1h-1 1l1 1 1-1 2 1h-2l-1 1v1h2l1-1v-1q-1 0 0 0h1v-1h1v1l-1 1 1 1h4v-1h-1l4 1h-4l-4 1-2-1m-12 0"/><path fill="#007934" d="M257 276q3 2 4 0h2c3 1 12 0 12-1l-4-2h-1l-2-1-3-1-1-2-2-1-3-2h-1l-2-1-3 2-2 1-6 3-7 3s3 2 9 2l3 1 2-1z"/><path fill="#007934" d="M245 272c1-1 7-3 8-5v1l1-1h1l-2 2h1l-1 1-1 1 1-1h1l2-1-1 1h1l-2 1-1 1-1 1-1 1-3 1-9-1"/><path fill="#00a6de" d="M256 228c-19 0-35 18-35 40s16 39 35 39 35-17 35-39-16-40-35-40m0 9c14 0 26 13 26 31s-12 30-26 30-26-13-26-30 12-31 26-31" color="#000" font-family="Sans" font-weight="400" overflow="visible" style="line-height:normal;text-indent:0;text-align:start;text-decoration-line:none;text-transform:none;marker:none"/><path fill="#e8a30e" d="M261 285h-1zm-3 9v-6q3-2 5 0v6zm2-7v8z"/><path fill="#e8a30e" d="m261 287-1 8h1zm0-3v1zm-1 1 1 1zm0 1 1 1zm2-1h-1zm0 0-1 1zm0 0-1 1zm0 1-1 1zm0 1-1 8zm1-3-1 1zm-1 1v1zm-1 1 1 1zm2 0h-1zm0 0-1 1zm0 1h-1zm-1 0v8zm1-2v1zm-1 1v1zm2 0-1 1zm0 0-1 1zm-4-2-1 1zm0 1v1zm0 1v1zm-1-2v1zm0 1 1 1zm0 1 1 1zm0 1 1 8zm-1-3v1zm1 1-1 1zm0 1v1zm-1-1v1zm0 1 1 1zm0 1 1 1zm0 1 1 7zm0-2q-2 0 0 0m0 0v1zm-2-1 1 1zm1 2h1zm4-3-1 1zm0 1-1 1zm0 1-1 1zm-1-2v1zm0 1v1zm0 1v1zm-1 1 1 8zm-1-3v1zm1 0v1zm0 1v1zm1 0-1 1zm0 1v1zm-2-1 1 1zm0 1h1zm0 2 1 4-1 2h1zm1-1v8h1zm-1-2v1zm1 1v1zm-2 0h1zm0 0 1 1zm-1-1 1 1zm1 0v1zm0 1v1zm1 1v1zm-2-1h1zm0 0 1 1zm1 1"/><path fill="#e8a30e" d="M257 288h1zm4-1-1 8h1zm1-3v1zm0 0v1zm-1 1 1 1zm0 0v1zm0 1v1zm0 0v1zm2-1-1 1zm-1 2-1 8zm2-2-1 1zm-2 0 1 1zm0 1v1zm2-1-1 1zm-1 2"/><path fill="#e8a30e" d="m263 287-1 1zm0 1q-2 3-1 6v-3zm2-2h-1zm-1-1v1zm-1 1v1zm0 1v1zm2-1-1 1zm-1 1-1 1zm-4 4h1zh-2zm2 0"/><path fill="#e7e7e7" d="m252 287 1 3v3h1v1h-1v-1l-1-1v-1l-1-3m-7-2 2 1-1 3v1l1 2 1 1h1l-1-1v-1l-1-1 1-2 1-2-1-2-1-1m-2-1q-3 3-1 4m10-9"/><path fill="#e7e7e7" d="M255 280v-1h-2l-2 1v4l-5-1-2 1-1 2v1c1 3 2 0 2 0h1l3 2q6 2 5-6v-2z"/><path fill="#e7e7e7" d="m253 279 1-2-1 1m-10 8 1 2-1 1v1l1 2v2h1-1l1-1-1-1v-2h1l1-1 1-1v-1l-1-1m6 2-2 1v3l-1 1v1h1-1v-2l-1-1v-5m6-6h1m-1-1"/><path fill="#e7e7e7" fill-rule="evenodd" d="M266 291v2h1v-18h-1v15m0 2h1m-1-1h1m-1-1h1m-1-1h1m-1 0h1m-1-1h1m-1-1h1m-9-8h1m-1 0h1m-4 14h1m-1 0h1"/><path fill="#007934" fill-rule="evenodd" d="M268 274h3-1 2l-1-1h2-1 2-1l3-1zl1-1h-1l1-1h-1l2-1h-1l2-1h-1l2-2q-6 2-6 6-1-3-7-4l3 1h-1l2 1h-1l1 1 1 1h-1l2 1q-4-1-8 3l2-1v1l2-2v1l2-1-1 1 2-1-1 1h1l-3 6 1-2v1l1-2v1l1-2v1l2-2 1-1v2l1-1v3l1-1v2l1-1v3q1-6-2-7l2 1-1-1 2 2v-1l1 1v-1l1 2v-1l2 2q-1-4-7-6"/><path fill="none" d="M267 274q6 1 8 6l-2-2v1l-1-2v1l-1-1-2-1v1l-1-1m-2-2q-4-2-9 3l2-1v1l2-2-1 1 3-1-1 1 2-1-1 1h1"/><path fill="none" d="M266 274q0-5-7-5l3 1h-1l2 1h-1l1 1 1 1h-1l2 1m1 1q-4 1-5 7l1-2v1l1-2v1l1-2v1l2-2zm-2 0-1 2m0-1-1 2m0-1-1 2m8 0v1m-1-3v2m-1-3 1 1m3-2 1 1m-2-2 1 2m-12-1 2-2m0 2 2-2m-1 1 2-1m0 1 2-1m-4-4 2 1m-1 0 2 1m-2 0 3 1m-2 0h2m1 1a9 9 0 0 1 9-2h-3l1 1h-2 1-2l1 1h-2 1-3m5-2h-2m1 1h-2m1 0h-3m2 1h-2m0 1 1 1"/><path fill="none" d="M266 273q0-4 6-5l-2 1h1l-2 1h1l-2 1h1l-1 1h1l-2 1m3-4-2 1m1 0-2 1m1 0-1 1m1 0-2 1m0 2-1 2m2-3q4 2 3 8l-1-2v1l-1-2v1-3l-1 1-1-2"/><path fill="#e8a30e" d="M228 249v-2h-1zm2 1 2 1h1v-2h-2zm-2-1 1-1h2v1h2l1 1-1 2-1 1v1l-1-1-2-1zm10-11v3l2 1 1-1 1-1-1-1-2-2zm4 0 1 2-2 2-2 1-2-1v-3l1-2 2-1zm9-3 2-1 1 1h-1l-3 1-1-2v-2l-1-2h2v2zm9-3v-2h2v2l-1 2v2h-1zm11 5 3-3 1 1-5 4-1-1 1-4v-2l1 1zm9 4 1-1 1 1-1 1-2 2-1 1-1-1 1-1zm5 11 2-1h-2zm-1-1h-2v-1h6v1l-4 4v-1h-1l2-2z" font-family="Linux Biolinum" font-size="100" font-weight="700" letter-spacing="60" style="line-height:125%;text-align:center" text-anchor="middle" word-spacing="0"/><path fill="#e8a30e" d="m261 299-1 3h-2l2 1-1 3 2-2 2 2v-3l2-1h-3zm10-4-1 2h-2l2 2-1 3 2-2 2 2-1-3 2-1h-2zm15-27-1 3h-2l2 1-1 3 2-2 2 2-1-3 2-1h-2zm-7 20 1 2h2l-2 1 1 3-2-2-2 2 1-3-2-1h2zm5-9 1 2h2l-2 2 1 2-2-1-2 1 1-2-2-2h2zm-33 20 1 3h2l-2 1 1 3-2-2-2 2v-3l-2-1h3zm-10-4 1 2h2l-2 2 1 3-2-2-2 2 1-3-2-1h2zm-15-27 1 3h2l-2 1 1 3-2-2-2 2 1-3-2-1h2zm7 20-1 2h-2l2 1-1 3 2-2 2 2-1-3 2-1h-2zm-5-9-1 2h-2l2 2-1 2 2-1 2 1-1-2 2-2h-2z"/><path fill="#e7e7e7" d="M257 265h-2v1z"/><path fill="#e7e7e7" d="M257 265h-1v-1 1h-1v1zm0 0h-2v-1z"/><path fill="#e7e7e7" d="M257 265h-2v-1zm-2 0h2m-2 0h2m-1-1"/><path fill="#e7e7e7" d="M257 264v1h-1v-1z"/><path fill="#e7e7e7" d="M257 264v1h-1v-1zm-1 0h-1zm-1 1"/><path fill="#452c25" d="M253 224s-3 6-2 7l4-7q1-1 0 0v-3z"/><path fill="none" d="M253 224s-3 6-2 7l4-7q1-1 0 0v-3z"/><path fill="#452c25" d="m254 222-3 6 3-5q1-1 0 0l1-4"/><path fill="none" d="m254 222-3 6 3-5q1-1 0 0l1-4"/><path fill="#452c25" d="m257 220-3 7q2-1 3-5 1-1 0 0l1-4"/><path fill="none" d="m257 220-3 7q2-1 3-5 1-1 0 0l1-4"/><path fill="#452c25" d="m295 209 4 2h-1l-14-7-4-2h4z"/><path fill="none" d="m295 209 4 2h-1l-14-7-4-2h4z"/><path fill="#452c25" d="m297 208 3 2h-1l-14-7c-3-2 0 2 0 2v-2z"/><path fill="none" d="m297 208 3 2h-1l-14-7c-3-2 0 2 0 2v-2z"/><path fill="#452c25" d="m302 210-5-2-2-1s1 2-5-2l-4-2h2l10 4z"/><path fill="none" d="m302 210-5-2-2-1s1 2-5-2l-4-2h2l10 4z"/><path fill="#452c25" d="m280 211 2 2s-1 2-6-1l-4-4h2z"/><path fill="none" d="m280 211 2 2s-1 2-6-1l-4-4h2z"/><path fill="#452c25" d="m274 212 1 4q-1 1-5-3c-2-3 0 0 0 0l1-5z"/><path fill="none" d="m274 212 1 4q-1 1-5-3c-2-3 0 0 0 0l1-5z"/><path fill="#452c25" d="m276 211 2 3-6-2q-2-4 0-4z"/><path fill="none" d="m276 211 2 3-6-2q-2-4 0-4z"/><path fill="#452c25" d="M289 209s6 3 1 3c0 0-9-3-14-7l2-1z"/><path fill="none" d="M289 209s6 3 1 3c0 0-9-3-14-7l2-1z"/><path fill="#452c25" d="m292 209 4 2c1 0-11-2-17-6l3-2z"/><path fill="none" d="m292 209 4 2c1 0-11-2-17-6l3-2z"/><path fill="#452c25" d="m282 210 2 3-9-4 1-2z"/><path fill="none" d="m282 210 2 3-9-4 1-2z"/><path fill="#452c25" d="m286 210 2 2s-2 2-11-4h-1l1-2z"/><path fill="none" d="m286 210 2 2s-2 2-11-4h-1l1-2z"/><path fill="#452c25" d="m277 205 3 3q-2 1-6-1l-2-3 3-1z"/><path fill="none" d="m277 205 3 3q-2 1-6-1l-2-3 3-1z"/><path fill="#452c25" d="m274 201 5 3 4 3q-2 1-7-2l-5-4"/><path fill="none" d="m274 201 5 3 4 3q-2 1-7-2l-5-4"/><path fill="#452c25" d="m270 216 1 3-4-3q0-2 1-1z"/><path fill="none" d="m270 216 1 3-4-3q0-2 1-1z"/><path fill="#452c25" d="m272 214 1 3-4-2c-4-3 2-2 2-2z"/><path fill="none" d="m272 214 1 3-4-2c-4-3 2-2 2-2z"/><path fill="#452c25" d="m267 203 5 11-4-3-2-6z"/><path fill="none" d="m267 203 5 11-4-3c-4-4-2-6-2-6z"/><path fill="#452c25" d="m273 206 4 4-5-3c-3-2 1-2 1-2"/><path fill="none" d="M273 206s5 3 4 4l-5-3c-3-2 1-1 1-1"/><path fill="#452c25" d="m271 206 3 6-4-3-2-3"/><path fill="none" d="m271 206 3 6-4-3-2-3"/><path fill="#452c25" d="M248 217v4q2 1 2-3v-2z"/><path fill="none" d="M248 217v4q2 1 2-3v-2z"/><path fill="#452c25" d="M249 213v5q3-2 2-5z"/><path fill="none" d="M249 213v5q3-2 2-5z"/><path fill="#452c25" d="m250 218 1 4 2-2-1-3z"/><path fill="none" d="m250 218 1 4 2-2-1-3z"/><path fill="#452c25" d="M250 214v4c1 1 2-3 2-4zm0-6-1 3 3-2z"/><path fill="none" d="m250 208-1 3 3-2z"/><path fill="#452c25" d="m249 207-1 3 2-1z"/><path fill="none" d="m249 207-1 3 2-1z"/><path fill="#452c25" d="m268 204 2 4-3-2z"/><path fill="none" d="m268 204 2 4-3-2z"/><path fill="#452c25" d="M268 212v4l-2-4zm-2 5-1 3-2-2v-1l2-1z"/><path fill="#452c25" d="M268 217v2q-2 1-3-2 2-2 3-1z"/><path fill="#452c25" d="m266 208 2 8c-1 1-3-4-4-6q0-3 2-2"/><path fill="#452c25" d="M264 209s4 7 2 7c-1 1-4-5-5-6z"/><path fill="#452c25" d="m264 211 1 6c-2-1-3-6-3-7zm7-10 2 5-5-3z"/><path fill="#452c25" d="M269 202s4 5 2 5l-1-1-3-3zm4 0s2 2 1 3l-4-4zm-7 3 4 9c-1 1-6-6-6-7z"/><path fill="#452c25" d="m264 206 2 4-3-3zm3-1 1 3-3-2zm-6 2 2 4-3-3zm13-6 3 3q-3 0-5-3z"/><path fill="#452c25" d="m272 201 2 2 2 2-4-2zm8 0 8 5-11-4c-2-1 2-1 2-1"/><path fill="#452c25" d="m280 203 6 4q-3 0-8-3l-4-3h3zm-17 4 1 3-2-1zm1 6v4c-2 1-2-3-2-4z"/><path fill="#452c25" d="m258 207 5-2h1l1-1s0-5 4-4l13 1 7 2 14 6v1l-16-7v1l-4-2h-3l-2-1h-6 1-2l-1 1h-1l-2 3-2 1-1 1-2 1h-3zm5 10v4q-1 1-2-2l1-3z"/><path fill="#452c25" d="m264 215-1-2-1-2-1-2-1-2-2-1h-5l-3 1v7l1 4v1l1 1q0 1 0 0l1 1v1l1 2v-1 1h1v1l1-2 1-1v-1l2 2v1l1-1v1l1 1v-1l1-2 1-1v-3h1z"/><path d="m261 211 1 2zm1 1 1 2zm1 2-1 2zm0 2v1zm-1-2v1zm-1 2 1 1z"/><path fill="#452c25" d="M246 207v4q2 0 2-3-1-2-2-1"/><path fill="none" d="M246 207v4q2 0 2-3-1-2-2-1"/><path fill="#452c25" d="m248 207-2 3 3-2z"/><path fill="none" d="m248 207-2 3 3-2z"/><path fill="#452c25" d="m219 208-4 2c-1 1 11-1 17-5l-3-2z"/><path fill="none" d="m219 208-4 2c-1 1 11-1 17-5l-3-2z"/><path fill="#452c25" d="M223 208s-7 3-2 3c0 0 9-2 14-6l-1-2z"/><path fill="none" d="M223 208s-7 3-2 3c0 0 9-2 14-6l-1-2z"/><path fill="#452c25" d="m232 202-6 4 9-3 3-2-3-1z"/><path fill="none" d="m232 202-6 4 9-3 3-2-3-1z"/><path fill="#452c25" d="m230 209-2 3 9-4-1-2z"/><path fill="none" d="m230 209-2 3 9-4-1-2z"/><path fill="#452c25" d="m226 209-2 2s2 2 11-4l1-1-2-2z"/><path fill="none" d="m226 209-2 2s2 2 11-4l1-1-2-2z"/><path fill="#452c25" d="m224 202-15 8 19-8m12 12-1 3 4-2c2-3-2-3-2-3z"/><path fill="none" d="m240 214-1 3 4-2c2-4-2-3-2-3z"/><path fill="#452c25" d="m242 216-1 2q1 1 4-2c3-3-1-1-1-1zm-4-4-2 3q2 1 6-3 1-1 0 0l-1-2z"/><path fill="none" d="m242 216-1 2q1 1 4-2c3-3-1-1-1-1zm-4-4-2 3q2 1 6-3 1-1 0 0l-1-2z"/><path fill="#452c25" d="m236 210-2 4q1 1 6-3 2-4 0-4z"/><path fill="none" d="m236 210-2 4q1 1 6-3 2-4 0-4z"/><path fill="#452c25" d="m232 211-2 2s1 1 6-2l5-3-3-1z"/><path fill="none" d="m232 210-2 2s1 2 6-1l5-3-3-1z"/><path fill="#452c25" d="m216 207-4 2 2 1a42 42 0 0 0 17-8l-2-1z"/><path fill="none" d="m216 207-4 2 2 1a42 42 0 0 0 17-8l-2-1z"/><path fill="#452c25" d="m210 210 7-2 2-1s-2 3 5-2c7-4 0 0 0 0l8-4v-1l-16 7z"/><path fill="none" d="m224 205 8-4v-1l-16 7-6 2 7-1 2-1s-1 2 5-2"/><path fill="#452c25" d="M244 215v4l3-3q-1-2-3-2z"/><path fill="none" d="M244 215v4l3-3q-1-2-3-2z"/><path fill="#452c25" d="M246 217v3l3-2v-1l-2-2z"/><path fill="none" d="M246 217v3l3-2v-1l-2-2z"/><path fill="#452c25" d="m247 212-1 5 3-4z"/><path fill="none" d="m247 212-1 5 3-4z"/><path fill="#452c25" d="M247 212v5l2-5z"/><path fill="none" d="M247 212v5l2-5z"/><path fill="#452c25" d="M248 213v4c1 1 2-4 2-5z"/><path fill="none" d="M248 213v4c1 1 2-4 2-5z"/><path fill="#452c25" d="m244 212-1 3q2 0 3-3zm-9-7-3 2q3 1 6-1l2-2-3-1z"/><path fill="none" d="m238 202-2 2 5-2v-1z"/><path fill="#452c25" d="M240 202s-3 2-2 3l5-4zm-1-1-6 2-4 3q2 1 7-2l5-3m-1 3-5 5 8-4"/><path fill="#452c25" d="m241 205-3 6 4-3 2-3"/><path fill="#452c25" d="m243 206-3 7q1 1 3-3 2-3 1-4z"/><path fill="#452c25" d="M245 206s-4 8-3 9l5-7zm-8-5-3 2 4-2z"/><path fill="#452c25" d="m237 201-2 2q3 1 5-2zm5 0-2 4q3 0 4-3z"/><path fill="#452c25" d="m243 202-2 4h1l2-3zm1 1-2 4q2 1 3-2zm1 2-1 3 2-1zm0 7v4l2-4z"/><path fill="#452c25" d="M251 207h-1l-3-2q-1 0 0 0l-1-3-2-3h-13l-12 5 12-3 3-1s-3 2 0 1h8l2 3 3 3 2 1h1z"/><path fill="#452c25" d="m233 201-9 4 11-4-2-1"/><path d="M251 214v1zm1-7h1zm2 0h1zm-3 7"/><path fill="#bd8759" d="m252 228-1 1v1h1l1-1 1-1 1 1h1v-1l-1-1h-1l1-3-1-2v3zl-3 1-1 1v1l1-1q0 1 0 0h2"/><path fill="none" d="m252 228-1 1v1h1l1-1 1-1 1 1h1v-1l-1-1h-1l1-3-1-2v3zl-3 1-1 1v1l1-1q0 1 0 0h2"/><path fill="#bd8759" d="M259 223v4h-2v1h2v1l1 2v-1l1 1v-2l-1-1 2 1h1l-1-1-1-1-1-1v-3z"/><path fill="none" d="M259 223v4h-2v1h2v1l1 2v-1l1 1v-2l-1-1 2 1h1l-1-1-1-1-1-1v-3z"/><path fill="#dcddde" d="M251 211v-2l2-1 1-1h2l1 1h1v1l1 2v2l-1 2h-1l-1 1v-1h-1l-2 1-1-1v-1l-1-1z"/><path fill="#d9c0b9" d="m249 229-1 1z"/><path fill="none" d="m249 229-1 1z"/><path fill="#d9c0b9" d="M251 230v2l1-2z"/><path fill="none" d="M251 230v2l1-2z"/><path fill="#d9c0b9" d="M260 230v1z"/><path fill="none" d="M260 230v1z"/><path fill="#d9c0b9" d="m262 229 1 1z"/><path fill="none" d="m262 229 1 1z"/><path d="m259 209 1 1zm1 4v1zm2 5v2zm0 1v1zm-11-3 1 1zm1 2v1zm2 3v1zm0-4h1zm0 2h1zm3 2v-1zm2 0v1zm-8-5v1z"/><path fill="#fff" d="m255 209 3-1zm3 1h-2zm-3 1 1 4zm-1 1v3zm2-1 2 2zm-1 2v2zm1 0 2 2zm-3-4-1-1zm-1 0h-1zm2 0v-2zm2 0h2zm1 2 2 1v-1zm-4 2v2zm3-1v3zm1 0 1 2v-1zm0 1v2zm-1-3 3 1zm-1-1 1-1v-1zm-1 0-1-2zm-1 1-1-2zm-1-1h-1zm3 3-1 2v1z"/><path fill="#fff" d="m255 212 1 2zm1-1 2 1zm-2-1v-2zm-1-1-1-1v1zm1 4-1 1v1zm2-4 2-1zm-3 4v2zm1 0v2zm2-1 1 2zm0 0 2 2v-1zm1-1 1 1h1v1-1l-1-1zm-1-2 2-1zm-2 0v-1zm-2 5v1zm2 0v1zm-1-1h-1v1zm2-1h1zm-1-4 1 1zm0 1v-1zm3 3h1zm-1 2s0 1 0 0m-1-1v1s0 1 0 0zm0 0v2zm1-3h-1zm-1 1h1q1 0 0 0zm-1-1v-1zm-3-1h1l1 1-1-1zm2 7v-2q0-1 0 0zm1-2 1 1zm1-1 1 2v-1zm1-5v2zm-2 1h-1z"/><path fill="#dba05f" d="m254 209-2 1h-5l-1 1-1 1 1 1h6l4-1v-2z"/><path fill="none" d="m254 209-2 1h-5l-1 1-1 1 1 1h6l4-1v-2z"/><path d="M247 211h1zh1z"/><path fill="none" d="M247 211h1m-1 0"/><path fill="#c6262c" d="M248 210v-1h-3v1l-1 1h1l1-1z"/><path fill="none" d="M248 210v-1h-3v1l-1 1h1l1-1z"/><path fill="#d9c0b9" d="M244 214s-1-2 1-2h1l-2 1z"/><path fill="none" d="M244 214s-1-2 1-2h1l-2 1z"/><path fill="#d9c0b9" d="M244 213h2v-1l-1 1z"/><path fill="none" d="M244 213h2v-1l-1 1z"/><path fill="#7a2e26" d="M247 213h1zm2 0 1-1zm7-2v-1zm-3 2"/><path fill="#842116" d="m246 209 2 1v-1z"/><path fill="#dcddde" d="m250 208-3-1q-4-2-3-3l-2-2h-4l-2-1h-2c-3 1 0 0 0 0h-3l-3 1-3 1-7 3-6 2 8-4 11-4h13l2 3 1 2v1zh1l1-1h4l2 1 4-2h1l1-1s0-5 5-4l12 1 12 4 5 2 4 3-4-2-3-1-4-2-5-2 1 1-5-1-3-1h-2l-5-1h-1l1 1-2-1-1 1h-1l-2 3-3 1-1 1h-11z"/><path fill="#e7e7e7" d="m250 208-3-1q-4-2-3-3l-2-2h-4l-2-1h-2c-3 1 0 0 0 0h-3l-3 1-3 1-7 3-6 2 8-4 11-4h13l2 3 1 2v1zh1l1-1h4l2 1 4-2h1l1-1s0-5 5-4l12 1 12 4 5 2 4 3-4-2-3-1-4-2-5-2 1 1-5-1-3-1h-2l-5-1h-1l1 1-2-1-1 1h-1l-2 3-3 1-1 1h-11z"/><path fill="#574f4c" d="M260 207s0 1 0 0"/></svg>