<svg xmlns="http://www.w3.org/2000/svg" viewBox="0 0 512 512"><path fill="#229e45" fill-rule="evenodd" d="M0 0h512v512H0z"/><path fill="#f8e509" fill-rule="evenodd" d="m261 405 230-149-231-149L29 257z"/><path fill="#2b49a3" fill-rule="evenodd" d="M362 256a97 97 0 1 1-195 0 97 97 0 0 1 195 0"/><path fill="#ffffef" fill-rule="evenodd" d="m232 314-3-2-3 2 1-3-2-3h3l2-4 1 4h3l-2 3m66 20-3-2-4 2 1-4-2-2 3-1 2-3 1 3 4 1-3 2m-28-23-2-1-3 1 1-3-2-2h3l1-3 1 3h3l-2 2m66-6-2-2-3 2 1-3-2-2 2-1 2-2 1 2 3 1-2 2m-67-17-3-2-3 2 1-4-3-2h4l1-4 2 4h3l-2 3m-80-27-3-2-3 2 1-4-3-2 4-1 1-3 2 3 3 1-2 2m10 44-3-2-3 2v-4l-2-2 3-1 2-3 1 4h4l-3 3m101-52-3-1-3 1 1-3-2-2 3-1 1-2 2 3h3l-3 2m-5 29-2-1-2 1v-2l-1-2h2l1-3 1 3h3l-2 2m-109 38-2-1-2 1 1-2-2-2h2l1-2 1 2h3l-2 2m153 11h-4l1-1-2-2h2l1-1 1 1 2 1-2 1"/><path fill="#ffffef" fill-rule="evenodd" d="m184 292-2-1-3 1 1-2-2-2h3l1-2 1 2h2l-2 2"/><path fill="#ffffef" fill-rule="evenodd" d="m184 292-2-1-3 1 1-2-2-2h3l1-2 1 2h2l-2 2m32 2-2-1-2 1 1-2-2-2h3l1-2 1 2h2l-2 2m-4 13-2-1-2 1 1-2-2-2h3l1-2 1 2h2l-2 2m67-17-2-2-2 1v-2l-1-2h2l1-2 1 2 2 1-2 1m-19 3-2-2-2 1 1-2-2-2h2l1-2 1 2 3 1-2 1m-52-4-2-1-1 1v-2l-1-1h2v-1l1 1h1l-1 1m128 35-2-1-2 1 1-2-2-2h2l1-2 1 2h3l-2 2m-16 4-2-1-1 1v-2l-1-1 2-1v-1l1 2h2l-1 1m8 2-2-1-2 1 1-2-1-1h1l1-2 1 2h2l-2 1m23-17-2-1-2 1 1-2-1-1h1l1-2 1 2h2l-2 1m-29 32-2-1-2 1 1-2-2-2h2l1-2 1 2h2l-1 2m0 11-2-1h-2l1-2-2-1 2-1 1-1 1 2h2l-1 1m-15-17-1-1-2 1 1-2-2-1h2l1-2 1 2h1l-1 1m-14 2-1-1-2 1 1-2-1-1h1l1-2 1 2h1l-1 1m-23-19-1-1-2 1v-1l-1-2h2l1-1v1l2 1-1 1m3 43-2-1-1 1v-1l-1-1 2-1v-1l1 1 1 1-1 1m-35-66-3-2-3 1 1-3-3-3h4l1-3 2 3 3 1-2 2"/><path fill="#fff" fill-rule="evenodd" d="m355 291 5-15c-52-46-110-69-182-64l-7 16a233 233 0 0 1 184 63"/><path fill="#309e3a" d="m332 265 2 1-1 2 2 1 1 1 1-1v-1l-1-1-2-3 2-3h2l2 1 2 2-1 3-2-1 1-2-1-1h-2l-1 1 2 1 1 2v4l-1 1h-2l-2-1-2-3zm-9-5 2 1v1l1 2h2l1-1-1-1-1-1-1-3v-2l1-1h2l2 1 2 2-1 3-1-2v-1l-1-1h-2v1l1 1 1 2v4l-3 1-2-1-2-2zm-11-3 6-9 7 4-1 1-5-3-1 2 4 3-1 2-4-3-2 2 5 3-1 2zm-15-13v-2l4 2-1 4-5-1-2-2-1-2 1-3 2-2 2-1 3 1 2 2v2h-2v-2l-1-1h-3l-2 2v3l2 2h2l1-1zm-69-17 1-11 4 1v7l3-7 3 1-1 10h-2l1-8-3 8-2-1-1-8-1 8zm-11-2 1-10 8 1v1h-6v2l5 1v1h-5l-1 3h6v2zm-36-6 1-3 1-1 1-1 3-1 3 2 2 4-2 4-4 1-3-1z"/><path fill="#f7ffff" d="M184 219v3l2 1 3-1v-6l-2-1-3 1z"/><path fill="#309e3a" d="M194 224v-10h7l1 1 1 2-1 2-2 1 1 1 1 1 2 2h-3l-1-2-2-1v-1h-2v4z"/><path fill="#fff" d="M196 218h4l1-1-1-1h-4z"/><path fill="#309e3a" d="M206 214h4l2 1 2 1 1 2v2l-2 4-1 1h-6z"/><path fill="#fff" d="M208 216v7h4v-1l1-2-1-2v-1l-1-1h-2z"/><path fill="#309e3a" d="m259 233 2-10 3 1 3 1 1 1v2l-2 2-1 1-2-1h-1l-1 4z"/><path fill="#fff" d="m263 225-1 3h1l2 1 1-1v-2h-1z"/><path fill="#309e3a" d="m268 236 4-10 4 2 2 1 1 1v2l-1 2h-3l1 1 1 2v2h-2l-1-3v-2l-1-1h-1l-2 4z"/><path fill="#fff" d="m272 231 2 1h2l1-1v-1h-1l-1-1h-2z"/><path fill="#309e3a" d="m281 236 1-3 1-1h4l4 3v4l-3 3-4 1-3-3z"/><path fill="#fff" d="M283 237v2l2 2h2l2-3v-3l-2-1h-2z"/><path fill="#309e3a" d="m302 251 5-10 4 2 2 2v3l-2 1h-2l1 2v4l-2-1v-3l-1-2-1-1-2 4z"/><path fill="#fff" d="m306 246 2 1 2 1 1-2-1-1h-1l-1-1z"/><path fill="#309e3a" d="m341 270 2-2h3l3 1 2 3-1 4-4 3-4-1-2-4z"/><path fill="#fff" d="m343 271-1 3 1 2 3 1 2-2 1-3-1-2h-3z"/><path fill="#309e3a" d="m246 229 2-8 6 2-1 1-4-1v2l4 1-1 1-3-1-1 2 4 1v1z"/></svg>