<svg xmlns="http://www.w3.org/2000/svg" xmlns:xlink="http://www.w3.org/1999/xlink" viewBox="0 0 512 512"><defs><radialGradient id="bz-a"><stop offset="0" stop-color="#ffef5d"/><stop offset="1" stop-color="#ea5700"/></radialGradient><radialGradient id="bz-b"><stop offset="0" stop-color="#952d1a"/><stop offset="1" stop-color="#570a00"/></radialGradient><radialGradient xlink:href="#bz-a" id="bz-c" cx="247" cy="238" r="36" fx="247" fy="238" gradientTransform="scale(1.22624 .8155)" gradientUnits="userSpaceOnUse"/><radialGradient xlink:href="#bz-a" id="bz-d" cx="322" cy="153" r="11" fx="322" fy="153" gradientTransform="scale(.93615 1.06821)" gradientUnits="userSpaceOnUse"/><radialGradient xlink:href="#bz-b" id="bz-e" cx="364" cy="238" r="36" fx="364" fy="238" gradientTransform="scale(1.2242 .81686)" gradientUnits="userSpaceOnUse"/><radialGradient xlink:href="#bz-b" id="bz-f" cx="468" cy="156" r="11" fx="468" fy="156" gradientTransform="scale(.95596 1.04607)" gradientUnits="userSpaceOnUse"/></defs><path fill="#ce1126" d="M0 0h512v512H0z"/><path fill="#003f87" d="M0 37h512v438H0z"/><circle cx="256" cy="256" r="201" fill="#fff"/><circle cx="256" cy="255" r="167" fill="none" stroke="#552300" stroke-width="4"/><path fill="#007f00" d="M237 78c15-16 28 3 28 11 0 9-16 28-29 13 14 3 18-12 25-13-7 1-10-15-24-11M80 205c-8-21 15-24 22-20 8 4 19 26-1 31 9-11-3-22 0-28-3 6-19 2-21 17m338-20c21 8 8 27 0 30-9 3-32-4-23-23 2 15 19 13 21 20-2-7 11-15 2-27M148 403c-22-3-15-25-8-30s32-4 28 16c-6-13-21-7-26-13 5 6-6 18 6 27m223-16c1 22-22 17-28 11-6-7-8-31 13-29-13 7-5 21-10 26 5-5 18 5 25-8M96 163c-2-22 21-19 27-13 7 6 11 30-10 30 12-8 3-22 8-28-5 6-19-3-25 11m23 206c-21-4-13-25-6-30s33-2 27 18c-5-14-20-9-24-15 4 6-8 17 4 27M293 79c21-10 27 12 23 20-3 8-25 21-32 2 12 8 22-5 29-3-7-2-4-18-19-19zm43 335c-10 20-28 6-30-3-3-8 7-31 24-20-15 1-14 17-21 19 7-2 14 13 27 4m97-190c16 14-2 28-11 28s-29-14-13-29c-4 15 12 18 13 26-1-8 15-11 11-25M151 108c5-22 26-12 30-5 4 8 1 32-19 26 14-4 10-20 16-24-6 4-16-8-27 3M85 292c-19-11-4-29 5-30 8-2 31 8 19 25 0-15-17-15-18-22 1 7-13 14-6 27m281-171c22-3 21 20 15 27-5 6-30 12-30-9 8 12 22 2 28 7-6-5 2-19-12-25M241 435c-20 9-25-13-21-21s25-20 32 0c-12-9-22 4-29 1 7 3 3 19 19 20zm182-123c10 20-13 26-21 22s-20-25 0-32c-9 12 4 22 1 29 3-7 19-4 20-19M76 248c-12-18 9-28 18-25 8 2 24 21 6 31 6-13-8-21-7-28-1 7-18 7-17 22m120 174c-20 8-24-15-20-23 5-8 27-18 32 2-11-10-22 3-28 0 6 3 1 18 16 21m-6-335c13-18 29-2 30 7s-11 30-27 17c15 1 17-15 24-17-7 2-13-14-27-7m214 269c1 22-22 19-28 13-6-7-10-31 11-30-12 8-4 22-8 27 4-5 18 3 25-10m-6-207c22 4 13 25 5 29-7 5-32 2-26-18 5 14 20 9 24 15-4-6 8-16-3-26m-276-16c1-22 23-17 29-11s7 32-13 29c13-7 5-21 10-26-5 5-18-5-26 8M95 332c-20-10-5-28 3-31 9-1 32 8 20 25 0-14-17-14-19-21 2 7-12 14-4 27M333 97c21-8 24 15 20 23-4 7-26 18-32-2 11 9 22-3 29 0-7-3-2-18-17-21m-44 336c-16 15-29-5-28-13 1-9 18-27 30-11-14-4-19 11-26 11 7 0 9 16 24 13m141-169c15 16-4 29-13 28s-27-18-11-30c-4 13 11 19 11 26 0-7 17-9 13-24"/><path fill="#005800" d="M236 102c14 4 18-12 25-12-4 5-15 18-25 12m1-24c15-16 28 3 28 11-12-21-16-18-28-11M101 216c10-11-3-21 0-27 3 6 9 21 0 27m-21-11c-8-21 15-24 23-20-25 1-24 6-23 20m315-13c2 15 18 12 21 19-6-2-22-8-21-19m23-7c21 8 8 27 0 30 15-19 11-21 0-30M168 389c-6-13-21-7-25-12 6 0 23 1 25 12m-20 14c-22-3-15-25-8-30-10 23-5 24 8 30m207-34c-12 7-4 21-9 26-1-7-2-24 9-26m16 18c1 22-22 17-28 11 24 7 24 2 28-11M113 180c12-8 3-22 8-27 1 6 3 23-8 27m-17-17c-2-22 21-19 27-13-24-6-24-1-27 13m44 194c-4-14-20-9-24-14 7 0 24 2 24 14m-20 12c-22-4-14-25-6-30-12 22-7 24 6 30m163-268c12 8 21-5 28-3-6 4-21 12-28 3m10-22c19-10 26 13 22 21-4-25-9-23-22-21m36 312c-15 1-14 17-21 19 3-6 10-21 21-19m6 23c-10 20-28 6-31-3 18 17 21 13 31 3m72-191c-3 15 13 18 13 25-5-4-18-15-13-25m24 1c17 14-1 28-10 28 21-13 17-16 10-28m-269-95c14-4 9-20 16-23-2 6-5 23-16 23m-11-21c5-22 26-12 30-5-21-12-23-7-30 5m-42 179c0-15-16-14-18-21 6 2 21 10 18 21m-24 5c-19-11-4-29 4-30-18 17-13 19-4 30m266-153c8 12 21 2 27 6-7 2-23 5-27-6m15-18c22-3 21 20 15 27 4-24-1-24-15-27M252 414c-12-9-22 4-28 1 6-3 21-10 28-1m-11 21c-20 9-25-13-21-21 3 24 7 23 21 21m161-133c-9 12 4 21 1 28-3-6-10-21-1-28m21 10c9 20-13 26-21 22 24-3 23-8 21-22m-323-58c6-13-9-20-7-27 4 5 14 18 7 27m-24-6c-12-18 9-28 17-25-23 7-21 11-17 25m132 153c-11-10-21 3-28 0 6-3 22-9 28 0m-12 21c-21 8-24-15-20-23 1 25 6 23 20 23m-3-311c15 1 16-15 23-16-4 5-12 20-23 16m-3-24c13-18 29-2 30 7-15-19-19-16-30-7m197 252c-12 8-3 21-8 26-1-6-3-23 8-26m17 17c1 22-22 19-28 13 24 6 24 1 28-13m-27-196c4 14 20 9 24 15-7-1-24-4-24-15m21-11c22 4 13 25 5 29 12-21 7-23-5-30m-260 2c13-7 5-21 10-26 0 7 1 24-10 26m-16-18c1-22 23-17 29-11-23-7-24-2-29 11m-4 193c0-15-16-14-18-20 6 2 21 9 18 20m-23 6c-20-10-5-28 3-31-17 18-13 21-3 31m226-214c11 9 22-3 28 0-6 3-21 9-28 0m12-21c21-8 25 15 20 23-1-25-6-24-20-23m-42 312c-14-4-18 11-25 11 4-5 16-17 25-11m-2 24c-16 15-29-4-28-13 11 22 15 19 28 13m118-171c-5 13 10 18 10 25-5-4-17-16-10-25m23 2c15 16-4 29-13 28 22-11 19-15 13-28"/><g fill="#730000" stroke="#000"><path d="M287 128h2l1 4-2 1s1-1-1-5zm-9 33-1-4h2v4h-2m29-6-4 3 2 1 5-3-3-1m-53 16-1 3-3 3 1 4q2 5 2 15l-1 8 3 4 1-2c2-3 0-24 0-30l-3-9-1-2q-4-5-4-15s-5 1-9-9c-2-5-6-4-10-6l2-1 5 2c2 0 1-4 1-4l2-2v8c0 3 5 8 7 9q4 1 4-6v-8l2 2-1 2q2 1 3-2l1 1-3 4-1 8 1 8 4 8 1 4q3 3 2 5 2 1 2 8l1 7q0 3 5-1 3-5 2-6 0-2 2-1l1 2q-2 4 1 3l7-4h3l-1 2 3-1-7 4-9 5c-2 1-7 3-7 6v11l-1 11h-11s2-8 0-10l-11-12c-3-2 2 0 2 0v-3l5 7s9-8 0-19l-8-9h-7c-4 1-13 1-17-5h3l3-2s-1 4 7 4 9 0 8-7l2-1 2 2-1 5 6 5 2 1 3-2 3-3 1-2z"/><path d="m255 165 2-3 4-6q3-4 2-8h1v5l3-3 1 1s-6 6-12 17zm-55-21 4 6h2l-4-7-2 1m10-3-1 8 2-1 1-6zm55-17 1 12h2l1-2 8-4-1-2-4 3q-2 2-3 1-3 0-2-6l-2-2m22 35v8h1l1-6-2-2m8 4s-2 4-4 4l3-1 3-2-2-1"/></g><g fill="#289400" stroke="#030"><path d="M263 148h1l2 1 3 2q1 2 1 0l1 4h1v3l2-2 2 2 3-1 1-1q-8-4-6-8c3-5 7-2 9-1l20 11v-2l-1-4 4 3 4 1v-1l3 3 1-2 4 3 1-1 2-5 2-2 2-1-1-2-2-1 2-2h1l-4-3-3-3h1l-3-3 2-1-4-1 1-1-4-1-2-2-1 1-3-1 1 2-3-1-1-4-2 2-1-1-2 2-1-3-1 2v-2l-3 3-1 3h-2v1l-2 1h1-3l1 1s-3 1-3-2h-3l-1 1-2-1v2q1-1-2-2v1l-1-3-1 3-1 1v-1l-2 1v-2q-1-1-2 2h-3l1 2h-3l1 1h-3c-2 0 1 1 1 1h-3v1l-4-1 2 2-3 2 2 1-1 1 1 1-2 2h3v-1 1l2-2v1l2-1z"/><path d="M261 115v-2h5l1-2 3 2 7-1-1 3 6 1-1 1 7 2q4 3 2 3l2 5-5 1-2-1v3l-4-2-1 2-5-3s-2 0-2 2l-3-4-3 1-2-2v2l-2-2-2-2-2 2-1-3h-4q-1-2 3-5zm-20 14-2 2-1-1-2 3-1-1-1 1h-1l-1 1h-2l-2 1v-1l-2 2-1-1-1 1-1-1-1 1v-1h-1l1-2-1-2 1-1h-2l2-3v-3l3-2v-2l3-2 1-3 5 1 1-2 4 1 3-2 3 3h3v4l5 1v4l4-1v4l6 2-2 2 1 4-1 1-3-2-1 2-2-1h-1l-1-1v-1l-2 1-2-2v-2l-3 2v-2l-1 2-1-3v2s-3-1-3-3z"/><path d="m208 140 4 3v-3l2 1v-3c-1 0 4-2 5 1 0 0 2-3-3-5q-1-1 3-2l-1-1h3l-5-2-1-1v-3h-6l-1-2-2 1-4 2-2-1-1 3h-2l1 1h-4l1 3-3 1 1 1-4 1 1 1-1 2h1l-3 1h2l-1 1 2 1-2 6 3-3-2 3 4-2 1-1v2l1-3 3 1v-1l2 1 1-1h2l-1 2 2-2h1l1-3zm-15 14 2 4-3 2q-1 6-2 5v3l8-5v-1l10-4h1l2-1 3 5-2 1 2 5 2-1 3-1v1l3-1 1 1 4-2 2 1v-3h3l2 1 2-2 2 2 4 1 1-2 4 1-2-4 2-2h-2l1-3h-1l-2-1 1-3-8-2 2-2-2-1-5-1-2-2-3 2h-1l-3 1-2-3-4 4-1 1q-2-3-4-2l-2 2-3 1-3 2h-4l-1 2zm47 43v-3l3 2 1-2 2 2 1-2v3l3-2 2 1v-3s2-3 1-4h2l-4-3-2-1-4-3-2 1-2-2-2 1-2-2v2l-5-2v2l-4-2v2h-3v1l-4 1 1 1-3-1v2l-3 1 1 1-5 3 1 1h-4l2 1-4 4 2 2-1 2 4 1 2 3 3-1v4l5-4 4 2v-4h2v-3l1 2 3-4 3 4 2-5zm21-13-1-5-1 2v-5h-2l1-5h-2l1-3 1-1 3-3h7l1-2 5 1q3 0 4-2h1l1 2 5 1-2 3h9l3-1 1 2h3l-1 1 4 2-1 1 4 1h1v2l4 4 2 1q1 1-2 3v3l-3 3-2-1-1 3-5-5q-2 0-1 2l-4-3-1 2-3-3-2 2-4-4h-3l1-1h-4l-1-4v3l-3-2-3 4-1-2c0-2-2 2-2 2l-1-3-2 3-2-3zm0 11 1-2 6-2 5-2 2-1 1 2 2-3 2 3 1-1 2 1h2v2h5v2l4 1 1 4 2 6c-1 2-3-2-3-2v4c-1 1-6-1-6-1l-2 4-3-3-1 3-5-5c-1-2-2 1-2 1l-2-4-2-3-6 5v-3q-3 0-4 2z"/></g><g fill="none" stroke="#004b00"><path d="M289 133v2h3v2h3v2l3 1-3 2 5 3-3 2 1 2-3-1 1 3-4 1m15-6v-5l4 3c2 0 0-4 0-4l4 2-1-3h3m-48-16-1-2c-2-3 3 3 4 3m5 0 2 1-1-4 4 2q3-1 2-2l5 1m-27-1-1-3m-25 14v-3h2v-2h1l2-2 1 2 1-2 2 1 1-1h2l1-2m-21 11v-4m-25 11v-5l2 1m10 0q-1-2-4-2m-17 9v-4m27 55 1-3 2 4 1-2 1 1 2-3 3 4m43-17 2-4 2 1 2-3 2 1 1-3 3 1 1-2 2 2v-3l2 1s2-2 0-3"/><path d="m281 174 3 4 2-3 2 4 2-1 3 2 2-1 4 2 1-3 4 1 2-4m-90-10 1-3 3 2v-4l4 4v-5l5 1 1-2 4 2v-4l3 1-1-3 3 1v-4m32 48 3-1 2 2 2-3 3 2v-2l3 1 1-2 3 2v-2h2v-2"/></g><path fill="#9dd7ff" d="m217 318-7-14 45-40 45 40-6 14v1l-4-1-2 1-3-1-4 1-3-1-4 1-2-1-3 1-3-1-4 1-4-1-3 1-4-1-4 1-4-2-5 1-3-1-4 1-3-1-4 1-4-1z"/><path fill="#fff" stroke="#000" d="M255 219v45l-45 40a90 90 0 0 1-4-29v-56h49"/><path fill="#ffd83c" stroke="#000" d="M255 219v45l45 40a90 90 0 0 0 5-29v-56h-50"/><g stroke="#000"><path fill="#730000" d="m226 309 10 3q7 3 22 3l16-1 3-2-7 7s-28 1-33-2z"/><path fill="none" d="M268 295s9 5 0 15m-41-1 13-12-1 16m6 2v-28m22 28v-30m-11 30v-31"/><path fill="#ff0018" d="m245 289-5 2h5v-2m11-5-6 3h6v-3m12 2-7 2 7 1zm3 13 4-1v7l-4-1z"/><g fill="#fff"><path d="m229 307 11-10v6s-6 4-6 6l-5-2m6 3s1-4 4-5v6zm16-19h7l1 5s-7-1-9 1q-1-1 1-6zm-10 1h8v6s-5-3-8 0z"/><path d="M241 298h8v5s-6-1-9 1q-1-2 1-6zm9-1h10q-2 2 0 6s-7-2-10 0zm-10 7 9 1v7s-7-2-9 1c0 0-2-6 0-9zm10 0h11v9s-9-3-11 0c0 0-2-6 0-9zm12-13h8v5s-7-1-9 1q-1-1 1-6zm0 6h8v6s-7-2-9 0q-1-1 1-6zm0 7h8v7s-6-2-8 0z"/><path d="M271 304s2 5 4 6l-3 3s-3-2-3-5z"/></g></g><g stroke="#000"><path fill="#006ac8" stroke="none" d="M294 319q-10 19-39 30a72 72 0 0 1-38-31l3-1 4 1 4-1 3 1 4-1 3 1 5-1 4 2 4-1 5 1 3-2q0 2 3 2l4-1 3 1 3-1 2 1 4-2 3 2 4-1 3 1 2-2z"/><path fill="none" d="m292 321-2-1-4 2-3-2-4 2-2-2-3 2-4-2-4 2-3-2-5 1-4-1-3 1-5-1-4 1-4-1-4 1-3-1-4 1-4-2-4 2"/><path fill="#5ac800" d="m227 326-3 1q5 8 12 12 6 5 20 10l19-10 13-12-4 1-2-1-3 1-4-1-4 1-4-2-5 2-3-2-4 2-4-2-5 1-3-1-4 1-3-1-5 1z"/><path fill="#ffd800" d="m256 349 18-10q-3 1-3-1l-3 1-4-1-5 1-4-1-4 1-2-1-5 1-4-2-4 2a57 57 0 0 0 20 10z"/></g><g stroke="#000"><path fill="#b34b00" d="M249 266q3-3 2-5h-3l-3-2-3-3-10-11-2-6-15-15q-1-2-5 0-3 3 0 7l14 12 6 3 14 15q3 2 2 3v3h2z"/><path fill="none" d="m214 228 14 14"/><path fill="#fff" d="m233 235 2-3s4-7 6-7l12 9-6 8z"/><path fill="#ccb8c8" stroke="none" d="m241 237-6-4-1 2 12 6z"/><path fill="none" stroke="none" d="m235 233 5 3 7 5"/><path fill="#782121" d="m210 270 28-34q2 0 3 2l-26 35s-3 0-5-3z"/><path fill="#730000" d="m302 270-3 1-6-7-27-33 3-3 24 29 9 10q1 1-1 3z"/><path fill="#fff" d="m275 235-4-5s-3 0-4 2c0 0-2 4-9 4 0 0 2 8 9 12 0 0 3-8 6-9z"/><path fill="#730000" d="m264 258-2 1-2-1 2-2h5l-3 2m30-29v-3q2-2-1-1-2 0-1 5z"/><path fill="#fff" d="m264 259 31-31 7 8h-2l1 2h-2v2h-2v2h-2v2h-3l1 2h-3v3l-2-1v3h-3v2h-2l1 2h-3v2h-2v2h-2v2h-2v2h-2v2h-2l1 2-2-1z"/><path fill="#7e4b7e" stroke="none" d="m293 231-3 2 1 8 1-1 1-1zm-5 4-1 2v8s1-3 2-1l-1-2zm-18 19-2 1 1 5s0-3 1 0v-3z"/><g fill="none" stroke="#7e4b7e"><path d="m268 233 4 5m-3-3-1 4m2-3-2 3m2-3-1 2m1-1v1m-3-3-5 3m4-2-4 2m3-1-2 2m2 0-2 1"/><path stroke-linecap="square" d="m247 240 1-3 2-3"/></g></g><path fill="#289400" stroke="#060" d="m146 324 1-8c0-2 5 6 7 7s16-5 16-5l3-7 2 5 5-6c2-2 0 3-1 5s4 2 3 6 5-2 5-2l12 1 6-13 1 5 5-5a70 70 0 0 0 44 42 71 71 0 0 0 43-39l8 7 6-2 17 6v-4s6 1 6 5l2-4c1-1 4 3 5 4l15 4 2 3 5-1-2 3-2 4q-2 1 2 1 3 3-5 5-1 1 1 4l-4-1-2 4-5-2q-2 0 0 2s-8-1-9-3l-3 1-7-3-1 2-5-3v2l-5-3-2 3-5-3q-2 0-2 2l-4-2-1 4-8-2v3l-5-3-1 3-4-1-3 3h-4l-1 3s-6-2-7-1v3l-6-1v3s-8-3-9-2q0 2-4 3-1 1 0 0l-2-3h-4c-1 0-6 3-7 2l-1-3-4 1-3-3c-1-3-3 0-3 0v-3h-4l-3-2h-7l2-2-10 2c-2-1 2-3 2-3l-9-2c-1-1-10 1-11 1l-1-2-4 2-1-3-5 2-1-3-4 5v-2l-4 4v-2l-12 4 1-3h-6l-4-1c-2 0 2-2 4-1 0 0-6-3-8-1q-1-1 3-4s-5-4-7-3l5-1-4-8z"/><path fill="#730000" stroke="#000" d="m138 201 75-39q1-2-2-5-30 18-65 31c-1 1-13 6-20 13l-2 5 1 4 1 2h2l2-2z"/><path fill="#fff" stroke="#000" d="m199 163 9-5s4 2 3 5c0 0 1 7 9 11 0 0-7 9-18 9 0 0 1-11-2-14q1-3-2-6z"/><path fill="none" stroke="#7e4b7e" d="m210 164-9 4m6-2v5m-1-5v5m-1-4v3m-1-3v2m6-2 5 7m-5-5 3 5m-3-3 2 4m-2-2 2 3"/><g stroke="#000"><path fill="#b34b00" d="m280 158 28 14 10 1 55 28q8 3 7 5 1 5 2 4 2 1 3-1h1l1-1q4-6 1-8c-3-2-3 1-6 1l-7-3-10-6-44-23-6-8-32-16q-5-3-9 3t6 10z"/><path fill="none" d="m282 152 31 16"/></g><g fill="#ffa54b" stroke="#000" transform="translate(-128)scale(1.024)"><path fill="url(#bz-c)" d="M310 165h-1l-1 5-3 3c-2 0-4 3-8 0h-1s1 4-3 6l-16 8v7l-1 1-3 6-3-3 1-4 1-6-3-2-1 1 1 2-1 3-9 5 2 2c0 1 1 10 4 15s4 3 4 4l2 2 5-1 3-5q5-3 6-7l2 13 16 2 12-2v-8l2 6q1 4 5 5 4 0 4-3v-6h9l5 1q2 0 0-2l3 1h4v-1l-4-3-5-1h-6l-6 2-1-1-1-11-1-5v-9q0-3-7-4-6-2-7-7l1-9"/><g fill="none"><path fill="url(#bz-d)" d="M292 154v9l2 7 3 3c3 3 7 0 8 0l3-3 1-4 1-1 1-3-2-2v-8q-7 3-15 2l-1-1-1 1"/><path fill="#000001" d="M292 155v-3l1-3 2-2h3l9-1 4 4 1 8q0 4-1 3-1-2-2 0v-8l-9 2-7-2-1 2"/><path fill="#fff" stroke="#fff" d="m295 152-1-4 2 4z"/><path d="m298 160-1 3m11 2h1m0-4q2 0 1 2m-18-5 3 1q2 1 0 4v3h2l1-1 1 1 1-2m0-4 1-1h5m-5 11h-5m0-1h5m-6 1h6"/><path fill="#fff" stroke="none" d="M292 160h4q0 2-2 2zm9 1 2-1 2 1h-2z"/><path fill="#000001" stroke="none" d="m294 161-1-1-1 1zm8 1 1-1-1-1z"/></g><g id="bz-g"><g fill="none"><path d="m346 214-2-2-2-1-2-1m0 3-1-1h-1l-2-1m-63-10q2 1 3 6l1 3m-13-8q0 4 6 13m-5-21v3m15 11 4-5m1 4-1-8v-8s2 7-3 9m34 12 1-6v-9q2-1 0-9s3 11-4 11c-8 0-7-3-7-3"/><path d="M284 191c0 2 0 8 9 8l8-3m2-3v-7m-14-3 9-1m0-6q0 4 4 6m5-7-1 4m0 3h9m1 22 4 7m-32-12q-2 3 0 9a12 12 0 0 1-1 12m6-19-2 4m6-1c0 1-2 8-4 10l3 7m7-21 1 2m3 1c1 1 5 6 4 9m-7-7-1 9m-2 0q-2 0-3 3m9-3q2-2 3 7m16-11-3 2-2 1"/></g><path fill="#000001" stroke-width="0" d="m290 198 1-1-1-1-1 1zm23 0 1-1h-2z"/><path fill="#fff" d="M281 240q3-13 5-15l10 1h19l1 4 2 34 1 12 3 40h-3s-14 1-14-1-1-27 1-42l-1-5-5-12-6 19-1 41-10 7c-1 1-9-3-9-4l5-33v-11c0-2 0-27 2-35z"/><path fill="none" d="m294 275-3 6m-3-54q0 3-7 11m14-10c-1 4-5 23-6 46m0 7-2 20m-1 4-3 18m33-36c-1 2-1 16 3 28m-18-86-1 18 2 3-2 6m-4-13-3 11m13-25h5l4 46m-11-42v16m2 2 1 4m-17-28 3 1m5 2-1 4m9 39 1 5"/><path fill="#9b5f00" d="m285 224 1-4 9 1h12l8-1v5l-8 1h-15z"/><path fill="#fff" d="m288 225 1-5h1l-1 5h-1m22-4v5h2l-1-5h-1m-15 0-1 5h1l1-5h-1"/><path d="m277 321-1 5q-1 3 1 4l1-3v4c2 0 3-4 3-4q-2 3 0 4c2 0 2-4 2-4v5c2 0 2-4 2-4s-1 5 2 4l2-3v-6l-1-3-5 3c-1 1-6-2-6-2zm30-5-1 3q-1 3 3 3h9l7 1 4-1h3l2-1q-1-2-3-2l-5-1-6-2z"/></g><g fill="none"><path fill="#ffb366" d="M256 190v-3l2-2 3-2 3-1 3 3v2q-1 1-1-1l-1 2h-1l-1 2-2-1v2h-2q-1-2-3-1z"/><path d="m266 186-4-3m2 5-1-2-4-1m2 4-1-1-4-1"/></g></g><g stroke="#000" transform="translate(-128)scale(1.024)"><path fill="url(#bz-e)" d="m439 165 1 1 1 4 1 2q4 3 10 2l1-1s-1 4 3 6l16 8v8l4 6 3-3-1-4-1-6 3-2 1 1q0 2-2 2l1 3 10 5-2 2c0 1-1 10-4 15l-4 4-2 1h-5l-3-5q-5-3-6-7l-2 13-16 2-12-2v-8l-2 6q-2 4-5 5-4 0-4-3v-6h-9l-5 1q-2 0-1-2h1l-3 1h-4v-1l4-3 5-1h6l6 2 1-1v-9l1-5-1-7q1-8 8-9 7-2 7-6v-9"/><g fill="none"><path fill="url(#bz-f)" d="m456 154 2 5-1 3q1 3-2 8l-3 4q-5 1-9-2l-2-2-1-4-1-1-1-3q0-2 2-2l-1-6 1-2q7 3 15 2l1-1v1"/><path fill="#000001" d="m457 155-1-4-2-3q-1-2-2-1h-6l-5 1-3 3-1 7 1 3h2l-1-4 1-5 9 2 7-1z"/><path d="m450 160 1 2m-10 3h-1m17-6h-4v4l1 2-2 1h-3v-2m0-4-2-1-5 1m12 9h-2l-2-1-2 1m6 0h-6m0 1h5"/><path fill="#fff" stroke="none" d="M456 160h-3q0 2 2 2zm-8 1-3-1-1 1h1z"/><path fill="#000001" stroke="none" d="m455 161 1-1zm-9 1v-1l1-1v1z"/></g><use xlink:href="#bz-g" width="100%" height="100%" fill="#730000" transform="matrix(-1 0 0 1 749 0)"/><g fill="none"><path fill="#730000" d="M492 194q2-1 0-3 1-1-2-2l-3-2-3-2-3 3v3l1-1 1 2q1 1 1-1l2 2h2l-1 1z"/><path d="M483 190q1-3 4-3m-2 4v-1l5-2m-3 5 2-2h3"/><path fill="#730000" stroke="none" d="m482 187-2 2 1 3 1-1 1 2 1-1 1 2h2v1h2q-1-2 2-1l1-1-7-5z"/><path d="M481 188q-2 4 1 3 1 3 2 1 2 4 3 1 0 3 2 1h2l1-1m-8-6-2 4m5-2-3 3m6-1-3 2"/></g></g><path fill="#5ac800" d="M169 331v-4l2 1v-3l3 1-1-4 3 4 1-5 2 5c1 2 3-3 3-3l1 5 1-2 2 4 2-3 2 4h5v2l2-2 3 2 3-1 3 1 1-2 2 2 2-3 3 3v-3q2-1 3 1l1-4 2 2c1 1 1-3 1-3l4 6s-18 6-30 4zm118 0 2-4 3 4 1-1 2 1 2-1 2 2 3-2 2 2 5-1 2 1 2-2 1 1 3-2 2 2 3-2h2l1-2 3 1 2-2 1 3 3-2v6s3-5 3-3v5l3-1v3l3-1s-15 2-29 1-27-6-27-6m-10 10c1 0-5 11-18 12-18 1-33-8-33-8l3-4q2 0 3 4l2-3q2 0 3 3l2-2q2 0 2 4l3-2 3 4 3-1 1 4 6-3 4 3 3-5s2 0 2 2l2-5 2 3 2-4 2 2z"/><path fill="none" stroke="#060" d="M169 331v-4l2 1v-3l3 1-1-4 3 4 1-5 2 5c1 2 3-3 3-3l1 5 1-2 2 4 2-3 2 4h5v2l2-2 3 2 3-1 3 1 1-2 2 2 2-3 3 3v-3q2-1 3 1l1-4 2 2c2 1 2-3 2-3l3 6m62-1 2-4 3 4 1-1 2 1 2-1 2 2 3-2 2 2 5-1 2 1 2-2 1 1 3-2 2 2 3-2h2l1-2 3 1 2-2 1 3 3-2v6s3-5 3-3v5l3-1v3l3-1m-117 9 3-4 3 4 2-3 3 3 2-2q2 0 2 4l3-2 3 4 2-1q3 0 2 4l6-3 3 3 4-5s2 0 2 2l2-5 2 3q-1-1 2-4l2 3 3-5"/><g fill="#fff"><path d="M255 386a75 75 0 0 0 45-13c18-12 22-13 25-13q6 1 8 5c1 4-7 6-11 6l-15-3-3 2c2 1 25 9 29 2l9-19s-5-9-16-9c-12 0-23 7-30 12s-16 13-41 13-33-8-41-13c-7-5-18-12-29-12s-16 9-16 9l9 19c4 7 27-1 29-2l-3-2-15 3c-5 0-12-2-12-6q3-4 9-5c3 0 7 1 24 13a77 77 0 0 0 45 13"/><path d="m218 358-1-5q0-4-4-4l-3 4-4-2 7-4c1 0 16 6 20 10 1 1 2 7 1 9zm-7 14s-3 3-3 9q0 9 8 7 6 1 6-10zm82-15 1-4q1-5 4-5l3 4 3-2-6-4c-1 0-16 6-20 10l-2 9zm7 14s3 3 3 9q-2 9-8 7-6 1-7-10s7-2 12-6"/></g><path fill="#69f" d="m204 368-15 3c-4 0-12-2-11-6q2-4 8-5 2-1 18 8m103 0 15 3c4 0 12-2 11-6q-2-4-8-5c-3 0-6 1-18 8m-89-9-4-3-4-3 3-3q3-2 4 4zm-8 29 6 1q6 1 6-10l13 5 2 4q-1 5-4 6l-18-4zm83-29 4-3 4-3-3-3q-3-2-5 4zm8 29-6 1q-6 1-7-10l-12 5-2 4q1 5 4 6l17-4z"/><g fill="none" stroke="#000"><path d="M255 386a75 75 0 0 0 45-13c18-12 22-13 25-13q6 1 8 5c1 4-7 6-11 6l-15-3-3 2c2 1 25 9 29 2l9-19s-5-9-16-9-22 7-30 12c-7 5-16 13-41 13s-33-8-41-13c-7-5-18-12-29-12s-16 9-16 9l9 19c4 7 27-1 29-2l-3-2-15 3c-5 0-12-2-12-6q3-4 9-5c3 0 7 1 24 13a77 77 0 0 0 45 13z"/><path d="m204 368-15 3c-4 0-12-2-11-6q2-4 8-5 2-1 18 8zm103 0 15 3c4 0 12-2 11-6q-2-4-8-5c-3 0-6 1-18 8zm-89-10-4-2-4-3 3-4q3 0 4 5z"/><path d="m218 358-1-5q0-4-4-4l-3 4-4-2 7-4c1 0 16 6 20 10 1 1 2 7 1 9l-16-7m-7 14s-3 3-3 9q0 9 8 7 6 1 6-10z"/><path d="M213 375s-2 2-2 6q0 6 4 5 7-2 4-8l-6-3"/><path d="m210 388 6 1q6 0 6-10l13 5 2 4q-1 6-4 5l-18-3zm83-30 4-2 4-3-3-4q-3 0-5 5z"/><path d="m293 358 1-5q1-4 4-4l3 4 3-2-6-4c-1 0-16 6-20 10l-2 9 17-7m7 14s3 3 3 9q-2 9-8 7-7 1-7-10s7-2 12-6z"/><path d="M297 375s3 2 3 6q1 6-5 5-6-2-3-8l5-3"/><path d="m301 388-6 1q-6 0-7-10l-12 5-2 4q1 6 4 5l17-3z"/></g><path fill="none" stroke="#fff" d="M234 386s4 2 0 5m-10-7 11 4m-9-2 7 4m-5-6 6 3m43-1s-4 2 0 5m10-7-11 4m9-2-8 4m5-6-5 3"/><path stroke="#000" d="M193 353v2l-1 2h-3l-1-1h-1v-3h1v3l2 1h1v-1h1v-2h-1l-1-1h-1l-1-2v-1l1-1v-1h3l1 1h1v3h-1v-2l-1-1h-2l-1 1 1 1 1 1 2 1v1m13 1h-2v1l-2 4-2 1h-2l-2-1v-3l2-5v-2l3 2v1-1h-1v1l-3 4v2l1 1h3v-1l2-3 1-1v-1h-1v-1l3 2m5 8-1 2v1h-3l-4-2v-1l1 1v-1l4-5v-1h-1v-1l4 2 1 1v2l-1 1h-2 1zm-1-2 1-1v-1l-1-1h-1l-1 3zm-1 3v-1l-1-1v-1h-1l-1 3v1h2zm20 5h-1l-1 1-1 4-1 1h-3l-2-1v-1l-1-1v-1l3-5-1-1 3 1v1h-1q0-1 0 0l-2 4v3h1l1 1 2-1v-1l2-3v-2h-1v-1l3 1v1m10 11-4-1h2v-1l2-6-5 7-1-1v-8l-2 6v1l1 1-4-1h2v-1l1-1 1-4v-1l-1-1 3 1v7l4-5v-1h1l3 1h-2v1l-2 6v1h1m9-2 1 1v1l-1 1h-7v-1h2l1-7h-1v-1l4 1h1l1 1v2h-1l-1 1zm-1-2v-1h1l-1-1-1-1h-1v3zm1 3-1-1-1-1h-1l-1 3v1h1l2-1zm12 3h-3l-1-2-2-2h-1v3h2v1h-4v-1h1v-8h-1 6l1 2v1l-1 1h-1l1 2 1 1 1 1zm-4-7v-1l-1-1h-1v4h2zm14 6h-4 1l1-1h-1l-1-2h-3v3h1v1h-3v-1h1v-1l1-4 2-4 4 8zm-4-3-1-4-1 4zm17-7-1-1h-4l1 4 1-1h1v-1l1-1 1 4h-1v-1h-3l1 3 1 1h1l-4 1 1-1v-1l-2-6h-1v-1l6-2 1 3m10-1 1 2-6 3v-1l-2-6h-2v-1l3-1h1-1v1l2 6h1v1h1v-1h1v-1h1v-2m5-9 3 2v5l-2 2h-3l-2-1-1-1v-5l2-1 1-1zm2 6v-1l-1-2-1-1-1-1h-2l-1 1v3l2 2 1 1h2l1-1zm12-6-2 1-3-1h-3l2 3h1v-1 1l-3 2v-1h1v-1l-4-5h-2l4-3h3l1 1v1l-1 1v1h1l2 1h2zm-7-4h-3l-1 1 3 3v-1l1-1zm14-2 1 3-7 2 1-1-3-6v-1h-1l6-2 1 2-1-1h-2l-2 1 2 3h1v-2l1-1 1 4-1-1h-2l1 3v1h1l1-1h1v-1l1-1v-1m8-6 1 1v6l-2 1h-5l-1-2v-2l1-3 2-2h2zm0 6v-3l-1-1v-1l-1-1h-3v1l-1 2v1l1 2v1l1 1h2l1-1z"/><path fill="none" stroke="#000" d="M305 219v56c0 12-1 56-50 74a75 75 0 0 1-49-74v-56h99"/></svg>