<svg xmlns="http://www.w3.org/2000/svg" viewBox="0 0 512 512"><path fill="#039" d="M0 0h512v512H0z"/><circle cx="256" cy="267" r="33" fill="none" stroke="#fc0" stroke-width="29"/><circle cx="256" cy="267" r="94" fill="none" stroke="#fc0" stroke-width="29"/><path fill="#039" d="m346 176 91 90-91 91-90-91z"/><path fill="#fc0" d="M102 252h63v29h-63zm277 0h94v29h-95zm-77-52 41-41 21 20-41 42zM241 52h30v114h-30z"/><circle cx="155" cy="170" r="15" fill="#fc0"/><circle cx="69" cy="267" r="15" fill="#fc0"/><circle cx="256" cy="407" r="15" fill="#fc0"/><circle cx="256" cy="454" r="15" fill="#fc0"/><circle cx="350" cy="267" r="15" fill="#fc0"/><path fill="#fc0" d="m137 364 21-20 20 20-20 21zm218 23 21-21 21 21-21 20z"/></svg>