<svg xmlns="http://www.w3.org/2000/svg" viewBox="0 0 512 512"><path fill="#006" d="M0 0h512v512H0z"/><path fill="#fff" fill-rule="evenodd" d="m345 250 6-18-16-12h20l6-18 6 18 20 1-16 11 6 18-16-11m30 15 11-16-11-16 19 6 12-14v19l18 7-19 6-1 19-11-16m-108 17-1-20-18-5 18-7v-19l12 14 18-6-10 16 11 16-19-5m-43 45-8-18-19 2 14-13-8-18 17 9 15-13-4 19 16 10-19 3m-19 61-14-12-17 10 7-19-14-12h19l8-18 4 19 19 2-16 11m4 66-18-5-11 16-1-20-18-6 17-7v-20l12 16 18-6-10 16m32 56-19 3-3 19-9-18-19 2 14-14-8-18 17 10 14-13-3 19m49 42-17 9 3 19-14-14-17 9 8-18-13-14 19 3 8-17 4 19m59 10-9 17 13 14-19-3-10 16-3-19-18-4 17-9-2-19 14 14m63-14-1 19 18 7-19 6-1 19-11-16-19 5 12-15-10-16 18 6m60-223 13 13 17-8-9 18 13 14-19-3-9 17-3-19-19-4 18-9m37 23 6 18 19 1-15 11 5 19-16-11-16 11 6-18-15-12h19m22 36-2 19 17 9-19 4-3 19-9-17-20 3 13-14-8-17 17 8m3 43-8 17 13 15-19-3-9 16-3-19-19-3 17-9-3-19 14 14m-11 43-16 10 4 19-15-13-16 9 7-18-15-13 20 2 7-18 5 19"/><path fill="#006" d="M0 0h256v256H0z"/><path fill="#fff" d="M256 0v32l-95 96 95 93v35h-33l-96-94-93 94H0v-34l93-94L0 37V0h31l96 94 93-94z"/><path fill="#c8102e" d="m92 162 6 17-77 77H0v-2zm62-6 27 4 75 73v23zM256 0l-96 98-2-22 75-76zM0 0l97 95-30-4L0 24z"/><path fill="#fff" d="M88 0v256h80V0zM0 88v80h256V88z"/><path fill="#c8102e" d="M0 104v48h256v-48zM104 0v256h48V0z"/></svg>