<svg xmlns="http://www.w3.org/2000/svg" xmlns:xlink="http://www.w3.org/1999/xlink" viewBox="0 0 512 512"><path fill="#0021ad" d="M0 0h512v512H0z"/><path fill="#1c8a42" d="M0 0h512v512z"/><circle cx="256" cy="256" r="62" fill="#ffc639"/><path fill="#1c8a42" d="M218 228c5 6 11 16 16 13q6 0 7 3a40 40 0 0 0 35-15s1 0 1-5q2-3 3-1v2q3-1 5-5v-2q2-3 3-1l1 2h5l1-1h2c-1 8 2 8 1 13l-1 7c0 3 7 3 5 4-2 2 0 4-3 5q-14 7-12 8c3 1-2 5-2 5-2 3-4 1-5 3v8q1 3-1 7-1 8-3 9l-1 13-15-2q3-20 2-23c-1-8-13-6-14-7l-3-2-4-1-2 1c-5 1-7-4-7-4 0-1-11 1-16-1l-6 6-4-2q1-5 3-5l6-4 1-7 4-2c1-1 2-6 1-7l-5-5q-1-7 2-7"/><path fill="#ffc639" d="M452 64c-2-11-28-35-46-50q-8-4-7 3l6 12 3 7v5l7 12 12 16c7 5 2 17 2 24q-1 6-6 4c-21-20-42-20-61-26q-11 0-5 5 18 20 41 31l9 5 9 8q9 8 8 10c0 8-5 15-6 18-2 9-7 11-7 11-41 27-62 34-127 26-1-1-7 0 0 3 17 5 57 14 97-5 9-6 16-4 23-8l30-17c9-4 33-10 39-14q11 0 14-7c2-2 5-1 7-5q6-2 4-3-3-5-9-8-7-2-12 0l-4 2-5-2c-13 0-11-41-16-57"/><path fill="#1c8a42" d="M543 218a3 2 16 1 1-6-2 3 2 16 0 1 6 2"/><g fill="#fff" transform="translate(-12 182)scale(.68267)"><path id="cx-a" d="m188 191-13-12-13 12 2-18-17-2 14-10-9-15 17 5 7-16 6 16 17-5-9 15 14 10-17 3z"/><path d="m233 336-13-10-14 10 5-15-14-10h17l5-16 6 15h16l-13 10z"/><use xlink:href="#cx-a" width="100%" height="100%" x="3" y="269"/><use xlink:href="#cx-a" width="100%" height="100%" x="-112" y="123"/><use xlink:href="#cx-a" width="100%" height="100%" x="108" y="85"/></g></svg>