<svg xmlns="http://www.w3.org/2000/svg" xmlns:xlink="http://www.w3.org/1999/xlink" viewBox="0 0 512 512"><path fill="#fff" d="M0 0h512v512H0z"/><path id="cy-a" fill="#435125" d="m243 425-2-2-4-4-5-7-1-1-6-2-5-2 2-3 9 4 7 1 12 9zl1-1 1 1zm-45-14q-9 1-17-4c-8-5 0-2 2-3q3-2 10-3 8 0 20 6s-6 4-15 4m-25-5-3-1-2-3v-3l2-1q3 0 4 4v3zm44-5q-21-4-24-12l-2-8 2-1c4 1 14 3 24 21m-31-3q-9 0-14-3l-3-4-1-2 8-1q8-1 20 9zm-30-1q-12 1-22-8l14-2q10 0 15 4l2 2-1 2zm-22-11-2-1-1-2v-4h1l2 1 1 2v3zm50-1-3-2-1-2v-4h1q3 1 5 4v2zm-24-1q-20-2-24-8l-4-5-1-2h4c4 0 14 2 25 15m14-2a33 33 0 0 1-20-10l-4-7 3-1h1c5 1 15 3 20 18m-55-5-10-1-10-5v-3l8-2 8 1a23 23 0 0 1 14 9s-4 1-10 1m25-9-3-1-1-3v-3l1-1q3 1 5 4v3zm-19-3-10-4q-9-4-12-16c-3-12 1 0 2 0q2-1 8 3 6 5 12 17m12 0-8-5a51 51 0 0 1-14-20s1-1 2-1h1q3 0 9 5a55 55 0 0 1 10 21m-32-1q-5-1-6-3v-3l2-1q5 0 7 4v2zm-9-12h-9q-6-2-7-7l-2-5q17 1 20 6l2 6zm12-11-3-4-2-6-1-7v-5s7 2 7 9zm-9-1-9-4-10-8q-3-3-4-10v-6h2l5 2 5 5 6 7 6 12z"/><use xlink:href="#cy-a" width="100%" height="100%" transform="matrix(-1 0 0 1 463 0)"/><path fill="#d47600" d="M468 82h-2v1l-3-1-2 1-4 3-2 1-1-1-1 1v1l-1 1-1 1h-3l-3 2-4-1h-1l-4 4h-5v1l-2 1h-3l-1 1-1 3-2 1h-2v2l-1 1h-2l-1 2h-4l-2 1h-3l-1 2h-1l-1 1h-2l-1 1-1-1h-4l-1-1h-1l-1 2-1 1-2 1v1l-2 2-4 5-3 1-4 1-2 2-7 4-10 5-2 1h-3l-6 2-4 1h-1l-1 1-6 2-3-1-2 1h-10l-4 2-7 3-2 2-4 2-4 1v-1h-2l-3 1h-2l-1-1h-1l-6 3h-8l-3 2h-5l-3 1-2-1-10 1-4-1-3 1-3-2h-6l-1-1-3-1-1 1h-1l-2-1h-1l-2 1h-1l-1-1h-2l-2-2-8 2-2-1-7-2h-1l-2 1-2 1h-7l-3-2h-5l-5-2-6-4-4-2h-1v3l1 2v5l1 1 1 2v17l-1 1v3l-1 4-3 9-1 1-2 2-5 3-3 2h-6l-2-1h-2l-3-2-3-1-3-2-1-1h-2l-2-1h-5l-3-2h-4l-2 1h-4l-1 2h-3l-1 1h-1l-1 1h-2l-1-1h-3v3l-2 2-2 2-1 1-3 7-2 3-1 1-2 2-1 2-5 3-4 1-3 1h-5l-3-1-3-2-3-3-5-5h-1l-1-1h-2v1l-1 1v8l4 6 1 3 1 1 1 1 1 4-1 2 1 2h-2v2l4 4v2l-1 2-1 2v1l2 2 2 2 2 4 1 1 1-1 1 1h1l1 1 1 1 1 1v3l2 4v3l1 1v5l1 1h2l2 1 1 3h3l5 5h1l1 1 1 1 2-1h2l2 1h2l4 1 2 1 3 2 2 1 1 1 1 1 2 1h2l2 1 5 2h2l3 1 1 1h1l2-2h5l2-1v-1h2l5-1h1l4-1h5l5 1 1 1 1 1h2v2l2 2 2 3 1 4 1 2 1 2v1l-1 1v1h1l1-1 2 1h1l2-1 1-1 2 1h3l3 2h1l1-1v-1l-1-1-2-3-1-1-1-2v-7l1-2 1-2 3-2 4-3 2-1 3-2h1l7-2 3-1 21 2 1-1 1-2 3-1h4l1 1 2-1h1l3-2h3l3-3 4-1h1l3-2 3-2 2-1h2l5-1 1-2h2l2-2h2l1-2 1-1 1-1h10l1-4 2-1 3-5v-9l1-4 2-5 1-2 3-1 2-1h2l1-1h12l6 1 2 1 3 2 2 2 1 1h1l1 1 1-1 2-1 2-1 2-1 1-2 4-2h5l1-2h1l3 1h2l2 1 1-1h2l2 2h2l4 3h2l1-1v1h1l1-1h-1l-1-1-2-2 2-2-3-3v-1l-1-1-4-6-5-4-2-2h-1l-3-3-2-3v-1l-2-3-2-1-1-2-4-5-1-1h-2v-2h1l1-1-2-5v-2l1-7 1-1 2-5 2-2 1-3 2-2 1-2 3-1h2l2-1 3 1h6l2-1h2v-1l1-5 1-1 1-1 4-6 4-3 7-6 4-2 2-1 17-8 5-4 2-2 4-3 5-2 4-3 1-2 1-3h1l1-2v-1l3-2h1l13-7h2l1-1 4-1h1l1-2v-4l1-1 1-2v-1z"/></svg>