<svg xmlns="http://www.w3.org/2000/svg" viewBox="0 0 512 512"><path fill="#fff" d="M0 0h512v512H0z"/><path fill="#000063" fill-rule="evenodd" d="M512 444c-6 7-11 23-26 23-30 0-38-34-61-34-15 0-23 34-38 34-30 0-38-34-61-34-15 0-23 34-38 34-30 0-38-34-61-34-15 0-23 34-38 34-30 0-38-34-61-34-15 0-23 34-38 34-31 0-38-34-61-34-15 0-20 24-29 24v45c9 0 14-25 29-25 23 0 31 35 61 35 15 0 23-35 38-35 23 0 31 35 61 35 15 0 23-35 38-35 23 0 31 35 61 35 15 0 23-35 38-35 23 0 31 35 61 35 15 0 23-35 38-35 23 0 31 35 61 35 15 0 20-10 26-17zm0-87c-6 7-11 24-26 24-30 0-38-35-61-35-15 0-23 35-38 35-30 0-38-35-61-35-15 0-23 35-38 35-30 0-38-35-61-35-15 0-23 35-38 35-30 0-38-35-61-35-15 0-23 35-38 35-31 0-38-35-61-35-15 0-20 25-29 25v44c9 0 14-24 29-24 23 0 31 34 61 34 15 0 23-34 38-34 23 0 31 34 61 34 15 0 23-34 38-34 23 0 31 34 61 34 15 0 23-34 38-34 23 0 31 34 61 34 15 0 23-34 38-34 23 0 31 34 61 34 15 0 20-9 26-16zm0-86c-6 7-11 23-26 23-30 0-38-34-61-34-15 0-23 34-38 34-30 0-38-34-61-34-15 0-23 34-38 34-30 0-38-34-61-34-15 0-23 34-38 34-30 0-38-34-61-34-15 0-23 34-38 34-31 0-38-34-61-34-15 0-20 24-29 24v45c9 0 14-25 29-25 23 0 31 35 61 35 15 0 23-35 38-35 23 0 31 35 61 35 15 0 23-35 38-35 23 0 31 35 61 35 15 0 23-35 38-35 23 0 31 35 61 35 15 0 23-35 38-35 23 0 31 35 61 35 15 0 20-10 26-17zm0-87c-6 7-11 24-26 24-30 0-38-35-61-35-15 0-23 35-38 35-30 0-38-35-61-35-15 0-23 35-38 35-30 0-38-35-61-35-15 0-23 35-38 35-30 0-38-35-61-35-15 0-23 35-38 35-31 0-38-35-61-35-15 0-20 25-29 25v44c9 0 14-24 29-24 23 0 31 34 61 34 15 0 23-34 38-34 23 0 31 34 61 34 15 0 23-34 38-34 23 0 31 34 61 34 15 0 23-34 38-34 23 0 31 34 61 34 15 0 23-34 38-34 23 0 31 34 61 34 15 0 20-10 26-17zm0-86c-6 7-11 23-26 23-30 0-38-35-61-35-15 0-23 35-38 35-30 0-38-35-61-35-15 0-23 35-38 35-30 0-38-35-61-35-15 0-23 35-38 35-30 0-38-35-61-35-15 0-23 35-38 35-31 0-38-35-61-35-15 1-20 25-29 25v45c9 0 14-25 29-25 23 0 30 35 61 35 15 0 23-35 38-35 23 0 31 35 61 35 15 0 23-35 38-35 23 0 31 35 61 35 15 0 23-35 38-35 23 0 31 35 61 35 15 0 23-35 38-35 23 0 31 35 61 35 15 0 20-10 26-17zm0-87c-6 7-11 24-26 24-30 0-38-35-61-35-15 0-23 35-38 35-30 0-38-35-61-35-15 0-23 35-38 35-30 0-38-35-61-35-15 0-23 35-38 35-31 0-38-35-61-35-15 0-23 35-38 35C59 35 52 0 29 0 14 0 9 25 0 25v44c9 0 14-24 29-24 23 0 30 34 61 34 15 0 23-34 38-34 23 0 31 34 61 34 15 0 23-34 38-34 23 0 31 34 61 34 15 0 23-34 38-34 23 0 31 34 61 34 15 0 23-34 38-34 23 0 31 34 61 34 15 0 20-9 26-17z"/><path fill="#a24300" fill-rule="evenodd" stroke="#fff" stroke-width="2" d="m377 169-3 301c0 16 14 16 16 0l-3-301z"/><path fill="#006d00" fill-rule="evenodd" stroke="#fff" stroke-width="2" d="m410 281-10-11-2 11-5-16-4 8v-17l-4 8-1-17-4 8-3-20-4 8-2-20-4 8-2-20-1-10 2-4 5 2 8 8 17 16-10-4 16 16-10-4 17 16-11-4 15 13-10-4 15 13-10-4 11 14-12-7z"/><path fill="none" d="m410 281-44-84m30 26-24-14-5 22"/><path fill="none" d="m402 235-24-14-5 22"/><path fill="none" d="m409 247-24-14-5 22"/><path fill="none" d="m413 256-22-11-6 19"/><path fill="none" d="m418 265-22-11-7 19"/><path fill="none" d="m419 275-20-15-1 21"/><path fill="#006d00" fill-rule="evenodd" stroke="#fff" stroke-width="2" d="m293 138 16 6-4-12 14 14-1-10 11 17-1-10 11 17-1-11 15 19-1-10 15 19-2-10 15 19 8 10v5l-6 1-13-4-26-8 13-1-26-8 12-1-26-8 13-1-23-6 12-1-22-6 12-1-19-8 15 1z"/><path fill="none" d="m293 138 95 63m-45-11 32 2-10-25"/><path fill="none" d="m330 181 31 2-9-25"/><path fill="none" d="m316 172 32 2-10-25"/><path fill="none" d="M306 165h28l-6-22"/><path fill="none" d="M296 158h28l-6-22"/><path fill="none" d="m289 149 28 5-12-22"/><path fill="#006d00" fill-rule="evenodd" stroke="#fff" stroke-width="2" d="m483 159-14 10 15 2-21 5 11 3-22 2 11 3-23 1 11 4-26 3 11 3-26 4 11 3-27 3-13 2-6-2 2-5 10-8 20-16-5 9 20-16-4 10 19-17-4 10 16-15-4 10 15-15-4 10 18-11-8 11z"/><path fill="none" d="m483 159-107 46m31-29-16 23 30 3"/><path fill="none" d="m422 169-16 23 30 3"/><path fill="none" d="m437 162-16 24 30 3"/><path fill="none" d="m449 157-12 22 26 5"/><path fill="none" d="m460 152-12 22 26 5"/><path fill="none" d="m474 151-18 20h28"/><path fill="#006d00" fill-rule="evenodd" stroke="#fff" stroke-width="2" d="m480 259-17-5 6 12-15-13 2 10-13-16 2 10-13-15 2 10-16-18 2 10-17-18 3 10-17-18-9-9-1-5 6-1 13 3 27 6-12 2 26 6-12 2 27 6-12 2 23 4-12 2 22 3-12 2 21 7h-16z"/><path fill="none" d="m480 259-101-55m46 8h-32l13 24"/><path fill="none" d="M439 220h-31l12 24"/><path fill="none" d="M454 228h-31l12 23"/><path fill="none" d="m465 234-28 2 8 21"/><path fill="none" d="m476 239-28 3 8 21"/><path fill="none" d="m484 248-29-2 15 20"/><path fill="#006d00" fill-rule="evenodd" stroke="#fff" stroke-width="2" d="m304 265 9-12-13 2 16-9h-10l18-7h-10l18-7h-10l21-9-10-1 21-9h-10l21-9 10-4h5v5l-6 9-11 19 1-9-12 19 1-10-12 19 1-10-9 17 1-10-9 17 1-10-12 14 4-12z"/><path fill="none" d="m304 265 76-65m-17 34 7-24-26 3"/><path fill="none" d="m352 243 7-24-26 3"/><path fill="none" d="m341 252 7-24-26 4"/><path fill="none" d="m333 259 4-22-23 2"/><path fill="none" d="m325 266 4-22-23 2"/><path fill="none" d="m314 270 9-21-23 6"/><path fill="#006d00" fill-rule="evenodd" stroke="#fff" stroke-width="2" d="m458 109-16 11-3-12-10 16-1-7-8 16-1-7-7 17-3-8-6 20-4-8-6 21-3-8-7 20-3 11 2 4 7-2 11-9 23-16-13 4 23-17-14 4 23-17-13 5 23-13-16 3 25-12-15 4 18-15-16 8z"/><path fill="none" d="m452 115-24 20-46 60"/><path fill="none" d="m418 170-26 12-2-19"/><path fill="none" d="m428 158-26 12-3-19"/><path fill="none" d="m437 145-26 12-2-19"/><path fill="none" d="m445 136-24 9-3-16"/><path fill="none" d="m454 127-26 8-1-15"/><path fill="none" d="m458 118-24 13 4-19"/><path fill="#006d00" fill-rule="evenodd" stroke="#fff" stroke-width="2" d="m369 89 8 16 9-9-2 19 7-6-4 18 6-7-5 18 8-6-8 21 8-6-7 21 8-6-7 21-4 10-4 3-4-5-5-12-9-25 8 10-9-25 9 10-9-25 8 10-11-22 11 10-13-22 10 10-7-20 9 14z"/><path fill="none" d="m371 96 8 28 3 72"/><path fill="none" d="m367 159 14 22 14-15"/><path fill="none" d="m366 143 15 23 13-15"/><path fill="none" d="m365 128 15 23 13-16"/><path fill="none" d="m364 117 16 19 11-12"/><path fill="none" d="m362 105 17 19 10-12"/><path fill="none" d="m364 96 13 22 8-18"/><path fill="#006d00" fill-rule="evenodd" stroke="#fff" stroke-width="2" d="m271 211 22-14-11-6 19 3-7-8 18 6-6-8 18 7-6-9 22 8-7-9 22 11-7-8 22 7 11 6 3 4-4 3-12 2-19 8 4-7-24 3 9-6-24 7 8-6-20 8 9-10-21 11 9-9-17 12 10-13z"/><path fill="none" d="m278 207 22-9 12-2h10l17 1 15 1 30 3"/><path fill="none" d="m352 210 17-10-17-13"/><path fill="none" d="m333 209 21-11-17-14"/><path fill="none" d="m320 209 19-12-18-12m-27 27 18-16-14-8"/><path fill="none" d="m286 213 14-15-11-4m17 16 17-14-14-10"/><g fill-rule="evenodd"><path fill="#c00" stroke="#000" d="m542 1173-2-229-61-107q-22-77 17-80c24-1 49 14 84 16 36 1 29-60 82-58s144 32 222 37 119-27 209-30c90-4 114 42 119 42s30-18 56-22c25-3 34 10 34 10s-2 58-14 92-54 90-56 90l-15 251c0 2-675-7-675-12z" transform="matrix(.11838 0 0 .10897 279 246)"/><g stroke="#000"><path fill="#fff100" d="M532 585s-68-52-70-177c-1-72 34-124 123-124 124 0 301 53 301 53v17s-142-53-301-53c-71 0-107 52-107 105 0 89 71 179 71 179v141h-17z" transform="matrix(-.11838 0 0 .10897 489 284)"/><path fill="#fff" d="M478 549a18 18 0 1 1-35 0 18 18 0 0 1 35 0z" transform="matrix(-.11838 0 0 .10897 487 284)"/><path fill="#fff" d="M478 549a18 18 0 1 1-35 0 18 18 0 0 1 35 0z" transform="matrix(-.11838 0 0 .10897 489 280)"/><path fill="#fff" d="M478 549a18 18 0 1 1-35 0 18 18 0 0 1 35 0z" transform="matrix(-.11838 0 0 .10897 490 275)"/><path fill="#fff" d="M478 549a18 18 0 1 1-35 0 18 18 0 0 1 35 0z" transform="matrix(-.11838 0 0 .10897 491 270)"/><path fill="#fff" d="M478 549a18 18 0 1 1-35 0 18 18 0 0 1 35 0z" transform="matrix(-.11838 0 0 .10897 491 265)"/><path fill="#fff" d="M478 549a18 18 0 1 1-35 0 18 18 0 0 1 35 0z" transform="matrix(-.11838 0 0 .10897 484 288)"/><path fill="#fff" d="M478 549a18 18 0 1 1-35 0 18 18 0 0 1 35 0z" transform="matrix(-.11838 0 0 .10897 489 260)"/><path fill="#fff" d="M478 549a18 18 0 1 1-35 0 18 18 0 0 1 35 0z" transform="matrix(-.11838 0 0 .10897 485 256)"/><path fill="#fff" d="M478 549a18 18 0 1 1-35 0 18 18 0 0 1 35 0z" transform="matrix(-.11838 0 0 .10897 480 254)"/><path fill="#fff" d="M478 549a18 18 0 1 1-35 0 18 18 0 0 1 35 0z" transform="matrix(-.11838 0 0 .10897 475 254)"/><path fill="#fff" d="M478 549a18 18 0 1 1-35 0 18 18 0 0 1 35 0z" transform="matrix(-.11838 0 0 .10897 469 254)"/><path fill="#fff" d="M478 549a18 18 0 1 1-35 0 18 18 0 0 1 35 0z" transform="matrix(-.11838 0 0 .10897 463 254)"/><path fill="#fff" d="M478 549a18 18 0 1 1-35 0 18 18 0 0 1 35 0z" transform="matrix(-.11838 0 0 .10897 458 255)"/><path fill="#fff" d="M478 549a18 18 0 1 1-35 0 18 18 0 0 1 35 0z" transform="matrix(-.11838 0 0 .10897 452 256)"/><path fill="#fff" d="M478 549a18 18 0 1 1-35 0 18 18 0 0 1 35 0z" transform="matrix(-.11838 0 0 .10897 446 257)"/></g><path fill="#fff" stroke="#000" d="M478 549a18 18 0 1 1-35 0 18 18 0 0 1 35 0z" transform="matrix(.11838 0 0 .10897 281 284)"/><path fill="#fff" stroke="#000" d="M478 549a18 18 0 1 1-35 0 18 18 0 0 1 35 0z" transform="matrix(.11838 0 0 .10897 279 280)"/><path fill="#fff" stroke="#000" d="M478 549a18 18 0 1 1-35 0 18 18 0 0 1 35 0z" transform="matrix(.11838 0 0 .10897 278 275)"/><path fill="#fff" stroke="#000" d="M478 549a18 18 0 1 1-35 0 18 18 0 0 1 35 0z" transform="matrix(.11838 0 0 .10897 277 270)"/><path fill="#fff" stroke="#000" d="M478 549a18 18 0 1 1-35 0 18 18 0 0 1 35 0z" transform="matrix(.11838 0 0 .10897 277 265)"/><path fill="#fff" stroke="#000" d="M478 549a18 18 0 1 1-35 0 18 18 0 0 1 35 0z" transform="matrix(.11838 0 0 .10897 279 260)"/><path fill="#fff" stroke="#000" d="M478 549a18 18 0 1 1-35 0 18 18 0 0 1 35 0z" transform="matrix(.11838 0 0 .10897 283 256)"/><path fill="#fff" stroke="#000" d="M478 549a18 18 0 1 1-35 0 18 18 0 0 1 35 0z" transform="matrix(.11838 0 0 .10897 288 254)"/><path fill="#fff" stroke="#000" d="M478 549a18 18 0 1 1-35 0 18 18 0 0 1 35 0z" transform="matrix(.11838 0 0 .10897 293 254)"/><path fill="#fff" stroke="#000" d="M478 549a18 18 0 1 1-35 0 18 18 0 0 1 35 0z" transform="matrix(.11838 0 0 .10897 299 254)"/><path fill="#fff" stroke="#000" d="M478 549a18 18 0 1 1-35 0 18 18 0 0 1 35 0z" transform="matrix(.11838 0 0 .10897 304 254)"/><path fill="#fff" stroke="#000" d="M478 549a18 18 0 1 1-35 0 18 18 0 0 1 35 0z" transform="matrix(.11838 0 0 .10897 310 255)"/><path fill="#fff" stroke="#000" d="M478 549a18 18 0 1 1-35 0 18 18 0 0 1 35 0z" transform="matrix(.11838 0 0 .10897 316 256)"/><path fill="#fff" stroke="#000" d="M478 549a18 18 0 1 1-35 0 18 18 0 0 1 35 0z" transform="matrix(.11838 0 0 .10897 321 257)"/><path fill="#fff" stroke="#000" d="M478 549a18 18 0 1 1-35 0 18 18 0 0 1 35 0z" transform="matrix(.11838 0 0 .10897 284 288)"/><path fill="#fff100" stroke="#000" d="M532 585s-68-52-70-177c-1-72 34-124 123-124 124 0 301 53 301 53v17s-142-53-301-53c-71 0-107 52-107 105 0 89 71 179 71 179v141h-17z" transform="matrix(.11838 0 0 .10897 279 284)"/><path fill="#fff100" stroke="#000" stroke-width="3" d="M1240 532s16-36 71-36c38 0 71 36 71 71v71h35v-71c0-36 36-71 71-71 53 0 71 35 71 35s0-106-71-106c-53 0-71 36-71 36s18-54 18-107-35-88-35-88c0 6-36 35-36 88s18 107 18 107-18-36-71-36c-71 0-71 106-71 106z" transform="matrix(.03946 0 0 .04151 308 333)"/><path fill="#fff100" stroke="#000" stroke-width="3" d="M1240 532s16-36 71-36c38 0 71 36 71 71v71h35v-71c0-36 36-71 71-71 53 0 71 35 71 35s0-106-71-106c-53 0-71 36-71 36s18-54 18-107-35-88-35-88c0 6-36 35-36 88s18 107 18 107-18-36-71-36c-71 0-71 106-71 106z" transform="matrix(.03946 0 0 .04151 350 333)"/><path fill="#fff100" stroke="#000" d="M532 833V673s35 53 88 53c44 0 89-70 89-70s41 53 88 53c42 0 89-69 89-69s43 69 88 69c46 0 89-53 89-53s46 70 106 70c53 0 71-53 71-53v160z" transform="matrix(.11838 0 0 .10897 279 284)"/><path fill="#fff100" stroke="#000" d="M709 833V709s106 35 106 124z" transform="matrix(.11838 0 0 .10897 258 284)"/><path fill="#fff100" stroke="#000" d="M709 833V709s106 35 106 124z" transform="matrix(-.11838 0 0 .10897 510 284)"/><path fill="#fff100" stroke="#000" d="M602 833c0-89 107-145 107-145s106 56 106 145z" transform="matrix(.11838 0 0 .10897 279 284)"/><path fill="#fff100" stroke="#000" d="M602 833c0-89 107-145 107-145s106 56 106 145z" transform="matrix(.11838 0 0 .10897 321 284)"/><path fill="#fff100" stroke="#000" d="M585 848c0-89 124-160 124-160s124 71 124 160z" transform="matrix(.11838 0 0 .10897 300 283)"/><path fill="#fff" stroke="#000" d="M1276 656c-36-18-166-36-377-36s-350 18-385 36c-36 17-36 53 0 70 35 18 175 36 385 36s341-18 377-36c35-17 35-53 0-71z" transform="matrix(.11704 0 0 .10897 279 304)"/><path fill="gray" d="M426 383c0 4-35 4-42 4-8 0-42 1-42-4 0-4 35-4 42-4s42 1 42 4"/><path fill="#c00" d="m346 369-2 2-2-2 2-2zm80 0-2 2-2-2 2-2z"/><path d="m388 368-4 2-4-2q1-3 4-3 4 0 4 3"/><path fill="#006300" d="M408 368q0 2-3 2-4 0-3-2 0-3 3-3 4 0 3 3m-43 0q0 2-3 2-4 0-3-2 0-3 3-3t3 3"/><path fill="#fff100" stroke="#000" stroke-width="2" d="M1258 496s35-53 71-53h35v35c0 54-53 71-53 71h142s-53-18-53-71v-35h35c36 0 71 53 71 53V354s-35 54-71 54h-35v-36c0-53 53-71 53-71h-142s53 18 53 71v36h-35c-36 0-71-54-71-54z" transform="matrix(.06764 0 0 .06227 290 324)"/><path fill="#fff100" stroke="#000" stroke-width="3" d="M1382 549h71s-53-17-53-71v-35h35c36 0 71 53 71 53V354s-35 54-71 54h-35v-36c0-53 53-71 53-71h-71z" transform="matrix(.03383 0 0 .05449 295 332)"/><path fill="#fff100" stroke="#000" stroke-width="3" d="M1382 549h71s-53-17-53-71v-35h35c36 0 71 53 71 53V354s-35 54-71 54h-35v-36c0-53 53-71 53-71h-71z" transform="matrix(-.03383 0 0 .05449 473 332)"/><path fill="#fff" stroke="#000" d="M904 602a18 18 0 1 1-36 0 18 18 0 0 1 36 0z" transform="matrix(.11838 0 0 .10897 279 284)"/><path fill="#fff100" stroke="#000" stroke-width="2" d="M1258 496s35-53 71-53h35v35c0 54-53 71-53 71h142s-53-18-53-71v-35h35c36 0 71 53 71 53V354s-35 54-71 54h-35v-36c0-53 53-71 53-71h-142s53 18 53 71v36h-35c-36 0-71-54-71-54z" transform="matrix(.06764 0 0 .06227 290 283)"/><path fill="#fff" stroke="#000" d="M904 602a18 18 0 1 1-36 0 18 18 0 0 1 36 0z" transform="matrix(.11838 0 0 .10897 279 244)"/><path fill="#fff100" stroke="#000" d="M850 656h71v53h-71z" transform="matrix(.11838 0 0 .10897 279 246)"/><path fill="#fff100" stroke="#000" d="M850 683h71v203h-71z" transform="matrix(.11838 0 0 .10897 279 246)"/><path fill="#fff" stroke="#000" d="M478 549a18 18 0 1 1-35 0 18 18 0 0 1 35 0z" transform="matrix(.11838 0 0 .10897 329 279)"/><path fill="#fff" stroke="#000" d="M478 549a18 18 0 1 1-35 0 18 18 0 0 1 35 0z" transform="matrix(.11838 0 0 .10897 329 274)"/><path fill="#fff" stroke="#000" d="M478 549a18 18 0 1 1-35 0 18 18 0 0 1 35 0z" transform="matrix(.11838 0 0 .10897 329 269)"/><path fill="#fff" stroke="#000" d="M478 549a18 18 0 1 1-35 0 18 18 0 0 1 35 0z" transform="matrix(.11838 0 0 .10897 329 264)"/><path d="m388 375-4 2-4-2 4-1zm39 4h-5l-4-2h5zm-16-3q0 2-5 2l-4-2q0-2 5-1zm-71 3h4q4 0 4-2h-4zm17-3 4 1q5 0 4-2l-4-1z"/></g><path fill="#012169" d="M0 0h256v256H0Z"/><path fill="#fff" d="M256 0v32l-95 96 95 94v34h-33l-96-94-93 94H0v-34l93-93L0 37V0h31l96 94 93-94z"/><path fill="#c8102e" d="m92 162 6 17-77 77H0v-1zm62-6 27 4 75 74v22ZM256 0l-96 98-2-22 75-76ZM0 1l97 94-30-4L0 25Z"/><path fill="#fff" d="M88 0v256h80V0ZM0 88v80h256V88Z"/><path fill="#c8102e" d="M0 104v48h256v-48ZM104 0v256h48V0Z"/></svg>