<svg xmlns="http://www.w3.org/2000/svg" viewBox="0 0 512 512"><defs><clipPath id="dm-a"><path d="M0 0h512v512H0z"/></clipPath></defs><g fill-rule="evenodd" clip-path="url(#dm-a)"><path fill="#108c00" d="M-258 0H769v512H-258z"/><path fill="#ffd600" d="M-260 178H773v50H-260z"/><path fill="#ffd600" d="M181 0h49v512h-49z"/><path fill="#000001" d="M228 0h48v512h-48z"/><path fill="#000001" d="M-260 227H773v50H-260z"/><path fill="#fff" d="M-260 277H773v50H-260z"/><path fill="#fff" d="M276 0h49v512h-49z"/><rect width="274" height="275" x="-395" y="-394" fill="#e72910" ry="138" transform="scale(-1)"/><path d="m251 137 5-16 5 16h17l-13 10 6 18-15-11-14 10 5-17-13-10z"/><path fill="#ffe700" d="m251 138 5-14 4 14h15l-11 9 5 15-13-9-13 9 5-15-11-9z"/><path fill="#108c00" d="m253 140 3-8 3 8h8l-6 5 3 9-8-5-7 5 3-9-7-5z"/><path d="m357 212 5-16 6 16h17l-14 10 6 18-15-11-14 10 6-17-14-10z"/><path fill="#ffe700" d="m358 213 5-14 4 13 15 1-12 9 5 15-12-10-13 9 5-15-12-8z"/><path fill="#108c00" d="m360 215 2-8 3 8h9l-7 5 3 9-7-6-8 6 3-9-7-5z"/><path d="m326 331 5-16 6 15 17 1-14 10 6 18-15-11-14 10 6-17-14-10z"/><path fill="#ffe700" d="m327 331 5-13 4 13h15l-12 9 5 16-12-10-13 9 5-15-12-8z"/><path fill="#108c00" d="m329 334 2-8 3 8h9l-7 5 3 9-7-6-8 5 3-8-7-5z"/><path d="m177 331 6-16 5 15 17 1-14 10 7 18-15-11-15 10 6-17-13-10z"/><path fill="#ffe700" d="m178 331 5-13 4 13h15l-12 9 6 16-13-10-13 9 5-15-11-8z"/><path fill="#108c00" d="m180 334 3-8 2 8h9l-7 5 3 9-7-6-8 5 3-8-6-5z"/><path d="m150 209 6-16 5 15 17 1-14 10 6 18-14-11-15 10 6-17-14-10z"/><path fill="#ffe700" d="m151 210 5-14 4 13h15l-12 9 5 16-12-10-13 9 5-15-12-8z"/><path fill="#108c00" d="m153 212 3-8 2 8h9l-7 5 3 9-7-6-8 5 3-8-6-5z"/><path d="m325 174-6 16-5-16h-17l13-10-6-18 15 11 15-10-6 17 13 10z"/><path fill="#ffe700" d="m324 173-5 14-4-13-15-1 11-9-5-15 13 10 13-9-5 14 11 9z"/><path fill="#108c00" d="m322 171-3 8-2-8h-9l7-5-3-9 7 6 7-6-3 9 7 5z"/><path d="m367 290-5 16-5-15-18-1 14-10-6-18 15 11 14-10-5 17 13 10z"/><path fill="#ffe700" d="m367 290-5 13-5-13-14-1 11-8-5-16 13 10 12-9-5 14 12 9z"/><path fill="#108c00" d="m365 287-3 8-3-8h-8l6-5-3-9 8 6 7-6-3 9 7 5z"/><path d="m261 375-5 16-5-15-17-1 13-10-6-18 15 11 14-10-5 17 13 10z"/><path fill="#ffe700" d="m261 374-5 14-5-13-14-1 11-8-5-16 13 10 12-9-5 14 12 9z"/><path fill="#108c00" d="m259 372-3 8-3-8h-8l7-5-3-9 7 6 7-6-3 9 7 5z"/><path d="m162 290-6 16-5-15-17-1 14-10-6-18 14 11 15-10-6 17 14 10z"/><path fill="#ffe700" d="m161 290-5 13-4-13-15-1 12-8-6-16 13 10 13-9-5 14 11 9z"/><path fill="#108c00" d="m159 287-3 8-2-8h-9l7-5-3-9 7 6 8-6-3 9 6 5z"/><path d="m199 176-6 16-5-16h-17l13-10-6-18 15 11 15-10-6 17 13 10z"/><path fill="#ffe700" d="m198 175-5 14-4-14h-15l11-9-5-15 13 9 13-9-5 15 11 9z"/><path fill="#108c00" d="m196 173-3 8-2-8h-9l7-5-3-9 7 5 7-5-2 9 6 5z"/><g transform="translate(-251 359)scale(1.036)"><g fill="#009200" stroke="#000" stroke-width="3" transform="matrix(.164 -.016 .012 .184 430 -216)"><ellipse cx="680" cy="586" rx="31" ry="190" transform="matrix(1.405 -.006 .008 1 -534 264)"/><ellipse cx="680" cy="586" rx="31" ry="190" transform="matrix(1.486 -.006 .01 1 -547 267)"/><ellipse cx="680" cy="586" rx="31" ry="190" transform="matrix(1.19 -.006 .007 1.105 -365 214)"/></g><g stroke="#000" transform="translate(73 -10)"><path fill="#a95600" stroke-width="3" d="M238 972c30-2 17-17 32-25s37-4 43 6c7 11 2 21 10 21 9 0 235-13 243-5 9 8 10 25 2 32s-295 14-305 7c-10-6-25-35-25-36z" transform="matrix(.202 .003 -.004 .214 341 -247)"/><path fill="#ff0" stroke-width="4" d="M530 406c0 40 45 27 46 61 0 35-76 3-78-62 2-64 75-97 76-60 2 30-44 21-44 61z" transform="matrix(.148 .002 -.003 .115 340 -82)"/><path fill="#ff0" stroke-width="4" d="M530 406c0 40 45 27 46 61 0 35-76 3-78-62 2-64 75-97 76-60 2 30-44 21-44 61z" transform="matrix(.148 .002 -.003 .115 344 -82)"/><path fill="#ff0" stroke-width="4" d="M530 406c0 40 45 27 46 61 0 35-76 3-78-62 2-64 75-97 76-60 2 30-44 21-44 61z" transform="matrix(.148 .002 -.003 .115 349 -82)"/><path fill="#ff0" stroke-width="4" d="M530 406c0 40 45 27 46 61 0 35-76 3-78-62 2-64 75-97 76-60 2 30-44 21-44 61z" transform="matrix(.148 .002 -.003 .115 353 -82)"/><ellipse cx="478" cy="-41" fill="#a95600" stroke="none" rx="4" ry="3" transform="matrix(1.095 .016 -.024 1.154 -76 5)"/></g><g fill="#009200" stroke="#000" stroke-width="3" transform="rotate(-6 688 -625)"><ellipse cx="427" cy="905" rx="21" ry="24" transform="matrix(.166 -.008 .002 .315 370 -362)"/><ellipse cx="427" cy="905" rx="21" ry="24" transform="matrix(.166 -.008 .002 .315 364 -363)"/><ellipse cx="427" cy="905" rx="21" ry="24" transform="matrix(.166 -.008 .002 .315 361 -371)"/><ellipse cx="427" cy="905" rx="21" ry="24" transform="matrix(.16 -.01 .002 .348 369 -399)"/><ellipse cx="427" cy="905" rx="21" ry="24" transform="matrix(.16 -.008 .002 .326 377 -379)"/><ellipse cx="427" cy="905" rx="21" ry="24" transform="matrix(.16 -.008 .002 .326 373 -382)"/><ellipse cx="427" cy="905" rx="21" ry="24" transform="matrix(.16 -.008 .002 .326 368 -387)"/><ellipse cx="427" cy="905" rx="21" ry="24" transform="matrix(.16 -.008 .002 .326 363 -389)"/></g><path fill="#804bff" stroke="#000" stroke-width="3" d="M173 346s-54 65-21 209c34 145 179 190 179 190s27-47 2-164c-40-170-116-235-116-235z" transform="matrix(.177 .032 -.03 .182 462 -209)"/><g fill="#009200" stroke="#000" stroke-width="3" transform="rotate(5 181 770)"><ellipse cx="427" cy="905" rx="21" ry="24" transform="matrix(.166 -.008 .002 .315 370 -362)"/><ellipse cx="427" cy="905" rx="21" ry="24" transform="matrix(.166 -.008 .002 .315 364 -363)"/><ellipse cx="427" cy="905" rx="21" ry="24" transform="matrix(.166 -.008 .002 .315 361 -371)"/><ellipse cx="427" cy="905" rx="21" ry="24" transform="matrix(.16 -.01 .002 .348 369 -399)"/><ellipse cx="427" cy="905" rx="21" ry="24" transform="matrix(.16 -.008 .002 .326 377 -379)"/><ellipse cx="427" cy="905" rx="21" ry="24" transform="matrix(.16 -.008 .002 .326 373 -382)"/><ellipse cx="427" cy="905" rx="21" ry="24" transform="matrix(.16 -.008 .002 .326 368 -387)"/><ellipse cx="427" cy="905" rx="21" ry="24" transform="matrix(.16 -.008 .002 .326 363 -389)"/></g><ellipse cx="624" cy="606" fill="#c90000" stroke="#000" rx="58" ry="187" transform="matrix(.157 -.06 .064 .148 370 -145)"/><g fill="#009200" stroke="#000" stroke-width="2" transform="rotate(1 242 -1958)"><ellipse cx="218" cy="357" rx="11" ry="13" transform="matrix(.395 0 0 .293 445 -230)"/><ellipse cx="218" cy="357" rx="11" ry="13" transform="matrix(.354 0 0 .293 457 -236)"/><ellipse cx="218" cy="357" rx="11" ry="13" transform="matrix(.354 0 0 .293 452 -236)"/><ellipse cx="218" cy="357" rx="11" ry="13" transform="matrix(.37 0 0 .275 450 -233)"/><ellipse cx="218" cy="357" rx="11" ry="13" transform="matrix(.37 0 0 .275 449 -238)"/><ellipse cx="218" cy="357" rx="11" ry="13" transform="matrix(.354 0 0 .293 447 -239)"/><ellipse cx="218" cy="357" rx="11" ry="13" transform="matrix(.354 0 0 .287 448 -242)"/><ellipse cx="218" cy="357" rx="11" ry="13" transform="matrix(.395 0 0 .293 433 -243)"/><ellipse cx="218" cy="357" rx="11" ry="13" transform="matrix(.37 0 0 .275 446 -243)"/><ellipse cx="218" cy="357" rx="11" ry="13" transform="matrix(.354 0 0 .287 444 -247)"/><ellipse cx="218" cy="357" rx="11" ry="13" transform="matrix(.354 0 0 .293 436 -243)"/><ellipse cx="218" cy="357" rx="11" ry="13" transform="matrix(.354 0 0 .287 437 -244)"/><ellipse cx="218" cy="357" rx="11" ry="13" transform="matrix(.354 0 0 .287 439 -247)"/></g><g fill="#009200" stroke="#000" transform="matrix(.18 -.005 .004 .185 421 -217)"><ellipse cx="529" cy="565" stroke-width="3" rx="67" ry="206" transform="matrix(.976 -.308 .363 .874 -246 324)"/><ellipse cx="529" cy="646" stroke-width="3" rx="13" ry="41" transform="rotate(-23 631 661)"/><path stroke-width="2" d="M140 644c0 58-19 86-35 110 8-32 13-52 13-110s30-85 41-102c-5 17-19 44-19 102z" transform="matrix(1.883 -.456 .953 1.182 -352 -10)"/><path stroke-width="2" d="M140 644c0 58-19 86-35 110 8-32 13-52 13-110s30-85 41-102c-5 17-19 44-19 102z" transform="matrix(1.883 -.456 .953 1.182 -348 44)"/><path stroke-width="2" d="M140 644c0 58-19 86-35 110 8-32 13-52 13-110s30-85 41-102c-5 17-19 44-19 102z" transform="matrix(1.873 -.495 .978 1.162 -362 106)"/><ellipse cx="529" cy="646" rx="13" ry="41" transform="matrix(1.81 -.4 .7 1.635 -916 -221)"/><ellipse cx="529" cy="646" stroke-width="2" rx="13" ry="41" transform="matrix(1.626 -.23 .542 1.353 -739 -92)"/><ellipse cx="529" cy="646" stroke-width="2" rx="13" ry="41" transform="matrix(1.63 -.197 .513 1.363 -751 -92)"/><ellipse cx="529" cy="646" stroke-width="2" rx="13" ry="41" transform="matrix(1.314 -.2 .47 1.01 -531 48)"/><ellipse cx="529" cy="646" stroke-width="2" rx="13" ry="41" transform="matrix(1.326 -.13 .403 1.033 -518 12)"/><path stroke-width="2" d="M146 570c0 34-7 61-15 61s-15-27-15-61" transform="matrix(1.025 -.493 .464 1.177 13 -14)"/><ellipse cx="529" cy="646" stroke-width="2" rx="13" ry="41" transform="matrix(1.326 -.13 .403 1.033 -519 -34)"/><ellipse cx="529" cy="646" stroke-width="2" rx="13" ry="41" transform="matrix(1.33 -.105 .38 1.04 -534 -40)"/><path stroke-width="3" d="M146 570c0 34-7 61-15 61s-15-27-15-61" transform="matrix(.672 -.472 .46 .8 40 143)"/><path stroke-width="3" d="M146 570c0 34-7 61-15 61s-15-27-15-61" transform="matrix(.672 -.472 .46 .8 51 126)"/><path stroke-width="2" d="M146 570c0 34-7 61-15 61s-15-27-15-61" transform="matrix(.937 -.645 .64 1.092 -40 -11)"/><path stroke-width="3" d="M146 570c0 34-7 61-15 61s-15-27-15-61" transform="matrix(.672 -.52 .46 .88 69 71)"/></g><g fill="#804bff" stroke="#000" stroke-width="3"><path d="M276 345c-12 10 1 26 12 31 13 8 87 58 137 12-41 1-119-63-149-43z" transform="matrix(.156 .007 -.004 .225 458 -214)"/><path d="M276 345c-12 10 1 26 12 31 13 8 87 58 137 12-41 1-119-63-149-43z" transform="matrix(.156 .007 -.004 .225 457 -220)"/><path d="M276 345c-12 10 1 26 12 31 13 8 87 58 137 12-41 1-119-63-149-43z" transform="matrix(.156 .007 -.004 .225 455 -226)"/><path d="M276 345c-12 10 1 26 12 31 13 8 87 58 137 12-41 1-119-63-149-43z" transform="matrix(.156 .007 -.004 .225 451 -232)"/></g><g transform="rotate(1 -590 682)"><path fill="#804bff" stroke="#000" stroke-width="3" d="M211 247c22-12 57-9 80 12 19 17 45 75 70 92a58 58 0 0 1-42-15 97 97 0 0 1-64 16c-36-2-62-18-68-41-6-22 5-52 24-64z" transform="matrix(.21 -.04 .047 .18 408 -214)"/><ellipse cx="287" cy="323" fill="red" stroke="#000" stroke-width="3" rx="14" ry="15" transform="matrix(.245 0 0 .134 402 -215)"/><ellipse cx="205" cy="348" fill="#ff0" stroke="#000" stroke-width="3" rx="23" ry="16" transform="matrix(.194 -.076 .068 .173 399 -208)"/><circle cx="284" cy="334" r="6" transform="matrix(.214 0 0 .185 411 -234)"/><path fill="#ff0" stroke="#000" stroke-width="7" d="M517 260c4 18-7 43-33 53q-41 19-56 88c-47-103-23-148 21-160 37-15 60-14 68 19z" transform="matrix(.092 0 -.003 .085 418 -191)"/><circle cx="199" cy="362" r="5" transform="matrix(.187 -.013 .014 .19 419 -235)"/></g></g></g></svg>