<svg xmlns="http://www.w3.org/2000/svg" xmlns:xlink="http://www.w3.org/1999/xlink" viewBox="0 0 512 512"><path fill="#fff" d="M0 0h512v512H0Z"/><path fill="#002d62" d="M0 0h205v205H0Zm307 307h205v205H307Z"/><path fill="#ce1126" d="M0 307h205v205H0ZM307 0h205v205H307Z"/><path fill="#201b18" d="M243 210a37 37 0 0 0-21 5q-3 2-2 5l-3 1-7 3-2 2h6l-1 1-3 4 5-3q8-2 14-6v-3l6-2h14l2-2v-3h10q-1 3 2 5h14l6 2-1 2v1l3 2 6 2 11 5-4-5h6l-6-4-6-2v-3c-1-2-7-5-8-5l-8-2h-7q1-1-1-4l-3-1h-18l-3 1q-2 1-1 4"/><g fill="#002d62"><path d="m244 214 2-2 10-1h7l5 2 1-4q0-3-3-3l-10-1-11 1q-2 0-2 3z"/><path d="m223 223 3-2 10-4h13l1-1 1-1-6 1-2-3v-3q-9 0-16 3l-7 4 1 3zm38-9q0 3 3 3h12l12 4 1 2 2-3v-3l-5-4-9-2-8-1s0 5-2 6z"/><path d="M283 221q-2 0 1 2l12 4 4 2-2-4 5 1v-1l-12-5-2 3-2 1-2-2zm-22-7 4 1h1l2-1-2-2h-4zm-10 0-1-2-6 2 1 1zm-27 9 4-2 1-1-3 1z"/><path d="m283 220 4 2-2-2zm-54 1-1 2-12 4-4 3 2-5-5 1v-1l12-5 1 1 1 2 2 1 2-2z"/></g><path fill="#eac102" d="M230 213h-1l-1 1h1v1l1 2h1l1-1v-2h-1zm0 0 1 1v3l-1-1v-1zm2 0 1 1v1h1l-1-1v-3zm3-1v3l1 1h1v-1l1-1-1-1v-1zm0 0 1 1v1h-1v-1l-1-1zm2-1v1h1l1 1v1h-1v-1h-1v1h3v-1l-1-1-1-1zv1h1v-1zm12-4v4h1v-2h1l1-1-1-1zm0 0v1l-1 1v-2zm3 0v2h1-1v-1h1l1 1q-1 0 0 0v-2zq0-1 0 0m0 0v2-1zm3-1h-1v1zv3h-1 1zv-1zm3 0v4h1v-1l1 1h1-1v-2h1v-1h-1zm0 1h-1zm3 0v3h-1 1zq1 0 0 0m2 0v1l-1 1q0 1 0 0h1q0-1 0 0h1v1h1l-1-1v-3zm0 1 1 1h-1zm7 3v3h2v-1 1h-1v-4zm3 4v-4h-1v4m1-4v3h2l1-1h-1v-1h1l-1-1v-1zm1 1h-1zm0 1-1 1zm2 2h2v-1h-1v-1h1v-1h-1v-1l1 1v-1h-2q1 0 0 0v3m3-3v4h-1 1v-1h1q1 0 0 0v1l1 1-1-1v-1h1v-2zm1 1-1 1v1-2zm2 1q1 0 0 0v3l1 1v-4l1 1v-1h-1zm3 1v1l-1 1h1v-1l1 1-1 1h1v-1l1-1zm0 1v1h-1zm2 0-1 1v1q-1 0 0 0v1h2l1-1-1-2zm1 1v1l-1 1h-1l1-1z"/><path fill="#006300" d="m244 298 3 1 2 4h1l-5 2v2l3-1 6-3 2-1 9 4 2 1 1-1-1-1-5-2h1v-1l2-3 3-1c0-2-19-4-24 0"/><path fill="#ff0" d="m245 306 1 1q1-2-1-1m21 0"/><path fill="#006300" d="m284 230 2 6-1-1-2-3v-1 3l4 6h-1l-1-2-2-3-1-3v1l1 4-2-1-1-1 1 3 2 2 3 4v1l-2-2-3-3 1 1 2 3 3 3 1 2-1-1-2-3-3-3-2-1 3 4 2 1 1 1 2 4 1 1-5-5-2-1 3 3v1l1 1 3 3 1 2-2-2-1-2-3-2-2-2v1l1 1 4 4 1 2-1-1v-1l-2-1-4-2 2 1 2 2 1 1 2 2 1 1 1 3 1 5-2-5q0-3-3-4l-1 1-2 3-1 4v1l1-2 2-3-1 5v-1l2-4 2 10-1-3-2-3-1 2-2-1-1 1v3l1 1v1-5l2 5-3 9-1 1-1 1-1 1 3-5 1-6-6 12 1-3h-1v1l-2 4 2-5v-1l-1 1-2 4v-1l1-2v-1l-1 1v1l-3 6 6 1h11l-3-1-3-1h8-1l-6-1h7q3 0 2-1l-5-1h9l-6-2 3-1 5-2q5 0 1-1l-5 1 1-1 5-1h-1l4-1 3-1 1-1-7 1h-2l6-2h1-1l-5 1-2 1c6-3 4-2 10-3l1-1h-3l-3 1 2-2 1-1h3l-2-1 1-1v-1l-2 2h-5l4-2 1-1 2-1-4 1-3 2 6-6h1l-4 2-4 3 2-3h1l1-1 3-3 1-1 1-1-5 3-2 2-2 1 3-4 5-5 1-1-2 1-5 5h-1l-2 3-2 4 3-6 3-3 4-7-2 2-1 1-5 7 2-4 6-8 1-1 1-1-3 1-6 6 2-6 2-2 1-3-1 1-5 8 2-5 3-4-3 2-2 3-2 6h-1l3-8 2-2 1-1 1-2 1-1q-2 0-4 3l-2 3 2-5 3-3v-1l-5 5v1l-1 2h-1l1-5 3-5-2 2-2 2 3-6-1 1-2 4 1-4-3 5-1 2v1l1-9-1 1v2l-1 3q-2-2-4-9zm1 37 2 7-1 1v-3l-1-3v2-1z"/><g fill="#008f4c"><path d="M293 261c0-4 5-13 7-13l-3 5zl-1 2zm11-2-2 2-11 15q-2 7-1 1a38 38 0 0 1 11-16zm-13-9 2-10 2-3zv2zm-6 20-1 10-5 7 1-1a24 24 0 0 0 5-15z"/><path d="M294 267v6a12 12 0 0 1-8 8h-1l1-1q8-3 8-11z"/><path d="m305 275-5 1-10 2v-1zm-20-42 3 6v3-1zl-1-1z"/><path d="m283 235 4 6 2 2-1-1zv-2zm15 8c-3 2-7 9-6 10l2-3zl1-1zm1 1c-3 3-8 11-7 13l3-5 4-7 1-2zm-16-7 2 6 2 2v-1zl-1-1z"/><path d="m286 242 3 1-1-1-7-4-1-1zm18 9c-4 2-11 12-11 13l4-4zl3-3zm-1 5c-2 4-8 10-9 10l3-4zl2-2zm-23 24-6 10 2-4zl2-2zm11-20-5-7-1-1 6 9zm2 27h-11 12zm-3 1c-3-1-11 0-12 1h4l7-1zm-3 2c-3-1-10 0-11 1h4l9-1zm-3 2-10-1 4 1h7zm12-10c-6 2-14 3-14 5l5-2zl3-1zm8-4-5 1-9 2h-3z"/><path d="m302 277-4 1-10 3v-1zm-1-8c-5 2-13 10-13 11l5-3 7-7 3-1z"/><path d="M304 271c-4 1-14 5-14 7l5-2 8-4 3-1z"/><path d="M304 272q-16 14-20 13l8-5 13-11zm-12 3q2-5 8-8l4-2-1 1zl-1 1zm1-11c1-4 7-17 9-17l-3 5-3 8-3 7zm-3-15v-8l1-3v13zm2 15-4-7q-4-3-1 0zl1 1zm-10 4c2-8 4-7 4-7 5 5 2 20 2 20 0-32-6-13-6-13"/><path d="m284 266 2-7c4 0 4 18 4 18-2-30-6-11-6-11m-2 6q0-6 1-5c3 3 4 14 4 14-5-22-6-9-6-9m10-16-7-10-1-1q4 3 7 11l2 2z"/><path d="m291 253-6-8-1-2 7 12zm-16 31-3 6 1-2zm-2 1-2 6 1-2zm3 0-3 6 1-2z"/></g><path fill="#00873f" d="M218 242v2z"/><g fill="none" stroke="#006300" transform="matrix(.90909 0 0 .9091 -199 -22)"><path d="m455 304-1-1m2-4-1-1m-1 13-2-3m11 30c-5-6-7-16-7-16l4-6m-4 5-1-14 3-17m-3 20c1-7 7-6 7-6"/><path d="M455 311c5-2 4-6 5-8l2-3m-2 32q-2-5 0-5m-1 4q-4-3-5-2m4-11v-5m1 17-4-5m2-31q0-3-1-2"/><g transform="translate(442 224)scale(.1567)"><path id="do-a" fill="red" stroke-width="2" d="M91 426a6 6 0 1 1-12 0 6 6 0 0 1 12 0z"/></g><use xlink:href="#do-a" width="100%" height="100%" transform="matrix(.1567 0 0 .18128 445 235)"/><use xlink:href="#do-a" width="100%" height="100%" transform="translate(444 248)scale(.1567)"/><use xlink:href="#do-a" width="100%" height="100%" transform="translate(440 252)scale(.16899)"/><use xlink:href="#do-a" width="100%" height="100%" transform="translate(439 256)scale(.16899)"/><use xlink:href="#do-a" width="100%" height="100%" transform="translate(440 258)scale(.16899)"/><use xlink:href="#do-a" width="100%" height="100%" transform="translate(463 286)scale(.12289)"/><use xlink:href="#do-a" width="100%" height="100%" transform="translate(464 287)scale(.12289)"/><path d="m459 317-1-2m14 25h2"/></g><g fill="#006300"><path d="m233 290-1-4m-7-2v-2q2 2 4-4l-2 1v-3l1-2-5 3-2-2v5l2 3 1 2h1zm-2 4h-1c-4 1-6-4-6-4h3l3 1zm-4-9h-6v1l3 1q3 3 4 2l1 1zm-7-15q-5-4-6-3v1l2 4h-3l4 3h4l1 1 3 2-1-6z"/><path d="m232 291-2 1c-1 2-6 0-6 0h-1l2-2q-4-4-3-5h5l-2-1 1-1 5 3 1 3zm-16-16h-3l-3-1-3-3h2l4 1 1 1zm3 1h3l4-3 1-2h-1l-2 1v-4h-1l-3 3-2-2h-1v3l1 2z"/><path d="m239 285-2 2-4-3v5l-3-1 2 4h5l2-1zm-21-17 1 2 5 1 3-1-2-2-4-1h-3zm-4-6q0-6 2-7l1 6-1 4z"/><path d="M212 263q-4-1-5-3l5-1 4 3zm-2-4-3-1-2-5 1 1 2 1c-4-3-1-8-1-8v1l2 2 1 1 1-1 2 3v6zm9 6v-3q1-5 3-5l1 3 4-1-2 4h3q-3 6-5 4z"/><path d="M212 251v-4l1 2q3 2 2 3v2q-4-2-3-3m8 0 1-4-2 2-3 2-1 3q5 0 5-3"/><path d="m212 245 1-4 1 2 2 4-1 2q-4-1-3-4m10 1v-4l-2 1-3 3-1 2q4 1 6-2m4 9 2-2h-2q-3-2-4 0l-2 1q4 3 6 1"/><path d="m226 257 2-2h-2l-3-1-2 2q3 3 5 1m-10-16q0-6 2-8l1 4 5-3v2l3-1-4 5-3 1-3 2zm5 10q3-2 4-1 4 0 4-2l1-2h-2l1-3h-1q-1 3-3 2v-2l-1 1-3 3z"/></g><g fill="#00863d"><path d="m221 264 1-1 1-1v1l1-1-1 1h-1zh3q3-2 3-5l-3 1-2 3m-5 7-1-1-1-2-1-1 1 1v-1l1 3zq0-3-3-6h-1q0 4 2 5l1 1zm-1-23v-1h-1 1l-1-1zl2 2zv-3l-2-2-1-1v2l1 4zm4-9 1-1h1v-1l1-1v1l-1 1-2 2h1q2 1 3-2l1-4-4 3zm-10 16-2-4v-1l1 1v1-1l1 2zv-4l-1-1-1-1q-2 3 1 6zm8-7 2-2 1-1v-1q1 2-1 2h1-1zl2-1 2-4-4 2zm-5 10-1-1h-2l-2-1h2v1zl-1-1v-1h-3l-1-1 2 3 1 1zm-1 8-1-1h-2 1l-1-1q0-1 0 0zl-2-3-4-1 1 3 2 1zm2-9-2-4v1l1 1v-1 2zv-3l-2-2-1 2 1 3zm2 7v-5h1v2-1 4-1l1-3-1-4-1 2-1 2 1 3zm2-22 1-3h-1v-1h1v-1 5-1l1-3-1-4-1 2zm-11 25 1 1q2 2 3 1h2v-1h-4 2l-1-1 1 1h2v-1zm2 5 2 2 4 1-1-1h-2l1-1h-2l5 1-2-1q-2-2-5-1m14-23 1-1v-2 1l1-2zl3-3v-4l-2 2zm-2 26 1-1 2-1v1l1-1v1h-2zh2l3-3v-1l-3 2-1 1z"/><path d="m220 264 1-3v-1h1l-1 1v1l2-2-1-2-1 1-1 1zm0 11 1-3v-1h1l1-1-1 2zl1-1 1-1h1v-4l-2 2q-2 1-1 4m3-10h3-5l1 1h3l3-2h-3zm-15-5q1 3 4 2h1l-3-1h1-1l-1-1 4 1-2-1zm11 14-1-3v1zv-3l-1-3v3zm4-36v-1zl-1 1-2 2q3-1 5-5zm1 11 1-1v1l1-2zl1-4 4-2-1 3q0 2-3 2m-10 5-1-2v-2 2l1-1v2zl-1-3-2-2v3zm2 0 2-2 1-2v1l-1 1v-1l-1 2zl2-3 2-1-1 4zm5 0h3l1-1v1h1-3zh4q2 0 3-2-2-2-5 0z"/><path d="M224 256h1zh-1l3 1 3-1-3-1zm0 12-1-1h-4l2 1zm0 1v1l2-1zm-3 1 1-1-1-1h-2l1 1zm7-22-2 1-3 1 4-1 2-3-1 1zm-6 37 2 3 1 2 1-1h2l-2-1h-1 1l-1-2 1 1v-1l1 1 1 1 1 1h2l-2-2-1-1zm2-2v-5l1 1v-2 5-1h1v-4l1-2-2 1-2 5 1 1z"/><path d="m224 291 2 1 4-1 1-1h-2l-2 2 1-1h-2l1-1h4-6zm11-1v-3l1 1-1-2 1 1zl1 1v-4l-3-3v5zm-12-3h-3v-1l1 1v-1l1 1zv-1h-1l-1-1h-4l1 2q2 2 5 1zm-9-8 1 1 1 1 4 1h-1l-1-2-2 1 2-1h-2 3l1 3v-2l-5-2zm10 4-2-4v-1l1 3v-4l-2-2v5zm9 9h1l-1-1v-2 1l1 1 1 1v-2 1h1l-4-3v2zm-2-4-1-2-1-1 1 1zq1-2-1-3l-4-2 2 1 1 2zm7 1v-2zl-1 3 1-1zv-4l-1 2zm-12-8 2-1zl-1 1q2 0 3-3l-2 1z"/></g><g fill="#ce1126"><path d="m243 301 2 1-1 2 5-2-1-1v-2l-2 1zm26-1-2 1 1 3-5-2 1-2v-1l3 1z"/><path d="m250 304 4-2h4l4 2 2-2v-4h-4l-2 1h-4l-3-1h-2l-1 2v1q1 4 2 3"/><path d="m258 301 4 2h-1zm-3 0-5 2h2z"/><path fill="#aa241e" d="M255 298q-2 1 0 3v2h2l1-2v-2l-1-1z"/><path fill="none" d="M258 299c6 0 5-1 5-1m-5 3 5 1m-9-1-4 2m4-4c-6 0-5-1-5-1"/></g><path d="m233 292-8 4-3-6-3-2-3 1-1-2-4-5-1-2h-1l2 6-3-2h-3l1 1q3 2 3 6l5 7 2 1h3l4 6q3 3 8 2l3-1c4-2 2-4 2-6l8-2h24l8 2v3l2 3 7 1 5-3 3-5h3l2-2 5-7 4-6-6 2 1-4 1-3-4 5-2 2-1 3c-4-3-6 3-9 7l-16-5-4-1h-24z"/><g fill="#ce1126"><path d="m227 305 2-3 11-3 7-2h17l8 2 11 3 2 3 3-4 1-2-1-2q-4-3-9-4a92 92 0 0 0-46 0l-9 4q-1 2 1 4l1 2z"/><path d="M214 293q2 0 3 2l6 9q1 2 3 2l4 1 4-2 2-1v-1l-4 2q-4 2-5 0l-3-5-1-2 2-2-2-4-3-3h-3l-2 2z"/><path d="m211 287-2-2-3-1 2 2 3 7 4 5h3l-2-1-2-2q-2-2 1-5l1-1-2-4-4-4 1 3zm25 15-1-2-6 3-1 2q3 1 6-2z"/><path d="m219 298-2-1-3-2v-2c2 0 5 5 5 5m79-5q-2 0-3 2l-6 9q-1 2-3 2l-4 1-4-1-2-2v-1l4 2q4 2 5 0l3-4 1-3-2-2 3-3 2-4h3l2 2z"/><path d="m301 287 2-2 3-1-2 2-3 7-4 5-3 1 2-2 2-2q3-2-1-5l-1-1 2-3 4-4-1 2zm-25 15 1-2 6 3 1 2q-3 1-6-2z"/><path d="m294 298 1-1 3-2 1-1-1-1c-2 0-5 5-5 5"/></g><path fill="#eac102" d="m232 295-1 1 1 1v2h1v-1h-1 1l1 1h1l-1-1-1-1 1-1zm0 1h-1zm1-1 1 1v2h2v-1l-1 1v-1l-1-1h1v-1 1h-1v-1h2l-1-1zm4-1h-1zv1l1 1v1-1q1 0 0 0v-1h1l1-1-1-1zm0 0v1l-1 1v-2m4-1v2h-1v-3h-1v3h1v1l1-1h1v-1zq1 0 0 0m2-1v3h3v-2h-1v-2zm0 1h-1zm0 1v2h-1v-2m2-2v4h2l1-1h-2v-3zm3 0v2h1v-3zm4 2v-1h-1v-2h2-2l-1 1 1 1v1h2zm1-3v2l-1 1v1h1v-1h1v1h1l-1-1v-2zm0 1v2q1 0 0 0v-1zm5-1h-1v4q-1 0 0 0h2v-3zm0 1v3h-1zm3-1v2l1 1h1v-3zm0 1v2l-1-1zm1 3v-2zl1 1v-2h1v3-4h-1v2-2h-1v3zm4 1v-3h-1v4m1 0v-2 1l1 2v-1l1-1v-1h-1v2-2l-1-1v2l-1 1zm3-3v2l1 1v-4zm1 2 1 1h1l1-1h-1q0 2 0 0h-1v-2h1v-1 1h1l-1-1h-1v1zm4-1v1l-1 1v1h1v1h1v-4zm0 1v1q-1 0 0 0zm2 3v-2q0-1 0 0l1 1zv1zl1-1v-2 1l-1 1v-2l-1-1v3zm3-2-1 2v-1h1v2h1v-4zm0 1v1z"/><g transform="translate(-219 -35)scale(.95225)"><path fill="#fff" d="M475 281v41l1 8 6 4h10q6 0 7 3 3-4 8-3h9l5-3q3-4 2-10v-38l1-3 6-6h-62z"/><path fill="#002d62" d="M494 299v-25h-26l7 7v18z"/><path fill="#ce1126" d="M504 299v-25h26l-7 7v18zm-10 10h-19l-1 16q2 10 11 9h9z"/><path fill="#002d62" d="M504 309h19v16c0 7-6 9-10 9h-9z"/><path fill="none" stroke="#000" d="M475 281v41l1 8 6 4h10q4 0 6 2l1 1 3-3h14l5-3q3-4 2-10v-38l1-3 6-6h-62z"/><path fill="#eac102" d="M498 280v3h-3v2h3v11h2v-10h3v-3h-3v-3z"/><g id="do-b"><path fill="#fff" d="M482 284v5l-2-2v32q1 7 8 8 7-1 8-8l-1-17-2-2v-2z"/><path fill="#002d62" d="M482 284v5l-2-2v18l8 8v-21z"/><path fill="#ce1126" d="m491 296 2 3v1l-2-3zm4 7 1 11q-3 2-4 1v-16z"/><path fill="#002d62" d="M496 320c-4 2-4-1-4-1l4-3z"/><path fill="#ce1126" d="m480 310 8 7c1 8 6 5 7 4q-2 6-7 6-7-1-8-8z"/><path fill="none" stroke="#000" stroke-width="0" d="M493 300v-1l-11-15v4zm-13-13v32q1 7 8 8 7-1 8-8l-1-17z"/><g fill="#eac102" stroke="#000" stroke-width="0"><path d="M486 281v-2l-3-3 1 4zm-3-5 3 5"/><path d="M498 301h-1l-12-20 1-1z"/><path d="m485 281 1-1v1zm-4 1v-2l-4-3 2 4zm-4-5 4 5"/><path d="m495 300-15-18 1-1z"/><path d="M480 282v-1h1v1zm0 4-1-2-3-2 2 4zm-4-4 4 4"/><path d="m496 303-17-17 1-1z"/><path d="M479 286v-1h1v1z"/></g></g><use xlink:href="#do-b" width="100%" height="100%" transform="matrix(-1 0 0 1 998 0)"/><g stroke-width="0"><path fill="#ce1126" d="m497 315-1 10-2-1 1-10z"/><path fill="#002d62" d="M496 314v3l2 1v-5z"/><path fill="#002d62" d="M496 327h5c3 0 2-4 2-4l-1-13-5 4z"/><path fill="#002d62" d="M496 327q0 2 2 2 3-2 2-3z"/><path fill="#ce1126" d="M498 313v9q1 2 2 1h1v-3q5-2 3-3l-1-7z"/><path fill="none" d="m501 320-3 1"/><path fill="#fff" d="m501 326-1-15 2-1 1 14q-1 3-2 2"/></g><g fill="#fff"><path fill="#000001" d="m488 302 7 13 15-10-8-11z"/><path d="m489 302 13-8 8 11-15 9z"/><path fill="#000001" d="m495 314 14-9-1-2-7-9-5 4-6 3-1-1v2z"/><path d="M496 298q-3 0-5 2l-2 1 6 11q3 0 4-3l3-1z"/><path d="M496 298q1-3 4-4l1-2 7 11-4 3-2 2zm-1 14-6-11v1l6 11z"/><path fill="#000001" d="M493 303q0-1 0 0m6 2q0-1 0 0m-3 3v1zm1 0q-1 0 0 0m-1 1q0-1 0 0m4-11q0-1 0 0m2 1q0-1 0 0m3 2q0-1 0 0m0 2"/></g></g></svg>