<svg xmlns="http://www.w3.org/2000/svg" xmlns:xlink="http://www.w3.org/1999/xlink" viewBox="0 0 512 512"><path id="eac-a" fill="#fff" fill-opacity="1" fill-rule="nonzero" stroke="none" stroke-dasharray="none" stroke-miterlimit="4" stroke-opacity="1" stroke-width="3" d="M0 348h512v23H0z"/><use xlink:href="#eac-a" width="600" height="330" transform="translate(0 -207)"/><path id="eac-b" fill="#0087ff" fill-opacity="1" fill-rule="nonzero" stroke="none" stroke-dasharray="none" stroke-miterlimit="4" stroke-opacity="1" stroke-width="3" d="M0 371h512v141H0z"/><use xlink:href="#eac-b" width="600" height="330" transform="translate(0 -371)"/><path fill="red" d="M0 310h512v38H0z"/><path fill="#000001" d="M0 164h512v38H0z"/><path fill="#ff0" d="M0 220h512v72H0z"/><path id="eac-c" fill="#008300" fill-opacity="1" fill-rule="nonzero" stroke="none" stroke-dasharray="none" stroke-miterlimit="4" stroke-opacity="1" stroke-width="3" d="M0 292h512v18H0z"/><use xlink:href="#eac-c" width="600" height="330" transform="translate(0 -90)"/><g transform="translate(-41 720)scale(.9309)"><path fill="#fff" stroke="#000" stroke-width="2" d="M320-589a80 80 0 0 0-57 136l-34 11 3 8-11 2 8 26h181l8-26-11-2 3-8-34-11a80 80 0 0 0-56-136z"/><path fill="#008300" d="m231-432 7 23h164l7-23z"/><path fill="#fff" d="m235-429 5 17h159l5-17H275z"/><path d="m141 811-1 5q0 3-2 4l-4 3-6 1-6-1-5-2 3-6 3 2h4l4-1q2-2 2-5v-24h8zm22 13-7-1-4-3-3-4-1-6v-23h8v22l1 4 1 2 2 2h3q3 0 5-2t2-6v-22h8v23l-1 6-3 4-5 3zm32-37 2 5 3 5 2 6 3 6 2-6 3-6 2-5 3-5h7l1 8 1 10v9l1 9h-8v-11l-1-13-2 5-3 6-2 5-2 4h-5l-2-4-2-5-2-6-2-5-1 13-1 11h-8l1-9v-9l1-10 1-8zm51 37-6-1-5-3-2-4-1-6v-23h8v26q0 2 2 2l2 2h3q3 0 4-2 2-2 2-6v-22h8v23l-1 6-2 4-5 3zm23-37h8v36h-8zm30 15 4-7 4-8h9l-7 12-6 11v13h-8v-13l-7-11-6-12h9l4 8zm40 21-1-3-2-4h-14l-1 4-1 3h-9l4-10 3-10 4-8 3-8h8l4 8 3 8 4 10 4 10zm-10-28-1 3-1 3-1 4-2 4h10l-1-4-2-4-1-3zm49 7 4-7 4-8h9l-6 12-7 11v13h-8v-13l-7-11-6-12h9l4 8zm40 21-1-3-1-4h-14l-2 4-1 3h-9l4-10 4-10 3-8 4-8h8l3 8 4 8 3 10 4 10zm-9-28-1 3-1 3-2 4-2 4h11l-2-4-1-4-2-3zm59 28-1-3-1-4h-14l-2 4-1 3h-8l3-10 4-10 3-8 4-8h8l3 8 4 8 3 10 4 10zm-9-28-1 3-1 3-2 4-2 4h11l-2-4-1-4-2-3zm23 28v-36h24v7h-16v8h14v6h-14v15zm40-36q8 0 13 3 4 3 4 9 0 4-2 6l-5 4 3 3 2 3 2 4 2 4h-9l-2-3-2-4-2-3-2-3h-4v13h-8v-35l5-1zm1 7h-3v10h2l7-1 2-4q0-3-2-4zm23-7h9v36h-8zm38 36-2-3-4-5-3-4-4-3v15h-8v-36h8v14l6-7 6-7h10l-7 9-8 8 8 8 8 11zm40 0-1-3-2-4h-14l-1 4-1 3h-9l4-10 4-10 3-8 4-8h7l4 8 3 8 4 10 4 10zm-10-28v3l-2 3-1 4-2 4h10l-1-4-2-4-1-3zm46-8 2 5 2 5 3 6 2 6 3-6 2-6 3-5 2-5h8l1 8v10l1 9v9h-7l-1-11-1-13-2 5-2 6-2 5-2 4h-6l-1-4-3-5-2-6-2-5-1 13v11h-8v-9l1-9 1-10 1-8zm61 36-1-3-2-4h-14l-1 4-2 3h-8l4-10 3-10 4-8 3-8h8l4 8 3 8 4 10 4 10zm-10-28-1 3-1 3-1 4-2 4h10l-1-4-2-4-1-3zm34 22h3l2-1 1-1v-2l-2-3-5-2-4-1-3-2-2-3-1-5 1-4 2-4 4-2 6-1 6 1 5 2-3 6-3-1-5-1-4 1-1 3v1l2 2 2 1h2l5 2 4 3 2 3v4q0 5-3 8-4 3-11 3h-4l-4-1-2-1-2-1 2-6 4 1zm42-30h9v36h-9v-15h-13v15h-8v-36h8v14h13zm41 36-1-3-2-4h-14l-1 4-1 3h-9l4-10 4-10 3-8 4-8h7l4 8 3 8 4 10 4 10zm-10-28v3l-2 3-1 4-2 4h10l-1-4-2-4-1-3zm34-8q8 0 12 3 5 3 5 9 0 4-2 6l-5 4 2 3 3 3 2 4 2 4h-9l-2-3-2-4-2-3-2-3h-4v13h-9v-35l6-1zm0 7h-2v10h2l7-1 2-4q0-3-2-4zm24-7h8v36h-8zm38 36-3-3-3-5-3-4-4-3v15h-8v-36h8v14l6-7 6-7h10l-8 9-7 8 8 8 8 11zm14-36h8v36h-8z" aria-label="JUMUIYA YA AFRIKA MASHARIKI" font-family="Times New Roman" font-size="52" font-weight="700" style="-inkscape-font-specification:&quot;Ubuntu Bold&quot;" transform="matrix(.18901 0 0 .21163 220 -590)"/><g id="eac-d" fill-rule="evenodd"><path fill="#008300" d="m231-432 10-2-3-6 18-7v6h5v10z"/><path fill="#fff" d="M259-431h-22l21-6zm-5-10h-10l10-3zm-13 2 2 4 15-4z"/></g><use xlink:href="#eac-d" width="600" height="330" transform="matrix(-1 0 0 1 639 0)"/><path fill="#ff0" stroke="#000" d="M318-580a71 71 0 0 0-24 137v-8a64 64 0 0 1 25-122h1a64 64 0 0 1 25 122v8a71 71 0 0 0-25-137z"/><path fill="#fff" fill-rule="evenodd" stroke="#000" d="M339-458v10c-6 1-13 8-15 9l-7 4q-3-2-1-3c2-1-2 2-3 1-2-1 1-2 1-2h-3v-2l-4 1v-2l9-8s-6 3 0 0c5-2 6 1 8 1l11-5 2-4z"/><path fill="#fff" fill-rule="evenodd" stroke="#000" d="M300-457v9c6 1 13 8 14 9l7 2 2-1h2q2-1 1-2h4l-1-2h-1c-2 1-5-3-8-3s-4 3-6 1c-2-1 2-4 3-4 5-2 10 0 4-2l-8 1-9-5-2-3z"/><path fill="none" stroke="#000" d="m326-439-4-2m1 3-5-3"/><g id="eac-e" fill="#008300" fill-rule="evenodd" stroke="#000" stroke-dasharray="none" stroke-miterlimit="4" stroke-opacity="1" stroke-width="0"><path d="M292-463c-13 6-13-9-19-9 11-7 9 6 19 9zm-5-17c-6 11 8 13 8 18 7-9-5-8-8-18z"/><path d="M281-476c-15 3-11-10-17-11 13-4 7 6 17 11z"/><path d="M279-491c-8 10 4 10 3 15 8-8-1-7-3-15zm-8 2c-16-3-6-18-11-21 13 1 5 14 11 21z"/><path d="M276-509c-14 7 0 14-5 20 14-1 2-10 5-20zm-7 1c-17-8 0-22-3-27 11 11-5 16 3 27z"/><path d="M279-527c-14 2-7 14-10 19 11-2 2-9 10-19zm-7-4c-8-12 5-15 6-21 4 16-5 11-6 21z"/><path d="M288-541c-13-4-11 9-15 12 11 2 9-8 15-12zm-6-6c-3-10 3-9 9-13 3 8-5 7-9 13zm17-1c-10-8-11 2-17 4 10 5 10-3 17-4zm-6-5c0-5 6-11 12-9 0 8-7 10-12 9z"/></g><use xlink:href="#eac-e" width="600" height="330" transform="matrix(-1 0 0 1 639 0)"/><path fill="none" d="m305-557 14-2 15 2"/><path d="m188-241 1 5 3-1h1v-2l1 4-1-1h-4l1 4v1h4l1-1 1-2v3l-9 2v-1h1v-2l-1-7-1-2h-1l9-2v3l-1-1v-1h-2zm17 6h-4l-1 2v1h1v1h-4l1-1 1-2 4-9h1l4 9 1 2h1v1h-5v-1h1v-2zm0-1-2-5-2 5zm18-5v4h-1l-1-3-2-1h-2l-2 1-1 4v2l1 2 2 1h2l3-1-2 2h-3q-3 0-4-3l-1-4 1-3 3-2 5 1z" font-family="Times New Roman" font-size="18" font-weight="400" style="line-height:125%;text-align:start" transform="translate(167 -387)scale(.74556)"/><path fill="red" d="M317-550h-3l-7 6a13 13 0 0 1-10 0l-8 7-2 9-7 7-2 10q4 2 5 8 1 7-1 10l5 9q3-1 8 3h1l5 8 9 4q3-3 9-3h1q5 0 9 3l9-4 5-8 9-3 5-9-1-9q1-6 5-9l-2-10-7-6v-1q-3-5-2-9l-8-7h-10l-7-6zm8 82"/><path fill="#fbf014" d="M355-509a35 35 0 1 1-71 0 35 35 0 0 1 71 0"/><path fill="#fbf014" d="M352-509a32 32 0 1 1-65 0 32 32 0 0 1 65 0"/><g fill-rule="evenodd" stroke-width="0"><path fill="#0087ff" d="m310-525 11 2-2 10-9 6-5-5 1-9z"/><path fill="#fff" d="M307-517h-5v1h-2v-3h1v-1h-1v-1h1v-2l1-1 1-1v1h1v-2h1v-1h1v-1h-2v-5h2v1-1h2v1l1-1h4l1-1 6 1-1 9-5 3h-1v-1 1h-1v-1h1-1v1h-2v-1 1h-1v1-1h-1v1-1 1h-1 1v1h-1v1z"/><path fill="#fff" d="m314-517 12 6v1h-1l1 1 5 3h1v-2l1-1h-1 1v-1h1v-2h1l1-1v-1h2v-1l-2-3v-12l1-1 2-2h-2l-1-1-3 1v1h-1v1h-1l-3-1h-1l-4-3h-8l-1 1v1h1v1h1-1v1h1v1l1 1v4h-1v1l-1 1h-1v3h1v1-1h2-1v1l-1-1v1h1-2v1zm17 16v-1 2zm1-3v-1z"/><path fill="#fff" d="M334-487h-2v1h-2l-1 1v-1h-2v1h-3l-1 1v-1h-1l-1-1v1h-3v-1h-1v-4l-1-1-1-1v1h-2v-1h-3v-1h-1l-1-1h-1v-1h-1v-1h-1v-2h-1v-3h-2l-1-1 1-1v-3h-1v-2h1v-1h1l1-1v-1h1v-1l-1-1v-1h1v-3l-1-1 1-1h3v3l-1 1h1v2h1v-1l1-1v2l1-1v1h1-1v1-1h1v-1h2l1-1h-4v-1h1l1 1v-1h1v-1h1-1l1-1v1-1l12 6v2l5 3v1h-1v2l-1 1 1 1v1l1 1h1v1h-1v5h1v1h-1 1v2l1 1h-1 1v1l1-1v1z"/></g><path fill="#fff" fill-rule="evenodd" stroke="#000" d="m298-513 1-1q-1-2 2-2v-1l1 1 1-1 1 1 1 2-2 1h-1l-1 1h-3v-1" class="eac-landxx eac-rw"/><path fill="#fff" fill-rule="evenodd" stroke="#000" d="M298-512h2l1-1h3l-1 1 1 1v1h-1v1l-1 1-1 1h-1l-1-2v-2l-1-1" class="eac-landxx eac-bi"/></g></svg>