<svg xmlns="http://www.w3.org/2000/svg" viewBox="0 0 512 512"><defs><clipPath id="er-a"><path d="M0 0h512v512H0z"/></clipPath></defs><g fill-rule="evenodd" clip-path="url(#er-a)"><path fill="#be0027" d="M-48 0h592v512H-48z"/><path fill="#b4d7f4" d="M-48 512h592V256z"/><path fill="#239e46" d="M-48 0h592v256z"/><path fill="#f3e295" d="M149 351q-14 6-14 16h43q0-11-14-16c42-1 79-16 85-26-6-3-14 1-19 0 12-6 51-31 45-57a62 62 0 0 1-26 30c14-22 34-44 17-62 1 10-7 21-10 22 8-23 16-52-2-71 3 7 2 27-2 27-1-15-3-48-20-48 6 5 8 18 8 31q-5-13-17-22a96 96 0 0 0-34-35 36 36 0 0 0 17 29c-7 0-15-14-23-15-6 0-11 6-22 3 1 3 6 5 7 7q-4 2-12-2 10 13 24 11 14-3 29 5h-18c6 6 9 10 19 10 9 0 13-5 16-2l13 20c-10 2-7-11-18-17-6 13 7 28 17 35q0 15 5 25 6 7 5 23c-5-4-11-18-9-28-7 1-9 14-6 20 3 4 4 13 1 17-2 4-3 4-3 12q0 8-7 14 2-6 1-13c-3 6-12 12-14 19-3 6-4 17-17 19-16 3-22 6-33 11-1-8 2-25 9-24s27-7 20-24q-3 8-11 11c5-8 15-15 10-27a35 35 0 0 1-13 15c7-14 1-17-7-7q-4 7-7 23c-4-8-3-20-7-29-4-10 5-12 9-12 11 3 29 3 27-14q-7 8-21 5c10-7 18-20 7-27a25 25 0 0 1-14 19 41 41 0 0 1 0-20q-7 8-10 25l3-24c2-8 8-3 16-2 9 0 20-4 18-16q-5 7-15 6c7-4 20-12 13-23-3 4-4 8-12 9q2-9 9-15-16-1-21 17l-4-17c7-7 7-20-6-23-1 7-1 9 1 14-6-3-15-6-21 0 4 4 10 8 20 3q-4 9-16 3 7 13 17 10c4 10 4 17-6 30q2-11-7-21c-6-6-11 0-2 13a39 39 0 0 1-13-21q-3 17 5 29-3 4-10-7c2 22 11 26 24 21l1 38a61 61 0 0 0-22-20c-1 6 5 13 8 18-5-1-16-10-16-10-2 10 11 19 19 23q-12 0-20-10c0 28 30 23 35 19l3 42c-8-1-8-4-15-4-20-1-36-24-41-41l-2 9q-4-15-13-24 2 5 2 18c-2-5-4-7-4-14 0-5 5-9 5-17-1-5-6-17-6-26q-3 15-8 25 1-14 4-24 7-10 5-20c-3 2-2 5-7 12-2-8 7-19 15-24 6-3 14-14 9-22-6 4-8 9-16 19 5-22 20-28 38-28q8 0 14-7-8 3-16 1 6-6 19-5c5 0 15 0 18-9a42 42 0 0 1-25 2c11-6 29-7 37-14-10-8-35 2-51 13 4-4 12-12 15-18-8-4-31 21-38 35q-9 7-13 15l7-33c-24 9-14 55-20 66 1-13 1-28-4-36-8 6-9 40-1 69q-6-11-10-24c-11 20 7 45 22 64a96 96 0 0 1-30-29c2 37 41 44 47 53-8-3-24-11-30-3a80 80 0 0 1 26 10q14 19 62 19"/></g></svg>