<svg xmlns="http://www.w3.org/2000/svg" viewBox="0 0 512 512"><g font-size="12"><path fill="#fff" fill-rule="evenodd" d="M0 0h512v512H0z"/><path fill="#09c" d="M512 437 73 0H0v73l440 439h72z"/></g><g font-size="12"><path fill="#005bbf" d="M252 376c-68 0-66-65-66-65v-99h132v99s3 65-66 65"/><path fill="none" stroke="#000" d="M297 401c-60 0-58-56-58-56v-87h116v87s2 56-58 56z" transform="matrix(1.13778 0 0 1.13875 -85 -81)"/><path fill="#d81126" d="M252 150s-15-6-28 4c0 0-24-4-26 19v3l1 2 1 2 1 1q-1 2 1 4 2 3 1 5l1 5 1 3v5l3 3c2 0 18 6 43 5 25 0 34-2 44-5l1-3 1-3 2-6v-4l3-5 1-4 1-3 2-1v-9c-1-3-5-15-22-13 0 0-13-9-33-5"/><path fill="none" stroke="#000" stroke-width="2" d="M296 203s-12-6-24 3c0 0-21-3-23 17l1 3v2l1 1v2l1 2 1 5 1 4 2 3v5l2 2c1 0 16 5 38 5 21-1 29-2 38-5l2-2v-4q2-2 2-5v-3l3-5 1-3v-2l2-2v-7c-1-3-4-14-20-11 0 0-11-9-28-5z" transform="matrix(1.13778 0 0 1.13875 -85 -81)"/><path fill="#bcac0b" d="M299 193c-54-17-95-1-95-1l1 3 1 3v3q-1 3 2 4s38-15 86 1l1-3 2-5z"/><path fill="#c8b100" d="M249 283h-23s-3 20 15 27v1h4v3s-6 6-1 13v2h1v3h1v6s0 19-20 28v2h51v-2a36 36 0 0 1-20-28v-6h2v-5c6-7-1-13-1-13v-2h4v-2c18-7 16-28 16-28z"/><path fill="none" stroke="#000" d="M294 319h-20s-2 19 13 24v2h4v2s-6 5-1 11v2h1v3h1v5s-1 17-18 25v1h45v-1c-17-8-18-25-18-25v-5h1v-3h1v-2c5-6-1-11-1-11v-2h4v-2c15-5 13-24 13-24z" transform="matrix(1.13778 0 0 1.13875 -85 -81)"/><path fill="none" d="M241 309h22m-22 2h21m-17 3h13m-14 13h15m-14 2h13m-13 3h13m-21 26h29m-37 7h46m-48 1h49"/><path fill="#ccc" d="M252 281a15 15 0 1 0 0-29 15 15 0 0 0 0 29"/><path fill="none" stroke="#000" d="M297 318a13 13 0 1 0 0-26 13 13 0 0 0 0 26z" transform="matrix(1.13778 0 0 1.13875 -85 -81)"/><path fill="#ccc" d="M218 238h-10v-10h-8v10h-9v8h9v9h8v-9h9z"/><path fill="none" stroke="#000" d="M266 280h-8v-8h-7v8h-8v7h8v8h7v-8h8v-7" transform="matrix(1.13778 0 0 1.13875 -85 -81)"/><path fill="#ccc" d="M314 238h-10v-10h-8v10h-9v8h9v9h9v-9h9z"/><path fill="none" stroke="#000" d="M351 280h-8v-8h-8v8h-8v7h9v8h7v-8h8v-7" transform="matrix(1.13778 0 0 1.13875 -85 -81)"/><path fill="#ccc" d="M265 226h-9v-9h-9v9h-8v8h9v10h8v-10h9z"/><path fill="none" stroke="#000" d="M308 270h-8v-8h-7v8h-8v7h8v8h7v-8h8v-7" transform="matrix(1.13778 0 0 1.13875 -85 -81)"/><path fill="#ccc" d="M218 278h-10v-9h-8v9h-9v8h9v9h8v-9h9z"/><path fill="none" stroke="#000" d="M266 315h-8v-8h-7v8h-8v7h8v8h7v-8h8v-7" transform="matrix(1.13778 0 0 1.13875 -85 -81)"/><path fill="#ccc" d="M314 278h-10v-9h-8v9h-9v8h9v9h9v-9h9z"/><path fill="none" stroke="#000" d="M351 315h-8v-8h-8v8h-8v7h9v8h7v-8h8v-7" transform="matrix(1.13778 0 0 1.13875 -85 -81)"/><path fill="#ccc" d="M218 318h-10v-9h-8v9h-9v9h9v9h8v-9h9z"/><path fill="none" stroke="#000" d="M266 351h-8v-8h-7v8h-8v7h8v8h7v-8h8v-7" transform="matrix(1.13778 0 0 1.13875 -85 -81)"/><path fill="#ccc" d="M314 318h-10v-9h-8v9h-9v9h9v9h9v-9h9z"/><path fill="none" stroke="#000" d="M351 351h-8v-8h-8v8h-8v7h9v8h7v-8h8v-7" transform="matrix(1.13778 0 0 1.13875 -85 -81)"/><path fill="#005bbf" d="M252 131a9 9 0 1 0 0-18 9 9 0 0 0 0 17"/><path fill="none" stroke="#000" d="M297 186a8 8 0 1 0 0-16 8 8 0 0 0 0 16z" transform="matrix(1.13778 0 0 1.13875 -85 -81)"/><path fill="#fc0" d="M260 120h-7v-12h3v-2h-3v-3h-2v3h-3v2h3v12h-7v2h16z"/><path fill="#bcac0b" stroke="#000" d="M304 177h-7v-11h3v-2h-3v-2h-2v2h-2v2h2v11h-6v1h15v-1" transform="matrix(1.13778 0 0 1.13875 -85 -81)"/><path fill="#fc0" d="M216 141s7-1 11 1c0 0-5 5-4 11l2 7 2 8h1s1-6-1-9a11 11 0 0 1-1-11q4-7 5-6c4 1 11 0 13-2q4-3 0-4-7-1-15 4 2-2-15-2-18 3-23 17c-1 6 4 17 8 20l1-3s-8-9-6-17q6-14 22-14"/><path fill="#bcac0b" stroke="#000" d="M265 195s6-1 9 1l-3 10 2 6q2 2 1 6h1s2-4 0-7a10 10 0 0 1-1-10l4-6c3 2 10 0 12-1q4-2-1-3-6-1-13 3 2-2-13-2-16 2-20 16c-1 4 3 14 7 17l1-3s-7-8-5-15q4-11 19-12z" transform="matrix(1.13778 0 0 1.13875 -85 -81)"/><path fill="#fff" d="m239 140 3-1-3-1-4 1z"/><path fill="none" stroke="#000" d="M278 195s-2 2 0 0 7-3 9-2c3 0 0 1-1 1h-5" transform="matrix(1.13778 0 0 1.13875 -85 -81)"/><path fill="#fc0" d="M288 142s-7-1-11 1a17 17 0 0 1 2 18l-2 7h-1s-1-5 1-8a11 11 0 0 0 1-12l-5-6c-4 2-11 0-13-1q-4-3 0-4 8-1 15 3-1-1 15-1 18 1 23 17c1 6-4 17-8 20l-1-3s8-9 6-18q-6-13-22-13"/><path fill="#bcac0b" stroke="#000" d="M328 196h-9a15 15 0 0 1 1 16l-2 7h-1s-1-5 1-7a10 10 0 0 0 1-11l-4-5q-7 1-12-1-4-3 1-4 6-1 13 3-2-1 13-1 16 2 20 15c1 5-3 15-7 17l-1-2s7-8 5-15q-4-12-19-12z" transform="matrix(1.13778 0 0 1.13875 -85 -81)"/><path fill="#fff" d="m265 140-4-1zl4 1z"/><path fill="none" stroke="#000" d="M315 196s2 2 0 0q-4-3-9-3c-3 1 0 1 1 1h5" transform="matrix(1.13778 0 0 1.13875 -85 -81)"/><path fill="#fc0" d="M246 135v25q1 4 5 7s6-2 6-7v-27h-2v23c0 2-1 7-3 7q-2 3-5-7v-22z"/><path fill="#bcac0b" stroke="#000" d="M291 189v23q1 4 5 6s5-2 5-6v-24h-1v21q0 4-4 6-1 1-4-6v-20h-1" transform="matrix(1.13778 0 0 1.13875 -85 -81)"/><path fill="#fff" d="M190 169a3 3 0 1 0 0-6 3 3 0 0 0 0 6"/><path fill="none" stroke="#000" d="M242 220a3 3 0 1 0 0-5 3 3 0 0 0 0 5z" transform="matrix(1.13778 0 0 1.13875 -85 -81)"/><path fill="#fff" d="M188 162a3 3 0 1 0 0-6 3 3 0 0 0 0 6"/><path fill="none" stroke="#000" d="M240 214a3 3 0 1 0 0-6 3 3 0 0 0 0 6z" transform="matrix(1.13778 0 0 1.13875 -85 -81)"/><path fill="#fff" d="M189 154a3 3 0 1 0 0-6 3 3 0 0 0 0 6"/><path fill="none" stroke="#000" d="M241 206a3 3 0 1 0 0-5 3 3 0 0 0 0 5z" transform="matrix(1.13778 0 0 1.13875 -85 -81)"/><path fill="#fff" d="M194 147a3 3 0 1 0 0-6 3 3 0 0 0 0 6"/><path fill="none" stroke="#000" d="M245 200a3 3 0 1 0 0-5 3 3 0 0 0 0 5z" transform="matrix(1.13778 0 0 1.13875 -85 -81)"/><path fill="#fff" d="M199 142a3 3 0 1 0 0-6 3 3 0 0 0 0 6"/><path fill="none" stroke="#000" d="M250 196a3 3 0 1 0 0-6 3 3 0 0 0 0 6z" transform="matrix(1.13778 0 0 1.13875 -85 -81)"/><path fill="#fff" d="M206 139a3 3 0 1 0 0-6 3 3 0 0 0 0 6"/><path fill="none" stroke="#000" d="M256 193a3 3 0 1 0 0-5 3 3 0 0 0 0 5z" transform="matrix(1.13778 0 0 1.13875 -85 -81)"/><path fill="#fff" d="M214 138a3 3 0 1 0 0-7 3 3 0 0 0 0 6"/><path fill="none" stroke="#000" d="M263 192a3 3 0 1 0 0-5 3 3 0 0 0 0 5z" transform="matrix(1.13778 0 0 1.13875 -85 -81)"/><path fill="#fff" d="M221 137a3 3 0 1 0 0-6 3 3 0 0 0 0 6"/><path fill="none" stroke="#000" d="M269 192a3 3 0 1 0 0-6 3 3 0 0 0 0 6z" transform="matrix(1.13778 0 0 1.13875 -85 -81)"/><path fill="#fff" d="M228 138a3 3 0 1 0 0-6 3 3 0 0 0 0 6"/><path fill="none" stroke="#000" d="M275 192a3 3 0 1 0 0-5 3 3 0 0 0 0 5z" transform="matrix(1.13778 0 0 1.13875 -85 -81)"/><path fill="#fff" d="M246 135a3 3 0 1 0 0-6 3 3 0 0 0 0 6"/><path fill="none" stroke="#000" d="M291 190a3 3 0 1 0 0-5 3 3 0 0 0 0 5z" transform="matrix(1.13778 0 0 1.13875 -85 -81)"/><path fill="#fff" d="M252 137a3 3 0 1 0 0-6 3 3 0 0 0 0 6"/><path fill="none" stroke="#000" d="M296 191a3 3 0 1 0 0-5 3 3 0 0 0 0 5z" transform="matrix(1.13778 0 0 1.13875 -85 -81)"/><path fill="#fff" d="M252 159a3 3 0 1 0 0-6 3 3 0 0 0 0 6"/><path fill="none" stroke="#000" d="M296 211a3 3 0 1 0 0-5 3 3 0 0 0 0 5z" transform="matrix(1.13778 0 0 1.13875 -85 -81)"/><path fill="#fff" d="M314 171a3 3 0 1 0 0-6 3 3 0 0 0 0 6"/><path fill="none" stroke="#000" d="M351 222a3 3 0 1 0 0-6 3 3 0 0 0 0 5z" transform="matrix(1.13778 0 0 1.13875 -85 -81)"/><path fill="#fff" d="M316 164a3 3 0 1 0 0-6 3 3 0 0 0 0 6"/><path fill="none" stroke="#000" d="M353 215a3 3 0 1 0 0-5 3 3 0 0 0 0 5z" transform="matrix(1.13778 0 0 1.13875 -85 -81)"/><path fill="#fff" d="M315 156a3 3 0 1 0 0-6 3 3 0 0 0 0 6"/><path fill="none" stroke="#000" d="M352 208a3 3 0 1 0 0-5 3 3 0 0 0 0 5z" transform="matrix(1.13778 0 0 1.13875 -85 -81)"/><path fill="#fff" d="M311 148a3 3 0 1 0 0-6 3 3 0 0 0 0 6"/><path fill="none" stroke="#000" d="M349 202a3 3 0 1 0 0-6 3 3 0 0 0 0 5z" transform="matrix(1.13778 0 0 1.13875 -85 -81)"/><path fill="#fff" d="M306 143a3 3 0 1 0 0-6 3 3 0 0 0 0 6"/><path fill="none" stroke="#000" d="M344 197a3 3 0 1 0 0-5 3 3 0 0 0 0 5z" transform="matrix(1.13778 0 0 1.13875 -85 -81)"/><path fill="#fff" d="M299 140a3 3 0 1 0 0-6 3 3 0 0 0 0 6"/><path fill="none" stroke="#000" d="M338 194a3 3 0 1 0 0-5 3 3 0 0 0 0 5z" transform="matrix(1.13778 0 0 1.13875 -85 -81)"/><path fill="#fff" d="M291 138a3 3 0 1 0 0-6 3 3 0 0 0 0 6"/><path fill="none" stroke="#000" d="M331 193a3 3 0 1 0 0-6 3 3 0 0 0 0 5z" transform="matrix(1.13778 0 0 1.13875 -85 -81)"/><path fill="#fff" d="M284 138a3 3 0 1 0 0-6 3 3 0 0 0 0 6"/><path fill="none" stroke="#000" d="M325 192a3 3 0 1 0 0-5 3 3 0 0 0 0 5z" transform="matrix(1.13778 0 0 1.13875 -85 -81)"/><path fill="#fff" d="M278 137a3 3 0 1 0 0-6 3 3 0 0 0 0 6"/><path fill="none" stroke="#000" d="M319 191a3 3 0 1 0 0-5 3 3 0 0 0 0 5z" transform="matrix(1.13778 0 0 1.13875 -85 -81)"/><path fill="#fff" d="M282 162a3 3 0 1 0 0-6 3 3 0 0 0 0 6"/><path fill="none" stroke="#000" d="M323 213a3 3 0 1 0 0-5 3 3 0 0 0 0 5z" transform="matrix(1.13778 0 0 1.13875 -85 -81)"/><path fill="#fff" d="M284 156a3 3 0 1 0 0-6 3 3 0 0 0 0 6"/><path fill="none" stroke="#000" d="M324 208a3 3 0 1 0 0-5 3 3 0 0 0 0 5z" transform="matrix(1.13778 0 0 1.13875 -85 -81)"/><path fill="#fff" d="M258 136a3 3 0 1 0 0-6 3 3 0 0 0 0 6"/><path fill="none" stroke="#000" d="M302 191a3 3 0 1 0 0-5 3 3 0 0 0 0 5z" transform="matrix(1.13778 0 0 1.13875 -85 -81)"/><path fill="#fff" d="M243 135a3 3 0 1 0 0-6 3 3 0 0 0 0 6"/><path fill="none" stroke="#000" d="M289 190a3 3 0 1 0 0-5 3 3 0 0 0 0 5z" transform="matrix(1.13778 0 0 1.13875 -85 -81)"/><path fill="#fff" d="M240 135a3 3 0 1 0 0-6 3 3 0 0 0 0 6"/><path fill="none" stroke="#000" d="M286 190a3 3 0 1 0 0-5 3 3 0 0 0 0 5z" transform="matrix(1.13778 0 0 1.13875 -85 -81)"/><path fill="#fff" d="M220 162a3 3 0 1 0 0-6 3 3 0 0 0 0 6"/><path fill="none" stroke="#000" d="M269 213a3 3 0 1 0 0-5 3 3 0 0 0 0 5z" transform="matrix(1.13778 0 0 1.13875 -85 -81)"/><path fill="#fff" d="M220 154a3 3 0 1 0 0-6 3 3 0 0 0 0 6"/><path fill="none" stroke="#000" d="M268 207a3 3 0 1 0 0-6 3 3 0 0 0 0 6z" transform="matrix(1.13778 0 0 1.13875 -85 -81)"/><path fill="#fff" d="M222 147a3 3 0 1 0 0-6 3 3 0 0 0 0 6"/><path fill="none" stroke="#000" d="M270 201a3 3 0 1 0 0-6 3 3 0 0 0 0 6z" transform="matrix(1.13778 0 0 1.13875 -85 -81)"/><path fill="#fff" d="M235 136a3 3 0 1 0 0-6 3 3 0 0 0 0 6"/><path fill="none" stroke="#000" d="M282 191a3 3 0 1 0 0-6 3 3 0 0 0 0 6z" transform="matrix(1.13778 0 0 1.13875 -85 -81)"/><path fill="#fff" d="M230 138a3 3 0 1 0 0-6 3 3 0 0 0 0 6"/><path fill="none" stroke="#000" d="M277 192a3 3 0 1 0 0-5 3 3 0 0 0 0 5z" transform="matrix(1.13778 0 0 1.13875 -85 -81)"/><path fill="#fff" d="M225 142a3 3 0 1 0 0-6 3 3 0 0 0 0 6"/><path fill="none" stroke="#000" d="M273 196a3 3 0 1 0 0-5 3 3 0 0 0 0 5z" transform="matrix(1.13778 0 0 1.13875 -85 -81)"/><path fill="#fff" d="M252 140a3 3 0 1 0 0-6 3 3 0 0 0 0 6"/><path fill="none" stroke="#000" d="M296 194a3 3 0 1 0 0-5 3 3 0 0 0 0 5z" transform="matrix(1.13778 0 0 1.13875 -85 -81)"/><path fill="#fff" d="M252 146a3 3 0 1 0 0-6 3 3 0 0 0 0 6"/><path fill="none" stroke="#000" d="M296 200a3 3 0 1 0 0-6 3 3 0 0 0 0 5z" transform="matrix(1.13778 0 0 1.13875 -85 -81)"/><path fill="#fff" d="M252 152a3 3 0 1 0 0-6 3 3 0 0 0 0 6"/><path fill="none" stroke="#000" d="M296 205a3 3 0 1 0 0-5 3 3 0 0 0 0 5z" transform="matrix(1.13778 0 0 1.13875 -85 -81)"/><path fill="#fff" d="M262 136a3 3 0 1 0 0-7 3 3 0 0 0 0 7"/><path fill="none" stroke="#000" d="M305 190a3 3 0 1 0 0-5 3 3 0 0 0 0 5z" transform="matrix(1.13778 0 0 1.13875 -85 -81)"/><path fill="#fff" d="M266 135a3 3 0 1 0 0-6 3 3 0 0 0 0 6"/><path fill="none" stroke="#000" d="M309 189a3 3 0 1 0 0-5 3 3 0 0 0 0 5z" transform="matrix(1.13778 0 0 1.13875 -85 -81)"/><path fill="#fff" d="M271 135a3 3 0 1 0 0-6 3 3 0 0 0 0 6"/><path fill="none" stroke="#000" d="M313 190a3 3 0 1 0 0-5 3 3 0 0 0 0 5z" transform="matrix(1.13778 0 0 1.13875 -85 -81)"/><path fill="#fff" d="M283 148a3 3 0 1 0 0-6 3 3 0 0 0 0 6"/><path fill="none" stroke="#000" d="M324 201a3 3 0 1 0 0-5 3 3 0 0 0 0 5z" transform="matrix(1.13778 0 0 1.13875 -85 -81)"/><path fill="#fff" d="M276 138a3 3 0 1 0 0-6 3 3 0 0 0 0 6"/><path fill="none" stroke="#000" d="M317 193a3 3 0 1 0 0-6 3 3 0 0 0 0 5z" transform="matrix(1.13778 0 0 1.13875 -85 -81)"/><path fill="#fff" d="M280 142a3 3 0 1 0 0-6 3 3 0 0 0 0 6"/><path fill="none" stroke="#000" d="M321 196a3 3 0 1 0 0-5 3 3 0 0 0 0 5z" transform="matrix(1.13778 0 0 1.13875 -85 -81)"/><path fill="#fff" d="m251 188-8 4 8 4 8-4z"/><path fill="none" stroke="#000" d="m296 236-7 4 6 4 8-4-7-4" transform="matrix(1.13778 0 0 1.13875 -85 -81)"/><path fill="#fff" d="m234 189-12 1v8l13-1z"/><path fill="none" stroke="#000" d="m281 237-11 1v7l11-1z" transform="matrix(1.13778 0 0 1.13875 -85 -81)"/><path fill="#058e6e" d="m233 191-9 1v5l9-2z"/><path fill="none" stroke="#000" d="m280 239-8 1v4l8-1v-4" transform="matrix(1.13778 0 0 1.13875 -85 -81)"/><path fill="#fff" d="m268 189 12 2v8l-13-2z"/><path fill="none" stroke="#000" d="m311 237 10 2v7l-11-2z" transform="matrix(1.13778 0 0 1.13875 -85 -81)"/><path fill="#058e6e" d="m270 191 9 1v5l-10-1z"/><path fill="none" stroke="#000" d="m312 239 8 1v4l-8-1v-4" transform="matrix(1.13778 0 0 1.13875 -85 -81)"/><path fill="none" stroke="#000" d="M254 242s37-14 84 1m-82 7s36-14 80 0m-80-9 7 2-5 6" transform="matrix(1.13778 0 0 1.13875 -85 -81)"/><path fill="red" d="m206 201 5-4-6-1 1 2z"/><path fill="none" stroke="#000" d="m256 248 4-4-5-1 1 2zm82-5-8 1 5 6" transform="matrix(1.13778 0 0 1.13875 -85 -81)"/><path fill="red" d="m296 201-3-3 5-1-2 2z"/><path fill="none" stroke="#000" d="m335 248-3-3h5l-2 1zm-70-6 2-1-2-1-1 1zm21-2 1-1-1-1-1 1zm0 3 1-1-1-1-1 1zm20-3 1-1-1-1-1 1zm20 3 2-1-2-1-1 1zm0 3 1-1-1-1-1 1zm-20-3 1-1-1-1-1 1zm-40 3 2-1-2-1-1 1z" transform="matrix(1.13778 0 0 1.13875 -85 -81)"/><path fill="#fc0" d="M203 182s0 8 6 7 4-8 5-8h1s0 6 5 5 5-9 5-10h1s2 9 7 8c6-2 5-8 5-8h1s1 7 6 6q5 1 5-8l3-1s-1 10 4 10q8-3 6-6h1s0 7 5 7 6-6 6-8h4s-5 9 2 10 7-5 7-5h2s-1 8 3 8q6 1 7-7h2s-2 11-9 9q-5-3-5-6s-3 4-8 3q-6-4-4-7s-3 6-8 5q-6-2-5-5s-2 4-6 4q-5-1-6-5 1 2-6 5-4-1-6-4 1 2-6 5-5 0-6-5s-1 6-6 7q-7-1-6-3c1-2-1 4-5 5q-6 2-8-4l-1-6z"/><path fill="#bcac0b" stroke="#000" d="M254 231s0 7 4 6 5-7 5-7h1s0 5 5 5c4-1 4-8 3-9l1-1s2 9 7 7c5-1 5-6 5-6s1 6 5 5q5 1 5-7h2s-1 8 4 8q6-3 5-5h1s0 5 5 5q5-2 4-6h4s-4 7 2 8 6-4 6-4h2s-1 7 3 7q5 1 5-6h2s-1 9-8 8q-4-3-4-6s-2 4-7 3q-5-3-4-6s-2 5-6 4q-5-1-5-4s-2 4-5 3q-5-1-5-4s-1 4-5 4q-4 0-6-3s-1 4-5 4q-5 0-6-4s-1 5-5 6q-6 0-5-2c1-2-1 3-5 4q-5 2-6-4l-1-5z" transform="matrix(1.13778 0 0 1.13875 -85 -81)"/><path fill="#fc0" d="M214 182a2 2 0 1 0 0-3z"/><path fill="#bcac0b" stroke="#000" d="M263 231a2 2 0 1 0 0-3z" transform="matrix(1.13778 0 0 1.13875 -85 -81)"/><path fill="#fc0" d="M239 178a2 2 0 1 0 0-3z"/><path fill="#bcac0b" stroke="#000" d="M285 228a2 2 0 1 0 0-3z" transform="matrix(1.13778 0 0 1.13875 -85 -81)"/><path fill="#fc0" d="M264 179a2 2 0 1 0 0-4 2 2 0 0 0 0 4"/><path fill="#bcac0b" stroke="#000" d="M307 229a2 2 0 1 0 0-4z" transform="matrix(1.13778 0 0 1.13875 -85 -81)"/><path fill="#fc0" d="M289 183a2 2 0 1 0 0-4 2 2 0 0 0 0 4"/><path fill="#bcac0b" stroke="#000" d="M329 232a2 2 0 1 0 0-3z" transform="matrix(1.13778 0 0 1.13875 -85 -81)"/><path fill="#fc0" d="M251 176h-2l-4 3v-3l-4-3 5-2q-2-2-1-3 4 1 4 3-1 2-2-6l2 1s0-5 3-6c2 1 2 6 2 6l2-1q-1 7-2 6 0-2 5-3l-1 4 4 1q1 1-4 3l1 3s-4-1-4-3z"/><path fill="#bcac0b" stroke="#000" d="M295 226h-1q-3 3-4 2l1-2q-5-2-4-3l4-1-1-3 4 2q-1 1-2-5l2 1 2-5q3 3 2 5l2-1q-1 6-2 5 0-2 4-2v3l4 1q1 1-4 3v3l-3-3z" transform="matrix(1.13778 0 0 1.13875 -85 -81)"/><path fill="#fff" d="M251 177a3 3 0 1 0 0-7 3 3 0 0 0 0 7"/><path fill="none" d="M251 177a3 3 0 1 0 0-7 3 3 0 0 0 0 7"/><path fill="#fff" d="M251 176a2 2 0 1 0 0-4 2 2 0 0 0 0 4"/><path fill="none" d="M251 176a2 2 0 1 0 0-4 2 2 0 0 0 0 4"/><path fill="#fc0" d="M278 179h1c0 2 4 3 4 3v-3q6-1 5-2l-4-2 1-3-5 1q2 2 3-5l-2 1s1-5-1-6c-2 0-3 5-3 5l-2-2c-2 5 1 7 1 7l-4-4v3l-5 1 3 3-1 4 5-2h4"/><path fill="#bcac0b" stroke="#000" d="M319 228h2l3 3v-2l4-2-4-2 2-3-5 1q2 2 3-4h-2q1-2-1-5c-2 0-3 4-3 4l-2-1 1 6q1-1-3-3v3h-4l3 3-1 3 4-2 1 1h2" transform="matrix(1.13778 0 0 1.13875 -85 -81)"/><path fill="#fff" d="M276 179a4 4 0 1 1 2-7 4 4 0 0 1-1 7"/><path fill="none" d="M276 179a4 4 0 1 1 2-7 3 3 0 0 1-1 7z"/><path fill="#fff" d="M277 178a2 2 0 1 1 1-4 2 2 0 0 1-1 4"/><path fill="none" d="M277 178a2 2 0 1 1 1-4 2 2 0 0 1-1 4"/><path fill="#fc0" d="M224 178h-1c0 2-4 4-4 4v-4q-5-1-4-2l4-2-1-3 5 2-3-5h2s-1-5 1-6h1q3 3 2 5l3-1q-1 7-2 6 0-2 4-3v4q2-1 5 1l-4 3 1 3-5-2h-1z"/><path fill="#bcac0b" stroke="#000" d="M272 228h-1l-3 3v-3l-4-2 3-2-1-3 5 2q-2 1-3-5l2 1 1-5h1l2 4 2-1q0 6-2 6 0-2 4-3v3q1-1 4 1l-3 2 1 3s-4 0-4-2h-2l-2 1" transform="matrix(1.13778 0 0 1.13875 -85 -81)"/><path fill="#fff" d="M225 179a3 3 0 1 0 0-7 3 3 0 0 0 1 7"/><path fill="none" d="M225 179a3 3 0 1 0 0-7 3 3 0 0 0 0 7"/><path fill="#fff" d="M225 177a2 2 0 1 0 0-3z"/><path fill="none" d="M225 177a2 2 0 1 0 0-3z"/><path fill="#fc0" d="M302 186s-1-3-3-2l-4 1 1-3-4-3 5-1 1-3q2 0 3 3-1-1 1-7l2 3s1-4 6-3l-3 4-3 3-1 3v2z"/><path fill="#bcac0b" stroke="#000" d="M340 234s-1-2-2-1l-3 1v-3l-3-3 4-1 1-2q2 0 3 3-1-1 1-6l1 2q0-2 5-2l-2 3-3 3v2l-1 2z" transform="matrix(1.13778 0 0 1.13875 -85 -81)"/><path fill="#fff" d="M299 181a3 3 0 0 1 5-2l-1 2v2l-1 2a3 3 0 0 1-3-4"/><path fill="none" d="M299 181a3 3 0 0 1 5-2l-1 2v2l-1 2a3 3 0 0 1-3-4"/><path fill="#fff" d="M300 181a2 2 0 0 1 4 0h-1v2h-1z"/><path fill="none" d="M300 181a2 2 0 0 1 4-1l-1 1v2h-1z"/><path fill="#fc0" d="M202 185s1-3 2-2l4 1v-2q2 0 3-4l-5-1v-3s-4 1-4 3v-7l-2 3s-1-4-6-3l3 4 2 3 1 3 1 2z"/><path fill="#bcac0b" stroke="#000" d="M252 233s1-2 3-1l3 1v-2l3-3-5-1v-3q-2 0-3 3 1-1-1-6l-1 2q1-1-5-3l2 4 2 3 1 2v2z" transform="matrix(1.13778 0 0 1.13875 -85 -81)"/><path fill="#fff" d="M205 180a3 3 0 0 0-6-2l1 2 1 2v2h1a3 3 0 0 0 3-4"/><path fill="none" d="M205 180a3 3 0 0 0-6-2l1 2 1 2v2h1a3 3 0 0 0 3-4"/><path fill="#fff" d="m203 180-3-1v1l1 2z"/><path fill="none" d="m203 180-3-1v1l1 2z"/><path fill="none" stroke="#000" stroke-width="2" d="M257 252s34-14 77 0" transform="matrix(1.13778 0 0 1.13875 -85 -81)"/><path fill="none" stroke="#000" d="M338 241c-47-15-84-1-84-1" transform="matrix(1.13778 0 0 1.13875 -85 -81)"/><path fill="red" d="m251 190-4 2 4 2 5-2z"/><path fill="none" stroke="#000" d="m296 238-4 2 4 2 4-2-4-2" transform="matrix(1.13778 0 0 1.13875 -85 -81)"/></g></svg>