<svg xmlns="http://www.w3.org/2000/svg" viewBox="0 0 512 512"><path fill="#AA151B" d="M0 0h512v512H0z"/><path fill="#F1BF00" d="M0 128h512v256H0z"/><path fill="#ad1519" d="m172 228-1-1-1-1h-1l-1-1v-2l2-2h1l1-1h3l1-1h7l4 2h2l1 1 1 1v1l-1 1v1l-1 1-1 1-9-1z"/><path fill="none" d="m172 228-1-1-1-1h-1l-1-1v-2l2-2h1l1-1h3l1-1h7l4 2h2l1 1 1 1v1l-1 1v1l-1 1-1 1-9-1z"/><path fill="#c8b100" d="M178 221q0-3 2-3l1 3-1 2z"/><path fill="none" d="M178 221q0-3 2-3l1 3-1 2z"/><path fill="#c8b100" d="m179 221 1-2v4z"/><path fill="none" d="m179 221 1-2v4z"/><path fill="#c8b100" d="m179 218 1 1-1 1zm1 0h-1v-3h1v1h1v1h-1z"/><path fill="none" d="M180 218h-1v-3h1v1h1v1h-1z"/><path fill="#c8b100" d="M181 218h-3 1v-3h1v1h1v1h-1v1z"/><path fill="none" d="M181 218h-3 1v-3h1v1h1v1h-1v1z"/><path fill="none" d="m180 217 1 1-1 1-1-1z"/><path fill="#c8b100" d="M180 227h-5v-1l-1-1v-2l-3-2v-1q3-1 6 4l1 1h4v-1q3-5 6-4v1l-3 2v4z"/><path fill="none" d="M180 227h-5v-1l-1-1v-2l-3-2v-1q3-1 6 4l1 1h4v-1q3-5 6-4v1l-3 2v4z"/><path fill="none" d="M171 221q2-1 5 3m12-3q-2-1-5 3"/><path fill="#c8b100" d="M172 230v-1l8-1 8 1h-1v1h-14z"/><path fill="none" d="M172 230v-1l8-1 8 1h-1v1z"/><path fill="#c8b100" d="m180 232 6-1h1l-1-1-7-1-6 1-1 1h1z"/><path fill="none" d="m180 232 6-1h1l-1-1-7-1-6 1-1 1h1z"/><path fill="#c8b100" d="M188 227h-2l-1-1-2 1-1-1-1 1-2-1-1 1-1-1-1 1-2-1v1h-2v1z"/><path fill="none" d="M188 227h-2l-1-1-2 1-1-1-1 1-2-1-1 1-1-1-1 1-2-1v1h-2v1z"/><path fill="#c8b100" d="m180 225 1 1h1v-1 1h1l1-1h1v1l1 1 1-1 1 1h1v-1l-1 2h-1v-1h-4l-1-1-1 1-1-1-2 1h-6v1h-1l-1-2 1 1h1v-1l1 1 1-1v-1h1l1 2 1-1v-1 1h1z"/><path fill="none" d="m180 225 1 1h1v-1 1h1l1-1h1v1l1 1 1-1 1 1h1v-1l-1 2h-1v-1h-4l-1-1-1 1-1-1-2 1h-6v1h-1l-1-2 1 1h1v-1l1 1 1-1v-1h1l1 2 1-1v-1 1h1z"/><path fill="#c8b100" d="m180 228-8 1-1-1h1l8-1 8 1-1 1z"/><path fill="none" d="m180 228-8 1-1-1h1l8-1 8 1-1 1z"/><path fill="#fff" d="M177 229q1 0 0 0"/><path fill="none" d="M177 229q1 0 0 0"/><path fill="#ad1519" d="M180 229h-2l1-1z"/><path fill="none" d="M180 229h-2l1-1z"/><path fill="#058e6e" d="M175 229h-1z"/><path fill="none" d="M175 229h-1z"/><path fill="#058e6e" d="m185 229-1-1v1z"/><path fill="none" d="m185 229-1-1v1z"/><path fill="#ad1519" d="m180 232-7-1 7-1 6 1z"/><path fill="none" d="m180 232-7-1 7-1 6 1z"/><path fill="#c8b100" d="M187 226q1 0 0 0"/><path fill="none" d="M187 226q1 0 0 0"/><path fill="#c8b100" d="m180 222-1 1v1l1 1v-2z"/><path fill="none" d="m180 222-1 1v1l1 1v-2z"/><path fill="#c8b100" d="M178 225h1l1-1h-2z"/><path fill="none" d="M178 225h1l1-1h-2z"/><path fill="#c8b100" d="M182 225h-1v-1h1z"/><path fill="none" d="M182 225h-1v-1h1z"/><path fill="#c8b100" d="m174 223 1 1h1z"/><path fill="none" d="m174 223 1 1h1z"/><path fill="#c8b100" d="m172 225 1-1z"/><path fill="none" d="m172 225 1-1z"/><path fill="#c8b100" d="M176 225h-2z"/><path fill="none" d="M176 225h-2z"/><path fill="#c8b100" d="M171 226h-2l1-1z"/><path fill="none" d="M171 226h-2l1-1z"/><path fill="#c8b100" d="m185 223 1 1-1 1z"/><path fill="none" d="m185 223 1 1-1 1z"/><path fill="#c8b100" d="m187 225-1-1z"/><path fill="none" d="m187 225-1-1z"/><path fill="#c8b100" d="M183 225h2z"/><path fill="none" d="M183 225h2z"/><path fill="#c8b100" d="M188 226h2l-1-1z"/><path fill="none" d="M188 226h2l-1-1z"/><path fill="#c8b100" d="m179 225 1-1v1z"/><path fill="none" d="m179 225 1-1v1z"/><path fill="#c8b100" d="M184 225v1z"/><path fill="none" d="M184 225v1z"/><path fill="#c8b100" d="M169 226v-1z"/><path fill="none" d="M169 226v-1z"/><path fill="#c8b100" d="M190 226v-1z"/><path fill="none" d="M190 226v-1z"/><path fill="#c8b100" d="M168 238h23v-6h-23z"/><path fill="none" d="M168 238h23v-6h-23z"/><path fill="#c8b100" d="M171 242h18l-1-1 1-2h-18l1 2z"/><path fill="none" d="M171 242h18l-1-1 1-2h-18l1 2z"/><path fill="#c8b100" d="M171 242h17l1 1-1 1h-17l-1-1z"/><path fill="none" d="M171 242h17l1 1-1 1h-17l-1-1z"/><path fill="#c8b100" d="M171 238h17l1 1h-19z"/><path fill="none" d="M171 238h17l1 1h-19z"/><path fill="#005bbf" d="m196 339-4-1-4-1-4 1-4 1-4-1-4-1-4 1-4 1v2l4-1 4-1 4 1 4 1 4-1 4-1 4 1 4 1z"/><path fill="none" d="m196 339-4-1-4-1-4 1-4 1-4-1-4-1-4 1-4 1v2l4-1 4-1 4 1 4 1 4-1 4-1 4 1 4 1z"/><path fill="#ccc" d="m196 341-4-1-4-1-4 1-4 1-4-1-4-1-4 1-4 1v2h4l4-1 4 1 4 1 4-1 4-1 4 1 4 1z"/><path fill="none" d="m196 341-4-1-4-1-4 1-4 1-4-1-4-1-4 1-4 1v2h4l4-1 4 1 4 1 4-1 4-1 4 1 4 1z"/><path fill="#005bbf" d="m196 344-4-1-4-1-4 1-4 1-4-1-4-1-4 1-4 1v2l4-1 4-1 4 1h8l4-1 4 1 4 1z"/><path fill="none" d="m196 344-4-1-4-1-4 1-4 1-4-1-4-1-4 1-4 1v2l4-1 4-1 4 1h8l4-1 4 1 4 1z"/><path fill="#ccc" d="m196 349-4-1-4-1-4 1-4 1-4-1-4-1-4 1-4 1v-3l4-1 4-1 4 1 4 1 4-1 4-1 4 1 4 1z"/><path fill="none" d="m196 349-4-1-4-1-4 1-4 1-4-1-4-1-4 1-4 1v-3l4-1 4-1 4 1 4 1 4-1 4-1 4 1 4 1z"/><path fill="#005bbf" d="m196 351-4-1-4-1-4 1-4 1-4-1-4-1-4 1-4 1v-2l4-1 4-1 4 1 4 1 4-1 4-1 4 1 4 1z"/><path fill="none" d="m196 351-4-1-4-1-4 1-4 1-4-1-4-1-4 1-4 1v-2l4-1 4-1 4 1 4 1 4-1 4-1 4 1 4 1z"/><path fill="#c8b100" d="M171 329q-1 3-3 3h23q-2 0-3-3h1-1z"/><path fill="none" d="M171 329q-1 3-3 3h23q-2 0-3-3h1-1z"/><path fill="#c8b100" d="M171 327h17l1 1h-19z"/><path fill="none" d="M171 327h17l1 1h-19z"/><path fill="#c8b100" d="M168 338h23v-6h-23z"/><path fill="none" d="M168 338h23v-6h-23z"/><path fill="#ad1519" d="m166 306-3 3 1 2q3 2 2 4a6 6 0 0 0 0-9"/><path fill="none" d="m166 306-3 3 1 2q3 2 2 4a6 6 0 0 0 0-9"/><path fill="#ccc" d="M171 326h17v-82h-17z"/><path fill="none" d="M183 245v81m2-81v81m-14 0h17v-81h-17z"/><path fill="#ad1519" d="m205 275-17-3-8 1q-16 3-17 9l-4-9q1-6 19-10h10q11 0 17 2z"/><path fill="none" d="m205 275-17-3-8 1q-16 3-17 9l-4-9q1-6 19-10h10q11 0 17 2z"/><path fill="#ad1519" d="M171 285q-6 0-8-3 0-3 4-5h4z"/><path fill="none" d="M171 285q-6 0-8-3 0-3 4-5h4z"/><path fill="#ad1519" d="m188 279 6 2q1 2-6 6z"/><path fill="none" d="m188 279 6 2q1 2-6 6z"/><path fill="#ad1519" d="M161 301q1-2 10-6l9-4q15-7 14-10l1 8q0 4-13 10l-11 4-9 6z"/><path fill="none" d="M161 301q1-2 10-6l9-4q15-7 14-10l1 8q0 4-13 10l-11 4-9 6z"/><path fill="#c8b100" d="m170 271 3-3-3-1-3 1 2 6h2zm-1-3 1 1v1l-1 1zm8-3-1 1h-1l1 6 5-1h-3zm9 6 2-7h-1l-2 5-2-5-1 1h-1l4 6zm9-5h-2q-3-1-3 1c-1 2 3 2 3 4l-2 1-1-2-1 2h2q3 1 3-1c1-3-3-3-3-4l2-1z"/><path fill="#ad1519" d="m332 226-1-1-1 1-2-1-1 1h-1l-1 1-1-1-1-1v-1l-1-1 3-1h2l3-1 3 1 3-1 4 1h2l2 1v2h-1l-1 1-1 1v-1h-2l-1-1-1 1-1-1-1 1z"/><path fill="none" d="m332 226-1-1-1 1-2-1-1 1h-1l-1 1-1-1-1-1v-1l-1-1 3-1h2l3-1 3 1 3-1 4 1h2l2 1v2h-1l-1 1-1 1v-1h-2l-1-1-1 1-1-1-1 1z"/><path fill="#c8b100" d="m331 221 1-2 2 2-2 2z"/><path fill="none" d="m331 221 1-2 2 2-2 2z"/><path fill="#c8b100" d="M332 221v-1l1 1-1 2z"/><path fill="none" d="M332 221v-1l1 1-1 2z"/><path fill="#c8b100" d="M325 230v-1l7-1 8 1-1 1z"/><path fill="none" d="M325 230v-1l7-1 8 1-1 1z"/><path fill="#c8b100" d="m332 232 7-1h1l-1-1-7-1-6 1-1 1h1z"/><path fill="none" d="m332 232 7-1h1l-1-1-7-1-6 1-1 1h1zm11-7-3-3-1 1m-1 0q0-2-3-2l-1 1m5-2v1q0 1 0 0z"/><path fill="#c8b100" d="M340 227h-2l-1-1-1 1-1-1-2 1-1-1-1 1-1-1-1 1-2-1-1 1h-2l1 1z"/><path fill="none" d="M340 227h-2l-1-1-1 1-1-1-2 1-1-1-1 1-1-1-1 1-2-1-1 1h-2l1 1zm-12-8q1 0 0 0m-6 6 3-3 2 1m0 0 2-2 2 1m-7-2v1z"/><path fill="#c8b100" d="m332 225 1 1h1v-1 1l1 1a1 1 0 0 0 1-2h1v1l1 1 1-1v1h1l1-1v1l-1 1h-1v-1l-1 1-2-1h-3l-2-1-2 1h-5l-1 1h-1l-1-1v-1l1 1h2v-1l1 1 1-1v-1l2 2 1-1v-1 1h1z"/><path fill="none" d="m332 225 1 1h1v-1 1l1 1a1 1 0 0 0 1-2h1v1l1 1 1-1v1h1l1-1v1l-1 1h-1v-1l-1 1-2-1h-3l-2-1-2 1h-5l-1 1h-1l-1-1v-1l1 1h2v-1l1 1 1-1v-1l2 2 1-1v-1 1h1z"/><path fill="#c8b100" d="m332 228-7 1-1-1 8-1 8 1h1l-1 1z"/><path fill="none" d="m332 228-7 1-1-1 8-1 8 1h1l-1 1z"/><path fill="#fff" d="M329 229v1z"/><path fill="none" d="M329 229v1z"/><path fill="#ad1519" d="M332 229h3l-1 1z"/><path fill="none" d="M332 229h3l-1 1z"/><path fill="#058e6e" d="m327 229 1-1v1z"/><path fill="none" d="m327 229 1-1v1z"/><path fill="#fff" d="M334 229v1z"/><path fill="none" d="M334 229v1z"/><path fill="#058e6e" d="M337 229h1z"/><path fill="none" d="M337 229h1z"/><path fill="#ad1519" d="m332 232-6-1h13z"/><path fill="none" d="m332 232-6-1h13z"/><path fill="#c8b100" d="M332 222v2l1-1v-1z"/><path fill="none" d="M332 222v2l1-1v-1z"/><path fill="#c8b100" d="M330 225h1v-1h-1z"/><path fill="none" d="M330 225h1v-1h-1z"/><path fill="#c8b100" d="M334 225h-1l-1-1h2z"/><path fill="none" d="M334 225h-1l-1-1h2z"/><path fill="#c8b100" d="m327 223-1 1 1 1z"/><path fill="none" d="m327 223-1 1 1 1z"/><path fill="#c8b100" d="m325 225 1-1z"/><path fill="none" d="m325 225 1-1z"/><path fill="#c8b100" d="M329 225h-2z"/><path fill="none" d="M329 225h-2z"/><path fill="#c8b100" d="M324 226h-2l1-1z"/><path fill="none" d="M324 226h-2l1-1z"/><path fill="#c8b100" d="m338 223-1 1z"/><path fill="none" d="m338 223-1 1z"/><path fill="#c8b100" d="m340 225-1 1-1-1z"/><path fill="none" d="m340 225-1 1-1-1z"/><path fill="#c8b100" d="M336 225h2z"/><path fill="none" d="M336 225h2z"/><path fill="#c8b100" d="M341 226h1l-1-1z"/><path fill="none" d="M341 226h1l-1-1"/><path fill="#c8b100" d="M332 225v-1z"/><path fill="none" d="M332 225v-1z"/><path fill="#c8b100" d="M337 225v1z"/><path fill="none" d="M337 225v1z"/><path fill="#c8b100" d="m331 219 1-1 1 1-1 1z"/><path fill="#c8b100" d="M333 219h-1v-2h-1 1v-1h1z"/><path fill="none" d="M333 219h-1v-2h-1 1v-1h1z"/><path fill="#c8b100" d="M334 219h-3 1v-2h-1 1v-1h1v3z"/><path fill="none" d="M333 218v1l-1 1-1-1z"/><path fill="#c8b100" d="m322 226-1-1h2z"/><path fill="none" d="m322 226-1-1h2z"/><path fill="#c8b100" d="m343 226 1-1h-2z"/><path fill="none" d="m343 226 1-1h-2z"/><path fill="#c8b100" d="M343 226v1z"/><path fill="none" d="M343 226v1z"/><path fill="#c8b100" d="M321 238h23v-6h-23z"/><path fill="none" d="M321 238h23v-6h-23z"/><path fill="#c8b100" d="M341 242h-18l1-1-1-2h18l-1 2z"/><path fill="none" d="M341 242h-18l1-1-1-2h18l-1 2z"/><path fill="#c8b100" d="M324 242h17l1 1-1 1h-17l-1-1z"/><path fill="none" d="M324 242h17l1 1-1 1h-17l-1-1z"/><path fill="#c8b100" d="M324 238h17l1 1h-19z"/><path fill="none" d="M324 238h17l1 1h-19z"/><path fill="#005bbf" d="m316 339 4-1 4-1 4 1 4 1 4-1 4-1 4 1 4 1v2l-4-1-4-1-4 1-4 1-4-1-4-1-4 1-4 1z"/><path fill="none" d="m316 339 4-1 4-1 4 1 4 1 4-1 4-1 4 1 4 1v2l-4-1-4-1-4 1-4 1-4-1-4-1-4 1-4 1z"/><path fill="#ccc" d="m316 341 4-1 4-1 4 1 4 1 4-1 4-1 4 1 4 1v2h-4l-4-1-4 1-4 1-4-1-4-1-4 1-4 1z"/><path fill="none" d="m316 341 4-1 4-1 4 1 4 1 4-1 4-1 4 1 4 1v2h-4l-4-1-4 1-4 1-4-1-4-1-4 1-4 1z"/><path fill="#005bbf" d="m316 344 4-1 4-1 4 1 4 1 4-1 4-1 4 1 4 1v2l-4-1-4-1-4 1-4 1-4-1-4-1-4 1-4 1z"/><path fill="none" d="m316 344 4-1 4-1 4 1 4 1 4-1 4-1 4 1 4 1v2l-4-1-4-1-4 1-4 1-4-1-4-1-4 1-4 1z"/><path fill="#ccc" d="m316 349 4-1 4-1 4 1 4 1 4-1 4-1 4 1 4 1v-3l-4-1-4-1-4 1-4 1-4-1-4-1-4 1-4 1z"/><path fill="none" d="m316 349 4-1 4-1 4 1 4 1 4-1 4-1 4 1 4 1v-3l-4-1-4-1-4 1-4 1-4-1-4-1-4 1-4 1z"/><path fill="#005bbf" d="m316 351 4-1 4-1 4 1 4 1 4-1 4-1 4 1 4 1v-2l-4-1-4-1-4 1-4 1-4-1-4-1-4 1-4 1z"/><path fill="none" d="m316 351 4-1 4-1 4 1 4 1 4-1 4-1 4 1 4 1v-2l-4-1-4-1-4 1-4 1-4-1-4-1-4 1-4 1z"/><path fill="#c8b100" d="M341 329q0 3 3 3h-23q2 0 2-3z"/><path fill="none" d="M341 329q0 3 3 3h-23q2 0 2-3z"/><path fill="#c8b100" d="M324 327h17l1 1h-19z"/><path fill="none" d="M324 327h17l1 1h-19z"/><path fill="#c8b100" d="M321 338h23v-6h-23z"/><path fill="none" d="M321 338h23v-6h-23z"/><path fill="#ad1519" d="m346 306 4 3-2 2q-3 2-2 4a6 6 0 0 1 0-9"/><path fill="none" d="m346 306 4 3-2 2q-3 2-2 4a6 6 0 0 1 0-9"/><path fill="#ccc" d="M324 326h17v-82h-17z"/><path fill="none" d="M336 244v82m2-82v82m-14 0h17v-82h-17z"/><path fill="#ad1519" d="M307 275a53 53 0 0 1 25-2q17 3 17 9s4-9 4-9q-1-6-19-10h-10q-11 0-17 2z"/><path fill="none" d="M307 275a53 53 0 0 1 25-2q17 3 17 9s4-9 4-9q-1-6-19-10h-10q-11 0-17 2z"/><path fill="#ad1519" d="M341 285q7 0 8-3 0-3-4-5h-4z"/><path fill="none" d="M341 285q7 0 8-3 0-3-4-5h-4z"/><path fill="#ad1519" d="m324 279-6 2q-1 2 6 6z"/><path fill="none" d="m324 279-6 2q-1 2 6 6z"/><path fill="#ad1519" d="M351 301q0-2-10-6l-9-4q-14-7-14-10l-1 8q0 4 13 10l11 4 9 6z"/><path fill="none" d="M351 301q0-2-10-6l-9-4q-14-7-14-10l-1 8q0 4 13 10l11 4 9 6z"/><path fill="#c8b100" d="m318 271 2-7h-1l-2 6-3-5h-2l4 6zm7-7h-2v7h4v-1h-2zm7 2h2v-1h-6 2v6h2zm3 6 1-3 1 2 1 2h2l-2-3 2-2v-1l-2-1h-3zm3-6 2 2-3 1zm9 8-1 2 1 1h1l1-7-1-1-7 4 1 1 2-1zm-2-2 2-1v2z"/><path fill="none" d="M230 205q0-2 3-2l2 2-2 2a2 2 0 0 1-3-2"/><path fill="#ad1519" d="M255 187q11 0 17 3l9 2h7l11 3 8 5-2 1v4l-5 5-2 2-5 4h-3l-1 3-33-4-34 4-1-3h-3l-5-4-2-2-4-5-1-4-2-1 8-5 11-3h7l9-2q7-3 16-3"/><path fill="#c8b100" d="M256 232q-20-1-32-4l-1-2 1-1a120 120 0 0 1 32-4q19 0 32 4l1 1-1 2a119 119 0 0 1-32 4"/><path fill="#ad1519" d="m256 230-29-3q12-4 29-4l29 4q-11 3-29 3"/><path fill="none" d="M257 230v-7m-2 7v-7m-2 7v-7m-2 7v-7m-1 7v-7m-3 7v-6m1 6v-7m-4 6v-5m2 6v-6m-5 5v-5m1 5v-5m1 5v-5"/><path fill="none" stroke="#000" d="M239 229v-5m-1 5v-5m-1 5v-5m-3 4v-3m2 4v-4m-3 3v-3m-1 3v-3m-1 3v-2m-2 1v-1m-1 1v-1"/><path fill="none" d="M264 230v-7m-3 7v-7m-2 7v-7"/><path fill="#c8b100" d="M256 221a115 115 0 0 0-32 4l-1-3-2-2a130 130 0 0 1 35-5q21 0 35 5l-3 2v3q-12-4-32-4"/><path fill="#c8b100" d="M256 215a131 131 0 0 0-35 5l-2-1 1-1q14-5 36-5t36 5v1l-1 1q-14-5-35-5"/><path fill="none" d="m256 230-29-3q12-4 29-4l29 4q-11 3-29 3"/><path fill="#fff" d="m246 219 1-2 1 1-1 2z"/><path fill="#ad1519" d="M256 219h-3l-2-1 1-1h7l1 1-1 1z"/><path fill="#058e6e" d="M239 220h-4a1 1 0 0 1 1-2h5l1 1-1 1z"/><path fill="#fff" d="m229 220 1-1 1 1-1 2z"/><path fill="#ad1519" d="m222 222 1-1h3l-2 2z"/><path fill="#058e6e" d="M273 220h3a1 1 0 0 0 0-2h-5l-2 1 1 1z"/><path fill="#fff" d="m263 219 2-2 1 1-1 2a1 1 0 0 1-2-1m17 2 1-2a1 1 0 0 1 2 1l-2 2z"/><path fill="#ad1519" d="m290 222-1-1h-4l3 2z"/><path fill="none" d="M225 227q12-3 31-4 18 1 31 4"/><path fill="#c8b100" d="m230 196 2 1 2-3a8 8 0 0 1-4-8q1-7 13-8l9 3v-2l-9-3q-13 1-15 10a10 10 0 0 0 4 8z"/><path fill="none" d="m230 196 2 1 2-3a8 8 0 0 1-4-8q1-7 13-8l9 3v-2l-9-3q-13 1-15 10a10 10 0 0 0 4 8z"/><path fill="#c8b100" d="M231 196a10 10 0 0 1-5-8q0-5 6-8l-4 6a10 10 0 0 0 4 8z"/><path fill="none" d="M231 196a10 10 0 0 1-5-8q0-5 6-8l-4 6a10 10 0 0 0 4 8z"/><path fill="#c8b100" d="m207 200-3-7 1-4q4-7 17-8l7 1-1 2-6-1q-11 1-15 7l-1 3 3 6-3 5-1-2z"/><path fill="none" d="m207 200-3-7 1-4q4-7 17-8l7 1-1 2-6-1q-11 1-15 7l-1 3 3 6-3 5-1-2z"/><path fill="#c8b100" d="m210 185-5 4-1 4q0 4 3 7l-2 2-2-7q0-6 7-10"/><path fill="none" d="m210 185-5 4-1 4q0 4 3 7l-2 2-2-7q0-6 7-10"/><path fill="#c8b100" d="m256 175 4 3v6l1 9-5 5-6-5 1-9v-1l1-5z"/><path fill="none" d="m256 175 4 3v6l1 9-5 5-6-5 1-9v-1l1-5z"/><path fill="#c8b100" d="m256 177 2 2v5l1 8-3 4-4-4 1-8v-1l1-4z"/><path fill="none" d="m256 177 2 2v5l1 8-3 4-4-4 1-8v-1l1-4z"/><path fill="#c8b100" d="m281 196-1 1-3-3a8 8 0 0 0 4-8q-1-7-12-8l-9 3v-2l9-3q13 1 14 10l-3 8z"/><path fill="none" d="m281 196-1 1-3-3a8 8 0 0 0 4-8q-1-7-12-8l-9 3v-2l9-3q13 1 14 10l-3 8z"/><path fill="#c8b100" d="M281 196q4-3 4-8t-5-8l3 7q0 4-3 7z"/><path fill="none" d="M281 196q4-3 4-8t-5-8l3 7q0 4-3 7z"/><path fill="#c8b100" d="M305 200a9 9 0 0 0 1-11q-4-7-17-8l-6 1 1 2 5-1q13 1 16 7v3l-3 6 3 5 2-2z"/><path fill="none" d="M305 200a9 9 0 0 0 1-11q-4-7-17-8l-6 1 1 2 5-1q13 1 16 7v3l-3 6 3 5 2-2z"/><path fill="#c8b100" d="m302 185 4 4 1 4-2 7 1 2 3-7q0-6-7-10"/><path fill="none" d="m302 185 4 4 1 4-2 7 1 2 3-7q0-6-7-10"/><path fill="#fff" d="m254 194 2-2 2 1-2 2z"/><path fill="none" d="m254 194 2-2 2 1-2 2z"/><path fill="#fff" d="m254 190 2-2 2 2-2 2zm0-4 2-1 1 1-1 1zm1-4 1 1-1 2zm0-4h1l-1 1z"/><path fill="#c8b100" d="M256 205h1a5 5 0 0 0 5 6l5-3v-2l1 2q0 3 5 4a5 5 0 0 0 5-5l1-2 1 2v2a5 5 0 0 0 4 5l4-2 1-2v2q0 3 3 3l4-1 3-4 1 2-4 4q-2 2-5 1l-3-2-3 1a7 7 0 0 1-7-4 8 8 0 0 1-11-1l-5 2-6-3-6 3-5-2a8 8 0 0 1-11 1 7 7 0 0 1-7 4l-3-1-3 2q-3 1-5-1l-4-4v-2l4 4 4 1q2 0 2-3v-2l1 2 4 2q5 0 5-5v-4l2 2a5 5 0 0 0 5 5q5-1 5-4v-2l1 2 5 3a5 5 0 0 0 5-6z"/><path fill="#fff" d="m291 211-1-2-2 1 1 2zm-22-4v-2l-2 1 1 2zm-26 0 1-2 1 1q1 2-1 2zm-22 4 1-2 1 1v2z"/><path fill="#c8b100" d="m231 196 2 3h1l1-1v2l-1 2v2l-2-1-1 1-1-1-2-2v-1h2zm0 11v-3h-2l-2-1h-2l1 1v1l-3 2 4 1v1h1l2-1zm3-1v-2l1-1 3-1 1-1v1l-1 1 4 1-3 2 1 1h-4z"/><path fill="#ad1519" d="M230 205q0-2 3-2l2 2-2 2a2 2 0 0 1-3-2"/><path fill="#c8b100" d="m256 193 2 4 1-1h1v2l-1 2-1 2-2-1-2 1-1-2-1-2v-2h1l1 1zm-2 12v-3l-2-1-2-1h-2l1 1-4 2 4 2-1 1v1l2-1h2zm3 0 1-2v-1l2-1 2-1h1v2l4 1-4 2v2h-1l-2-1zm23-9-2 3h-1l-1-1v4l1 2 2-1 1 1 1-1 1-2 1-1h-2z"/><path fill="#c8b100" d="M281 207v-3h2l2-1h1v2l3 2-4 1v1h-1l-2-1zm-3-1-1-1 1-1-1-1-3-1-1-1v1l1 1-4 1 3 2-1 1h4z"/><path fill="#ad1519" d="m277 205 2-2 2 2q1 2-2 2zm25 5h-3v2h2z"/><path fill="#c8b100" d="M299 211h3l2-3h4l-3-3-3 1v-1l-2 2v4l-1-2-2-2h-2v1l-4 1 3 2-1 1h1l3 1zm-86 0h-2l-3-3h-3l3-3 2 1v-1l2 2v4l1-2 3-2h1v1l4 1-2 2v1h1-1l-3 1z"/><path fill="#ad1519" d="M210 210h2l1 2h-2zm44-7 2-2 2 2-2 2z"/><path fill="#005bbf" d="M251 171q0-3 5-4 3 1 4 4a4 4 0 0 1-4 5 4 4 0 0 1-5-5"/><path fill="#c8b100" d="M255 159v3h-3v2h3v7h-4l1 2h8v-2h-3v-7h2v-2h-2v-3z"/><path fill="#ccc" d="M256 353a87 87 0 0 1-38-9 24 24 0 0 1-13-22v-34h102v34q0 16-13 22a86 86 0 0 1-38 9"/><path fill="none" stroke="#000" d="M256 353a87 87 0 0 1-38-9 24 24 0 0 1-13-22v-34h102v34q0 16-13 22a86 86 0 0 1-38 9z"/><path fill="#ccc" d="M256 288h52v-57h-52z"/><path fill="none" stroke="#000" d="M256 288h52v-57h-52z"/><path fill="#ad1519" d="M256 322a25 25 0 0 1-26 25c-14 0-25-11-25-25v-34h51z"/><path fill="#c8b100" stroke="#000" d="m216 342 6 3v-58h-6z"/><path fill="#c8b100" stroke="#000" stroke-linejoin="round" d="M205 322a26 26 0 0 0 6 16v-51h-6z"/><path fill="#c7b500" stroke="#000" d="M227 346h6v-59h-6z"/><path fill="#c8b100" stroke="#000" d="m239 345 6-3v-55h-6z"/><path fill="#ad1519" d="M205 288h51v-57h-51z"/><path fill="none" stroke="#000" d="M205 288h51v-57h-51z"/><path fill="#c8b100" stroke="#000" d="M250 337q5-3 6-13v-37h-6z"/><path fill="none" stroke="#000" d="M256 322a25 25 0 0 1-26 25c-14 0-25-11-25-25v-34h51v34"/><path fill="#ad1519" d="M308 288v34a25 25 0 0 1-26 24c-14 0-26-11-26-24v-34z"/><path fill="none" stroke="#000" d="M308 288v34a25 25 0 0 1-26 24c-14 0-26-11-26-24v-34h52"/><path fill="#c8b100" d="M265 314q1 1-1 1l-1-1h-1l2 3v4h1v-4l2-2h5v-1zm23 0v1h-4v1l5 5-1 1-5-5v9h-2v-9l-5 5-2-1 5-5v-1h-4v-1zm3 0v1h5l2 2v4h2v-4l2-3h-2l-1 1-1-1zm-7 23 4-1 1 2-5 1-2 2-3-2-5-1 1-2 4 1 2-1v-7h1v7zm-11-2-1 1-4-3h-3v-4l-1-5h1l1 4h2l4-5 2 1-5 5v3zm-7-5a1 1 0 0 1 2 0v1a1 1 0 0 1-2 0zm-2-5h-2v-5l1-1v3zm1-6 2 1v4l-2 1v-3zm6 15 5 3 1-2-5-2zm-1 2 5 2-1 2-4-3zm2-10h2l3-3-1-2zm-1-1-1-2 3-3h2zm19 10 1 2 4-4h3v-4l1-5h-1l-2 4h-1l-4-5-2 1 5 5v3zm7-5a1 1 0 0 0-2 0v1l2 1a1 1 0 0 0 0-2m2-5h2v-5h-2v2zm-1-6-2 1v4l1 1 1-3zm-6 15-5 3-1-2 4-2zm1 2-6 2 2 2 4-2zm-3-10h-2l-3-3 1-2zm2-1 1-2-4-3h-1zm-21-10 1 2h4l1-2zm23 0-1 2h-5v-2zm-13 24 1-1 1 1-1 1zm2-8 2-1v-5h-2zm-2 0-1-1v-5h1z"/><path fill="#c8b100" d="m262 314 2-2v-6h1v6l2 1h5v1h-7l-1-1-1 1zm13 0h4l-5-6 1-1 5 6h1v-8h1v8h1l5-6 1 1-5 6h5v1zm23 0 1 1h1l-1-2v-6h-2v6l-2 1h-5v1zm-33-16 7 7 1-1-6-7v-1h5v-2h-5l-3-1-2 2 1 3v5h2zm34 0v5h-1v-5h-1l-6 7-1-1 6-7v-1h-5v-1h5l3-2 2 2q1 3-1 3zm-17 0v3h-1v-3l-2-2h-5v-1h5l2-2q3 0 3 2h4v1h-4zm-19 4h-1v5l1 1zm2 0 2 1v4l-2 1zm33 0-2 1v4l2 1zm1 0 2 1v4l-1 1zm-27 1 2-1 3 4-1 1zm-1 1-1 2 3 3 2-1zm20-1-2-1-3 4 1 1zm1 1 1 1-3 4-2-1zm-22 10 1-2h4l1 2zm-7-19 1-1 2 1-2 2zm13 1v2h-5l-1-2zm0-1v-2h-5l-1 2zm17 19-1-2h-5v2zm4-19 2-1 1 1-2 2zm-17 0 1-1 2 1-2 2zm7 1v2h5l1-2zm0-1v-2h5l1 2zm-6 5h-2v5l2 1zm1 0h2v5l-2 1z"/><path fill="none" d="m284 337 4-1 1 2-5 1-2 2-3-2-5-1 1-2 4 1 2-1v-7h1v7zm-5-21h-4v-1h4v-1l-5-6 1-1 5 6h1v-8h1v8h1l5-6 1 1-5 6v1h5v1h-5v1l5 5-1 1-5-5v9h-2v-9l-5 5-2-1zm-13-18 6 7 1-1-6-7v-1h5v-1h-5l-3-2-2 2q0 3 2 3v5h1zm7 37-1 1-4-3h-3v-4l-1-5h1l1 4h2l4-5 2 1-5 5v3zm-9-14v-4l-2-3q-1-2 2-2v-6h1v6l2 2h5v1h-5l-2 2v4zm3 9a1 1 0 0 1 2 0v1a1 1 0 0 1-2 0zm-2-5h-2v-5h1v2zm1-6 2 1v4l-1 1-1-3zm6 15 5 3 1-2-5-2zm-1 2 5 2-1 1-4-2z"/><path fill="none" d="m273 325 1 1 4-3-1-2zm-2-1-1-1 3-4 2 1zm-8-10 1-1 2 1-2 1zm28 21v1l4-3h3v-4l2-5h-2l-1 4h-2l-4-5-2 1 5 5v3zm9-14v-4l2-3-2-2v-6h-2v6l-2 1h-5v2h5l2 2v4zm-3 9a1 1 0 0 0-2 0v1h2zm2-5h2v-5l-1-1v3zm-1-6-2 1v4l2 1zm2-21v5h-2v-5h-1l-6 7-1-1 6-8h-5v-2h5l3-1 2 2q1 3-1 3m-18 0v3h-1v-3l-2-2h-4v-1h4l2-2q3 0 3 2h4v1h-4zm10 36-5 3-1-2 5-2zm1 2-5 2 1 2 4-3zm-29-34-2 1v4l1 1zm2 0 2 1v4l-2 1zm33 0-2 1v4l2 1z"/><path fill="none" d="m300 302 1 1v4l-1 1zm-10 23-1 1-3-3 1-2zm2-1 1-1-3-4-2 1zm-20-21 2-1 3 4-1 1zm-1 1-1 2 3 3 2-1zm20-1-2-1-3 4 1 1zm1 1 1 1-3 4-2-1zm-22 10 1-2h5v2zm0 1 1 2h5v-2zm-7-20 1-1 2 1-2 2zm13 1v2h-5l-1-2zm0-1v-2h-5l-1 2zm22 19 1 1-1 1zm-5 0-1-2h-4l-1 2zm0 1-1 2h-4l-1-2zm-12 23 1 1-1 2zm2-8h1v-5h-1zm-2 0h-2v-5h2zm17-35 1 1-1 1zm-18 0 2-1 1 1-1 1zm7 1 1 2h4l1-2zm0-2 1-1h4l1 1zm-6 6h-2v5h2zm1 0 2 1v4l-2 1z"/><path fill="#058e6e" d="m279 314 3-2 2 2-2 3z"/><path fill="#db4446" d="M282 245h-2l-3-1-1-2-3 1 2 1 2 2h3z"/><path fill="none" d="M282 245h-2l-3-1-1-2-3 1 2 1 2 2h3z"/><path fill="#ed72aa" d="M290 243v5-1h-1v1l1 1 1 1v2l-1-1-1-1 1 2-1 2-1-2-1-1 1 2v3l-1-1-1-1v1l2 5q2 4 6 3 3-3 1-7l-1-5 1-3v-4l1-2v-3l1 2v1l1-2 3-1v-1l-1 3-2 2h3l-2 2-1 2-2 1v5l2 6q1 2-2 5l-3 2q-2 0-2 3t2 2l1 1 1 1-1 2-1 3v2h-1l-1 1v-2l-1 1v1l-1-1-1-1 1-1q1 0 0 0h-1v-2h1l2-1-1-1-1-1v-1 3l-1-1v-2 3l-1-1-1-1-1-2v-1l1-2h-2l-1 1v6h-1l-2-1h-2l-1 1v1l-1-1h-1v-1h-1l-1-1v-1h2l-1-1v-1h1l1-1v2h4v-2h-1v1-2l-1-1v2-3q0-2 2-2h5l-4-2-2-3-1-1h-1l-1 1-1 1v-2l-1 2-1 1v-2l-1 1-2 1v1l-1 1-1-1q-1 0 0 0h-1l1-1h-2v-1l1-1h1l-1-1-1-1h1l1-1 1 1h2l1-1 2-1-1-1-1-1-2-1h-2 1l1-1h-1l-2-1h-1 3l-1-1-1-1h-2v-2h1l-1-1-1-1 1-1h1l1 1v-1l1-1h2l-1 2v1l1 2h2l2 2h5l1-1-1-2h1l2-1-1-2-2-1v-1l2-1h2v-1h2l3 1z"/><path d="M279 242q1 0 0 0"/><path fill="none" d="M279 242q1 0 0 0"/><path d="M283 241v-1h1l2 1h-2z"/><path fill="none" d="M283 241v-1h1l2 1h-2zm6 6v-1h-1"/><path fill="#db4446" d="M268 242h1v-1l-2-1v2"/><path fill="none" d="M268 242h1v-1l-2-1v2"/><path fill="#db4446" d="m266 243-2-1-1 1h1v1z"/><path fill="none" d="m266 243-2-1-1 1h1v1z"/><path fill="#db4446" d="M264 246v1l1-1 1 1z"/><path fill="none" d="M264 246v1l1-1 1 1z"/><path d="M279 246v1z"/><path fill="none" d="M279 246v1zm-4 3-1 1v1h4l-1 1v3h1l2-1 1-1v3l1-1 1-1v-1 2l1 2 1-2v-2l1 1m-12 1 1-1 1-1 1-1m1 6 2-1 1-1"/><path fill="#db4446" d="M267 256h-1l-1 1h2z"/><path fill="none" d="M267 256h-1l-1 1h2z"/><path fill="#db4446" d="m266 259-1 1-1 1h2z"/><path fill="none" d="m266 259-1 1-1 1h2z"/><path fill="#db4446" d="M268 262v1l1 1v-1z"/><path fill="none" d="M268 262v1l1 1v-1zm17 2 2 2-1 2"/><path fill="#db4446" d="M275 269h-3l2 1h1z"/><path fill="none" d="M275 269h-3l2 1h1z"/><path fill="#db4446" d="m273 272-1 1-1 1 1-1 1 1z"/><path fill="none" d="m273 272-1 1-1 1 1-1 1 1z"/><path fill="#db4446" d="M275 275v1l1 1v-1z"/><path fill="none" d="M275 275v1l1 1v-1z"/><path fill="#db4446" d="M288 277h-2v1h2z"/><path fill="none" d="M288 277h-2v1h2z"/><path fill="#db4446" d="M288 280v1zh1z"/><path fill="none" d="M288 280v1zh1z"/><path fill="#db4446" d="m291 281 1 1-1-2h1l-1-1z"/><path fill="none" d="m291 281 1 1-1-2h1l-1-1z"/><path fill="#ffd691" stroke="#000" d="M259 338q3 1 3 4 0 4-6 4-4 0-5-4 0-3 3-4v-1l-1-1h1l1 1 1-1h1v1l1-1h1v1"/><path fill="#058e6e" stroke="#000" d="m256 349-6-4h-6l2 2 4 2 6-1m1 1s3-3 5-3h7l-1 1-5 2h-6"/><path fill="#ad1519" stroke="#000" d="M256 345a5 5 0 0 1 0-7l2 4-2 3"/><path fill="#058e6e" stroke="#000" d="m255 351 1-3v-2h1v5h-2"/><path fill="#fff" d="m307 203 1-1 1 1-1 2z"/><path fill="none" d="m307 203 1-1 1 1-1 2z"/><path fill="#fff" d="m308 201 2-1 1 1-1 1a1 1 0 0 1-2-1"/><path fill="none" d="m308 201 2-1 1 1-1 1a1 1 0 0 1-2-1"/><path fill="#fff" d="m310 198 1-1 1 1za1 1 0 0 1-2-1"/><path fill="none" d="m310 198 1-1 1 1za1 1 0 0 1-2-1"/><path fill="#fff" d="m310 194 1 1-1 1z"/><path fill="none" d="m310 194 1 1-1 1z"/><path fill="#fff" d="m309 191 1-1 1 1z"/><path fill="none" d="m309 191 1-1 1 1z"/><path fill="#fff" d="m307 188 1-1 1 1-1 1z"/><path fill="none" d="m307 188 1-1 1 1-1 1z"/><path fill="#fff" d="m305 185 1 1-1 1z"/><path fill="none" d="m305 185 1 1-1 1z"/><path fill="#fff" d="m302 183 1-1 1 1-1 1z"/><path fill="none" d="m302 183 1-1 1 1-1 1z"/><path fill="#fff" d="m299 182 1-1 1 1z"/><path fill="none" d="m299 182 1-1 1 1z"/><path fill="#fff" d="m296 180 1 1-1 1a1 1 0 0 1-2-1"/><path fill="none" d="m296 180 1 1-1 1a1 1 0 0 1-2-1"/><path fill="#fff" d="m292 180 1-1 1 1z"/><path fill="none" d="m292 180 1-1 1 1z"/><path fill="#fff" d="m288 180 1-1a1 1 0 0 1 2 1l-2 1z"/><path fill="none" d="m288 180 1-1a1 1 0 0 1 2 1l-2 1z"/><path fill="#fff" d="m285 180 1-1 1 1z"/><path fill="none" d="m285 180 1-1 1 1z"/><path fill="#fff" d="m281 180 1-1 2 1-1 1a1 1 0 0 1-2-1"/><path fill="none" d="m281 180 1-1 2 1-1 1a1 1 0 0 1-2-1"/><path fill="#fff" d="m283 183 1-1 1 1-1 1zm1 3 1-1 1 1-1 1zm0 3 1-1 1 1-1 1zm-1 3 1 1-1 1zm-2 3 1-1 1 1-1 1zm-2-17 1-1 1 1-1 1z"/><path fill="none" d="m279 178 1-1 1 1-1 1z"/><path fill="#fff" d="m276 176 1-1 1 1-1 1z"/><path fill="none" d="m276 176 1-1 1 1-1 1z"/><path fill="#fff" d="m272 175 2-1 1 1-1 1a1 1 0 0 1-2-1"/><path fill="none" d="m272 175 2-1 1 1-1 1a1 1 0 0 1-2-1"/><path fill="#fff" d="m269 174 1 1-1 1z"/><path fill="none" d="m269 174 1 1-1 1z"/><path fill="#fff" d="m265 174 1-1 2 1-1 1a1 1 0 0 1-2-1"/><path fill="none" d="m265 174 1-1 2 1-1 1a1 1 0 0 1-2-1"/><path fill="#fff" d="m262 175 1-1 1 1-1 1z"/><path fill="none" d="m262 175 1-1 1 1-1 1z"/><path fill="#fff" d="m259 176 1 1-1 1z"/><path fill="none" d="m259 176 1 1-1 1z"/><path fill="#fff" d="m202 203 1-1a1 1 0 0 1 2 1l-1 2a1 1 0 0 1-2-1"/><path fill="none" d="m202 203 1-1a1 1 0 0 1 2 1l-1 2a1 1 0 0 1-2-1"/><path fill="#fff" d="m201 201 1-1 1 1z"/><path fill="none" d="m201 201 1-1 1 1z"/><path fill="#fff" d="m200 198 1-1 1 1z"/><path fill="none" d="m200 198 1-1 1 1z"/><path fill="#fff" d="m200 194 1 1-1 1z"/><path fill="none" d="m200 194 1 1-1 1z"/><path fill="#fff" d="m200 191 2-1 1 1-1 1a1 1 0 0 1-2-1"/><path fill="none" d="m200 191 2-1 1 1-1 1a1 1 0 0 1-2-1"/><path fill="#fff" d="m202 188 1-1 1 1-1 1z"/><path fill="none" d="m202 188 1-1 1 1-1 1z"/><path fill="#fff" d="m205 185 1 1-1 1z"/><path fill="none" d="m205 185 1 1-1 1z"/><path fill="#fff" d="m207 183 1-1 1 1-1 1z"/><path fill="none" d="m207 183 1-1 1 1-1 1z"/><path fill="#fff" d="m210 182 2-1 1 1-1 1a1 1 0 0 1-2-1"/><path fill="none" d="m210 182 2-1 1 1-1 1a1 1 0 0 1-2-1"/><path fill="#fff" d="m214 180 1 1-1 1z"/><path fill="none" d="m214 180 1 1-1 1z"/><path fill="#fff" d="m217 180 2-1 1 1-2 1z"/><path fill="none" d="m217 180 2-1 1 1-2 1z"/><path fill="#fff" d="m221 180 1-1 1 1-1 1z"/><path fill="none" d="m221 180 1-1 1 1-1 1z"/><path fill="#fff" d="m224 180 2-1 1 1-1 1a1 1 0 0 1-2-1"/><path fill="none" d="m224 180 2-1 1 1-1 1a1 1 0 0 1-2-1"/><path fill="#fff" d="m228 180 1-1 1 1z"/><path fill="none" d="m228 180 1-1 1 1z"/><path fill="#fff" d="m226 183 1-1 1 1-1 1zm-1 3 1-1 2 1-2 1zm0 3 1-1 1 1-1 1zm1 3 1-1a1 1 0 0 1 2 1l-2 1zm2 3 1-1 1 1-1 1zm2-17 2-1 1 1-2 1z"/><path fill="none" d="m230 178 2-1 1 1-2 1z"/><path fill="#fff" d="m234 176 1-1 1 1-1 1a1 1 0 0 1-2-1"/><path fill="none" d="m234 176 1-1 1 1-1 1a1 1 0 0 1-2-1"/><path fill="#fff" d="m237 175 1-1 1 1-1 1z"/><path fill="none" d="m237 175 1-1 1 1-1 1z"/><path fill="#fff" d="m240 174 2-1 1 1-1 1a1 1 0 0 1-2-1"/><path fill="none" d="m240 174 2-1 1 1-1 1a1 1 0 0 1-2-1"/><path fill="#fff" d="m244 174 1-1 1 1-1 1z"/><path fill="none" d="m244 174 1-1 1 1-1 1z"/><path fill="#fff" d="m247 175 2-1 1 1-2 1z"/><path fill="none" d="m247 175 2-1 1 1-2 1z"/><path fill="#fff" d="m251 176 1 1-1 1z"/><path fill="none" d="m251 176 1 1-1 1z"/><path fill="#c8b100" stroke="#000" d="M222 244h-1v-1h-1v4h1v3h-3v7h2v15h-4v8h29v-8h-4v-15h2v-7h-3v-3h1v-4h-1v1h-1v-1h-2v1h-1v-1h-2v4h2v3h-4v-9h2v-4h-2v1h-1v-1h-1v1h-1v-1h-2v4h2v9h-4v-3h2v-4h-2v1h-1v-1h-2zm-6 36h29m-29-2h29m-29-2h29m-29-2h29m-29-2h29m-25-1h21m-21-2h21m-21-2h21m-21-2h21m-21-2h21m-21-2h21m-21-2h21m-23-2h25m-25-2h25m-25-2h25m-25-1h25m-22-2h18m-11-2h4m-3-2h3m-3-2h3m-3-2h3m-5-2h7m-13 8h4m-5-3h7m-7 35v-2m0-2v-2m-2 2v2m3 0v-2m2 4v-2m0-2v-2m0-2v-1m0-2v-2m-2 7v-2m-3 2v-2m7 0v2m2-2v-1m-6-2v2m4-2v2m3-2v2m-1-2v-2m1-2v2m0-6v2m-1-4v2m1-4v2m-3-2v2m-4-2v2m-1-4v2m3-2v2m4-2v2m2-4v2m-4-2v2m-4-2v2m-1-3v1m7-2v2m-4-5v2m16-2h-3m5-3h-7m7 35v-2m0-2v-2m2 2v2m-4 0v-2m-1 4v-2m0-2v-2m0-2v-1m0-2v-2m2 7v-2m3 2v-2m-7 0v2m-2-2v-1m5-2v2m-3-2v2m-4-2v2m2-2v-2m-2-2v2m0-6v2m2-4v2m-2-4v2m4-2v2m4-2v2m1-4v2m-3-2v2m-4-2v2m-2-4v2m4-2v2m3-2v2m2-3v1m-7-2v2m4-5v2m-8 19v-2m0-6v-2m0 6v-2m0-6v-2m0-2v-1m0-4v-2m0-2v-2m-9 5h4m4-6h3m4 6h3"/><path fill="#c8b100" stroke="#000" d="M235 280v-5q1-3-5-4-5 1-4 4v5z"/><path fill="#c8b100" stroke="#000" d="M227 275h-2l1-3 2 2zm7 0h2l-1-3-2 2zm-3-2 1-2-2-1-2 1 2 2zm-4-6v-5q0-2-3-3-3 1-2 3v5zm7 0v-5q0-2 3-3 3 0 2 3v5zm-2-13 1-4h-5v4zm4 0-1-4h5l-1 4zm-11 0v-4h-4v4z"/><path fill="#0039f0" d="M234 280v-4q0-2-4-3l-3 3v4zm-8-13v-5q1-2-2-2t-2 2v5zm9 0v-5q-1-2 2-2t2 2v5z"/><path fill="#ad1519" d="M240 288q1-18 16-19c15-1 17 8 17 19q-2 16-17 18c-15 3-16-8-16-18"/><path fill="none" stroke="#000" d="M240 288q1-18 16-19c15-1 17 8 17 19q-2 16-17 18c-15 3-16-8-16-18z"/><path fill="#005bbf" d="M244 288q2-13 12-14 11 1 12 14c1 13-5 13-12 13q-10-1-12-13"/><path fill="none" stroke="#000" d="M244 288q2-13 12-14 11 1 12 14c1 13-5 13-12 13q-10-1-12-13z"/><path fill="#c8b100" d="m251 278-2 3 1 3-2-1-1 1v1l1 1h1l1 1h-2v1h2l-1 2 1-1 1 1v-1l2 1-1-2h1v-1h-1v-1l1-1 1 1v-2l-1-1-1 1v-3z"/><path fill="none" d="m251 278-2 3 1 3-2-1-1 1v1l1 1h1l1 1h-2v1h2l-1 2 1-1 1 1v-1l2 1-1-2h1v-1h-1v-1l1-1 1 1v-2l-1-1-1 1v-3z"/><path fill="#c8b100" d="M248 288h5v-1h-5z"/><path fill="none" d="M248 288h5v-1h-5z"/><path fill="#c8b100" d="m262 278-2 3 1 3-2-1-1 1v1l1 1h1l1 1h-2v1h1v2l1-1 1 1v-1l1 1v-2h1v-1h-1v-1l1-1 1 1v-2l-1-1-2 1 1-3z"/><path fill="none" d="m262 278-2 3 1 3-2-1-1 1v1l1 1h1l1 1h-2v1h1v2l1-1 1 1v-1l1 1v-2h1v-1h-1v-1l1-1 1 1v-2l-1-1-2 1 1-3z"/><path fill="#c8b100" d="M259 288h5v-1h-5z"/><path fill="none" d="M259 288h5v-1h-5z"/><path fill="#c8b100" d="m256 288-1 3v2l-1-1-2 2 1 1h1l1 1h-1v1h1l-1 2 1-1 1 1 1-1 1 1-1-2h1v-1h-1l1-1h1l1-1-2-2-1 1 1-2z"/><path fill="none" d="m256 288-1 3v2l-1-1-2 2 1 1h1l1 1h-1v1h1l-1 2 1-1 1 1 1-1 1 1-1-2h1v-1h-1l1-1h1l1-1-2-2-1 1 1-2z"/><path fill="#c8b100" d="M254 297h4v-1z"/><path fill="none" d="M254 297h4v-1z"/><path fill="#c8b100" d="M289 238h-1v-1h-1v-1h-1l-1-1v2l-1 1 3 1 3 3 1-1h2-2v-2h-2z"/><path fill="none" d="M289 238h-1v-1h-1v-1h-1l-1-1v2l-1 1 3 1 3 3 1-1h2-2v-2h-2zm-2 1"/><path fill="#c8b100" d="M286 236h1z"/><path fill="none" d="M286 236h1z"/><path fill="#c8b100" d="m288 238-1-1h1z"/><path fill="none" d="m288 238-1-1h1z"/><path fill="#c8b100" d="M285 236h-1z"/><path fill="none" d="M285 236h-1z"/><path fill="#c8b100" d="M286 236v-1z"/><path fill="none" d="M286 236v-1zm-1 0"/><path fill="#c8b100" d="m290 237-1 1z"/><path fill="none" d="m290 237-1 1z"/><path fill="#c8b100" d="M292 239h-1z"/><path fill="none" d="M292 239h-1z"/><path fill="#c8b100" d="M291 239h1z"/><path fill="none" d="M291 239h1z"/><path fill="#c8b100" d="M292 240h-1"/><path fill="none" d="M292 240h-1z"/><path fill="#c8b100" d="M292 241h1z"/><path fill="none" d="M292 241h1zm42-22h-3 1v-2h-1 1v-1h1v3zm-155 13v-2m0 2v-2m0 2v-2m-1 2v-2m0 2v-2m3 2v-2m-1 2v-2m0 2v-2m152 2v-2m0 2v-2m0 2v-2m-1 2v-2m0 2v-2m3 2v-2m-1 2v-2m0 2v-2"/></svg>