<svg xmlns="http://www.w3.org/2000/svg" viewBox="0 0 512 512"><defs><clipPath id="et-a"><path d="M229 6h490v490H229z"/></clipPath></defs><g fill-rule="evenodd" clip-path="url(#et-a)" transform="translate(-240 -7)scale(1.046)"><path fill="#ffc621" d="M2 10h992v476H2z"/><path fill="#ef2118" d="M0 334h993v162H0z"/><path fill="#298c08" d="M2 6h992v172H2z"/><circle cx="534" cy="353" r="200" fill="#006bc6" transform="translate(205 77)scale(.515)"/><path fill="#ffc621" d="m434 186-6 4 22 32 6-4zm28 75-9-7 4-12-46 1-13-10 62-1 12-35 6 14zm73-68-6-4-23 31 5 4zm-62 49 3-10h13l-15-44 6-16 20 60h37l-12 11zm86 49 3-7-37-12-2 6zm-66-44h12l4 12 37-27h16l-50 37 11 36-14-8zm-19 97 8 1v-39h-7zm21-76 4 10-10 8 38 27 4 16-51-37-30 22 3-15zm-98 12 2 7 37-11-2-7zm79-4-9 7-10-7-14 44-13 9 18-60-30-22 16-1z"/></g></svg>