<svg xmlns="http://www.w3.org/2000/svg" viewBox="0 0 512 512"><path fill="#68bfe5" d="M0 0v512h512V0H322z"/><g stroke-miterlimit="5"><path fill="#fff" d="M310 254v136c0 45 81 71 81 71s80-26 80-70V254z"/><path fill="#d21034" d="M380 302v61h-70v23h70v71l11 4 11-4v-71h69v-23h-69v-61z"/><path fill="#d21034" d="M310 254h161v53H310z"/><g stroke-miterlimit="3"><g fill="#fff" stroke="#000" transform="translate(-208 158)scale(.66486)"><ellipse cx="798" cy="192" rx="14" ry="11"/><ellipse cx="798" cy="187" rx="12" ry="6"/><ellipse cx="798" cy="199" rx="12" ry="6"/><ellipse cx="798" cy="192" rx="12" ry="6"/></g><path fill="#ffd100" stroke="#000" d="m467 296-1-3s-4-2-4-4q0-7-5-7h-5l-7 1-2-1-3-1-2-3q4 0 8-5 7-5 7-3v4c5-3 1-9-1-9l-1-1q-1 3-2 2c1-7-3-9-3-9l-1 2q-2 6-10 2c-8-4-16 2-19 3q-7 4-17 1l-10-3q-4 2-8 1l-3-1v-5c1-1-3 1-2 7l1 1 1 2v1h1q1 2 2-1s-1 6 6 7l-1-1v-2l-1-2q2-2 5 0 5 2 6 1c1-1-2-3-1-3s5 5 7 5l9-2 8-3c8-1 18-5 22-1l2 3s-1 6-11 3l-3-1s-1-2-20 3l-1 1q-1-1-6 1c-5 2-18 6-26 4h-4 1l-1-1c-7-1-6-4-6-4l1 1-1-5v-1h1l7-4c-2-3-7-1-7-1l-2-8q-8 3-8 5c0-4-4-6-4-6v9s-2 0-4 5l-1 2v-1s-2 3-7 0c0 0-7-4-10-4l-4 2s-6 0-7 3c0 0-5 2-1 5l1 3s0-4 1-3l1 1 1 2 1-2 1 1h2l2-1 1-2 3-1 6 5h-1l6 1-1 4-1 1h5v1l-2 6-8 5-1-1-4-2h-3v-4l-1-2h-2l-1 1h-1l-1 1h-2l-2 1v2q-2 2-1 3c1 6 12 4 12 4l4 1 3 3c2 0 0-2 6-3q10-3 9-4l2-4v1l-1 3 5-1q3-2 2-3 4 8 6 6l1-2h1l-1-3 2 2 1-1 1 2 1-1 3 1v-1c5 3 12-1 12-1q3 0 2-1 4 0 3-1c5 0 9-4 9-4q4-1 3-2l5-3c6-8 15-4 15-4h-5c-14 0-8 9-8 9h1c1 1 5 4 4 7-3 4-8 0-9-3q-4-4-5-3c-1 1-7 2-4 8l3 5q4 3 11 1l10-4 5-4c2-3-3-4-4-6l1-1c4 2 4-5 4-5l5 5c2-2 0-7 0-7 6 10 9 9 9 9q-3-4-1-5c3 11 14 1 14 1q-1 3 1 4t2 3c-1 2-6 2-6 2s-5-1-5 4l5 1h8l3-2q6-3 5-4z"/><path d="m319 278 1-1 1 1-1-3 2-1v-1l-2 1v3zm141 24-8-1 3-2-1-1q-3 3-2 4zm-58 1q-2-1 1-4h-1q-2 3-1 5z"/><path d="m398 299 3 5 1-1q-4-2-4-4l3-5h-1q-2 0-2 5m52 0-1 3h1zl2-2zm-120-23-1 2h-2l-1-1v-1l2-2h-1l-1 2v2h3zc4 1 6-3 6-3s-3 4-6 3m-7-1v2l1 1h1l1-1h-1l-1 1-1-1zl2-2zm-5 21 1-1h2l1 3v1h1q0-4-2-4l-2-1zm10-5-3 1v2l2 3-1-3-1-1v-1zl1 3zm-5 1v1l2 5-2-5 1-1h1z"/><path d="m322 293-1 2zh1zm44-22 1 4h-1v-1 3l6 2v1h1l1 1v-1l2 1h-1 1l8 5-8 1h-1v1l4 6-7-2v1l3 5-3-1h-1v1l-1-1v-1l-1 1-2-2h-1l2 3h-2v2q-2 1-6-5l-2 2-4 1v-4l1-2v-1s-6 3-10 2l2-5v-2h-5l1-1 1-3v-1l-5-1 3-1v-2h2v-2h-1v2h-2l-1-1 1 1v2l-3 1v1l5 1-1 3-1 1v1h6v1l-2 5q5 1 9-1v4l-1 2v1l5-2 2-1q4 6 6 5l1-3h1v-1h2l1 2h1v-1h3l-2-5 7 1-4-6q9 0 9-2v-1l-8-4h1-1l-4-1-1-1q-5 0-5-2v-2z"/><path d="m349 270-2 3h-6l2 2 4 1-3 5h5l1 4v3-1l4-4 1-1 3 4h1v-3l1-2 2 1q3 2 4 1v-1h-2l-1-1v-3l1 1 2 1h1-1l-1-3v-1q2-2 1-6v2l-1 4v2l1 1h-2l-2-1 1 2v1l1 1 1 1-3-1-2-2h-1v1l1 1-1 1-1 3-3-3v-1h1-1l-1 1-3 4v-1l-1-2-1-4q-4 2-5 1l3-5-4-1-1-2h5zl4-5q-1-1-4 5"/><path d="m353 263-2 3h1a21 21 0 0 1 13 6l2-2c-5-7-14-7-14-7m0 1c1 0 9 0 13 6l-1 1a22 22 0 0 0-13-6z"/><path d="m352 268-1 3-2 4 1 3q0 4 5 3t5-3l1-1 2-2 1-1 1-3-1 3-1 1-2 2-1 1h-1l-4 3q-4 1-5-3v-1q-1-4 1-6zl3-2z"/><path d="M350 277h3v2h4-3l-1-2zv-3h-1z"/><path d="m352 275 1 1h2v-1zm2 2-2-1v-1l3 1v1zm-1 2v1h1l1-1zm-2-2v2l1-2zm0 1"/><path d="m350 277 1 3 1 1h2l1-1h1v-1l-1 1h-2l-2-1zm1-6-1 2zh2zm7 4q3 0 1 3h1l-1-4zm-6 0 2 1h-2zm3-7s2 1 0 4l1-2zm9 4-3-1h-2l-2 2 2-2q2-1 3 1z"/><path d="M363 272h-1l-2-1-2 2 3-2q0 2 2 1"/><path d="M362 273h-2l-2-1 2 1zm-2 0-1-1zm-5-3q1 0 0 0m-1-1s2 0 1 3v-3z"/><path d="m354 270 1 2v-1zv-1z"/><path d="m354 270 1 1zh-1zm3 2v3zm10 11c3 0 8 5 8 5l1-1zm2 6 3 4v-1s-2-1-2-3zm-6 0 3 6zm-8 1v2l1-1z"/><path fill="#fff" d="m319 277 1 3 1-3zm3 1 1 2 1-2zm2 0 1 2 1-1v-2zm5 0-2 1h-1v-2zm-10 16v-2h2v2zm6-2 1-2 2-1 1 2zm-2 0 1-2h1v3zm-2 1 1-2h1v1s-2 0-2 2z"/></g><g fill="#00a651" stroke="#000"><path d="M351 331s5 5 4 9c0 0 3-7 0-9z"/><path fill="#964b36" d="M344 336v8l-1 4 1 5h3l1-5v-5l-1-4v-2s-2-3-3-1z"/><path d="M346 330s-6-12-11-13c-4 0-4-4-4-4s0 2 4 2 10 5 11 8l1 3z"/><path d="M346 329s2-15 12-15 7 0 9-1l-11 4c-4 0-7 8-7 10q-1 3-4 3z"/><path d="M348 335s2-6 6-4c0 0-3-6-8-1zm-7-6s3 13-2 17c0 0 0-7-3-11s3-9 5-6z"/><path d="m341 331 6 8c1 1 2-6-1-8l-5-3z"/><path fill="#964b36" d="m330 346 2 3 2 2v2l1 4 3-1q1-1-1-4 1-1-1-3 1-1-1-3 1-1-2-3z"/><path d="M333 343s-8-3-12 1l8 2c0 2 4-2 4-3z"/><path d="m331 348-2-1c0-1-7-3-8 4 0 0-2-7 1-7q5-1 9 4m-5-13 3 5h1zm-2-8s-2-7-4-5c-3 2-2 7-2 7s-5-5-2-9c2-4 8 0 8 7z"/><path fill="#964b36" d="m329 341 1 1 3 1-2-4z"/><path d="M328 333s-1-6 3-8l1-1s-3 7-2 11"/><path d="M329 326s6-14 15-9c0 0-9 1-12 8l-3 4zm-4 5-3-11q-3-2-6 0s4-4 9-1c4 3 3 9 3 9v6l-3-3"/><path d="M332 342s-8-15-13-4v4q-2 0-2-8c1-6 10-3 13 1l3 7zm23 5s6-13 10-7q1 1-1 4s-2-3-4 0l-1 4z"/><path d="M364 344s4 2 3 5c0 0 4-8-2-9q1 1-1 4zm1-9s8 2 8 6c0 0 1-7-3-9 0 0-6 1-5 3z"/><path d="M368 325c4-7 8 2 8 2s2-7-3-8-7 15-7 15l-5 1s2-14 9-16l1 1"/><path d="M362 329s-4-10-8-11c-3-1 2-2 4-1q5 3 5 10zm-5 13s2-6 6-8l7-2c1 0-5 1-5 4l-2 2z"/><path fill="#964b36" d="m355 347-1 4q-2 2-2 5l4 1 2-6 1-3z"/><path fill="#000001" stroke="none" d="M344 340h3v-1h-2zm0 3 4-1zm-1 5s3 2 5 0q-4 2-4 0zm-11 0q2 0 3-3-2 3-3 2m1 3q2 1 3-2-2 3-3 2m1 2s3 1 3-1zm20-1 2 1 2-1-1-1-1 1-2-1z"/></g><g fill="#964b36" stroke-width="0"><path d="M441 358v-1l-1-1v-3l-1-1v-11 2-4l-3-2-1 7 1 8-1 4-2 2-1 2h2l-2 1h3v-1h2l1-1 1 1v-1zh1z"/><path d="M434 361h4v-1h3q1 1 0 0v-1h-1v-1h-1l-1-1v1h-1l-1 1h-1v-1h-1v1h-1v1q0-2-1-1v1q0 1 0 0zm-2-3-1 1v2h2v-1l1-1z"/></g><g stroke="#000"><path d="m440 339-1 1-2-1 2-2zm-4-2-2 1-1-1 1-2z"/><path d="m438 337-1 2-2-2 2-1zm-2 2-2 2-1-2 1-2z"/><path d="m438 340-2 2-1-2 2-2z"/></g><path fill="#00a651" stroke="#000" d="M439 322s14-19 28 1l-1 4v-1h-1v-1h-2v-2l-1 1v-2l-2 2v-4l-2 4v-3 1l-1-1-1 1h-1v1l-1-2-1 2-1-2v2l-1-2v2l-3-2 1 2-2-1 1 1h-2v1h-2v1l-3-1 1 1v1s15-5 16 14l-3 1 1-1-1-1-2-2 1-2h-1v-1l-1-1h-1v-2l-1 2v-3l-1 2v-1h-1l-1-1v1l-1-1v1l-2-1v1-1h-1l-2-1v1l-1-1-1 1s14 8 10 21l-1 1v-4l-1 2v-5 1l-1-2-1 2v-2l-1 1v-3l-1 1-1-4-1 2v-3l-1 2-1-3v1l-1-2h-4c-1-1-3 3-3 3v-2l-1 2v-2l-1 5-1-4v4l-1-1v1l-1-1v2l-1-1v2l-1-1v3l-1-1v1l-1 3-1-2v3l1 1h-1v2s-4-7 1-14c4-7 11-9 11-9h-1v-1l-4 2v-1h-1v-1l-1 1-1 1v-2l-1 3v-2l-2 4v-3l-1 3v-3l-1 3v-3l-1 3-1-3v3l-1-2-1 3-1-3v5l-1-2v3l-1-2 1 4-2-1 1 2-2-2v3l-1-1v1s0-13 9-16c8-2 14 1 14 1l-3-3h-1l1-1h-3l1-1h-2v-1l-2 1 1-1-2 1v-1l-1 1v-1l-4 4 1-5-1 1v-1l-1 2v-1l-1 1v-1l-1 1-1-1v2l-1-1-1 1-1-1v1h-2l1 1-2-1v2l-1-1-1 2v-2l-1 2s8-20 28-7l2 3v1-14l1 6v-2 3l2-5s-2 8-1 10c0 0 1-8 4-9l-3 6h1l-1 1h1l-1 2-1 1 1 1z"/><path d="M437 331h4-5m0-7 1-1-1 3 3-4-2 1 1-1zl1-2h-1z"/><path d="m433 324 1 1zl3 5v-1 2l1-3-1 1-2-3h1l-1-2 1 1v-2 1l-2-1zm-2 6h3l-1-1zm3 6-1-3h1zm3-1v-2zm2 2-1-2h1z"/><path fill="#00a651" stroke="#000" d="M332 401h-3l-2 2h4l1-2m0 1-1 3 2 3 1-5-1-1m-3-6-3 2v3l3-3v-1m1 0 1-3-2-2v4l1 1m-2-1-1-3-3-1 2 4h2m4 5s3-1 3 2v2z"/><path d="m332 402 1 2zl1-5h-1z"/><path d="m330 401 3-1v-1zm3-3-6-2v-1z"/><path d="m329 398 2-2v1zm2-1-1-3zm2 4 2 1z"/><path fill="#fff" stroke="#000" d="M361 402q3-3 2-5l-4 3 6-10c-1 3-8 5-13 8-5 2-2 10-2 10l-4-8q-1-5-5-6-6 1-5 3l-5 3h5s3 1 3 4-3 13 2 19c3 4 16 7 16 7"/><path fill="#fff" stroke="#000" d="M351 410s1-5 4-4q5-2 6-5c2 0 12-3 13-7 0 0-1 7-10 11 0 0 7-2 8-4 0 0-3 7-11 8 0 0 7-1 8-3 0 0-3 5-8 5 0 0 5 2 6 1q-1 2-6 3h1s-3 4-7 1c-3-2-3 1-3 1"/><path fill="#fff" stroke="#000" d="m358 417 5 11 10 9-3-2 2 2h-2l2 1h-3v1l-1-1v1l-1-1-1 1h-3l-1 2-5-13"/><path d="m363 440-6-13h1zm6-1-11-13zm2-1-12-12v-1l13 12zm-31-40-2-1-1 1zm-5 0-1 1h1v-3zm5 0-2 1-1-1zm0 0h-2zm-1 0h-1zm0 22v2l2 2q0 3 2 1h1s-4-2-4-4z"/><g fill="#964b36" stroke="#000"><path stroke="none" d="M439 396s5-8 10-6l9 3s0 5-3 5-5-5-8-3l-4 4s-7 1-4-3"/><path d="m418 431-1 2h2z"/><path d="M416 433s-3-2-5 2l-5 11c-2 1 12-6 13-9 0 0 1-4-1-4z"/><path stroke="none" d="M417 433s-3 1-4 5q-3 6-5 7m49-52s-4 2-3 5"/></g><path fill="#fff200" d="M423 402s0-10 9-10q2 1 1 2l3 1q1-1 3 1 2 0 2 2l2 2q1-1 2 1 2-2 2 1 1-1 4 2 0 6-6 11"/><path d="M447 403s1 8-3 11c5-3 3-11 3-11m-5 9c3-3 3-11 3-11s-1 8-3 11m-3-2c0-5 4-10 4-10s-4 5-4 10m-2-1c0-6 4-10 4-10v-1s-4 5-4 11m-3-2c0-7 5-10 5-11s-5 4-5 11m-3-2c0-6 5-10 5-10s-5 4-5 10m-5-2a10 10 0 0 1 7-9 11 11 0 0 0-7 9"/><path fill="#00a651" d="M418 415s-1-10 4-13l2 1q2-1 3 1l2 1s4-1 3 2q2-1 2 1 2-1 3 1 2-1 2 2s4 0 3 2q1-1 2 2 2-1 2 3l-10 7"/><path fill="#00a651" d="M415 425s-3-8 2-10h3q1-1 3 1h2l1 1q1-1 2 1 1-1 2 2l2 1q2 0 2 2s3 0 1 2q1-1 1 2-2 4-8 5"/><path fill="#00a651" d="M418 431s-5-5-3-6l1 1h2l2 1 2 1 1 1 2 1 1 1q2 0 2 2-2 1-8-1z"/><path d="M435 423c3-1 9-8 9-8s-6 7-9 8m-1-1 8-9zm-2-1 7-11s-4 8-7 10zm-1-1c1-4 6-10 6-10v-1c0 1-6 7-6 10zm-11-5c0-6 4-12 4-12s-5 6-4 12m3 0c-1-4 4-10 4-10v-1c0 1-5 7-4 11m4 2c0-5 5-10 5-10s-5 5-5 10m-10 9c-2-5 1-11 1-11s-3 6-1 11m2 0c-2-5 1-11 1-11s-3 6-1 11m8 5q8-4 8-6s-3 4-8 6m-1-1c4-2 8-7 8-7h-1s-3 5-7 7m-1-1 7-8zm-5-2 3-11s-4 6-3 11m2 1c4-3 5-10 5-11h-1s-1 8-4 11m2 1c5-3 6-9 6-9s-1 6-6 9m1-14v1l-4 11h1l3-11c0-5 4-11 4-11s-4 5-4 11"/><path d="M428 418s-1 8-5 11c5-3 6-10 6-11l6-9-1-1zm-12 8 2 6zm2 0v6zm0 6 1-5zm1 0 3-4zm0 0 4-3s-2 3-4 3"/><path d="m419 432 6-3s-2 2-6 2"/><path d="M420 432s5 1 6-2c-1 2-6 1-6 1"/><path fill="none" stroke="#000" stroke-width="3" d="M310 254v136c0 45 81 71 81 71s80-26 80-70V254z"/></g><path fill="#012169" d="M0 0h256v256H0z"/><path fill="#FFF" d="M256 0v32l-95 96 95 94v34h-33l-96-94-93 94H0v-34l93-93L0 37V0h31l96 94 93-94z"/><path fill="#C8102E" d="m92 162 6 17-77 77H0v-1zm62-6 27 4 75 74v22zM256 0l-96 98-2-22 75-76zM0 1l97 94-30-4L0 25z"/><path fill="#FFF" d="M88 0v256h80V0zM0 88v80h256V88z"/><path fill="#C8102E" d="M0 104v48h256v-48zM104 0v256h48V0z"/></svg>