<svg xmlns="http://www.w3.org/2000/svg" xmlns:xlink="http://www.w3.org/1999/xlink" viewBox="0 0 512 512"><defs><linearGradient xlink:href="#fk-a" id="fk-c" x1="444" x2="471" y1="592" y2="577" gradientTransform="scale(1.003 .997)" gradientUnits="userSpaceOnUse"/><linearGradient xlink:href="#fk-a" id="fk-g" x1="852" x2="646" y1="370" y2="370" gradientUnits="userSpaceOnUse"/><linearGradient xlink:href="#fk-a" id="fk-d" x1="458" x2="521" y1="563" y2="553" gradientTransform="scale(.936 1.068)" gradientUnits="userSpaceOnUse"/><linearGradient xlink:href="#fk-a" id="fk-e" x1="472" x2="445" y1="579" y2="580" gradientTransform="scale(1.003 .997)" gradientUnits="userSpaceOnUse"/><linearGradient xlink:href="#fk-a" id="fk-f" x1="518" x2="456" y1="554" y2="558" gradientTransform="scale(.936 1.068)" gradientUnits="userSpaceOnUse"/><linearGradient id="fk-a"><stop offset="0" stop-color="#a43907"/><stop offset="1" stop-color="#fff"/></linearGradient><linearGradient xlink:href="#fk-a" id="fk-h" x1="389" x2="677" y1="507" y2="509" gradientTransform="scale(.823 1.215)" gradientUnits="userSpaceOnUse"/><linearGradient xlink:href="#fk-a" id="fk-i" x1="580" x2="557" y1="505" y2="506" gradientTransform="scale(.835 1.198)" gradientUnits="userSpaceOnUse"/><linearGradient xlink:href="#fk-a" id="fk-j" x1="581" x2="559" y1="512" y2="514" gradientTransform="scale(.823 1.215)" gradientUnits="userSpaceOnUse"/><linearGradient xlink:href="#fk-a" id="fk-k" x1="552" x2="590" y1="518" y2="504" gradientTransform="scale(.835 1.198)" gradientUnits="userSpaceOnUse"/><linearGradient xlink:href="#fk-a" id="fk-b" x1="444" x2="471" y1="592" y2="577" gradientTransform="scale(1.003 .997)" gradientUnits="userSpaceOnUse"/></defs><path fill="#012169" d="M0 0h512v512H0z"/><path fill="url(#fk-b)" fill-rule="evenodd" stroke="#fff" stroke-width="10" d="M671 322h-2c-3 0-9 11-12 18l-9 13q-2 2-1 5c-7 1-8 7-8 10l1 3 4 8c5 10 11 22 15 23 5 1 19-4 29-12a164 164 0 0 0 62 12q36-1 62-12c10 8 24 13 29 12 4-1 10-14 15-23l4-8 1-3c0-3-1-9-8-10q1-3-1-5l-9-13c-3-7-9-18-12-18-5-1-15 1-15 2v1l-21 19c0 1 1 15 5 27a147 147 0 0 1-50 9q-30-1-51-9l6-27-21-19v-1zm5 24q5 1 8 4v2l-4 10-14-10q4-5 10-6zm148 0q6 1 10 6l-14 10-4-10v-2q3-3 8-4zm-166 27 10 7-3 2h-6l-1-6zm184 0v3l-1 6-9-2z" transform="translate(-324 17)scale(.952)"/><path fill="url(#fk-c)" fill-rule="evenodd" stroke="#000" d="M446 596s5-9 10-9c5 1 9 7 9 7l7-8s-7-16-11-17l-12 2z" transform="matrix(-1.204 0 0 1.26 869 -393)"/><path fill="url(#fk-d)" fill-rule="evenodd" stroke="#000" d="M433 586c0 1 2 24 10 32s21 13 26 12 15-25 15-25-11 11-19 9c-9-1-14-15-15-22-2-7-1-21-1-21z" transform="matrix(-1.204 0 0 1.26 869 -393)"/><path fill="url(#fk-e)" fill-rule="evenodd" stroke="#000" d="M446 596s5-9 10-9c5 1 9 7 9 7l7-8s-7-16-11-17l-12 2z" transform="matrix(1.204 0 0 1.26 -88 -393)"/><path fill="url(#fk-f)" fill-rule="evenodd" stroke="#000" d="M433 586c0 1 2 24 10 32s21 13 26 12 15-25 15-25-11 11-19 9c-9-1-14-15-15-22-2-7-1-21-1-21z" transform="matrix(1.204 0 0 1.26 -88 -393)"/><path fill="url(#fk-g)" fill-rule="evenodd" stroke="#000" stroke-width="2" d="m656 339-9 13q-3 5 4 15c5 7 45 34 98 34s93-27 98-34q7-10 4-15l-9-13c0 8-34 40-93 40s-93-32-93-40z" transform="translate(-323 18)scale(.952)"/><path fill="url(#fk-h)" fill-rule="evenodd" stroke="#000" d="m468 626 7-12-4-3-5 8q0 7 2 6z" transform="matrix(1.204 0 0 1.26 -87 -392)"/><path fill="url(#fk-i)" fill-rule="evenodd" stroke="#000" d="M475 623s1-5-3-6-6 3-5 2q2-1 3-9v-8s1-7 8-6q8 3 7 8l-1 3z" transform="matrix(1.204 0 0 1.26 -88 -393)"/><path d="m457 366 1 3 1-1v-2l2-1 5 9-1 1 5-2-1-1h-1l-5-8 2-2 1 2 1-1-1-2zm-12 7 1-1 4 9v1h-1v1l5-2v-1h-2l-2-4 5-3 2 4v1l-1 1 5-2v-1l-1 1-1-1-4-8v-1h1v-1l-5 2v1h2l2 3-5 3-2-4 1-1v-1zm-3 7 1 1h1l1 4h-1q-3 2-5-4-1-4 2-6h2l1 2 2-1-1-3-4 1q-6 2-5 8 2 7 8 4l4-2-1-4h1v-1zm-10 11 5-2v-1h-2l-3-9v-1h2l-1-1-5 2h2l3 10h-1l-1 1zm-29 4 9-1v-3h-1v2l-4 1-1-5h3v1h1v-4h-1v1l-1 1h-2v-5h4v2h1v-3l-9 1v1h2v10zm-14-12v1h2v10l-1 1h5-1l-1-1v-4l5-1v5h-1v1h5v-1h-1l-1-10h2v-1h-5v1h1v4h-5v-4h1v-1zm-10 0v3h1v-2h3v10h-2v1h5v-1h-1v-10h2l1 2h1v-3zm-16 10 9 1v-4h-1v2h-4v-5l2 1v1h1l1-4h-1l-1 1h-2v-4h4v2h1v-3h-8v1h1v10h-2zm-20-5 4 2v-2h-1l3-10 2 1v-1l-5-2v1h1v1l-3 9h-1zm-9-3 3 1q4 1 5-2v-3l-2-2-1-3 2-1 1 1v2l2 1v-3l-2-2q-5 0-5 2v3l2 2 1 3q0 2-3 1l-1-1v-2l-1-1zm-11-5 8 4 2-3h-1l-1 1h-1l-3-1 2-5 2 1v1l-1 1h1l2-4h-1l-1 1-2-1 2-4 3 2v2h1l1-2-8-4v1h1v1l-4 8-1 1zm-1-15-4-3-1 1 1 1-5 8h-1l-1 1 4 3 4 1q3 0 5-3 3-5-2-9m-2 0q3 2 0 6-3 6-6 2zm33 13h2l-2 10h-2v1l5 1v-1h-1l1-4q2 0 2 3l1 2 1 1 2 1v-1l-2-2v-3l-2-1q3 0 4-3 0-3-3-4zm3 2q2 0 2 3l-4 2v-1zm60 1h2l1 10h-1v1l5-1v-1h-1l-1-4q3 0 4 2l1 2h4v-1l-3-1-1-2-2-1q3-1 3-4-1-3-5-2zm4 0q3 0 3 2 0 3-2 3h-1z"/><path fill="url(#fk-j)" fill-rule="evenodd" stroke="#000" d="m468 626 7-12-4-3-5 8q0 7 2 6z" transform="matrix(-1.204 0 0 1.26 868 -392)"/><path fill="url(#fk-k)" fill-rule="evenodd" stroke="#000" d="M475 623s1-5-3-6-6 3-5 2q2-1 3-9v-8s1-7 8-6q8 3 7 8l-1 3z" transform="matrix(-1.204 0 0 1.26 869 -393)"/><path fill="#0072c4" fill-rule="evenodd" stroke="#fff" stroke-width="4" d="M397 606s-76-21-75-102V397h149l1 106c0 81-75 103-75 103z" transform="matrix(1.204 0 0 1.26 -87 -390)"/><g fill-rule="evenodd"><path fill="#bcbcbc" d="m313 140 3-2 4-2 4-2 3-3 1-5 4-2 4-1 5-1 4 2 5 3 3 3 4 2 4 2 2 3 4 3 6 2h15l5 1h16l6 1 5-1h12l5 2 4 1 3 3 3 4 3 5v6l1 5-2 6v5l-1 5v5l-1 5-2 6-3 3q-2 1-1 2l1 3v5l1 5q1 1 0 0-1 2-3-1l-1-4-1-5q-1-2-3-2l-5-2q-2 0-2 2v6l-2 4-3 3-3 3-2-3 2-4 2-4-2-3-2-5-4-1-5 2h-5l-5 1h-9l-5-1-5-1-5 1-4 4-2 5-1 4-1 4q0 4-2 2l-3-4 1-5h-2l-1 5-2 3-3 2v-12l-1-5-3-3-4-2-4-3-3-2-3-3-1-5-2-5-1-5-1-5v-11l-1-5-1-5-2-2-4 2-5-1-4-2-2-3-1-5z"/><path fill="#fefefe" d="m336 154 3-2 2-2 3-2 3-2h3l3-1 3-2v-2q0 2-2 3l-2 3-2 2-2 3 1 1h2l2-3 2-3 2-2 3-2 2-1-1 3 1 3 1 2 1-4-1 4 1 3 1 2 1-4v4l1 3 2 1 1-7v-3 3-3l1 4v4l2-3 2-3-2 3 2-3v7l1 4v2l1-2 1-5q0-2 1 1v4l1 2 2-3 1-2q2-1 2-3v-4l1-3q1-1 1 1l1 3 1 4 2 2v4l2-5-1-4v-3l-1-2h4l1 3v3l1 3h2l1-3 1-2v4l2 3 1 1v-8l1-3 1 3 1-2q1-1 1 1l1 4 2 3 2 2 1 2v-6l-1-4v-2l2 3 2 4 2 2 2 3h2l-1-4v-3l-3-3v-2l3 4 3 2 3 2 2 2-2-2 2 2-1-5-3-3-2-2-3-3 4 1 3 4 2 3 3 2q2 1 1-1-1-3 1-1l2 2 2 1 1-1-3-3-2-3-2-2 2 2-2-2 3 1 3 2 2 2 2 2 1 4 1 3q-1 2-1-1h-1v3l-1 3-1-2q1-2-2-2v1l2 4v22-4 4l-2-4-2-3v-3l-2-2 1 6 1 3v4l-1 2-2 2-1-4-1-4-3-3-2-3-2-3h-1v3l1 5v3l-2-5-2-3-1-3-1-1 1 3 1 4-3-6-2-4-2-1-2-2 1 4 1 3q-1 2-1-1l-1-3-2-2q-1-1-1 1l1 4v9l-2-3-1-4h-3l1 4h-1q-2-3-3-2l-1-3v-3l-3 1v8l-1 2-1 3h-1v-13l-3-1v3l1 3v4l-1 3-1 1-3-2h-4l-2-2-1-4-1-4-2-2-1 4v3l-1-3q-1-3-3-3-2-1-2 2l2 4v4q1 2-1 2l-2-5h-3v2h-2v3l-1 3q-1-1 0 0l-5-2-2 2h-4l-3 1h-3l-3-1 2-2 2-2 2-2q0-2 2-2h7l3-2 3-1 3-2v-4l-3 1-2 2-3 1h-4l-4 1 4-2 3-1 2-3h-2l-4 1-3 1v-2q3 0 2-2l-3 1-4 1h-4l-4-1-1-2 4-1 2-1 2-2h-4l1-1 3 1 4-2 2-2 2-2 3-3 1-1-4 1-2 2-3 1h-4v-1l1-2h-8l-3-1 1-1h4l2-2-4-1zm-23-6-1-5 1-3 3-2 4-2 4-2 3-2 1-6 4-2 4-1 5-1 5 2 4 3 3 3 4 2-1 1-2 1-2-2v2h-2l-1-4-1 1v3h-6q-2 1-1 2l4 2 3-1h4l2 1v2l-2 1-4 2-3 1-2 2-4 1h-2l2-3 1-2q-2 0-3 2l-1 2v-4l-3 1-1 1h-4l-1-1-2-1-3 1h-3v2l3 1h4l1 1-3 1-4-1h-3v1l4 1q1 2-1 2h-5c2 0-2-2-2-3"/><path fill="#bcbcbc" d="m321 139-2 1-3 2-1 1 3-1 3-1zm12-13 1 1 1 3 1-4-2-1z"/><path fill="#c4c4c2" stroke="#000" d="m349 418 2-1 1-2 2 1 3 1v1h-3l-3 1z" transform="matrix(1.204 0 0 1.26 -96 -389)"/><path fill="#bcbcbc" d="M338 126v1l1 4 2-3q0-2-3-2m10 32 1-1 3-2 4-2h2l-2 2-3 2-2 1zm5 8 3-3 3-3 2-3 2-2v6l-3 3-3 1-2 2zm-8 6 1-1 3-2 4-1h1v3l-3 1-3 1-2-1 2 1zm11 0 1-1 2-3 3-1v3l-2 2-2 2z"/><path d="m330 136-1 2-2-2 2-1z"/></g><g fill="#005120" fill-rule="evenodd" stroke="#002b0d"><path d="M352 480h1q-4-1 3 3 2-2 4 1 1 2 2-2 0 7 4 4l7 1c2 3 1-1 3 1 4 0 4-4 8-5q3 3 7-1c2 1 5 5 5 1q2-4 4 0 2 1 4-2 4 3 11 1 1 4 4 1 4 3 10 0 2-3 2 2l7-1q4 1 5-3 2 4 5 1c4 0 3 1 5-1 2 4 3 1 5 3l-6 7q-2 5-6 7l-8 6-13 1h-37l-11 3-11-1-7-6-4-6-3-9z" transform="matrix(1.204 0 0 1.26 -90 -390)"/><path d="m438 488-2 4-3 2m-3-3-6 8 6-8-6 8m-7-12-1 4m-2 2zm-7-5h-1q1 0 0 0zm-50 0 4 4v8m3-7 5 4-5-4 5 4v1-7q2 4 3 2l11-3q-1 1 1 2m60-4h1l-5 7m-33-9h7" transform="matrix(1.204 0 0 1.26 -90 -390)"/></g><path fill="#fff" fill-rule="evenodd" d="M331 230c-13 0-17 13-30 13h-1v1l2 26c12-1 16-13 29-13 12 0 17 13 30 13 12 0 17-13 29-13s17 13 30 13 17-13 30-13c12 0 17 12 29 13l2-26h-1c-13 0-17-14-30-14s-17 14-30 14-17-14-30-14c-12 0-17 14-29 14-13 0-17-14-30-14m0 52c-10 0-15 8-23 12l10 20a21 21 0 0 1 13-5c12 0 17 14 29 14 13 0 18-14 31-14 12 0 17 14 29 14 13 0 17-14 30-14a20 20 0 0 1 13 5l9-20c-7-4-12-12-22-12-13 0-17 14-30 14s-17-14-30-14-17 14-30 14c-12 0-16-14-29-14m59 52c-12 0-17 14-29 14-13 0-17-12-28-13a144 144 0 0 0 43 32c5-3 9 4 14 4 6 0 10-7 14-4a144 144 0 0 0 44-32c-11 1-16 13-28 13-13 0-17-13-30-13z"/><g transform="matrix(.96 0 0 .96 -338 20)"><path fill="none" stroke="#512007" d="m333 541 10-3 16 16-13 3z" transform="matrix(1.255 0 0 1.312 259 -430)"/><path fill="none" stroke="#512007" d="M414 471c0-5 8-31 8-31m-5 31 6-31m-4 31 5-31m-10 27 6-2m-4-2 4-2m-3-2 4-1m-4-3 5-1m-2-3h3m-3-4 4 1" transform="matrix(1.063 0 0 1.03 277 -178)"/><path fill="none" d="M771 328c0-8-11-55-11-55m8 53-9-53m5 49-6-48m13 47-7-3m4-5-5-2m4-4a30 42 0 0 0-5-2m5-6-6-1m3-6-4 1m3-7-4 1"/><path fill="none" stroke="#512007" d="M414 471c0-5 8-31 8-31m-5 30 6-30m-3 28 4-28m-10 27 6-2m-4-2 4-2m-3-2 4-1m-4-3 5-1m-2-3h3m-3-4 4 1" transform="matrix(-1.255 0 0 1.312 1321 -302)"/><path fill="#dd8b59" fill-rule="evenodd" stroke="#512007" d="m395 572 1-73h3l-1 73zm29-70-1 62-2 2 1-64z" transform="matrix(1.255 0 0 1.312 259 -430)"/><path fill="#dd8b59" fill-rule="evenodd" stroke="#512007" d="M363 560s3 30 36 29c34-1 43-30 43-30h-14c-1 0-12 14-27 13q-19-1-22-6l-6-8-17-6 1 6zm90-3-1-4v-3l2-4-25 4v7z" transform="matrix(1.255 0 0 1.312 259 -430)"/><path fill="none" stroke="#512007" d="m449 550-1 6h4v-6zm-5 0v6h2l1-6zm-4 6v-5h2l1 5zm-5 0v-4h3l1 5zm-6 0 1-4h3v5zm-67 4 7 1 8 10" transform="matrix(1.255 0 0 1.312 259 -430)"/><path fill="none" stroke="#512007" d="M367 561s6 20 34 20 34-22 34-22" transform="matrix(1.255 0 0 1.312 259 -430)"/><path fill="none" stroke="#512007" d="M440 559s-14 29-39 27c-26-2-30-11-32-16l-3-9" transform="matrix(1.255 0 0 1.312 259 -430)"/><path fill="#dd8b59" fill-rule="evenodd" stroke="#512007" d="M373 558v-54h-1v53zm-41-17 22 11-1 1-21-10z" transform="matrix(1.255 0 0 1.312 259 -430)"/><path fill="#dd8b59" fill-rule="evenodd" stroke="#512007" d="m342 538 3 18 2 1-3-19zm20 0 21-3v3l-20 2z" transform="matrix(1.255 0 0 1.312 259 -430)"/><path fill="#fecf3e" fill-rule="evenodd" stroke="#512007" d="m365 514 10 3q2-2 1-3h4l1-4z" transform="matrix(1.255 0 0 1.312 259 -430)"/><path fill="#dd8b59" fill-rule="evenodd" stroke="#512007" d="m363 522 23-6v2l-23 6z" transform="matrix(1.255 0 0 1.312 259 -430)"/><path fill="#fecf3e" fill-rule="evenodd" stroke="#512007" d="m415 513 3 3 3-2q0 2 3 2c2 0 3-4 3-4l3 1 2-5zm-2 28 3 2 3-2q-1 3 4 3 4-3 3-4l2 1c3 1 5-3 5-3z" transform="matrix(1.255 0 0 1.312 259 -430)"/><path fill="#dd8b59" fill-rule="evenodd" stroke="#512007" d="m363 513 1 3 19-7v-1zm25-4 20-6v3l-18 5z" transform="matrix(1.255 0 0 1.312 259 -430)"/><path fill="#fecf3e" fill-rule="evenodd" stroke="#512007" d="M413 522s-3 3-2 7l3 9s3-6 7-6c3-1 10 3 10 3l-1-10c0-4 5-9 5-9z" transform="matrix(1.255 0 0 1.312 259 -430)"/><path fill="#dd8b59" fill-rule="evenodd" stroke="#512007" d="M387 517v2l24-6v-2z" transform="matrix(1.255 0 0 1.312 259 -430)"/><path fill="#b6b6b4" fill-rule="evenodd" stroke="#512007" d="M356 552h-6l3 4q-1 3 1 4l3-2v-5z" transform="matrix(1.255 0 0 1.312 259 -430)"/><path fill="#dd8b59" fill-rule="evenodd" stroke="#512007" d="M388 537v2l21-3-1-1z" transform="matrix(1.255 0 0 1.312 259 -430)"/><path fill="#fecf3e" fill-rule="evenodd" stroke="#512007" d="m363 541 2 2 3-2q0 2 4 3l5-4 2 2 3-3zm0-17s-3 0-2 6q2 8 4 8s2-5 6-6c3-1 9 3 9 3l1-9 3-8z" transform="matrix(1.255 0 0 1.312 259 -430)"/><path fill="#dd8b59" fill-rule="evenodd" stroke="#512007" d="M412 539v2l21-3v-2zm0-19v2l25-6v-2z" transform="matrix(1.255 0 0 1.312 259 -430)"/><path fill="none" stroke="#512007" d="M414 511v2l18-5 1-2c-2 1-18 6-19 5zm39 34-18-29m-3 20 2-18" transform="matrix(1.255 0 0 1.312 259 -430)"/><path fill="#fecf3e" fill-rule="evenodd" stroke="#512007" d="m389 510 4 3 3-3s0 4 2 3q4-1 3-3c-1-2 2 1 3 0l2-5zm-1 8q-2 3-2 10l3 8q1-2 9-5c3-1 9 3 9 3l-2-8c0-3 5-13 5-13zm0 21q0 2 3 3l3-2c0-1-1 3 2 3 4 0 5-4 5-4s0 2 3 1l6-4c-1 0-21 4-22 3z" transform="matrix(1.255 0 0 1.312 259 -430)"/><use xlink:href="#fk-l" width="992" height="496" transform="translate(-7 7)"/><use xlink:href="#fk-l" width="992" height="496" transform="translate(7 4)"/><use xlink:href="#fk-l" width="992" height="496" transform="translate(0 11)"/><path id="fk-l" fill="#be0f17" fill-rule="evenodd" stroke="#512007" stroke-width="1" d="M409 477a2 2 0 1 1-4 0 2 2 0 0 1 4 0z" transform="matrix(.04 -1.072 1.024 .043 252 668)"/><path fill="none" stroke="#512007" d="m398 500 9 4 32 43m-15-43 8 4 2 6m-61-10 9 7 1 5m-42 30 33-26m-40 21 31-26m22 4 30 49m-4-29s3 12 7 14l8 4" transform="matrix(1.255 0 0 1.312 259 -430)"/><path fill="none" stroke="#512007" d="M413 540s2 13 6 16l7 5" transform="matrix(1.255 0 0 1.312 259 -430)"/><path fill="none" stroke="#512007" d="M391 439s3 19 10 24l13 8" transform="matrix(1.255 0 0 1.312 256 -299)"/><path fill="none" stroke="#512007" d="M391 439s7 15 14 19l15 10m-54-28 4 13 6 7m-9-20 6 13 16 17" transform="matrix(1.255 0 0 1.312 256 -299)"/><path fill-rule="evenodd" stroke="#512007" d="M385 471a2 2 0 1 1-5 0 2 2 0 0 1 5 0zm10 5a2 2 0 1 1-3 0zm14 1a2 2 0 1 1-4 0 2 2 0 0 1 4 0zm12-4-2 1-1-2 1-1zm9-6q1 1-1 1l-2-1 2-2z" transform="matrix(1.255 0 0 1.312 256 -299)"/><path fill="red" fill-rule="evenodd" stroke="#512007" d="m374 404-13 4 13 2zm25-4-9 3 9 2zm25 3-9 3 9 2z" transform="matrix(1.255 0 0 1.312 256 -299)"/><path fill="none" stroke="#512007" d="M414 471c0-5 8-31 8-31m-5 30 6-30m-3 28 4-28m-10 27 6-2m-4-2 4-2m-3-2 4-1m-4-3 5-1m-2-3h3m-3-4 4 1" transform="matrix(1.255 0 0 1.312 256 -299)"/><path fill="none" stroke="#512007" d="M414 471c0-5 8-31 8-31m-5 31 6-31m-4 31 5-31m-10 27 6-2m-4-2 4-2m-3-2 4-1m-4-3 5-1m-2-3h3m-3-4 4 1" transform="matrix(1.255 0 0 1.363 225 -323)"/><path fill="none" stroke="#512007" d="M414 471c0-5 8-31 8-31m-5 30 6-30m-3 28 4-28m-10 27 6-2m-4-2 4-2m-3-2 4-1m-4-3 5-1m-2-3h3m-3-4 4 1" transform="matrix(-1.255 0 0 1.32 1259 -307)"/><path fill="#dd8b59" fill-rule="evenodd" stroke="#512007" d="M426 559h28v-2h-28zm2-8 27-4v-3l-27 5z" transform="matrix(1.255 0 0 1.312 259 -430)"/><use xlink:href="#fk-l" width="992" height="496" transform="translate(0 6)"/></g><path fill="#012169" d="M0 0h256v256H0z"/><path fill="#FFF" d="M256 0v32l-95 96 95 94v34h-33l-96-94-93 94H0v-34l93-93L0 37V0h31l96 94 93-94z"/><path fill="#C8102E" d="m92 162 6 17-77 77H0v-1zm62-6 27 4 75 74v22zM256 0l-96 98-2-22 75-76zM0 1l97 94-30-4L0 25z"/><path fill="#FFF" d="M88 0v256h80V0zM0 88v80h256V88z"/><path fill="#C8102E" d="M0 104v48h256v-48zM104 0v256h48V0z"/></svg>