<svg xmlns="http://www.w3.org/2000/svg" viewBox="0 0 512 512"><defs><clipPath id="fm-a"><path d="M244 0h496v496H244z"/></clipPath></defs><g fill-rule="evenodd" clip-path="url(#fm-a)" transform="translate(-252)scale(1.032)"><path fill="#6797d6" d="M0 0h992v496H0z"/><path fill="#fff" d="M508 85h39l-32 21 12 35-31-22-32 22 12-35-31-22h39l12-34m12 363h39l-32-22 12-35-31 22-32-22 12 35-31 22h39l12 34M346 230l37-11-24 29 22 30-36-11-24 30 1-37-36-12 37-11 1-37m321 30-37-11 24 29-22 30 37-11 23 30-1-37 37-12-38-11-1-37"/></g></svg>