<svg xmlns="http://www.w3.org/2000/svg" xmlns:xlink="http://www.w3.org/1999/xlink" viewBox="0 0 512 512"><path fill="#fff" d="M0 0h512v512H0z"/><rect fill="#fff" fill-rule="evenodd" rx="0" ry="0"/><rect id="gb-nir-a" width="512" height="102" y="205" fill="#c00" fill-rule="evenodd" rx="0" ry="0"/><use xlink:href="#gb-nir-a" width="600" height="300" transform="matrix(0 1 -.9375 0 496 0)"/><path fill="#ebeae3" fill-rule="evenodd" stroke="#000" d="M291 156q4-7-3-9s-15 5-31 6c-16 0-35-5-35-5q-5 5-1 11s17 6 36 6a108 108 0 0 0 30-6q5-2 4-3z"/><path fill="#fff" stroke="#161111" stroke-width="2" d="m320 390-31-65-71 6 40-59-40-59 71 6 31-64 31 64 71-6-40 59 40 59-71-6z" transform="matrix(1 0 0 1.06667 -64 -34)"/><path fill="#b02320" fill-rule="evenodd" stroke="#000" d="M256 130c38 7 37 9 37 9l10-32s1-6-2-10-10-2-10-2-1-5-5-6c-3-2-16 4-20 6l-11 2-17-6-7-2q-4 0-7 3l-1 4-5-2q-4 0-7 3l-3 7 4 8v12l7 13z"/><path fill="#ebeae3" fill-rule="evenodd" stroke="#000" d="m292 149 2 3-1 2v1l-1 1-1 2-4 1s-15-5-31-5-35 6-35 6l-2-2v-3l-1-1v-4l2-2s17-6 36-6a101 101 0 0 1 36 7z"/><path fill="none" stroke="#000" d="m212 108 1-4a4 4 0 0 1 5-2l1 2 2-1"/><path fill="#fc0" fill-rule="evenodd" stroke="#000" d="m306 114-6 13h-2l-6-1-3 1 5-12 1 4 4 4-1-5-3-8z"/><path fill="#121116" stroke="#121116" stroke-linejoin="round" d="M253 74h6v29h-6z"/><path fill="#f6ca1f" fill-rule="evenodd" stroke="#000" d="m213 128 4 10s18-8 39-7c31 0 40 7 40 7l5-12-4 2-3 2-4 2-5-1-5-3-2-5-4 4-6 1-7-2-5-7s-4 8-10 9c-8 1-12-4-12-4s-3 7-8 8c-7 2-13-4-13-4z"/><g stroke-width="2"><path fill="#eee" stroke="#1e1e1e" stroke-linejoin="round" d="M431 247a7 7 0 0 1-7 7 7 7 0 0 1-6-7 7 7 0 0 1 6-6 7 7 0 0 1 7 6" transform="matrix(.52155 0 0 .55632 60 -68)"/><path fill="#a3afb8" fill-rule="evenodd" d="m280 72 3-1-1-3 1 3-1 1z"/><path fill="#eee" stroke="#1e1e1e" stroke-linejoin="round" d="M431 247a7 7 0 0 1-7 7 7 7 0 0 1-6-7 7 7 0 0 1 6-6 7 7 0 0 1 7 6" transform="matrix(.52155 0 0 .55632 52 -63)"/><path fill="#a3afb8" fill-rule="evenodd" d="m271 76 3-1v-3l1 3-2 2z"/><path fill="#eee" stroke="#1e1e1e" stroke-linejoin="round" d="M431 247a7 7 0 0 1-7 7 7 7 0 0 1-6-7 7 7 0 0 1 6-6 7 7 0 0 1 7 6" transform="matrix(.52155 0 0 .55632 69 -70)"/><path fill="#a3afb8" fill-rule="evenodd" d="M289 70s3 0 3-2v-2l1 2-2 2z"/><path fill="#eee" stroke="#1e1e1e" stroke-linejoin="round" d="M431 247a7 7 0 0 1-7 7 7 7 0 0 1-6-7 7 7 0 0 1 6-6 7 7 0 0 1 7 6" transform="matrix(.52155 0 0 .55632 80 -68)"/><path fill="#a3afb8" fill-rule="evenodd" d="m300 72 3-1-1-3q2 0 2 3l-2 1z"/><path fill="#eee" stroke="#1e1e1e" stroke-linejoin="round" d="M431 247a7 7 0 0 1-7 7 7 7 0 0 1-6-7 7 7 0 0 1 6-6 7 7 0 0 1 7 6" transform="matrix(.52155 0 0 .55632 88 -60)"/><path fill="#a3afb8" fill-rule="evenodd" d="m308 79 3-1v-3l1 3-2 1z"/><path fill="#eee" stroke="#1e1e1e" stroke-linejoin="round" d="M431 247a7 7 0 0 1-7 7 7 7 0 0 1-6-7 7 7 0 0 1 6-6 7 7 0 0 1 7 6" transform="matrix(.52155 0 0 .55632 92 -49)"/><path fill="#a3afb8" fill-rule="evenodd" d="m311 91 3-1v-3l1 2q0 3-2 2z"/><path fill="#eee" stroke="#1e1e1e" stroke-linejoin="round" d="M431 247a7 7 0 0 1-7 7 7 7 0 0 1-6-7 7 7 0 0 1 6-6 7 7 0 0 1 7 6" transform="matrix(.52155 0 0 .55632 90 -37)"/><path fill="#a3afb8" fill-rule="evenodd" d="M310 103s3 0 3-2v-2l1 2-2 2z"/><path fill="#eee" stroke="#1e1e1e" stroke-linejoin="round" d="M431 247a7 7 0 0 1-7 7 7 7 0 0 1-6-7 7 7 0 0 1 6-6 7 7 0 0 1 7 6" transform="matrix(.52155 0 0 .55632 86 -26)"/><path fill="#a3afb8" fill-rule="evenodd" d="m305 113 3-1v-3l1 3-2 1z"/><path fill="#eee" stroke="#1e1e1e" stroke-linejoin="round" d="M431 247a7 7 0 0 1-7 7 7 7 0 0 1-6-7 7 7 0 0 1 6-6 7 7 0 0 1 7 6" transform="matrix(.52155 0 0 .55632 44 -60)"/><path fill="#a3afb8" fill-rule="evenodd" d="m263 79 3-1v-3l1 3-2 2z"/><g stroke-width="3"><path fill="#eee" stroke="#1e1e1e" stroke-linejoin="round" d="M431 247a7 7 0 0 1-7 7 7 7 0 0 1-6-7 7 7 0 0 1 6-6 7 7 0 0 1 7 6" transform="matrix(.43616 0 0 .46523 70 -39)"/><path fill="#a3afb8" fill-rule="evenodd" d="m254 78 3-1-1-2 1 2-1 1z"/></g><g stroke-width="3"><path fill="#eee" stroke="#1e1e1e" stroke-linejoin="round" d="M431 247a7 7 0 0 1-7 7 7 7 0 0 1-6-7 7 7 0 0 1 6-6 7 7 0 0 1 7 6" transform="matrix(.43616 0 0 .46523 70 -35)"/><path fill="#a3afb8" fill-rule="evenodd" d="m254 82 3-1-1-3 1 3-1 1z"/></g><g stroke-width="3"><path fill="#eee" stroke="#1e1e1e" stroke-linejoin="round" d="M431 247a7 7 0 0 1-7 7 7 7 0 0 1-6-7 7 7 0 0 1 6-6 7 7 0 0 1 7 6" transform="matrix(.43616 0 0 .46523 71 -29)"/><path fill="#a3afb8" fill-rule="evenodd" d="m254 87 3-1v-2 2l-1 2z"/></g><g stroke-width="3"><path fill="#eee" stroke="#1e1e1e" stroke-linejoin="round" d="M431 247a7 7 0 0 1-7 7 7 7 0 0 1-6-7 7 7 0 0 1 6-6 7 7 0 0 1 7 6" transform="matrix(.47168 0 0 .50313 56 -33)"/><path fill="#a3afb8" fill-rule="evenodd" d="m254 93 3-1v-2l1 2-2 2z"/></g><path fill="#eee" stroke="#1e1e1e" stroke-linejoin="round" d="M431 247a7 7 0 0 1-7 7 7 7 0 0 1-6-7 7 7 0 0 1 6-6 7 7 0 0 1 7 6" transform="matrix(.52155 0 0 .55632 34 -38)"/><path fill="#a3afb8" fill-rule="evenodd" d="m254 101 3-1v-3l1 3-2 2z"/><path fill="#eee" stroke="#1e1e1e" stroke-linejoin="round" d="M431 247a7 7 0 0 1-7 7 7 7 0 0 1-6-7 7 7 0 0 1 6-6 7 7 0 0 1 7 6" transform="matrix(.48982 0 0 .52248 48 -13)"/><path fill="#a3afb8" fill-rule="evenodd" d="m254 118 3-2v-2 2l-1 2z"/><path fill="#eee" stroke="#1e1e1e" stroke-linejoin="round" d="M431 247a7 7 0 0 1-7 7 7 7 0 0 1-6-7 7 7 0 0 1 6-6 7 7 0 0 1 7 6" transform="matrix(.52155 0 0 .55632 25 -60)"/><path fill="#a3afb8" fill-rule="evenodd" d="m245 79 3-1-1-3 1 3-1 1z"/><path fill="#eee" stroke="#1e1e1e" stroke-linejoin="round" d="M431 247a7 7 0 0 1-7 7 7 7 0 0 1-6-7 7 7 0 0 1 6-6 7 7 0 0 1 7 6" transform="matrix(.52155 0 0 .55632 17 -64)"/><path fill="#a3afb8" fill-rule="evenodd" d="M236 76s3 0 3-2v-2l1 2-2 2z"/><path fill="#eee" stroke="#1e1e1e" stroke-linejoin="round" d="M431 247a7 7 0 0 1-7 7 7 7 0 0 1-6-7 7 7 0 0 1 6-6 7 7 0 0 1 7 6" transform="matrix(.52155 0 0 .55632 9 -68)"/><path fill="#a3afb8" fill-rule="evenodd" d="M228 72s3 0 3-2v-2l1 2-2 2z"/><path fill="#eee" stroke="#1e1e1e" stroke-linejoin="round" d="M431 247a7 7 0 0 1-7 7 7 7 0 0 1-6-7 7 7 0 0 1 6-6 7 7 0 0 1 7 6" transform="matrix(.52155 0 0 .55632 0 -70)"/><path fill="#a3afb8" fill-rule="evenodd" d="m219 69 3-1v-3l1 3-2 2z"/><path fill="#eee" stroke="#1e1e1e" stroke-linejoin="round" d="M431 247a7 7 0 0 1-7 7 7 7 0 0 1-6-7 7 7 0 0 1 6-6 7 7 0 0 1 7 6" transform="matrix(.52155 0 0 .55632 -11 -67)"/><path fill="#a3afb8" fill-rule="evenodd" d="m208 72 3-1v-3l1 3-2 2z"/><path fill="#eee" stroke="#1e1e1e" stroke-linejoin="round" d="M431 247a7 7 0 0 1-7 7 7 7 0 0 1-6-7 7 7 0 0 1 6-6 7 7 0 0 1 7 6" transform="matrix(.52155 0 0 .55632 -19 -59)"/><path fill="#a3afb8" fill-rule="evenodd" d="m201 80 3-1-1-3q2 1 1 3l-1 2z"/><path fill="#eee" stroke="#1e1e1e" stroke-linejoin="round" d="M431 247a7 7 0 0 1-7 7 7 7 0 0 1-6-7 7 7 0 0 1 6-6 7 7 0 0 1 7 6" transform="matrix(.52155 0 0 .55632 -22 -48)"/><path fill="#a3afb8" fill-rule="evenodd" d="M198 92s2 0 3-2l-1-2 1 2-1 2z"/><path fill="#eee" stroke="#1e1e1e" stroke-linejoin="round" d="M431 247a7 7 0 0 1-7 7 7 7 0 0 1-6-7 7 7 0 0 1 6-6 7 7 0 0 1 7 6" transform="matrix(.52155 0 0 .55632 -21 -36)"/><path fill="#a3afb8" fill-rule="evenodd" d="M199 104s3 0 3-2v-2l1 2-2 2z"/><path fill="#eee" stroke="#1e1e1e" stroke-linejoin="round" d="M431 247a7 7 0 0 1-7 7 7 7 0 0 1-6-7 7 7 0 0 1 6-6 7 7 0 0 1 7 6" transform="matrix(.52155 0 0 .55632 -16 -25)"/><path fill="#a3afb8" fill-rule="evenodd" d="m204 114 3-1v-3l1 3-2 2z"/><g stroke-width="3"><path fill="#eee" stroke="#1e1e1e" stroke-linejoin="round" d="M431 247a7 7 0 0 1-7 7 7 7 0 0 1-6-7 7 7 0 0 1 6-6 7 7 0 0 1 7 6" transform="matrix(.31597 -.0903 .13499 .53737 45 32)"/><path fill="#a3afb8" fill-rule="evenodd" d="m212 129 2-2-1-3 1 3v2z"/></g><g stroke-width="3"><path fill="#eee" stroke="#1e1e1e" stroke-linejoin="round" d="M431 247a7 7 0 0 1-7 7 7 7 0 0 1-6-7 7 7 0 0 1 6-6 7 7 0 0 1 7 6" transform="matrix(.31758 .08362 -.125 .54011 196 -43)"/><path fill="#a3afb8" fill-rule="evenodd" d="m298 128 2-1 1-3v3l-1 2z"/></g></g><path fill="#b3a192" fill-rule="evenodd" stroke="#000" d="M253 57v6l-7 2q0 6 2 7c2 1 2-2 8-2l8 2 1-5v-3l-4-1h-3v-6z"/><path fill="#f0ddcb" stroke="#121116" stroke-linejoin="round" d="m262 67-1 1-1-1 1-1 1 1m3 0-1 2-1-2 1-1 1 2m-5-1-2 1-1-1a1 1 0 0 1 1-2 1 1 0 0 1 2 2m-6 0-1 1-1-1 1-1 1 1m-3 0-1 1-2-1 2-1 1 1m6-4-1 1-1-1 1-1 1 1m0-5-1 1-1-1 1-1 1 1m0 3-1 1-1-1 1-1 1 1m-9 7-2 1-1-1a1 1 0 0 1 2-1l1 1"/><path fill="#916c68" stroke="#4d3126" stroke-linejoin="round" d="m257 67-2 1-1-1a1 1 0 0 1 1-2 1 1 0 0 1 2 2"/><g stroke-width="3"><path fill="#eee" stroke="#1e1e1e" stroke-linejoin="round" d="M431 247a7 7 0 0 1-7 7 7 7 0 0 1-6-7 7 7 0 0 1 6-6 7 7 0 0 1 7 6" transform="matrix(.386 0 0 .41173 92 -53)"/><path fill="#a3afb8" fill-rule="evenodd" d="m254 50 3-1v-2 2l-1 1z"/></g><path fill="#fc0" fill-rule="evenodd" stroke="#000" d="m216 139 3 4 1 7s24-7 35-6 38 7 38 7l1-6 2-7a111 111 0 0 0-68-4zm35-100h10l-3 3-1 4 4-1 4-3v13l-4-3-3-1v3l5 6-15 1 5-7 1-3-4 1-3 3V42l3 4h3v-4z"/><path fill="#fc0" fill-rule="evenodd" stroke="#121116" d="M250 82s-7 0-13-4q-9-7-22-6c-1 1-8 4-11 14q-2 12 2 20l6 8 4-3s-10-8-9-19 7-14 7-14 6-5 14 0a77 77 0 0 0 26 9z"/><path fill="#fc0" fill-rule="evenodd" stroke="#000" d="m211 123-4-8 11-5-3 7-1 6 2-3c2-2 3-8 3-8l5 17-4-3-5 1-3 1z"/><path fill="#fc0" fill-rule="evenodd" stroke="#121116" d="M263 81s7 0 13-4q8-6 21-5c2 0 9 4 12 14q2 12-3 20l-3 6-5-2s8-7 7-18-6-14-6-14-6-5-15 0l-17 7-8 2z"/><path fill="#fc0" stroke="#121116" stroke-linejoin="round" d="M259 74h3v29h-3zm-10 0h4v29h-4z"/><path fill="#fc0" stroke="#121116" stroke-linejoin="round" d="M265 67a10 10 0 0 1-10 9 10 10 0 0 1-9-9 10 10 0 0 1 9-10 10 10 0 0 1 10 10"/><path fill="#fc0" fill-rule="evenodd" stroke="#000" d="M247 103h17l-4 5-1 5 4-2 4-4v17l-4-4-4-1h-6l-4 1-4 4v-16s1 3 4 4l4 1-2-6z"/><path fill="#f6ca1f" fill-rule="evenodd" stroke="#000" d="m256 116 5 9 9 2c5-1 9-6 9-6s0 5 3 8q5 3 8 2l10-7 2 2-9 7c-2 1-9 0-11-2q-4-4-4-6c0-2-1 3-4 4q-5 2-11-1-5-2-7-5v-2s-2 6-6 7a18 18 0 0 1-12 0q-4-2-3-3c1-1-1 6-8 8-8 2-15-4-15-4l1-2s5 5 12 5c6-1 9-10 9-10s3 5 11 5 10-11 10-11z"/><g fill="#fc0" stroke="#000" stroke-width="2"><path fill-rule="evenodd" d="m339 336 1-7 5-2q3 1 2 6v7q0 2 4 2 3-1 2-3l-1-2c-1-1 2-9 1-13q0-7-5-9-5 0-9 2l-6 8v15l6-1z" transform="matrix(.52155 0 0 .55632 60 -67)"/><path fill-rule="evenodd" d="m328 340-4-6h-5q-2 1-1 6 4 5 3 7 0 2-2 3-3 1-4-2l1-2-7-11q-2-6 2-10 3-3 8-2c4 0 9 5 9 5l6 13-5 2z" transform="matrix(.52155 0 0 .55632 60 -67)"/><path fill-rule="evenodd" d="M327 298s-6 9-5 17l9 23v2l4-1-1-2s2-19 1-24-8-15-8-15zm9 43 6 5q4 3 6 1 2-3 0-5h-3q0 3-2 1l-5-3zm-5 1-3 7q-4 4-6 4l-2-5q2-3 3-1h2l4-6z" transform="matrix(.52155 0 0 .55632 60 -67)"/><path stroke-linejoin="round" d="M342 342q-1 2-9 2-10 0-9-2t9-2q10 0 9 2" transform="matrix(.51436 -.09206 .0863 .54866 33 -35)"/></g><g fill="#fc0" stroke="#000" stroke-width="2"><path fill-rule="evenodd" d="m339 336 1-7 5-2q3 1 2 6v7q0 2 4 2 3-1 2-3l-1-2c-1-1 2-9 1-13q0-7-5-9-5 0-9 2l-6 8v15l6-1z" transform="matrix(.48843 .1951 -.1829 .521 178 -120)"/><path fill-rule="evenodd" d="m328 340-4-6h-5q-2 1-1 6 4 5 3 7 0 2-2 3-3 1-4-2l1-2-7-11q-2-6 2-10 3-3 8-2c4 0 9 5 9 5l6 13-5 2z" transform="matrix(.48843 .1951 -.1829 .521 178 -120)"/><path fill-rule="evenodd" d="M327 298s-6 9-5 17l9 23v2l4-1-1-2s2-19 1-24-8-15-8-15zm9 43 6 5q4 3 6 1 2-3 0-5h-3q0 3-2 1l-5-3zm-5 1-3 7q-4 4-6 4l-2-5q2-3 3-1h2l4-6z" transform="matrix(.48843 .1951 -.1829 .521 178 -120)"/><path stroke-linejoin="round" d="M342 342q-1 2-9 2-10 0-9-2t9-2q10 0 9 2" transform="matrix(.51196 .1062 -.09955 .5461 142 -100)"/></g><path fill="#cca715" fill-rule="evenodd" stroke="#000" d="M215 139s1 2 2 1 17-8 40-8 37 6 38 7h2l-1-3c-1-1-15-7-40-7s-41 8-41 8z"/><path fill-rule="evenodd" d="m244 149 2-3 2 1h-2l-1 1h4l-3 1 2 1zl-2-1-2 2 2-2h2zm-17 4 2-3h2-2l-1 2 2-1h2l-3 1 2 1zl-2-1-1 2 1-3h2zm31-5 2-3 3 1h-3l-1 2 2-1h2l-3 1 2 1zq0-2-2-1l-2 1 2-2h2zm14 2 3-3 2 2-3-1v1h3l-3 1 2 1zl-2-1-2 1 2-2 2 1zm14 2 2-1 2 1-2-1-1 1h2l1 1h-2l1 1zl-1-2-2 1 2-1z"/><path fill="#0f6545" stroke="#000" stroke-linejoin="round" d="M241 138q0 3-4 5l-6-2q1-3 4-5z"/><path fill="#cecfc1" d="m235 138-1 1h-1l1-1z"/><path fill="#0f6545" stroke="#000" stroke-linejoin="round" d="M280 141q-1 2-6 1-3-2-4-5 2-3 6-1 5 2 4 4z"/><path fill="#cecfc1" d="m275 137-1 1-1-2h1z"/><path fill="#1f2d86" stroke="#000" stroke-linejoin="round" d="M251 134h10v6h-10z"/><path fill="#707c8b" d="M255 136h-2l1-1z"/><path fill="#9f1209" fill-rule="evenodd" stroke="#000" d="m222 140 2 5-3 2h-3q-3-2-2-4z"/><path fill="#8f322f" d="m219 144-1 1-1-1 1-2z"/><path fill="#e2a494" d="M218 143v-2z"/><path fill="#9f1209" fill-rule="evenodd" stroke="#000" d="m290 141-2 4 4 2h3v-4z"/><path fill="#aa675d" d="m295 144-2 1-1-1 1-1z"/><path fill="#f5d8bc" d="m265 135-1 1-1-1 1-1zm4 0-1-1zm-2 2-1 1-1-1 1-1zm2 3-1-1 1-1zm-4-1-1 1-1-1zm-21-3-1-1 1-1zm4-1v-2zm-2 2v1a1 1 0 0 1-2 0zm3 3h-1l1-1zm-4 0-1-1 1-1zm-15-2-1 1h-1l1-1zm-2 3v1a1 1 0 0 1-2 0 1 1 0 0 1 1-2zm3 2-1-1zm-4 1h-1zm56-6v-1h1zm5 1-1 1-1-1zm-3 1-1 1-1-1zm1 4v-1zm-4-2v-1z"/><path fill="none" stroke="#000" d="m292 95-4 2-5-2v-2m-34 6-5-1-3-2q-4 1-4 4 1 3 4 1l-1-2q-2 1-1 2m-16-5s1 2 4 1l4-2-1-3h-2"/><g stroke="#161111"><path fill="#c00" d="M312 169q3-1 5-7c2-3 2-10 4-13 1-5 4-11 1-10q-5 1-7 6l-2 4-1-13v-13l-1-7-2-2q-3 1-3 3v12l-1 8v-13l-1-7v-4q0-4-2-3-2-1-3 3l-1 4 1 5-1 16-1-9v-12q0-3-3-4-2 0-2 4v21l-1-5-1-5v-5l-1-3q-3 0-3 3v7l-1 13-1 6v13c1 4 5 6 4 9v11q0 3 7 1c7-1 10 2 16 0l1-13zm-4-15q2-6 5-7" transform="matrix(1.6 0 0 1.70667 -224 0)"/><path fill="none" d="m292 150 7-3 8-2 4-1m-23 27h5l3-1m6 1h6l4-2" transform="matrix(1.6 0 0 1.70667 -224 0)"/></g></svg>