<svg xmlns="http://www.w3.org/2000/svg" viewBox="0 0 512 512"><path fill="#00ab39" d="M0 256h512v256H0z"/><path fill="#fff" d="M0 0h512v256H0z"/><g stroke="#000"><path fill="#d21034" d="M340 113zm0 0a585 585 0 0 0-95 64c-14 12-10 22-11 33q2 13-6 19l-32 7-3-9q1-8 13-4 0-8-10-10-3-2-4-8c-1-11 17 1 18 1 0 0-1-12-9-14q-8-3-5-10c3-7 10 1 16 1q-1-7-6-12c-2-1-8-2-8-5q1-5 13-3-3-7-13-9l-4-7c-2-4-3-4 1-10l13-9h-4l2-14c-5 6-10 5-14 7 0 0-14 2-18 8l-33-2q-11 0-14 10c-16 2-33 0-46 16l25-2s8 1 10 9h3l3 3 1-3 3 2 1-4 2 2v-4l4 2v-6s13 0 17 9c0 0-37 7-72 4l10-6q-19-2-37-14c4 17 27 36 31 36l-4-8 39 2q0 7 4 12s-2 8 3 10l5-14 4 7c2-13 16-15 16-15l3 7c-4 0-10 9-7 14-3 0-8 9-6 13-3 3-9 6-7 16-5 1-8 10-6 19-8 7-6 19 1 25q-5 3-5 7-4-1-6 1-5-6-11-3-2-7-11-7 1-7-8-11s-1-19-7-25q-1-5 5-9 7-3 6-12 5-8-3-13 0 9-4 11l-5 4c-3-3 5-9-1-16 0-1-4-11-14-10a13 13 0 0 1 7 11 35 35 0 0 0-2 25c-4-6-6-17-9-19-3-1-4-7-16-6q7 3 8 9-3 3 1 8-1 10 9 13l-3 26c-2 0-6 9-7 9-2 2-6 6-2 7q0 8-10 9s8 4 14-4c7 0 5-8 8-12l5-8c1 6 8 26 22 36 13 13 24 27 24 45q7-8 10-19 12-4 26-3-3 5-1 8-8 4-5 11-9 6-7 15c-12 16-20 15-32 11q-7-4-13-4-9-6-14 4 6-4 10 1-2 2 1 4l-3 3q-10-3-15 7 6-4 14 0l3 1v4s-7-1-9 11c7-8 12-6 12-6 3 4 13 4 20-3 10-6 13 3 20-3q9-5 17 4 8 4 14 0s5-4 11 2q-1-9-10-10l-2-1q-9-1-16-4a49 49 0 0 1 12-23c7-8 13-12 23-25q2 12 8 23s6-9 7-17l11-7c6 4 17-3 24-9a17 17 0 0 0 12 0q-4 13 12 18 2 10 19 9c1 4 7 5 7 5q-6 3-6 8-6-1-8 6a34 34 0 0 0-17 3 29 29 0 0 1-16-7q-2-4-6-6-5-3-6 1c-3-2-12-3-14 6q7-6 11-1 0 4 8 6c3 0 9 3 10 7a17 17 0 0 1-14-2 9 9 0 0 0-11 0c-3-3-12 2-12 9q5-6 10-3-2 0-1 1l9 5q-8 0-7 11s4-7 11-4c1-1 1 2 4 0q6-5 17-6 8-2 15 1 6-5 14 0c5 2 9 8 16 5q6-4 13 2-1-8-12-9l-4-3-13-2a78 78 0 0 0 49-36l10 4c3 0 3 1 8 3 0-8-3-16-16-16l-18-7c-4-4-6-13-1-18 5-4 6-3 9-9 3 0 7 4 11 4 1 5 11 9 17 8q7 6 19 2 6 7 17 3 4 3 10 2c1 0 3 5 8 7-3 2-1 11 1 14q-3 5-1 11-7 3-4 11-10 14-21 8l-8-5-8-8q-3-2-5 1s-11-2-12 7c5-4 11-1 11-1v3l14 6-9-2q-6-2-10 2c-4 1-10 3-10 10q5-5 11-4v1c5 3 4 0 9-1l13 2q-7 1-11 4-2 0-2 3s-7-1-9 10q12-6 13-5l3 1 9-7s9-3 13 1q5 3 11 0 11-5 20 1l6 3 3-2s6-1 11 4c-2-10-9-10-9-10l-2-2-10-4c-2-4-6-7-2-11 4-20 9-34 1-54 7 3 13 13 21 9 0-8-29-23-51-35 36-2 80-29 63-63l8-25a34 34 0 0 0 19 16c-6-11-9-43-6-66a530 530 0 0 1-48 51q12 2 24-1l-7 14c-22-13-49-3-49 15 1 20 26 23 41 16-3 19-46 12-46 12-15-6-30-5-46-5 4-10 22-19 36-15-20-22 3-49 30-58-30-9-4-32 18-48 0 0-64 27-69 27-18-2-13-23-7-35zm-200 26 5 1 6 2q-2 4-8 4-5 0-6-7zm268 75q6 0 14 7c-3 7-23 11-24 1q-1-6 10-7z"/><path fill="none" stroke-linejoin="round" d="m161 198 3 4m0 1 1 6m-3 3 4 5m-9 2 4 4m3-3 4 6m-9-2 3 8m-8 7 4 6m3-12s2 8 3 7m2-11s3 5 4 4m0 2 3 7m-9-2 3 8m-10-4s3 9 5 8m-6 4s1 4 3 4m1-6 3 3m4-9 2 3m4-8 3 3m-16-43c0 3 6-2 8-5m-11 18s7-5 12-12m-14 23c5-1 13-12 15-17m-16 27c1 1 17-11 18-19m-18 28s14-4 20-20m-21 32s23-14 24-24m157 47s-1 12-13 14m17 8s11-13 8-17m18 5s0 8-7 14m21-12s1 11-4 15m17-8-6 10m6 7s7 2 9-3m-7 17s6 1 9-5m-10 16s5 4 8-1m-79-80s0 22 30 26c33 9 49 4 51 42-1 14-3 30-14 24m-99-72s5 8 11 8c7-2 10 2 10 2m-41-2s12 7 23-3m-22-5c1 14-17 23-24 21m25 35s10-6 8-10m-27 1s16-1 19-7m-27-16s23 0 25 4m6-18s-23 38 18 38m-42-38s-5 14-11 19m-12-24s8 16 0 24m-22-20c0 1 3 23-3 29m-7-28s0 14-4 19 1 16 1 16m-51 7s3 5 7 3m-2-15s7 3 9 2m-1-26s-10 3-7 15q11 6 12 4m-25 31s1 10 8 3c4-10 18-36 21-45m7-5s-7-5-7 2q1 7 2 6c1 3 4 8 6 4l-1-6m4-8c-6 0-9 13 3 5m4-9s-2 2-4 0c-1-3-6 10 2 10 1-4 6-5 6-5m3-11-4 1c-5 1-4 11 2 10l3-5m-34-19s-14 22 8 27m167-60s-8 7-1 19c-26 0-40 12-41 20-33-3-27 7-38 10-14-12-35-5-34 7-10-14-24-7-26-4-2 4-1-16-1-16s-10 4-17 12v-17q-12 3-24 2m-22-6s12 6 27-3m-28-22s9 9 27 6m-21-25s2 7 22 7m-15-23s7 9 18 8m-12-21s3 5 15 6m-8-21s6 7 13 6m22-58s3-3 7-1m-9 15s-8-1-7-4c0-4 8-6 8-6l12-9m-48 37 11 19 5-7 2 5 4-7 8 4-3-9h6s-2-4-7-5l6-5s-3-3-7-3l3-6-4-1s10 4 18-1m-20-16q1 2-2 6m-37 5s6-2 11-1l11 3s7-1 10-3m-48 5-1 5c0 2-5 3-5 3m9-14s4 5 4 8q-1 5-3 5m-43 22-4-7 4-2m76 102c-3-4 3-70 15-88-4 31 10 64 14 63m-67-82s6 3 17-7m17 23h8m253-52s-140 65-142 69c23-7 124-24 127-23-6 2-129 30-134 36 30 0 94 10 104 21-22-5-87-15-106-11 14 4 70 40 70 46-9-8-76-36-78-33 15 9 37 43 37 52-5-8-43-49-46-46 4 5 13 54 8 57 0-6-15-49-16-50-3 0-22 52-18 57-3-17 0-53 5-52-8 1-35 37-32 42 0-9 2-15 17-44-17 1-52 23-58 31 5-14 34-38 47-39m61-51c15-9 61-25 92-38m-121 82s10 0 20-28c10-37 89-79 91-87M94 267s-2 5-5 6m16 1-4 9m15-6s3 9 1 13m-31-34c-8 4 5 33 42 35m-6-15s-1 5 6 15c-2 11 9 20 13 22m-22-139 1-3 2 4h2l1-4 1 4h2l2-4 2 3h1l1-4 3 3h1l1-5 2 3h1l1-4 3 3h1l1-4 2 3m-33 6 16-1c5 0 13-7 22-5m-71 39s2 6 6 3m-12 1s-6 14 1 17m-9-32s0 3 7-2m-27 74s5 1 4 5m-2-68s3 2 6-3m29 160c5-1 6 2 11 2l18-4m44 12v8m-74-7s8-7 13-3l6 1m-15-18s2 6-4 5m-2 8s4 2-1 6m3 5s6 1 3 5m189-41s16 1 17 3c2-2 16-14-2-16a16 16 0 0 1-15 13zm-6 8c6 5 4 7 23-5m-31 11s9 9 15-2m-32 5-12 6m-22 9s7-6 11-3c3 4 18-2 18-2m-23-22s2 5-3 6m-7 10s3 4-2 6m8 6s7 1 5 7m66-8s-5 4-1 8m61-33s5 2-1 6m-5 9s4 4 2 7m9 7s5 2 4 6m65-9s-4 3-1 7m-73-129c10-1 25 21 32 25m44-57s5 5 0 16m9-33q4 2 11 11m3-44-7 19m15-20s-1 17-3 21m-28 30c-3 7-23 10-24 0-1-5 12-13 24 0z"/><path stroke-linejoin="round" d="m140 139 8 1s-6 8-8-1z"/></g></svg>