<svg xmlns="http://www.w3.org/2000/svg" viewBox="0 0 512 512"><path fill="#fff" d="M0 0h512v512H0z"/><path fill="red" d="M205 0h102v512H205z"/><path fill="red" d="M0 205h512v102H0z"/><path fill="red" fill-rule="evenodd" d="M114 398c1-18 4-34 4-34l-16 2-15-1s3 15 4 33c-18-1-34-4-34-4l1 15-1 16s16-3 34-4c-1 18-4 33-4 33l15-1 16 1s-3-15-4-33c18 1 33 4 33 4v-16l1-15s-16 3-34 4M421 91c1-18 4-34 4-34l-15 1-16-1s3 16 4 34c-18-1-33-4-33-4l1 15-1 16s15-3 33-4c-1 18-4 33-4 33h16l15 1s-3-16-4-34c18 1 34 4 34 4l-1-16 1-15s-16 3-34 4m-307 0c1-18 4-34 4-34l-15 1-16-1s3 16 4 34c-18-1-33-4-33-4l1 15-1 16s15-3 33-4c-1 18-4 33-4 33h16l15 1s-3-16-4-34c18 1 34 4 34 4l-1-16 1-15s-16 3-34 4m307 307c1-18 4-34 4-34l-15 2-16-1s3 15 4 33c-18-1-33-4-33-4l1 15-1 16s15-3 33-4c-1 18-4 33-4 33l16-1 15 1s-3-15-4-33c18 1 34 4 34 4l-1-16 1-15s-16 3-34 4"/></svg>