<svg xmlns="http://www.w3.org/2000/svg" viewBox="0 0 512 512"><path fill="#e32118" d="M0 0h512v512H0z"/><path fill="#fff" d="M0 0h512v341H0z"/><path fill="#3e9a00" d="M0 0h512v171H0z"/><path fill="#0073ce" d="M0 0v512l160-256z"/><g stroke="#000"><path fill="#fff" d="M215 205h82v85c0 29-38 7-41 22-6-16-41 7-41-24z"/><path fill="#73452b" stroke="none" d="m262 298-3 1c-2-1-2-55-2-55l7-6 3 2c-10 5-9 12-8 24l1 16 5 17q-1 3-3 1"/><path fill="#73452b" stroke="none" d="M255 236h4c-3 31 0 50 0 59l1 4c-4 4-6-1-6-1z"/><path fill="#a36629" stroke="none" d="M249 298q-5 1-4-2c8-16 12-51 4-55l1-3 5 4c1 40 0 56-1 57-3 4-5-1-5-1"/><path fill="none" stroke="none" d="M249 298c-1-4 6-12 5-21m5 7 3 15"/><path fill="#009a3b" stroke="none" d="M268 222q1-2 3-2c1-3 6-3 7 1q6-1 3 5 8-2 6 4c8 2 5 7 2 8q-2 6-8 3-7 5-10-1c-6 1-6 0-9-4q-4 3-9 0 0 3-3 2 1 6-5 4c3 6-4 8-7 3q-3 1-5-1c-1 4-6 3-7 1q-8-3 0-4 1-4 5-3 1-2 3-1-1-1 2-3-3-5 1-6-1-4 3-3 0-6 5-5-1-2 2-2-1-6 5-4c0-6 12-3 11 4q4 0 5 4"/><path fill="none" stroke="none" d="M245 220q2 0 2 2 4-3 4 2m12-6q-3 2-4 5-2-3-4 0m13-1-1 5m14-2-5 2m13 11q-2-1-4 1 1-3-2-4m-2 6-1-3m-6 0q-2 0-3 2m-9-4q-1-1 1-3m-25 12 1-3q0-3-4-1m4 1 3 1m-6-9h4m0-5q2-1 4 2 4-5 4-3m4 0q4-1 7 4 1-2 3-2m8 2q4 0 6 2l3-1m-35 4 4-1q0-3 2-2"/><path fill="gold" d="M253 193h-5l-2 4-2-4h-5l2-4-2-4h4l3-5 2 4h5l-2 4zm-20 1-5 1-1 5-3-4-5 1 1-4-3-4 5-1 1-4 3 3 5-1-1 5zm-19 4-5 2v5l-4-3-4 2v-4l-4-3 5-2v-5l4 3 4-2v5zm45-5h5l2 4 3-4h5l-3-4 3-4h-5l-2-5-3 4h-4l2 4zm20 1 5 1 1 5 4-4 4 1-1-4 3-4-5-1-1-4-3 3-5-1 2 5zm20 4 4 2v5l4-3 4 2v-4l4-3-4-2v-5l-4 3-5-2 1 5z"/><g fill="#fff"><path d="m304 288 6 8 5-7-4-6zm-34 23 1 7h4l3-2v-4zm-28 0-1 7h-3l-4-2-2-5zm-35-23-5 8-6-10 4-4z"/><path d="M234 326c0 7 44 7 44 0v-10c0 5-44 4-44 0z"/><path d="M195 303c4 19 39 20 39 20v-7q-2-3 7-4 2-3 1-4c-1-1-15 3-26-1-15-6-17-18-17-18s-1 9-4 13zm122 0c-3 19-39 20-39 20v-7q2-3-7-4v-4c1-1 15 3 26-1 14-6 16-18 16-18s1 9 4 13z"/><path d="M198 295c-10-5-2-11-2-27 2 10 13 14 11 20-4 0-6-6-8 1zm116 0c10-5 2-11 1-27-1 10-12 14-11 20 5 0 7-6 9 1z"/></g><path stroke="none" d="m204 302 1 1-3 3v2h2l3-3v1l-2 3h-4v-4zm4 4 1 1v5l2-4 1 1-3 5h-1v-6l-3 4-1-1zm2 9 3-6 1 1-3 5zm5-5-3 6 3 1q3 1 3-2 2-3-1-4zm0 1q4 2 2 3 0 3-3 1zm7 1-4 6h1l1-1h3v2h1zm0 2 1 2h-2zm3-1v6h3q3 0 3-3t-3-3zm2 1q3 0 2 2 1 2-3 2zm21 8v7h1v-3h2l2-2-2-2zm1 1h2v2h-2zm6-1-3 7h2l1-2h2l1 2h2l-3-7zm1 1 1 3h-2zm4 4 3-4h-3v-1h5v1l-4 5h4v1h-5zm21-13h1l1 4-1 3q-2 1-3-2h1l1 1 1-2zm2 0h1l1 3 2 2 1-2-1-4h1l1 4q1 3-2 3-2 1-3-2zm7 3 2 1v-1l-2-1-2-1 2-2 3 1h-3l-1 1h3l2 2-2 2q-2 1-3-1m6-5h-2l-1-1 5-2 1 1zl2 5h-1zm2-3h1l3 5-1 1zm8 1a3 3 0 0 1-3 4q-4-2-3-5 3-3 5-1l-1 1h-3l2 3q2 1 2-1m-1-5 1-1 4 5-1 1zm4-3-1 1 2 6 1-1v-1l2-2 1 1 1-1zm1 1 2 1-2 2z"/></g></svg>