<svg xmlns="http://www.w3.org/2000/svg" viewBox="0 0 512 512"><path fill="#0d5eaf" fill-rule="evenodd" d="M0 0h512v57H0z"/><path fill="#fff" fill-rule="evenodd" d="M0 57h512v57H0z"/><path fill="#0d5eaf" fill-rule="evenodd" d="M0 114h512v57H0z"/><path fill="#fff" fill-rule="evenodd" d="M0 171h512v57H0z"/><path fill="#0d5eaf" fill-rule="evenodd" d="M0 228h512v57H0z"/><path fill="#fff" fill-rule="evenodd" d="M0 285h512v57H0z"/><path fill="#0d5eaf" fill-rule="evenodd" d="M0 342h512v57H0z"/><path fill="#fff" fill-rule="evenodd" d="M0 399h512v57H0z"/><path fill="#0d5eaf" d="M0 0h285v285H0z"/><g fill="#fff" fill-rule="evenodd"><path d="M114 0h57v285h-57z"/><path d="M0 114h285v57H0z"/></g><path fill="#0d5eaf" fill-rule="evenodd" d="M0 455h512v57H0z"/></svg>