<svg xmlns="http://www.w3.org/2000/svg" xmlns:xlink="http://www.w3.org/1999/xlink" viewBox="0 0 512 512"><defs><linearGradient id="gs-b"><stop offset="0" stop-color="#d5dfff"/><stop offset="1" stop-color="#fff"/></linearGradient><linearGradient id="gs-a"><stop offset="0" stop-color="#474747"/><stop offset="1" stop-color="#f50"/></linearGradient><linearGradient xlink:href="#gs-a" id="gs-c" x1="109" x2="111" y1="219" y2="173" gradientTransform="matrix(1.03296 0 0 .44588 301 80)" gradientUnits="userSpaceOnUse"/><linearGradient id="gs-d" x1="126" x2="126" y1="316" y2="337" gradientTransform="matrix(.84238 0 0 .54673 301 80)" gradientUnits="userSpaceOnUse"><stop offset="0" stop-color="#b50000"/><stop offset="1" stop-color="#ffc500"/></linearGradient><linearGradient xlink:href="#gs-b" id="gs-e" x1="408" x2="456" y1="149" y2="147" gradientTransform="matrix(.3824 0 0 1.20437 301 80)" gradientUnits="userSpaceOnUse"/><linearGradient xlink:href="#gs-a" id="gs-f" x1="216" x2="229" y1="103" y2="103" gradientTransform="matrix(.50678 0 0 .9088 301 80)" gradientUnits="userSpaceOnUse"/><linearGradient xlink:href="#gs-b" id="gs-g" x1="118" x2="78" y1="1040" y2="1004" gradientTransform="matrix(1.75297 0 0 .26273 301 80)" gradientUnits="userSpaceOnUse"/><linearGradient xlink:href="#gs-b" id="gs-h" x1="265" x2="255" y1="246" y2="226" gradientTransform="matrix(.60628 0 0 .75962 301 80)" gradientUnits="userSpaceOnUse"/></defs><path fill="#006" d="M0 0h512v512H0Z"/><path fill="#6a4c2d" stroke="#000" d="m373 349-3 6-6-3s-4 6-6 6l-6-1h-5v-2s-6 5-8 4l-6-6-1 3h-9l-8-5-5 7-8 2-1-2-5-3 4-6-2-1-3 3-6 4-6-3 3-5v-4l5-7 58-56 29 53z"/><path fill="#fff" stroke="#000" d="M415 352h15l-7-4 58-2-8-3-8-10-29-2s-3-2-6-1l-3-5-18-1-12 7 8 20z"/><path fill="url(#gs-c)" stroke="#000" d="m356 183 1-5 3-7 2-4s6-2 7 2c7-10 15-1 15-1l2-2 4-5 6 6 1 1 7-1 3 7c2 2 4 10 4 10z"/><path fill="#656263" stroke="#000" d="M415 244q3 1 4-7-2-7-8-5l-5 2-8-5s4-27 9-29l5-5-2-3-28-3-26 3-2 4 5 7c6 4 9 27 9 27l-8 3-3-1q-4 0-5 7l3 8c1 0 26-3 29 4 4-8 28-5 31-7z"/><path stroke="#000" stroke-linejoin="round" d="M442 217s0-3 2-5c2-1 16-2 19 0 4 2 5 12 5 12l2 7 1 4s11 15 11 28c1 9 1 32-3 41a38 38 0 0 1-5 19s2 2 1 4l-1 4 16 8-6-2 6 5-6-3 4 4-10-5 4 5-7-4 4 5-6-3v2s-5 0-5-4l-4-3-12-2-13-39 3-66 1-4z"/><path fill="#fb0" stroke="#000" d="M433 427s-7-14-10-14c-3-6 10-53 36-55 15 1 2 16-8 12 1 4 6 10 6 10s-19 8-24 47zm-90 2s6-16 9-16-9-53-36-54c-14 2-1 17 9 12-1 4-6 10-6 10s19 8 24 48z"/><path fill="#00713d" stroke="#000" d="M368 329s-7 2-3 10l4-5c1 0-5 5 0 10l3-6s-3 10 0 12l3-5c1 0-3 8 0 10l2-4c1 0-1 9 3 9l2-6s-1 7 5 8l1-6s2 8 6 6v-6s2 7 7 6v-5s2 5 6 3v-4s6 6 8 3c2-4-5-5-5-5h5s-2-4-8-5h4s-1-5-7-6h5s-1-5-8-6l4-1s-3-4-6-4z"/><path fill="none" stroke="#3ec26d" stroke-linecap="round" d="m396 353 2 2m-1-4s4 2 4 4m-1-5s3 1 3 4m1-3 1 3m2-2v2m-32-16s3 2 3 5m-3-2 1 2m3-5s2 3 1 5m2-3v3m2-2v2m-1 4s3 0 3 2m-2-4s3 0 4 3m0-5 2 5m2-4v4m3-3v4m-4-9 2 2m0-4 2 4m0-5 2 5m2-4-1 4m3-2-1 2m-11 10v2m-3-4 1 4m-4-4 2 4m-4-3 1 2m-3 0 2 2"/><path fill="#fff" stroke="#000" d="M347 247h22s14 0 15 4c3-6 15-5 15-5l22-1v53a57 57 0 0 1-35 41 55 55 0 0 1-36-41z"/><path fill="#006b00" stroke="#000" d="m355 247 31 83 28-85c-9 1-28-1-30 7-3-7-23-4-29-5z"/><path fill="#ffc900" stroke="#006b00" stroke-linecap="round" d="M376 292c1 0 1-23 3-23l1-5c-1-3-8-2-10 0l2 4c3 5 2 24 4 24z"/><path fill="#cdad56" stroke="#000" stroke-linejoin="round" d="m368 114 2-3c0-1 10-1 16-12 3-6 0-3 0-3v-2s4-4 2-6c-1-3-1 2-3 2-3 0-1-5-1-5l-1-1-2 2-1-4s-2-2-3 4c0 7 5 6 5 10q-2 7-5 8l-1-4-1-2 2-5c-1-6-2 1-3 1-2 0-1-5 0-6s-1-3-4 3c0 3-1-1-2 0q-2 3 1 6l4 6q0 3-3 4v-4l-3-5-2-4-1 3c-1 3-2-2-2-2s-2 4 1 6l-2 1 3 4c1 2-3 3-3 3s1 2 6-2l-2 4zm-14 0-2-4s-9 1-13-10c-3-5 0-2 0-2v-3s-3-3-2-5 1 2 3 2 0-4 0-4l1-1 2 3 3-4c1 0 1-3 2 3-1 6-6 5-6 9q1 7 4 7l1-4 1-1q-2 1-3-4c1-4 2 0 4 0v-5c0-1 2-4 3 2 0 3 2-2 2-2q1 3-2 8l-3 5q0 2 3 2v-2l3-5v-3q2-1 2 2c1 4 2-2 2-2s1 4-1 7h2l-1 4 1 3-5-2 1 4q-2-1-2 2z"/><path fill="#ffc900" d="M409 259h-3l-2-1-1-1v4q1 2-2 2l1-2-1-2v-2l-2 1-1 1-4-1h3v-2l2-1-1-1-2-1-1-3 2 2 2-1 2 2v-4l1-3 1 3 1 1-1 2h2l1-1h3l-2 1q1 2-1 2l-1 1 1 1 2 1zm-48 1 3-1 1-1h1l1 1-1 2 2 3v-2l1-2v-2h2l1 2 3-1h-2l-1-2-1-1v-2h3l1-3-2 1h-2l-2 2-1-2 1-2-1-3-1 3-1 1 1 2h-2l-2-1h-2l1 1 1 2h2l-1 2-2 1z"/><path fill="#ffc900" stroke="#006b00" stroke-linecap="round" stroke-linejoin="round" d="M407 265c-2 1-12 4-13 13v12c-4 0-4-11-4-15v-4q2 0 3 3c-1 2 2-6 1-8l4 1-2-3 3 1q1-1-3-2c-3 0 1-1 1-1s1 2 3 0l-3-2-4-3c-3-1-2 1-5 1l1 1q-2 3-1 4l3 1q-1 3-3 0l-2 1 2 2s-3 0-4 2h3l-4 2-1-1-3-1-1 5 3 2 5-2q-6 6-10 7l-3-1q-1 2 1 2c1 0-3 1-3 3q1 2 2 1c1-1-1-1 2-2l3-1-2 1-3 1 1 2c0 1 3-2 4 0q4-1 3-5l1 4c-1 0 5-3 2-5l1 3 2-1-1 2q3 1 2 4l-1-2-6 2 3 6h-3l-3-1 1 1-2 1q-2 0-1 2h3-3v3l2-1 1 1q2 1 3-2v2q2 1 3-3v2l2-1-1 8c-3-2-4 1-4 1v4l1-1 3-1v-2l-1 2-1 2 2 2 2-4v1l2-2c1-1-2-1 0-3q2 0 0 1c-2 1 1 3 1 3 1 0 2-5 1-6l1 2s2-5 0-5l-2-1v-1l3 2q1-2-2-5c-3-1 0-4 0-4s2 2 3 1q2-1 0-1c-2 0 4-3 4-4h-2s3-2 2-4l-2 1 2-4-2 2c-1-1-2-8 1-9 3 0 1 4 1 4s5-2 0-5l4 2s-1-5-6-2l3-2 4-1h-4c-1-1 8-1 7-5"/><path fill="none" stroke="#006b00" stroke-linecap="round" d="M372 268s4-3 6 0m2 5-2 2m5 3s4 1 7-4m-2 3 1 2h-2v4"/><path fill="#e80000" stroke="#006b00" stroke-linecap="round" d="m385 307-3 2"/><path fill="none" stroke="#006b00" stroke-linecap="round" d="M387 299v-6l3-4"/><path fill="none" stroke="#006b00" stroke-linecap="round" d="M387 296s-1 3-6 2m7-9s0 3-4 2m-2-20v4"/><path fill="#006b00" d="m389 267 3-1 2-2-1-4h3l-3-2h-3v1l1 2 2 3z"/><path fill="#ffc900" stroke="#ffc900" stroke-linecap="round" stroke-linejoin="round" d="m391 259 1 1z"/><path fill="#e80000" stroke="#006b00" stroke-linejoin="round" d="M384 313v2l1-2zm-2-4q-3 0-2 2l2-1zm0-1h-2zm-6-14 1 1q2-3-1-1zm-2 2h2zm0 3h1q1 1 0 0zm-2-19h-1l1 1zm-2 7 1-2v1zm3-1-1 2 1-1z"/><path fill="#ffc900" stroke="#006b00" stroke-linejoin="round" d="m371 271 2 1z"/><path fill="none" d="m371 268 2 1q0-2-2-1"/><path fill="#e80000" stroke="#006b00" stroke-linejoin="round" d="m373 269 1 1zm0 4 2-1h-1z"/><path fill="#ffc900" stroke="#006b00" stroke-linejoin="round" d="m371 268 2 1q0-2-2-1z"/><path fill="url(#gs-d)" d="M372 262s5-1 7 1q4 2 3 0c-1-2 3 1 5 1v-1c1-1-3 1-3-1q0-2-2-2l1-4q-1-1-3 1c-2 0 0-3-2-3l-2 3c-1 1-5 3-4 5"/><path fill="#c01500" stroke="#000" d="M316 419c3-1 20 4 27 11l-5-22s-10-3-11-2c-2 2-9 9-11 13zm-5-58-3 3c-2 3-3 12-5 14s-4 2-4 4q-1 4 6 8c5 0 14-9 14-9l6-10c-10 4-18-6-14-10zm149 56a47 47 0 0 0-27 10l5-21c1-1 10-3 11-2 2 2 9 9 11 13zm5-57 2 3 5 11q4 3 4 6 1 3-6 6c-5 0-13-7-13-7l-6-10c10 4 17-5 14-9z"/><path fill="#fb0" stroke="#000" d="M305 408s11 7 11 11a90 90 0 0 1 144-3l11-10c-44-57-131-50-166 2z"/><path fill="#1e5aa6" stroke="#000" d="M414 245h4l-7 10 9 10-18 22 17 20-7 12-10-10 18-22-14-16zm-60 2h-4l8 9-9 11 19 20-15 21 7 13 9-12-19-20 14-18z"/><path fill="#1e5aa6" stroke="#000" d="m375 301-6 9 23 27 11-8-12-14 5-14 7 8-23 29-11-8 12-15zm-7-14 4 6-3-8zm30 5 4-5-1-1z"/><path fill="none" stroke="#fff700" stroke-linecap="round" d="M448 217s4-3 7-3m-6 3 25-5m-25 5 27-2m-27 2h31m-32 0 29 1m-29-1 28 2m-28-2s28 3 31 6"/><path fill="none" stroke="#fff700" stroke-linecap="round" d="M480 228s-9-11-32-11"/><path fill="none" stroke="#fff700" stroke-linecap="round" d="M448 217s16 1 21 7"/><path fill="none" stroke="#fff700" stroke-linecap="round" d="M449 217s10-2 21 11"/><path fill="url(#gs-e)" stroke="#000" d="M442 229s14 0 14 2c0 1-10 4-11 9 0 6 9 7 9 14 1 7-6 9-8 11-1 1-4 11-4 17 1 6 2 27 6 31 2 2 6 8 10 6s1-9 1-11l1-8-1-6s11 3 10 14c0 11-5 8-5 8s2 13-2 15c-6 3-11-1-11-1l1 3-5-3-7-12-3-25a289 289 0 0 0 0-49z"/><path fill="#ff7000" stroke="#000" d="M427 225s10-9 15-8q3 1 1 2c-2 1 5 0 5 2l-2 2q1-1 2 2c0 2-21 0-21 0z"/><path fill="none" stroke="#000" d="M427 225s11-2 15-6m-4 3 8 1"/><path fill="#fff" stroke="#000" stroke-linejoin="round" d="M466 335s6-1 8-4c1 0 7 9-8 5z"/><path fill="none" stroke="#fff" stroke-linecap="round" d="M464 280s1 5-2 9l-5 5 1 6-2 6 2 10m-6-52s-6 1-7 7"/><path fill="#c75b00" stroke="#000" d="M449 222s2 5 8 0c-4-5-8 0-8 0z"/><path d="M454 222h-1z"/><path fill="#fff" stroke="#000" d="M402 210s11 12 18 12q0 6-5 8c-4-1-7 1-16-10zm15-28q2-7 6-8c0-3 6-18 23-24 1 8-8 15-8 15s25-4 31-11c-1 3-6 21-33 21 10 10-3 17-9 15 11-8-3-13-10-8z"/><path fill="#cccccd" stroke="#ccc" d="M425 176q6-4 11-3l-3 1 2 2z"/><path fill="none" stroke="#000" d="m423 174 16-9"/><path fill="#00f" stroke="#000" d="M415 230s13 4 15-16c-3-8-7-27-1-32-6-4-12 0-12 0 0 1-6 8 1 21-16-4-9 12-9 12 0-3 9-5 11 8 1 3-6 8-5 7z"/><path fill="#00f" stroke="#000" d="M430 215s15-8 14-27c-12 1-16 17-16 17z"/><path fill="#fff" stroke="#000" d="M365 214s-11 9-17 6c-5 3-10-2-10-2s6 23 29 6z"/><path fill="#00f" stroke="#000" d="M348 220q3-9 8-3c4 1 8-16-7-13 4-22-8-30-8-30s-4 24-2 29c2 4-3-9-18-12-1 18 17 26 17 26s5 5 10 3z"/><path fill="none" stroke="#000" d="M349 204s-7 6-5 13m-5-14s-2 6 2 14"/><path fill="none" stroke="#000" d="M338 218s3-5 10 2"/><path fill="#fff" stroke="#000" d="M339 183s-10 0-4 11c-5 1-15-6-8-14-23-1-32-12-32-22 7 7 23 4 29 8-7-6-6-15-6-15s20 6 23 23z"/><path fill="none" stroke="#000" d="M323 166c4 4 14 5 19 9"/><path fill="#cccccd" stroke="#ccc" d="M328 177s8-1 10 2q-3-1-9 1l2-2z"/><path fill="#923f00" stroke="#000" d="M368 114s5-4 9 0c-2 6-10 4-10 4v5l3 5s8-2 9 1h6l8-1c2 0 9 1 10 3 1 1 3 10 5 10 1-1-4 2-6-1v3l4 6c0 1-2 10 0 15l-2 3c0 3-4 3-4 3v-3l-3 1 1-3 4-9q-1-6-6-7c-5-1-4 8-4 8v6l-2-2-2 4-2 2-1-5c0-1 6-6 6-10v-3l-4-4c0-1-3 2-8 1-2 2-2 9-2 9v9q0 2-2 3l-3 3-1-2-1 1 1-2 2-12v-9s-4-1-4 4l-1 7 1 6q-1 3-2 2v1l-5 3v-7s2-1 2-6v-6l1-5-4 1 2-5c0-2-3 2-5 0l3-5c0-2-2 1-4 0l2-3h-2l1-5-1-4-3-3v-2s-5 3-10-4c5-4 10-1 10-1s1-3 7-3 7 4 7 3z"/><path fill="#00f" stroke="#000" d="M401 181s11 1 11 7q-1 6-3 4l-8-1z"/><path fill="#fffeff" stroke="#000" d="M390 180s14 0 13 6-4 4-4 4h-7z"/><path fill="#00f" stroke="#000" d="m383 179 8 1s4 0 4 5-5 5-5 5l-8-1z"/><path fill="#fff" stroke="#000" d="M364 181s-11 1-11 7q2 6 3 4l8-1z"/><path fill="#00f" stroke="#000" d="M375 180s-14 0-13 6 4 4 4 4h7z"/><path fill="#fff" stroke="#000" d="m382 179-8 1s-4 0-4 5 5 5 5 5l7-1z"/><path fill="#5e0043" stroke="#000" d="M404 245s5-8 8-7c2 0 0 7-1 7zm-39 2c-2-3-5-10-7-8-2 1-1 7 0 8z"/><path fill="none" stroke="#000" d="M368 230s11 7 15 7 15-9 15-9"/><path fill="#5e0043" stroke="#000" d="m369 203 2-3 11 6 11-5 2 2-12 9z"/><path fill="#474747" stroke="#474747" stroke-linejoin="round" d="M361 203c1 1 8 9 9 16l-1-9s9 4 9 7c0 2 4 0 4-1l-24-16zm42 0s-9 11-8 24c-2-6 0-16 0-16l-2 1s-2 9-5 10v-1l-3 4v12l2 8-3 1-1-22 2-3s4-4 4-8l-3 2s0 6-2 6l-1 3v-8z"/><path fill="none" stroke="#000" stroke-linecap="round" d="m383 216 1 36"/><path fill="none" stroke="#000" d="M361 233s4 3 5 10c14-1 18 3 18 3s11-5 16-4l6-8"/><path fill="#b4b6b9" stroke="#000" d="m355 198 28 18 24-16s5-3 5-5q-1-2-3-1l-26 18-27-17-2 1z"/><path fill="#474747" stroke="#474747" stroke-linejoin="round" d="M404 194s-7-3-7-1l1 5-1 2v-1l-5-4q1-2-1-3-4-1-5 3l-3 9v-14l21 2c-2 0 1 0 1 1zm-25-4-9 2c-1 1 3 2 2 3q0 3-2 4l-9-5-2-1z"/><path fill="none" stroke="#000" d="M382 189v16m-13-36-7 13"/><path fill="url(#gs-f)" stroke="#000" d="m384 169 3 5 2 6"/><path fill="none" stroke="#000" d="m396 168-7 11"/><path d="m359 119-2 1-1-2h2zm3 0 2 1 2-2h-2z"/><path fill="#ff7000" stroke="#000" stroke-linejoin="round" d="m447 330-3 1h-8l-1 2 1-1 3 2v1l1-1h13zm5 4-11 1-3 3h2l1 2h1s9 1 17-1q7-2 2-4z"/><path fill="url(#gs-g)" stroke="#000" d="m415 356 19-1-3-3 52-2-2-4-58 2 7 4h-16l1 2-4-1z"/><path fill="url(#gs-h)" stroke="#000" d="M437 250q-3-2-16 4v17s11-6 17-5z"/><path fill="none" stroke="#000" d="m331 303-45 44m65-44-36 48m35-61-49 59m-2 0 5-6m55-23-19 26m-1 4 1 10m28-31-21 25m17-2 8-13m-5-3-10 11m7-21-7 8m-2-20s-20 30-20 32m18-36-17 23m-1 7-3 4m-4 6-5 6"/><path fill="#8a9396" stroke="#2b2b2b" d="M329 234s-2 4 0 6l10 20s6-7 8-7c2-1 1 19 1 19s-3 3-6 3c-2-1 6 7 6 14-1 6-10 39-14 39-3 1 2-6 1-7l-2-3c-2-2 2-5 1-7l-2-3 1-3-2-3v-3c0-3-1 2-3 2s-4 5-4 5-4 6-9 3q3 9 0 8l-1 5c-3 0 1 9-1 10 3 1 0 3 0 3s-7 1-5 10q-30-12-30-32 0-21 14-28l7-21v-8l4-6-1-11 2-7c0-2 0-12 2-14l7-2q3-3 7-3l5 2c0 1 10 0 10 3q0 6-2 5c-2-1 2 6-4 11z"/><path fill="#cecfcf" stroke="#2b2b2b" d="m320 220-1 2h-3l1-2z"/><path d="m319 221-1 1-1-1 1-1z"/><path fill="none" d="M333 228s2 10 0 18m1-23s4 6 4 14m-4-16s4 4 4 6m-3-7 3 4"/><path fill="none" stroke="#000" d="M334 219s-9 15-8 24"/><path fill="none" d="M335 219s-13 7-15 31"/><path fill="none" stroke="#000" d="m333 223-5 4"/><path fill="none" d="M316 251s6-28 18-32"/><path fill="#2b2b2b" stroke="#2b2b2b" d="M339 261s7-9 8-8c2 0 1 18 1 18l-6 4c-1 0 6 9 6 12l-1 3-1-5c-2-3-1-7-11-15-2-5 5 3 7 2s-3-11-3-12z"/><path fill="none" stroke="#2b2b2b" d="m328 215-4 1q-1 3-3 2l-2-1"/><path fill="#2b2b2b" stroke="#2b2b2b" stroke-linejoin="round" d="M312 224s-4 4-2 5c2 0 4-4 4-4s0 7 2 6l7-5h2s4 4 7 3q-2 5-3 4c-1-1-3 4-7 3l-5-2-4-1-1-3-3 1c0-1 0-6 3-7z"/><path fill="none" stroke="#2b2b2b" d="M335 218s-7-2-10 2q-3 6-1 6"/><path d="m336 218-1 2-1-2 1-2z"/><path fill="#2b2b2b" stroke="#2b2b2b" d="M314 238s3 4 7 6c4 1-2 2-6 0q-3-6-2-7zm27 28-11-13c-3-1 1-1 4 1 3 3-1-4-1-4z"/><path fill="#2b2b2b" stroke="#2b2b2b" stroke-linejoin="round" d="M314 335c3-1 17 8 21 11 3 2 10 1 10 1l-6 2c-1 1 6 1 6 1s-18 5-37-5c-2-8 4-10 6-10z"/><path fill="#2b2b2b" stroke="#2b2b2b" d="m335 269-4-2-5-7c-2-1-11-6-14-6l-5-1q-1-1-2 2c1 2-2 6-1 7l7 10v4l5 4 2 2-4 7-5 4q0 3 5 5h15l1-7-5-2-2 2h-2l4-5c1 0 6 1 7 4s1 4 4 4q6 0 7-8c1-6-3-10-4-10l-4-3zm-52 24 12-3 14 7c2 3 8 9 11 8l5-1-2 3h-4l-7-4c-3-3-11-10-19-10-7 1-11 8-11 8v-4l-1 2z"/><path fill="#2b2b2b" stroke="#2b2b2b" d="M317 300h6l6-1v-4l3 4-1 1v-2l-1 1s-6 5-9 4l-5-3zm-13 7-5 1-3 2-1-2q0-2 6-2zm11 10-2-7-5-2 5 4 1 6c0 1-1-3-4-4q-6-1-6 1l6 3 3 6v-2l2-1z"/><path fill="#2b2b2b" stroke="#2b2b2b" stroke-linejoin="round" d="m313 332-3-6s-1-4-3-5h-6l5 4v2l-4-1-4 2c-2-1-3-7-3-7l-1-1v-7l-5-3s0-24 20-4c-8-10-12-9-13-9s-9 1-11 10c-2 10-4 4-4 4s0 4 2 5-1 5-1 5-4-9-3-13a30 30 0 0 0 4 19 62 62 0 0 0 23 17z"/><path fill="#8a9396" stroke="#2b2b2b" stroke-linejoin="round" d="M300 332s4 0 5 2l2 5 2-3 2-2s-4-5-6-5l-6 2z"/><path fill="none" stroke="#8a9396" stroke-linecap="round" d="M309 342s11 5 27 5"/><path fill="none" stroke="#2b2b2b" stroke-linecap="round" d="M343 295s-1 8-7 25"/><path fill="none" stroke="#2b2b2b" d="M342 300s-2 6-7 11"/><path d="m312 406 2-2 1 1h-1l3 2h1v-1l-1-1h1l1 1-3 3v-1l-3-2zm4-4 3-4 2 1v1h-2l-1 1 1 1v-1l1-1 1 2h-1l1 1 1-1v-2l1 2-3 4-1-1h1v-1l-3-2zm7-7 2-1 2 1 1 2-1 1-1 1-1 1-3-1v-2zm0 1 1 1 1 1h1v-3h-1l-1-1zm6-6 3-2 2 1-1 1v-1h-1v1l1 2 1 1v-1l1 1-2 2-1-1h1v-1h-1l-1-2-1-1v2h-1zm5-3 4-2 1 1-1 1v-1h-1v1h-1l1 1v-1l2 2h-1v-1l-1 1 1 1h1v-3h1l1 2-4 3-1-1h1v-1zm5-3 3-2h2l1 1v1l-1 1h2v1l1-1v1l-2 1-2-1h-1l1 1h1v1l-2 1-1-1h1v-1l-2-2v-1zm2 0 1 1h1v-1h1v-1h-2zm4-3 3-2h2l1 1v1l-1 1 2 1h1l-2 1-2-1h-1l1 1h1v1l-3 1v-1h1v-1l-2-2v-1zm2 0 1 1h1v-1h1l-1-1h-1zm6-4h2l3 3v1h1l-3 1v-2l-2 1v1h1l-2 1v-1zm1 3h1l-1-1zm4-4 2-1 2 3v-3l2-1 1 1h-1l1 3v1h1l-3 1v-1h1l-1-4v5h-1l-2-4v4h1l-2 1v-1h1zm11-3h2l1-1 1 1 1 1-1 1-1 1h-1v1h1v1h-3 1v-1l-1-3zm2 1v1h1v-2zm3-2h6v2h-1l1 2h1v1h-2l-2-2v1h1v1h-3v-4zm2 1 1 1h1v-2h-1zm8-2 2 1 1 2v1l-1 1-2 1-2-1-1-2 1-2zm0 1v3l1 1 1-1 1-1-1-1zm4-1h5v3h-3v1h1v1h-3v-1h1zm2 1v1h2v-1zm4-1h4l1 1v2h-1l1 2h1v1h-2l-2-3v2h1-3l1-1v-3zm2 1v1h2v-1zm5-1 2 1v1l-1 3h1v1h-3v-1h1zm6 1 1 5v1h-3l1-1v-1h-2v1h1l-1 1-2-1v-1h1zm-1 3v-1zm5-2 2 1v3l2-3 3 1h-1v1l-1 3h1l-1 1-2-1h1v-1l1-3-3 4-1-5v5l-2-1h1zm11 3 3 1 1 1v1l-1 1h-2l-1 1h1v1l-3-1v-1h1l1-3zm2 2-1 1h2zm4 0 3 1v1h1v2h-2v2l1 1h-2l-1-3v1h-1 1v1l-3-1 1-1 2-3zm1 2h1l1 1v-1q1 0 0 0v-1zm8 2 1 2v2l-1 1-2 1-1-1-2-1 1-3 1-1zm-1 1-1 1v2h1l1-1 1-1zm5 1 3 1v3l-1-1v-1h-1l-1 3h-1 1l-1 1-2-1 1-1 2-3h-2zm4 4 4 2v2h-1v-2h-1l-1 1h2l-2 2v-2h-1v1h-1v1h3l1 1-2 1-4-3 1-1v1l1-1 1-2zm7 7 2 2-1 1v-1l-1 1-1 1v-1h-1l-1-1-1-1v-1l1-2h1l1-1 2 1v1h1v2zh-3v3h1v-1zm5 2 1 1-1 4v1l-1 1-2-2 1-1h1l-1-1h-1v1l-2-1 1-1zm-2 2 1 1 1-2zm6 1 2 2h1l-1 2h-1v-2l-2 2-1 1h1l-1 1-2-2 1-1v1l1-1 2-2h-2v-1z"/><path fill="#012169" d="M0 0h256v256H0Z"/><path fill="#fff" d="M256 0v32l-95 96 95 94v34h-33l-96-94-93 94H0v-34l93-93L0 37V0h31l96 94 93-94Z"/><path fill="#c8102e" d="m92 162 6 17-77 77H0v-1zm62-6 27 4 75 74v22zM256 0l-96 98-2-22 75-76ZM0 1l97 94-30-4L0 25Z"/><path fill="#fff" d="M88 0v256h80V0ZM0 88v80h256V88Z"/><path fill="#c8102e" d="M0 104v48h256v-48zM104 0v256h48V0Z"/></svg>