<svg xmlns="http://www.w3.org/2000/svg" viewBox="0 0 512 512"><path fill="#be0027" fill-rule="evenodd" d="M0 0h512v512H0z"/><path fill="#3b5aa3" fill-rule="evenodd" d="M21 21h470v471H21z"/><path fill="#cbe0e5" fill-rule="evenodd" d="M252 396h6a148 148 0 0 0 0-260h-6a149 149 0 0 0 0 260"/><path fill="#add2d9" fill-rule="evenodd" d="M252 399h6c76-57 77-93 73-93H181c-3 0 1 36 71 93"/><path fill="#fdf9a1" fill-rule="evenodd" d="M193 335a29 29 0 0 1 20 1q8 4 16 3c6 0 11 5 18 5 13 0 18 7 8 7l-19-3q-14 0-27 14l12 8c9-4 11-8 16-9 6 0 8-4 15-4 8 2 19-1 25-2 11-3 6-10-1-13-5-2-16 0-22-2-5-2-1-5 2-6l8 1 18-1c11-2 10-5 15-5l9-3q4-4 10-6l10 1-14 30-38 39-20 7-43-28-22-33z"/><path fill="#179a3b" fill-rule="evenodd" d="M242 305h87l2-8-6-1c-3 0-8 4-12 4-2 0-5-5-8-5-4 0-5 4-9 4l-9-2c-5 0-4 3-10 3-8-1-11-7-17-7-10 0-10 9-18 12"/><path fill="#fdf9a1" fill-rule="evenodd" d="M242 307h90v-3l-92 1z"/><path fill="#a79270" fill-rule="evenodd" d="M279 334q1 7 9 8c5 2 13-4 8-9l-14-10c-10-9-24-32-24-48l-1-68c0-2-5 4-5 6l1 65c1 17 10 29 17 40q6 7 9 16"/><text x="465" y="270" fill="#bd0728" stroke="#fff" stroke-width="2" font-family="helvetica" font-size="26" transform="translate(-256 5)"><tspan>G</tspan></text><text x="488" y="270" fill="#bd0728" stroke="#fff" stroke-width="2" font-family="helvetica" font-size="26" transform="translate(-256 5)"><tspan>U</tspan></text><text x="516" y="270" fill="#bd0728" stroke="#fff" stroke-width="2" font-family="helvetica" font-size="26" transform="translate(-256 5)"><tspan>A</tspan></text><text x="540" y="270" fill="#bd0728" stroke="#fff" stroke-width="2" font-family="helvetica" font-size="26" transform="translate(-256 5)"><tspan>M</tspan></text><path fill="#239e46" fill-rule="evenodd" d="M212 207c-1 3 3 0 4-1 5-1 7-8 15-4 7 3 16 1 11 4-6 4-17 8-18 25q1 3 2 0c2-4 11-15 15-14 1 0 6-5 7-4 0 4-7 13-7 25q1 5 5 2l5-6c5-4 4-21 5-20 3 4 4 17 9 22q7 7 7-3c-2-13-8-9-11-22q-1-4 3-4 5 2 9 8l12 11q9 4 5-5a30 30 0 0 0-16-14l-10-2q-3-2-1-4a32 32 0 0 1 15-6l13 5c7 2 7-3 4-6q-5-6-13-7c-10 1-10 1-16 5q-4 3-4 1c2-4 0-3 4-7q3-5 7-6l7-5q4-7-3-4l-8 3c-5 2-10 15-10 16q-2 4-2 0c1-9 1-24-2-30-4-9-4-5-6-1a30 30 0 0 0 0 20l4 10-2-2q-3-6-10-10a27 27 0 0 0-15-1l3 3 13 6q6 2 7 6 2 5 0 6c-4 0-10-4-22-2q-10 1-15 12"/><path fill-rule="evenodd" d="M239 320h3v6h-3z"/><path fill="#fdf9ff" fill-rule="evenodd" d="M221 280c14 20 37 31 37 40h-44c10-12 16-20 7-40"/><path fill="#a68861" fill-rule="evenodd" d="M208 321c19 4 42 6 57-1 0 4-5 10-9 10h-37l14-2h-20c-2 0-6-5-5-7"/><path fill="#be0027" fill-rule="evenodd" d="M252 406h6a159 159 0 0 0 1-280h-7a161 161 0 0 0 0 280m0-13h6c93-55 94-200 0-251q-2-2-6 0c-89 52-94 191 0 251"/><path fill="#bd0728" d="m219 256 4 1q3 1 3 5h-2q0-2-2-3l-3-1q-3 0-5 2l-1 6 1 5q2 2 5 2l4-2 1-4h-5v-2h8v10h-2v-3l-3 2-4 1q-3 0-5-2-3-3-3-7t3-8q2-2 6-2m-1 0" aria-label="G" font-family="helvetica" font-size="26"/><path fill="#bd0728" d="M237 256v15q1 2 4 2t4-2l1-3v-12h2v11l-1 5q-1 3-6 3-4 0-6-3l-1-5v-11zm4 0" aria-label="U" font-family="helvetica" font-size="26"/><path fill="#bd0728" d="m271 267-3-8-3 8zm-4-11h3l7 19h-3l-2-6h-7l-2 6h-3z" aria-label="A" font-family="helvetica" font-size="26"/><path fill="#bd0728" d="M285 256h4l5 16 5-16h4v19h-3v-16l-5 16h-2l-6-16v16h-2z" aria-label="M" font-family="helvetica" font-size="26"/></svg>