<svg xmlns="http://www.w3.org/2000/svg" xmlns:xlink="http://www.w3.org/1999/xlink" viewBox="0 0 512 512"><path fill="#EC1B2E" d="M0 0h512v512H0"/><path id="hk-a" fill="#fff" d="M282 119c-79-5-115 99-40 137-26-22-21-55-10-72l1 1c-13 24-11 53 11 71-12-12-9-39 13-49s23-39 16-49q-15-26 9-39m-38 61-5 7-2-8-8-2 8-5-1-9 7 6 8-3-4 8 6 7z"/><use xlink:href="#hk-a" transform="rotate(72 249 260)"/><use xlink:href="#hk-a" transform="rotate(144 249 260)"/><use xlink:href="#hk-a" transform="rotate(216 249 260)"/><use xlink:href="#hk-a" transform="rotate(288 249 260)"/></svg>