<svg xmlns="http://www.w3.org/2000/svg" viewBox="0 0 512 512"><defs><clipPath id="im-a"><path d="M148 0h744v744H148z"/></clipPath></defs><g clip-path="url(#im-a)" transform="translate(-102)scale(.7)"><path fill="#ba0000" fill-rule="evenodd" d="M1063 744H0V0h1063z"/><path fill="#ffef00" fill-rule="evenodd" stroke="#000" stroke-width="3" d="M557 547v-10l-13-16 17 3 7-17 8 20 17 7-12 10 3 19-12-11-13 1z"/><path fill="#fff" fill-rule="evenodd" stroke="#000" stroke-width="4" d="M466 301c-11 5-54 54-60 62-5 11-14 25-24 34q-16 13-15 29c0 13 7 21 13 31q5 6 13 7c10 1 11 4 16 6 19 27 49 46 70 62a99 99 0 0 1 26 18 47 47 0 0 1 4 29l-16 59c-3 16 11 13 12 9 7-8 16-2 29-50l19-24 7-4c11-13 3-20-4-23l-13-5-16-15c-8-22-44-68-53-75l-14-12-17-7q-4-4 2-9c29-16 52-33 79-51l5-3-10-57-47-16z"/><path fill="#ffec00" fill-rule="evenodd" d="m505 601 29-6-4 10-28 9z"/><path fill="none" stroke="#000" stroke-width="3" d="M430 492a55 55 0 0 1 31-30"/><path fill="none" stroke="#000" stroke-width="4" d="m504 601 12-4 8-2 7-1 7-2m-40 27 4-3 10-4 6-2 7-1 7-2"/><path fill="none" stroke="#000" stroke-width="3" d="m510 496-1 2q-3 4-10 6h-9m20 77h2l6 1h6l7 1h7l5 1-5-1 5 1m-47 48 3-3 9-3 6-2 6-2 6-2m8-60q0 4 2 6l8 5 5 1 3 1M371 435l2-1 4-4m21 35s24-12 26-15l5-4 4-2 3-4 3-5 2-5m30 18v5c-1 2-4 10-7 12"/><path fill="none" stroke="#000" stroke-width="3" d="m428 447 10 3 24 14 5 4 4 4 4 5c5 4 17 30 17 31l2 5 3 4 3 4 5 4 5 3 24 16c3 1 9 8 4 12l-5 5-5 3q-14 3-17 2h-2M380 399l4 1 5 1 9 4 5 4 6 4 8 2h11-6 6"/><path fill="#ffe606" fill-rule="evenodd" stroke="#000" stroke-width="3" d="m379 426 17 2 14-1q9-1 10-5l6-9c3-2 8 4 8 4 12 11 3 24 2 25-6 5-7 5-11 2l-7-8c-6-2-17 0-17 0l-6 2q-3 3-10 4-7 2-9-4-5-9 3-12z"/><path fill="#ffef00" fill-rule="evenodd" stroke="#000" stroke-width="3" d="m703 175-9 5-7 19c0-1-5-17-6-16l-18 2 13-17-2-18 15 6 15-12-4 16 8 10z"/><path fill="#fff" fill-rule="evenodd" stroke="#000" stroke-width="4" d="M533 375a449 449 0 0 0 125 26q20 8 33-1c11-6 15-17 20-26q3-8 0-15c-4-9-1-12-2-17 14-30 16-65 20-91a99 99 0 0 1 3-32 47 47 0 0 1 23-18l59-15c15-6 5-16 2-15-10-2-10-13-58-1l-30-4-7-5c-17-3-19 8-18 15l2 14-5 22c-16 17-38 72-40 82 0 10-4 9-3 18 0 8-1 3 2 19q-1 5-9 3c-28-18-54-29-83-45l-5-2-45 36 9 49z"/><path fill="#ffec00" fill-rule="evenodd" d="m776 194-20-22 11-2 22 20z"/><path fill="none" stroke="#000" stroke-width="3" d="M718 313a55 55 0 0 1-41-13"/><path fill="none" stroke="#000" stroke-width="4" d="m776 195-9-9-5-6-5-6-6-5m43 22-4-2-7-7-6-5-4-5-5-4"/><path fill="none" stroke="#000" stroke-width="3" d="M682 241h3c1 0 7 3 9 6l4 6 1 2m58-56h-1v-2l-3-5-3-6-3-6-2-6-3-5 3 5-3-5m65 18-4-2-7-6-5-4-4-5-5-4m-56 22q4-1 4-4l1-9-1-5-1-3m-32 225v-1h-2l-5-2m20-35s-22-15-26-16l-6-3-4-2-5-1-5 1-6 1m1-35 5-3c2-1 10-2 13 0"/><path fill="none" stroke="#000" stroke-width="3" d="m680 336-2-10v-34l2-6 3-6c1-5 17-29 18-30l3-4 3-4 2-5 1-6v-6l2-29c0-2 3-11 9-9l6 2 5 3q10 11 10 14l1 2m-82 193-1-2-1-6-1-5v-5l1-6v-8l-2-6-3-6-3-5 3 5-3-5"/><path fill="#ffe606" fill-rule="evenodd" stroke="#000" stroke-width="3" d="m685 389-7-15-7-12q-6-7-9-6l-11-2c-4-1-1-8-1-8 4-16 20-14 21-14q10 2 7 8l-3 10c1 6 8 15 8 16l5 4 9 6q4 5 0 10-6 8-12 3z"/><path fill="#ffef00" fill-rule="evenodd" stroke="#000" stroke-width="3" d="m301 245 9 5 20-4-11 13 12 14-21-2-14 12-3-15-18-6 15-6 4-12z"/><path fill="#fff" fill-rule="evenodd" stroke="#000" stroke-width="4" d="M561 278c0-12-23-73-27-82a112 112 0 0 1-19-37q-5-20-19-27c-12-5-23-3-33-2q-9 2-13 8c-6 8-9 7-13 11-32 5-63 22-87 33a99 99 0 0 1-28 15c-13 0-23-6-28-9l-45-41c-13-10-16 4-14 6 5 9-5 15 31 49l14 28v8c6 15 17 11 21 7l11-10 22-7c22 3 81-8 90-12 9-5 9-1 17-7 6-4 3-1 14-12 4-3 7 2 7 6 1 33 6 61 9 94l1 5 55 17 36-33z"/><path fill="#ffec00" fill-rule="evenodd" d="M277 174c1 1-8 29-8 29l-8-8 6-30z"/><path fill="none" stroke="#000" stroke-width="3" d="M408 158a55 55 0 0 1 12 41"/><path fill="none" stroke="#000" stroke-width="4" d="m278 173-3 13-2 7-2 8-1 7m-6-48 1 5-1 10-2 7-1 7-1 6"/><path fill="none" stroke="#000" stroke-width="3" d="m367 227-1-2q-2-5 0-12l3-6 1-1m-78-19v1l-1 1-3 6-4 5-3 6-4 5-3 5 3-5-3 5m-20-64 1 4-1 9-1 7-2 6-1 6m49 35q-3-2-5-1-3 0-8 5l-4 3-2 2m205-97v1l1 2 1 5m-40 3v30l2 7v4l2 5 3 3 4 5m-30 18-4-2q-5-4-8-12"/><path fill="none" stroke="#000" stroke-width="3" d="m448 177-7 7-23 15-6 3-6 2-6 1c-5 2-34 1-35 1l-5-1-5 1h-5l-6 3-5 3-25 15c-3 1-11 3-13-3l-2-6v-7q4-14 6-15l1-2m207-37-1 2-5 4-3 3-5 3-5 3-7 4-4 5-3 5-3 6 3-6-3 6m17 106 1-1v-1l1-9 1-8-1-8v-9l-1-7-1-7v-5l-2-7-2-6-2-7-1-5-2-5-3-6-2-5-2-6-1-2"/><path fill="#ffe606" fill-rule="evenodd" stroke="#000" stroke-width="3" d="m490 143-9 14-6 12q-3 10 0 12l4 10c1 4-6 5-6 5-15 5-23-9-23-10q-4-9 3-10t10-3c5-4 8-15 8-15l1-7 1-10q2-7 8-6 10-1 9 8z"/><path fill="#ffef00" fill-rule="evenodd" stroke="#000" stroke-width="3" d="M470 290c-2-2 43 17 49 17 8-3 43-33 43-33 1 3 2 10 5 12l-39 33c1 17-2 35 7 55h-11c-9-10-13-54-13-54l-44-20q4-3 3-10z"/><path fill="none" stroke="#000" stroke-width="3" d="m513 336-11 5c-41 22-62 54-63 55l-3 5-3 5-6 6 1 1m113-103 9 7c38 26 76 31 78 31l6 1 5 1 9 1"/></g></svg>