<svg xmlns="http://www.w3.org/2000/svg" viewBox="0 0 512 512"><defs><clipPath id="ir-a"><path d="M186 0h496v496H186z"/></clipPath></defs><g fill-rule="evenodd" clip-path="url(#ir-a)" transform="translate(-192)scale(1.0321)"><path fill="#fff" d="M0 0h868v496H0z"/><path fill="#da0000" d="M0 333h868v163H0z"/><g fill="#fff"><path d="M165 340h48v3h-48zm7 16h3v4h-3zm41 0v4h-10v-4zm5-16h3v20h-3z"/><path d="M237 356v4h-18v-4zm-34-7h3v11h-3z"/><path d="M234 340h3v20h-3zm-8 0h3v20h-3zm-43 8v3h-18v-3zm38 0v3h-18v-3z"/><path d="M203 349h3v11h-3z"/><path d="M203 349h3v11h-3z"/><path d="M203 349h3v11h-3zm-38 0h3v11h-3zm28 0h3v11h-3zm-14 0h3v11h-3z"/><path d="M195 356v4h-14v-4zm1-8v3h-9v-3z"/></g><g fill="#fff"><path d="M87 340h48v3H87zm7 16h3v4h-3zm41 0v4h-10v-4zm5-16h3v20h-3z"/><path d="M159 356v4h-18v-4zm-34-7h3v11h-3z"/><path d="M156 340h3v20h-3zm-8 0h3v20h-3zm-44 8v3H87v-3zm38 0v3h-17v-3z"/><path d="M125 349h3v11h-3z"/><path d="M125 349h3v11h-3z"/><path d="M125 349h3v11h-3zm-38 0h3v11h-3zm28 0h3v11h-3zm-14 0h3v11h-3z"/><path d="M117 356v4h-14v-4zm1-8v3h-9v-3z"/></g><g fill="#fff"><path d="M243 340h47v3h-47zm7 16h3v4h-3zm40 0v4h-9v-4zm5-16h4v20h-4z"/><path d="M314 356v4h-18v-4zm-33-7h3v11h-3z"/><path d="M312 340h3v20h-3zm-9 0h4v20h-4zm-43 8v3h-17v-3zm38 0v3h-17v-3z"/><path d="M281 349h3v11h-3z"/><path d="M281 349h3v11h-3z"/><path d="M281 349h3v11h-3zm-38 0h3v11h-3zm28 0h3v11h-4zm-14 0h3v11h-3z"/><path d="M273 356v4h-15v-4zm1-8v3h-10v-3z"/></g><g fill="#fff"><path d="M789 340h48v3h-48zm7 16h4v4h-4zm41 0v4h-10v-4zm5-16h3v20h-3z"/><path d="M861 356v4h-18v-4zm-34-7h4v11h-4z"/><path d="M858 340h4v20h-4zm-8 0h3v20h-3zm-43 8v3h-18v-3zm38 0v3h-18v-3z"/><path d="M827 349h4v11h-4z"/><path d="M827 349h4v11h-4z"/><path d="M827 349h4v11h-4zm-38 0h4v11h-4zm28 0h4v11h-4zm-14 0h4v11h-4z"/><path d="M820 356v4h-15v-4zm1-8v3h-10v-3z"/></g><g fill="#fff"><path d="M320 340h48v3h-48zm7 16h4v4h-3zm41 0v4h-9v-4zm5-16h3v20h-3z"/><path d="M392 356v4h-18v-4zm-33-7h3v11h-3z"/><path d="M389 340h4v20h-4zm-8 0h3v20h-3zm-43 8v3h-18v-3zm38 0v3h-17v-3z"/><path d="M359 349h3v11h-3z"/><path d="M359 349h3v11h-3z"/><path d="M359 349h3v11h-3zm-38 0h3v11h-3zm27 0h4v11h-4zm-13 0h3v11h-3z"/><path d="M351 356v4h-15v-4zm1-8v3h-10v-3z"/></g><g fill="#fff"><path d="M399 340h47v3h-47zm7 16h3v4h-3zm40 0v4h-9v-4zm5-16h4v20h-4z"/><path d="M470 356v4h-18v-4zm-33-7h3v11h-3z"/><path d="M468 340h3v20h-3zm-8 0h3v20h-4zm-44 8v3h-17v-3zm38 0v3h-17v-3z"/><path d="M437 349h3v11h-3z"/><path d="M437 349h3v11h-3z"/><path d="M437 349h3v11h-3zm-38 0h3v11h-3zm28 0h3v11h-3zm-14 0h3v11h-3z"/><path d="M429 356v4h-15v-4zm1-8v3h-9v-3z"/></g><path fill="#239f40" d="M0 0h868v163H0z"/><g fill="#fff"><path d="M477 340h48v3h-48zm7 16h4v4h-4zm41 0v4h-9v-4zm5-16h3v20h-3z"/><path d="M549 356v4h-18v-4zm-33-7h3v11h-3z"/><path d="M546 340h4v20h-4zm-8 0h3v20h-3zm-43 8v3h-18v-3zm38 0v3h-18v-3z"/><path d="M516 349h3v11h-3z"/><path d="M516 349h3v11h-3z"/><path d="M516 349h3v11h-3zm-39 0h4v11h-4zm28 0h4v11h-4zm-14 0h4v11h-4z"/><path d="M508 356v4h-15v-4zm1-8v3h-10v-3z"/></g><g fill="#fff"><path d="M556 340h47v3h-47zm7 16h3v4h-3zm40 0v4h-9v-4zm5-16h4v20h-4z"/><path d="M627 356v4h-18v-4zm-33-7h3v11h-3z"/><path d="M625 340h3v20h-3zm-9 0h4v20h-4zm-43 8v3h-17v-3zm38 0v3h-17v-3z"/><path d="M594 349h3v11h-3z"/><path d="M594 349h3v11h-3z"/><path d="M594 349h3v11h-3zm-38 0h3v11h-3zm28 0h3v11h-4zm-14 0h3v11h-3z"/><path d="M586 356v4h-15v-4zm1-8v3h-10v-3z"/></g><g fill="#fff"><path d="M634 340h47v3h-47zm7 16h3v4h-3zm40 0v4h-9v-4zm5-16h4v20h-4z"/><path d="M706 356v4h-18v-4zm-34-7h3v11h-3z"/><path d="M703 340h3v20h-3zm-8 0h3v20h-3zm-44 8v3h-17v-3zm38 0v3h-17v-3z"/><path d="M672 349h3v11h-3z"/><path d="M672 349h3v11h-3z"/><path d="M672 349h3v11h-3zm-38 0h3v11h-3zm28 0h3v11h-3zm-14 0h3v11h-3z"/><path d="M664 356v4h-15v-4zm1-8v3h-9v-3z"/></g><g fill="#fff"><path d="M712 340h48v3h-48zm7 16h4v4h-4zm41 0v4h-9v-4zm5-16h4v20h-4z"/><path d="M784 356v4h-18v-4zm-33-7h3v11h-3z"/><path d="M782 340h3v20h-3zm-9 0h4v20h-4zm-43 8v3h-18v-3zm38 0v3h-17v-3z"/><path d="M751 349h3v11h-3z"/><path d="M751 349h3v11h-3z"/><path d="M751 349h3v11h-3zm-38 0h3v11h-3zm27 0h4v11h-4zm-13 0h3v11h-3z"/><path d="M743 356v4h-15v-4zm1-8v3h-10v-3z"/></g><g fill="#fff"><path d="M8 340h48v3H8zm7 16h3v4h-3zm41 0v4H46v-4zm5-16h3v20h-3z"/><path d="M80 356v4H62v-4zm-34-7h3v11h-3z"/><path d="M77 340h3v20h-3zm-8 0h3v20h-3zm-44 8v3H8v-3zm38 0v3H46v-3z"/><path d="M46 349h3v11h-3z"/><path d="M46 349h3v11h-3z"/><path d="M46 349h3v11h-3zm-38 0h3v11H8zm28 0h3v11h-3zm-14 0h3v11h-3z"/><path d="M38 356v4H24v-4zm1-8v3h-9v-3z"/></g><g fill="#fff"><path d="M165 139h48v3h-48zm7 16h3v4h-3zm41 0v4h-10v-4zm5-16h3v20h-3z"/><path d="M237 155v3h-18v-3zm-34-7h3v11h-3z"/><path d="M234 139h3v20h-3zm-8 0h3v20h-3zm-43 8v3h-18v-3zm38 0v3h-18v-3z"/><path d="M203 148h3v11h-3z"/><path d="M203 148h3v11h-3z"/><path d="M203 148h3v11h-3zm-38 0h3v11h-3zm28 0h3v11h-3zm-14 0h3v11h-3z"/><path d="M195 155v3h-14v-3zm1-8v3h-9v-3z"/></g><g fill="#fff"><path d="M87 139h48v3H87zm7 16h3v4h-3zm41 0v4h-10v-4zm5-16h3v20h-3z"/><path d="M159 155v3h-18v-3zm-34-7h3v11h-3z"/><path d="M156 139h3v20h-3zm-8 0h3v20h-3zm-44 8v3H87v-3zm38 0v3h-17v-3z"/><path d="M125 148h3v11h-3z"/><path d="M125 148h3v11h-3z"/><path d="M125 148h3v11h-3zm-38 0h3v11h-3zm28 0h3v11h-3zm-14 0h3v11h-3z"/><path d="M117 155v3h-14v-3zm1-8v3h-9v-3z"/></g><g fill="#fff"><path d="M243 139h47v3h-47zm7 16h3v4h-3zm40 0v4h-9v-4zm5-16h4v20h-4z"/><path d="M314 155v3h-18v-3zm-33-7h3v11h-3z"/><path d="M312 139h3v20h-3zm-9 0h4v20h-4zm-43 8v3h-17v-3zm38 0v3h-17v-3z"/><path d="M281 148h3v11h-3z"/><path d="M281 148h3v11h-3z"/><path d="M281 148h3v11h-3zm-38 0h3v11h-3zm28 0h3v11h-4zm-14 0h3v11h-3z"/><path d="M273 155v3h-15v-3zm1-8v3h-10v-3z"/></g><g fill="#fff"><path d="M789 139h48v3h-48zm7 16h4v4h-4zm41 0v4h-10v-4zm5-16h3v20h-3z"/><path d="M861 155v3h-18v-3zm-34-7h4v11h-4z"/><path d="M858 139h4v20h-4zm-8 0h3v20h-3zm-43 8v3h-18v-3zm38 0v3h-18v-3z"/><path d="M827 148h4v11h-4z"/><path d="M827 148h4v11h-4z"/><path d="M827 148h4v11h-4zm-38 0h4v11h-4zm28 0h4v11h-4zm-14 0h4v11h-4z"/><path d="M820 155v3h-15v-3zm1-8v3h-10v-3z"/></g><g fill="#fff"><path d="M320 139h48v3h-48zm7 16h4v4h-3zm41 0v4h-9v-4zm5-16h3v20h-3z"/><path d="M392 155v3h-18v-3zm-33-7h3v11h-3z"/><path d="M389 139h4v20h-4zm-8 0h3v20h-3zm-43 8v3h-18v-3zm38 0v3h-17v-3z"/><path d="M359 148h3v11h-3z"/><path d="M359 148h3v11h-3z"/><path d="M359 148h3v11h-3zm-38 0h3v11h-3zm27 0h4v11h-4zm-13 0h3v11h-3z"/><path d="M351 155v3h-15v-3zm1-8v3h-10v-3z"/></g><g fill="#fff"><path d="M399 139h47v3h-47zm7 16h3v4h-3zm40 0v4h-9v-4zm5-16h4v20h-4z"/><path d="M470 155v3h-18v-3zm-33-7h3v11h-3z"/><path d="M468 139h3v20h-3zm-8 0h3v20h-4zm-44 8v3h-17v-3zm38 0v3h-17v-3z"/><path d="M437 148h3v11h-3z"/><path d="M437 148h3v11h-3z"/><path d="M437 148h3v11h-3zm-38 0h3v11h-3zm28 0h3v11h-3zm-14 0h3v11h-3z"/><path d="M429 155v3h-15v-3zm1-8v3h-9v-3z"/></g><g fill="#fff"><path d="M477 139h48v3h-48zm7 16h4v4h-4zm41 0v4h-9v-4zm5-16h3v20h-3z"/><path d="M549 155v3h-18v-3zm-33-7h3v11h-3z"/><path d="M546 139h4v20h-4zm-8 0h3v20h-3zm-43 8v3h-18v-3zm38 0v3h-18v-3z"/><path d="M516 148h3v11h-3z"/><path d="M516 148h3v11h-3z"/><path d="M516 148h3v11h-3zm-39 0h4v11h-4zm28 0h4v11h-4zm-14 0h4v11h-4z"/><path d="M508 155v3h-15v-3zm1-8v3h-10v-3z"/></g><g fill="#fff"><path d="M556 139h47v3h-47zm7 16h3v4h-3zm40 0v4h-9v-4zm5-16h4v20h-4z"/><path d="M627 155v3h-18v-3zm-33-7h3v11h-3z"/><path d="M625 139h3v20h-3zm-9 0h4v20h-4zm-43 8v3h-17v-3zm38 0v3h-17v-3z"/><path d="M594 148h3v11h-3z"/><path d="M594 148h3v11h-3z"/><path d="M594 148h3v11h-3zm-38 0h3v11h-3zm28 0h3v11h-4zm-14 0h3v11h-3z"/><path d="M586 155v3h-15v-3zm1-8v3h-10v-3z"/></g><g fill="#fff"><path d="M634 139h47v3h-47zm7 16h3v4h-3zm40 0v4h-9v-4zm5-16h4v20h-4z"/><path d="M706 155v3h-18v-3zm-34-7h3v11h-3z"/><path d="M703 139h3v20h-3zm-8 0h3v20h-3zm-44 8v3h-17v-3zm38 0v3h-17v-3z"/><path d="M672 148h3v11h-3z"/><path d="M672 148h3v11h-3z"/><path d="M672 148h3v11h-3zm-38 0h3v11h-3zm28 0h3v11h-3zm-14 0h3v11h-3z"/><path d="M664 155v3h-15v-3zm1-8v3h-9v-3z"/></g><g fill="#fff"><path d="M712 139h48v3h-48zm7 16h4v4h-4zm41 0v4h-9v-4zm5-16h4v20h-4z"/><path d="M784 155v3h-18v-3zm-33-7h3v11h-3z"/><path d="M782 139h3v20h-3zm-9 0h4v20h-4zm-43 8v3h-18v-3zm38 0v3h-17v-3z"/><path d="M751 148h3v11h-3z"/><path d="M751 148h3v11h-3z"/><path d="M751 148h3v11h-3zm-38 0h3v11h-3zm27 0h4v11h-4zm-13 0h3v11h-3z"/><path d="M743 155v3h-15v-3zm1-8v3h-10v-3z"/></g><g fill="#fff"><path d="M8 139h48v3H8zm7 16h3v4h-3zm41 0v4H46v-4zm5-16h3v20h-3z"/><path d="M80 155v3H62v-3zm-34-7h3v11h-3z"/><path d="M77 139h3v20h-3zm-8 0h3v20h-3zm-44 8v3H8v-3zm38 0v3H46v-3z"/><path d="M46 148h3v11h-3z"/><path d="M46 148h3v11h-3z"/><path d="M46 148h3v11h-3zm-38 0h3v11H8zm28 0h3v11h-3zm-14 0h3v11h-3z"/><path d="M38 155v3H24v-3zm1-8v3h-9v-3z"/></g><path fill="#d90000" d="M119 329h6v10h-6zm156 0h6v10h-6zM0 329h6v10H0zm79 0h6v10h-6zm78 0h6v10h-6zm39 0h6v10h-6zm40 0h6v10h-6zm78 0h6v10h-6zm196 0h6v10h-6zm-157 0h6v10h-6zm39 0h6v10h-6zm39 0h6v10h-6zm39 0h6v10h-6zm313 0h6v10h-6zm-235 0h6v10h-6zm40 0h6v10h-6zm40 0h6v10h-6zm38 0h5v10h-5zm40 0h5v10h-6zm39 0h6v10h-6zm116 0h6v10h-6zm-38 0h6v10h-6zm-784 0h6v10h-6z"/><path fill="#239e3f" d="M119 158h6v10h-6zm156 0h6v10h-6zM0 158h6v10H0zm79 0h6v10h-6zm78 0h6v10h-6zm39 0h6v10h-6zm40 0h6v10h-6zm78 0h6v10h-6zm196 0h6v10h-6zm-157 0h6v10h-6zm39 0h6v10h-6zm39 0h6v10h-6zm39 0h6v10h-6zm313 0h6v10h-6zm-235 0h6v10h-6zm40 0h6v10h-6zm40 0h6v10h-6zm38 0h5v10h-5zm40 0h5v10h-6zm39 0h6v10h-6zm116 0h6v10h-6zm-38 0h6v10h-6zm-784 0h6v10h-6z"/><g fill="#da0000"><path d="M457 191c8 10 34 66-15 102-23 18-9 18-8 21 37-19 49-46 48-69 0-24-12-45-25-54"/><path d="M462 189a71 71 0 0 1 15 109c26-6 60-84-15-109m-56 0a71 71 0 0 0-15 109c-26-6-60-84 15-109"/><path d="M411 191c-8 10-33 66 15 102 23 18 9 18 8 21-37-19-49-46-48-69 0-24 13-45 25-54"/><path d="M481 309a102 102 0 0 1-46-9l6 12c13 1 31 2 40-3m-92 0c14 0 32-2 46-9l-7 12c-12 1-30 2-39-3m26-134q6 11 19 4c6 4 15 4 18-4 3 19-18 15-18 11-8 7-22 3-19-11"/><path d="m434 321 8-8 1-117-9-8-9 8 2 117z"/></g></g></svg>