<svg xmlns="http://www.w3.org/2000/svg" viewBox="0 0 512 512"><path fill="#fff" d="M0 0h512v512H0Z"/><path d="m1-2 638 484M1 482 639-2" color="#000" style="-inkscape-stroke:none" transform="matrix(.79999 0 0 1.0563 0 3)"/><path fill="#cf142b" d="M0-2v29l281 213L0 453v29h44l276-212 276 212h44v-29L360 240 640 27V-2h-44L320 210 44-2Z" color="#000" style="-inkscape-stroke:none" transform="matrix(.79999 0 0 1.0563 0 3)"/><path fill="#cf142b" stroke="maroon" stroke-miterlimit="141" d="M303 69c12 47 5 105-47 137-52-32-59-90-47-137 12-11 68-18 94 0z"/><path fill="gold" d="M229 97h-2l-2-3-3 1-2-2 3-1h-3l-2-2h2l-3-1-1-1 2-1h-3l-2-2 3-1-1-1-3-1-1-2q0-2 2-2-1-3 2-3 2-2 2 1l2-1 2 1v1l-1 2v3l7 5 2 3h5v7z"/><path fill="#377bc8" d="M218 74v2l2 1a1 1 0 0 0 0-2zm-5 0h-1l2 3h1a1 1 0 0 0 0-2zm-1 5q-2-1-3 1l2 1 1-1z"/><path fill="gold" d="m253 100-2-1-2 1 1 2 1 1-1 1 1 2 1 1 2-1v2l2 1 1-1 1-2 2-2 1 2 1-1 1-2 1 2 1-1 1-2 1 2 2-1v-2q3 0 3-2l-2-1-1-2v-1l2-2 3-2-1-3-7-1-8 2 5 4-1 1v1l1 1v1l-3 2-4 2z"/><path fill="gold" d="m270 91-1 3h-2l-1-1v-1l-3-1-3 1 3-4h4z"/><path fill="gold" d="m281 74 5-1 1-2q0 4-4 5l-7 1-4-1q2 3-1 3v-1q-1-1-4 1h-7l-3-2-4 2v1l3 2h9l10-2 10-2 10-1q7 1 7 6-1 4-7 5-9 2-16 1l2 1 2 2h10l2-1h1l1 2 1 1h2l1 1h-1l-1 1h2l1 1-1 1h-1l2 1 2 1h-3l2 2 1 1h-2v2l1 2v1l-2 1-2-1v1l-2 1-1-1-1-2-2 1-1-1v-2l2-1 2-1-4-3-2-3-5 2h-6c-6 0-9-8-14-9h-3c-5 1-11 7-16 8l-7 1-2 2h-2l-1 3-3 1v-2l-1 2-3 1v-2l-1 2-2 1v-3l-1 2-3 2v-3h-1l-2 2-3 1q-2-1-1-3-3 0-3-3 0-2 3-2v-1l1-2 1 1 2 2h3l6-3 6-1V86l14 2 5-1 13-1 7-1 9 1 7 1q8 1 12-3v-3l-4-1-1 1v1l1 1h-2l-2-2v1l1 2-3-1-1-2-1 1 1 2-3-1v-2l-10 2-10 1q-7 2-12-1-3 0-3-2l1-3 5-3 10-2 10 1 3-1v-2l2 1z"/><path fill="none" d="m281 74 5-1 1-2q0 4-4 5l-7 1-4-1q2 3-1 3v-1q-1-1-4 1h-7l-3-2-4 2v1l3 2h9l10-2 10-2 10-1q7 1 7 6-1 4-7 5-9 2-16 1l2 1 2 2h10l2-1h1l1 2 1 1h2l1 1h-1l-1 1h2l1 1-1 1h-1l2 1 2 1h-3l2 2 1 1h-2v2l1 2v1l-2 1-2-1v1l-2 1-1-1-1-2-2 1-1-1v-2l2-1 2-1-4-3-2-3-5 2h-6c-6 0-9-8-14-9h-3c-5 1-11 7-16 8l-7 1-2 2h-2l-1 3-3 1v-2l-1 2-3 1v-2l-1 2-2 1v-3l-1 2-3 2v-3h-1l-2 2-3 1q-2-1-1-3-3 0-3-3 0-2 3-2v-1l1-2 1 1 2 2h3l6-3 6-1V86l14 2 5-1 13-1 7-1 9 1 7 1q8 1 12-3v-3l-4-1-1 1v1l1 1h-2l-2-2v1l1 2-3-1-1-2-1 1 1 2-3-1v-2l-10 2-10 1q-7 2-12-1-3 0-3-2l1-3 5-3 9-2 10 1 4-1v-2l2 1z"/><path fill="gold" d="M243 88h2l-1-2v-2l1-2h1l1-2v-2l-3 1v-2l-1-1v-1l-1 1v-2l-2-1h-1l-2 2v-2l-1 1h-1l-1 2q0-2-2-2l-1 1v2l1 2-1 2-1 1-1 1 1 1q-4 5-1 9l1-1 1 3 1 2 1 1 1-1 3-1 2-2-1 2q7-2 5-8"/><path fill="#504416" d="M234 83v4l2 1h3l2-4h-2l-1-1-2 1z"/><path fill="#fff" d="M235 83v2zm4 2v1zm-4 1-1 2h1zm3 1v2zm-3-9 1 2 2-1zm6 1 1 1h2z"/><path fill="#d1b948" d="M235 78h-1v1l1 1 2-1v-1zm0 0h1v1a1 1 0 0 1-2 0zm6 1-1 1 1 1h2v-1zm0 0h1v1h-2z"/><path fill="gold" d="M235 77h3-1zm8 2h-3 1zm-9 8c-2 4 4 5 5 1z"/><path fill="#806600" d="M234 87v2a3 3 0 0 0 6-1zm0 0 5 1-1 2-3 1-1-2z"/><path fill="#377bc8" d="m236 84-1 7 3-7-1-1z"/><path fill="gold" d="M240 73h-1l-2 2v-2l-1 1h-1l-1 1h2l1 1 1-2zl1 1 1 2 1-1 1 3v-2l-1-1v-1l-1 1v-2zm-7 6 2 2-1 1 1 2h2l1 1h1l2-1v-1h2v-1h-3v2h-1l-1-1h-2l-1-1 1-1zm-1 0-2 3-1 1 2 1q-5 4-2 10l1-2 1 3 1 2 1 1 1-1 3-1 2-2v2q6-2 4-8h2l-1-2v-3l-1 2v2l-2-1 1 4v3l-2 2v-6l-1 3-1 2-1-3-1 4-2 1h-1v-2l-2-2 2-4-2 2-2 2v-3l1-2 3-4h-3l2-2zm6 1h-2v1h1l1 1h2v-1z"/><path fill="none" d="M243 88h2l-1-2v-2l1-2h1l1-2v-2l-3 1v-2l-1-1v-1l-1 1-2-3-3 2v-2l-1 1h-1l-1 2q1-2-2-2l-1 1v2l1 2-1 2-1 1-1 1 1 1q-4 5-1 9l1-1 1 3 1 2 1 1 1-1 2-1 3-2-1 2q7-2 5-8"/><path fill="#806600" d="M232 75v1l1 3v-3zm2 2 1 1h2v1h-1l-1 1v1l1 1h3v-1l-1-2 1-1 1 2h2l1 1-1-1v-1h-1l-2-1h-1v2l1 1v1h-2l-2-1 1-1 1-1v-1h-2zm0 2-1 1 1 1v1l1 2h2l1 1h1l2-2h2v-2l-1 2h-1v-1 1l-1 1-1 1-1-1v-1h-1v1h-1l-1-1-1-1h1v-1l-1-1zm12 0h-1l-1 3 2-1z"/><path fill="#2b2200" d="m236 78-1 1a1 1 0 1 0 1-1m5 2a1 1 0 1 0 1-1"/><path fill="#377bc8" d="M214 98q-1-1-3 1l2 1 1-1zm36 1-3 1 2 1h1a1 1 0 0 0 0-2m-39 2-2 2h2l1-1zm39 3-2 2h3v-1zm-36 2h-1l-1 3 2-2zm78 0-2 3 3-1v-1zm-37 1-1 3 3-2zm46 0-1 1 1 3 1-2zm-5 1v4l1-2a1 1 0 0 0 0-2z"/><path fill="gold" d="m230 136-3-1-1-2h-3l-2-1 2-1h-2l-3-2 3-1h-3l-2-1 3-1h-3l-2-2 2-1v-1l-3-1-1-2q-1-2 2-2-1-1 1-3l3 2 2-1h1v2l-1 1 1 3 6 5 2 3h4l1 6z"/><path fill="#377bc8" d="m218 113 1 3h1l1-1zm-4 1h-1l1 2h1a1 1 0 0 0 1-2zm-1 4-3 1 2 1h1a1 1 0 0 0 0-2"/><path fill="gold" d="m252 139-2-2-2 2 1 1 1 1-1 2 1 1 1 1 1-1 1 1 2 2 1-1 1-2 2-2v2l2-1v-2l1 2 2-1 1-2v2l2-1v-2l3-1-2-2-1-1v-1l2-2 3-2-1-3-6-1-8 2q4 2 4 4l-1 1v1h2v1l-3 2-4 2z"/><path fill="gold" d="m268 130-1 3h-2v-1l-1-1-2-1-4 1 3-4h4z"/><path fill="gold" d="m279 114 4-2 1-1q0 3-4 5h-6l-4-1q2 3 0 4l-1-2-3 1-3 1-4-1-3-1-4 1a1 1 0 0 0 0 2l3 1h8l10-2 9-2 9-1q8 1 7 6-1 4-6 5-8 2-16 1l2 1 3 2h9l1-1h2v2l1 1h4l-2 1v1h2l1 1h-1l-1 1h2l1 1h-1l-1 1 2 1v2l-1-1h-1v2l2 2-1 1-2 1-1-1-1 1h-2l-1-2-2 1-1-1v-2l2-1 2-1-4-3-2-2-4 1h-7c-5 0-8-7-12-8h-4c-5 1-10 7-15 8h-7l-1 2-3 1-1 2-2 1v-2l-1 2-2 1v-2l-2 2-2 1v-2l-1 1-2 2v-3h-1l-3 2-2 1q-2-1-1-3-3 0-3-3 0-2 3-2v-1l1-1h1l2 2 2 1 6-3 6-1v-10l3 1 10 1 5-1 13-1 6-1 9 1 6 1q7 0 12-4l-1-2-3-1-1 1v2h1-2l-2-2v1l1 2-3-1-1-2-1 2 1 1-2-1-1-2-9 2-10 1q-7 2-11-1-3 0-3-2l1-3 5-3 9-1h13v-2l2 1z"/><path fill="gold" d="m279 114 4-2 1-1q0 3-4 5h-6l-4-1q2 3 0 4l-1-2-3 1-3 1-4-1-3-1-4 1a1 1 0 0 0 0 2l3 1h8l10-2 9-2 9-1q8 1 7 6-1 4-6 5-8 2-16 1l2 1 3 2h9l1-1h2v2l1 1h4l-2 1v1h2l1 1h-1l-1 1h2l1 1h-1l-1 1 2 1v2l-1-1h-1v2l2 2-1 1-2 1-1-1-1 1-1 1-1-1-1-2-2 1-1-1v-2l2-1 2-1-4-3-2-2-4 1h-7c-5 0-8-7-12-8h-4c-5 1-10 7-15 8h-7l-1 2-3 1-1 2-2 1v-2l-1 2-2 1v-2l-2 2-2 1v-2l-1 1-2 2v-3h-1l-3 2-2 1q-2-1-1-3-3 0-3-3 0-2 3-2v-1l1-1h1l2 2 2 1 6-3 6-1v-10l3 1 10 1 5-1 13-1 6-1 9 1 6 1q7 0 12-4l-1-2-3-1-1 1v1l1 1h-2l-2-2v1l1 2-3-1-1-2-1 2 1 1-2-1-1-2-9 2-10 1q-7 2-11-1-3 0-3-2l1-3 5-3 9-1h13v-2l2 1z"/><path fill="gold" d="M242 127h2v-2l-1-2 1-1 2-1v-4l-2 1-1-2v-1h-1v1l-1-3h-3l-1 1v-1h-1l-1 1-1 1-2-2-1 2v1l1 2-1 2-1 1-1 1 1 1q-4 4 0 9l1-1v2l1 3 1 1 1-2h2l2-2v2q6-3 4-8"/><path fill="#504416" d="m234 122-1 4 3 1h3q-1-2 1-4h-4z"/><path fill="#fff" d="M235 122v2zm3 2v1l1-1zm-3 1-1 2zm3 1-1 2h1zm-3-9-1 1 1 1a1 1 0 0 0 2-1zm6 2h-1a1 1 0 0 0 1 2l1-1z"/><path fill="#d1b948" d="m235 117-1 1 1 1 2-1v-1zm0 0v1h1a1 1 0 0 1-2 1l-1-1zm6 1v1l1 2h1l1-1-1-1zm0 1h2v1h-1z"/><path fill="gold" d="M235 116h-1v1h1l1 1h2l-1-1zm7 2h-3l1 1h3zm-9 8c-1 3 5 5 6 1z"/><path fill="#806600" d="M233 125v2a3 3 0 0 0 6-1zm1 1 4 1-1 2h-2l-2-1z"/><path fill="#377bc8" d="m236 123-1 7 3-6v-1l-1-1z"/><path fill="gold" d="m240 112-1 1-2 1v-1h-1l-1 1-1 1 2-1v1l2-1 2-1 1 2 1 2 1-1 1 2v-2l-1-1h-1v1l-1-2zm-7 6q0 2 2 2l-1 1 1 2h2l1 1h1l1-1 1-1h1l1-1h-3v2a1 1 0 0 1-2 0l-1-1-1 1-1-1 1-2zm-1 0-2 3-1 1 2 1q-6 4-1 9l1-1v2l1 3 1 1 1-2h2l2-2v2q6-3 4-8l3-1-1-1-1-2v-1 4l-2-1 1 4-1 2-2 2 1-2-1-3v3l-2 2v-3l-1 3-2 1-1 1v-2l-2-2 2-4-2 1-2 2v-2l1-3 3-3h-3l2-1zm5 2h-1zv1l2-1z"/><path fill="none" d="M242 127h2v-2l-1-2 1-1 2-1v-4l-2 1-1-2v-1h-1v1l-2-4-3 2v-1h-1l-1 1-1 1-2-2-1 2v2l1 1-1 2-1 1-1 1 2 1q-6 5-1 9l1-1v2l1 3 1 1 1-2h2l2-2v2q6-2 4-8"/><path fill="#806600" d="M232 114v2l1 2v-3zm2 3 2 1 2-1-1 1-1 1v1l1 1v1h1l1-1h1v-1h-1v-2l2 1h1l1 1v-1h-2l-1-1-1-1v4h-1l-2-1 1-1 1-1v-1h-3zm-1 1v2l1 1v1l1 1h2v1h2l2-1v-1h1l1-1-1 1h-2v1l-1 1h-1l-1-1v-1 1h-2l-1-2 1-1h-2zm12 0-1 2 2-1z"/><path fill="#2b2200" d="M236 117a1 1 0 0 0-1 2 1 1 0 1 0 0-1zm5 2v1a1 1 0 1 0 0-1"/><path fill="#377bc8" d="m214 136-2 1 2 1h1a1 1 0 0 0-1-2m35 2q-1-1-3 1l3 1zm-37 2-2 2h2zm37 2-2 2h3l1-1a1 1 0 0 0-2-1m-35 2-1 3 2-2v-1zm75 0-1 3 2-1v-1zm-35 1-1 1v2l2-1zm44 0-1 1 1 3 1-3zm-5 1 1 3 1-2v-1z"/><path fill="gold" d="M238 169h-2l-1-2-2 1-2-1 2-1h-2l-2-2h2l-2-1-2-1h2l-2-1-2-1h2v-1l-2-1-1-2q-1-1 2-1-1-2 1-3l2 1h2v1l-1 2 1 2 5 4 2 2h3v5z"/><path fill="#377bc8" d="m229 152 1 2 1-1zm-4 0 1 2h1a1 1 0 0 0 0-2zm-1 3-2 1 2 1h1a1 1 0 0 0-1-2"/><path fill="gold" d="m254 172-2-1-2 1 1 1 1 1-1 1 1 1 1 1 1-1v1l2 1h1v-2l2-1v1l1-1 1-1v1l2-1v-1l1 2 1-2 1-1 2-1-2-1v-2l1-2 2-1v-2l-6-1-5 1 3 3-1 1v1h1v1l-2 1-4 2z"/><path fill="gold" d="m265 165-1 2h-1l-1-1v-1h-5l2-2 3-1z"/><path fill="gold" d="m271 152 2-1 1-1-2 3-4 1-3-1q2 2-1 3v-1h-2l-2 1-2-1-2-1-3 1v1l2 2h6l6-2 6-1 6-1q6 1 5 4 0 4-4 4-6 2-11 1l2 1 1 2 3-1 3 1 1-1h1l1 1v1h1l1 1h-1v1h1l1 1h-1l1 1h1l-1 1 1 1v1h-1v1l1 2-1 1h-2v1h-2l-1-2-1 1-1-1v-2h2l1-1-2-3-2-1h-3l-4 1c-3 0-5-6-8-7h-2l-11 6-4 1-1 1-2 1v2l-2 1v-2l-1 1-1 1v-1l-1 1-1 1v-2l-1 2-2 1v-2l-2 1-1 1q-2-1-1-3l-2-2 2-1v-1l1-1 1 1 2 1 4-2 4-1v-8l8 1h4l8-1 4-1 6 1h4q6 1 8-2a2 2 0 0 0-2-3l-1 1v1l1 1h-2l-1-2v2h-1l-1-2v3l-2-1v-2l-6 1-6 2-8-1-2-2 1-2 3-3 6-1h8a1 1 0 0 0 1-2l1 1z"/><path fill="gold" d="m275 150-2 2-3 1h-3l-3-1v2h-8l2 1 2 1h2l1-1h2v1-1l1-1h-1 6l2-1 1-1zm5 5-1 1-1 2-1-3-1 3-1-2-1 2-1-2-13 3-7-1-2-2v1l1 1 1 1 4 1h3l2-1 11-2v1l1 1 1 1-1-2 1-1 1 2h1v-2l1 1v1h2l-1-1v-2h1l1 1h1v2q2-4-2-4m4 2-2 3c-3 4-10 2-13 1h-3l-2-1-4 1-8 1h-4l-6-1h-2v2h3-1l-2 4v-2l-1 3v1h-3l-2 1-2 2-2-1-1-1 1 2 2 1 4-2 1-1 2 1 3-2v1l3-2 1-2v-2h2l9-2 7-1 4 2q1 3 4 4h2l2-1h4v1l2 1-1 1 1 1v1h1l-1 1 2 1-1 1 1 1v-1h1v-1l-1-1h1l-1-1-1-1h1l-1-1h-1v-1h1l-1-1h-2v-2h-1l-1 1h-6l-1-2-2-1h8q4 0 7-4zm-24 5-3 1-5 4-4 2h-5l-1 3-1-1v2l-1 1v-1l-1-1v1l-1 2-1-1v-1l-1 1v1h-1l-1-1v1l-1 1v-1l-1-1-2 3h-1v-1h-1l1-2h-2l1-1-1-1 2 1-1-1 1-1-1-1-1 1 1 1-2 1 2 2v2h2l2-1v2l2-2 1-1v2l1-1 1-2v2l1-1 1-1v2l2-2v-1l2-1 1-1 4-1 10-6h3c3 1 5 7 8 7h4l3-1 2 1 2 3-1 1h-2v2l1 1 1-1 1 2h2v-1h2v-2 1h-1l-1-1v1l-1 1-1-1v-1l-1 1v-1h-1l2-1 1-1-3-3-1-3-5 2-4-1-5-5z"/><path fill="none" d="m271 152 2-1 1-1-2 3-4 1-3-1q2 2-1 3v-1h-2l-2 1-2-1-2-1-3 1v1l2 2h6l6-2 6-1 6-1q6 1 5 4 0 4-4 4-6 2-11 1l2 1 1 2 3-1 3 1 1-1h1l1 1v1h1l1 1h-1v1h1l1 1h-1l1 1h1l-1 1 1 1v1h-1v1l1 2-1 1h-2v1h-2l-1-2-1 1-1-1v-1l2-1 1-1-2-3-2-1-3 1h-4c-3 0-5-6-8-7h-2l-11 6-4 1-1 1-2 1v2l-2 1v-2l-1 1-1 1v-1l-1 1-1 1v-2l-1 2-2 1v-2l-2 1-1 1q-2-1-1-3l-2-2 2-1v-1l1-1 1 1 2 1 4-2 4-1v-8l8 1h4l8-1 4-1 6 1 4 1q6 0 8-3a2 2 0 0 0-2-3l-1 1v1l1 1h-2l-1-2v2h-1l-1-2v3l-2-1v-2l-6 1-6 2-8-1-2-2 1-2 3-3 6-1h8a1 1 0 0 0 1-2l1 1z"/><path fill="gold" d="M246 162h1zv-3l1-1 1-1v-1h-2v-1l-1-1h-1v-1l-2-1-2 1v-1l-1 1-1 1-1-1-1 1v4l-1 1h-1l1 2q-4 2-1 7l1-2 1 3v2h1l1-1h2l2-2-1 2q5-2 3-7z"/><path fill="#504416" d="m239 158-1 3 3 1 2 1 1-4h-4z"/><path fill="#fff" d="m240 159-1 1zm3 1-1 1zm-4 1v1zm3 0-1 2h1zm-2-6h-1zl1-1zm4 1 1 1h2z"/><path fill="#d1b948" d="M240 155h1l1-1zm4 1 1 1h2v-1zm0 0h1v1h-2z"/><path fill="gold" d="M240 154h-1zh1l-1-1zm6 1h-3l1 1zh1zm-7 6c-2 3 3 5 3 2z"/><path fill="#806600" d="M239 161v2a2 2 0 0 0 5-1v-1zm0 1 3 1v1h-2l-1-1z"/><path fill="#377bc8" d="M240 159v6l2-5v-1z"/><path fill="gold" d="M244 151h-1l-2 1v-1l-1 1-1 1 2-1v1l1-1zv1l1 1h1l1 1v-1l-1-1v-1l-1 1zm-6 5 1 1v1l1 1h1l1 1h1l1-1h1l1-1h-2l-1 1-1-1-1 1-1-1v-1zm-1 0-1 2h-1l1 2q-4 2-1 7l1-2 1 3 1 2 1-1h2l2-2-1 2q5-2 4-7h1v-3l-1 1v1h-2l1 3v2l-2 1 1-1-1-3v3l-1 1v-2l-2 3h-1l-1 1v-2l-1-1 1-3-2 1-1 1v-4l3-2h-2l1-2zm5 1h-1l1 1h1v-1z"/><path fill="none" d="M246 162h1zv-3l1-1 1-1v-1h-2v-1l-1-1h-1a2 2 0 1 0-4-1v-1l-1 1-1 1-1-1-1 1v4l-1 1h-1l1 2q-4 2-1 7l1-2 1 3v2h1l1-1h2l2-2-1 2q5-2 3-7z"/><path fill="#806600" d="m238 152-1 2 1 1zm1 2 1 1h2v1h-1l-1 1h1v1h2v-3l1 1h2v1-1h-1l-2-1v3h-1l-1-1v-1h1v-1h-2zm-1 1a1 1 0 0 0 0 2h1v1l1 1 1 1v-1l1 1h1l1-1h2v-2l-1 1h-1v1l-1 1h-1v-1h-2l-1-1v-1h1-2zm10 0-1 1h2z"/><path fill="#377bc8" d="m228 170-2 1h2zm23 1-2 1 2 1zm-25 2-1 1h2v-1zm25 2-1 2 2-1zm-23 1-1 2 2-1zm50 0v2l1-1zm-23 1v3l1-2zm28 0v2l1-2zm-3 1v2z"/><path fill="gold" stroke="#806600" stroke-linecap="round" stroke-linejoin="round" d="m319 23 1-1-8 2-3 4-1 3-2-2h-1l-4 2-1 3-1 5-2 2h3l3-1 2-3h1l1 1-2 4h-2l-1 1h-1 0l2 2h0l-4 2h0-4l-3-1h-1l-1-2-2-4a6 6 0 0 0 5-6v-3h-1v-1l-1-1-3-2h-2l-3 2-2 2v3h0l3 5-3 3-9 4a15 15 0 0 1-11-3l-3-3h2l1-2h0l-1-1h-1v-4l2-2 1 1 1 3 2 3 4 1-1-3 1-5v-4l-4-3h-1l-3 1v-4l-1-5-4-4-4 4-2 5 1 4-3-1h-2l-3 3v4l1 5-1 3 3-1 3-3 1-3 1-1 1 2 1 4h-1l-2 2 2 1h2l-3 3a15 15 0 0 1-11 3l-10-4-2-3 3-5h0l-2-5-3-1v-1h-2l-3 2-2 2v3a6 6 0 0 0 5 6l-2 4-2 2h0l-3 1h-4 0-1l-3-2h0l1-2h0l-2-1h-2l-1-3 1-2h1l2 3 3 1h3l-2-2-1-5-2-3-3-2h-1l-2 2-1-3-3-4a9 9 0 0 0-8-2l1 1v1h0l9 19-1 1-1 2 2 1 2-1 2 6h-2 0v1h0v1h0v1h2v2-1 2l-1 3 2 3 1 2h0l1 1h0l-1 1-1 1h0l1 1h0l14-1h4l22-1h15l23 1h10l7 1h0l1-1h0v-1h0l-1-1h0v-1h1l1-2 2-3-1-3v-2h-1l1-1h1q0 0 0 0l1-2h0l-1-1h0-2l2-6 3 1 2-1-1-3h-2z"/></svg>