<svg xmlns="http://www.w3.org/2000/svg" xmlns:xlink="http://www.w3.org/1999/xlink" viewBox="0 0 512 512"><defs><path id="ke-a" stroke-miterlimit="10" d="m-29 48 2 1 47-81q4-2 6-6 3-4 6-18L20-41q-2 3-2 8z"/></defs><path fill="#fff" d="M0 0h512v512H0z"/><path fill="#000001" d="M0 0h512v154H0z"/><path fill="#060" d="M0 358h512v154H0z"/><g id="ke-b" transform="matrix(3.2 0 0 3.2 256 256)"><use xlink:href="#ke-a" width="100%" height="100%" stroke="#000"/><use xlink:href="#ke-a" width="100%" height="100%" fill="#fff"/></g><use xlink:href="#ke-b" width="100%" height="100%" transform="matrix(-1 0 0 1 512 0)"/><path fill="#b00" d="M256 102c-19 0-51 52-61 77H0v154h195c10 25 42 77 61 77s51-52 61-77h195V179H317c-10-25-42-77-61-77"/><path id="ke-c" d="M317 333a220 220 0 0 0 16-77 220 220 0 0 0-16-77 220 220 0 0 0-16 77 220 220 0 0 0 16 77"/><use xlink:href="#ke-c" width="100%" height="100%" transform="matrix(-1 0 0 1 512 0)"/><g fill="#fff" transform="matrix(3.2 0 0 3.2 256 256)"><ellipse rx="4" ry="6"/><path id="ke-d" d="M1 6s4 8 4 21-4 21-4 21z"/><use xlink:href="#ke-d" width="100%" height="100%" transform="scale(-1)"/><use xlink:href="#ke-d" width="100%" height="100%" transform="scale(-1 1)"/><use xlink:href="#ke-d" width="100%" height="100%" transform="scale(1 -1)"/></g></svg>