<svg xmlns="http://www.w3.org/2000/svg" viewBox="0 0 512 512"><defs><clipPath id="kg-a"><path d="M104 0h416v416H104z"/></clipPath></defs><g fill-rule="evenodd" clip-path="url(#kg-a)" transform="translate(-128)scale(1.23)"><path fill="red" d="M0 0h625v416H0z"/><path fill="#ff0" d="M190 212c11-13 34 0 53-10-23 2-35-10-52-9 18-11 33 4 54-2-27-2-26-14-50-16 21-9 32 10 53 5-25-6-28-20-47-24 27-4 26 12 52 14-27-11-19-21-42-30 25-1 23 17 49 21-22-14-19-26-37-36 21 0 23 22 45 29-19-16-14-29-31-43 21 5 18 24 41 37-17-19-11-32-25-47 21 7 13 25 34 42-12-20-5-33-17-50 20 10 10 28 28 47-8-21 0-34-9-52 17 12 7 32 20 50-4-26 7-30 3-53 13 16-1 31 8 53-1-25 13-31 10-52 13 19-7 35 2 55 2-25 18-31 18-50 10 17-12 30-8 53 7-26 24-29 26-46 6 20-18 30-16 52 7-23 28-25 32-42 3 21-18 25-24 48 11-19 30-20 39-35-1 21-24 23-31 43 13-17 30-14 44-29-2 19-26 18-38 38 14-14 37-10 48-21-1 16-30 15-44 30 17-9 39-4 51-12-2 14-33 11-48 22 21-5 36 3 53-3-8 14-36 5-51 15 17-3 36 7 53 4-6 12-37-1-53 7 20 0 33 13 51 12-10 11-37-5-53-2 19 4 34 20 49 21-12 9-35-12-53-9 19 5 34 26 45 27-11 8-34-19-50-18 19 9 28 31 40 34-15 5-30-24-47-25 19 12 20 31 35 39-15 4-27-28-43-31 16 12 18 36 29 44-16 1-22-33-38-38 14 12 10 37 21 48-16-3-14-33-32-43 13 16 6 38 15 51-17-7-10-33-25-48 8 17-1 36 6 52-15-7-5-38-16-51 5 20-5 36-1 53-15-17 3-35-10-53 3 21-11 35-9 52-12-14 6-36-3-54 2 20-16 38-15 50-10-16 11-35 5-54-1 20-20 30-23 47-6-19 16-33 14-52-7 18-25 26-31 43-5-19 21-29 22-50-8 19-30 24-37 38-3-19 28-28 29-46-10 18-34 18-42 32-1-19 31-21 36-41-10 15-36 13-47 25 2-18 36-19 42-35-13 13-37 8-50 17 7-17 40-13 47-26-14 8-40 0-52 8 11-17 36-7 51-18-23 3-37-6-53-2"/><path fill="#ff0" d="M393 208a81 81 0 1 1-161 0 81 81 0 0 1 161 0"/><path fill="red" d="M383 208a70 70 0 1 1-140 0 70 70 0 0 1 140 0"/><path fill="#ff0" d="M373 209a60 60 0 1 1-120 0 60 60 0 0 1 120 0"/><path fill="red" d="M262 169c17 0 37 1 51 12a79 79 0 0 1 49-12l9 17q-19-2-41 7a69 69 0 0 1 29 58l-8 9c3-23-9-49-27-63 14 21 23 40 21 66l-9 5c4-23-1-50-18-65a88 88 0 0 1 13 65l-9 4a78 78 0 0 0-9-64 78 78 0 0 0-8 64l-9-3c-4-24 2-52 13-66-11 6-22 34-19 63l-8-3c-3-22 6-50 20-66-15 10-28 35-26 61l-7-5c-3-23 10-46 26-60a88 88 0 0 0-41-7z"/></g></svg>