<svg xmlns="http://www.w3.org/2000/svg" viewBox="0 0 512 512"><defs><clipPath id="km-a"><path d="M0 0h416v416H0z"/></clipPath></defs><g fill-rule="evenodd" clip-path="url(#km-a)" transform="scale(1.23)"><path fill="#ff0" d="M0 0h625v104H0z"/><path fill="#fff" d="M0 104h625v104H0z"/><path fill="#be0027" d="M0 208h625v104H0z"/><path fill="#3b5aa3" d="M0 312h625v104H0z"/><path fill="#239e46" d="M0 0v416l310-207z"/><path fill="#fff" d="M128 115a93 93 0 0 0-101 94c0 51 48 92 92 90a100 100 0 0 1-53-90 98 98 0 0 1 62-94"/><path fill="#fff" d="m127 160-10-7-12 3 4-11-7-10h13l7-10 3 12 12 4-10 7zm0 42-10-7-12 4 4-12-7-10h12l8-10 3 12 12 4-10 7zm0 43-10-7-12 3 4-11-7-10h13l7-10 3 12 12 4-10 7zm0 43-10-7-12 4 4-12-7-10h12l8-10 3 12 12 4-10 7z"/></g></svg>