<svg xmlns="http://www.w3.org/2000/svg" viewBox="0 0 512 512"><defs><clipPath id="kp-a"><path d="M92 8h594v485H92z"/></clipPath></defs><g fill-rule="evenodd" clip-path="url(#kp-a)" transform="matrix(.86254 0 0 1.0546 -79 -8)"><path fill="#fff" stroke="#000" d="M992 493H4V8h988z"/><path fill="#3e5698" d="M992 405H4v88h988z"/><path fill="#c60000" d="M992 385H4V116h988z"/><path fill="#3e5698" d="M992 8H4v88h988z"/><path fill="#fff" d="M473 251c0 60-61 109-137 109s-138-49-138-109 62-109 138-109 137 49 137 109"/><path fill="#c40000" d="m403 327-66-39-67 39 26-63-66-38h82l26-63 25 62h82l-67 39z"/></g></svg>