<svg xmlns="http://www.w3.org/2000/svg" viewBox="0 0 512 512"><defs><clipPath id="lb-a"><path d="M124 0h496v496H124z"/></clipPath></defs><g clip-path="url(#lb-a)" transform="translate(-128)scale(1.0321)"><g fill-rule="evenodd"><path fill="#EE161F" d="M0 372h744v124H0zM0 0h744v124H0z"/><path fill="#fff" d="M0 124h744v248H0z"/></g><path fill="#00A850" d="M368 126c-7 15-12 15-25 25-5 5-13 8-2 13-10 5-16 7-21 17l3 3s9-5 10-3c2 2-13 10-14 11l-11 7c-13 10-20 7-28 23l25-3c5 18-12 20-25 28l-20 12c5 18 20 8 33 3l2 2v5l-25 13-30 18v5c10 2 25 5 35 0 13-5 15-10 30-10a97 97 0 0 1-50 20v10c15 0 25 0 38-3l32-10c8 0 16 8 13 15-7 28-38 23-48 46l41-15c10-5 20-11 32-8 15 5 15 15 36 20l-5-12 15 5c12 5 15 10 30 7-13-15-15-12-25-23-10-15-15-37 0-40l17 5c18 3 18-2 43 8 15 5 21 12 38 7-7-17-35-30-53-35 20-13 15 5 43-2v-5c-20-16-28-28-55-28l43-5v-5l-44-12 4-4c8 5 32 5 34 4-1-6-12-11-22-16 0 0-44-27-44-29 1-7 18 1 36 6q-9-14-25-17l15-3c-10-22-35-20-51-30-10-7-10-13-25-20"/><path fill="#fff" fill-rule="evenodd" stroke="#fff" stroke-linecap="round" stroke-linejoin="round" stroke-width="3" d="M341 294c2-6 4-12-7-17s6 21 7 17m13-12c-2 0-3 8 1 10 5 1 1-10-1-10m13-1c-2 0-2 12 6 10 9-2 0-11-6-10m16-30c2-3 0-15-7-10-8 5 5 11 7 10m-16-10c2-1 3-8-4-6-6 2 3 8 4 6m-14 3s-4-6-7-5c-5 4 8 5 7 5m-48 19c2 0 16-2 20-7 5-6-24 2-24 2zm137-34c1-1-7-7-12-4-1 4 12 5 12 4m-27-13c2-2-3-11-13-6s10 9 13 6m-31-5s2-8 8-7c7 5-8 7-8 7m-6-6q-2-4-14 3c-7 5 16 2 14-3m18-22s6-3 8 0c3 4-8 0-8 0m-5-3c-1-2-8-2-8 1-1 3 9 3 8-1m-17 0c-1-1-10 0-13 6 4 3 15-2 13-6m-21 7s-13 8-14 13c0 5 16-9 16-9s2-5-2-4m-15-8 7-5c1 2-5 6-7 5m5 31c0-2-16-2-10 5 5 6 11-4 10-5m-15 10c-1-1-2-6-4-6s-11 2-12 4c-1 1 4 9 5 9 2 1 11-6 11-7m86 54c0-2 16-8 22-2 7 9-23 4-22 2m44 10c4-6-11-13-17-6 2 8 14 11 17 6"/></g></svg>