<svg xmlns="http://www.w3.org/2000/svg" viewBox="0 0 512 512"><path fill="#fff" d="M0 0h512v512H0z"/><path fill="#009543" d="M0 358h512v154H0z"/><path fill="#00209f" d="M0 0h512v154H0z"/><path stroke="#000" stroke-width="2" d="M258 163q-5 1-6 3v35l-11 11h9v20l-52 71-8-3-13 29s33 21 81 20c54-1 82-21 82-21l-14-29-6 3-53-70v-20h8l-12-11 1-35s-3-3-6-3z"/><path fill="none" stroke="#000" stroke-width="9" d="M276 246h-36s-13-28-11-47q4-29 28-29 26-1 30 28c3 20-11 48-11 48z"/><path fill="#fff" d="m195 312-5 9 7-2zm4 11-8 2 9 4zm3-11 4 11 10-2-3-6zm6 16 2 4 13 3-5-10zm15-10 4 10 10-3-3-5zm6 14 2 5 15 2-7-10zm14-11 6 9 14-5-2-3zm8 13 3 5 18-1-7-9zm19-13 4 8 11-5-3-4zm18 6-11 6 3 5 14-3zm3-8 6 7 9-7-3-4zm17 4-9 6 3 4 12-3zm12-14 3 3-6 9-7-8zm5 7 3 8-7 2-1-3z"/></svg>