<svg xmlns="http://www.w3.org/2000/svg" viewBox="0 0 512 512"><g fill-rule="evenodd"><path fill="#00319c" d="M0 0h171v512H0z"/><path fill="#ffde00" d="M171 0h170v512H171z"/><path fill="#de2110" d="M341 0h171v512H341z"/></g><path fill="#ff1900" fill-rule="evenodd" stroke="#000" d="M174 691v64q1 6-4 7c-4 0-7 7-7 10q1 12 7 11h32q7 0 7-11c0-3-3-10-7-10q-5-1-4-7v-64" transform="matrix(.46695 -.29552 .30926 .4462 -5 65)"/><path fill="#a77b3b" fill-rule="evenodd" stroke="#000" stroke-width="3" d="M177 696c0 25-9 45-21 45s-21-20-21-45 9-44 21-44 21 20 21 44z" transform="matrix(.42858 -.34452 .36055 .40954 -30 77)"/><path fill="#ff1900" fill-rule="evenodd" stroke="#000" d="M174 691v64q1 6-4 7c-4 0-7 7-7 10q1 12 7 11h32q7 0 7-11c0-3-3-10-7-10q-5-1-4-7v-64" transform="matrix(.48902 .26089 -.27302 .46728 313 -58)"/><path fill="#a77b3b" fill-rule="evenodd" stroke="#000" stroke-width="3" d="M422 702h-29c-1 1-9 54-17 74-11 25-43 47-43 47s19 6 25 10c1-1 32-7 35-46 4 39-21 56-21 56s36 11 36 36c0-25 35-36 35-36s-18-17-21-56c7 39 34 45 35 46 6-4 25-10 25-10s-32-22-43-47c-8-20-16-73-17-74z" transform="matrix(.56007 0 0 .53518 30 -86)"/><path fill="#a77b3b" fill-rule="evenodd" stroke="#000" stroke-width="3" d="m337 468 53 17a38 38 0 0 0 35-35c1-39-14-53-18-53l8-7-11-11s4-18 39-18c35 1 35 18 35 36 0 17-17 17-17 53a38 38 0 0 0 35 35l53-17v177H337z" transform="matrix(.56007 0 0 .53518 10 -56)"/><g fill="none" stroke="#000"><path d="m302 292 15 15 15-15 14 15 29-15 15 16 15-16 21 16 23-16 14 15 15-15" transform="matrix(.1355 0 0 .38018 203 87)"/><path stroke="none" d="m252 177-4 21m6-21v21m4-21v21m4-21 2 21m2-21 2 21"/></g><g stroke="#000" stroke-width="3"><path fill="#a77b3b" fill-rule="evenodd" d="M319 361c35 18 35 54 35 71v355s-2-20-17-36l-18-17-18-18c-13-12-17-36-17-53V415s0-18 35-54z" transform="matrix(-.56007 0 0 .53518 357 -56)"/><path fill="none" d="m284 574 17-18 18 18 18-18 17 18" transform="matrix(-.56007 0 0 .53518 357 -132)"/><path fill="none" d="m284 574 17-18 18 18 18-18 17 18" transform="matrix(-.56007 0 0 -.53518 357 492)"/><path fill="none" d="m284 574 17-18 18 18 18-18 17 18" transform="matrix(-.56007 0 0 .53518 357 -94)"/><path fill="none" d="M301 557v159" transform="matrix(-.56007 0 0 1.01529 357 -400)"/><path fill="none" d="M301 539v177" transform="matrix(-.56007 0 0 .91125 347 -316)"/><path fill="none" d="M301 539v177" transform="matrix(-.56007 0 0 1.0208 337 -385)"/></g><g stroke="#000" stroke-width="3"><path fill="#a77b3b" fill-rule="evenodd" d="M319 361c35 18 35 54 35 71v355s-2-20-17-36l-18-17-18-18c-13-12-17-36-17-53V415s0-18 35-54z" transform="matrix(.56007 0 0 .53518 159 -56)"/><path fill="none" d="m284 574 17-18 18 18 18-18 17 18" transform="matrix(.56007 0 0 .53518 159 -132)"/><path fill="none" d="m284 574 17-18 18 18 18-18 17 18" transform="matrix(.56007 0 0 -.53518 159 492)"/><path fill="none" d="m284 574 17-18 18 18 18-18 17 18" transform="matrix(.56007 0 0 .53518 159 -94)"/><path fill="none" d="M301 557v159" transform="matrix(.56007 0 0 1.01529 159 -400)"/><path fill="none" d="M301 539v177" transform="matrix(.56007 0 0 .91125 169 -316)"/><path fill="none" d="M301 539v177" transform="matrix(.56007 0 0 1.0208 178 -385)"/></g><path fill="#a77b3b" fill-rule="evenodd" stroke="#000" stroke-width="3" d="M177 696c0 25-9 45-21 45s-21-20-21-45 9-44 21-44 21 20 21 44z" transform="matrix(.51699 .20584 -.21541 .49401 290 -73)"/><path fill="red" fill-rule="evenodd" d="M198 204h119v57H198z"/><path fill="#564dff" fill-rule="evenodd" d="M198 261h119v28c0 19-29 19-59 38-30-19-60-19-60-38z"/><path fill="none" stroke="#ff0" stroke-width="3" d="M337 485h212v160c0 35-53 35-106 71-53-36-106-36-106-71z" transform="matrix(.56007 0 0 .53518 10 -56)"/><path fill="#ff0" fill-rule="evenodd" stroke="#000" stroke-width="3" d="M386 130s-51 55-51 109c0 53 53 70 53 70s-18 0-18 71c0 36 54 18 54 36v88c0 18-36 0-36 18 0 9 27 53 53 53s53-44 53-53c0-18-35 0-35-18v-88c0-18 53 0 53-36 0-71-18-71-18-71s54-17 54-70-51-109-51-109 28 73 28 109c0 17-13 53-48 53 0 0-9-18-18 0 0 0-10-18-18 0-2 6-7-18-17 0-5 4-8-18-18 0-18 0-53-18-53-53s33-109 33-109z" transform="matrix(.39205 0 0 .2513 85 175)"/><path fill="#ff0" fill-rule="evenodd" stroke="#000" stroke-width="3" d="M383 248c-4 4 4 61 7 64s25 3 28 0 0-57-3-60c-4-4-30-6-32-4z" transform="matrix(.39205 0 0 .2513 86 225)"/><path fill="#ff0" fill-rule="evenodd" stroke="#000" stroke-width="3" d="M383 248c-4 4 4 61 7 64s25 3 28 0 0-57-3-60c-4-4-30-6-32-4z" transform="matrix(-.39205 0 0 .2513 429 225)"/><path fill="#ff0" fill-rule="evenodd" stroke="#000" stroke-width="3" d="M415 229a16 16 0 1 1-32 0 16 16 0 0 1 32 0z" transform="matrix(.45063 0 0 .31327 64 210)"/><path fill="#ff0" fill-rule="evenodd" stroke="#000" stroke-width="3" d="M415 229a16 16 0 1 1-32 0 16 16 0 0 1 32 0z" transform="matrix(.45063 0 0 .31328 93 210)"/><path fill-rule="evenodd" d="M270 311q0 2-3 2-4 0-4-2 1-2 4-2 4 0 3 2m-18 0q0 2-3 2-4 0-4-2 1-2 4-2 4 0 3 2"/><path fill="#ff0" fill-rule="evenodd" stroke="#000" d="m439 550-7-10-13 1 2-12-11-8 11-8-2-13 13 2 7-10 8 10 13-2-2 13 10 8-10 8 2 12-13-1z" transform="matrix(.54641 0 0 .52213 18 -47)"/><path fill="#ff0" fill-rule="evenodd" stroke="#000" d="m496 592 21 10 22-10-22-11z" transform="matrix(.56007 0 0 .53518 10 -56)"/><path fill="#ff0" fill-rule="evenodd" stroke="#000" d="m496 592 21 10 22-10-22-11z" transform="matrix(.56007 0 0 .53518 -75 -56)"/><path fill="#ff0" fill-rule="evenodd" stroke="#000" d="M535 659c-3-7-14-11-21-11s-14 0-22 11c0-14 11-21 22-21a23 23 0 0 1 21 21z" transform="matrix(.48568 -.26652 .27892 .4641 -137 131)"/><path fill="#ff0" fill-rule="evenodd" stroke="#000" d="M386 652a7 7 0 1 1-14 0 7 7 0 0 1 14 0z" transform="matrix(.56007 0 0 .53518 8 -65)"/><path fill="#ff0" fill-rule="evenodd" stroke="#000" d="M386 652a7 7 0 1 1-14 0 7 7 0 0 1 14 0z" transform="matrix(.56007 0 0 .53518 4 -52)"/><path fill="#ff0" fill-rule="evenodd" stroke="#000" d="M386 652a7 7 0 1 1-14 0 7 7 0 0 1 14 0z" transform="matrix(.56007 0 0 .53518 2 -60)"/><path fill="#ff0" fill-rule="evenodd" stroke="#000" d="M386 652a7 7 0 1 1-14 0 7 7 0 0 1 14 0z" transform="matrix(.56007 0 0 .53518 12 -52)"/><path fill="#ff0" fill-rule="evenodd" stroke="#000" d="M386 652a7 7 0 1 1-14 0 7 7 0 0 1 14 0z" transform="matrix(.56007 0 0 .53518 14 -60)"/><path fill="#ff0" fill-rule="evenodd" stroke="#000" d="M386 652a7 7 0 1 1-14 0 7 7 0 0 1 14 0z" transform="matrix(.56007 0 0 .53518 8 -58)"/><g fill-rule="evenodd"><path fill="#da4500" d="M239 159c-10 0-12 2-16 3 0-4 11-9 21-9q-1 5-5 6"/><path fill="#cac9c7" d="M254 149q0 4-4 4-5 0-4-4 1-5 4-4 4 1 4 4"/><path fill="#ff0" stroke="#000" d="M361 358v10h18v54h11v-53h17v-11h-17v-14h-11v14z" transform="matrix(.56007 0 0 .53518 10 -56)"/><path fill="#da4500" d="M244 153a64 64 0 0 0-24 3c0-6 7-13 19-13 2 0 5 6 5 10"/></g><g fill-rule="evenodd"><path fill="#008500" stroke="#000" d="M67 613c-14-14-16-21 4-10l284 247-4 7z" transform="matrix(.31554 .24102 -.11439 .19257 190 119)"/><path fill="#008f00" d="M182 330c1-9-15-18-15-18q-1 3 4 9l-12-4c-1 2 9 6 9 8 0 1-7 1-6 2 0 1 19 11 20 3m-15-25c0-9-15-18-16-18q-1 3 4 9l-12-4c0 2 9 6 10 7 0 2-7 1-7 3 0 1 20 11 21 3m-12-23c0-9-16-18-16-18q-1 3 4 9l-12-4c-1 2 9 6 10 8l-7 2c0 1 19 11 20 3zm-12-25c0-8-15-18-16-17q-1 2 4 8-10-5-12-3c-1 1 9 5 10 7l-7 2c0 1 20 11 21 3"/><path fill="#008f00" d="M147 256c7-5 6-22 5-22q-2 0-5 8-2-11-4-12v12c-1 1-5-4-6-4-1 1 2 22 10 18m11 22c9-2 13-19 13-20l-8 6q3-10 1-12c-2 1-4 10-5 11s-3-6-4-5c-1 0-5 21 3 20m13 22c8-4 8-22 7-22q-2 1-5 8-1-11-3-12c-2 1-1 10-2 12l-5-5c-1 1 0 22 8 19m14 29c9-3 11-21 10-21q-3 0-6 7 0-11-2-12c-2 0-2 10-3 12-1 0-4-6-5-5-1 0-2 21 6 19"/></g><path fill="#ff1900" fill-rule="evenodd" stroke="#000" d="M209 776q-2 13-23 14c-21 1-23-6-23-14s10-14 23-14 23 6 23 14z" transform="matrix(.48902 .26089 -.27302 .46728 313 -58)"/><g fill="#ff0" fill-rule="evenodd" stroke="#000"><path d="M156 415v-7h7v-8h7v7h7v8h-7v17h-7v-17zm7 60h7v205h-7z" transform="matrix(.40549 .1277 -.14842 .38308 364 58)"/><path d="M159 677h15v56h-15zm-3-238h21c14 0-3 39-3 39h-14s-18-39-4-39zm18-5q-1 5-7 5-9 0-8-5 3-6 8-5 7 1 7 5z" transform="matrix(.40549 .1277 -.14842 .38308 364 58)"/></g><path fill="#ff1900" fill-rule="evenodd" stroke="#000" d="M209 776q-2 13-23 14c-21 1-23-6-23-14s10-14 23-14 23 6 23 14z" transform="matrix(.46695 -.29552 .30926 .4462 -5 65)"/></svg>