<svg xmlns="http://www.w3.org/2000/svg" viewBox="0 0 512 512"><path fill="#d3ae3b" d="M0 0h512v512H0z"/><path fill="#c40308" d="M26 26h460v460H26z"/><path fill="#b96b29" d="M367 252c3-1 14-4 21-10q9-9 10-13 0-5-1-4l-12 9-10 3q-3 1-1 1 4-1 13-9t10-17q0-7-2-3l-10 10-10 7c-3 2-6 3-1 0 4-3 13-11 17-21q5-15 3-17 0-3-2-1c-1 2-7 14-12 19l-4 5q-3 3-1 0l10-17 3-17-2-11q-2-3-2-1l-6 20-7 13c-1 1-3 4-1 0a83 83 0 0 0 7-30 47 47 0 0 0-2-22l-3-5q1 1-3 21c-4 20-6 18-6 18v-1l3-14q0-12-2-23-4-12-6-12c-2 11-1 26-6 38q0-2-2 1l-7 20c-5 10-7 11-7 11l-2-4q-1-2-2 0-1 4-10 16-9 9-10 16 1 8 7 11t4 7q-1 4-7 4h-8l-3 4-3 3h-1c0-15 5-21 5-21l-15-18-2 1-1-1-3-8h4q2-1 0-3v-10l4 2 1-3 3-7 6 2q5 0 9-4l3-3 10 2q8 1 11-5c3-5 0-9-1-9q-1-2-2 0l-2 6q-4 3-7 1a22 22 0 0 0-14-1l6-4q4-1 6 2t3 0q2-5-1-9a8 8 0 0 0-8-3l-4 1s-1-5-6-5q-7-2-14 3h-7l-6-3 1-4 2-1 1-1-2-3 3-4 3-1 3-1 1-1 2-1v-5l1-3v-1l1-2-1-3h-1l-1-2-2-2 1-2-2-2h-2l-4-2-2-1v-2l-2-1-1 1-7-2h-2l-5-3h-2l2-4a6 6 0 0 0-3-6h-2v-2h3v-5l-3 1 1-3h-7l1 3h-3v4h3v2l-2 1-3 5 1 4h-2l-5 3h-2l-6 2-2-1-2 1v2l-2 1-4 2h-1l-2 2v2l-2 2-1 2q-2 1-2 3l1 2v1l1 3v5l2 1 1 1 3 1 3 1 3 4-2 3 1 1 2 1 1 4-6 3h-6a23 23 0 0 0-15-3c-4 0-6 5-6 5l-4-1a8 8 0 0 0-8 3l-1 9q2 3 3 0t6-2l7 4h-4q-6-1-10 1t-7-1q-4-4-3-6 0-2-2 0-3 2-1 9 4 5 11 5l10-2 3 3q5 4 10 4 6-1 5-2l3 7q0 3 2 3l3-2 1 2-1 8v3h4l-3 8v1l-3-1-15 18s5 6 5 21h-1l-3-3-3-4h-8q-6 0-7-4-2-4 4-7t7-11q0-6-10-16-9-12-10-16h-2l-2 4-7-11-7-20q-2-3-2-1c-5-12-4-27-6-38q-2 0-6 12a64 64 0 0 0-2 23l3 14v1l-6-18q-4-19-3-20l-3 4a47 47 0 0 0-2 22c0 13 5 25 7 30q2 4-1 0l-7-13-6-20q0-2-2 1-2 5-2 11l3 17 10 17q2 3-1 0l-4-5-12-19q-2-2-2 1-1 2 3 17a49 49 0 0 0 18 21q4 4-2 0l-10-7-10-10q-2-4-2 3 1 9 10 17t13 9q3 0-1-1l-10-3-11-8q-3-2-1 3-1 3 9 13c7 6 18 9 21 10s0 1 0 1l-7-2c-6-1-15-6-18-8q-2-3-2 2c0 3 4 10 9 13l19 5q3 1 0 1l-20-4-1-2h-1l-2 1q-2 1-1-1l-1-3-1-1-5 2q-1 2 1 3l1 3-4 1v1l2 5 1 1 3-2 1 4-3 1q-2 2 1 3 3-1 6 6 3 6 4 23c2 12 9 18 10 18l1 2-1 4 4 4v8q3 9 6 11l1 2-2 1-4 4v4l3 4q2 2 0 2 0 3 2 5l4 2 1 2 3 3h4q2-1 2 1l1 6-1 4 4-1q2-1 3 1 2 2 4 1v-2l1-4 4-1 2-2-4-2-4-3q-2-1-1-2l1-1v-2l2-2 2-3 3-5 4-3 5-5 7-3 1 4q1 1 8-5c7-6 9-5 9-5l3 4q0 3 9-9l14-16h1v2l-3 5-5 7-3 9q1 5 2 4l-4 6-2 7-1 3-7 6-8 5q-2 2-1 3l6 4h5q2 1-1 2l-1 6q0 4 5 2l6-2-1 1v4l1 4 3-1 5-2 3-1-1 2v5l4 5q2 2 3-1l3-4 2 6c2 5 7 9 7 9s5-4 7-9l2-6 3 4q2 3 3 1l3-5 1-5-1-2 3 1 5 2 3 1 1-4v-4l-1-1 6 2q5 2 5-2l-1-6q-3-1-1-2h5l6-4q1-1-1-3l-8-5-7-6-1-3-2-7-4-6q1 1 2-4l-3-9-5-7-3-5-1-2h2q6 4 15 16 7 11 9 9l2-4 10 5q6 6 8 5v-3l7 2 6 2 9 6q5 4 13 1l33-13 1-5-2-3v-2l-1-3v-4a16 16 0 0 0-9-14l-1-1-1-1v-4h1l1 1 2-1 1-4v-1l-3-1 1-2q1-3-1-2l-5-1q-1-1-1 1v3h-1l-2-1h-1l-1 5v2h3q1 0 0 0l-1 3h-4s-6 1-10 4l-6 7-2 2-2 3q1 2-2 3-3 3-1 9l5 7-1 1-12-9q-3-1-1-1l2-1q3 0 0-1l-5-3q-1-2 1-2 3-2 2-4l-8-2-2-1 1-2v-2l-8-2a20 20 0 0 1-12-14q2 6 8 7 8 0 5-3l-3-5h1c1 2 4 7 13 6 9 0 9-2 9-3l-3-3h13c2-1 8-3 9-6l-7-2q-4-2-1-1h13q6-2 7-8l-7-2-3-1s8 2 15-1q9-7 7-10v-1l-11 1h-6s13-1 20-5c6-4 7-12 7-12l-13 3-9 1q-2 0 1-1c3 0 13-2 19-5a22 22 0 0 0 9-13q1-5-2-2a77 77 0 0 1-25 10s-3 0 0-1m-240 15-2 2-2-3v-1l3-1zm82 48-9 8-8 2q-2 1-1 2l2 2-3 1-7 2q-3 2 2 4v2l-5 3v1l6 2-3 2q-4 3-9 3h-19v-5l-4-8-4-6 1-1-1-4-4-4v-3l-2-12-8-15a42 42 0 0 1-5-21l1-1 3 3c7 4 20 5 20 5h-6l-11-1v1q-2 3 7 10c7 3 15 1 15 1l-3 1-7 2q1 6 7 8h13q3-1-1 1l-7 2c1 3 7 5 9 6h13l-3 3c0 1 0 3 9 3s12-4 13-6h1l-3 5q-3 2 5 3c4 0 7-5 8-7h1zm71-190-1-2 5 4 2 4v9l1 1-3 1h-4l-1-2q2 0 3-5 0-7-2-10m-18 11v-8l-1-9q1-1 6 3 5 6 4 8l-1 6 1 3-3 1-3 1-4-1-2-1zm-17-14 6-3-1 9v8l3 3-2 1-4 1-3-1-3-1 1-3-1-6q-1-2 4-8m-13 20h-4l-3-1 1-1v-9l2-4 5-4-1 2q-2 4-2 10 1 5 3 5zm47 34q-5 1-5 3l3 2-6 5-5 3-1 1 3 3 1 1-6 6-5 3v4l2 3v2l-4 6-4-6v-2l2-3v-4l-5-3-6-6 1-1 3-3-1-1-5-3-6-5 3-2q0-2-5-3-6-3-5-5c1-2 4-1 6-5l1-4 21 3 21-3 1 4q4 5 6 5 1 1-5 5"/><path fill="#d4af3a" d="M300 254c0-11 5-18 5-18l-14-16q-19 8-35 0-16 8-35 0l-14 16s5 7 5 18-2 19-3 24c-2 5-3 15 0 22s6 13 18 18l23 11 6 7 6-7 23-11c12-5 15-11 18-18s2-17 0-22-3-13-3-24"/><path fill="#b96b29" d="M296 258a30 30 0 0 1 4-19l-12-14q-14 7-32-1-17 8-32 1l-12 14s6 9 4 19c-1 10-5 27-4 34q3 11 10 18l18 9 12 8 4 3 4-3q4-4 12-8l18-9a33 33 0 0 0 10-19c1-6-3-23-4-33"/><path fill="#1d5e91" d="M295 259a35 35 0 0 1 3-20l-11-12q-13 7-31 0-18 7-31 0l-11 12s5 9 4 20q-4 19-4 32v1h9l2-1 1-1 2-2h2l1-1 3-4 1-4 1-3h-2l-1-2 1-4v-3s-6 2-7-3l-2-8h-1l-3-3q-3-4-1-5h1l2 2v-3l-1-3v-3h1l1 1h1v-2l2-1 1 2v1l1-1 1-1 1 3-1 3v4l1 4 3 5h1l3-4 4-1 2-1-2-1-3-1v-2q-3 0-4-3l-1-3 2-1q2 1 2 3l1-1-1-3 1-1 4-1h1l2-1 3-1h3l3-1 2 1v1l1 1 3 1 1 1-1 2-1 1v1l1 1 1 2-3 2v1l2 3 2 1v1l-2 1h-2q-2 0-1 1l1 2v2h17l2 1 6-1q3-1 2-2 1-2-4-3l-8-1q-6 0-8-5 0-5 4-6l6-2 7-1h5l2 1q0 2-4 4-6 2-9 1-4-2-5-1-3 1-2 4c2 2 9 2 11 2 1 1 8 0 10 3q3 7-2 9l-6 1-1 1v2l1 3 4 1 3 2 1 6v5l-1 2-2 4h10v-1q0-14-3-32"/><path fill="#6d8c3e" d="M215 297q3 10 13 15c8 6 12 5 20 10l8 7 8-7c8-5 12-4 21-10a29 29 0 0 0 12-15z"/><path fill="#d4af3a" d="m222 253 3 1q2 0 2 2-1 2 2 6t4 3l1-4-1-1-2-2-2-6 1-6v-2h-2v1l-1-2h-1v2l-1-1-2 1 2 3v3h-3zm0-3h-1l-1-1v1l1 1zm2-6v-1l-1-1zm2-2v-1l-1-1zm10 25q1 2 4-3 3-2 1 1l2 5h1l1-4q1-1 1 1l2 3q1 1 2-1v-4h1l2 2 1-2 1-3 2 1q3 1 2-1l-3-4-1-2 3-1h2l1-1-2-1-2-2h-3v-1h-1l-1 2h-1q-1 0 0 0l1-2v-3h-3 1l2-2h2l1-2v-3h-2l-1 2h-1v-2l-1-2-4 1-1 1h-2l-3 1h-1v2h1v1h-1l1 1 3 1 1 2-3 1-1 1h4l3 2v1l-2 1-1 1-5 1q-4 3-3 4l1-1 4-2q3 0 1 2t1 0l2-1h1l-1 3q1 2 3-1 1-1 1 1l-3 3-1-2-1-2-2 1h-2l1-1h-2l-3 1-1 3z"/><path fill="#d4af3a" d="m253 239 1-1 1-1h-2l-2 1h-1v1zm5 4 2-1 1-1-2-1-1 1zm0 1-3 2v1l1 3h1l1-1 2-1 3-1-2-2zm-15 4 2-1-2-1q-5 0-6-4l1 4q3 3 5 2m-9 44h5v-1l1-5 2-6v-2l-1-3h-2l-1 1-1 6q-1 4-3 5l-2 1-2 1-1 1 1 1 1-1h2q1 0 0 0zm-7-1v1h2v-1z"/><path fill="#d4af3a" d="m229 291-1 1h3v-1zm26-1-1 1-1 1h2zm3 1-1 1h-1 2z"/><path fill="#d4af3a" d="m269 278 1-2v-1l-3-1-5 1-1 4v1h1l2 2v3l-2 3h-3l-3 1 1 1h1v2h6l1-2 2-3 1-2-1-2v-3z"/><path fill="#d4af3a" d="M260 264v1h-3l-2 1v3h-3l-1 1-1 2-1 1-1-1-2-2q-1-1-2 1 0 2-1 1l-2-2-2-2-2 2h-2l-1 1 1 3 3-2h2l1 3 1 3 2-1 2-4 1 2q2 2 3 1l1-3 1 1v1l8-3h10l1-1-3-1-4 1-2-1h2l6-1q2 0 1 2l1 4 1 2q3 3 5 3v-1h2l3 1 1 1v4l-2 3h-3q-2 0-2 2v2l1-1h3l1 1h4l2-4v-12q1-2-2-2l-5-3-1-5q-1-3-5-3l-8-1-6 1q-3-1-1 1"/><path fill="#d4af3a" d="M275 292h-1 2v-1zm4 0h3zm-65 2 1 3h82l1-3zm56-40c3 2 11 2 15 3q5 3 2 5c-1 2-7 2-8 2l2 2h2l6-3q3-2 1-6l-8-2-9-1q-4-1-4-4t3-3l5-1 7 1q6-2 5-3h-2l-7-1-6 2q-4 0-7 4-1 3 3 5"/><circle cx="248" cy="241" r="2" fill="#b96b29"/><path fill="#b96b29" d="M282 244h-5 1zl4-1z"/><path fill="#1d5e91" d="M262 282h-1q-1 1-1-2v-5l-4 1-5 1-2 1-3-1-2 2-3 4-1 6-1 3h13l1-1 1-2h1l2-2h5l1-2v-2zm21 1-1-1-2-1v2h-3l-5-3-1-1h-1l-1 3 1 3-2 5-1 2h6l1-1 1-1h1l2-2 3-1 2-2z"/><path fill="#d4af3a" d="m231 352 4-2 2-5 2-2-2 5v7q1 4 3 3l3-3 1-2 2-4v3l-2 7q-1 4 2 6 3 0 4-6l2-5 1 4 1 8h4l1-8 1-4 2 5q1 6 4 6 2-2 2-6l-2-7q0-3 2 0l1 3 3 3q2 1 4-3l-2-11 1 1 2 5 4 2q2 0 1-7l-7-9-4-9-9 6-6 7-6-7-9-6-4 9-4 4-3 5q-2 6 1 7"/><path fill="#d4af3a" d="m231 365 2-2s1-1 1 1l-1 6q1 3 3 2l3-3q2-2 2 1l-1 6q1 5 4 1l3-6q2-2 2 0c0 5 1 13 7 15 6-2 7-10 7-15q0-2 2 0l3 6q4 4 4-1v-6q-1-2 1-1l3 3q3 1 3-2l-1-6 1-1 2 2 4 1q1-2-1-8l-3-5h-2l-2-1v3l3 3q2 2 0 1l-3-3-2 4h-2v1l2 5q0 2-1-1l-3-5q-2-2-2 0l-1 5-1 1 1 5q0 1 0 0l-2-4-3-1-2-3-2 4-2 2v6l-1 2-1-2v-6l-2-2-2-4-2 3-3 1-2 4q-1 1 0 0l1-5-1-1-1-5q0-2-2 0l-3 5q-1 3-1 1l2-5v-1h-3l-1-4-3 3q-2 1 0-1l3-3v-3l-2 1h-2l-3 5q-2 6-1 8t3-1m28 35-2-2-2 2-5 5a17 17 0 0 0 7 12l5-5 2-7z"/><path fill="#b96b29" d="m255 406 1 4 1-4v-3h-2z"/><path fill="#d4af3a" d="m256 161-17-2-4 1a55 55 0 0 0 21 4q13 0 21-4l-4-1zm22-5-4-2v-2l5-2 1-1-7-1-17-1-17 1-7 1q-1 1 1 1l5 2v2l-4 2v1h3a101 101 0 0 1 38 0h3z"/><path fill="#d4af3a" d="m271 159-15-1-15 1q4 2 15 2c11 0 12-1 15-2m-20-61h4v3l3-1v-3l3 1v-3h-3v-3h-4l1 3h-4zm11 7h-5v-3l-1-1h-1v4h-4l-1 2h12z"/><path fill="#1d5e91" d="M256 112q5 0 6-4h-11q1 4 5 4m3-10v2h3zm-5 0-3 2h3z"/><path fill="#b96b29" d="m260 149-4-1-3 2-2 1 1 1 4 3 5-3v-1z"/><path fill="#d4af3a" d="m260 150-4-1-4 1 4 2zm-4-15-1 2v2l1 1 1-1v-2z"/><circle cx="256" cy="142" r="1" fill="#d4af3a"/><path fill="#d4af3a" d="m253 138 2-2 1-2 1 2 2 2 2-4v-11l-1-11-4 2-4-2-1 11v11z"/><circle cx="256" cy="130" r="3" fill="#b96b29"/><circle cx="256" cy="124" r="3" fill="#b96b29"/><circle cx="256" cy="117" r="3" fill="#b96b29"/><circle cx="256" cy="130" r="2" fill="#d4af3a"/><circle cx="256" cy="123" r="2" fill="#d4af3a"/><circle cx="256" cy="117" r="1" fill="#d4af3a"/><path fill="#b96b29" d="M256 359v-2l1-4-1-1-1 1 1 5"/><path fill="#d4af3a" d="m224 383 6-4 4-4h-1l-1-2v-8l-3 3h-3l-1-2-2 4q-2 4-7 6l-6 5-1 1 7 3q7 1 8-2"/><path fill="#d4af3a" d="M242 381q-3 0-3-3v-6l-1 2-3 1-1 1-3 4-5 3-4 3-4 6q-1 3 2 3l5-1 11-7z"/><path fill="#d4af3a" d="m251 384-2-4-2-5-1 3-3 3-2 3-6 5-7 5-1 6q1 1 4-1l12-4c6-4 8-11 8-11"/><path fill="#d4af3a" d="M253 398c2-3 2-9 2-9l-1-1-2-3-2 4-4 4-7 7v8h3l4-4z"/><path fill="#b96b29" d="m234 347 2-5 2-2-3 3-2 4q0 3 1 0m8 2 1-2v-2l-2 3-1 5zm7 5v-1l1-3-1 1zv3zm-21 20-1 1-2 2-3 3-2 1h1l2-1 3-3zm7 9 1-1h-1l-3 2-2 2-4 2 1 1 1-1 2-1 2-1zm9 6-1-1-4 4-3 1-1 1h1l1-1h1l3-1zm4 8q-3 1-5 4l-1 2h1l1-2 4-3 3-3v-2z"/><path fill="#c52126" d="M208 181a24 24 0 0 0-19-1h-6q-4-1-6-6v6l5 4c5 1 11-3 15-3l8 3h3z"/><path fill="#d4af3a" d="m192 339-1-1h-5l-4 3h7z"/><path fill="#d4af3a" d="M211 338v-1l-1-2-2 2-4 4q-2 2-1 0l3-4 2-3h-4l-6-2-3-2-7 2-1 1 4 2 5 1q4 0 3 1l-3 7-1 7v3l7-5 8-5 1-2z"/><path fill="#d4af3a" d="M230 322h-1l-5 4q-3 3-1 0l3-4 1-1-8-5-1 3-4 2 3-3 1-3-5-5-5 8c-4 5-12 7-12 7s-3 0 0 1l8 1 5-2q2 0 0 1l-9 2q-5-2-2 1 4 3 6 2h9l-1 5v7l2 3q0 2 1 0l2-7 1-3v1l-1 5v2l8-9 2-3 4-3q1-3 4-5zm-74-138q2 7 6 13l2 5-2-3-6-7-5-10h-1c-1 1-3 8-1 12l7 10 3 5-2-3-7-6-4-7h-1l-1 6q2 7 6 11l5 5-5-4-7-7q-2-2-2 4c0 5 5 9 7 12l5 4q-2 1-4-1l-7-5q-2-2-1 5l7 9 6 4-4-1-6-3-2 1 2 7 9 4 3 1-1 1h-6q-4 0-3 2-1 1 3 5l10 3 1 1-4 1q-4 0-5 2l3 4q3 3 9 2h6l-4 1-5 2q-2 2 2 4 4 3 9 2l6-1-4 3q-3 0-3 2-1 2 3 3h8q3-2 4-1l-1 1-4 2q-3 1-3 3-1 2 5 3l11-2 2-1v1l-5 3q-2 0-2 2-1 2 4 4t11-3l3-2v-8l-4-1-3-4-2-1-3 1-6-3-2-6h-2l-6-2-2-5-2-1-3-2-3-5-4-2q-4-3-3-7l2-3-2-1q-3-1-4-6 2-5 3-4l-2-1q-3-2-4-5 0-3 2-4l3-1-2-3v-6l5-1h3v-6q-1-1 3-3 6-1 8 2c2 3 0-1 0-2l-4-7a78 78 0 0 1-11-25q0-2-1-1l-2 4z"/><path fill="#d4af3a" d="m210 258-6-4q-3-4-10-4-7 1-8-5-2-5 5-9t7-10c1-4-5-9-10-15l-9-14-1 4v5l-4-2q-4-2-7 0-3 4 2 8l2 3-4-1q-1-2-5-3-4 1-4 4t4 5l2 2h-6q-4 2-2 5 5 4 8 4h1l-4 1q-4 1-3 5l7 4 3 1-1 1q-3-1-5 2 0 3 2 5 4 3 6 1h3q1 2-3 3-2 2 1 5h7l3-1q0 2-3 3-2 3 1 6h8l2-1q1 1-1 4-1 3 3 6c3 2 7-2 8-2l1-1v2a4 4 0 0 0 2 5l5 1 2-8h-1v1l-1 1q-1 0 0 0l-2 1 2-2 1-1 1-1v-1l1-8zm-79-58c4 8 10 13 10 13l-1-3v-3l-4-6-4-11 4 9 4 7 2-3h1l1 1-2-3-1-2-7-12-6-19q-1-5-2 1l-1 11zm5 22 4 3v-2l-1-3-3-3-6-6c-3-4 0-1 2 1l8 7v-3l-2-2a80 80 0 0 1-19-27s-1 10 4 20q10 15 13 15m31 60q3-3 2-4l-4 1-8 2h-1l4-1 7-3v-1l-3-1-4 1a53 53 0 0 1-23 1q-2-1 1 4c2 4 10 6 15 6q9-1 14-4zm-14-7 7-2-1-1v-3h-12 1l8-1q2-1 0-2l-4-2-13 1-11-3h-1l2 4a18 18 0 0 0 10 7zm-2-13v-4l-5-1-7-1-4-1h2l11 2h4l2-1h-2l-4-1-4-1-12-4-12-6q-1-1-1 1-1 2 3 6 3 5 13 8c7 3 16 3 16 3m-23-19 17 7v-3l3-1v-1l-4-1-9-2-4-3 5 2 9 3q2 0 0-2l-3-2-6-2-11-4-3-3-6-4q-1-1-1 1l4 6c2 3 2 4 9 9m-1-13q11 7 14 7v-3l-5-3-8-5q-2-1 0-1l6 4 7 4 1-1 2-1-1-1-6-3-10-7-10-10h-1l1 4q1 6 10 16m24-51 2 4 2 3v-8l-1-2-1-8-1-10q0-4 0 0l1 8 2 10 1-2 2-4v-2l-3-17-1-19q-6 6-7 21l1 15zm-8 18q0-4 3-5l-3-6-2-8c-1-6-2-13 0-2q3 14 4 13l3 5-1-6 1-7-5-14-3-24s-4 3-5 15a74 74 0 0 0 4 29zm36 95-2-2q-2-3-1-4l-2 1-4 3-3 1q-1 0 0 0l3-2 6-5h-2l-4-1-9 5-12 4q-1 1 4 4 3 2 13 0zm9 7-1-5-2 1-5 4h-1c3-1 7-6 7-6h-2l-10 5-12 4c0-1 3 4 12 4 10 0 13-5 14-7m17-4-2 3-5 1-1 1-4 5-4 1 3-2 4-4-1-1h-3l-2 1-3 3-5 6v1l5 2q3 1 8-2l6-5q6-9 4-10m2 11-1 2zl1-1-1-5-4 8q-4 5-3 6h6a7 7 0 0 0 4-6l-1-2z"/><circle cx="207" cy="169" r="2" fill="#d4af3a"/><path fill="#d4af3a" d="m203 166 5-1 9 4 10 1 3-2c5-2 4-7 4-7a18 18 0 0 1-12 3l1 1 2 2-4-3-7-3h-10q-4 3-2 4zm49 37-4-2-7-8 2-2 2-2-5-2-7-6 1-2 1-1-4-2-4-4h-9l-8-2v1q-2 3-5 1-2-3-1-4l-5-2h-8q-4 3-4 7 1 3 2 1l4-2q4-1 10 4l6 5q2 3-3 4l-7-1q-1 1 4 4 4 1 9-1 2-1 3 1l4 9 3-3 1-1 2 9-1 6 1-1 2-1q3 0 2 2l2 8 4 6 1-3 1-8-1-9q1 2 8 5 5 2 9-1 1-3-1-3"/><path fill="#d4af3a" d="m227 215-2 3-1 1 3 2h3l-2-4zm23-2-1-2-9-2 4 5 2 1-4-2-4-5v10l-1 4h10l6-2v-2z"/><path fill="#b96b29" d="m240 199-2-2v1l5 4 3 2v-1zm-7 13v-9l-1-1-1 1 2 11 1 1zm-10-33 4 5v3l-3-1-3-2q-2-1-1 1l4 4 4 2 2 2-2-9zm-34 106-3 1h-1 2zl1-2-2 2m11 6-3 2h-1l-1 1h1zm-45-80 1 1zl-1-1-2-2v1zm-3 7 1 2 1 1-1-2zl-1-1zm1 13h2l-1-1-4-2-1-1 2 2zm2 9-2-1h-1l1 1zm1 11h-3 2l3 1 1-1zm12 11h-2l-2 1h-4 7zm5 8-2 1h-3 6l1-1zm9 6-2 2-1 1-1 1 1-1 3-2 1-1zm-15-79 1 2q2 2 1 0l-4-5q-1-1 0 0zm-4 10-1-2-3-3-1-1 2 2zm5 20-3-1h-4 1l4 1zm-5-11 3 2h1l-1-1-1-1zq-1-1 0 0m11-7-2-1h-1l2 1 2 2zm-7 28h-2q-1 1 1 1l3-1 1-1h-1zm2 10 1-1 3-1 1-1-2 1-2 1zm13 6v-2l-1 1-2 1-1 1q-2 0-1 1l2-1zm6 8 1-1 1-2-2 1-3 3h-1q-2 0 0 0h2zm9 7 2-2 1-1-2 1-2 2-1 1q-1 0 0 0z"/><path fill="#d4af3a" d="m232 151-2 2 3 1 4-2z"/><circle cx="244" cy="152" r="3" fill="#b96b29"/><circle cx="244" cy="151" r="2" fill="#d4af3a"/><path fill="#d4af3a" d="M237 140h2v-2l-2-2h-1v2z"/><circle cx="239" cy="142" r="1" fill="#d4af3a"/><path fill="#d4af3a" d="M234 141v1l1 1h2l1-1-2-1z"/><path fill="#d4af3a" d="m237 145-5-2q-1 3-3 3l3 2 3-1 3-1q2-1 1-3c-1-2 0 2-2 2m-9-2-2-1-2 1 3 2zm-6-4h-2v2l2 2 1-2z"/><circle cx="223" cy="144" r="1" fill="#d4af3a"/><path fill="#d4af3a" d="M225 136q-2-4 2-10c2-4 7-6 7-6l2-1 4-4-5 1v1a2 2 0 0 1-3 2h-1l-6 3 1 1a2 2 0 0 1-3 2h-1v1l-2 4 1 2-2 2v2l2 2 3 2z"/><path fill="#d4af3a" d="M233 118v-2h-1l-1 2zm-9 6v-2h-2v2z"/><circle cx="219" cy="131" r="1" fill="#d4af3a"/><path fill="#d4af3a" d="m249 112-4 2 2 2-2 2a2 2 0 0 1-3-2l1-1-2 1q-6 4-8 9-3 6-2 11 3 4 4 3v-5l2 1 1 2 2 1v-2l-1-5 3-8 7-6 2-2v-2z"/><path fill="#d4af3a" d="m245 117 1-2-1-1-2 1zm7 26h3v-2h-2l-2 1zm3 1-2 1-4-1-1-2h-1l-1 3h-4l-2-2 1 2 3 1h9l2-1z"/><path fill="#d4af3a" d="m242 143 2-1 1-1h-2l-2-1h-1z"/><circle cx="235" cy="130" r="3" fill="#b96b29"/><path fill="#b96b29" d="m240 120-3 1v3h4q1-2-1-4"/><circle cx="235" cy="130" r="2" fill="#d4af3a"/><path fill="#d4af3a" d="M239 121h-2l1 2q3-1 1-3m-43 220-6 3h-2l-5 4-8 3h-17q-5 0-8 3-3 4 0 7 4 2 6 0v-4q-1-1 2-1l11 2v1l-4-1-4-1-1 1 1 1v3l1-1v-2h2l2 4v3l1 1-1 3 2-1 1-4 1-1 2 3v1l3-3 4-4 6-6 7-4 1-2 2-6zm-70-78-1-3h-1l-3 1h-1v-4l-1-1-3 1v2l2 3-1 1-2 1-1 1 1 3h1l2-2 1 1 2 5h3v-2l-2-4v-2h3zm23 103v-3l-2-3v-2h-2q-2 0-2 3 0 4 4 5zm3-1q-1 1 1 2l2 2v-4z"/><path fill="#d4af3a" d="m156 373 2-1 5-1 2-4-3-2h-2l-2 2-2 1-1 1h-2l-2-1h-4l-1 1 1 3 4 1 3 1zm13 2v-3l-3-1h-1l-3 1-3 2-3 2h-3v2l4 1 2-1 2-1 4-1zm0-5h1l1-3-1-2-1 3zm-5-8-1-3-1 3-1 1 2 1zm-8 3 3-1 1-3-2-1h-1l-1 2-1 2q0 2 1 1m3-6v-2l-1-1v1l-1 1zm-18-39 1-6q-2-9-7-16l-6-14-2-11 1-4v-1l-2 1-1 2-1 2-3-1-3 1 1 2 4 2 3 8 3 13 4 15c1 1 5 9 8 7m4 12-1 10 5 8h2l2-1 1-5-4-9q-3-5-5-3m2-5q0-3-4-4l-2 1q-3 5 2 6l3-1zm28 56-6-4-1-1h-4l1 3v6l1 2 1-1 2-4h6z"/><path fill="#d4af3a" d="M170 386h-1l-1 2v1h1l1 1 1-1v-2z"/><path fill="#1d5e91" d="m379 346-2-1-1 1-2 2-3 2q-1 2 2 2l5-2zm3-13q-1-7-8-11l-2 8 1 2 7 2q3 1 2-2zm-22-4q2 1 2-2l2-8s-5 0-9 2l-6 5 4 1zm-11 10h-2l3 6q1 4 7 4t7-4l1-3-9-1z"/><path fill="#d4af3a" d="m348 337 17 3h2l2-1 1-2v-2h2q3 2 2 5 3 3 5 3l2-1 2-5q1-3-2-2l-10-2-1-2 3-10-8-3-2 11-3 1-12-3-1 2-1 6z"/><path fill="#d4af3a" d="M384 345h-3l-2 6-7 4q-4 0-4-4 3-4 6-5a3 3 0 0 0-1-5l-4-1-3 4-3 6-9 2q-5-1-6-6l-4-9h-3l-2 3q0 3 2 5t3 5q3 4 0 5l-5-2-10-8-3-2-10-3 3 6v3l10 5 11 6q3 4 9 3l18-4c3-1 12-3 15-6l4-4q0-3-2-4m-18-33h2q2 0 1 2l-1 2v2h3q1 1 1-1v-4h1l2 1 1-1 1-2h-4v-1l1-3v-1l-3-1h-1v3l-1 1q-1 1-2-1h-1zm5 23v4l2 1v-2zm11 7 1 1h1v-3h-1zm-39-7h2v-5l-1 1-1 2z"/><circle cx="351" cy="332" r="3" fill="#b96b29"/><circle cx="358" cy="334" r="3" fill="#b96b29"/><circle cx="378" cy="338" r="3" fill="#b96b29"/><circle cx="365" cy="335" r="3" fill="#b96b29"/><circle cx="367" cy="329" r="3" fill="#b96b29"/><circle cx="369" cy="323" r="3" fill="#b96b29"/><circle cx="351" cy="332" r="1" fill="#d4af3a"/><circle cx="358" cy="333" r="1" fill="#d4af3a"/><circle cx="379" cy="338" r="1" fill="#d4af3a"/><circle cx="365" cy="335" r="1" fill="#d4af3a"/><circle cx="367" cy="329" r="1" fill="#d4af3a"/><circle cx="369" cy="323" r="1" fill="#d4af3a"/><path fill="#d4af3a" d="m288 383-6-4-4-4h1l1-2v-8l3 3h3l1-2 2 4 6 6 7 5 1 1-7 3q-7 1-9-2"/><path fill="#d4af3a" d="M270 381q3 0 3-3v-6l1 2 3 1 1 1 3 4 5 3 4 3 4 6q1 3-2 3l-5-1-11-7z"/><path fill="#d4af3a" d="m261 384 2-4 1-5 2 3 3 3 2 3 6 5 6 5q2 4 1 6t-3-1l-12-4c-6-4-8-11-8-11"/><path fill="#d4af3a" d="M259 398c-2-3-2-9-2-9l1-1 3-3 2 4 3 4 7 7v8h-4l-3-4z"/><path fill="#b96b29" d="m278 347-2-5-2-2 3 3 2 4q0 3-1 0m-8 2-1-2v-2l2 3 1 5zm-7 5v-1l-1-3 1 1zl1 3zm21 20 1 1 2 2 3 3 2 1h-1l-2-1-4-3zm-7 9-1-1h1l3 2 2 2 3 2v1l-1-1-2-1-2-1zm-9 6 1-1 4 4 3 1 1 1h-1l-1-1h-1l-3-1zm-4 8q3 1 5 4l1 2h-1l-1-2-4-3-3-3v-2z"/><path fill="#c52126" d="M304 181a24 24 0 0 1 19-1h6a8 8 0 0 0 6-6s2 3 0 6l-5 4c-5 1-11-3-15-3l-8 3h-2q-3-1-1-3"/><path fill="#d4af3a" d="M320 339h4l5 3h-7l-3-2"/><path fill="#d4af3a" d="M301 338v-1l1-2 2 2 3 4q2 2 2 0l-3-4-2-3h4l6-2 3-2 6 2q3 0 1 1l-3 2-5 1q-5 0-3 1l3 7 1 7v3l-7-5-8-5q-2 0-1-2z"/><path fill="#d4af3a" d="M282 322h1l5 4q3 3 1 0l-3-4-1-1 7-5 2 3 4 2-3-3-1-3 6-5 4 8c4 5 12 7 12 7s3 0 0 1l-8 1-5-2q-2 0 0 1l9 2q5-2 2 1l-6 2h-9l1 5v7l-2 3q0 2-1 0l-2-7-1-3v1l1 5v2l-8-9-2-3-4-3-4-5zm74-138q-2 7-6 13l-2 5 2-3 6-7 5-10h1c1 1 3 8 0 12l-6 10-3 5 2-3 7-6 4-7q2 1 2 6-2 7-6 11l-5 5 5-4 7-7q2-2 2 4c0 5-5 9-7 12l-5 4q2 1 4-1l8-5v5q-3 7-8 9l-5 4 4-1 6-3 2 1-2 7-9 4-3 1 1 1h6q4 0 3 2 1 1-3 5l-10 3q-2 0-1 1l4 1 4 2q1 1-2 4t-9 2h-6l4 1 5 2q1 2-2 4-4 3-10 2l-5-1 4 3q2 0 3 2t-3 3h-8q-3-2-4-1l1 1 4 2q3 1 3 3 1 2-5 3l-11-2q-2-2-3-1l1 1 5 3 1 2q1 2-3 4-5 2-11-3l-3-2v-8l4-1 3-4 2-1 3 1 6-3q2-4 1-6h3l6-2 2-5 2-1 3-2q3-2 3-5l4-2q4-3 3-7l-2-3 2-1q3-1 4-6-1-5-3-4l2-1q3-2 4-5t-2-4l-3-1 2-3v-6l-5-1h-3v-6q1-1-3-3-5 0-8 2c-3 2 0-1 0-2l4-7a79 79 0 0 0 11-25q0-2 1-1l2 4z"/><path fill="#d4af3a" d="m302 258 6-4q3-4 10-4 7 1 8-5 2-5-5-9t-7-10c-1-4 5-9 10-15l9-14 1 4v5l4-2q4-3 7 0 3 5-2 8l-2 3 4-1q0-2 5-3 4 1 4 4t-4 5l-2 2h6q4 2 2 5-5 4-8 4h-1l4 1q4 1 3 5l-7 4-3 1 1 1 5 2q1 3-2 5-4 3-6 1h-3q-1 2 3 3 2 2-1 5h-7l-3-1q0 2 3 3 3 3-1 6h-8l-2-1q-1 1 1 4t-3 6c-3 2-7-2-8-2l-1-1v2l-1 5-5 1-3-8h1v1l1 1 2 1-2-2-1-1-1-1v-1l-1-8zm79-58c-4 8-10 13-10 13l1-3v-3l4-6 4-11-4 9-4 7-1-3h-2l-1 1 2-3 2-2 6-12 6-19q1-5 2 1l1 11zm-5 22-4 3 1-2v-3l3-3 6-6c3-4 0-1-2 1l-7 7v-1l-1-2 2-2a73 73 0 0 0 19-27s2 10-4 20q-10 15-13 15m-31 60q-3-3-2-4l4 1 8 2h1l-3-1-8-3v-1l3-1 4 1a53 53 0 0 0 23 1q2-1 0 4-6 6-16 6-8-1-14-4zm15-7-8-2 1-1v-3h4l8 1q4 0-1-1l-8-1q-2-1 0-2l4-1h13l11-3h1l-1 4a18 18 0 0 1-10 7zm1-13 1-2-1-2 5-1 7-1 4-1h-2l-10 2h-5l-2-1h2l4-1 4-1 12-4 12-6q1-1 1 1 1 2-3 6-3 5-13 8-15 4-16 3m23-19-17 7v-3l-3-2q-1 0 0 0l3-1 10-2 5-3-6 2-9 3q-3 0 0-2l3-2 6-2 11-5 3-2 6-4q1-1 1 1l-4 6c-2 3-2 4-9 9m1-14-14 8v-3l5-3 8-5q2-2 0-1l-6 4-7 4-1-1-2-1 2-1 5-3 10-7 10-10h1l-1 4q-1 6-10 15m-24-50-2 4-2 3v-8l1-2 1-8 1-10q0-4 0 0l-1 8-2 10-1-2-2-4v-2l3-17 1-19q6 6 7 21l-1 15zm8 18q0-3-3-5l3-6 2-8c1-6 2-13 0-2l-4 13-3 5 1-6-1-7 5-13 3-25s3 3 5 15a74 74 0 0 1-4 29zm-36 95 2-2q2-3 1-4l6 4 3 1q2 0 0 0l-3-2-6-4 2-1 4-1 9 5 12 4q1 1-4 4-3 2-13 0zm-9 7 1-5 2 1 5 4h1c-3-1-7-6-7-6h1c2-1 3 0 11 5l12 4s-3 5-12 4q-14-1-14-7m-17-4 2 3 5 1 1 1 4 5 4 1-3-2-4-4v-1h4l2 1 3 3 4 6 1 1-5 2q-3 1-8-2l-6-5q-6-9-4-10m-3 12 2 1-1-3-1-1 1-5 4 8q4 5 3 6h-6q-4-3-4-6l1-2z"/><circle cx="-305" cy="169" r="2" fill="#d4af3a" transform="scale(-1 1)"/><path fill="#d4af3a" d="m309 166-5-1-9 4-10 1-3-2c-5-2-4-7-4-7a18 18 0 0 0 12 3l-1 1-2 2 4-3 7-3h10l2 4zm-49 37 4-2 6-8v-2l-3-2 5-2 7-6-1-2-1-1 4-2 4-4h9l7-2 1 1q2 3 4 1l2-4 5-2h8q4 3 4 7-1 4-2 1l-4-2q-4-1-10 4l-6 5q-3 3 3 4l7-1-4 4q-4 1-9-1l-3 1q-4 4-4 10l-3-4-1-1-2 9 1 6-1-1-2-1q-3 0-2 2l-2 8-4 6-1-3-1-8 1-9q-1 2-8 5-6 2-9-1-2-3 1-3"/><path fill="#d4af3a" d="m285 215 2 3 1 1-3 2h-4l3-4zm-23-2 1-2 9-2-4 5-2 1 4-2 4-5v10l1 4h-10l-6-2v-2z"/><path fill="#b96b29" d="m272 199 2-2v1l-5 4-3 2v-1zm7 13v-9l1-1 1 1-2 11-1 1zm10-33-4 5v3l3-1 3-2q2-1 1 1l-4 4-4 2-2 2 2-9zm34 106 3 1h1-2zl-1-2zm-11 6 3 1 1 1 1 1h-1zm45-79-1 1zl1-1 1-2 1 1zm3 7-1 2-1 1 1-2zl1-1zm-1 12-2 1 1-1 4-2 1-1-2 2zm-2 10h3l-1 1zq0 1 0 0m-1 10h3l-2 1-3 1-1-1zm-12 11h1l3 1 3-1 1 1h-7zm-5 8 2 1h3-6l-1-1zm-9 6 3 3 1 1-1-1-3-2-1-1zm15-79-2 2q-1 1 0 0l4-5q2-1 0 0zm4 10 1-2 3-3v-1l-1 2zm-5 20 3-1h4-1l-4 1zm5-11-3 2h-1l1-1 1-1zq1-2 0 0m-11-7 2-1h1l-2 1-2 2zm7 28h2-4l-1-1h1zm-2 9h-1l-3-1-1-1 2 1zm-13 6 2 1 1 1 1 1-2-1zm-6 8-2-1v-1l2 1 3 2 1 1q1 0 0 0h-2zm-9 8-2-2-1-1h2zl1 1q1 0 0 0z"/><path fill="#d4af3a" d="m279 155-4-3 5-1 2 2z"/><circle cx="-268" cy="152" r="3" fill="#b96b29" transform="scale(-1 1)"/><circle cx="-268" cy="151" r="2" fill="#d4af3a" transform="scale(-1 1)"/><path fill="#d4af3a" d="M275 140h-2v-2l2-2h1v2z"/><circle cx="-273" cy="142" r="1" fill="#d4af3a" transform="scale(-1 1)"/><path fill="#d4af3a" d="M278 141v1l-1 1h-2l-1-1 2-1z"/><path fill="#d4af3a" d="m275 145 5-2q1 3 3 3l-3 2-3-1-3-1q-2-1-1-3c1-2 0 2 2 2m9-2 2-1 2 1-3 2zm6-4h2v2l-2 2-2-2z"/><circle cx="-289" cy="144" r="1" fill="#d4af3a" transform="scale(-1 1)"/><path fill="#d4af3a" d="M287 136q2-4-2-10l-7-6-2-1-4-4 5 1v1a2 2 0 0 0 3 2h1l6 3-1 1a2 2 0 0 0 3 2h1v1l2 4-1 2 2 2v2l-2 2-3 2z"/><path fill="#d4af3a" d="M279 118v-2h1v2zm9 6v-2h1l1 2z"/><circle cx="-293" cy="131" r="1" fill="#d4af3a" transform="scale(-1 1)"/><path fill="#d4af3a" d="m263 112 4 2-2 2 2 2q3 0 3-2l-1-1 2 1q6 4 8 9 3 6 2 11-3 4-4 3v-5l-1 1-2 2-2 1v-2l1-5-3-8-7-6-2-2v-2z"/><path fill="#d4af3a" d="m268 117-2-2 1-1 2 1zm-6 26h-3v-2h2l2 1z"/><path fill="#d4af3a" d="m258 144 1 1 4-1 1-2h1l1 3h4l2-2-1 2-3 1h-9l-2-1v-2z"/><path fill="#d4af3a" d="m270 143-2-1-1-1h2l2-1z"/><circle cx="-277" cy="130" r="3" fill="#b96b29" transform="scale(-1 1)"/><path fill="#b96b29" d="m272 120 3 1v3h-4q-1-2 1-4"/><circle cx="-277" cy="130" r="2" fill="#d4af3a" transform="scale(-1 1)"/><path fill="#d4af3a" d="M273 121h2l-1 2q-3-1-1-3"/></svg>