<svg xmlns="http://www.w3.org/2000/svg" viewBox="0 0 512 512"><g fill-rule="evenodd"><path fill="#3b5aa3" d="M0 0h512v512H0z"/><path fill="#fff" d="m139 1-5 88-24-56 9 60-35-48 23 55-47-37 37 46-53-24 46 36-58-8 55 22-86 8 86 5-54 23 57-8-46 34 53-23-36 46 46-36-23 54 37-46-10 58 24-55 5 87 8-86 21 54-8-59 37 47-24-55 46 38-37-47 56 23-49-36 60 10-58-22 89-5-89-8 59-20-61 8 51-35-57 22 39-47-48 37 23-57-37 49 8-61-22 57z"/><path fill="#e2ae57" d="M0 498 512 0v93L0 512z"/><path fill="#fff" d="m18 512 494-321V89L0 512z"/></g></svg>