<svg xmlns="http://www.w3.org/2000/svg" fill="#ffd900" viewBox="0 0 512 512"><path fill="#da2032" d="M0 0h512v512H0Z"/><path fill="#0066b3" d="M171 0h170v512H171Z"/><circle cx="85" cy="197" r="35"/><circle cx="85" cy="181" r="38" fill="#da2032"/><circle cx="85" cy="187" r="26"/><path d="M88 104a8 8 0 0 0-5 7l1 7-3 10 1 8q0 4-3 3l-3-3 1-2q2-1 2-3l-1-4 1-6-5 5-1 5q0 2-2 3l-1 5a16 16 0 0 0 31 0l-1-5q-2-1-2-3l-2-5q0-3-4-5l1 6-1 4q0 2 2 3l1 2-3 3q-3 0-3-3c0-6 2-6 2-11 0-6-6-10-6-14q0-3 3-7M15 238h32v153H15Zm109 0h31v153h-31zm-70 0h63l-32 19Zm0 25h63v13H54Zm0 89h63v13H54Zm0 20h63l-32 19Z"/><circle cx="85" cy="314" r="32"/><g fill="#da2032" transform="translate(-42 66)scale(.63636)"><circle cx="200" cy="364" r="10"/><circle cx="200" cy="417" r="10"/><path d="M200 334a30 30 0 0 1 0 59 24 24 0 0 0 0 47v6a30 30 0 0 1 0-59 24 24 0 0 0 0-47z"/></g></svg>