<svg xmlns="http://www.w3.org/2000/svg" xmlns:xlink="http://www.w3.org/1999/xlink" viewBox="0 0 512 512"><path fill="#00785e" d="M0 0h512v512H0z"/><path fill="#fbd116" d="m273 147-17-50-16 51 43-32h-54z"/><g id="mo-a"><path fill="#fff" d="M256 354H147l-4-5h113a2 2 0 0 1 2 3zm0-34q2-2 1-8l-1-4a87 87 0 0 1-35 20l-25 4h-67l6 9h65a86 86 0 0 0 56-21m-117-26-10 2a86 86 0 0 0 65 29 86 86 0 0 0 62-26 470 470 0 0 0 5-63 470 470 0 0 0-5-72c-7 6-20 20-26 41l-4 24a86 86 0 0 0 15 48 86 86 0 0 1-18-53 86 86 0 0 1 8-37l-8-13a86 86 0 0 0-11 42 86 86 0 0 0 17 52 101 101 0 0 0-79-32l7 10a101 101 0 0 1 74 31 101 101 0 0 0-65-24q-21 0-39 8a87 87 0 0 0 88 56l-16 1a86 86 0 0 1-60-24m117 95h-57a153 153 0 0 0 57 10l1-5zm0-27H156l8 7h92l1-3zm0 14h-82l16 8h66l1-4z"/><path fill="#fbd116" d="m156 212-7-37-16 34 32-18-36-5zm49-59-30-22 11 35 12-35-30 21z"/></g><use xlink:href="#mo-a" width="100%" height="100%" transform="matrix(-1 0 0 1 512 0)"/></svg>