<svg xmlns="http://www.w3.org/2000/svg" viewBox="0 0 512 512"><defs><clipPath id="mp-a"><path d="M248 0h496v496H248z"/></clipPath></defs><g clip-path="url(#mp-a)" transform="translate(-256)scale(1.0321)"><path fill="#0071bc" fill-rule="evenodd" d="M0 0h992v496H0z"/><path fill="#fff" fill-rule="evenodd" stroke="#000" stroke-width="2" d="M553 392s18-18 35-15c5-19 24-21 24-21s-2-21 22-26c1-14 16-27 16-27s-3-22 12-28c-9-17 3-30 3-31 0 0-16-28-2-36-15-13-10-27-10-27s-16-5-10-24c-14-2-16-24-16-24s-21 4-23-14c-14 2-16-11-16-11s-27 7-32-13c-11 5-15-5-15-5s-15 8-24-6c-18 11-28-1-28-1s-23 16-31 4c-14 14-26 8-26 8s-10 18-27 13c-4 17-23 18-23 18s2 15-22 19c-3 18-15 21-15 21s1 17-10 23c4 9-6 21-6 21s11 14-4 29c15 4 4 28 4 28s20 9 7 25c14 5 10 16 10 22 9 4 17 2 13 20 28 3 15 18 15 18s12 1 7 11c24 0 27 18 27 18s22-6 25 2c3 9-10 65-10 65s-18 0-32-14c-32-1-25-22-25-22s-11 4-16-14c-21 5-21-13-21-14 0 0-9-4-6-13-22 2-20-19-20-19q-7-4-6-11c-3-1-22-2-12-27-19-12-7-25-7-25s-26-13-6-28c-15-22 1-33 1-33s-20-21 0-36c-3-31 16-39 16-39s-10-26 17-36c2-26 20-27 20-27s1-21 30-19c6-18 26-15 26-15s7-22 34-11c14-27 35-13 35-13s13-9 19-6c9-15 26-1 38 2 4-2 19-13 30 1 15-10 28 8 28 8s21-11 31 14c44-4 38 25 38 25s35-8 27 26c32 3 29 23 29 23s20 16 11 29c18 1 11 18 11 18s14 5 2 27c26 20 5 41 5 41s14 17 1 36c4 31-11 39-11 39s4 20-14 26c0 23-22 26-22 26s6 10-16 21c-1 16-24 17-24 17s-3 29-32 21c-7 24-41 17-42 16z"/><path fill="#217900" fill-rule="evenodd" stroke="#000" stroke-linejoin="round" stroke-width="2" d="M341 115s7 6 6 16c-2 9-7 23-6 33v11s-6-10-6-20 7-19 7-27zm-4 3s-9 9-11 18l-1 35-2 19c0 4 7-7 8-16l1-33 2-12z"/><g fill="#ffd200" fill-rule="evenodd" stroke="#ef8a10"><path stroke-width="2" d="M549 88s12-6 16-17-11-11-13-7c-2 3 2 12 1 14s-6 8-4 10z"/><path stroke-width="3" d="M438 92s8-12 6-23-14-4-14 0 7 10 7 12-1 10 1 11zm-22 6s9-11 6-22c-2-11-14-4-14 0s7 9 7 12c1 2-1 9 1 10zm-24 8s8-11 6-23c-2-11-15-4-15 0s8 10 8 12c0 3-2 10 1 11zm-17 17s8-11 6-22c-2-12-15-5-15-1s8 10 8 12c0 3-2 10 1 11zm-18 16s8-11 6-22-15-4-15 0 8 9 8 12c0 2-2 9 1 10z"/><path stroke-width="2" d="M398 43s-10 9-11 20 13 8 14 4-5-11-4-13c0-3 4-9 1-11zm36-11s-10 9-11 20 13 8 14 4-5-11-4-14c0-2 4-8 1-10zm-134 97s2 14 12 20 13-7 10-10-12-2-13-3c-2-2-6-8-9-7zm-18 46s0 14 9 22c8 7 14-6 12-9s-12-3-14-5c-1-2-4-9-7-8zm42 52s-5-13-16-17c-10-5-11 10-8 12s12-1 14 0c3 1 8 6 10 5zm-9-23s8-11 7-22c-2-11-15-4-15 0s7 10 7 12-2 10 1 10zM575 99s12-6 16-17-11-11-13-7c-2 3 1 12 0 14 0 2-5 8-3 10zm37 19s8-12 5-23-15-3-15 1 8 9 8 11c1 3-1 10 2 11zm103 107s-5-13-15-18c-11-4-12 10-8 13 3 2 12-1 14 0s7 6 9 4zm-50 8s0-14 9-22c8-7 14 6 11 9-2 3-11 3-13 5s-4 8-7 7zm-8-146s-13-5-23 0 0 15 3 14c4-1 8-9 10-10s10-1 10-4zm-30-25s-12-5-23 0c-10 5 0 16 4 15s7-10 10-11c2-1 9-1 9-4zm-43-23s-11 8-12 19c-1 12 13 9 14 5s-5-11-4-14c0-2 4-9 2-10zm-29-7s-5 13 0 23 15 0 14-3-9-8-10-10-1-10-4-10zm-81 49s9-10 7-21c-1-12-14-6-14-2s6 10 7 13c0 2-3 9 0 10z"/></g><path fill="#8c8a8c" fill-rule="evenodd" stroke="#000" stroke-width="2" d="M522 104s22 1 23 13-5 20-5 20 2 26-19 34c-22 3-57 1-57 1s-10 2-14-19c-5-21-6-36-6-36s2-12 17-13z"/><path fill="none" stroke="#000" stroke-linecap="round" stroke-width="2" d="M539 137s-11 14-10 20"/><path fill="#8c8a8c" fill-rule="evenodd" stroke="#000" stroke-width="2" d="M524 170c3 3 6 5 6 14l1 18 15 134 13 97 1 15s-3 11-12 12c-6 13-41 17-44 17s-14-5-21-4c-7 0-18 5-24 4-5-1-17-5-19-13-14-5-17-16-17-16l16-112 16-142s1-19 9-22c8 0 49 1 60-2z"/><path fill="none" stroke="#000" stroke-width="2" d="m444 364-3 99m99-86 9 82"/><path fill="none" stroke="#000" d="M285 313v1m412-5v1"/><path fill="none" stroke="#6b18b5" stroke-linejoin="round" stroke-width="2" d="M274 179s7 9 8 14 3 15 6 20c3 4 19 27 20 37 0 6-7 17-17 17-6 0-23-4-23-18-1-14 5-15 5-23z"/><path fill="none" stroke="#6b18b5" stroke-linejoin="round" d="M386 56s-6 0-12 3q-7 4-15 13c-12 9-31 14-36 22-4 5-4 18 5 23 5 3 22 8 29-3 8-12 4-15 7-23 7-17 22-35 22-35zm164-17s-5-5-11-7l-20-1c-15-2-31-13-40-12-7 1-16 11-14 21 2 6 9 18 23 16 13-3 13-6 22-8 19-11 40-9 40-9zm162 158q1-5-2-14-1-7-9-17c-6-14-5-34-11-41-5-5-17-8-25 0-4 4-13 19-3 29 9 11 13 7 20 12 15 11 23 29 30 31zm-5 122q5-5 5-13l2-20c2-15 11-28 9-41-2-6-11-15-21-12-6 2-19 9-16 23s7 13 10 21c9 17 3 37 11 42z"/><path fill="none" stroke="#000" stroke-width="2" d="M594 417s-2 5 8 9m13-21s12-3 19 0m16-29s-2 5 7 12m-1-25s7 5 18 5m-86 9s0 14-7 20m29-40s12 3 21-2m51-17s2 3 15 2m-63-10s14 5 23 0m5-54 5 14m6-58s0 8-7 12m49-45s-9 7-8 11m-40-17s5 8-3 14m-21-50s9 0 13 7m-29-31h7m27-30q2 0-1 5m-60-4s5 7 4 16m23-41 8-3m-38-25s-3 9 2 12m-13 29c0 9 8 7 2 16m-21-24-12 10m-18-15s5 5 3 11m-18-15s-3 7-6 9m-21-11s-4 9-7 10m-29-10s4 8-1 14m-7-55q1 2-3 11m-33 2s1 7-9 9m-11 52 10 2m-35 21 12-4m-32 19h11m-16 8s2 1 0 14m-39-50 5 8m-22 29s5 8 12 9m26 29 9-3m-12 30q-1-2 6-8m-14 20c0 1 5 8 9 9m-13 5c1 0 7-5 14-5m-16 24s0 6 19 4m-17 18c0-1 5-13 16-17m-1 32s1-5 11-9m-1 30 9-6m-1 22s4 4 14-3m-62 6c1 0 16-4 21 4m-15 8s15-2 17 0m38 3s-2 4 17-3m6 11c-3 6 1 10-3 13m-54-5c0-1 7-3 6-12m-1 26c1-1 12-5 14-3m7 16s1-9 4-10m12 24s9 0 12-3m5-29c0 1 8 5 25 1m-19 38 2 15"/><g fill="#de2010" fill-rule="evenodd" stroke="#000"><path d="m233 119-2-5h-4l-2 5q0 3 2 5h4z" transform="matrix(1.84875 -.23108 .23809 1.90478 237 58)"/><path d="m233 119-2-5h-4l-2 5q0 3 2 5h4z" transform="matrix(1.84875 -.23108 .23809 1.90478 236 38)"/><path d="m233 119-2-5h-4l-2 5q0 3 2 5h4z" transform="matrix(1.8213 -.39265 .40456 1.87649 218 57)"/><path d="m233 119-2-5h-4l-2 5q0 3 2 5h4z" transform="matrix(1.66103 -.84397 .86954 1.71136 193 160)"/><path d="m233 119-2-5h-4l-2 5q0 3 2 5h4z" transform="matrix(1.66103 -.84397 .86954 1.71136 185 141)"/><path d="m233 119-2-5h-4l-2 5q0 3 2 5h4z" transform="matrix(1.5836 -.9816 1.01134 1.63158 174 165)"/><path d="m233 119-2-5h-4l-2 5q0 3 2 5h4z" transform="matrix(1.48128 -1.1301 1.16435 1.52616 167 194)"/><path d="m233 119-2-5h-4l-2 5q0 3 2 5h4z" transform="matrix(1.30182 -1.3329 1.37328 1.34126 169 247)"/><path d="m233 119-2-5h-4l-2 5q0 3 2 5h4z" transform="matrix(1.17368 -1.44698 1.49084 1.20925 168 274)"/><path d="m233 119-2-5h-4l-2 5q0 3 2 5h4z" transform="matrix(.91718 -1.62175 1.6709 .94498 188 334)"/><path d="m233 119-2-5h-4l-2 5q0 3 2 5h4z" transform="matrix(.76579 -1.6985 1.74996 .78897 194 360)"/><path d="m233 119-2-5h-4l-2 5q0 3 2 5h4z" transform="matrix(.65019 -1.74601 1.79893 .66988 195 377)"/><path d="m233 119-2-5h-4l-2 5q0 3 2 5h4z" transform="matrix(.51503 -1.79055 1.84481 .53064 201 398)"/><path d="m233 119-2-5h-4l-2 5q0 3 2 5h4z" transform="matrix(.23314 -1.8485 1.90451 .2402 237 442)"/><path d="m233 119-2-5h-4l-2 5q0 3 2 5h4z" transform="matrix(.07476 -1.86165 1.91806 .07702 251 463)"/><path d="m233 119-2-5h-4l-2 5q0 3 2 5h4z" transform="matrix(.07476 -1.86165 1.91806 .07702 230 464)"/><path d="m233 119-2-5h-4l-2 5q0 3 2 5h4z" transform="matrix(-.41519 -1.81629 1.87134 -.42776 327 516)"/><path d="m233 119-2-5h-4l-2 5q0 3 2 5h4z" transform="matrix(-.56358 -1.77586 1.82969 -.58066 345 531)"/><path d="m233 119-2-5h-4l-2 5q0 3 2 5h4z" transform="matrix(-.77108 -1.69608 1.74749 -.79446 383 546)"/><path d="m233 119-2-5h-4l-2 5q0 3 2 5h4z" transform="matrix(-.91296 -1.62412 1.67333 -.94064 406 556)"/><path d="m233 119-2-5h-4l-2 5q0 3 2 5h4z" transform="matrix(-1.08406 -1.5153 1.56121 -1.1169 441 565)"/><path d="m233 119-2-5h-4l-2 5q0 3 2 5h4z" transform="matrix(-1.20839 -1.41812 1.4611 -1.245 464 570)"/><path d="m233 119-2-5h-4l-2 5q0 3 2 5h4z" transform="matrix(-1.30696 -1.32783 1.36808 -1.34656 483 577)"/><path d="m233 119-2-5h-4l-2 5q0 3 2 5h4z" transform="matrix(-1.41352 -1.21378 1.25056 -1.45636 509 581)"/><path d="m233 119-2-5h-4l-2 5q0 3 2 5h4z" transform="matrix(-1.5349 -1.05613 1.08813 -1.5814 545 577)"/><path d="m233 119-2-5h-4l-2 5q0 3 2 5h4z" transform="matrix(-1.69349 -.77677 .8003 -1.74482 606 552)"/><path d="m233 119-2-5h-4l-2 5q0 3 2 5h4z" transform="matrix(-1.75693 -.62003 .63882 -1.81018 632 544)"/><path d="m233 119-2-5h-4l-2 5q0 3 2 5h4z" transform="matrix(-1.85518 -.13795 .1773 -1.53226 704 439)"/><path d="m233 119-2-5h-4l-2 5q0 3 2 5h4z" transform="matrix(-1.81654 -.41408 .42661 -1.8716 667 525)"/></g><path fill="#ffe300" fill-rule="evenodd" d="M680 196q3-4 8-2-2-10-6-9-5 1-2 11m4 21q3-3 8-2-1-10-6-9t-2 11m-9-40q3-6 7-5-5-9-8-6-5 2 1 11m-10-19q3-5 7-5-3-9-8-6-3 2 1 11m-22-35q2-5 6-6-6-9-9-5-4 4 3 10m-15-15q2-5 6-5-6-8-9-5-4 3 3 10m-31-26q1-5 4-7-8-5-10-2-2 5 6 9m16 12q1-4 5-6-6-7-9-4-3 4 5 10zm-34-22q0-6 3-7-9-6-10-1-2 4 7 8m-18-8q-2-5 2-8-10-4-11 1-1 4 9 7m-21-6q-2-6 2-8-10-3-11 1 0 5 9 7m-19-4q-3-5 0-8-9-3-10 2 0 5 10 6m-21-2q-3-4 0-8-10-1-10 3 0 6 10 5m-41 3q-5-4-2-7-10 0-9 5t11 2m20-2q-3-5-1-8-10-1-10 4 1 5 11 4m-40 7q-4-4-3-8-10 3-8 7t11 1m-38 17q-5-3-5-7-9 5-6 8 2 5 11-1m18-9q-4-3-3-7-10 3-8 7t11 0m-52 33q-5-1-6-6-8 7-5 9 3 4 11-3m16-13q-5-1-5-6-9 5-6 9 3 3 11-3m-31 27q-4-1-6-5-7 7-4 10 4 2 10-5m-13 17q-5 0-6-5-7 9-3 10 4 4 9-5m-10 17q-5 0-8-3-6 8-1 10 4 2 9-7m-10 18q-5 1-8-2-4 9 0 10 5 2 8-8m-7 19q-5 2-8-1-3 10 1 10 5 1 7-9m-6 21q-4 3-8 0-1 9 3 10 4 0 5-10m-2 18h-8q-1 8 4 8 4 0 4-8m353-83q2-5 6-6-6-8-9-5t3 11m29 97q4-3 8-2-2-10-5-9-5 2-3 11"/><path fill="#217900" fill-rule="evenodd" stroke="#000" stroke-linejoin="round" stroke-width="2" d="M659 124c-1 0-8 8-7 17 1 10 7 22 6 32l-3 16s9-10 10-20c0-10-7-24-7-31zm14 32s-6 5-6 15c1 10 12 30 12 30s8 16 7 20c0 4 2-4 1-13-1-10-13-30-13-30s-2-4-2-11z"/><path fill="#6b18b5" fill-rule="evenodd" d="M488 27q0-3-5-4-7 0-6 4t6 4q6-1 5-4m2 9q0-3-5-4-5 1-6 4 0 4 6 4 5 0 5-4m7-11s-6 5-4 7c3 2 10-4 10-4zm188 110-2-4h-3l-2 4 2 3h3zm-3-9q0-5-3-5-4 1-4 5 0 5 4 4t3-4m2 18-1-2-2 2 2 2zm6-16q0-3-2-3l-1 3 1 2zm-16 1-1-2-1 2 1 2zm3 13q0-2-3-3-4 0-3 3 0 3 3 3 4 0 3-3m-8-5q0-3-2-3-3 0-3 3t3 2zm-1-8-1-2h-2l-1 2 1 2h2zm35 39q-5-6-12-4-5 4 1 11 5 7 11 4 5-4 0-11m9 77q0-9-6-10t-8 8q0 9 6 10t8-8m2 44q1-8-5-10-6 0-9 8-1 8 5 10 7 0 9-8m8-41q0-4-3-4-4 0-3 4t3 3q3-1 3-3m-7 8-7 7s-5 0-5 2 8 8 8 10 5 0 5 0l4-13s0-9-2-9q-4 2-3 3m-411-3a3 3 0 1 0-6 0 3 3 0 0 0 6 0m3-9-3-3-3 3q0 2 3 3 4 1 3-3m-25-43q-2-4-5-3-3 2-1 6 3 4 5 3 3-1 1-6m8 27q-4-5-7-4-5 2-2 8 4 7 7 4 4-4 2-8m8 20q-1-7-4-9-4 1-6 7 0 6 4 8 5 1 6-6m-13 2q3-5-1-8-6-3-7 4-2 9 1 9 4 0 7-4"/><path fill="#6b18b5" fill-rule="evenodd" d="M279 242q0-3-3-3-4 0-3 3 1 4 3 3 3 0 3-3m-2-8a3 3 0 0 0-3-4q-3 1-3 4 0 4 3 3 4-1 3-4m2-16q0-5-3-5-2 0-2 5 0 6 2 5 3-1 3-5m9-1q1-5-2-6-3 0-4 5 0 5 3 6 2 0 3-5m64-127q2-7-3-9-6-1-7 6t3 9q5 1 7-6m-12 19q5-6 3-10-3-3-10 2c-7 5-5 7-3 9q4 3 10-1m-7-11q5-4 3-8-4-4-9 2-6 4-4 8 4 4 10-2m27-17q3-4 2-6-2-2-6 1-5 4-3 6 2 1 7-1"/><path fill="#6b18b5" fill-rule="evenodd" d="M346 97v-6q-3-1-6 3-4 5 0 6 3 1 5-3m21-11q3-4 2-6-2-2-7 1c-5 3-3 5-2 7q2 1 7-2m-37 25q4 0 4-3 0-2-5-2l-4 3zm45-38v-6q-3-1-6 3-4 5 0 6 2 1 5-3"/><path fill="#ffd200" fill-rule="evenodd" stroke="#ef8a10" d="M642 149s7-12 4-23-15-3-14 1c0 4 7 9 8 11 0 3-1 10 2 11z"/><path fill="#217900" fill-rule="evenodd" stroke="#000" stroke-linejoin="round" stroke-width="2" d="M502 52s26 1 26 18l-1 14a18 18 0 0 0 8-16c0-18-23-29-33-16z"/><path fill="#217900" fill-rule="evenodd" stroke="#000" stroke-linejoin="round" stroke-width="2" d="M485 51s21-4 21 13c1 17-6 20-6 20s16-4 16-21c0-18-21-25-31-12z"/><path fill="#f7df73" fill-rule="evenodd" stroke="#000" stroke-linejoin="round" stroke-width="3" d="M557 420s100-28 130-150c-17 125-127 165-127 165z"/><path fill="#8c1800" fill-rule="evenodd" d="M568 428c3 0 10-8 15-9 4-1 5-6-1-6-5 0-9 6-9 6s-4 3-9 4c-4 0-1 6 4 5"/><path fill="#8c1800" fill-rule="evenodd" stroke="#8c1800" stroke-width="3" d="M625 385s-10 6-9 8c2 1 11-6 11-6s4-5-2-2z"/><path fill="#8c1800" fill-rule="evenodd" d="M589 412s-3-1 5-4 7-7 10-8c2-1 8-5 9-3s-6 7-8 7l-11 9z"/><path fill="none" stroke="#8c1800" stroke-linecap="round" stroke-width="3" d="m640 370-6 7m17-20-7 8m17-24-8 12"/><path fill="none" stroke="#8c1800" stroke-linecap="round" stroke-width="2" d="m669 325-6 12m10-21-2 4"/><path fill="none" stroke="#8c1800" stroke-linecap="round" d="m678 304-2 5"/><path fill="#f7df73" fill-rule="evenodd" stroke="#000" stroke-linejoin="round" d="M160 216s52-15 68-78c-9 65-66 86-66 86z" transform="matrix(-1.9021 0 0 1.9542 731 -4)"/><path fill="#8c1800" fill-rule="evenodd" d="M416 426c-3 0-10-9-15-10-4-1-4-6 1-6s9 6 9 6 4 4 9 4c4 1 1 7-4 5z"/><path fill="#8c1800" fill-rule="evenodd" stroke="#8c1800" d="M196 198s-6 3-5 4l6-4z" transform="matrix(-1.9021 0 0 1.9542 731 -4)"/><path fill="#8c1800" fill-rule="evenodd" d="M395 410s3-1-5-5c-7-3-7-6-9-8-3-1-8-5-9-3s5 7 7 7l12 9z"/><path fill="none" stroke="#8c1800" stroke-linecap="round" stroke-width="2" d="m204 190-4 4m9-11-3 4" transform="matrix(-1.9021 0 0 1.9542 731 -4)"/><path fill="none" stroke="#8c1800" stroke-linecap="round" d="m214 175-4 6m9-15-4 6m6-10-1 2m3-8-1 2" transform="matrix(-1.9021 0 0 1.9542 731 -4)"/><path fill="#217900" fill-rule="evenodd" stroke="#000" stroke-linejoin="round" stroke-width="2" d="M692 247c0 8 8 15 5 29-4 15-17 51-15 57q-4-7-3-18c-1-7 11-35 12-45z"/><path fill="#217900" fill-rule="evenodd" stroke="#000" stroke-linejoin="round" stroke-width="2" d="M692 247s12 16 11 28c0 12-7 27-5 33q-6-7-5-16c0-8 6-16 5-24zm-401 4c-1 8-7 14-4 28 4 15 17 34 15 56a33 33 0 0 0 6-19c0-7-15-32-16-42z"/><path fill="#217900" fill-rule="evenodd" stroke="#000" stroke-linejoin="round" stroke-width="2" d="M291 251s-12 15-12 27c0 8 15 43 13 49 4-5 5-5 5-13-4-21-12-34-11-42 1-9 5-21 5-21z"/><path fill="#fff" stroke="#000" stroke-dashoffset="1" stroke-linecap="square" stroke-linejoin="round" stroke-width="2" d="m100 126 22 68h72l-58 42 22 68-58-42-58 42 22-68-58-42h72z" transform="matrix(1.3389 0 0 1.3391 360 -55)"/></g></svg>