<svg xmlns="http://www.w3.org/2000/svg" viewBox="0 0 512 512"><path fill="#012169" d="M0 0h512v512H0z"/><path fill="#fff" d="M282 127h205v146q0 88-103 112c-48-12-103-36-103-110z"/><path fill="#00a2bd" stroke="#000" stroke-width="2" d="M286 131h197l-1 141c2 56-33 91-97 107-46-12-99-35-99-106z"/><path fill="#a53d08" d="M481 288c-7 54-49 77-97 90-42-12-88-30-97-90z"/><path d="m377 158-1-18h14v18h39v13h-38l-1 162h-13l-1-162h-38v-14z"/><path fill="#ff9a08" fill-rule="evenodd" stroke="#000" d="m346 295 35 36c12-13 3-63-12-72q-4 11-9 15c-8 5-26 11-20 15q3-5 7 1c2 7-8 7-8 7s-6-1-7-7 9-12 10-12c1-1 14-4 17-16 2-12 5-10 6-11 18 2 29 34 30 56 0 22-9 37-11 38s-42-48-42-48z"/><path fill="#ff9a08" stroke="#000" d="M371 261v66m-4-65 1 60m-5-51v47m-3-44v39m-4-37v33m-4-30v26m-4-24v20"/><path fill="none" stroke="#ffdf00" stroke-linecap="round" d="m345 299 36 41m2-67s16 36 1 65m-43-47s1-3 3-1m-6-8s-6 6-3 10"/><path fill="#008021" d="M391 191q3-3 5-3h17l4 2q5 2 5 14c0 12-1 12-2 17q0 14-6 15c5 8 5 15 8 20s5 17 4 29c-1 13-4 40 5 59q-2 2-9-4c-7-6-5-4-7-2-9 7-17 15-29 7q-5-2-2-10c5-13 7-33 7-42z"/><path fill="#ffe1cf" d="M399 183v15c3-4 7-3 9-5q3-5 5-5-4-2-4-8c1-4 7-8 1-14a8 8 0 0 0-11-2l-2 3-1 3-2 2v2h1l-1 2v3q-1 2 1 3zm-22 23h-13q-3 0-3-3v-7l4-14 4-12q0-3 2-5l2-2 2-1-1 2 3-2 3-1h1v5l-2 2-5 4-1 2c0 18-2 17-2 21l1 2 5-1zm0 38 14-4 11-5 6-3 3-3q8-13 8-22c0-4-1-9-5-6q-7 6-9 14l-4 9-3 1a27 27 0 0 0-13 7l-15 9-5 4-2 3-1 3v5l1 2 1-2q1 2 2 0 1 3 2-1h1l1-3 3-4zm37 95 2 3-1 2-2 9-2 3 1 2 2-1h2l2-1 2-1q2 1 2-2v-3l1-2q2-2 1-4l-1-4-5-3q-3 0-3 2m-32 9q3 3 7-1l-3-2z"/><path fill="#870f00" d="M398 165q3-5 5-3l5-1q5-1 5 4l2 4 1 2q4 0 3 4 3 2 2 5-2 3-5 1l-5-1h-3l-2-2v-3l1-2-1-2q-2-1-1-4-2 1-5-2z"/><path fill="none" d="m399 183 5-2m-10-4h1m3-13c-1-1 2-4 6 0h3m-4 2q3 0 5 2c1 2 2 0 4 3q2 5 5 3m-8 5v-6m-5 1q0 2 3 2m7 4-1-4"/><path fill="none" d="m408 169 1 3 4 2m0-9-5-3m-9 36q-3 4-2 12 3 9-1 16m18 10q-4-2-8 1a8 8 0 0 1-8 0"/><path fill="none" d="M409 236q-4 0-4 6v17m-1-21q-2-1-2 4m-5 0q0-4 2-4m14 5q1-8-2-7c2 0 3 0 4 9l4 14c4 14 2 35 4 42m-13-57a72 72 0 0 1 0 50l10 28m-24-48c1-3-2-3 1-13v-9"/><path fill="none" d="M397 258c-1 5 4 13 1 19m-5 2 1 13 3 9q11 18 11 35 1 6-2 9m-13 3q2 0 3-2c0-2 3-14 2-23m1 10-1 12m6-20v14m-2 0c0 2 1 8-1 9m9-36c4 7 8 23 11 27m-7-3-1-5m-45-76 1-4m-3 5 1-6m-3 6 1-6m15-89-5 4m6-3-5 4m5-2-4 3m-3-3-2 1m42 192 1-2m1 2 1-3m1 2v-2m2 1v-2"/><path d="m397 169 2 1v1h-2q-1 0 0 0zq0-1 0 0m1-1 3 1v1l-2-1z"/><path fill="#012169" d="M0 0h256v256H0z"/><path fill="#FFF" d="M256 0v32l-95 96 95 94v34h-33l-96-94-93 94H0v-34l93-93L0 37V0h31l96 94 93-94z"/><path fill="#C8102E" d="m92 162 6 17-77 77H0v-1zm62-6 27 4 75 74v22zM256 0l-96 98-2-22 75-76zM0 1l97 94-30-4L0 25z"/><path fill="#FFF" d="M88 0v256h80V0zM0 88v80h256V88z"/><path fill="#C8102E" d="M0 104v48h256v-48zM104 0v256h48V0z"/></svg>