<svg xmlns="http://www.w3.org/2000/svg" viewBox="0 0 512 512"><defs><clipPath id="mw-a"><path d="M180 0h708v709H180z"/></clipPath></defs><g fill-rule="evenodd" clip-path="url(#mw-a)" transform="translate(-130)scale(.72249)"><path fill="#f41408" d="M0 0h1063v709H0z"/><path fill="#21873b" d="M0 472h1063v237H0z"/><path fill="#000001" d="M0 0h1063v236H0z"/><path fill="#f31509" d="M401 214a147 147 0 0 1 193-80 142 142 0 0 1 80 80zm-36 10a420 420 0 0 1-72-12q-8-4-5-8a7 7 0 0 1 8-5c8 2 40 11 69 25M538 93c-6-32-7-68-7-74q2-8 7-7a7 7 0 0 1 6 7c0 9 0 42-6 74m16 0a428 428 0 0 1 0-73q2-8 7-7 5 2 6 8c-1 8-4 41-13 72m14 2c0-32 4-67 6-73q3-7 8-6a7 7 0 0 1 5 8c-1 8-7 41-19 71m16 4c2-33 10-67 12-73q3-7 8-5a7 7 0 0 1 4 9c-2 7-10 39-24 69m15 5a422 422 0 0 1 18-72q5-6 9-4a7 7 0 0 1 3 9c-2 7-14 39-30 67m14 5c8-31 21-64 24-69q5-6 9-4a7 7 0 0 1 3 9c-4 8-17 38-36 64m13 8a432 432 0 0 1 31-67q5-7 9-3a7 7 0 0 1 2 9c-4 7-20 36-42 61m13 8a420 420 0 0 1 37-64q5-6 9-2a7 7 0 0 1 1 9c-4 7-23 34-47 57m13 9c16-28 37-56 41-60q7-5 10-1 4 3 0 9c-5 6-26 32-51 52m11 11a424 424 0 0 1 47-57q7-4 9 0a7 7 0 0 1 0 9 410 410 0 0 1-56 48m11 11c20-25 46-49 51-52q7-4 10 0a7 7 0 0 1-1 10 422 422 0 0 1-60 42m9 12a422 422 0 0 1 55-48q8-3 10 2 2 4-2 9a416 416 0 0 1-63 37m8 13a422 422 0 0 1 59-43q9-2 10 2 2 4-3 9c-7 4-35 21-66 32m7 15a432 432 0 0 1 64-38q7-1 9 3a7 7 0 0 1-4 9 418 418 0 0 1-69 26m6 14a413 413 0 0 1 67-32q8-2 8 4 2 5-4 8a413 413 0 0 1-71 20m5 15a421 421 0 0 1 69-26q8 0 8 4a7 7 0 0 1-5 8c-8 3-40 11-72 14M522 93a421 421 0 0 1-13-72q1-8 6-8a7 7 0 0 1 7 7c1 8 3 41 0 73m-15 2a419 419 0 0 1-20-71q1-8 5-8a7 7 0 0 1 8 6c2 8 7 41 7 73m-15 3a422 422 0 0 1-26-68q0-8 4-9a7 7 0 0 1 8 5c3 8 11 40 14 73m-15 4a420 420 0 0 1-31-66q-2-8 3-9a7 7 0 0 1 9 4c3 8 14 39 19 71m-14 6a420 420 0 0 1-37-64q-2-8 3-9a7 7 0 0 1 9 4c3 7 17 37 25 69m-14 7a420 420 0 0 1-43-60q-2-8 2-9a7 7 0 0 1 9 3c5 7 21 35 32 66m-13 8a422 422 0 0 1-48-56q-3-7 2-9a7 7 0 0 1 9 2c5 7 24 34 37 63m-12 9a419 419 0 0 1-52-51q-4-7 0-10a7 7 0 0 1 10 1c5 7 26 32 42 60m-12 11a422 422 0 0 1-57-47q-4-6 0-9a7 7 0 0 1 10 0c5 6 29 29 47 56m-10 11a421 421 0 0 1-60-42c-5-4-3-7-2-9a7 7 0 0 1 10-1c6 5 31 27 52 52m-10 12a421 421 0 0 1-64-36q-5-6-2-9a7 7 0 0 1 10-2 423 423 0 0 1 56 47m-8 14a421 421 0 0 1-67-30q-7-6-3-10a7 7 0 0 1 9-2c7 4 36 21 61 42m-8 14c-31-8-64-22-69-25q-6-4-4-9a7 7 0 0 1 9-3c8 4 38 18 64 37m-5 13a415 415 0 0 1-72-18q-6-4-4-9 2-4 9-3c7 2 39 14 67 30"/><path fill="#f31509" d="M366 224c-33-3-67-10-73-12q-8-4-5-8a7 7 0 0 1 8-5c8 2 40 11 69 25"/><path d="M275 215h528v19H275z"/></g></svg>