<svg xmlns="http://www.w3.org/2000/svg" xmlns:xlink="http://www.w3.org/1999/xlink" viewBox="0 0 512 512"><defs><radialGradient xlink:href="#mx-a" id="mx-b" cx="842" cy="104" r="26" gradientTransform="matrix(.11321 .02876 -.02762 .11359 180 193)" gradientUnits="userSpaceOnUse"/><radialGradient xlink:href="#mx-a" id="mx-c" cx="652" cy="551" r="26" gradientTransform="matrix(-.10753 -.04307 .03971 -.09991 375 10)" gradientUnits="userSpaceOnUse"/><radialGradient xlink:href="#mx-a" id="mx-d" cx="381" cy="740" r="26" gradientTransform="matrix(.06029 .00225 -.00274 .11843 377 -120)" gradientUnits="userSpaceOnUse"/><linearGradient id="mx-a"><stop offset="0" stop-color="#fff"/><stop offset="1" stop-color="#f15770"/></linearGradient></defs><path fill="#ce1126" d="M341 0h171v512H341z"/><path fill="#fff" d="M171 0h170v512H171z"/><path fill="#006847" d="M0 0h171v512H0z"/><path fill="#fcca3e" d="M285 296v3l1-1z"/><circle cx="285" cy="295" r="1" fill="#fcca3e"/><path fill="#fcca3e" d="m289 301-3-2-1 1zm0 2v-2h2l-1 2zm20-39 3 2v-1z"/><circle cx="309" cy="263" r="1" fill="#fcca3e"/><path fill="#fcca3e" d="m316 265-4 1v-1z"/><circle cx="317" cy="265" r="1" fill="#fcca3e"/><path fill="#fcca3e" d="m302 286-2-4v-1l3 4z"/><circle cx="300" cy="281" r="1" fill="#fcca3e"/><path fill="#fcca3e" d="M303 286h3l-3-1z"/><circle cx="307" cy="286" r="1" fill="#fcca3e"/><path fill="#fcca3e" d="m228 294-1 1-1-1 1-1zm0 2v4h-1z"/><path fill="#fcca3e" d="m229 295-2 2-1-1 1-1z"/><circle cx="222" cy="301" r="1" fill="#fcca3e"/><path fill="#fcca3e" d="M224 301h4l-1-1zm0-1q0 3-1 2l-1-1v-2q2-1 2 1"/><circle cx="212" cy="279" r="1" fill="#fcca3e"/><path fill="#fcca3e" d="M212 282v4l-1-1v-3zm1-1-2 1-1-1 1-1z"/><circle cx="205" cy="285" r="1" fill="#fcca3e"/><path fill="#fcca3e" d="M207 285h3l1 1zm-1-1 1 1-1 2-1-1 1-1zm-2-23-1 1v-2h1zm-3 6 1-4-2 2z"/><path fill="#fcca3e" d="m202 263-1-2h1l1 1h1v1zm-7-1 1 2h-2v-2zm2 2 3 2v1z"/><path fill="#fcca3e" d="M197 265h-2v-1h1v-1h1z"/><path fill="#aa8c30" d="M285 295v-2h-1v1zm4 6-3-1zm2 1h-1v-1h-1l1 1zm19-39-2 1v-2 2h1zm8 1-1 1q-1 1-1-1v1l1 1 1-1zm-3 1-1 1zm-14 18-1-2zm0-2h-2v-1h-1v1h1v1zm4 4h-2 3zm3 1-2 1v-1h-1l1 1h2zm-80 9v1h-2v-1 1l1 1h1v-1zm-3 5v-1zm-1 1h-1l-1-1 1 1zm-4 0 1 1 1-1v1h-1zm-7-20-2 1-1-1v-1 1l1 1h1zm-5 4 3 1zm-1 0-1 1-1-1v1h2zm-1 0-1 1-1-1v1zm-2-23h-2l-1-1v1zm-2 1-1 1zm-5 2 2 2zm-1 0h-1v-1 1zm-1-1-1-1z"/><path fill="#9ca168" d="M320 256q-1 5-5 6l-2 3-1 1v7l2-2h2l-2 3q-1 4-5 7l-4 2-1 1-1 1-1 1-1 1v1l-1 2h2v1q1 1-3 5c-3 2-11 2-11 2l-1 1-2 1-1 1-2 2-2 1h2l3 2h-3c-1 1-7 4-9 3l-6-3-2-2h-6v-1h3l3 1 3-1 5-3 5-2h2l1 1-1 1h-1v1l3-1 1 1h1v-1l3-3h1l1-3v-1l4-4 2-2 1-3v5l3-2 2-1 2-1 1-2v-2l-1-6 2-4 3-2 1-1-1 1v1l3-2 1-2v-5l-1-1-1-4v-5l-1-1 2 2 2 4 2-8 2 2v3l1-2q2 1 2 5m-54 52-3-2-4-2v1l4 2 2 1z"/><path fill="#717732" d="m284 301 4-3 2-1 6-2q5-3 5-5h2l-3 3-5 3-6 2-3 2zm10-11-4 6 4-4 5-3 1-2 1-1s-1-1-7 4m-7 7 2-2 1-2 4-4 2-5-1 2-6 6v3zm-2 9-4-1-9 2-6-2c-2-2-7-2-7-2v1h5q3 3 8 4l9-3zm-19-2 5-1 7-5 3 1-4-1-4 1-4 3zm-1 4-2-2-4-1h1l3 1zl1-1zm2-3h3q7-1 10-4c3-3 4 0 4 0l-3-1q-8 1-11 4zm45-32-4 7-3 3-3 3v1l1-2 2-2 4-3 4-7 3-2zm-7 9 1-2 2-3 2-6 2-3-3 1-3 7zm-2 2 1-3v-7l5-6-4 2-3 6 1 5zm9-17 1-3 2-4 3-3v-6l-1 1v5l-3 5v-4l1-5v-5l-2 2-1 6 1 5v3l-1 2zm-3-17 1 3v5q0 2 2 3v3-5l-1-1v-5z"/><path fill="#9ca168" d="m245 308 3-2 6-2-1 1-2 1-1 1-2 1zm6-6-5 1h-1l-1-1h-1v2l-4-4v2l-1 1-4-4v3h-1l-3-2v1l1 2h-5l-1 1v1h2v-1l1 1 3-1c2 1-1 2-1 3h3l3-2c1 1-2 2-1 3q1 2 3 1l3-3-1 3 2-1 3-2 1-1 1-1 3-1h1l1 1h1l1-1zm-22 0h-1l-2-2-1-1-2-1-1-2v-1h-1l-1-5-1-1-1 4-2-2v-4l-1 1-1 1-2-4v2l-2-2-3-2-1-2 1-2 1-2-2 1v-5l-1-1-2 3-1-1v-3l-1 1-1-2-1-3v-7q2-1 2-3h-3l4-4h-3l2-3v-1l-2 2-2-1-1 2v2l-2-1v3l1 2-2-1 1 3 1 1 1 1 1 1 1 1v2l1 2v2l-1 1h-1l1 2h-3l2 2 4 2h-4l2 2 4 1-3 1 2 1h3l3 4 4 2-2 1c-1 0 5 2 3 3l-3-1 1 3c1 1 6 0 5 1l-4 1 3 3 3-1c2 0-1 2 0 2l3-1 5 2z"/><path fill="#717732" d="m247 307 2-2 3-1h1l-4 1zh-3zm6-3-2-1-3 1-1 1h2l3-2zm-40-17-2-1-4-3 3 2zm29 21 1-2 1-2v-2 1l1 1 1-1h-1l-2-2v2c-1 0-2-4-4-4l-2 1 1 2c-1 1-3-3-4-3l-2 1 2 2-4-2-2 1 1 1h-2l-2 2 3-1h4l-1-1-1-1 1 1 2 1h2l-1 1-1 2 1-1 1-1h1v-2l-2-2 2 2 1 2h1v1l-1 2 1-1 1-2h2l-1-1-1-2 1 2 2 1h1l-1 2zm-18-10h2l-2-2-1-4-1 2v-5l-3-2-1 3v-4l-2-2v3l-1-2h-1l-1-1v1l1 1 1 1-1 1h-2 3l1 2 1-2v-2 6h-2l-3-1 3 1h3l1 2 1-2v-3 5l-2 1-3 1h3l2-1 1 1h1l-1 1-1 1 2-1h1v-3 3zm-24-29v-3l-1-4-1-1 1-1-1 1h-1l-1-1 1 1h1v-2l-2-1-2-1 2 1h3l1-1-1 1h-1l-1-2-1-1-1-2 1 1 2 1 1-1 2-1-2 1h-1v-5 1l1 1 2-2v-1l-2 1-1-1-1 2v2l-2-1-1 2 1 3c0 1-2-2-3 0-1 1 3 3 3 3l1 2 2 1 2 5zm9 14-1-3 1-5-2 1 1-4-2-2-2 3v-3l-1-1-1 2-2-2 2 3 1-1v-1 3h-4 2l2 1 1 1 1 1v-2l1-2v3l-1 2h-2l-3-1 3 1 3 1 1 1v-1l1-1v1l-1 2h-3 3l1 2z"/><path fill="#fff" d="m252 313-2-1-1-1 1-1 4-4 1-5h3v6l5 3v2h-1l-2 1-3-3-2-1-2 3z"/><path fill="#016848" d="M255 301v6l-4 2-1 3h-2l-1 1 3-4 3-3v-4l1-1zm6 13 1-1h-1l-3-1-2-2-1 1 2 2 2 1z"/><path fill="#cd202a" d="M257 301h2v5l-1 3-4 3-2 2v-1l-1-1 3-2 3-4z"/><path fill="#cd202a" d="M266 312h-3l-1-2-3-1-2-2 1-1 2 2 4 2z"/><path fill="#30c2dc" d="m276 293-3-2 7-3v-1h-2l-7 1h-3l-24-1h-1q-5-3-5-5h-1v3l-12-5v2l6 4-2 1v2c1 0 10 0 10 3l-2 2 1 1 7 1 4 3h15l7-4 5-1z"/><circle cx="228" cy="289" r="2" fill="#fff" stroke="#0872a7"/><circle cx="237" cy="281" r="2" fill="#fff" stroke="#0872a7"/><circle cx="277" cy="293" r="2" fill="#fff" stroke="#0872a7"/><path fill="#f8c83c" d="M220 278q1 4 3 4l3-1-1-2q-3-2-5-1"/><path fill="#fff" d="m225 280-2-1h-2l3 1-1 1z"/><path fill="#f8c83c" d="m238 295-2 2-3-1 2-3z"/><path fill="#fff" d="M236 295v-1l-1-1q-2 0-2 2h1z"/><path fill="#f8c83c" d="M279 289q2 1 4-1 3-2 1-2l-2-1-3 2z"/><path fill="#fff" d="m280 288 1-2 2 1-1 1-1-1z"/><path fill="#f9aa51" d="M258 285h-6l3 8 3 4 1 1h3v-2l-1-7z"/><path fill="#f9aa51" d="M249 286v-1h3l2 4 2 5 3 4h-3l-2-1-4-7z"/><path fill="#f9aa51" d="M247 285h2l3 4 1 5 3 4h-5l-3-1-1-1h-2v-11zm18 1-3-1h-5v2l2 7 3 4 3-1 2-1v-10z"/><path fill="#f9aa51" d="M246 286v-1q1-2-1-2l-2 2 1 2-1 3 1 2-1 3q0 2 2 1l2-1-1-1h-1m20-8-1-1 2-1 2 2-1 2 1 2-1 2 1 3-1 2-3-2 2-1 1 1"/><path fill="#953220" d="m248 295 1 1 7 1h7l2-2v2l-1 1h-16v-2zm16-9-1 2v2h-5l-1-2z"/><path fill="#231f20" d="m277 285-1-1v-2l1 1zm9-2h1zl-1-1zm2 0-1 1-1-1zm4-3h-1zm-6-9-1 1v1-1zm-4 3h-1v2z"/><path fill="#8cbebf" d="m274 279-2 2s5 3 9 3q8-1 9-4v-4l-5-3-4 3-4 3z"/><path fill="#0c8489" d="m274 280 7-1 4-5 2-1 1 1 2 2v4l-2 1-3 2-3 1h-3l-5-2-1-1z"/><path fill="#04534e" d="M282 276h1l1 1-1 1zm2 2 1-1 1 1-1 1zm-1 3q1 0 0 0l-1 1zm-3-1 1 1-1 1zm-5 1a1 1 0 1 1 2 0 1 1 0 0 1-2 0"/><path fill="#8cbebf" d="m284 281 1 1zm-3-1v2zm1-4v1zm-6 4 1-1 2 1-2 2z"/><path fill="#231f20" d="M278 280h-1v1zm5 0h-1l-1 1 1-1zm0-4v1-2zm3 2v1zm0 3-1 1h-1 1z"/><path fill="#04534e" d="m290 278-1 2q-2 3-8 4l-8-3h-1l1 1 3 1 3 1h4l3-1 3-2 1-1z"/><path fill="#231f20" d="m220 258 1 1-1 1zm6 6v-1zm-13 0v1h1zm2 5 1 1 1-1zm4 4 2-1v-1l-1 1z"/><path fill="#8cbebf" d="M226 270s1-5-3-9q-6-3-8-1-3 2 2 9 7 5 9 3z"/><path fill="#0c8489" d="m214 265 1-4a6 6 0 0 1 8 3q3 6 1 8h-2l-3-2-3-2z"/><path fill="#04534e" d="m226 270-3 1c-1 0-7-2-9-8v3l2 2 2 2 2 1h1l2 1h1z"/><path fill="#04534e" d="M222 269h1zm0-3 1-1 1 1zm-3 3 1-1 1 1zm0-4 1 1-1 1zm-3 1 1-1 1 1-1 1zm1-3 1 1zm3-1 1 1-1 1z"/><path fill="#8cbebf" d="M217 263v1zm-1 3 1-1 1 1zm4-4v1h-1zm-1 4h1l-1-1zm4-1 1-1zm-4 4 1-1 1 1zm3 0 1 1z"/><path fill="#231f20" d="m223 264-1 1zm-3-3-1 1zm-3 0 1 1v1l-1-1zm-1 1h1v1zm3 3v1zm4 2v1zm-4 1v1z"/><path fill="#04534e" d="m218 259-3 2-1 4v-4l1-1 1-1zm8 10-1-3-2-4 1 1 1 2 1 1z"/><path fill="#231f20" d="m225 276 1-1h1l-1 1zm6 3 1-1v-1zm-1-1 1-1 1-1v1z"/><path fill="#8cbebf" d="M241 273s-4-6-10-6q-7 2-6 5 0 4 8 5c7 1 8-3 8-3z"/><path fill="#0c8489" d="m237 269 2 2v2l-7-4q-4 0-6 2l1 4 8 2h3l2-1v-1l1-2-2-2z"/><path fill="#04534e" d="M231 270h-1zm-3 1q1 0 0 0l-1 1zm4 2 1 1-2 1z"/><path fill="#8cbebf" d="M229 274h1v1z"/><path fill="#04534e" d="m234 276 1-1v1q0 1 0 0zm2-2 1-1 1 1z"/><path fill="#8cbebf" d="M231 270h-1v-1zm-2 1v-1zm1 3-1-1zm3-1v-2zm5 1h-2zm-3 1-1 1v-1z"/><path fill="#231f20" d="M236 274v1zm-3 2v1zm-2-4 1 1h1-1zm0 1h2zm-3 0 1 1q2 0 0 0zm0 2 1-1zm-1-4h2zm2-3 2 1v1l-1-1z"/><path fill="#04534e" d="M240 275s-2 2-6 2q-7-1-9-4v1l1 1 3 1 3 1h6zm1-2-2-2-5-3 3 1 2 2z"/><path fill="#231f20" d="m241 269 1 1h1l-1 1-1-1zm3-2 1 1 1 1h-1z"/><path fill="#231f20" d="m245 267 1 1v1l-1-1zm6 1v2-1zm1 1-1 1v-2m-10 12h1l1-1h-1zm6 1v-1zm4 1 1-1v-1 1zm2 1 1-2q0-1 0 0h-1z"/><path fill="#8cbebf" d="M240 275q1-4 6-6l6 2q2 0 3 2h3l4-1-3 5-1 1-4 3h-10q-3-1-4-6"/><path fill="#04534e" d="m240 275 1-1 2-3 3-2 6 2 2 1 3 1h1l4-1-3 5-1 1-4 3h-3l-6-1-3-1zl1 4 3 2 7 1 3-1 4-3 1-1 4-5h-9l-2-2-3-1h-6l-2 3z"/><path fill="#0c8489" d="M259 276s-9-5-12-5q-5 0-5 4l1 4 6 2h3l3-1 2-1 1-1 1-1z"/><path fill="#04534e" d="m245 275-1-1 1-1zm1-3 1-1 1 1-1 1zm5 2 1-1 1 1zm1 3 1-1 1 1v1zm-2 2 1 1zm-5-1a1 1 0 1 1 0 2z"/><path fill="#8cbebf" d="m245 274-1 1-1-1zm3-2-1-1 1-1zm5 1-1-1z"/><path fill="#04534e" d="m250 275-1 1-1-1z"/><path fill="#8cbebf" d="m246 278-1-1zm4-3-1 1-1-1zm4 1-1 1-1-1zm-3 3q1 0 0 0h-1l1-1z"/><path fill="#231f20" d="M252 276h1v1zm-1-4v1zm-3 2v1l-1-1zm-1 1h2v1q0 1 0 0zm-2-4h2v1h-1zm-3 2 2 1v1l-1-1z"/><path fill="#231f20" d="M242 274h2v1zm7 5 1-1 1 1zm-5-1h2-1z"/><path fill="#04534e" d="m258 277-3 3-6 1-6-2-3-3v1l2 2 2 1 3 1h7l1-1h1l1-1zm-2-4-3-1q-1-2-7-2l-5 2 2-2 1-1h3l2 1h3l1 1 2 1zm4 1h-3l-1-1h5z"/><path fill="#0c8489" d="M257 288v1h5l1-1v-3l1-1 3-1 2-1h1l2-1 2-1h1v-4l-2-2-3-1h-2l-2 1-5 1-3 3-1 5z"/><path fill="#8cbebf" d="m258 287 1-3 2-3h1l1-1 1-2 2-1h1v1l1-1v-1h2l1 1q-1 0 0 0v1h2v-1q-1 0 0 0l1 1v-2l-1-2-3-1h-3l-3 2-3 2-1 2-1-2-1 3-1 5z"/><path fill="#8cbebf" d="M261 284h-1v1h2zm5-4h-1zh1zm4 1-1-1-1 1zm-12 0 1 1 1-1z"/><path fill="#04534e" d="M262 284v1h-2 1zm10-6v-1l-1-1zm-9 2-1 1h-1 1zm2 0h2v-1l-1 1zm3-4v1l-1 1 1-1z"/><path fill="#04534e" d="m257 289 5-1 2-4 6-2q2 0 5-4l-3-3q-2-2-3-1l-3 1-1 2h-4v2l-1-1 1-2 3-2 4-2h3l3 1 1 2v3l-5 4-6 2-1 5z"/><path fill="#231f20" d="M259 281v-2zm3-1 1-1zm-1 4v-2zm2-1-1 1h-1q-1 0 0 0zm3-5v2-1zm2 2-1-1-1 1q-1 0 0 0zm-1-4v-1zm5 0v1l1-1zm-1 4h-1v-1h2"/><ellipse cx="273" cy="229" fill="url(#mx-b)" rx="2" ry="3" transform="rotate(9)"/><path fill="#fcca3e" d="m236 262-1 3h1zm1-2-1 1 1 1 1-1zm59 9-4 3h2zm1-2-1 1v1h2a1 1 0 0 0-1-2m-87-17 2 4 1-1zm0-1-1 1h2v-1z"/><path fill="#aa8c30" d="M237 260s1 0 0 0l-1 1 1 1h-1v-2zm0 3-1 1 1-2h1zm61 5h-2v1q1 1 0 0v-2h1zm-2 2h-1l-1 1 2-2zm-86-21s0-1 0 0v1h1l-1 1v-1zm1 2v1z"/><ellipse cx="327" cy="-73" fill="url(#mx-c)" rx="4" ry="3" transform="rotate(63)"/><path fill="#e92736" d="M210 257h1l1-1-1-2h-1l-1 1q0 1 0 0z"/><path fill="#e92736" d="M211 255h1v-3l-2 1v1zm4-1v-2h-2 1l-1 1v1zm18 10 1 1h1v-2h-2zm2 0h2v-2h-1zm3 2 1-1-1-1h-1v2zm53 4v1l1 1 1-1v-1zm2 1v1l1 1v-1h1l1-1z"/><path fill="#e92736" d="M293 274h1v-1l1 1v-2h-2z"/><path fill="#f7e204" d="M211 255v1h-1zm1-1v-1zm2-1h1zm21 11-1 1-1-1zm0 0 1-1h-1zm3 0v1l1-1zm55 7v1h1zm1 2"/><ellipse cx="398" cy="-31" fill="url(#mx-d)" rx="2" ry="4" transform="rotate(48)"/><path fill="#a8ac71" d="M229 223h-6c-2 0-1-5-1-6l-1-2 4-5h2l1-1v1l-1 2-1 2-1 2v1l3-1 2-1-2 2-3 1q-1 1 2 2l3-1zm-12 13 1 3-1 6q-1 3 4 7l1 2c1 1 1 7 5 7s5-3 5-3l-2-2h-2l-2-2-1-4q-4-3-5-6l2-6c0-3-5-4-5-4l-1-1-1 3z"/><path fill="#f1a720" d="M228 214v-4l-1 1 1 2z"/><path fill="#a8ac71" d="m230 249-2-7c1-6 9-9 10-12 0-2 2-3-5-8l-1 1 3 3-1 2-4 4-3 2-2 3v5s0 6 6 7"/><path fill="#78732e" d="m226 252 1 3h-3l-1 1v-2l1 1h1v-1zm-4 1v-1l-1-1h2v1zm2-4 1 1 1 1h-3zm0 10v-1h3l-1 1zm4-3-1-1q0-1 0 0l-1 1v1zm-4 3 1 1h2v-1zm4-1 2-1v-1h-2zm-2 2h4l2-1h-1l-1 1zm-2-16v-1l1 1h1zm2 3v-1l1 1z"/><path fill="#c6c7a6" d="m221 214 1 1q1 1 3-2l1-2 1-1h-2z"/><path fill="#a8ac71" d="m224 211-2 1zh3v-1h-2z"/><path fill="#78732e" d="M227 244v-2l-1 1zm-3-2v-5l1 1 1 2v1h-1zm3-1v-1zm-3-5 1-1 1-1 1 2v1l-1 1-1-1zm4 3 1-1 1-1-3 1zm-1-6h1v3l-1-1zm3 4 1-2h-2zm1-4v-3l-1 1-1 1zm2-3v-2zv1zm1 3 1-1 2-1-4-1v2zm-8-11v2h3l-1-1v-1zm6 13 1-1 1-1h-3zm5-5v-3l-2 1v1z"/><path fill="#78732e" d="m233 228 1-1v-1h2l1 1h-1l-1 1zm4-2-1-1-1-1-1 2z"/><path fill="#fff" d="M217 242h2l2 1v-1l-2-1zm1-5 1-1h2l-1-1-1 1zm3 4-1-2-2 1h2zm-4-4v-2l1-1-1 1zm0-2 1-1h-1zl-1 1h1zm6-16h1v2l-1 2h1v-1l1 2h1l1-2 1 1v-1l-1-1 1-1h1-1l-1 1-1-1-2 1 1-2zl-1 1v1zm1 2 2-1 1 1-1 2zm-6 17 2-1 2 1v-1l-2-1zm17-9 2-1v-1h-3l1-1v-2l-1 1-2-1v1h3l-1 1v1l1 1h2zl-1-1zh-2v2h-2v3l-2-1v3l-2-2-1 1 1 3v1h-1l-2-2v1l2 3v1l-2 1 1 2h-1v1l2-1h1l-1-1 1-1v-1h-1l2-2-1-1 3-1-1-2h3l-1-2h3l-1-2h4v-1zm-8 12-1 2h-1l-1-1zm1-2-2 1-2-3 2 1h1zm1-2h-2v-3l2 1zm0-2v-3l2 1v2zm5-2h-3v-3l2 1zm0-3v-2h2v1l1 1zm-6 15-1 1-1-1 1 1v2l1-2h1l-1 1v1h2-2l1-1v-1h-1zm-10-1 2 1v-1zl-2 1v1zm11 16h-2l1-1 2-2v-1l-2 2v-2l-2 1 1-2v-1l-2 1 1-3-1 3h-1l-1-1 1 1-1 1v1h2l-1 2h3l-1 1zl2-1-1-1zm-5-4h1v2zm1 3 1-1v-1l2-1-1 2zm-2-8 3 1v-1zl2-2h-1zl-2 1zl-1 2zm-2-5h-3l-1 2v1l2-2zm2 2h-1l-1 2v1l1-2zm-3 0 2-1-1-1zl-1 2h1zm4-36 2-1v2l-1 1-1 3v1h1-1v-1l1-2 1-2v-2h-1zl-2 1z"/><path fill="#78732e" d="M228 220h-2l1 1zm-2 0h-1v2zm-1 4-1-3-1 2h2zm6 35-3 2-3-1-1-2-1-3-1-3-3-2-2-5 1-4v-3l-1-1-1-1 1 1 1 1-1 3-1 4 3 5 3 2 1 4v2l2 2 3 1z"/><path fill="#78732e" d="m230 255-1 1-2-1-1-2v-3l-3-2-3-3v-1l1-2 1-3v-1l-3-4-2-1v1l3 1 2 3v1l-1 3-1 2v1l3 3 2 3 1 2 1 2 2 1z"/><path fill="#a8ac71" d="m237 249 1 2v2l-2-1 1-1z"/><path fill="#f8c83c" d="m213 236-2-1v-2h1l1-2 1 1z"/><path fill="#f8c83c" d="M215 236h-2v-1l-1-1 1-1 2-1v1z"/><path fill="#f8c83c" d="m217 236-2 1v-2l-1-1 1-1 1-1 1 1-1 2z"/><path fill="#af7029" d="m235 249-2-2-2-2-1-1-2-2v-2l1-2v-1s-3 2-1 9q1 4 2 3z"/><path fill="#816c2a" d="M233 225q-2 4-6 6l-3 3-1 6q0 6 3 7l4 1h6v2h-1v1l1-1v-2h-6l-4-1q-3-1-3-7v-1l1-5 5-4 4-4z"/><path fill="#fff" d="m238 250-1 2h1v1l-2-1v-1z"/><path fill="#fcca3d" d="m242 251-3 1-1-1v-1l-1-1h-2l-4-4h1l3-1h3l1 1h1v1l1 1v1l1 2z"/><path fill="#af7029" d="M242 251h-4v4l2 1 1-1 1-2z"/><path fill="#fcca3d" d="M241 250v1h1zm-2-24v-2l-1-1-1-1v-1l-1-1h-2l-2 2 5 4 2 2v-1z"/><path fill="#af7029" d="m237 228-1 3 2-2 1-1-2-2z"/><path fill="#816c2a" d="m240 254-1-1-1-1v1h1z"/><path fill="#6f5b24" d="m242 252-1 2-2 1 2 1 1-1z"/><path fill="#404118" d="m242 254 1-2z"/><path fill="none" d="M229 223h-6c-2 0-1-5-1-6l-1-2 4-5h2l1-1v1l-1 2-1 2-1 2v1l3-1 2-1-2 2-3 1q-1 1 2 2l3-1z"/><path fill="#ab6d29" d="M255 201s-6-1-6 3q0 2 2 2l6 3 2 4-1 2 1 6 2 5 3-3 3-6-3-13z"/><path fill="#4d2a15" d="m261 224 2-2-2-3 2 1 1 1v-3l-1-2h-2 3l-1-3-1-1h-2 3v-2l-2-2h-2 3-1l-3-2h-3l1-1h1l-2-1h-2l-3 1 1-1h1v-2h3l7 4 3 2 2 5-1 9-4 4h-2z"/><path fill="#d2a567" d="M255 203v-2h-4l-1 4 2-1zq1-1-1-1h-1l2-1z"/><path fill="#8f4620" d="M261 225h-1l1 6 6 10 3-1 1-1 3 3h2l4 6v-2l-1-3-1-2h-1 3l2 2v1l1 1v2l1 1 1 2v-2l-2-5-1-2 2 1 2 2v2l1 1v1l1 2v-2l-1-3v-4l1 1 1 2v3l1 3 1 3 1 2 1 1v-1l-2-13 1-1v1l1 1v2l1 2v5l1 3 1 2 1-2-1-14 1 1 1 1v3l1 8v3l3-23h1v-1l-1-1-2-4-2-4-3-5-5-7-5-3-1-1v-1l1-1h-3l-1-1-4-2-4-2-2-1-5-1-5-1h-3l-2 1-1 1-1 2 3 2 5 3 1 2h1v1l1 9-2 5z"/><path fill="#ab6d29" d="M267 239h2q2-3 0-5l1 1 1 3-2 3h-2z"/><path fill="#4d2a15" d="m300 259-1-3v-3l-1-8v-2l-1-2h-1l1-1v1-4l-3-7v1h1l1 2 3 1h2l1 2 1 6-1 6-1 9z"/><path fill="#8f4620" d="m300 249 1-2v-11l-4-2 1 3 1 1v2l1 4z"/><path fill="#4d2a15" d="m295 254 1-7-1-4-2-5-2-5-1-1-1 1h-1v-4l2 1 3 2 2 7 1 5v13zm2-19 2 1 1 1-2-1z"/><path fill="#4d2a15" d="m291 253 1-3-2-7-3-4-1-4-2-2v-3l3 2h1l2 7 1 2 1 3v6l1 6zm-3-3-1-4-1-4-4-4-3-4v-3l2 2 2 1 1 3 1 2 1 2 1 1 1 3v2zm-3 0 1-1-1-3-1-2-4-3-3-3-1-1v-3l1 2h2l2 4 1 1 2 2 1 2v2l1 2zm-4-1-2-2v-3l-3-3-3-3 1-1v1l4 3 1 2 1 3v1zm13-19s2 3 3 1l-1-4-3-5-5-6-3-1 1 1 5 7 2 7zm-15-18 8 9q5 6 4 8l-3-2-5-7-4-4-2-3zm-2 10 4 4 3 4 1 1v-2h1l-9-10zm-1 0 3 3 3 4 1 2-5-2 1 2-1-1-2-2-1-2-1-3z"/><path fill="#4d2a15" d="M264 232s2 2 3 0v-4s3 5 4 0l-2-3 1-1 2 3 1-3-1-4 1 2s3 0 3-2l-3-4c-1-1 3 1 3-1l-3-2q-1-2 2-1 1 1 3-1v-1l-2-1-2-1-2-1h-3l1 2 1 4v7l-1 4h-1v1l-1 2-1 1-2 2z"/><path fill="#ab6d29" d="m279 241-2-3-3-1 4 4zm5 0-3-3-2-3h-1l1 3 2 2zm3 0-1-4-3-4v3l1 2 2 3zm3-1v-6l-2-2v4l1 3zm3-8 2 2 2 7h-1l-3-5z"/><path fill="#d2a567" d="m272 238 2-1-2-3h2l-1-4 2 3v3q-2 3-3 2m4-4h3l-3-2v-1h2l-2-3h1l2 2 1 4q-3 2-4 0m11-4v-2h1l-2-1h-1l1 2z"/><path fill="#d2a567" d="M280 232h3l-3-3v-1h2v2l2 1v-2l1 1 3 1v-1 2h-2l-1-1v2h-3zm8-3 4 2v-7s3 7 1 8h-1l-2-1zm11 10h1l1 1zm-5-15h1l1-1h-2v-1h-1zm4 12h1l1 1zm-7-19h1v2h-1l-1-2zm-6-5h2l1 1v3l-3-2zm-2-1 2-1-1-2-3 2zm-5-2 3-2h2l-1 1-3 2zm-1-4-2-1 2 3v2h1v-2h-1v-1zm-4-1-5-3zl1 3h1v-1l-1-1zm-5-2-8-3q-4 0-4 2 1 3 4 2l4 1 3 1-2-2-2-1 2-1 4 3v2h1v-1zm-8 23q3 0 5-6l-2-10 1 1 2 8-2 6zm5 9 3-3-2-3v-1h2v2l1 1 2-3-2-3v-1l1 1 1 1h1l1-2-1-2h2l2-2-1-1v-1l1 1 1 1-1 1-1 2h-1v3l-1 1h-1v2l-1 2-2 1-1 1v1l-2 1-2 1zm10-17s3 1 3-1l-4-4v-1l2 1h2l1-2h1v2l-1 4-1 2zm3 24-1-2-2-1 2 3zm4 0-2-3-2-2 1 3zm4 0-1-3-2-4v1l1 3zm4-2-1-4-1-2v2zm6 2-1-4-2-4v3l2 4zm6-7-3-2-5-1h1l1 1 2 1 3 1z"/><path fill="#202020" d="m279 235 1 3 3 4 2 4 1 4v2l-1-2v-1l-2-7-5-5-1-2z"/><path fill="#202020" d="m284 248-1-4-4-3-2-1-3-3v1l4 4 2 4v2l1 1h1l-2-3-2-5h1l3 3zl1 4zm-4-16 2 1h1l2 6 2 2 1 7 1 6-1-3-2-5-2-4q-1 0 0 0l2 4 2 4v-1l-1-3-1-4-2-3-2-4v-1l-1-1zm5-1 1 1h2l1 6 3 3v6l1 6v9l-1-6-2-6-1-7-2-2 2 2 1 7 2 6v-8l-1-7q-2 0-2-3l-2-5-1-1z"/><path fill="#202020" d="m288 229 3 2 2 1 1 6 2 3 1 11-1 12-1-9-1-2-1-9-1-3 1 3 2 9 1 3v-13l-3-7-1-3-2-2z"/><path fill="#202020" d="m294 230 3 3 5 1 1 8-1 8-1 13-1 1v3l-1-2v-10l-1-12-2-2 2 2 1 12v-2l1-7-2-9 1 2h1v1-1h-1l1 6v14l1-9 2-8-2-8-5-1zm-29 5h2l2-3v-1h1l2-2v-2h1l2-2-1-2h1l2-2q1-2-2-3h2l1-2-2-3h3v-3h2l3-2-2 2 2 2h3l-2 1 4 4h2-1l3 4v1h1-1l3 5-6-8-3-3 3 5 3 5s-3-6-8-10q-5-6-5-4v3l6 6 6 9-7-8-6-6v2l-2 1 4 3 2 1 1 1-1-1h-1l3 4h1l2 1-2-1-1 1 2 3-6-7-4-2-1 1h-1l4 5 4 3-4-3-3-3v2l3 4-4-5-1 1-1 1 5 6-4-4 1 4-3-4v1l-2 1 4 5-4-4q-1 0 0 0l1 3-2-2-1 1h-1l1 2 1 2-1-2-2-1z"/><path fill="#202020" d="m302 234 1-1-2-1-7-14-10-10c-1 0 6 3 10 10q7 10 7 13l3 2zm-39-2 2-2-1-1-1-1 1 1h2l2-2-1-1-1-2 1 2h2l1-3-1-1-1-1 1 1 2-1v-4h-2l-1-1 1 1 2-1v-2l-1-2h-2l-2-1 2 1 1-2v-2l-1-1-1 1-2-1h2l1-1-2-2-3-2 3 2 2 2h2v-2l-2-2 2 2v2l4 1-1-2-1-1 2 1v3l1 1h2l1-2-1-2 1 2v2l1 1h-2l-6-3 3 3 2 2-2-1-4-2 1 1v1l3 4-1 1-2-2 1 2v1l2 2-1 2 1 1-1-1-2-1v2l1 2v2l-2-2-1 1-1 2 2 1-1 2-2-2-2 2 1 2z"/><path fill="#202020" d="m284 208 1-1h-2l-4-2s-7-5-19-6q-5 0-5 2l4-2a40 40 0 0 1 20 6l4 2h2zm-20 2-2-3-7-3 7 3z"/><path fill="#d2a567" d="m264 218-1-1-2-1h2zm-1-4-1-1-2-1h2zm0-4-2-1-2-1 2 1 1 1m-1-2-3-1-3-1h4zm-4-3h-7l5-1z"/><path fill="#f8c83c" d="m244 255 2 1 2 2-1 2h-4l-1-2zm0-2-2-2v3z"/><path fill="#f8c83c" d="M243 257h2m-3-1 2-2-1-1-1 2zm-1 1 1 1 2-1-2-1z"/><path fill="#f8c83c" d="m243 256-2 1-1-1 1-1h2z"/><path fill="#f8c83c" d="m241 257-2 2v-4l1 1z"/><path fill="#f8c83c" d="m238 255 3 1-2 1z"/><path fill="#202220" d="m231 259 2 1 2-1-3-1z"/><path fill="#4b4139" d="m231 259 2 1 2-1-3-1zl1-1 3 1-2 1z"/><path fill="#202220" d="m232 258 2 1 3-1-3-2z"/><path fill="#4b4139" d="m232 258 2 1 3-1-3-2zl2-2 3 2h-1l-2 1zm0 1h3z"/><path fill="#202220" d="m234 257 2 2 1-1-1-3z"/><path fill="#4b4139" d="M234 257v1l2 1 1-1-1-3zl2-1 1 2-1 1-1-1z"/><path fill="#4b4139" d="m234 258 2 1 1-1-1 1h-1zm-3 1 2 1 1-1v1h-2z"/><path fill="#f8c83c" d="m238 255 2 2-1 2-3-2v-1zm-7 0-1-1v2zm0 1-1 1v1l2-1zm1 1-2 1 1 1 1-1zm0-4-1 1 1 2 2-1z"/><path fill="#f8c83c" d="m232 254-1 2 1 1 2-1z"/><path fill="#f8c83c" d="m234 257-2 2-1-2 2-1zm2-6-2-1-2 3v2l3-2z"/><path fill="#f8c83c" d="m233 256-1-2 2-1 1 2zm3 0-1 1h-2l1-1 1-1z"/><path fill="#f8c83c" d="m235 254-1 1 2 1h1l1-2-1-1z"/><path fill="#202220" d="M237 250h-2l-1 2v2l2-1 1-1h-1z"/><path fill="#4b4139" d="m237 250-1 1-2 1v1-1l2-2z"/><path fill="#f8c83c" d="m263 270 1-1 2-1v2l-1 1zm-2 0h2l1 1h-1l-1 1-1-1zm10-1-2-1v4h2z"/><path fill="#f8c83c" d="m261 270-2 2 1 2h2l5-3-1 1h-4z"/><path fill="#f8c83c" d="m264 271-1 1h-1v1l2 1 1-1v-2zm8-1-1-1-1 1v1l1 1h1l1-1z"/><path fill="#f8c83c" d="M266 270h-1l-1 1 1 1h1l2-1v-1zm8 1-1-1-1 1v1l1 1h1l1-1z"/><path fill="#f8c83c" d="M270 273h2l1 2h2l2-2h-1v-2h-2l-1 2-1-1-1-1-1-1h-1v-1l-2 1-1 2h-1l-1 1-2-1-1 1-1 1 1 2h2l1-1 1-1 2-1"/><path fill="#f8c83c" d="M269 265v5h-3v-2zm-2 7v1h1v-1l1 1q2 0 1-1"/><path fill="#202220" d="M257 275v-2h2v-1l-1-1-2 2zm4 4v-2l1-1v-1l-2-1-1 3zm15-2s2 1 3-1l-2-3-1 1-1 1 2 1z"/><path fill="#4b4139" d="M261 279s-2-1-2-3l1-2-1 2zm-4-4-1-3 2-1-2 1zm19 2 1-1v-2l-1-1 1 1v2z"/><path fill="#904720" d="M242 218v-1l1-1h3l1 1 1 2-3 1v1l-1-1v-1z"/><path fill="#202020" d="m270 260-1-4-12 4 5 4z"/><path fill="#d2a567" d="m248 253-1-1-2-1h-1l1 1 1 1 1 1 1 1zm-1 2h1v1l1 1v1h-2l-3-2 1-1z"/><path fill="#d2a567" d="M250 258v-6l-3-3-1 2 1 4 1 2z"/><path fill="#ab6d29" d="M248 249v2l1 6-1-2-1-6c0-3 1 0 1 0m2 3-1 1v2l1-1v2zm0 7h-3l-3-2h4l1 1h1l2-1v2zm-6 0h-2l3 1 1-1z"/><path fill="#d2a567" d="M243 258h4v1h1l-1 1-2-1z"/><path fill="#ab6d29" d="m251 256 1 1v-4l-1-1z"/><path fill="#4d2a15" d="m248 253-1-2-2-2 1-2 1 2v2z"/><path fill="#d2a567" d="m241 259 1-1h2l2 2h1-4z"/><path fill="#8f4620" d="M251 252v3l1 2-1 1h-2l1-1v-3h-1l1-3z"/><path fill="#ab6d29" d="m244 258 3 1h3v1l-2 1h-1v-2z"/><path fill="#8f4620" d="m248 253-4-4v-5l2 4v1z"/><path fill="#ab6d29" d="M246 263v-2l6-3v2z"/><path fill="#8f4620" d="m246 261 2-1-2-1-2-1 2 2zm7 0-1-1v-2l-1 1h-1l1 1h-2 1l-1 1-3 2h1l3-1z"/><path fill="#ab6d29" d="m253 261-1-4-1-4 2 1 1 2z"/><path fill="#8f4620" d="m254 255-1 4v2l2 2v-5z"/><path fill="#202020" d="m256 258-1 5-2-2 2 2zm-3 3-3 1-4 1 4-1z"/><path fill="#ab6d29" d="m248 255 1 1 1 2-1-2-2-2z"/><path fill="#8f4620" d="M246 261h-2l-3-1 2 1z"/><path fill="#202020" d="m246 261-3-1-2-1 2 1z"/><path fill="#ab6d29" d="M247 255h-2l-1 2h1v-2z"/><path fill="#8f4620" d="m244 251 2 2 1 1 1 1-3-2z"/><path fill="#8f4620" d="m247 252-1-1h-2l1 2h1l-1-1z"/><path fill="#202020" d="m253 249 14-7 6 9-12 3-6 1-3-3z"/><path fill="#4d2a15" d="m271 253 17 14-2 2-4-1-8-9-3-3z"/><path fill="#4d2a15" d="m293 264-10-7-12-9v4l14 13 5 2h2l1-2z"/><path fill="#803f1d" d="m271 254 9 8 8 6v-1l-17-14z"/><path fill="#4d2a15" d="m283 268-2 1h-2l-10-11 1-2h1z"/><path fill="#202020" d="M293 264s-1 3-4 3c-3-1-18-15-18-15v1s15 14 18 15q5-1 5-3z"/><path fill="#803f1d" d="m270 256 7 9 6 4-1-2-7-7-4-4z"/><path fill="#202020" d="m271 256 13 13 5-1-1-1-4 1z"/><path fill="#4d2a15" d="m275 268-4-5-1-2v-2l8 9-1 1h-1z"/><path fill="#202020" d="m283 268-2 2-2-2-9-8v-1l11 10z"/><path fill="#202020" d="m279 268-2 1h-2l-5-7v-1l7 8z"/><path fill="#b07229" d="m273 252 6 4 2 1h-1l3 3h2-1l2 3h3-2l4 3c-1 1-5-3-5-2v1l-1-2-2-2-1 1v-2l-3-2v1l-1-2z"/><path fill="#4d2a15" d="M264 266v2l-3-3v-4l2 2zm7-1v-4l-1-2h-1l-1 1v3l1 2 1 1z"/><path fill="#4d2a15" d="M269 268v-2l-1-4-1-2h-1l-1 1v1l2 4z"/><path fill="#202020" d="m268 260 1 2 1 3-1 1 2 1v-2h-1v-6l1 4v-2l-1-2 1-1v-1l1-1v-5l-6 7z"/><path fill="#202020" d="m268 259 1 4 1 3v2l-2-5-1-3h-1z"/><path fill="#4d2a15" d="M268 270v-1l-1-2-2-4-2-2-1-2v4l3 4z"/><path fill="#202020" d="M260 261v2l1 3 2 2 1-1-1 1-2-5zm5 4-1-2-1-2-1-1 2 1 1 1 1 1z"/><path fill="#5c3a1d" d="m262 263 1 2 2 2-2-2z"/><path fill="#202020" d="M266 261h1zl-1-1v1zm-1 1 2 4 1 3-1-2z"/><path fill="#4d2a15" d="m267 260 1-5-1-2-2-5-1 1-2-2v4z"/><path fill="#8b441f" d="M259 263h1v-2l-7-8z"/><path fill="#8b441f" d="m263 260-1 3-8-9-3-3 4 1z"/><path fill="#202020" d="m259 263-1-2v-2l-5-6-1-1v2l3 4z"/><path fill="#4d2a15" d="M265 262v-3l-3-8-1 1-2-2-1-1v4l3 4zm4-5-1-3-2-8h-1l-1-1 1 5 2 6z"/><path fill="#202020" d="m262 259-3-3-1-3h-2l-1-1 2 4z"/><path fill="#8b441f" d="M268 260v-7l-3-5 2 6v3l-1-3-1-2 2 7-5-8s3 10 5 9"/><path fill="#4d2a15" d="m270 241 1 3 1 4v3l-1 6-1-1-1-6-2-7 1-1v-1z"/><path fill="#8b441f" d="M265 262v-2h-1l-1-2v-2l-1 2-4-5s4 9 7 9"/><path fill="#202020" d="m263 258 1-3-2-4h-1l-2-1zm3-2-2-5-2-4v3l2 2zm3-5-1-4v-5l1 2v-3h-1v1h-1v3l1 3zm3 0-1-7-1-3h-1l2 4zm-4 2-1-5-1-3-1-1v4l1 2z"/><path fill="#904720" d="M270 258v-6l-3-7 2 9-1-2 1 5-1-1v1z"/><path fill="#904720" d="m271 256-1-7-1-6 1 6zl-1-1v-1z"/><path fill="#312317" d="m263 261-1 2-2-2 2 2v-3z"/><path fill="#d2a567" d="M267 240h2l2-3-1-2 1 2q0 4-2 4h-1z"/><path fill="#8f4620" d="m266 236 1 4 1 2h-1z"/><path fill="#1e2121" d="m243 238 9 13 10-12-6-7z"/><path fill="#4d2a15" d="M254 231v2l1 3 1 2 2 1 1-1v-2h2l1-1 1-2v-2l-2-4-1 2h-1l-1-1-1 2-2-1z"/><path fill="#5c3818" d="m258 239 1-1v-5l-1-3 1 5zq-1 0 0 0m1-5 2 2v-5l-1-2v-1l1 3v5z"/><path fill="#8f4620" d="m254 236 1-1h1l1 2 1 1v2h-1l-2-1v-1z"/><path fill="#d2a567" d="m258 253-3-1-6-5v-3h1l3-1 1-1 4-2 2-1h4l1-2 2 3v5l-2-1v5l-3-2v4l-4-2z"/><path fill="#8f4620" d="m257 248 1 1-1 3-1-3-2-3zm8-11 1 7-3-2-3-5-1-1h2zm-11 13-1-1-2-3-2-2-1-1h1v-1l5 4zm7 0-4-4-3-4-1-1h1zm1-3-2-2-1-2zm1 0-3-4-1-2-1-1h-1 1l1-1v-1l4 7z"/><path fill="#ab6d29" d="M255 252h-1q-3 0-8-6l-3-4 1-1 8 9z"/><path fill="#8f4620" d="M255 252h-1q-1 1-6-4l-4-6v-1l1-1 5 8z"/><path fill="#4d2a15" d="m260 249-3-3-3-5h1v-2l2 1 2 2v1l1 3-2-1zm-3 0v1h-1l-2-3v2l-3-3-2-2v-4l1 1 3 3 2 3zm-11-5 4 6 5 3-7-8zm17 2-3-3-1-4v-2l3 3 1 3-2-1zm3-2-2-2-1-3-1-2v-3h1l2 2 1 3zm-18 6-4-5v-2l4 6 4 3v3z"/><path fill="#202020" d="m251 253-5-5-3-6 1-1 3 6zm4-1-5-5-2-3h1l2 3zm-1-6-2-3-2-3 3 3h1zm1-8v2l-1 1 2 2 1 1-1-2-1-2 2 1 2 2-1-3z"/><path fill="#202020" d="m262 242-2-3-1-4v2l-1 3h-1q-1-1 0 0h1l1-2 1 2z"/><path fill="#202020" d="m259 235 2 1 1-3h1v-1l3 4 1 4-2-4-2-3v2l1 3 1 3-1-2-2-1-1-2h-2z"/><path fill="#171717" d="m253 243 2 2 2 3-2-3z"/><path fill="#8f4620" d="m264 243 1 2 1 1v-3z"/><path fill="#d2a567" d="M245 232h-1l-1 2v5l2 2q1 3 3 3l1-2v-3l2 2 2 2 2-3-4-8-1-1z"/><path fill="#ab6d29" d="m252 238 1 3v2l2-3-1-5v-4l-1-1-1 3zm-6-2 1 4 1 3 1-4v-4l-1-4z"/><path fill="#45392d" d="m242 230-2 6 1 3v5l1-1z"/><path fill="#ab6d29" d="m242 231-2 5 1 3 1 5 1-1 2-2-1-2-1-1v-7z"/><path fill="#dbad6c" d="M254 236h-2v-2z"/><path fill="#d2a567" d="m242 231-1 6 2 5v-11z"/><path fill="#8f4620" d="M246 232v1l-1 2-1 2 1-2h1v2l-1 1v2l1-2 1 2v-2l1-2q2 0 0 0v-4h1l-1-2z"/><path fill="#dbad6c" d="m254 239-2-1v-1l1 1z"/><path fill="#8f4620" d="m244 239-1 1v1l-1-2v-5h-1v1-1l2-2v-1h1l1 1-1 1-1 2zm7-7v2l-1 1v2-1l1-1v2l1 2v-1h2l-1-1-1-1v-1h1l1 1-1-1v-2l1-2v-1z"/><path fill="#1e2121" d="M260 229v3l1 3-1-3-1-3-1 1 1 3-1-1-1-2v1l1 3-1-1-1-1 1 2 1 1-1-1h-1l1 2 1 3-2-3v-6l1-1 1-4 1 3zm-7-1v1l1 1-2 2-2 1-1-1 2-2zm-9 3 1 2 3-3v-1l-3 2zm0-3v3h-2v-1l1-1zm16-2 2 3 1 2-2-2-1-1v-1z"/><path fill="#dbad6c" d="M242 230v-1h1v2h1l2-1 1-1v2l2 1 2-3 1-1h1l1-5h-3l-1-1-1 1v1h-2v-1h-1l-2 2h-1l-1 1-1 1z"/><path fill="#8f4620" d="M251 225v3l-2 3 3-3 1-5zm2-2 1 2-1 3v1l2 2 2-2 1-3v1l1 1 1 1v-1l-1-3-1-4-1-1-2 1z"/><path fill="#ab6d29" d="m257 220 1 3v3-3l-1-2z"/><path fill="#4d2a15" d="M261 226v2q-1 1-2-2l-1-4-1-2h1zm-6 4s2-1 2-5l-1-5v5l-2 3h1v-1 1zm-2-7-1 2-2 1 1-2v-1 1h-2l1-1 1-2 1 1z"/><path fill="#1e2121" d="m260 219 1 3v4l-2-2v-3l-1-1h-1l1-1zm-5 8 1-4v-3h-1l-1-2v3l-1 2h1l1-2z"/><path fill="#8f4620" d="m241 230 1-3 2-3h1l2-1v-2l1 2 1 1v2l-1 3v-3l-1 1-1 1 1-1v-1h-1 1v-2l1-1h-1l-1 1-1 1v2l-1 2h-1l1-1 1-3h-1l-1 2z"/><path fill="#874f20" d="m261 218-1 1h-2v-1z"/><path fill="#b27129" d="m245 220-1 2-1 2h1z"/><path fill="#dbad6c" d="m255 218-2 5-2-2q1 1-2 3l-2-3-1 3h-3l2-4h1l1-1 2-1 1-1 1-1 1-1 2 2z"/><path fill="#b27129" d="m249 213 2 3h1v4-3l1 5 1-4q0-1 0 0 2 3 3 2l1-2-1-3-5-3v1z"/><path fill="#8f4620" d="m256 213 1 1v5l-2-1-1-3-1-2v-2h2z"/><path fill="#4d2a15" d="m256 212 2 3 2 2v1h-2l-1-4-3-2 1-1z"/><path fill="#1e2121" d="m255 210 2 3 2 3 2 2h-1l-1-2-2-3-2-1 1 1 1 3-1-2-2-2 1 2 1 3-2-3-1-1-1-2h2z"/><path fill="#8f4620" d="m250 213 2 1h1v1l-1 1v-1z"/><path fill="#b27129" d="M251 217v3l-2 3v-3l-1 1v-3l2-1z"/><path fill="#8f4620" d="M248 218h-1l-1 1h1v1l-2 2 2-2zl1 1v2l1-2v-2l-2-1z"/><path fill="#dbad6c" d="m255 209-1 2h-2l-4-2h-2v-1h3l2 1h3z"/><path fill="#ab6d29" d="M255 209h-1l-3-1-3-1q-1 0 0 0h3l3 1z"/><path fill="#4d2a15" d="M246 208v-1z"/><path fill="#dbad6c" d="m252 212 1 2-2-1-3-2-2-1h-1 1v-1h2l3 1z"/><path fill="#dbad6c" d="m250 213 1 3-4-3-2 3-3-2 3-3h2z"/><path fill="#ab6d29" d="m249 209 3 1 2 1-2 1-1-1z"/><path fill="#4d2a15" d="m246 208 2 1h1v1l-2-1h-1z"/><path fill="#ab6d29" d="m252 213 1 1zh-2l-2-2-2-1h-1 3l2 1zm-4 1 1 2-1 2h-1v-1l-2-1 1-2 1-1z"/><path fill="#4d2a15" d="m245 210 2 1h2l2 1 1 1-1-1-3-1h-3z"/><path fill="#ab6d29" d="m251 216-2-1-1-1-2-1v-1l3 2z"/><path fill="#4d2a15" d="m251 216-4-3h1-2l-2-1v1h-1 2l1 1-1 2 2-1h1-1v-1l2 1z"/><path fill="#dbad6c" d="M247 214s2 0 2 3q-1 3-2 1-1-1 0 0l1-2z"/><path fill="#6c3f18" d="m237 208-1 2-1 3-3 3 1 1 4-5z"/><path fill="#dbad6c" d="m245 205 1 4-4 5-5 3h-4v-2l2-2 1-2 1-2v-1 1l1 1-1 2 2-1 1-1 1-1 1-3v-2l1 2v2l1-1z"/><path fill="#904720" d="M246 218v1l-2 2v-2l-1-1h-1l2-1z"/><path fill="#ab6d29" d="m245 218 1-1zl-2-1h-1q-1 0 0 0z"/><path fill="#904720" d="M237 214h2l2-1 1-1q2 0 3-4v-4c0 1 3 4 0 7l-3 3h3v2l2 1h-3l-2 1-2-1-2 1-4-1 2-2z"/><path fill="#ab6d29" d="m243 208 2-2v-1l-1 1z"/><path fill="#904720" d="M243 205v5l-5 4 4-4 1-4z"/><path fill="#1e2121" d="M239 214h2l1-2-1 1v-1zm3-4 1-4-1-2zm1 0 2-1v-2 2zm-1 8 2-1 1 1-1-1zm-2-3h3l2-1-2 2-2 1 2-2z"/><path fill="#fff" d="M237 213a2 2 68 0 1-2 3"/><path fill="#f16e16" d="M237 213a2 2 68 0 1-2 3"/><path d="M236 214a1 1 0 1 1-1 1"/><path fill="#ab6d29" d="m238 211 1-2v-3l1 1v3l1-1 1-5v3q0 3-3 4l-3 3-2 3 2-3 1-2z"/><path fill="#904720" d="M237 212v-4l1 2z"/><path fill="#4d2a15" d="m239 210 1-2-1-2 1 2z"/><path fill="#ab6d29" d="m234 217-1-1 1-2 2-2q2-2 1-4l-1 3-2 3-1 2v1z"/><path fill="#6c4119" d="M244 221v-1l-2-1h-1l1 1h1zm0 0 2-2v-1 1l1-1s-1 3-3 3"/><path fill="#bf802d" d="M236 220v1l3-1 1-1-1-1h-2z"/><path fill="#f9c83a" d="m243 219-1-1h-5l-2-1h-3l-1 1h1-1l-3 4q2 4 6 3-2 1-2-2t3-3l3-1q1-1 3 1c1 1-4 2-4 2z"/><path fill="#fcf3d8" d="M232 225s-3-1-3-3l3-4 1-1h1l1 1s-4 2-4 5z"/><path fill="#fdeaaf" d="m243 219-3-1h-4l-3-1-1 1h-1l2-1 4 1 3-1z"/><path fill="#513625" d="m236 221 2-1 2-1-2 2z"/><path fill="#f9c83a" d="m233 226-3-1q-3-2-2-3l2-3 1-1v1l-1 1-1 1v3l2 1z"/><path fill="#8b5122" d="M232 217v1h2v-1h-1z"/><path fill="#f9c83a" d="m236 219-3 1h7c1 1-3 2-3 2l3-1 1-1h1l-1-1h-3z"/><path fill="#8f4620" d="m232 224 1 1-1 1-4-4v1l1 1 1 1 1 1h2l1-1zl-1-2z"/><path fill="#fcca3d" d="M242 250v1h-1zm-4-27-1-2h-1z"/><path fill="#816c2a" d="M242 252h-2l-2-1 2 1zm0-2h-3l-1 1 2-1zm-1-2-2 1-1 1 1-1zm-1-2h-1l-1 2h-1v1l1-2 1-1zm-2-1v1l-1 2v1l1-2zm-2-1 1 1-1 2v2l1-2v-3zm-1 0v5zm-1 1v2l-1 2h1zm-1 0-1 2v2l1-2zm-2 0v2l-1 1-1 1 2-2zm0 0-1 1-1 1h-1v1l2-2zm-1-1-1 1zm-1-1h-1v1h-1 1zm0 0h-1l-1 1h1zm0-1-1 1h-1 1zm-1-3-1 1h1zm9-10h1zm0-1 1-1h-1zm0-1 1-1h1zm-1-1 2-1 1-1-1 1zm0-1 2-2zm-2-1 2-1 1-1h-1zm0-1 2-2z"/><path fill="#78732e" d="m236 220 2 2 1 4-2 4-6 5-2 3-1 2v1l1 2 3 2 5-1 3 2 1 4v5l1-5-2-4-3-2h-6l-2-1-1-3 2-3 5-5 4-6-2-4z"/><path fill="#a8ac71" d="M230 249q0-1 0 0m7 1"/></svg>