<svg xmlns="http://www.w3.org/2000/svg" viewBox="0 0 512 512"><path fill="#C00" d="M0 0h512v37H0z"/><path fill="#fff" d="M0 37h512v36H0z"/><path fill="#C00" d="M0 73h512v37H0z"/><path fill="#fff" d="M0 110h512v36H0z"/><path fill="#C00" d="M0 146h512v37H0z"/><path fill="#fff" d="M0 183h512v36H0z"/><path fill="#C00" d="M0 219h512v37H0z"/><path fill="#fff" d="M0 256h512v37H0z"/><path fill="#C00" d="M0 293h512v36H0z"/><path fill="#fff" d="M0 329h512v37H0z"/><path fill="#C00" d="M0 366h512v36H0z"/><path fill="#fff" d="M0 402h512v37H0z"/><path fill="#C00" d="M0 439h512v36H0z"/><path fill="#fff" d="M0 475h512v37H0z"/><path fill="#006" d="M0 0h256v293H0z"/><path fill="#FC0" d="m166 93 5 33 18-28-10 32 29-17-23 24 33-3-31 12 31 12-33-2 23 24-29-17 10 31-18-27-5 33-5-33-18 27 10-31-29 16 23-24-33 3 31-12-31-12 33 3-23-24 29 16-10-31 18 27zm-27 1a57 57 0 0 0-73 25 57 57 0 0 0 46 84 57 57 0 0 0 27-5 64 64 0 1 1 0-104"/></svg>