<svg xmlns="http://www.w3.org/2000/svg" viewBox="0 0 512 512"><defs><clipPath id="na-a"><path d="M0 0h512v512H0z"/></clipPath></defs><g fill-rule="evenodd" clip-path="url(#na-a)"><path fill="#fff" d="M0 0h512v512H0z"/><path fill="#3662a2" d="m-108 0 1 369L467 0z"/><path fill="#38a100" d="m631 512-2-384L50 512z"/><path fill="#c70000" d="m-108 397 1 115H18l612-410-1-101-124-1z"/><path fill="#ffe700" d="m154 183-23-14-13 24-13-24-24 14 1-27H55l14-23-24-13 24-13-14-24 27 1V56l23 14 14-23 13 24 23-14v27h27l-14 23 23 13-24 14 14 23-27-1z"/><path fill="#3662a2" d="M168 120c0 27-22 49-50 49s-50-22-50-49a50 50 0 0 1 100 0"/><path fill="#ffe700" d="M157 120a39 39 0 1 1-78 0 39 39 0 0 1 78 0"/></g></svg>