<svg xmlns="http://www.w3.org/2000/svg" viewBox="0 0 512 512"><path fill="#009543" d="M0 0h512v512H0z"/><path fill="#ed4135" d="M0 0h512v341H0z"/><path fill="#0035ad" d="M0 0h512v171H0z"/><circle cx="226" cy="256" r="168" fill="#fae600" stroke="#000" stroke-width="6"/><path stroke="#000" stroke-width="7" d="M197 281h57m-57-42h57M226 89v286"/><path fill="#000001" d="M158 410c69 28 133 2 133 2s-24-26-37-37c-12-10-48-9-60 0-10 8-39 38-36 35"/><ellipse cx="226" cy="333" fill="#000001" rx="19" ry="27"/><ellipse cx="226" cy="260" fill="#000001" rx="23" ry="14"/><circle cx="226" cy="193" r="23" fill="#000001"/><path fill="#000001" d="M253 109s2 3-2 10c-20 36-40 37-44 40l-6 3 1-17c3-16 28-16 48-33zm-67 77s5 12 6 25c1 20 20 21 34 21v-11c-10 0-19-2-27-17zm0 166s7-9 15-30a27 27 0 0 1 25-17v-16q-32 1-33 20zm79-165s-5 12-5 25c-1 21-21 21-34 21v-11c10 0 19-2 26-17zm1 165s-8-9-16-30a27 27 0 0 0-24-17v-16q32 1 33 20z"/></svg>