<svg xmlns="http://www.w3.org/2000/svg" viewBox="0 0 512 512"><g fill-rule="evenodd"><path fill="#fff" d="M156 0h200v512H156z"/><path fill="#198200" d="M0 0h156v512H0zm356 0h156v512H356z"/></g><g fill-rule="evenodd" stroke="#000" stroke-linejoin="round"><path fill="#198200" stroke-linecap="round" d="M243 332v41l17 1s-6-36-3-41q5-6 6-4c1 2 11 3 12 3 1-1 0-4 5-4l3-4c2 0 35 9 42 0-2-5-8 0-10 0s-8-3-12 0c-3-2-19-4-19-4-2-2 37 1 39-1 5-4-8-4-10-2q-6-3-11-1c-2-3-14-2-21-2q-3-3-1-3l45 2c4-6-5-8-11-3-3-6-10 0-14-1-5 0-3-6 3-5 5 1 16 0 17-3q3-5-10-3c-3-3-10 0-13 1-5-2-15 0-18 1-3-2 18-6 18-6q11 0 15-2c12-6 0-7-7-2-4-3-8 0-11 1l-11 2 10-7 14-1c3 0 15-7-2-2h-11c-13-1 1-3 1-3l19-2c0-7-15-4-15-4 0-5-15 0-15 0-2-2 2-3 2-3l11-3s10 0 12-3c-3-7-23 2-25 3-4 0 2-6 2-6s16-1 24-11c1-6-9 3-9 3-1-8-10 1-16 2q-8-2-2-3 7 0 11-7c2-6 9 1 10-2 1-2-3-4-3-4s5-5-3-5c-8 1-18-1-18-1s8-3 16-3c8 1 4-5-4-5l-11-3 13-5-1-3s7-6-3-5l-12 2-21 3c-1 0-6-2-1-3 6-1 25-5 28-4s0-8-11-9c-10-1-16 3-16 3s-7-2-1-4 16 0 16 0 11-3 2-5q-12 0-16 2c-2-2 14-3 15-4-2-3-11 0-17 0q-4-2 0-4h17v-10c-7-2-16 1-20 1 1-4 17-5 19-6 3-4-16 0-16 0q-5 0-1-4c5 0 16 1 15-2s-8-2-11-1h-7c-2-2 17-1 17-3s-12-1-16-1c-3-2 15-3 15-3 1-6-12 0-14 0-3 0-1-4-1-4l4-3-4-1v-4l4-4-5 1v-4s3 0 4-2l-4-1-2-18-1 16-6 1 5 5c0 2-5 1-5 1l5 5c0 2-7 2-7 2s6 4 6 6v4s-9-8-15-6c-3 2 7 2 14 8 0 1-16-4-17-1 1 1 17 4 19 6-6 0-19-1-19 1-1 2 12 1 18 3q2 2-2 3c-5-2-17-4-17-1 0 1 12 0 17 3-6 1-26-3-26-1q1 3 9 5c5 0 18 2 19 4s-16-3-23 0 19 1 23 5-8-1-8-1-17-2-20-1l-6 4q0 2 4 3c2-1-1 2-1 2s24 6 30 11c5 5-31-8-31-8s-14 5 1 5c-2 3 1 4 1 4s25 6 28 10c2 4-18-4-22-6-4-3-17 1-17 2l6 3c1 2-7 2-7 4s32 8 41 15-26-8-26-8 2 2 0 3c-1 0-8-10-19-3-2 2 10 4 12 5q-2 2 3 6l-8-4v5q-5-5-12-1-1 1 4 5c-2 5 3 3 11 8-12-4-13 2-4 4 8 1 32 2 38 9 6 8-8-2-10-3v4l-12-5v2l-13-5-1 3s-5-6-14 0c-6 4 19 1 24 6 4 4 0 5 0 5l-10-4s-12-2-15 1c-4 2 50 9 51 16 1 5-12-4-24-7l-2 4s-4-5-10-6l1 5s-13-6-19-3c-7 3 23 5 26 8 2 3-9-2-10 0s-16-4-16-1l2 4c1 0 31 3 32 7 1 3-17-2-17-2s-2 2-1 3c2 2-10-6-9-1-4-2-13-6-12-3 1 4 28 9 28 9s-12 1-11 4c-15-9-15-3-14-3 0 0-19-5-5 3 15 8 8 6 8 7l1 4s-10-6-13-6-18 4-2 11c16 8 27-1 36 0q14 1 12 5c-1 3-9-9-18 1-10-2-17-3-12 5-16-6-26 2-5 5 20 0 32-5 32-5s4 6 9 2c5-5 5 1 5 1l5-2z"/><path fill="#fff" stroke-linecap="round" d="M245 308v-3h-10q-2-3-5-2c-1 1 4 4 5 4zm0 5s-7-3-9 0c0 3 8 4 9 4q2-3 0-4m11 1v2h9c1-2-6-3-9-2m-1-8 1 2s6 2 9-2-6 0-10 0m1-8v2s5 0 6-2-6 0-6 0m-11-5q0-2-10-4c-5 0 9 7 10 4m11-7-1 2 22-5 4-3c-3-3-18 1-25 6m0-6v2l15-5c3-2-15 3-15 3m0-6v2s8 0 9-2-7 0-9 0m16 17 5-1c0-2-5 1-5 1m-16-25v5l21-8c1-1 4-4-21 3m-1-6v3s8 0 12-3c3-3-12 0-12 0m-9-7v3l-25-9s-1-4 25 6m0-10v2l-18-7c-3-5 18 5 18 4zm9 4v3l12-4zm0 6 1 2 5-1zm0-13v2l13-3c1-2-14 1-13 1m0-7v3l16-5c3-2-16 2-16 2m-1-12v3s10-2 11-4-11 2-11 1m-1-16v3s12-1 14-3-14 0-14 0m-6-29v3s-6-1-4-2zm6 3v4l8-2c0-2-8-2-8-2m-1 5v2l4-1c1-1-4-1-4-1m-6 9v3l-18-5c-2 0-2-3 18 2m1 6v3c-1 0-11-4-10-5s10 2 10 1m-1 22v3l-19-7c-1-1-2-5 19 4m1 7v2l-25-8s-2-7 25 6"/><path fill="#fff" d="M217 315v2s-5-1-6-4z"/></g></svg>