<svg xmlns="http://www.w3.org/2000/svg" xmlns:xlink="http://www.w3.org/1999/xlink" viewBox="0 0 512 512"><defs><linearGradient id="ni-f" x1="499" x2="501" y1="289" y2="283" gradientUnits="userSpaceOnUse"><stop offset="0" stop-color="#510000"/><stop offset="0" stop-color="#8a0000"/><stop offset="1" stop-color="#a00"/></linearGradient><linearGradient id="ni-g" x1="501" x2="503" y1="291" y2="287" gradientUnits="userSpaceOnUse"><stop offset="0" stop-color="#ff2a2a"/><stop offset="1" stop-color="red"/></linearGradient><linearGradient id="ni-b" x1="485" x2="485" y1="312" y2="318" gradientUnits="userSpaceOnUse"><stop offset="0" stop-color="#F5F549"/><stop offset="1" stop-color="#97C924"/></linearGradient><linearGradient id="ni-a"><stop offset="0" stop-color="#025"/><stop offset="1" stop-color="#04a"/><stop offset="1" stop-color="#025"/></linearGradient><linearGradient xlink:href="#ni-a" id="ni-h" x1="445" x2="634" y1="318" y2="318" gradientUnits="userSpaceOnUse"/><linearGradient xlink:href="#ni-b" id="ni-v" x1="485" x2="485" y1="312" y2="318" gradientUnits="userSpaceOnUse"/><linearGradient xlink:href="#ni-a" id="ni-o" x1="445" x2="634" y1="318" y2="318" gradientUnits="userSpaceOnUse"/><linearGradient xlink:href="#ni-a" id="ni-p" x1="445" x2="634" y1="318" y2="318" gradientUnits="userSpaceOnUse"/><linearGradient xlink:href="#ni-a" id="ni-q" x1="445" x2="634" y1="318" y2="318" gradientUnits="userSpaceOnUse"/><linearGradient xlink:href="#ni-a" id="ni-r" x1="445" x2="634" y1="318" y2="318" gradientUnits="userSpaceOnUse"/><linearGradient xlink:href="#ni-b" id="ni-u" x1="485" x2="485" y1="312" y2="318" gradientUnits="userSpaceOnUse"/><linearGradient xlink:href="#ni-a" id="ni-x" x1="99" x2="125" y1="1440" y2="1440" gradientTransform="scale(4.45715 .22436)" gradientUnits="userSpaceOnUse"/><linearGradient xlink:href="#ni-a" id="ni-j" x1="445" x2="634" y1="318" y2="318" gradientUnits="userSpaceOnUse"/><linearGradient xlink:href="#ni-a" id="ni-l" x1="445" x2="634" y1="318" y2="318" gradientUnits="userSpaceOnUse"/><linearGradient xlink:href="#ni-a" id="ni-m" x1="445" x2="634" y1="318" y2="318" gradientUnits="userSpaceOnUse"/><linearGradient xlink:href="#ni-a" id="ni-i" x1="445" x2="634" y1="318" y2="318" gradientUnits="userSpaceOnUse"/><linearGradient xlink:href="#ni-b" id="ni-s" x1="485" x2="485" y1="312" y2="318" gradientUnits="userSpaceOnUse"/><linearGradient xlink:href="#ni-a" id="ni-y" x1="48" x2="62" y1="3054" y2="3054" gradientTransform="scale(9.12405 .1096)" gradientUnits="userSpaceOnUse"/><clipPath id="ni-c"><path d="m500 226-64 111h128z"/></clipPath></defs><path fill="#0067c6" d="M0 0h512v512H0z"/><path fill="#fff" d="M0 171h512v170H0z"/><path fill="#c8a400" d="m179 255 9 1v-1l-4-1 1-3 3-3v-2l-3 3-2-2h-2l-1 3zm1-1 1-4 1-2 1 1v6zm0-12 9 2 2-8h-2l-1 7-3-1 2-6h-1l-2 6-2-1 1-6h-1zm3-11 8 3 1-1-3-1 1-4v-3l-2-1-2 1-2 4zm2-1 1-3 2-2 1 1-1 3v2zm3-9 4 3h3l3-3v-4l-3-2-3-2v1l4 3 1 2-1 3-2 1-3-2-3-1zm6-10 7 5 3-4 1-3-3-2-1 1-1-2q-2-1-3 1l-2 2zm2 0 2-3 2-1v1l-2 3-1 1zm2 2 3-3q0-2 2-1v1l-1 3-1 1zm4-11 5 6 5-5v-1l-4 4h-1l-5-5zm7-7 5 7 1-1-5-7zm8-5-2 2-1 4 2 2h2l5-3 1-2h-2q1 3-1 3-3 2-5 0-2-3 1-5h4l1-1-2-1zm10-5-1 10 1-1v-3l5-2 2 2h1l-7-7zm1 1 3 2-3 2zm17-6 1 8h5l3-2 1-4-3-2h-4zm2 1h5l2 3-2 2-2 1h-3zm10-2v9h8v-1h-7v-3h7v-1h-6v-2h6v-1zm23 4-3 8h1l2-6v-1 1l3 8 2 1 3-8-1-1-3 7-3-9zm11 5-4 7h-1l4-8zm7 3-3-1-4 2-1 2 1 2 2 3 3 1 2-1-1-1h-4q-3-2-1-5t5-1l2 3 1 1v-2zm8 6-9 3 1 1 3-1 3 3v3l1 1zm-1 1-1 4-2-3zm7 4-6 6v1l3-2 3 3-1 4 1 2 1-5h2l2-2-2-3zm0 2 3 4v2h-2l-2-3-1-1zm10 12h-9v2h3l3 4-2 2 1 1 5-8zm-1 1-2 4-1-3zm7 10-3-3-5 1-1 4 2 4v2l4-2-1-4h-1l1 3-2 1-2-4 1-3q2-2 4-1l2 4-1 2 1 1 1-2zm2 7-5 1-2 1-1 1 1 3 1 2 1 2h2l5-1v-2l-5 1q-3 1-3-2-1-3 2-4l4-1zm3 15-9-4v1l3 1v5l-2 2v1zm-2 0-3 2v-3zm-145 22h-1l1 5h1zm140 0h1l-1 5h-1zm-127 22-9 1v1h3l3 3-2 3 1 1zm-1 1-1 3-2-3zm5 4-6 5v1l6-5-3 8 1 1 7-2-5 4 1 1 6-5-1-2-8 2 3-7zm9 9-6 7 7 5 1-1-6-5 2-2 5 4 1-1-6-4 2-2 5 5 1-1zm8 6-4 7 1 1 2-3 3 2 1 4 1 1v-4l2-1 1-2-2-3zm0 2 4 2 2 1-2 1-3-1-2-1zm10 3-4 8h2zm7 3-2-1-4 3v2l1 2 3 2h3l2-1-1-1-4 1q-3-2-3-5 2-3 5-1l2 2h2l-1-2zm9 2-6 7 2 1 1-3 5 1 1 3h1l-3-9zm0 1 1 4-3-1zm20-1-3 1-2 4 1 2 2 1h3l3-1 1-2h-1l-3 2q-3 0-4-2-1-4 3-4h4l-1-1zm5-1 3 8 8-3-1-1-6 2-1-2 6-2v-1l-6 2-1-3 6-2v-1zm10-3 3 7h1l-3-6 9 3h1l-3-8-1 1 3 6-9-4zm9-5 1 1 3-2 4 6h1l-4-6v-1l3-2-1-1zm9-6 5 7 1-1-2-3 3-2h4l2-1h-5v-3l-2-2-3 2zm1 0 4-3h2v2l-3 2-1 1zm9-10 3 9 1-1-1-3 3-3h3l1-1zm1 1 4 1-2 2zm2-5 7 4 4-5-1-1-3 4v1l-6-4z"/><g clip-path="url(#ni-c)" transform="translate(-171)scale(.85333)"><path fill="#fff" d="m500 226-31 55-16 27h94l-15-26z"/><g id="ni-e"><g id="ni-d"><path fill="#17c0eb" stroke="#17c0eb" stroke-width="0" d="m500 226-2 4 2 55 2-55z"/><path fill="#fff" d="M500 278v3z"/></g><use xlink:href="#ni-d" width="100%" height="100%" transform="rotate(72 500 286)"/><use xlink:href="#ni-d" width="100%" height="100%" transform="rotate(144 500 286)"/><use xlink:href="#ni-d" width="100%" height="100%" transform="rotate(-144 500 286)"/><use xlink:href="#ni-d" width="100%" height="100%" transform="rotate(-72 500 286)"/></g><use xlink:href="#ni-e" width="100%" height="100%" transform="rotate(8 500 286)"/><use xlink:href="#ni-e" width="100%" height="100%" transform="rotate(16 500 286)"/><use xlink:href="#ni-e" width="100%" height="100%" transform="rotate(24 500 286)"/><use xlink:href="#ni-e" width="100%" height="100%" transform="rotate(32 500 286)"/><use xlink:href="#ni-e" width="100%" height="100%" transform="rotate(40 500 286)"/><use xlink:href="#ni-e" width="100%" height="100%" transform="rotate(48 500 286)"/><use xlink:href="#ni-e" width="100%" height="100%" transform="rotate(56 500 286)"/><use xlink:href="#ni-e" width="100%" height="100%" transform="rotate(64 500 286)"/><path fill="red" d="M500 266a44 44 0 0 0-29 11l-15 25v8h5a39 39 0 0 1 78 0h5v-8l-15-25a44 44 0 0 0-29-11"/><path fill="#f60" d="M500 267a44 44 0 0 0-30 12l-12 21-2 10h5a39 39 0 0 1 78 0h5l-2-10-12-21a44 44 0 0 0-30-12"/><path fill="#ff0" d="M500 268a43 43 0 0 0-32 14l-9 15-2 13h4a39 39 0 0 1 78 0h4l-2-13-9-15a43 43 0 0 0-32-14"/><path fill="#0f0" d="M500 268a42 42 0 0 0-35 19l-3 5a42 42 0 0 0-4 18h3a39 39 0 0 1 78 0h3a42 42 0 0 0-4-18l-3-5a42 42 0 0 0-35-19"/><path fill="#0cf" d="M500 269a41 41 0 0 0-41 41h2a39 39 0 0 1 78 0h2a41 41 0 0 0-41-41"/><path fill="#00f" d="M500 270a40 40 0 0 0-40 40h1a39 39 0 1 1 78 0h1a40 40 0 0 0-40-40"/><path fill="purple" d="M500 271a40 40 0 0 0-40 40h1v-1a39 39 0 1 1 78 1h1v-1a40 40 0 0 0-40-39"/><path fill="#510000" d="M500 288h-1l-1 2 1 1v2l1 1 1-1 1-2q0-2-2-3"/><path fill="red" d="M497 284h-2v-1l2-3q4-2 5 1l3 6-1 2c-1 1-4-2-6-1h-2v-2z"/><path fill="url(#ni-f)" d="m497 283-2 1zl-2 2v2l2 1 4 3 3-1v-2h-5v-7z"/><path fill="#ff2a2a" d="M501 280v2l1 1v1l1-1v-1l-1-1z"/><path fill="url(#ni-g)" d="M501 287h-2q-1-2-3-1l-1 1v1l3 1 2 1v4l2-1v-2l2-1h1v-1l-1-1z"/><path fill="#910000" d="m498 289-3-1v-1l1-1h3z"/><path fill="#ff3a3a" d="m502 291 2-1 1-1-3 1-2 4z"/><g fill="url(#ni-h)"><path fill="#fff" d="m453 308-10 17h114l-10-17z"/><g id="ni-n" fill="url(#ni-i)"><path id="ni-k" fill="url(#ni-j)" d="m450 321-5 1v1l7-1 9 1h5l10-1 9 1h5l10-1 10 1h4l10-1 10 1h4l10-1 7 1v-1l-4-1h-5l-10 1-10-1h-4l-10 1-10-1h-4l-10 1-10-1h-4l-10 1-10-1z"/><use xlink:href="#ni-k" width="100%" height="100%" y="-1" fill="url(#ni-l)"/><use xlink:href="#ni-k" width="100%" height="100%" y="-2" fill="url(#ni-m)"/></g><use xlink:href="#ni-n" width="100%" height="100%" y="-3" fill="url(#ni-o)"/><use xlink:href="#ni-n" width="100%" height="100%" y="-7" fill="url(#ni-p)"/><path fill="url(#ni-q)" d="M453 308h94v-1zm0 0h94zm0 0h94zm0 1h96-1zm-1 0h96v-1zm0 1h97-1zm-1 1h98zm0 0v1h98v-1z"/><path fill="url(#ni-r)" d="M457 312h4zm82 0h4z"/></g><g fill="#ccd11e"><g id="ni-t"><path fill="url(#ni-s)" d="m531 297-3 1c-2 10-11 21-22 21h-8v11h61l-6-11c-10-1-18-11-20-21z"/><path fill="#97c924" d="M531 298h-2a34 34 0 0 1-9 15q-6 7-14 7h-8v10h61l-6-10q-7-2-12-7a34 34 0 0 1-9-15z"/><path fill="#ede71f" d="M531 298v10l-2 7-2 3-5 1h-11l9-6 2-3 4-4 1-2 1-3 1-3h1z"/><path fill="#c6cb24" d="M530 299q0 10-7 18l-5 2q9-9 12-20"/><path fill="#9ecb34" d="M525 309q-2 5-9 10h-3q4-1 12-10"/></g><use xlink:href="#ni-t" width="100%" height="100%" x="-15"/><g fill="#c6cb24"><path fill="url(#ni-u)" d="M502 298c3 11 12 21 23 21h8v11h-66v-11h8c11 0 20-11 23-21l2-1z"/><path fill="#97c924" d="M500 298h2a34 34 0 0 0 8 15q6 7 15 7h7v10h-64v-10h7q9 0 15-7a34 34 0 0 0 8-15z"/><path fill="#ede71f" d="m499 298-1 3-1 3-1 2-3 4-2 3-10 6q4 1 6-1l6-1 2-3 3-6c2-3 2-9 2-10"/><path d="M499 299q0 10-6 18l-6 2q11-9 12-20"/><path fill="#9ecb34" d="m494 309-9 10h-3q5-1 12-10"/><path fill="#ede71f" d="m501 298 1 3 1 3 1 2 3 4 2 3 10 6q-9 1-13-4l-4-7z"/><path d="M502 299q0 10 6 16l6 3a31 31 0 0 1-12-19"/></g><g id="ni-w"><path fill="url(#ni-v)" d="m485 297-2 1c-3 10-12 22-22 24l-5 8h49v-11q-14-6-18-21z"/><path fill="#97c924" d="M485 298h-2l-8 15q-7 8-14 9l-5 8h48v-11l-9-6a34 34 0 0 1-8-15z"/><path fill="#93bc30" d="M483 299c0 9-5 20-11 22l-6 1a36 36 0 0 0 17-23"/><path fill="#ede71f" d="M485 298v10l2 7h1l2 3a22 22 0 0 0 15 4l-4-3h5l-10-6-1-2h-1l-3-5-1-2-2-4v-2h-2z"/><path d="M485 299q1 10 7 18l6 2a39 39 0 0 1-13-20"/><path fill="#9ecb34" d="M490 307a35 35 0 0 0 14 15h3q-8-2-17-15"/></g><use xlink:href="#ni-w" width="100%" height="100%" x="-15" fill="#c6cb24"/></g><path fill="#fff" d="M557 325h-11l-11 1-10-1h-3l-10 1-10-1h-4l-9 1-11-1h-3l-10 1-10-1h-4l-8 1-7 11h128z"/><path fill="url(#ni-x)" d="m548 323-11 1-12-1-12 2-13-1-12 2-11-1-12 2-12-1-10 2-1 1 11-1h15l11-1h10l8-1h15l9-1h5l9 1 10-1h13l-1-1z"/><g id="ni-A"><path id="ni-z" fill="url(#ni-y)" d="m450 335-9 1-4-1v1h6l9-1 10 1h4l10-1 10 1h4l10-1 9 1h5l10-1 9 1h5l9-1 10 1h6v-1l-3 1-10-1h-4l-10 1-10-1h-4l-10 1-10-1h-4l-10 1-9-1h-5l-10 1-9-1z"/><use xlink:href="#ni-z" width="100%" height="100%" y="-1"/><use xlink:href="#ni-z" width="100%" height="100%" y="-3"/></g><use xlink:href="#ni-A" width="100%" height="100%" y="-4"/><use xlink:href="#ni-A" width="100%" height="100%" y="-8"/><path fill="#97c924" d="m444 325-3 4 11-2 12 1 11-1h12l12-1h13l12-1 12 1 12-2h8l-2-3-101 3z"/><path fill="#fff" d="M550 325h7z"/></g><path fill="#c8a400" d="m256 192-27 47-28 49h110l-27-47zm0 2 27 47 26 46H203l27-47z"/></svg>