<svg xmlns="http://www.w3.org/2000/svg" viewBox="0 0 512 512"><path fill="#fedd00" d="M0 0h512v512H0z"/><path fill="#012169" d="M0 0h256v256H0z"/><path fill="#fff" d="M256 0v32l-95 96 95 94v34h-33l-96-94-93 94H0v-34l93-93L0 37V0h31l96 94 93-94z"/><path fill="#c8102e" d="m92 162 6 17-77 77H0v-1zm62-6 27 4 75 74v22zM256 0l-96 98-2-22 75-76zM0 1l97 94-30-4L0 25z"/><path fill="#fff" d="M88 0v256h80V0zM0 88v80h256V88z"/><path fill="#c8102e" d="M0 104v48h256v-48zM104 0v256h48V0z"/><circle cx="128" cy="128" r="44" fill="#012169"/><path fill="#fedd00" d="m128 84 26 79-67-49h82l-67 49m-49-58 15 46-39-28h49l-40 28m165-46 15 46-40-28h49l-39 28m-60 39 15 46-39-28h48l-39 29m15-217 15 46-39-29h48l-39 29"/></svg>