<svg xmlns="http://www.w3.org/2000/svg" xmlns:xlink="http://www.w3.org/1999/xlink" viewBox="0 0 512 512"><defs><g id="nz-b"><path id="nz-a" d="M0 0h1zm0 0h1z"/><use xlink:href="#nz-a" transform="scale(-1 1)"/><use xlink:href="#nz-a" transform="rotate(72 0 0)"/><use xlink:href="#nz-a" transform="rotate(-72 0 0)"/><use xlink:href="#nz-a" transform="scale(-1 1)rotate(72)"/></g></defs><path fill="#00247d" fill-rule="evenodd" d="M0 0h512v512H0z"/><g transform="translate(-149 91)scale(.60566)"><use xlink:href="#nz-b" width="100%" height="100%" fill="#fff" transform="translate(900 120)scale(45.4)"/><use xlink:href="#nz-b" width="100%" height="100%" fill="#cc142b" transform="matrix(30 0 0 30 900 120)"/></g><g transform="rotate(82 419 105)scale(.60566)"><use xlink:href="#nz-b" width="100%" height="100%" fill="#fff" transform="rotate(-82 519 -458)scale(40.4)"/><use xlink:href="#nz-b" width="100%" height="100%" fill="#cc142b" transform="rotate(-82 519 -458)scale(25)"/></g><g transform="rotate(82 419 105)scale(.60566)"><use xlink:href="#nz-b" width="100%" height="100%" fill="#fff" transform="rotate(-82 669 -328)scale(45.4)"/><use xlink:href="#nz-b" width="100%" height="100%" fill="#cc142b" transform="rotate(-82 669 -328)scale(30)"/></g><g transform="translate(-149 91)scale(.60566)"><use xlink:href="#nz-b" width="100%" height="100%" fill="#fff" transform="translate(900 480)scale(50.4)"/><use xlink:href="#nz-b" width="100%" height="100%" fill="#cc142b" transform="matrix(35 0 0 35 900 480)"/></g><path fill="#012169" d="M0 0h256v256H0z"/><path fill="#fff" d="M256 0v32l-95 96 95 94v34h-33l-96-94-93 94H0v-34l93-93L0 37V0h31l96 94 93-94z"/><path fill="#c8102e" d="m92 162 6 17-77 77H0v-1zm62-6 27 4 75 74v22zM256 0l-96 98-2-22 75-76zM0 1l97 94-30-4L0 25z"/><path fill="#fff" d="M88 0v256h80V0zM0 88v80h256V88z"/><path fill="#c8102e" d="M0 104v48h256v-48zM104 0v256h48V0z"/></svg>