<svg xmlns="http://www.w3.org/2000/svg" xmlns:xlink="http://www.w3.org/1999/xlink" viewBox="0 0 512 512"><path fill="#003da5" d="M0 0h512v512H0z"/><use xlink:href="#pc-a" width="1000" height="700" transform="rotate(164 247 258)"/><path id="pc-a" fill="#fff" fill-opacity="1" fill-rule="nonzero" stroke="none" stroke-width="1" d="m419 280-9 2-1 9-4-8-9 2 6-7-4-8 8 4 6-7-1 9z"/><use xlink:href="#pc-a" width="1000" height="700" transform="rotate(-10 247 258)"/><use xlink:href="#pc-a" width="1000" height="700" transform="rotate(-31 247 258)"/><use xlink:href="#pc-a" width="1000" height="700" transform="rotate(-21 247 258)"/><use xlink:href="#pc-a" width="1000" height="700" transform="rotate(-51 247 258)"/><use xlink:href="#pc-a" width="1000" height="700" transform="rotate(-72 247 258)"/><use xlink:href="#pc-a" width="1000" height="700" transform="rotate(-62 247 258)"/><use xlink:href="#pc-a" width="1000" height="700" transform="rotate(-41 247 258)"/><use xlink:href="#pc-a" width="1000" height="700" transform="rotate(-93 247 258)"/><use xlink:href="#pc-a" width="1000" height="700" transform="rotate(-113 247 258)"/><use xlink:href="#pc-a" width="1000" height="700" transform="rotate(-103 247 258)"/><use xlink:href="#pc-a" width="1000" height="700" transform="rotate(-134 247 258)"/><use xlink:href="#pc-a" width="1000" height="700" transform="rotate(-154 247 258)"/><use xlink:href="#pc-a" width="1000" height="700" transform="rotate(-144 247 258)"/><use xlink:href="#pc-a" width="1000" height="700" transform="rotate(-124 247 258)"/><use xlink:href="#pc-a" width="1000" height="700" transform="rotate(-82 247 258)"/><use xlink:href="#pc-a" width="1000" height="700" transform="rotate(-175 247 258)"/><use xlink:href="#pc-a" width="1000" height="700" transform="rotate(175 247 258)"/><use xlink:href="#pc-a" width="1000" height="700" transform="rotate(144 247 258)"/><use xlink:href="#pc-a" width="1000" height="700" transform="rotate(123 247 258)"/><use xlink:href="#pc-a" width="1000" height="700" transform="rotate(133 247 258)"/><use xlink:href="#pc-a" width="1000" height="700" transform="rotate(154 247 258)"/><use xlink:href="#pc-a" width="1000" height="700" transform="rotate(-165 247 258)"/><use xlink:href="#pc-a" width="1000" height="700" transform="rotate(113 247 258)"/><use xlink:href="#pc-a" width="1000" height="700" transform="rotate(103 247 258)"/><path fill="none" stroke="#00aec7" stroke-width="15" d="M389 334a161 161 0 0 1-162 84"/><path fill="#fff" d="M421 308s-27-12-82-13c-54 0-112 15-144 15-32-1-41-1-60-4 0 0 29 9 59 12 31 3 102-11 137-13q53-4 90 3"/><path fill="#00aec7" d="M208 323s21 1 60-3 67-10 98-11c31 0 65 5 73 7 0 0-52-2-74 2-22 3-78 10-107 10-30 1-40-3-50-5m-86-29s55 14 104 5c56-11 88-11 113-11s51 6 51 6-102-107-209-163c0 0-8 90-59 163"/><path fill="#fff" d="M207 211s-1-6-9-5c0 0 5-2 7-1q3 0 2 6m-18-10 3-1q0 2 3 5-2 1-6-4m24 5a13 13 0 0 0-9-5l-7 4v-4l4 1-2-4c4-1 9 3 9 3a18 18 0 0 0-12-8l-3 2c-8 0-10 5-10 5 3 5 10 6 10 6-12-1-12 9-12 9l12-6c-5 26-23 37-24 39q-3 2 2 3 1 2 6-4a70 70 0 0 0 18-37v8l5 6q2-2 2-8c0-2-6-8-6-8 9-1 9 13 9 13q4-7 3-8c-1-1 6-5 5-7"/></svg>