<svg xmlns="http://www.w3.org/2000/svg" viewBox="0 0 512 512"><defs><clipPath id="pf-a"><path d="M0 0h512v512H0z"/></clipPath></defs><g clip-path="url(#pf-a)"><path fill="#fff" d="M0 0h512v512H0z" style="width:0"/><path fill="#083d9c" fill-rule="evenodd" stroke="#083d9c" stroke-width="3" d="M210 364s12-10 23-10 15 8 22 9c8 0 15-8 24-8 10-1 22 6 22 6l-42 13zm-24-14h144s-12-13-27-13c-14-1-10 6-22 7-11 1-14-7-24-7s-16 7-24 7-18-8-24-7c-6 0-27 9-27 9zm-18-18 178 1c3-4-9-14-20-15-8 1-15 10-22 10s-15-9-23-9-17 9-25 9-14-9-24-9-15 10-23 9-15-10-22-10-20 11-23 11c-2-1 3 5 4 4z"/><path fill="red" fill-rule="evenodd" stroke="#000" stroke-linejoin="round" stroke-width="3" d="m236 234 41 11v-59c-19 1-34-36-1-38-33-5-37 4-40 13z"/><path fill="#083d9c" fill-rule="evenodd" stroke="#083d9c" stroke-linecap="round" stroke-width="5" d="M210 276h93"/><path fill="none" stroke="#000" stroke-linecap="round" stroke-width="4" d="m215 254 11 15m-11 0 11-15m-5-1-1 9m12-8 11 14m-11 1 12-15m-6-1v9m12-8 11 14m-11 1 12-15m-6-1v9m12-8 11 14m-11 1 12-15m-6-1v9m12-8 11 14m-11 1 12-15m-6-1v9"/><path fill="#ef7d08" fill-rule="evenodd" d="M148 277h39v-25l-45-2zm-2-34 42 4v-18l-41-16zm9-35 32 16 4-5s-3-2-3-4l3-5-3-3 3-5-29-25zm211 69h-42v-24l45-3zm-42-30 50-5-11-29-39 17zm37-42-36 19-4-6q2 0 3-3c1-3-3-3-3-4s2-2 2-5l-2-5 28-21zm-78 42 18-1v-7zm-54-1h-19v-7zm0-2-19-9v-13s-2 0-2-2c0-5 14 9 21 14zm54-1v-8l21-18-2 6v12zm-109-68 19 21q2-3 9-2 7-2 8 3l-2 4c-1 2 3 3 3 5l-2 5 2 2 18 17v-19l-37-57zm29-22 25 51s0-47 4-50l-7-12zm108 2-28 49v-20s2-4-1-4h-8l11-39zm28 21-19 19q-2-2-11-1-7 1-6 3c1 4 2 1 2 5l-2 4c0 3 4 2 1 4l-21 21v-20l40-61z"/><path fill="red" fill-rule="evenodd" stroke="#000" stroke-linejoin="round" stroke-width="3" d="M245 286c-9 15-33 11-38 0-2 0-1-63-1-63s-3-1-3-3 4-2 4-5c0-2-4-1-4-4 0-2 4-2 4-4 0-3-5-2-5-5q1-3 4-4h-10c-4 0 0 1 0 4l-2 5 3 4-3 4 3 5-4 3 1 65c6 32 41 40 51-2zm23 0c9 15 33 11 39 0v-63q2 0 3-3l-3-5 4-4c0-2-4-2-4-4l3-5-3-4h10c5 0 0 1 0 4l3 5c0 1-4 2-4 4s4 2 4 4l-3 5 3 3v65c-6 32-42 40-52-2z"/><path fill="#083d9c" fill-rule="evenodd" stroke="#083d9c" stroke-width="3" d="M237 315h39c1 0-9-13-20-12-12 0-20 12-19 12zm126-1h-54s7-4 9-8c3 2 2 4 9 5 7 0 14-8 21-8s15 12 15 11zm-214 0h54s-7-4-9-8c-3 2-2 4-9 5-7 0-14-8-21-8-6 0-15 12-15 11zm4-17 39 1s-3-6-3-12c-10-4-18 7-25 7-8 1-15-7-15-7zm207 0-39 1s3-6 3-12c10-4 18 7 25 7 7 1 15-7 15-7zm-114 1 20-1s0-6-10-6-9 7-10 6zm-12-9q6-2 9-8h-13l-10 8zm44 0a18 18 0 0 1-9-8h14l9 8z"/><path fill="#de2010" fill-rule="evenodd" d="M-128 384h768v128h-768zm0-384h768v128h-768z"/></g></svg>