<svg xmlns="http://www.w3.org/2000/svg" viewBox="0 0 512 512"><path fill="#00247d" d="M0 0h512v512H0z"/><path fill="#f7e017" d="M332 268a57 57 0 0 0-16 28c-4 26-10 32-20 27 0 14 11 15 15 7q0 20 14 35 6 4 2-3c-1-5-1-20-5-29 6 5 14 2 14-12-8 6-16 6-16-7-1-15 4-37 12-46m-9-107q2-9-4-14c-6-7-12-4-17 1-7-5-10 11-18 9q1 8 7 5c-4 5 0 10-5 15q14 5 13-12a7 7 0 0 0 12-1q-7-3-3-11c3-7 16-6 15 8"/><path fill="#337321" d="M343 238c-10 7-28 4-29-11-2-16 10-22 14-24 5-4 9 2 7 8 6-2 8-10 5-15q12 0 18-16-6 3-16 1l1-10c-7 8-16 4-28 27l8-37c1-14-12-15-15-8q3 6 0 16l-6 36c-1-11-7-12-8-17q-3 3-2 8c-2-3-9 0-12-4-3 7 2 14 6 16q-2 3-6 5 6 7 13 8 7-1 11 9c5 11 23 19 39 8"/><path fill="#f7e017" d="M368 225c-6 18-21 31-28 33a134 134 0 0 0-42 25l-3-2c-3-2-5-11 0-18 18-20 37-11 48-25-10 7-28 4-29-11 10 3 29 3 45-16z"/><path fill="#337321" d="M332 268c-9 9-13 31-12 46l2 9c1-9 6-31 18-40a104 104 0 0 0 34-48q-1-5-7-9c-6 20-22 29-35 42"/><path fill="#316d3a" d="M362 216a44 44 0 0 1-17 17q3-3 2-7c-9 4-26 4-33 1 10 3 29 3 45-16z"/><path fill="#337321" d="M295 263c-14 16-4 30 1 33-1 11 7 9 7 19q6-6 4-14c5 5 16-1 18 10 2-12-6-24-15-23 4-4 1-11-2-12-1 8-9 8-12 6-4-3-6-12-1-19"/><path fill="#f7e017" d="M326 364v5c2 3-2 10 5 12q2 0 4-4c2-7-5-8-5-11q-2-4-4-2"/><path fill="#f7e017" d="M331 377q-4 0-3 11c1 3 0 11-2 11q4 2 6 0 3 3 5-1 4 1 4-4 3 2 3-5 3 1 4-2c-2 0-8-4-9-7q-3-5-8-3"/><path fill="none" d="m299 152 3-4m33 34 7-1m-10 218v-9m5 8-3-7m7 3-5-8m8 3q-3-1-8-8"/><path fill="#f7e017" d="M430 263c23 23 24 41 21 52-2-10-12-26-22-30z"/><path fill="#337321" d="M389 250h42v60c0 51-24 81-48 97-24-16-48-46-48-97v-60h30q-1 5 3 13 11-3 21-13"/><path fill="#006ec7" d="M431 250v60q0 23-6 41l-42-93-42 93a136 136 0 0 1-6-41v-60z"/><path fill="#f7e017" d="m427 346-3 10-41-89-40 89-3-10 43-96z"/><path fill="#f7e017" d="m403 379 4 3a42 42 0 0 0 2-20c-3 7-11 7-13 12l3 2-13 11v-48l-1-9v-10q1-4-2-5-3 0-2 5v10l-1 9v48c-2-8-10-5-13-12h4c-3-12-10-13-12-16 0 5-2 16 1 20l3-2c3 8 17 8 20 22 3-5 13-11 20-20"/><path fill="#f7e017" d="m383 340 17-2q2 0 2-3l-2-4-17-1-16 1-2 4 1 3zm-2-20-2-1q-3 1-4 4 0 4 4 4t4-4h2q-1 7-6 7-6 0-6-7 1-5 6-6l3 1z"/><path fill="#f7e017" d="m367 338 1-3-2-4m2 7q2 0 2-3l-2-4m9 8 2-4q0-5-2-5m2 9 2-4q0-5-2-5m7 9q3 0 3-4 0-5-3-5m3 9 2-4q0-5-2-5m10 8 1-3-1-4m-36 46 4-2m34 2-2-1m3 3 7-11"/><path fill="#fff" d="m375 293 1-3 3-1h12l1 1v20l-1 1h-16z"/><path fill="#e5e5e5" d="m388 313 3-1 1-3v-18l-1-1h-12l-2 1-1 2v20z"/><path fill="#fff" d="M389 313h-12l-1-1v-20l1-2h12l1 2z"/><path fill="#96877d" d="M413 239q3 5 2 11h-4q4-9-6-11c-9-1-20 21-36 24-5-7-5-20 1-27-3-11-10-23-14-28h-9a33 33 0 0 1 15-16l2-4c1-9 35-5 42 0 0 10 3 42 7 51"/><path d="M372 244q-2-22-13-35a17 17 0 0 0 15-3c6-5 22-13 28-9v5c-1-4-17 3-21 5q-6 2-5 12-1-4-4-6l2 12q-1-6-6-13a87 87 0 0 1 5 34l10-5q-5 5-11 7l-3 11c0-4 1-14 3-15m41-5q-5-7-16-4l5-3-2-14 2-1 3 15 4 2-4-21 3-2z"/><path fill="#96877d" d="M411 250q4-9-5-11-8 1-17 11zm-41-48q-6 1-12-1l1-3-7 6c4 1 14 2 18-2"/><path fill="none" d="m370 236 2 10m-10-54-4 9q6 2 12 1"/><path fill="none" d="m356 208 3 1a17 17 0 0 0 15-3c4-4 17-16 31-17"/><path fill="none" d="M352 205c4 1 14 1 18-3a57 57 0 0 1 32-14"/><path fill="#337321" d="M430 263c15 13 27 25 30 45q6 30 18 20c-2 12-12 13-20 4 1 14-4 30-15 35-1-8 4-14 2-20 0-3 0-10 3-13-6 2-16-2-17-13q12 8 20-6c3-11 2-29-21-52m20-104c4-15 17-13 21-7 13-8 14 11 25 7a7 7 0 0 1-8 7c5 4-1 11 8 15-8 4-18-1-21-13-3 6-11 6-15 1 8-2 7-11 3-14s-12-2-13 4m-38 33a84 84 0 0 0 18 35c9 9 23 7 30-2 0 18-16 20-25 14q-7-4-3 3 10 9 33 14c26 7 17 32 9 31q5 0 1-6c-22-24-68-14-68-69-5 15-24 9-15-8q6 5 10-1 2-7-5-15 2 1 2-2 0 2 5 3l2 2 1-2q1 5 5 3"/><path fill="#f7e017" d="M435 239q17 14 35-7 6-8 13-10c4 0 3-5 6-6l-5-3c7-2 5-9 8-12-3 1-7-4-11 2q1-5-1-7c0 3-6 4-7 12q-2 8-3-3l-5-28c-2-8-3-17 0-19l-2-3c-4-3-12-2-13 4-5 15 8 24 7 40-2-12-18-15-18-27q-8 5-3 13c-3-7-11 4-17-5-1 11 7 15 14 16a11 11 0 0 0 5 15c1-12 22-7 22 14 0 18-16 20-25 14m30 17c26 7 17 32 9 31q-8-1-9-9-8 8 0 14c-12-2-17 7-17 17q5-7 11-4c2 1 9 2 11-2-2 2 1 7-2 11 10 0 14-11 13-16 12-14 10-36-16-42m-20 106q3 3 1 5c-3 4 1 12-6 13q-3 1-4-4c-2-8 5-8 5-12q2-5 4-2"/><path fill="#f7e017" d="M439 376c2 2 4 3 3 12 0 4-1 13 2 13q-4 2-6 0-4 3-6-2-4 1-4-4-4 1-4-6-3 0-4-2c2-1 9-5 11-8q3-5 8-3"/><path fill="none" d="M438 401v-10m-6 8 4-8m-8 4 6-9m-10 3a21 21 0 0 0 10-8"/><path fill="#f7e017" d="M407 213q1 32 19 41c-4-3-2-13-8-16l7 1q-2-8-10-11l7-1c-3-6-12-3-15-15m-2-22-1-2q-4 0-5-3 1 3-2 2 7 10 5 15-4 6-10 1c0 10 10 13 14 1l2 4q4-8-3-18"/><path fill="#337321" d="M389 146a29 29 0 0 1-7-19q0-9 8-8c-2 0 0 5-2 5l4-2 3 3q1-3-2-6 2-2 1-6l-2 4c0-1 0-6-3-7v6q-4 1-7 4l2-10q1-2-1 0-5-7-9-4c-2 2-5-1-7 2s-8 4-7 7l-2 7q-1 3 2 7c0-8 11-25 22-18l-2 11q-3 13 7 25z"/><path fill="#c8102e" d="M392 119q0-4 7-4c5 0 8 5 12 4q4 2 1 3l-1 3q1 2-1 1c-4-3-7 1-12-1q-5-2-6-6"/><path fill="#96877d" d="M373 172c-2-7-9-15-12-17v-3l8-8c14 8 33-3 42-15l3 2-2 3-1-1-13 14 9 2q12-12 17-13l2 4-2 1-2-1a110 110 0 0 0-21 38c-5-1-24 0-28-6"/><path fill="none" d="m398 147-3-1q-2 2-10 3m-11 20q-1-14 4-20a24 24 0 0 0 29 0"/><path fill="none" d="m374 165 22 2q6 1 8 4m-27-7 1-2-1-2-2 2z"/><path fill="#337321" d="M381 123c-2-4-8-5-10 0l-2 5-1 5c2 4 0 7 3 9q1-5 6-6 6-2 7-7 3-5-3-6"/><path fill="#96877d" d="M367 154h1v6l1 1 4-3v1l-4 3 4 3v1l-5-3v6h-1v-6l-4 3-1-1 5-3-5-3 1-1 4 3z"/><path fill="#96877d" d="m374 169-6 3q-8 0-9-10c-1-10 4-11 9-11l7 4-1 6q-2-6-6-6-6 1-6 7 0 7 6 7 4 0 5-5z"/><path fill="#337321" d="m364 179-1-4 3 1-1-4 4 3v-6l4 5 1-7 3 3 2-4 2 6 3-3v5l3-4 2 4v-6l3 4 2-5 1 6 2-3v5l3-3v3l3-5 2 5 4-4v5l1-3v5l2-1q1 3-2 8c-9-3-27-4-46-6"/><path fill="#f7e017" d="m395 121 4-3 9 2q3 0 1 2l-1 1h-9q-4-1-4-3m-28 66q-5 5-6 1v-6q1-5 3-3c1 2 4-2 5 2q2 4 1 7zm12-6q0-3 4-2c4 1 4-3 5 1l2 6q0 3-5 1c1 1-3 2-4-1zm19 2q0-4 5-1 1-3 4 2v7q-1 3-3-1-4 0-5-3z"/><path fill="#337321" d="M369 180q0-4 4-2c2 2 4-1 6 1 2 7 2 7 1 8q-1 2-4-1h-4q-3-2-3-6m19 0q2-4 6 0 2-3 4 2t1 6-4-1q-2 1-5-2zm19 3q1-2 3 0c1 2 4 0 4 4l-1 5q-3 2-6-3z"/><path fill="none" d="M367 186q-2-4-4-1m13 1-2-4m11 4-2-2m2-3 3 2 2 3m5 1-1-2m0-5 1 2m9 7-3-4m2-2c0 3 4 3 4 5m3-5 1 3"/><path fill="#012169" d="M0 0h256v256H0z"/><path fill="#fff" d="M256 0v32l-95 96 95 94v34h-33l-96-94-93 94H0v-34l93-93L0 37V0h31l96 94 93-94z"/><path fill="#c8102e" d="m92 162 6 17-77 77H0v-1zm62-6 27 4 75 74v22zM256 0l-96 98-2-22 75-76zM0 1l97 94-30-4L0 25z"/><path fill="#fff" d="M88 0v256h80V0zM0 88v80h256V88z"/><path fill="#c8102e" d="M0 104v48h256v-48zM104 0v256h48V0z"/></svg>