<svg xmlns="http://www.w3.org/2000/svg" xmlns:xlink="http://www.w3.org/1999/xlink" viewBox="0 0 512 512"><path fill="red" d="M205 0h307v512H205z"/><path fill="#060" d="M0 0h205v512H0z"/><g fill="#ff0" fill-rule="evenodd" stroke="#000" stroke-linecap="round" stroke-linejoin="round"><path d="M294 327c-35-1-192-100-193-115l8-15c16 23 177 118 193 115z"/><path d="M108 195c-4 8 41 36 94 68s99 52 102 50l2-3h-5c-14-4-52-21-98-49s-87-54-93-65l-1-4h0zm187 132-4 1c-13-1-52-20-98-48-54-32-98-62-93-69l1-3h0c-4 13 88 66 93 69 53 33 98 53 102 48z"/><path d="M205 221c34 0 77-5 101-14l-5-9c-14 8-57 13-96 14q-70 0-96-16l-5 9c30 13 61 16 101 16"/><path d="M308 207q-3 3-41 11a416 416 0 0 1-62 4 444 444 0 0 1-60-4q-37-6-42-11l1-2a186 186 0 0 0 41 11 439 439 0 0 0 60 4 418 418 0 0 0 62-5q36-7 39-11zm-5-9q-5 4-38 10a414 414 0 0 1-60 5 400 400 0 0 1-57-4c-24-3-36-9-40-10l1-3q4 4 39 10l57 4a409 409 0 0 0 59-4q35-6 37-11zM92 262c21 12 68 18 113 18 40 0 93-6 113-17l-1-11c-6 9-63 19-113 18-50 0-97-8-112-18z"/><path d="M319 261v3c-3 3-22 9-45 12a463 463 0 0 1-70 5q-40 0-66-5a165 165 0 0 1-47-12v-4c10 7 38 12 47 14a433 433 0 0 0 181-13m0-10v3c-3 3-22 9-45 13a463 463 0 0 1-70 4q-40 0-66-4a165 165 0 0 1-47-13v-3c10 7 38 12 47 13a433 433 0 0 0 181-13m-114 74c-49-1-91-14-100-16l7 10c15 7 56 17 93 16s69-4 92-15l7-11c-16 7-69 16-99 16"/><path d="m300 317-3 5-35 8a315 315 0 0 1-57 6c-43-1-79-9-95-17l-2-2h1l2 1a306 306 0 0 0 94 15 326 326 0 0 0 94-15zm5-9-2 4q-9 4-44 9c-15 2-24 4-54 5a371 371 0 0 1-100-15l-2-3a424 424 0 0 0 102 15c27 0 39-2 54-4q39-7 44-10h-1z"/><path d="M306 253c0 32-16 61-30 74a106 106 0 0 1-72 30c-32 0-63-21-71-30-16-18-29-41-29-72q5-52 35-76a106 106 0 0 1 69-24c25 1 55 13 76 38q19 22 22 61M204 144c62 0 113 50 113 112a113 113 0 0 1-113 112 112 112 0 1 1 0-224"/><path d="M205 143a113 113 0 0 1 0 226A113 113 0 0 1 92 256a113 113 0 0 1 113-113M95 256c0 61 49 110 110 110a110 110 0 0 0 0-220A111 111 0 0 0 95 256"/><path d="M205 153c56 0 103 46 103 103s-47 103-103 103a104 104 0 0 1-103-103c0-57 46-103 103-103M104 256c0 55 46 101 101 101s101-46 101-101-46-101-101-101-101 46-101 101"/><path d="M209 143h-9v226h9z"/><path d="M208 142h3v229h-3zm-9 0h2v229h-2z"/><path d="M317 261v-9l-6-6-39-11-56-5-67 3-48 11-9 8v8l24-11 58-9h56l41 5 28 6z"/><path d="M205 239a394 394 0 0 1 73 6q33 6 41 16v3c-6-8-26-13-42-16a398 398 0 0 0-146 0c-16 3-38 9-40 16v-3c1-5 17-11 39-16a405 405 0 0 1 75-6m0-10a396 396 0 0 1 73 6q33 7 41 16v3c-6-8-26-13-42-16q-31-7-72-7a402 402 0 0 0-74 7c-16 3-38 10-40 16v-3c1-4 17-11 39-15a405 405 0 0 1 75-7m-1-49c42-1 79 6 95 14l7 11c-15-8-54-16-102-15-38 0-79 4-100 15l7-12c17-9 57-13 93-13"/><path d="M205 188q37 0 65 5c17 3 34 8 36 11l2 3q-10-6-38-12a367 367 0 0 0-65-4q-40 0-66 4-29 7-36 11l2-3q8-5 33-10 27-4 67-5m0-9a371 371 0 0 1 63 4q23 5 33 11l2 4c-4-5-21-10-36-12a404 404 0 0 0-126 0q-24 5-31 10l2-4q9-4 29-9 27-4 64-4m56 124a293 293 0 0 0-56-4c-70 0-93 14-95 18l-6-8c18-13 56-20 101-20q35 1 60 5z"/><path d="M204 298q30 0 57 4l-1 2a298 298 0 0 0-56-4q-39-1-74 9c-7 2-19 6-20 10l-2-2q2-4 21-11 39-9 75-9zm1-10a351 351 0 0 1 61 5l-1 3a319 319 0 0 0-60-6q-40-1-78 9c-8 3-22 8-22 12l-2-2c1-4 13-9 24-12a285 285 0 0 1 78-9"/><path d="m304 310-8 13-24-22-63-41-70-39-37-13 8-14 3-2 22 6 75 39 44 27 36 26 15 17z"/><path d="M101 209c6-5 54 16 103 46s96 64 92 70l-1 2-1 1v-4c-2-7-36-33-91-67-54-32-99-51-104-46zm205 101c4-8-40-41-94-73-55-32-95-50-103-45l-1 3q0 0 0 0 3-2 5-1c12 0 48 16 99 45 22 13 93 59 93 72l-1 2z"/></g><g transform="translate(-68 28)scale(1.13778)"><path fill="#fff" stroke="#000" d="M181 211a59 59 0 0 0 17 42 59 59 0 0 0 42 17 59 59 0 0 0 42-17 59 59 0 0 0 17-42v-79H181z"/><path fill="red" stroke="#000" d="M183 211a56 56 0 0 0 17 40 57 57 0 0 0 40 17 57 57 0 0 0 40-17 56 56 0 0 0 17-40v-77H183v77m91-54v54a33 33 0 0 1-10 24 34 34 0 0 1-24 10q-15 0-24-10a34 34 0 0 1-10-24v-54z"/><g id="pt-e"><g id="pt-d" fill="#ff0" stroke="#000" stroke-width="1"><path stroke="none" d="M190 154c0-5 4-6 4-6s4 1 4 6z"/><path d="m187 148-1 6h4c0-5 4-6 4-6s4 1 4 6h5l-1-6zm-1 6h17v2h-17l-1-1z"/><path d="m192 154 2-4q2 0 3 4h-5m-6-9h16l1 1h-17zm1 2h16l-1 1h-15l-1-1zm5-11h1v1h1v-1h1v1h1v-1h1v2h-5zm4 3v6h-4v-6h4"/><path id="pt-a" d="M191 142v3h-4v-3z"/><use xlink:href="#pt-a" width="100%" height="100%" x="11"/><path id="pt-b" d="M186 139h2v1-1h2v1-1h2v2l-1 1h-4l-1-1z"/><use xlink:href="#pt-b" width="100%" height="100%" x="11"/><path fill="#000001" stroke="none" d="M194 141v1h-1z"/><path id="pt-c" fill="#000001" stroke="none" d="M189 143q0-1 0 0v1z"/><use xlink:href="#pt-c" width="100%" height="100%" x="11"/></g><use xlink:href="#pt-d" width="100%" height="100%" y="46"/><use xlink:href="#pt-d" width="100%" height="100%" transform="rotate(-45 313 180)"/></g><use xlink:href="#pt-d" width="100%" height="100%" x="46"/><use xlink:href="#pt-e" width="100%" height="100%" transform="matrix(-1 0 0 1 480 0)"/><g id="pt-f" fill="#fff"><path fill="#039" d="m233 202 2 6 5 2q3 1 5-2l3-6v-10h-15z"/><circle cx="236" cy="196" r="2"/><circle cx="244" cy="196" r="2"/><circle cx="240" cy="200" r="2"/><circle cx="236" cy="204" r="2"/><circle cx="244" cy="204" r="2"/></g><use xlink:href="#pt-f" width="100%" height="100%" y="-26"/><use xlink:href="#pt-f" width="100%" height="100%" x="-21"/><use xlink:href="#pt-f" width="100%" height="100%" x="21"/><use xlink:href="#pt-f" width="100%" height="100%" y="26"/></g></svg>