<svg xmlns="http://www.w3.org/2000/svg" viewBox="0 0 512 512"><path fill="#0038a8" d="M0 341h512v171H0z"/><path fill="#fff" d="M0 171h512v170H0z"/><path fill="#d52b1e" d="M0 0h512v171H0z"/><g fill="none" stroke="#000" transform="translate(-209)scale(1.55152)"><circle cx="300" cy="165" r="42"/><circle cx="300" cy="165" r="35"/><circle cx="300" cy="165" r="27" stroke="none"/></g><path d="m222 281-8 5-2-4-1-2v-1l1-1h3v-1l1-1 1-2 2 2-2 3v2l3-2zm-6 1-1-1v-1h-1l-1 1 1 1v1zm-7-6-3-7 2-1 1 5 2-1-1-4h1l1 4 2-1-1-4 2-1 2 7zm-3-11-1-4 1-2 1-1h3l1 3v1h3v2zm3-3v-1l-1-1-1 1v2zm-4-13 1-3 5 1h1l1 1 1 1v4l-1 1v1h-8v-3h7v-2l-1-1zm1-7 2-4 1-2h2l1 2 2-1h1l2 2v1l-1 1-1 4zm5-1v-3h-1l-1 1v1zm3 1v-3h-1v1l-1 1zm-3-10 1-3 6 4 2-4 2 1-4 6zm5-8 2-2 6 5-1 2zm12-5 2-1 1 2-1 2-1 1-2 1h-2l-2-2-2-3 2-3 2-1 3 1-2 2v-1h-1l-1 1v1l1 2 1 1h2zm9-3-2 1v2l-3 1-1-9 3-2 7 6-3 2zm-1-2-2-2v3zm8-9h8l1 1v4l-1 2-1 1h-1l-4 1zm3 2 1 4h2v-4zm9-3h7v2h-5v1h4v2h-4v2h5v2h-8zm10 1h3l-2 7 4 1v2l-7-2zm14 4 4 3 2 1-1 2-1 2-3-1-1-1-2 3-2-1zm1 5 1 1 1-1v-1h-1v-1zm7 10-2-2-1 1-2-2 8-4 2 2-3 9-2-2zm1-2 2-3-3 2zm1 6 8-5 2 4 1 2v1l-1 1-1 1-1-1h-1v2l-2 2-1-2 1-3v-1l-3 2zm6 0h2l-1-1v-1zm3 13-1-3h-2l-1-3h10l1 3-7 6-1-2zm2-1 2-3-3 1zm2 9h2v4l-3 1-2-2v-5l1-2 2-1h3l2 2 1 2v2l-1 2-1 1-1-3h1v-1l-1-2h-2l-2 1-1 1 1 1v1h1zm6 13-1 3-5-1h-1l-1-1-1-1v-5l1-1h8v3h-7v2l1 1zm-10 9 1-3-1-1v-2l8 6-1 3h-10l1-3zm2 0h3l-3-1zm3 8-2 2h-3l2 3-2 3-3-6-3-2 2-2 3 2z"/><g fill="#009b3a" stroke-width="0"><path d="M265 225s25 11 21 33c-5 22-19 22-24 25q-8 5-11 5l-5-2s-1 4 4 4c4 1 10-5 13-6s19-3 24-25c4-24-22-33-22-34"/><path d="M278 230a3 1 75 0 1-2 0 3 1 75 1 1 2 0m-1 0a4 1 63 1 1-2 1 4 1 63 0 1 2-1m-3 2a3 1 17 0 1 0 2 3 1 17 0 1 0-2"/><path d="M275 231a4 1 34 1 1-1 1 4 1 34 1 1 1-1"/><path d="M276 231a4 1 46 1 1-1 1 4 1 46 0 1 1-1"/><path d="M278 234h-3l-1 2h1l1-1zl1-1 1-2v-1l-1 1-1 2zm7 2a1 5-2 1 1-2 0 1 5-2 1 1 2 0"/><path d="M284 236a5 1 78 1 1-2 0 5 1 78 1 1 2 0"/><path d="M280 238a5 1 35 1 1-1 2 5 1 35 1 1 1-2"/><path d="M281 236a5 1 51 0 1-2 2 5 1 51 1 1 2-2"/><path d="M282 236a5 1 62 1 1-2 1 5 1 62 1 1 2-1"/><path d="M284 242h-2l-2-1-2 2h2l2-1zl2-2 2-2v-1l-2 1-1 2zm5 5a1 5 9 1 1-2-1 1 5 9 1 1 2 1"/><path d="M288 246a1 5-2 1 1-2 0 1 5-2 1 1 2 0"/><path d="M284 247a5 1 46 1 1-1 2 5 1 46 1 1 1-2"/><path d="M285 246a5 1 62 1 1-2 1 5 1 62 1 1 2-1"/><path d="M287 246a6 1 73 1 1-2 1 6 1 73 1 1 2-1"/><path d="M287 252h-2l-1-1-3 1zl2-2 3-1v-1l-2 1-1 1zm3 7a1 5 31 0 1-2-2 1 5 31 0 1 2 2"/><path d="M289 257a1 5 21 0 1-2-1 1 5 21 0 1 2 1m-4-1a5 1 70 0 1-2 2 5 1 70 0 1 2-2"/><path d="M286 256a1 6-5 0 1-2 0 1 6-5 1 1 2 0"/><path d="M287 257a1 6 6 1 1-2-1 1 6 6 1 1 2 1"/><path d="m286 262-2-1-1-1-2-1v2h3zl2-1 3 1q2-1 1-2h-3l-1 1zm1 8a1 6 49 1 1-2-3 1 6 49 1 1 1 3"/><path d="M286 269a1 6 38 1 1-2-2 1 6 38 1 1 2 2"/><path d="M282 266a1 6-3 1 1-3 1 1 6-3 1 1 3-1"/><path d="M283 266a1 6 12 0 1-2 0 1 6 12 1 1 2 0"/><path d="M285 267a1 6 22 1 1-3-1 1 6 22 1 1 3 1"/><path d="m281 272-2-1v-2l-3-1v2l3 1zh2l4 1q2 0 1-1l-2-1-3 1zm-3 8a2 7 80 1 1 1-3 2 7 80 1 1 0 3"/><path d="M278 278a1 7 69 0 1 0-2 1 7 69 0 1 0 2m-2-4a2 7 26 0 1-3-1 2 7 26 1 1 3 0"/><path d="M278 274a1 7 42 0 1-3-1 1 7 42 0 1 3 1"/><path d="M278 276a1 7 53 1 1-2-2 1 7 53 0 1 2 2"/><path d="m272 279-1-2v-2l-2-3v2q0 2 2 3zl2 2 3 4 2-1-2-2-3-1z"/><path d="M268 286a2 7 89 0 1 0-4 2 7 89 0 1 0 4"/><path d="M267 280a2 7 38 0 1-3-2 2 7 38 1 1 3 2"/><path d="M268 283a2 7 67 0 1-1-3 2 7 67 0 1 1 3m2-57a4 1 41 0 1-2 1 4 1 41 1 1 2-1m-2 2a4 1 8 0 1 0 1 4 1 8 1 1 0-1"/><path d="M269 227a4 1 27 1 1-1 1 4 1 27 0 1 1-1m-30 52 10 3 14 8q5 1 7-3-5 2-9 0l-9-6-12-3zm6-49 6-4-7 2v1z"/><path d="m251 231-9-1 6-7-3 6z"/><path d="m244 230 5-4-6 3-1 1z"/><path d="m250 231-9-1 5-7-2 6z"/><path d="m243 231 7-3-8 1-1 1z"/><path d="M249 231h-9l5-8-2 7z"/><path d="m242 231 5-6-6 4v2z"/><path d="M249 232h-9l3-9-1 7z"/><path d="m241 232 6-5-7 3v2z"/><path d="M248 232h-10l6-10-3 8z"/><path d="m240 232 7-6-8 5-1 1z"/><path d="m247 232-10 2 4-11-2 9z"/><path d="m239 234 5-8-7 6v2z"/><path d="m245 233-10 1 5-10-2 8z"/><path d="m238 234 6-6-7 5-1 1z"/><path d="m244 233-10 3 4-11-1 8z"/><path d="m237 235 4-9-6 8v1z"/><path d="m244 234-10 3 3-12-1 9z"/><path d="m236 236 5-8-7 7v2z"/><path d="m243 235-10 3 2-12v9z"/><path d="m235 238 4-9-6 7v2z"/><path d="m242 236-11 3 4-12-1 9z"/><path d="m234 239 6-7-8 5v2z"/><path d="m241 237-11 2 4-12-1 9z"/><path d="m232 238 5-9-7 7v2z"/><path d="m241 236-11 5 2-14v11z"/><path d="m232 240 5-10-7 9v2z"/><path d="m240 237-12 6 3-14v11z"/><path d="m230 242 4-11-6 10 1 2z"/><path d="m238 238-11 6 2-14v10z"/><path d="m230 243 6-9-8 8-1 2z"/><path d="m238 238-10 8-1-14 3 10z"/><path d="m230 244 1-12-3 11v2z"/><path d="m237 239-10 8-1-14 3 10z"/><path d="m229 246 3-12-5 11v2z"/><path d="m237 239-10 10-2-15 4 11z"/><path d="m229 247 1-12-3 12 1 2z"/><path d="m236 241-10 9-1-15 2 11z"/><path d="m228 248 4-11-6 10v3z"/><path d="m236 241-9 10-2-14 3 10z"/><path d="M228 249v-12l-2 12 1 2z"/><path d="m235 242-9 10-3-15 4 11z"/><path d="m228 250 1-12-3 11v3z"/><path d="m234 242-8 11-4-14 5 10z"/><path d="m228 251-1-12-2 12 1 2z"/><path d="m234 243-7 11-5-14 5 10z"/><path d="m228 252 2-12-4 12 1 2z"/><path d="m234 244-7 12-6-13 6 9z"/><path d="m228 253-3-11 1 12 1 2z"/><path d="m233 246-6 12-6-14 6 9z"/><path d="m228 256-1-12-1 12 1 2z"/><path d="m234 247-7 11-6-13 6 9z"/><path d="m228 257-2-12v12l1 2z"/><path d="m233 248-8 12-5-14 6 9z"/><path d="m227 258 1-12-3 11v2z"/><path d="m233 249-6 12-7-13 7 9z"/><path d="m227 259-4-11 1 12 2 1z"/><path d="m232 250-4 13-8-11 8 7z"/><path d="m230 260-4-11 2 12 1 1z"/><path d="m232 251-4 13-8-11 7 7z"/><path d="m230 262-5-11 3 12 2 1z"/><path d="m232 252-3 14-9-10 8 6z"/><path d="m230 263-3-11 1 12 1 2z"/><path d="m232 253-1 14-11-9 9 5z"/><path d="m230 264-7-8 6 10 2 1z"/><path d="m232 254-1 15-10-9 8 5z"/><path d="m231 266-6-10 4 11 2 2z"/><path d="m233 256-1 14-11-8q4 4 9 4z"/><path d="m232 268-7-9 5 11h2z"/><path d="m233 258-1 14-11-8 9 4z"/><path d="m233 269-5-10 2 11 2 2z"/><path d="M233 259v15l-11-7 9 3z"/><path d="m233 269-9-6 8 8h2z"/><path d="m233 260 1 14-11-6 9 2z"/><path d="m234 271-7-8 6 10 2 1z"/><path d="m234 261 2 14-12-5 9 2z"/><path d="m236 273-9-7 8 9h2z"/><path d="m234 263 3 14-12-4 9 1z"/><path d="m237 274-7-9 5 11h2z"/><path d="m234 264 5 14-13-3h10z"/><path d="m237 274-10-2 10 5 2-1z"/><path d="m235 265 4 14-12-3h9z"/><path d="m239 275-10-5 9 8 2-1z"/><path d="m235 266 7 12h-13l9-2z"/><path d="m240 276-10-3 10 6 2-1z"/><path d="m236 267 7 13h-13l9-2z"/><path d="m242 277-10-6 8 8h3z"/><path d="m236 268 9 12-13 2q5-1 9-4z"/><path d="M242 278h-10l10 3 2-1zm6-50 8-1zm4 2-7-3 8-3-5 3z"/><path d="m248 228 7-2zl-1 1z"/><path d="M253 230h-9l6-6-3 5z"/><path d="m245 229 8-1h-7z"/><path d="m251 231-8-2 7-4-4 4z"/><path d="m245 229 6-3-7 2-1 1z"/><path d="m251 231-7-2 5-5-3 4z"/><path d="m245 229 5-2-5 1-1 1zm-4 48h-11l11 3 2-2z"/><path d="m243 278-11-3 10 5 2-1z"/><path d="M245 278h-11l11 3 1-1z"/><path d="m238 271 10 10-13 3q5-1 9-4z"/><path d="m246 279-11-4 10 6h2z"/><path d="m239 272 10 9-11 4 8-5z"/><path d="m247 280-10 2h10l2-1z"/><path d="m245 279-11 1 11 2 2-2z"/><path d="m247 279-11-1 10 4 2-1z"/><path d="M249 280h-11l11 3 1-2z"/><path d="m241 273 11 10-12 4 8-5z"/><path d="m250 280-11-2 11 5 2-1z"/><path d="m242 274 12 8-12 6 8-6z"/><path d="m251 281-10 3h11l1-2z"/></g><path fill="#fedf00" stroke="#000" d="m265 266-8-5-8 5 3-9-8-5h9l4-9 3 9h9l-7 5z"/></svg>