<svg xmlns="http://www.w3.org/2000/svg" viewBox="0 0 512 512"><defs><clipPath id="sa-a"><path d="M124 0h496v496H124z"/></clipPath></defs><g fill-rule="evenodd" clip-path="url(#sa-a)" transform="translate(-128)scale(1.0321)"><path fill="#165d31" d="M0 0h744v496H0z"/><path fill="#fff" d="M188 141c-1 11-2 32 8 34 11 1 5-21 9-24q1-3 3 0v18q0 8 6 9 4-1 7 3l1 31s7 2 8-17c0-12-3-22-1-24q1-3 5-1 3 4 9 4 12-3 12-11l-3-17-1-4q2 3 4 0l-7-10q-4-4-8 3a26 26 0 0 0 6 17l2 9q-3 2-6-1l-6-5c2-10 0-11-1-14l-3-8h-5c-3 5-1 14 1 19l2 6q-1 3-4-1l-2-17c0-4-1-14-4-16q-2-3-5 1v13l4 21c0 9-6 4-6-1 2-6 1-16 0-19q-1-3-4-3-5 0-8 14l-2 9c-1 4-3 7-6-1-1-6-2-21-5-17"/><path fill="#fff" d="m220 188-31 15c0-7 15-20 24-20 7 0 5 3 7 5"/><path fill="#fff" d="M215 198c-17 42 38 48 44 2q2-4 3-1c-1 42-42 45-49 32q-3-6-2-15c-1-8-6-5-6 4l-1 10c2 33 55 18 64-9 4-15-1-26 1-26 5 6 13 1 14-1q2-2 4-1c4 3 11 2 13-3l2-16-6 3-1 5q-1 2-3-1-4-9-10 3-4 2-7-1 2-9-6-4l-5-35q3 2 6-1c-2-6-7-19-9-20h-3q-5 1-5 7l8 51q1 4-3 4c-4-2-5-8-12-8q-9 2-11 11v12q5 5 11 2 4-3 7-3c0 1 0 11-14 18q-14 7-19-2c-2-5 0-21-5-17"/><path fill="#fff" d="M284 155c3-1 19-19 19-19l-3-2v-2q5-4 1-10h-8q-5 5-2 10 5 2 3 4c-6 7-24 19-22 19zm-94 63c-6 9-6 23-3 27l6 3c4-2 6-9 5-12q-1-3-4-1c-2 5-3 2-3-1v-15q1-5-1-1m249-15-16-29-24-35c-6-7 10 3-2-11l-8-7q-5-5-8 0l1 9 4 7q28 36 52 84c3-2 3-16 1-18"/><path fill="#fff" d="M414 244c-1 1 3 6 8 6q12 0 23-18 3-5 5-14a298 298 0 0 0-6-75l4-1c1-2-4-14-7-18q-2-5-3 0-3 5-3 13l8 79-2 8a78 78 0 0 1-27 20m113 0q-9 6-1 7c8-1 18-2 25-12 2-3 4-11 4-15q2-40-4-69-2-5-1-8l4-1c1-1-7-12-10-17q-1-4-3 0-3 6-2 13c5 30 8 53 8 79l-1 7-9 10z"/><path fill="#fff" d="M532 217v-19l-3-13-2-11-2-16-1-9 4-1c1-2-5-18-8-22q-1-3-6 2-2 4-1 12 10 45 10 89c0 3 9-7 9-12m-45-39c-3 0-11-8-14-12l1-6q2-2 5-1l1 3q3 1 4-1l-1-4q3-6 8-2l2 8h-3q-3 1-2 3zm-69 46c1-9-1-26-1-32l-3-43c-1-8 3 1 2-4q-2-10-11-21-1-3-4 1c-3 7 0 11 0 16q6 25 7 47l1 48q5-1 9-12"/><path fill="#fff" d="m545 209-20-28-28-36c-8-9 4-2-2-8l-9-10c-2-1-4-4-4 1l-1 10 4 7q32 36 59 82c3-2 2-16 0-18z"/><path fill="#165d31" d="M243 189q-2 1-1 3l2 1h3l1-4q-3-2-5 0"/><path fill="#fff" d="m467 351 23 2 9-1c10-1 11 14 11 14 0 10-4 10-8 11q-4-1-6-4l-7 1-11-1h-10q-1 3-4 3c-2 0-4-6-4-10q2-3 1-4l-108-2-83 3c-15-1-26-3-34-14 1 0 37 2 48 1l59-2q60-1 119 3c-4-2-4-9 2-10l2 3c4 0 2 6 1 7M307 131c-6 17 3 36 10 34 5 2 8-7 10-17q2-3 3-1c-1 13 1 16 4 20a11 11 0 0 0 14 0l6-6h5l5 6c4 2 11 1 12-2l4-6q3-3 4-1l-1 4q3 2 4 1c4-2 6-11 6-11q0-3-2-2l-3 2q-4 3-8-1l-3-11c0-1-2-6 0-6q3 1 4-1 0-5-5-11-4-4-9 0l-2 6 2 8q5 7 5 17s-2 4-6 3c-2 0-5-1-6-11-1-8 0-19-3-24-1-3-2-6-5-1q-3 2-2 12a35 35 0 0 1 2 18l-3 5q-5 4-8 1-3-1-4-6l-1-20q-4-5-6-1a46 46 0 0 0-11 22c-2 6-4 4-5 2-3-3-3-26-7-22"/><path fill="#fff" d="M325 169c3-2 2-4 6 0a70 70 0 0 1 9 31q0 4 2 3c0-5 15-14 28-15q2-1 1-6-1-12 11-14 13 2 12 13c-1 15-16 17-24 18q-3 2 0 2h35l2 1-2 3q-3 5-3 11l-33 6q-6 3-5 8c1 3 10 6 10 7q3 1-1 8-26-2-35-19-2-1-4 2a55 55 0 0 1-25 20q-12 2-17-5l-3-6c-4 1-36 15-31 9 7-9 21-15 33-23 1-3 2-12 7-15l-1 8v2c1-1 16-12 17-16v-7c-3-7-6-7-8-11q-2-8 2-11 3-3 8 0 4 5 6 12h-5l4 7q2 10-1 16c-6 14-14 18-22 23q-1 1 3 5h9a53 53 0 0 0 21-23q2-10-2-21l-6-16q0-5 2-7m-93-38c4 2 12 1 12-5l-1-3q-1-3-3 0v2q-2 1-2-1l-1-2h-2v2l-1 1h-1v-3h-1q-4 1-3 3s0 5 3 6"/><path fill="#fff" d="M352 182c4 2 14 1 11-6v-3q-2-2-4 1v2q-1 1-2-2v-1h-2v2l-1 1-1-1h-1v-2l-1-1q-2 1-2 4s0 5 3 6m70-21c4 2 11 1 11-5v-4q-2-2-4 1v2q-2 1-2-2v-1h-2l-1 2v1l-1-1h-1v-2l-1-1q-2 1-2 4s-1 5 3 6m36 53c-7 8-4 21-3 24q3 6 9 10 6 3 9-1c4-5 4-16 6-18q4-5 7-1l6 5q6 5 13 1 4-2 7-9c2-5 1-31 1-45l-4-21-1-12v-1l2 1q2-1 1-4l-9-18q-1-1-3 1l-3 5 2 13 4 22 2 44q-1 10-4 13h-5l-7-10q-4-4-7 0-7 11-12 23-2 4-7 0c-8-11-3-26-4-22m-35-91c4 1 7 9 6 12q-2 9-4 9c-2-1 1-4-1-9-1-2-6-7-5-8q0-5 4-4"/><path fill="#fff" d="m470 218-1-20-7-49c-2-7 5-1 4-5l-10-18q-1-4-3-1a41 41 0 0 0-2 19c6 31 12 57 11 87 3 0 6-7 8-13m62-83c3 2 5 11 5 14q-2 9-4 9v-9l-5-10q0-4 4-4m-248 66c3 1 5 8 5 10q-1 7-4 7v-7c0-3-5-5-5-7q1-4 4-3"/><path fill="#165d31" d="M361 211q7 3 3 5-7 2-8 8c2 8-2 5-4 4-2-2-9-6-10-14q1-3 4-4z"/><path fill="#fff" d="M199 121c5 1 5 8 5 10q-2 7-4 7l-1-7-4-7q0-5 4-3m93 32q-6 5-3 11 4 3 6 2c3 1 6-7 6-7l-4 2q-2 1-3-1l1-6q0-2-3-1m27-35q-4 2-6 9l1 4q3 3 5 0l2-3c1-3-3 1-3-2q-1-4 3-7 0-3-2-1m22 4-2 10q1 5 5 1l2-12q-2-6-5 1m137 70 20-14c2-1 1 7 0 7a75 75 0 0 1-20 14c-1 0-2-6 0-7m17 0c4 1 5 11 5 14q-1 8-5 8v-8c-1-3-4-9-3-10q-1-5 3-4m-112 42 5-5h4l-1 7q1 2 3 1 4-2 9-2c2 0 2 4 1 4l-12 4q-3 1-4-1v-3q0-3-2-3h-3zm132 5q2 1 0 3l-3 3q-2 3 1 4c3 1 11-5 11-5q2-2 1-3h-4q-1 1-1-2l1-3q1-2-2-3h-5l-2 3z"/><path fill="#165d31" d="M384 184h-4q-3-2-2-4h4q3 2 2 4m-86-52-3-2v-3q2 0 3 2 1 3-1 3m171 231 27 1c2 1 0 5-1 4h-7c0-3-8-2-8 0h-11z"/></g></svg>