<svg xmlns="http://www.w3.org/2000/svg" viewBox="0 0 512 512"><defs><clipPath id="sb-a"><path d="M0 0h496v496H0z"/></clipPath></defs><g fill-rule="evenodd" clip-path="url(#sb-a)" transform="scale(1.0321)"><path fill="#0000d6" d="M0 491 957 0H0z"/><path fill="#006000" d="M992 0 26 496h966z"/><path fill="#fc0" d="M992 0h-53L0 470v26h53L992 27z"/><path fill="#fff" d="m39 96 12-33-31-21h38L69 9l12 33h37L88 63l11 33-30-20zm185 0 12-33-30-21h37l11-33 12 33h37l-30 21 12 33-31-21zm0 140 12-33-30-21h37l11-33 12 33h37l-30 21 12 33-30-20zm-92-69 12-33-30-21h37l11-33 12 33h37l-30 21 11 33-30-21zm-93 69 12-33-31-21h38l11-33 12 33h37l-30 21 11 33-30-21z"/></g></svg>