<svg xmlns="http://www.w3.org/2000/svg" viewBox="0 0 512 512"><path fill="#012169" d="M0 0h512v512H0Z"/><path fill="url(#sh-ac-ac-h)" d="M395 251s-18-21-32-23q-21-4-26 3c-5 3-18 14-20 22l18 1s4-8 16-7 14 4 13 5q-2 3 4 7c5 2 7 7 7 7l8-4 3-3 4-2 3-2z" transform="translate(245 196)scale(.48468)"/><path fill="#d5ccc0" d="M421 306s10 8 11 11c0 2-6 7-6 7l1 1 3-2 1-1 2-1h1l2-2 1-2s-6-7-13-10z"/><path fill="#fdf2e8" d="M401 319s7-12 12-13l-4 1-10 12"/><path fill="#494037" d="M436 318h-2v3zm-4 2h-1l-1-1v-2zm-2 3-1-1-2-1v1l-1 1 1 2zm-6-2h2v-1h-3zm-3-2 2 1v1zm2-2 2 1 1 1q-3 1-3-2m0-2 2 2q3 0 3-2l-2-3h-3zm6 1 2-3 3 2-1 1-2 1zm0-6s0 4-1 3l-3-3 1-2zm-9 4 1 1h2l-2-2zm2-4h2l1-2-1-1-3-1v2zm-4-2 2 1v-2zm-1 7 1-2-3 1q0 2 2 1m1 0h1zm0-3q2 0 0-1h-4l2 2zm-2-3 1-1q-2 0-1 1m-3-3 2 2-2 2h-3q-2-2-1-3zm-4 7q-1-2 2-2l1 1 2 1-1 1-2 1zm-1-2-3 2v3h2q2-1 2-3zm2 4h-2l-2 2h3zm-9 4 2-3q0-2 1-1l2 3-1 1z"/><path fill="#494037" d="M402 316v1l-1 1z"/><path fill="none" stroke="#000" stroke-miterlimit="10" d="M437 317s-9-9-16-11q-10-1-13 2c-2 1-9 7-9 11h8s2-4 8-4q8 2 6 3 0 2 2 3l4 4"/><path fill="url(#sh-ac-ac-d)" d="M122 251s18-21 32-23q21-4 27 3c4 3 18 14 19 22l-18 1s-4-8-16-7-14 4-13 5q2 3-3 7c-5 2-7 7-7 7l-9-4-2-3-5-2-3-2z" transform="translate(245 196)scale(.48468)"/><path fill="#d5ccc0" d="M320 306s-10 8-11 11c0 2 6 7 6 7l-1 1-3-2-1-1-2-1h-1l-2-2-1-2s6-7 13-10z"/><path fill="#fdf2e8" d="M340 319s-7-12-12-13l4 1q6 4 10 12"/><path fill="#494037" d="M305 318h2v3zm4 2 2-1v-2zm2 3 2-1v1l1 1-1 2zm6-2h-2v-1h3zm3-2-2 1v1zm-2-2q-2-1-2 1l-1 1q3 1 3-2m0-2-2 2q-3 0-3-2l2-3h3zm-6 1-2-3-3 2 1 1 2 1zm0-6s0 4 1 3l3-3-1-2zm9 4-1 1h-2l2-2zm-2-4h-2l-1-2 1-1 3-1v2zm4-2-2 1v-2zm1 7-1-2 3 1q1 2-2 1m-1 0h-2zm0-3q-2-1 0-1h4l-2 2zm2-3-1-1q2 0 1 1m3-3-2 2 2 2h3q2-1 1-3zm4 7q1-2-2-2l-1 1-2 1v1l3 1zm1-2 3 2v2l-2 1q-2-1-2-3zm-2 4h2l2 2h-3zm9 4-2-3q0-2-1-1l-2 3 1 1z"/><path fill="#494037" d="M339 316v1l1 1z"/><path fill="none" stroke="#000" stroke-miterlimit="10" d="M304 317s9-9 16-11q9-1 13 2c2 1 8 7 9 11h-9s-2-4-7-4q-8 2-7 3 2 2-1 3l-4 4"/><path fill="#fff" d="m323 318 1 55c1 5 4 34 46 51 0 0 32-13 41-33 8-19 6-55 6-55v-19z"/><path fill="#1b81b6" d="M417 334s-7-4-13-4-12 8-17 8-9-6-17-6-9 6-15 6-12-8-17-8c-6 0-14 5-14 5v18s8-5 14-5 12 7 17 7 7-6 15-6c9 0 11 6 17 6s10-8 17-8c6 0 13 5 13 5zm-84 62 5-1c6 0 12 8 17 8 6 0 7-6 15-6 9 0 12 6 17 6s10-8 17-8l4 1c5 1-29 28-38 28-8 0-41-27-37-28m81-15-10-3c-7 0-12 8-17 8-6 0-8-6-17-6-8 0-9 6-15 6-5 0-12-8-17-8q-7 1-12 4c-1 1-2-13-2-13s8-5 14-5c5 0 12 7 17 7s7-6 15-6 11 6 17 6 10-7 16-7c7 0 14 4 14 4s-1 14-3 13"/><path fill="url(#sh-ac-ac-i)" d="m404 398-1 1zm-74-15 1 3zm42-42-41 45q1 7 7 13l32-35h1l1-1 32 35 7-15z"/><path d="m328 385 42-45 43 45-3 6-7 9 1 1v-1l-34-36-34 36v1l1-1-4-5zl5 11 4 5v1l34-37 34 36 7-10 2-6-43-47zm-4-68"/><path d="M373 316v2h44l-1 31-1 16v8l-2 8q-1 7-6 14l-10 12-13 9-7 4-7 3h1-1l-6-3-7-4-13-9-10-12-7-14-1-8-1-4v-20l-1-31h-1l1-1v1h31l-1-2h-32v1l1 48v4l1 4 1 8 7 15a66 66 0 0 0 23 22l7 4 8 4h1l7-4 7-4 13-9a62 62 0 0 0 17-28l2-8v-8l1-16v-33z"/><path fill="#979696" d="m412 380-1 2 2 2 1-3v-1zm2-30v15l1 1v-2l1-14zm1-32-1 15 2 1 1-16z"/><path fill="#2a647e" d="M414 333v17l2 1v-17zm0 33-2 14h1l2-7v-6zm-12 34a93 93 0 0 1-32 22v1l7-3 7-4 13-9z"/><path fill="url(#sh-ac-ac-j)" d="m411 383-8 16 1 1 3-5 5-10z"/><path d="M403 399h1zm8-17v1l1 2 1-1zm-41 41"/><path d="M416 341v10l-1 14v8l-2 7v1l-1 4-5 10-4 5-6 7-13 9-7 4-7 3h1-1v1l16-8c30-19 30-38 30-65zm1-23h-2zv9z"/><path fill="#fff" d="M329 381h-1z"/><path fill="#00b5d2" d="m327 367-2 1 1 5 1 8 2-1z"/><path d="m325 368 2 14v-1l-1-8z"/><path fill="#00b5d2" d="m326 334-2 1 1 10v7l2-1z"/><path d="M325 345v7-3zm5 37"/><path fill="#00b5d2" d="M338 399v1l6 7 13 9 7 4 6 3v-1a94 94 0 0 1-32-23"/><path fill="url(#sh-ac-ac-l)" d="m370 340-40 43 1 3-1-3-1 2 5 10 3 4h1l-7-13 41-45z"/><path d="M338 399h-1l1 1zm-8-16-2 1 1 1zm40-44-40 43v1zl2 1zm0 84"/><path d="M328 384q5 16 27 31l15 8v-1l-6-3-7-4-13-9-6-7-4-5z"/><path fill="url(#sh-ac-ac-m)" d="m372 363-1 1 32 35 1-2z"/><path d="m371 364 33 35z"/><g transform="translate(245 196)scale(.48468)"><path fill="#fff" stroke="#000" stroke-miterlimit="10" d="m248 298-20-7a13 13 0 0 0-10 1q-5 3-6 1l3-4 8-3-6 1-6-1q-4 1-7 6h-5q-4-2-10-1l-20 7q-4 2 5 3l14-2q4-1 7 3 4 3 6 0 3-2 3 1l1 4c-2 1-7 4-6 5l2 1c0 7 7 5 7 5s8 2 8-5l2-1-6-5c-2-1 1-2 1-4q0-4 2-1 4 3 7 0 4-4 7-3l14 2q9-1 5-3z"/><circle cx="211" cy="289" r="1"/><path fill="#fed468" stroke="#000" stroke-miterlimit="10" d="M206 303v7q3 1 2-1l-1-5m4-1v7q-2 1-2-1l1-5"/><path fill="#b5b5b6" d="M189 293h5l7 3-2 1-6-3q-3 2-4-1m14 8c-2 0 3-5 2-3v5q0 4-1 0zm22-8q-2-2-5 1l-6 2q-2 2 1 2l6-3c3-2 4 0 4-2m-12 8c2 0-2-5-2-3l1 5q-1 4 1 0zm-6 10h6q3 0 0 1l-4 2q-4-1-3-3m-35-14s-2 3 2 2l9-1q6-2 9 0 0 3-1 1h-4l-13 2c-3-1-8-1-6-3zm73 0s2 3-2 2l-9-1q-7-2-9 0-1 3 1 1h4l13 2q6-1 6-3z"/><path fill="#fff" stroke="#000" stroke-miterlimit="10" d="m348 298-20-7a13 13 0 0 0-10 1q-4 3-6 1l3-4 8-3-6 1-6-1q-4 1-7 6h-5q-4-2-10-1l-20 7q-4 2 5 3l14-2q4-1 7 3 4 3 6 0 3-2 3 1l1 4c-2 1-7 4-6 5l2 1c0 7 7 5 7 5s8 2 8-5l2-1-6-5c-2-1 1-2 1-4q0-4 2-1 4 3 7 0 4-4 7-3l14 2q9-1 5-3z"/><circle cx="311" cy="289" r="1"/><path fill="#fed468" stroke="#000" stroke-miterlimit="10" d="M306 303v7q3 1 2-1l-1-5m4-1v7q-2 1-2-1l1-5"/><path fill="#b5b5b6" d="M289 293h5l7 3-2 1-6-3q-3 2-4-1m14 8c-2 0 3-5 2-3v5q0 4-1 0zm22-8q-2-2-5 1l-6 2q-2 2 1 2l6-3c3-2 4 0 4-2m-12 8c2 0-2-5-2-3l1 5q-1 4 1 0zm-6 10h6q3 0 0 1l-4 2q-4-1-3-3m-35-14s-2 3 2 2l9-1q6-2 9 0 0 3-2 1h-3l-13 2c-3-1-8-1-6-3zm73 0s2 3-2 2l-9-1q-7-2-9 0-1 3 1 1h4l13 2q6-1 6-3z"/><path fill="#fff" stroke="#000" stroke-miterlimit="10" stroke-width="2" d="m311 433-27-9c-3-1-10 0-12 2-3 2-9 2-8 0q3-2 4-5c1-3 9-4 9-4l-8 1h-6c-4 0-8 5-10 7a5 5 0 0 1-7 1c-2-3-9-4-12-2l-28 9q-4 2 7 3c8 1 17 0 19-2 3-2 7 2 9 4s7 2 9 0q3-3 3 2 2 4 1 5c-3 1-8 5-7 6l2 1c0 9 10 8 10 8s10 1 10-8l2-1c1-1-5-5-7-6-3-1 0-2 0-5q1-5 4-2 4 3 8 0c3-2 7-6 9-4a48 48 0 0 0 20 2q11-1 6-3z"/><circle cx="262" cy="421" r="1"/><path fill="#fed468" stroke="#000" stroke-miterlimit="10" d="M256 440v9q3 0 2-1l-1-7m5-1v6q2 2 0 3l-2-1 1-7"/><path fill="#b5b5b6" d="M234 427c0-2 5-1 6 0l8 3q3 1-1 2l-8-4q-5 2-5-1m18 10c-3 0 3-7 2-3v6q0 4-1-1zm28-11q-1-1-6 2l-8 3q-3 2 1 2 5-1 8-4c4-2 6 0 5-3m-15 11c2 0-3-7-3-3l1 6q-1 4 1-1zm-9 13c2-1 4 2 5 0h4q3 2 0 2c-3 0-2 2-5 1q-6 1-4-3m-46-18s-2 4 3 2l12-1q9-3 12 0 0 3-2 1-3-1-5 1c-2 2-14 2-17 2-4-1-10-2-7-4zm97 0s2 4-3 2l-12-1q-9-3-12 0 0 3 2 1 3-1 5 1c2 2 14 2 17 2 4-1 10-2 7-4z"/><path fill="url(#sh-ac-ac-n)" d="m204 137 13 30h84l12-30-54-126Z"/><path fill="#83c453" d="m204 137 13 30h3l-13-30 52-122 52 122-13 30h3l12-30-54-126Z"/></g><path d="m370 201 27 61-6 15h-41l-6-15zm0-2-1 2-26 61v1l6 14 1 1h41l1-1 6-14v-1l-27-61z"/><g transform="translate(245 196)scale(.48468)"><path fill="#fff" d="M446 111c21 9 19 24 10 27h-19c16-4 9-27 9-27m-81 75-16-29c-15-21-16-28-16-28l4 2-1-5q-1-6 9-15c3-2 9-1 9-1l-1 7c0 3 0 8 8 23l3 6-6 4a10 10 0 0 0 9 2q9 20 10 33c0 11-8 31-36 35q17-3 18-21c1-11-10-17-22-15 0 0 5-6 14-6s14 8 14 8m-203 19 13 2a52 52 0 0 0 30-12l22 29c-8 4-11 17-11 17a19 19 0 0 1-3-19v1c-3 5-13 7-13 7l4-18q2 1-12 9c-14 8-31 3-43-11-9-10-8-25-6-36v3q1 23 19 28m-8-104q10-1 13 13c-7-1-18 9-18 20q0 8 5 13l6 6a22 22 0 0 1-17-11q1 1-2 13c-11 21-27 19-27 19a52 52 0 0 0 12-19l11-22q2-7-3-4s-21 16-31 19q-4 2-12 0a26 26 0 0 1-14-10c22 0 57-23 58-24 0 0-13 5-25 1-12-3-27 7-27 7s1-7 7-11c5-3 19-3 19-3s-3-1-6-6c-3-4 2-12 2-12a33 33 0 0 0 11 12c4 3 18 0 24-1z"/><path fill="#dedede" d="m210 202-3 7 5-5zm8 10-5 10 7-8zm-71-89s-5 5-4 13 3 2 3 0v-4zm6-9s-10 9-16 10c-5 0 1 2 3 3q3 0 3-2c0-1 13-12 10-11m-17-7s5-3 14-2 17 3 9 3-25 7-25 7 15-6 7-7c-8 0-5-1-5-1"/><path fill="#2b5f31" d="M170 109s-1 18-11 33a73 73 0 0 0-14 35c0 7 17 24 17 24s4-18 10-19c7-1-1-5-8 0q-11 9-8-1c2-6 12-19 18-26 5-7 16-22 10-20q-6 2-4-1c0-4 2-17-4-23q-7-9-6-2"/><path fill="#294527" d="m158 174-7-5c-3-2-2-6 3-3l6 5m-13-2 9 8s-4 9-3 12 7-7 11-7-2 5-2 9v13q-1 1-11-5c-5-5-6-21-4-30m23-50s5 4 5 10c1 7-4-4-5 2-2 5 6 4 2 7-3 2-7-5-7-5s5-9 5-14"/><path fill="#172716" d="M170 120s5 5 6 9c1 3 1 8-1 4l-7-9zm-19 79s-2-8-1-16-2-10-2-3l-1 15z"/><path fill="#294527" d="M78 114s-5 10-5 15c2 11 12 17 12 17s-26-6-26-18c-1-12 19-14 19-14"/><path fill="#fff" stroke="#000" stroke-miterlimit="10" d="m301 96 5-1q3 2 6 1l3-12-8-1-4-1"/><path fill="#2b5f31" d="M371 114s6 26-10 34c0 0-4 4 3 4s13-10 13-10l2 9 4-3-4-27z"/><path fill="#294527" d="M456 138s-23 5-54-14c-18-12-16-13-16-13s-14-9-17-4c-3 6 9 13 11 26 3 14 5 0 5 0l-2-5s26 21 36 23c9 2 36-15 37-13"/><path fill="#294527" d="M374 106s9 8 21 12h21c7 1 16-1 19 2 1 0-9-13-25-13-15 1-36-1-36-1"/><path fill="#2b5f31" d="M423 119s-2-10-19-11c-16 0-28-1-6-3 18-6 10-14 10-14s12 1 11 8c-1 8-3 8-3 8s16 2 22 15c0 0-4-5-15-3"/><path fill="#172716" d="M412 110s6 1 5 4-3 2-4 1q-3-2-1-5"/><path fill="#294527" d="M346 110s13-4 20 3c8 8-2-9 13-6s-16-6-27-3c-11 4-15 14-15 14s6-7 9-8"/><path fill="#2b5f31" d="m455 138-10 3c-4 2-19 6-25 3-7-3-5-4-3-5q1-4-3-2c-2 2-7 2-4 0q3-5-1-3c-2 1-5-5-7-4-3 1-2 4-6 4-4-1-19-20-16 1 2 20-2 13 1 18q3 11 17 14-1 1-6-12l-4-14-4-9-2-5 11 9s13 10 19 12l15 4z"/><path fill="#2b5f31" d="m400 125-8 3c-1 1 2 6 5 4l5-6h2l-6 6q-1 2 2 3c2 2 17 14 31 11 0 0-2 4 1 4l-5 2s-9 1-19-6l-26-19 12-8z"/><path fill="#294527" d="M432 150s-19-2-34-13l-19-15s8 17 5 18q-7 3-2 4 4 2 0 3c-1 0-5 1-2 1s-3 4 0 12c4 7 16 12 23 13l-5-6s-6 0-11-6c-3-3 6 5 4-4q-2-8-6-8h5l-1-5s-5 1-3-1l2-1-5-13 14 10s17 13 29 13z"/><path fill="#172716" d="m420 149 10-6q2-1-2-3-5-2-7-1l-5 6z"/><path fill="#294527" d="M414 96s2 1 2 5-8 5-8 5z"/><path fill="url(#sh-ac-ac-z)" d="m235 90-1-9v-5l-1-19h-3l1 19v15"/><path fill="url(#sh-ac-ac-y)" d="m284 84-1-11V55h-3v19l1 10"/><path fill="url(#sh-ac-ac-x)" d="m299 109 2-11 1-4 3-14h-3l-3 13-1 6-2 10"/><path fill="url(#sh-ac-ac-w)" d="M259 84V74l-1-5V49h3v20l1 5v10"/><path fill="#fff" d="m270 85 25-1s-2 4-6 4-2-1-4 1q-4 2-8 0l-3-1zm-47-9 23-1s-2 4-5 4c-4 0-2-1-4 1q-3 2-7 0c-2-1 0 1-3 1s-6-5-4-5"/><path fill="#bbbaba" d="M231 80s6 1 5-1q-2-2 1-2 2 1 0 3-4 2-6 0m-1-4s-6 1-6 3l-2-1z"/><path fill="url(#sh-ac-ac-v)" d="m304 130 7-13q1-5-2-6l-1-7-21-2-18 4 16 32 17 1z"/><path fill="#804e2d" d="M296 103s-11 1-15 14c-1 4 3 12 3 12s-6-5-6-11-1-14-7-13c-7 1 0 0 0 0s10-4 21-3"/><path fill="#523822" d="m291 111 2-5h-2l-3 5zm5 0 2-4h-2l-3 4zm4 1 2-5h-2l-2 4zm5 0 2-4h-2l-2 4zm-16 17 2-4h-2l-3 4zm4 0 2-4h-2l-2 4zm-6-8 2-6h-2l-3 6zm6 0 2-6h-2l-2 6zm5 1 2-6h-2l-2 6zm6 0 2-5h-2l-2 5z"/><path fill="url(#sh-ac-ac-u)" d="M242 139c-11-5-9-12-18-18l-24-21s18 12 29 15q1 2 10 2v-1h4v1h11q7 2 11-2l4-9 18-2s-7 10-7 13c0 4 2 14 14 22z"/><path fill="#806245" d="M240 138h16l-14-3c-6-1-11-6-11-6"/><path fill="#804e2d" d="m239 130-7-7 3 1c2 1 9 1 12 3l12 8s2 2 9-2c6-3-1 5-1 5s-21 3-28-8"/><g fill="none" stroke-miterlimit="10" stroke-width="0"><path d="m228 120 8 11c4 5 32 8 32 8"/><path d="M268 138s-20-2-33-7m32 5s-20-2-33-7"/><path d="M266 135s-21-2-33-7"/></g><path fill="#804e2d" d="M256 129h12q0 3-5 5c-2 0-9-5-7-5"/><g fill="none" stroke-miterlimit="10" stroke-width="0"><path d="M265 133s-21-2-33-7"/><path d="M264 131s-21-1-33-6m32 4s-21-1-33-6"/><path d="M262 127s-21 0-33-5m32 3s-21 0-33-5"/></g><path fill="#379cd1" d="M321 153s-9 3-11-1c-3-4 0 9 9 7s10-9 10-9z"/><path fill="#dce8f7" d="M202 139s-12-2-13 4 1 14 10 14 21-12 21-15c0 0 14 6 19 3 5-2 8-10 8-10s7 9 17 8c10-2 11-8 11-8s10 11 16 11c6-1 12-9 12-9s4 18 12 18 19-10 12-16c-9-8-12-1-12-1s-2 4-4 1c-2-4-10-12-13-12q-4-1-1 3c0 3 3 9-4 10-5 0-18-14-24-14-5 0-3 0-2 6 2 6 0 5-4 5s-12-7-14-7l-12-2s5 4 5 7q1 4-5 5-9-1-14-4-5-4-11-3-4 1-1 1c1 1 7 5 2 11s-8 4-8 4 2-8-3-10"/><path fill="#1b81b6" d="M317 141s5-4 10 0c0 0-2-6-6-6s-5 6-5 6"/><path fill="#379cd1" d="M201 147s2 4-1 4q-6 3-6-4c2-6 7-4 8-3l2 7s-2-6-3-4"/><path fill="#1b81b6" d="M199 147s2-1 2 1 0 3-3 3q-5-1-3-4l4 1"/><path fill="#379cd1" d="M204 161c-6-1-15-6-16-11v-1a14 14 0 0 0 13 5q9-1 14-8 3-3 2-7v-1h1l3 2a17 17 0 0 0 14 3q7-1 9-6l1-3-1-3h1l7 5q4 4 9 5h1l11-5v-5h1l3 2c2 3 9 10 14 10q5 0 8-3l2-5v-2h1q3 1 3 5c1 4 4 16 10 20l-1 1c-1-1-10-3-11-13v-1l-1-1q-4 5-12 6h-1c-5 0-11-7-13-9l-6 6h-16l-5-6-4 6-9 1-3 2-11-4-3 6-10 8z"/><path fill="#1b81b6" d="M188 150s4 6 13 5c9 0 19-10 17-16l3 2q6 4 14 3 12-3 11-10c-3-5 3 0 5 3q5 4 11 5c4-1 13-4 12-7q-2-6 2-1c3 3 9 10 15 10q10-1 11-9 0-3 2 3c1 4 4 17 10 21 0 0-10-3-11-13v-2s-8 6-14 6c-5 0-13-9-13-9l-6 6-16-1-5-4-5 5-8 2-3 1-11-4-2 6c-1 2-11 9-16 9-5-1-15-7-16-11"/><path fill="#172716" d="M293 191s-2 17 1 24c4 7 18 10 13 4s-14-28-14-28"/><path fill="#405d66" d="m291 246 4 4h-11z"/><path fill="#9bc4c4" d="m290 245 2 2-10 3z"/><path fill="#fff" d="M275 244s7 4 7 6c0 3 0 0 0 0l8-5-6-4z"/><path fill="#9bc4c4" d="m276 244 11-2-5-3-9 4z"/><path fill="#689f9e" d="M274 244s6-3 11-3l-9-5-5 7z"/><path fill="#2b5f31" d="M309 189c6 6 13 17 35 17s9 2 6 6c-4 4-18 9-26 4l-9-4 6 9v11l-11-12-14-38 6-1zm-33 0s1 8 6 17 7 17 22 20c14 3-11-2-11-18v-21zm-14-21s-9 12-6 25c4 13 1 1 7-5l10-11z"/><path fill="#294527" d="M308 198s6 2 10 6a22 22 0 0 0 15 7c4-1 16 0 12 2-5 3-8 7-21 2-14-5-16-17-16-17"/><path fill="#294527" d="M269 163s-9 10-9 13q1 4 6 5c3 0 7-4 7-4s1 15 7 17 12 3 12 0v-9l5 17c2 6 24 36 21 28l-13-29c-4-7-10-23-4-18l8 8-9-17s-15-14-31-11"/><path fill="#3e7438" d="M314 210s-21-35-13-19q13 22 14 21"/><path fill="#172716" d="m315 209-14-26c-1-2-4-1-1 4l13 22z"/><path fill="#3e7438" d="m292 171-1 7q2 2 3-1l2-5zm-24-4 2-4h-3s-8 9-8 15c-1 6 5 7 5 7l2-2s-4-1-5-5l2-6z"/><path fill="#5fa654" d="m294 168 7-7c2-3 1 5 2 7 0 2 5 6 7 0q4-8 0-11c-3-1-9-6-11-5-2 0-4 4-4 4z"/><path fill="#3b7f3d" d="M293 170s5-6 6-10q3-6 4-4l1 13c0 2 5 0 6-3q1-7 2-5 2 3-1 9-5 5-9 5z"/><path fill="#32517f" d="M275 149s5-2 8 0l11 4s2 9 1 14q-2 6-5 2-2-3-10-5l-3-1s5-2 2-8c-3-7-4-6-4-6"/><path fill="#fff" d="M257 148s17-3 19 2c3 5 7 13-1 13h-13z"/><path fill="#3b7f3d" d="m257 149 5 12q-2 4-8 3l-10 2-4-14s1-3 4-3z"/><path fill="#5fa654" d="M246 165s2-2 0-7q-6-8-2-8 6 1 7 7c2 2 7 6 6 0q-2-8 1-8-2-2-5-2h-9c-3 0-7 4-7 4s7 9 7 12z"/><path fill="#32517f" d="m221 157 7 10q0 3 6 0c4-3 4-1 7-3q3-4-1-7c-1-2-14-5-17-4z"/><path fill="#6488bd" d="M233 156s-1 6 4 5c5 0 3-5 2-6l-7-5q-6 0-5 2z"/><path fill="#161341" d="M227 151s9 4 10 6q0 5-3 2l-6-5q-4-1-1-3"/><path fill="#491918" d="M295 250s-8-10-21-14c-12-4 19-11 24-10 5 2 13 5-3 24"/><path fill="#fff" d="M295 250h6s11-10 12-18l-10 4z"/><path fill="#9bc4c4" d="m303 237 10-5s-10 12-14 13c0 0 1 1 3-8"/><path fill="#689f9e" d="M273 193h-62l21 31s-11 15-4 26l8 13 28-10s8-24 29-26l-3-9s-13-9-15-25z"/><path fill="#405d66" d="M251 199s-7-1-15 2-6-1-4-2c1-2-6 0-5 0 2 1-2 1 1 4q3 3-2 3-4 1-5-4-2-7 5-6h28z"/><path fill="#fff" d="M256 236s2-2 3 0c1 1 5 7 2 5z"/><path fill="#405d66" d="M243 242q-1 2 6 2c7 0 4-2 2-6s-19-30-21-30c-3 0 13 23 13 34m21-46s4 8 4 16q1 10 2-2-2-11 1-11 2 1 1 12 1 10-2 11l5-3 4-2 7-2s-9-10-10-19z"/><path fill="#689f9e" d="m276 197-1 14v8l4-2c2 0 0-12 0-12s-3-4-3-8"/><path fill="#405d66" d="m256 196-23 9c-4 2 4-1 6 2l10 20c1 1 6 0 4-4-3-3-9-18-10-18-2-1 6-7 24-8 19-2-11-1-11-1"/><path fill="#9bc4c4" d="M236 261s-3-19 4-16c6 3 6-14-17-38-12-12-6-11-1-11h50s-8-8-14-1l-2-7h-3c-18-1-39 1-47 2s-1 5 1 7l22 29s-8 9-6 16c3 7 13 19 13 19"/><path fill="#689f9e" d="M262 190c-1 0 7-8 10-8 4 0 1 14 1 14s-8-3-13-3"/><path fill="#405d66" d="M261 191s13-13 11-5c-1 9 1 10-3 10h7l-2-19s-9 7-13 14"/><path fill="#689f9e" d="M219 186s3-19 31-22q18 0 16 1c-2 1-10 7-10 21z"/><path fill="#405d66" d="M233 170s-13 6-14 15q0 3 7 1c4 1-2-2-2-3-1 0-3-3 7-9 8-5 11-9 27-8l-3 14c1 1 8-13 9-13l3-4s-32 3-34 6"/><path fill="#fff" d="M228 186s3-8 6-11q5-3 2 2c-2 1 0 4 2 0q3-5 8-7 4 0-2 4c-4 2 6 1 10 6 3 5 0 6 0 6zm-7-1s0-4 5-9c4-5 11-10 11-10s-8 0-25 15c-4 3 9 4 9 4"/><path fill="url(#sh-ac-ac-s)" d="m221 181 35 5v-5z"/><path fill="#405d66" d="m236 166-11 11c-3 3 9-9 26-13m-35 20 40 2v2l-56 1m23 16-8-8q-1-1 5-2h56v2h-50c-2 0 3 6 4 6 1 1-7 3-7 2"/><path fill="#405d66" d="m235 198-4 3 6-1 9-3m16-8s10-8 12-8l1-6s-6 2-13 14m-13-25s8 2 9 4-1 0-9 3c-8 4-4 3-2 3l10 5v-2l-6-4 10-2 1-3-3-2q-1-2 3-1l3 1 2-2-4-1-6 1zm26 19s-3 6-10 7h10m4 30 2-1 7 8m3 0-7-8 5-2 7 6q6 3 5 4zm-10-10v-9l-2-4-1 14m-3 1v-19h-1v20m-47-10s2-2 5-2q4 3-2 4-4-1-3-2m3 5s2-2 5-2q4 3-2 3-4-1-3-2m3 4 5-1q2 2-2 3-4-1-3-2m4 5h3q3 1-2 2-2-1-1-2m3 5h3q2 1-2 2-2-1-1-2m11 2 3-1q3 2-2 3zm3 5 3-1q2 2-2 2-2 0-1-1m-21-6 9 14q0 2 5 1 6-1 2 2-5 2-10 0l-7-16q0-2 1-1"/><path d="M257 180h-31l-6 1h36"/><path fill="#689f9e" d="m235 192 21-2 1 3z"/><path fill="#fff" d="M256 190h-45c-3 0-6 5-6 5h-13l11-9 53 1z"/><path fill="#fff" d="m205 195 24 31s-6 10-6 15l2 6c1 0 3-12 7-17 3-6 3-8-5-15l-21-22m51 11q3-1 4 2t-2 4l-8 2-2-2c-1-1-4-4 0-5zm4 12q5 1 5 4 0 4 2 4l-9 7q-2 0-3-5c-1-2-5-6-2-8zm14 19-8-8-7 4q-2 1 2 4l8 6zm-6-12c-1 1-3 6 1 3s11-7 18-9l-2-2s-9 2-17 8m-15 20q0 6 5 6l1-2-2-3c-1-3-6-5-4-1"/><path fill="#689f9e" d="m295 215 9 9q2 2-4 1c-4-1 1 3 1 3s4 2 3 4l-2 6c-1 1 4 2 10-5 7-7-9-16-17-18"/><path fill="#331312" d="M276 236s32-14 25 7c0 0 8-14-1-16a26 26 0 0 0-25 8z"/><path fill="#6488bd" d="m229 169-4-9q-3-4-2-5l6 2q2 0-4-6l-8 3-3 2 5 3 8 9z"/><path fill="#161341" d="M231 168q0-3-3-7-4-4-1-3 3 5 14 6l-6 2z"/><path fill="#1f411d" d="M243 164s3 1 3-1l-7-11c-2-1 2-5 4-5l-6 2q-3 0-1 3c3 3 8 8 7 12m3-17s4 3 6 8c2 6 4 2 1-2q-3-7-4-6zm9 17-9-9 2 5 1 4zm4-6c0-1 0-4 1-1q3 4 2 6l-5 1q1 1 2-6"/><path fill="#dedede" d="M260 156s3 4 4 3q4-3 8-2c2 1 5 5 5 3l-3-7q-1-5 2-4c1 2 6 12 2 14h-15z"/><path fill="#bbbaba" d="m265 163 1-3 3 3zm12-12s2 9 0 12c0 0 4-1 3-5z"/><path fill="#6488bd" d="M278 153s3-3 3 0c0 2 2 12 2 6s-2-7 2-6c4 0 1-4-1-4l-5-1z"/><path fill="#6488bd" d="m292 152-1 8q-1 2-3-3c-1-2-3-5-2-1q2 7 5 8l2-11z"/><path fill="#161341" d="m280 157 3 8-5-2s2-2 2-6m5 9-2-10q0-3 2 2l5 11c0 1-3-3-5-3m3-15v4c1 1 3 7 3 4l-1-7zm6 2-1 7q2 4 1 8c0 3 2-9 0-15"/><path fill="#1f411d" d="M296 172s3-2 4-6q1-5 1 4c0 5 5 5 6 4 0 0-6 3-8 0s-3-2-3-2m4-20s6 4 5 9c0 4 1 10 2 4v-9zm11 6s3 9-3 15c0 0 6-5 5-8z"/><path fill="#172716" d="M283 165q-6 2-8 6-4 1-6-1c-2-2 1-7 1-7s9 0 13 2"/><path fill="#172716" d="m290 169-1 12q-3 3-7-1c-3-2-2-8 0-10v-5q1-1 8 4m3 1v9c-1 3 2 10 4 12q3 2 2-3c-1-3-2-18 2-10 4 9 16 28 33 27 16 0 0 0 0 0s-12-1-25-17c-4-5-7-13-7-13m-37-3 1 3q2 4 0 2-4-4-3-5l1-1zm-8 21s4-2 6-5q1-2 0 0l-5 8zm21-9 7 5-8-2z"/><g fill="#b2d9bd"><ellipse cx="293" cy="179" rx="2" ry="1"/><ellipse cx="292" cy="176" rx="2" ry="1"/><ellipse cx="304" cy="190" rx="2" ry="1"/><ellipse cx="307" cy="195" rx="2" ry="1"/><ellipse cx="309" cy="200" rx="2" ry="1"/><circle cx="312" cy="205" r="2"/></g><path fill="#3e7438" d="m270 178 9-11c2 0 2-1-1 10-3 10 0 14 0 14s2 8 7 9q7 0 6 4 1 5-5 4c-4-1-1 1 1 4s15 15 9 11a49 49 0 0 1-19-24c-4-11-2-24-2-24zm23 7 6 13c2 5 6 15 8 15h8q0 2-3 3l-4 1q0 2 5 2t5 2s-6 1-5 2l8 8v5s-27-27-28-51m21 25 5 1c2 2 6 6 11 4 4-2 7-9 7-9h4s-1 7-4 9c-3 1 5 3 10-9 0 0 8-2 12-6 0 0 2 13-13 19-17 7-32-9-32-9l10 7m-67-36 3 8-3 4s-2-7 0-12"/><ellipse cx="278" cy="172" fill="#b2d9bd" rx="2" ry="1"/><path fill="#405d66" d="M272 243s3-6 8-5c6 1-5-2-5-2l-6 6z"/><path fill="#294527" d="m296 213-2-11q-1-6 2 1l6 12c0 1-5 1-6-2"/><path fill="#2b5f31" d="m294 201 1 7c1 3 5 5 4 2z"/><ellipse cx="295" cy="204" fill="#3e7438" rx="1" ry="4" transform="rotate(-9 295 204)"/><path fill="#095378" d="M188 151s6 7 16 7c10 1 16-8 18-12 0 0-3 14-17 15-13 0-17-10-17-10"/><path fill="#2b5f31" d="m299 214 3 2z"/><path fill="#095378" d="m222 146-2-3s8 6 14 6c5 0-6 2-12-3m25-1-4 2c-2-1 4-4 4-6q-2-3 4 1l10 5-4 1-8-6zm24 1 4-7q0-2 3 2 2 4 14 9s-10-1-15-8l-4 2zm33-3 3 7c1 2-3 0-2 3 0 0-4-4-1-11m7 8s3 4 7 5c5 0 6 0 11-5q4-5 1-4l-3 3c-1 1-9 8-16 1"/><circle cx="199" cy="148" r="1" fill="#161341"/><path fill="#161341" d="M197 139s7 0 8 11c0 0 2-7 0-9-3-4-8-2-8-2"/><path fill="#379cd1" d="m314 144 4-3c2-1 1-7-2-4l-4 3zm4 0-2 3c1 0 6 1 5-1q-1-2-3-2"/><path fill="#1b81b6" d="M319 144h-1l3 2q1-2-2-2"/><path fill="#161341" d="M320 144h-1l3 1z"/><path fill="#fff" d="M212 157s-9 7-6 13c3 7 11 7 11 7l10-8s-3-10-15-12"/><path fill="#806245" d="m271 114 3-7h-3l-3 7zm7 1 3-7h-3l-3 6z"/><path fill="#523822" d="M297 138s-8-2-10-5l7 7z"/><path fill="#dedede" d="m228 76-5 2c0 1 6 3 4 1-1-3 0 0 0 0l2 1s-2 2-4 1l-5-5zm9 0s5 3 6 2q1-1 0 0h-7c-3-2 0-2 1-2"/><path fill="#dedede" d="M227 79h3q4 2 2 2z"/><path fill="#bbbaba" d="M244 75s0 3-3 3c-4 0 1 2 3-1s2-1 0-2"/><path fill="#fff" d="m250 69 25-1s-1 4-6 4c-4 0-2-1-4 1q-4 3-8 0c-4-3 0 1-3 1s-6-5-4-5"/><path fill="#bbbaba" d="M258 73s7 1 6-1l1-2q2 1 0 3-3 2-7 0m-1-4s-6 1-6 3l-3-1z"/><path fill="#dedede" d="m255 69-5 2c0 1 6 4 5 1-2-3 0 0 0 0l1 1s-1 3-4 1q-6-3-5-5zm10-1s6 4 7 3q2-1 0 0-3 2-7 0c-4-3-1-2 0-3"/><path fill="#dedede" d="m254 72 4 1 2 1z"/><path fill="#bbbaba" d="M273 68s1 3-3 3 1 2 4-1q2-3-1-2"/><path fill="#fff" d="m251 85 23-2s-1 5-5 4l-4 1q-4 3-7 1c-2-2 0 1-3 0-3 0-6-4-4-4"/><path fill="#bbbaba" d="M258 88h6q-2-3 1-2 2 0 0 2-3 3-7 0m-1-4s-5 1-5 4l-3-2z"/><path fill="#dedede" d="M256 84s-5 1-5 3c0 1 5 3 4 0q-1-1 0 0l1 1s-1 3-4 1q-6-3-4-4zm9 0 6 3q2-1 0 0-3 2-7-1c-4-3 0-2 1-2"/><path fill="#dedede" d="m255 87 3 1q4 2 2 2z"/><path fill="#bbbaba" d="M272 84s1 2-3 3c-4 0 2 1 4-1q2-3-1-2"/><path fill="#fff" d="m270 69 23-1s-2 4-6 4-1-1-3 1q-4 2-8 0h-3c-2 0-5-4-3-4"/><path fill="#bbbaba" d="M277 73s7 1 6-1v-2q3 1 1 3-3 2-7 0"/><path fill="#dedede" d="M284 69s5 3 6 2q2-1 0 0h-7c-3-2 0-2 1-2m-10 3h3l2 2z"/><path fill="#bbbaba" d="M291 68s0 3-3 3c-4 0 1 2 3-1s2-2 0-2m-13 21s6 1 6-1v-2q3 1 1 3-4 2-7 0"/><path fill="#dedede" d="M285 85s5 3 7 2q2-1 0 0-2 2-8-1c-3-1 0-1 1-1m-11 3 3 1 3 1z"/><path fill="#bbbaba" d="M293 84s0 3-4 3c-3 0 2 2 4-1q4-3 0-2"/><path fill="#fff" d="m222 91 28-2s-2 5-7 5-2-1-4 1q-5 3-9 1c-2-2 0 1-4 0-3 0-7-5-4-5"/><path fill="#bbbaba" d="M231 95s7 2 7 0v-3q3 1 1 3-6 3-8 0m-1-4s-7 1-7 4c0 0-4-1-3-2 0-2 10-2 10-2"/><path fill="#dedede" d="m227 91-5 2c0 2 7 4 5 1l2 1s-2 3-6 2q-6-5-5-6zm12-1s5 4 7 3q1-1 0 0-2 3-8 0c-4-3-1-2 1-3"/><path fill="#dedede" d="m226 94 4 1 3 2q-5-1-7-3"/><path fill="#bbbaba" d="M247 90s1 3-4 3c-4 0 2 2 5-1q3-3-1-2"/><path fill="url(#sh-ac-ac-r)" d="M235 97v10l1 10h-3l-1-20"/><path fill="url(#sh-ac-ac-q)" d="M281 90v13h3V89"/><path fill="url(#sh-ac-ac-p)" d="m259 90 1 28 2-1 1-1-1-27"/><path fill="none" stroke="#48484a" stroke-miterlimit="10" d="M239 118h4"/><path fill="none" d="M230 51v2m-2-1h3"/><path fill="#dedede" d="M212 175v-6c-1-4 7 0 12 0s-7 8-7 8z"/><path fill="#bbbaba" d="M215 177v-5q0-2 3 0c3 2 9-1 8-5l1 2z"/><path fill="#dedede" d="M206 165s5-4 9-1 11 2 8-2q-6-6-11-5-2 0 0 0c2 0-4 3-6 8"/><path fill="#bbbaba" d="M212 158h4l2 4c-4-3-10-1-9-2z"/><path fill="#dedede" d="m258 150 4-1 6 3c1 1 6 5 5 3v-7s-18-3-15 2"/><path fill="#bbbaba" d="m264 148 5 2 2 1q0-3-2-4z"/><path fill="#dedede" d="m259 151 3 2v4"/><path fill="#3e7438" d="M369 141c-2 3-7 10-4 8 14-10 9-26 8-32-2-5-12-11-18-11q-7 0-10 5l7-2c5 1 17 5 19 16 3 10-2 16-2 16m2-37s7 4 13 5l12 1-9 6 7 1 8-7s15-1 23 4l8 5 5 1s-8-9-20-10c-13-2-14-1-14-1s13-6 9-17l-3-1s5 12-9 15c-14 4-15 0-15 0zm6 40s2-5 2 2q1 11 9 18 9 4 10 3l4 4s-23-2-25-27m1-24 2 14c0 3 6 5 4 0l-3-9s14 12 26 18c13 7 14 6 18 6s20-8 20-8h-4s-12 7-16 7q-6 1-25-11c-14-8-11-9-11-9l8-4-4-3-6 5s-9-8-9-6"/><path fill="#172716" d="M381 153q-2-2 2-2 5 0 5 4 3 4 0 6-3 0-7-9"/><path fill="#2b5f31" d="M397 106s12 1 14-8v-6s8 1 7 8q-4 9-6 8l10 1-5-2 2-8c1-8-5-8-10-8q-2 0 0 2c1 1 5 7-12 13"/><path fill="#172716" d="m405 119-18-4q-5-1 9 8 16 9 18 8l-19-12zm-42 27-1 4c2 0 9-1 11-3 0 0-5 6-11 5l-4-2z"/><path fill="#294527" d="M369 145s2 2 5 0c3-3 1-10 1-10z"/><g fill="#b2d9bd"><circle cx="397" cy="108" r="1"/><circle cx="402" cy="108" r="1"/><circle cx="406" cy="107" r="1"/><circle cx="377" cy="130" r="1"/><circle cx="377" cy="127" r="1"/><circle cx="379" cy="123" r="1"/><circle cx="376" cy="120" r="1"/><circle cx="373" cy="118" r="1"/><circle cx="386" cy="115" r="1"/><circle cx="383" cy="113" r="1"/><circle cx="380" cy="110" r="1"/><circle cx="371" cy="116" r="1"/><circle cx="377" cy="108" r="1"/><circle cx="403" cy="105" r="1"/><circle cx="377" cy="133" r="1"/></g><path fill="#3e7438" d="M79 141s-16-6-17-13 14-11 14-11l2-3s-19 2-19 14 27 19 27 19z"/><path fill="#2b5f31" d="m75 119-5 3h4v1l-10 2c0 2-2 6 12 13 14 8 0 0 0 0l1 2s-15-6-15-12 8-9 13-11 0 2 0 2"/><path fill="#b2d9bd" d="m61 131 3 5 6 3-4-4z"/><path fill="#172716" d="M69 124s-3 5-1 7q3 4-1 1-4-2-3-8 4-3 5-1z"/><path fill="#3e7438" d="M181 126s-2-10-9-15c0 0-1 15-8 24l-8 13 4 5-6-2q-5 12-6 20-1 16 1 25c2 7 0 0 0 0s-8-11-6-24c2-12 9-21 9-21l8 2-6-6s16-22 13-35c-4-14-13-11-13-11s17 0 25 13z"/><path fill="#3e7438" d="m149 161 5 3c2 1 4 5-2 2s-3-5-3-5m11 43c0-17 11-23 11-23s-9 2-15 12c-7 9-5-4-4-12s15-17 15-17-11 14-11 19l5-2s8-4 14-3 5 3 5 3-7 0-10 4a28 28 0 0 0-8 19z"/><path fill="#172716" d="m158 204 2-11c1-3-2-7-8 7"/><path fill="#294527" d="M176 138q-1 3 2 4c3 1-10 14-17 26l4-3 18-23s8-13-7-3z"/><path fill="#3e7438" d="m180 134-4 4c0 2 10-1 10-4l-1-4q-1 3-5 4"/><path fill="#294527" d="M168 137c-1-1-5 0-14 19l-1-2s6-12 12-20zm-4 29s-6-5-7-4q-1 2 1 4l4 3z"/><path fill="#3e7438" d="m153 154 5 6c2 2 1 6-3 3l-5-5z"/><g fill="#b2d9bd"><ellipse cx="152" cy="193" rx="2" ry="1"/><ellipse cx="176" cy="138" rx="2" ry="1"/><ellipse cx="174" cy="143" rx="2" ry="1"/><ellipse cx="171" cy="147" rx="2" ry="1"/><ellipse cx="169" cy="151" rx="2" ry="1"/><ellipse cx="167" cy="156" rx="2" ry="1"/><ellipse cx="152" cy="189" rx="2" ry="1"/></g><path fill="none" stroke="#000" stroke-linecap="round" stroke-miterlimit="10" d="m114 109 1 3m4-3 1 3m5-4v3m18 28 3-1m-3-4h3m-3-5 3 1m-1-4 2 1m-18-20 1 3m85 106 3 1m-5 2 2 2m-9-13 2 2m1-6 2 2m-75-100v3m3 16 2 2m1-4 2 2m2-6 2 2m0-5 2 2m3-6 1 2"/><path fill="#dedede" d="M337 120s11-8 16-6l1-4s-7-2-12 4zm5 18 10 14-7-13zm29 46s-2 0-4 11l-3 12s10-7 7-23m-12 18s1 11-2 14q-7 4-9 3c-2-1 7-3 11-17"/><path fill="none" stroke="#000" stroke-linecap="round" stroke-miterlimit="10" d="m366 202 3 1m-1-5h3m-2-5h2m-2-4h3"/><path fill="none" stroke="#c8102e" stroke-miterlimit="10" d="m310 84-3 11m-4-7 10 2"/><path d="M287 216q-7 0-13 4l-11 8v-1l11-8q6-4 13-4z"/><g fill="none" stroke="#000" stroke-miterlimit="10"><path d="M219 76s3 5 6 5l4-1"/><path stroke-linecap="round" d="m246 75-27 1"/><path d="M236 77s1 2 4 2c5 0 6-4 6-4m-20 3s4 3 7 3l5-2m9 6s3 5 6 5q5-1 4-2"/><path stroke-linecap="round" d="m274 84-27 1"/><path d="M264 86s1 2 4 2q7-3 6-4"/><path d="m254 87 6 3q5-1 6-3m5-15 3 2 2-1"/><path stroke-linecap="round" d="m293 68-18 1"/><path d="M283 70s1 2 4 2q7-3 6-4"/><path d="M273 71s4 3 7 3q3 0 5-3"/><path stroke-linecap="round" d="m295 84-21 1"/><path d="M283 86s2 2 5 2c7 0 7-4 7-4"/><path d="m271 87 9 3q5 0 6-3m-40-18s3 6 7 6q5-1 3-2"/><path stroke-linecap="round" d="m275 68-29 1"/><path d="M264 70s1 2 5 2c5 0 6-4 6-4m-21 3s3 3 6 3q6 1 6-2m-49 19s3 6 8 6q5-1 4-2"/><path stroke-linecap="round" stroke-width="2" d="m249 90-32 1"/><path d="M237 92s1 2 5 2c7 0 7-4 7-4m-24 3s5 4 8 4q6-1 6-3m36-7 1 2m-44 8v20h4l-1-10m-4-26v10m3-15-1-19h-3l1 19m3 5v9m1 17V97m48-29V54h-3v15m4 15-1-11m-2 17v13h3V89m-4-15 1 10m-20-15-1-20h-2v20m4 15v-9m-3 15 1 28 2-1 1-1-1-26m-3-16v10m-28-27v-6h-3v2h3"/></g><path d="m294 139-8-7-5-9-1-5v-3l1-2 6-9v1h-15l-1 1h-1l-4 7-1 2-1 2-4 1h-17v-2h-4v2h-6l-2-1-3-1-10-5-9-5-9-6v-1l5 5 6 5 11 10 5 4 5 6 5 5 5 3v2h-2l-2-1-3-2-4-7-7-8-3-2-10-10-11-9v-1l19 12 9 4 3 1h3l5 1h-1v-2h6v2h-1 17l3-1 2-3 4-8h9l9-1v1l-5 8-2 5 1 5a32 32 0 0 0 13 16"/><path fill="none" stroke="#000" stroke-miterlimit="10" d="M269 106s10-4 18-4l21 2 1 7q3 1 2 6l-7 13"/><path d="m215 177-6-3-3-3-1-3v-4a14 14 0 0 1 8-8l5 2 5 3 3 3 2 5v1zm0-1 12-7-1 1-2-5-2-2-1-1-4-3-4-1-6 7-1 3v1l1 2 2 2z"/><g fill="none" stroke="#000" stroke-miterlimit="10" stroke-width="2"><path d="m213 157 3-1c2 0-1-2 5-4s5 0 5 0l3-1h6l6 6 2 7-7 2c-4 0-8 5-9 3"/><path d="m235 151 3-2c2 0 1-2 6-2h5q5-1 8 2c2 2 5 11 5 13 1 2-7 3-9 2h-11"/><path d="m256 148 14-1q8 1 9 9 3 7-5 7h-12"/><path d="M275 148h8l8 4q3-1 4 5c1 6 0 15-4 13s-4-4-8-5l-5-2"/><path d="m295 154 6-2 8 5c3 1 6 8 3 13s-10 7-13 4l-6-4"/></g><path d="m226 171-8 6-4 3-2 2-1 1v-1l1 1h5l1 2-1 1-4 1-4 1h-6l1-1-12 9v-2l13-1h1v1l24 32v1l-4 9-1 2v2l2 4 3 4 2 5 6 9-2-1 28-9-1 1 10-17 7-6 9-4 5-1h1l4 1 5 2 1 6-4 9-5 8-1-2h7-1l7-9 3-5 1-6v-1l-1-1-1-2-5-4-10-5v-1q6 0 11 4l5 4 2 3 1 1 1 2-1 7-3 5-8 10h-10l2-1 5-8 3-9-1-4-3-2h-5l-4 1q-9 2-16 9-6 7-9 16v1h-1l-27 10h-1l-1-1-12-17-1-2-1-3v-4l1-2 6-9v1l-24-31h1-16l2-2 11-9h11l2-1v1h1v1h-1l-2-1h-2l-2-1v-3l1-1 3-2 4-3 8-6z"/><path fill="none" stroke="#000" stroke-miterlimit="10" stroke-width="2" d="M268 163s-12 9-12 21 2 12 2 12 8-17 16-21c1 0 0 18 4 28s13 20 24 22c10 3-6-4-8-12-3-7-1-26-1-26s2 16 10 27l18 22 1-14-9-13s10 12 24 12 21-10 22-22c0 0-6 7-20 7q-21 0-38-31"/><path d="M311 158h6l6-2q4-4 5-10l-1-5-2-2-3-2q-5-1-10 4v1l-1-1-3-5-4-4-4-3-5-2v-1q3 2 3 5l1 4-1 3-4 2-1 1h-2l-6-3-4-4-5-4-5-2-6-1v-1l4 5 1 3-1 3-3 1-9-1-5-4-4-3-11-2v-1l6 7v4l-1 1-1 1-3 1h-7l-6-2-4-3-5-2h-6v-1l4 5v6l-4 4-5 3h-1v-1l1-7-2-3-3-1-7 1-4 5v7l1 2h1v1l3 2q7 5 15 3v1h-8l-7-3-4-2h-1v-1l-1-2-1-8 2-4 3-3 4-1h4l4 2 2 3v4l-1 4 5-3 3-4v-5l-3-4h-1l1-1 6-1 6 2 4 3 6 2 3 1h2l3-1 2-2-1-2-1-3-4-4-1-1h1l12 1 6 3 4 4h2l5 1 2-1v-3l-2-6h-1 7l6 2 5 4 4 4 5 3q3 1 5-2l1-2-1-3-2-6h1l6 1 4 4 7 9h-1l2-2 3-3 4-1h3l4 2 2 3 3 7q0 4-3 7l-2 3-1 1-1 1-4 2h-7z"/><g fill="none" stroke="#000" stroke-miterlimit="10"><path d="M219 153s3-4 3-7c0 0 6 4 10 4m12-3s4-2 5-5q0 2 7 5m14 0 6-6s7 8 13 9 14-6 14-6-2 10 9 14m0-17q2 5 7 6c3 0 3-4 1-4l-3 1"/><path stroke-width="2" d="M275 236a49 49 0 0 1 20 14m0 0h-13s1-3-13-8"/><g stroke-width="2"><path d="M367 152q9 20 10 33c0 12-8 32-37 35"/><path d="M359 199c1-11-10-17-22-15 0 0 5-6 14-6s14 8 14 8-4-12-16-29c-15-21-16-28-16-28l4 2s-5-11 8-20c3-2 9-1 9-1l-1 7c0 3 0 8 8 23l3 6"/><path d="M336 126c-2-7 6-23 22-23q23 3 37 3c9-1 20-9 13-15 0 0 11 0 11 8 0 9-5 8-5 8s18 1 24 15c0 0-6-4-14-4l-29 1s10 9 23 13c12 4 18 8 38 6 0 0-26 14-30 14s-18-2-43-24l6 15c2 9 7 25 15 30 0 0-11 0-20-8-8-8-7-23-7-23s-8 16-19 8c0 0 14-6 14-19a20 20 0 0 0-18-21"/></g><path stroke-linecap="round" d="m341 137 5 3m0 4 2 1m1 3 1 1m2 3v1"/><g stroke-width="2"><path d="M154 147c6-10 13-20 13-31 0-21-22-15-27-15-6 1-20 4-24 1a33 33 0 0 1-11-12s-5 8-2 12q5 7 6 6c1-1-14 0-19 3-6 4-7 10-7 10s15-9 27-6 25-1 25-1-35 24-58 24m128 57s-14 12-30 12-32-8-32-30q1-15 9-26"/><path d="M167 114c-7-1-18 9-18 20 0 12 11 19 11 19-13-1-17-11-17-11s2 6-2 13c-11 21-27 19-27 19a52 52 0 0 0 12-19l11-22q2-7-3-4s-21 16-31 19c-6 2-18 2-26-10-8-11 1-24 1-24s-19 2-19 14 30 21 38 21m48 16c-3 12-7 32 5 45 11 14 33 16 42 11l13-9-5 18s11-2 13-8c0 0-5 10 4 19 0 0 3-13 10-17"/><path d="M162 205c1-24 18-24 18-24s0-3-9-3-16 6-16 6c-1-6 23-34 28-41 4-8 2-12 2-12q-3 3-5 3c-2 0 1-3 0-13-1-15-16-20-26-20"/></g></g><path fill="#291c11" d="m290 105 4 1-4 1 1-1-3 5h-1zm6 1h3v1h-3l-3 5v-1zm4 1h3v1h-3zl-3 4h-1zm-12 17 3 1-3 1 1-1-3 5h-1zm5 1h3v1l-3 1zl-2 5h-1zm12-17h2zl-3 5h-1zm-19 6h4v1l-4 1 1-1-3 7h-1zm6 1h4v1h-4 1l-3 6zm6 1h3l-3 1zl-3 6h-1zm6 0h2v1l-2 1zl-3 6h-1zm-33-9h4v1h-4 1l-4 6h-1zm7 0 4 1-4 1 1-1-4 7-1-1z"/><path fill="none" stroke="#291c11" stroke-miterlimit="10" d="M287 104s4-2 8-1"/><path fill="#291c11" d="M264 120h3l7 1 5 2 3 3-3-3-5-2-7-1z"/><path fill="none" stroke="#291c11" stroke-miterlimit="10" d="M265 114q-2 2 4 3 8 3 11-1"/><path fill="none" stroke="#291c11" stroke-miterlimit="10" d="M261 117h6m7 1q5 1 7 4"/><path fill="#291c11" d="M266 121a65 65 0 0 1-36-2l-9-4-7-5-15-11 15 10 16 9 18 3 18-1z"/><path fill="none" stroke="#000" stroke-miterlimit="10" stroke-width="2" d="M456 138c9-3 11-18-10-27 0 0 7 23-9 27"/><path fill="#74948f" d="M318 463c1-2 4-8 6-8q4 2 7-2c3-4 8-13 12-13 4-1 14-9 28-16 11-6 19-13 29-13s6 8 17 8c10 0 35 4 41 16a42 42 0 0 0 20 20c6 2 27 9 19 11l-19 7a38 38 0 0 1-24 5c-9-1-10-1-14 1-3 1-22 2-24 0-2-3-3 1-8 0-5-2-24 1-33-2q-13-3-25-2c-9 0-34-8-32-12"/><path fill="#3c4544" d="M452 428s9 16 8 21c-1 6-3 1 5 6s17 4 11 6c-5 1-16-2-12 5 3 7 3 6-4 6-6 0-15-4-20 1-4 5-13 7-13 7l13-1q4-3 15-1a51 51 0 0 0 26-7c4-2 20-4 18-7l-21-9c-8-2-15-12-17-16z"/><path fill="#202926" d="M353 463s5-2 8 2c4 4 10 10 17 10q9 0 14-4s-9 3-14 2q-8-3-15-11c-3-3-10 1-10 1m46 5s6-1 10 1c3 3 11 8 14 6l18-9 5 5q-2 1 4 2h17q7-3 6 1l-4 3 8-3 7-4-12-4c-4-1-11-2-8 0 2 2-3 7-7 5l-12-10q-1-2-4 0l-18 10a11 11 0 0 1-11-1q-7-5-13-2"/><g fill="#cfdcd9"><path d="M424 419q-8 0-2 3 5 5 0 8c-5 1-7 5-12 1l-7-8 4-2c2-3 13-2 17-2"/><path d="M393 412s8 0 10 4q3 7-4 6-8-2-3 3c4 3 10 9 17 10 6 2 13 4 9 5l-19-2c-5 0-7 3-15 4q-12 2-14 6h10c11-1 23 0 25 2 3 2 16 2 20 4 3 2 9 0 9 0l-7 6q-11 7-17 7c-4-1-16-8-19-8s-16 6-18 7l-18-8q-6-2-13 2l-13 3-6 2c-2 0-9 1-9-1l2-6s2-3 7-3c5 1 3-2 5-4 1-2 7-11 13-12 5-1 10-7 48-27"/><path d="M382 468q3-4 11-3c5 0 9 1 4 3l-9 3q-8-1-6-3m-37 1q9 1 11-2 4-2-2-2c-5 0-16 4-8 4"/></g><path fill="#74948f" d="M364 431c4-2 4-4 12-2l10 4c2 0 6 2 0 2s-4-1-8 1l-13 4c-2 0-9 2-11 1l-9 2c-2 1-6 0 2-5l24-14c2-1-14 9-7 7m-34 23q7-2 4 0-6 4-10 3-3-2 0-2z"/><path fill="#202926" d="M335 447s-3 4-1 3c2 0 6-1 3 1l-3 2-5 1z"/></g><path d="m399 420 1-3 1-1h3l1-1 4-5 1-1h1l1-1 3-1 2-2 5-3 3-1 3-2 5-3 6-1h2l1 1 1 1 1 1 3 1h3l12 3 5 4 1 1 1 2 2 2 4 4 3 2 3 1 3 1 2 1 1 1v1h-1l-1 1h-3l-3 1-2 1a19 19 0 0 1-12 3h-6l-2 1h-9l-1-1h-13l-8-1h-12l-1-1h-3l-6-2-5-2v-1zm0 1h1l1 1 3 1 6 2 6 1h6l6 1h19v1h10l1-1h7l11-2 6-2 3-1 1-1h1-1l-3-2-2-1-3-1-3-1-5-4-2-3v-1l-1-2-5-3-6-3-6-1h-6l-1-1-1-2-3-1-5 2-6 3-3 1-8 5-2 2-3 1h-1v1l-5 5v1h-1v1h-3l-1 1z"/><path fill="#74948f" d="M338 421q0-2-4-4-2 0-3-2-4-6-10-11c-5-1-4-8-10-10-6-1-16-1-21 2-4 4-11 3-13 5-3 2-6 12-11 13-4 0-12 2-12 5q2 4 8 4l16 4c6 3 9-1 13 0q6 2 12 1c4-1 5-2 11-2h12c3-1 13-3 12-5"/><path fill="#3c4544" d="M289 423s2-2 7-1c5 0 5 3 10 2q6 1 0 2c-3-1-23-1-17-3"/><path fill="#cfdcd9" d="M286 404c1-2 5-8 7-7h10c3-1 3 3 4 4h2l-3 3v2c-1 1 1 2-3 3q-6 0-9 3l-8 3q-3 1 2 1h9q2 3 5 3c1-1 6 2 2 3l-14-1q-4-1-6 1c-1 2-6 1-7 1l2 1q2 2-1 1l-6-2-5-1q-3 2-2-1l6-3h4q4 3 6-4zm20-10 2 1q3 1 1 2l-3-1z"/><path fill="#cfdcd9" d="M307 414q-2-2-8-3-4 1-2 2l6 3q2 4 4-2"/><path fill="#3c4544" d="m312 395 4 7c0 2-4 3 1 3q7 0 10 8c3 5 2 7 5 6 3-2-1 3-2 4l-12 3h8c3-1 13-3 12-5l-3-4-4-1c0-1-3-7-6-9l-7-4q-1-5-6-8m-55 21-3 2 4 5 4 1s-9-3-5-8"/><path fill="#3c4544" d="M274 405c-1 6 2 12-6 11-7-1-13 0-10-1l7-1c3-1 5-1 9-9m40 6-6-2c-1 0 2-4 5-1q4 4 1 3"/><path fill="#cfdcd9" d="m289 400-9 3q-5 1-2 4 6 1 3 4l-2 4v3l8-11c5-7 2-7 2-7"/><path fill="#74948f" d="M289 404c0-4 4 0 6 0q3 1-1 1l-4 2z"/><path d="m338 421-2-2-2-2h-2l-1-1-1-3-4-5-5-3v-1h-1l-1-1-2-2-4-5-5-2h-12l-6 3-5 2-6 1-3 1-1 3-3 5-2 3-3 2h-3l-3 1-3 1-2 1-1 1v1l1 2 5 2h7l6 2 3 1h1l1 1h12l6 1 6-1 6-2h6l6 1h3l2-1h1l9-2 1-1zm0 0v1h-2l-9 3h-1l-2 1h-3l-6-1h-3l-3 1-6 2h-6l-6-1h-6l-3 1-3-1-2-1h-1l-3-1-6-2h-6l-3-1-2-1-2-1v-4l1-1 3-1 3-1h3l2-1h1l2-2 2-2 3-5 2-3v-1h3l3-1h3l5-3 6-2 12-1 3 1 3 2 2 2 1 2 2 3 1 1h2l4 4 4 5 2 3h2l3 2z"/><path fill="#202926" d="M333 418c-2-1 0 0-3-5l-16-17q-5-3-7-1l2 1q-1 1 2 3 4 0 1 3 0 2 3 2l2 3h4l6 4 3 3-3-1-3-1-1 1 3 1 3 1v2l-4 1h-2l-5 1-5-1q-2 0-1 2h14q2 2 0 2l-4-1-5 1-3 1h-7l-6 1c-2 1 7 0 10 1q4 0 3-2h3q1 2 4 0h9q3 0-1 1-5 2 0 1 8-1 9-5z"/><path fill="url(#sh-ac-ac-Z)" d="m97 396 1-8c-1-5-3 0-4-2s-4-3-4 0-6 1-3 5q6 7 10 5" transform="translate(245 196)scale(.48468)"/><path fill="url(#sh-ac-ac-aa)" d="M21 451c1 3-7 7-8 8l-2-1q0-2-5-1-5 0-3-2t-1-3q-3-2 2-2c4 0-1-3 4-2s0-5 3-4z" transform="translate(245 196)scale(.48468)"/><path fill="url(#sh-ac-ac-ab)" d="M22 450s-6-6-6-8q-2-4 1-3c3 1 0-1 1-4q2-4 3 0l1 4h3v4q2-2 1 1l-1 4z" transform="translate(245 196)scale(.48468)"/><path fill="url(#sh-ac-ac-ac)" d="m37 451-13 6q-3 4 0 4c2-2-1 1-1 5q1 4 3 1l4-4c0 2 4 3 4 1 1-2 3-7 3-4q1 3 1-1l2-6s-1-2-3-2" transform="translate(245 196)scale(.48468)"/><path fill="url(#sh-ac-ac-ad)" d="m32 449-3-5q-1-2 1-2l1-4q2-3 2 0l2 5c0-3 2 1 0 3q-2 3-3 2" transform="translate(245 196)scale(.48468)"/><path fill="url(#sh-ac-ac-ae)" d="M100 399s0-7 3-8q3 0 2 2l7-1q2 1 0 4l-2 3q3 0-1 2-6 2-9-2" transform="translate(245 196)scale(.48468)"/><path fill="url(#sh-ac-ac-af)" d="M98 400h-9q-6 0-1 2 3 0-1 2-4 4 0 4 5 0 3 3 0 4 2 1c2-2 10-11 6-12" transform="translate(245 196)scale(.48468)"/><path fill="url(#sh-ac-ac-ag)" d="M123 400s-6-2-7-4 5 1 4-2-2-8 0-6 3-2 3-4q0-3 2 0 1 5 2 3 3-3 3 1l-1 3q3-1 0 3l-3 4q-2 3-3 2" transform="translate(245 196)scale(.48468)"/><path fill="url(#sh-ac-ac-ah)" d="M133 393q1-5-1-9-2-6 1-6c0 2 0-3 2-4q3-1 3 2-2 4 1 3 2-2 3 1c-1 1 1 5 1 2 0-4 2-10 3-8q2 2 5-1 3-1 2 2v3q3-1 2 2l-6 4q-3 1 1 2c4 0 5 4 3 3q-3 2 2 2c2-1 7 1 2 2-5 2 2 4-4 4q-10 2-17 0-4-3-3-4" transform="translate(245 196)scale(.48468)"/><path fill="url(#sh-ac-ac-ai)" d="M138 404c2-1 5-5 7-4q5 0 2 1-4 3 2 3h6q-2 1 0 2 3 3 0 2c-3-1-8 0-6 1q1 3-2 2l-5-2c2 1 2 4-2 1s-11-6-2-6" transform="translate(245 196)scale(.48468)"/><path fill="url(#sh-ac-ac-aj)" d="M150 424q5 0 3-1h4c3 2 2-2-1-2s0-2 2-2q4-1-2-1-3 0 1-5 3-4-4 1-3 5-2 0 0-4-1-1l-1 3q-2-2-1 3c0 1-3-3-2 0l-1 4q0 5 2 3 4 0 3-2" transform="translate(245 196)scale(.48468)"/><path fill="url(#sh-ac-ac-ak)" d="M163 418c1-4 3 0 2 2q0 4 4 1c2-3 7-2 4 1q-3 2 2 1c3 0 8 1 5 2q-3 2 1 2l6 2q0 3-3 2-2 1 1 4 1 3-2 2-4 0-3 2 0 3-2 1-3-3-3-1 0 3-4 2c-1-2-3 1-3 1q0 2-4-2l-3-3q0 3-2-2 0-4-4-6-4 0-1-2c2-2 6 0 9-9" transform="translate(245 196)scale(.48468)"/><path fill="url(#sh-ac-ac-al)" d="M141 433s5 4 2 5q-6 3-3 4 6 0 3 2-5 5 0 5 1-1 1 4c0 2 4 6 4 2q0-7 1-3c1 4 7 6 5 2s-2-8 0-6 6 5 4 1-4-6-1-5c2 1 9 2 4-1q-8-4-4-4 3 0-2-2c-4-1-1-3-6-4-4-1-10-2-8 0" transform="translate(245 196)scale(.48468)"/><g stroke="#174520" stroke-miterlimit="10"><path fill="none" stroke="none" d="M292 388v-4l-2-1q-1-2-1 0l-2 2q3 4 5 3m-37 26c1 2-3 4-4 4h-1l-2-1-2-1v-1l1-1c2 0 0-2 2-1 3 0 0-2 2-2zm1 0-3-4v-1l1-2q0-2 1 0l1 1 1 1v2h1l-1 2zm7 0-6 3v2l-1 2q0 3 2 1l2-1h2l1-2 1-1v-2zm-2-1-2-2q-1-1 1-1v-2h1l1 2v2zm33-24s-1-3 1-4l1 1h3v2l-1 1q2 1 0 1-3 2-5-1zm-1 1h-5q-2 0 0 1l-1 1v2q2-1 2 1t1 1c1-1 4-6 2-6m12 0-4-2 2-1v-3q2 1 1-2 1-2 2 0 0 2 1 1l1 1v3l-2 2zm5-4-1-4v-3l2-2 1 1v1l2 1v1q0-4 2-4l2-1 1 2v1q2 0 1 1l-3 2q-1 1 1 1 3 1 1 2h1q3 0 1 1c-2 1 1 2-2 2h-8zm2 6q1-2 3-2 4 0 1 1l2 1h2v2h-3q1 2-1 1l-2-1q2 2-1 1c-2-2-5-3-1-3m6 9h3q2 0 0-1t1-1l-1-1q-2 0 0-2l-2 1q-1 2-1-1l-1 1v2h-1l-1 2 1 2z"/><path fill="none" stroke="none" d="M324 398q2-1 1 1 0 2 2 1 3-2 2 0-1 1 1 1 4 0 3 1-2 0 0 1l2 1q1 1-1 1l1 2-1 1-2 1h-2q0 2-2 1h-1l-2-1-2-1-1-1q0-2-2-3-2 0 0-1c1-1 3 0 4-5m-11 8s3 1 1 2l-1 2q3 0 1 1v2l1 2q1 4 2 1v-1q3 3 3 1v-3l2 1-1-3h2l-2-2q2-1-1-1c-3 0 0-2-3-2z"/><path fill="url(#sh-ac-ac-am)" d="M92 387q0-1 0 0l9 20 3 9 1 2 3-4-5-8z" transform="translate(245 196)scale(.48468)"/><path fill="url(#sh-ac-ac-an)" d="M175 430a57 57 0 0 0-28-3s0-2 2-5 2-3 0-2l-4 8c-12 2-20 8-20 8l2 2s0-2 10-5c12 1 13 7 13 11 0 3 1 7 1-2s-11-10-11-10l5-2c20-5 43 5 30 0zm-38 3 3-1z" transform="translate(245 196)scale(.48468)"/><path fill="url(#sh-ac-ac-ao)" d="M125 409c3-3 12-3 15-3 3-1 9-1 4-1l-16 1 5-6 13-18v-1l-15 17-6 6 1-7c0-4-3-10-2-5 1 4 0 13-1 14l-8 6-4 3 1 4 6-3zm-2-3 1-1z" transform="translate(245 196)scale(.48468)"/><path fill="url(#sh-ac-ac-Y)" d="m25 449-3-6q-2-4-1 1l2 5h1l-15 3h4l34-1 1-2z" transform="translate(245 196)scale(.48468)"/></g><path fill="url(#sh-ac-ac-X)" d="m413 400-3-8c-1-4 3 0 4-3q1-5 3-1c2 4 6 0 4 4s-6 9-8 8" transform="translate(245 196)scale(.48468)"/><path fill="url(#sh-ac-ac-W)" d="M346 431c0 3-8 5-10 5q-2 0-2-2c2-1-2-1-4-1q-5-2-2-4 2 0 0-2-2-3 3-2c5 1 0-3 4-1 5 2 1-4 4-2z" transform="translate(245 196)scale(.48468)"/><path fill="url(#sh-ac-ac-V)" d="m348 430-4-9q0-4 2-2l2-4q3-2 3 1v4q3-1 3 1l-1 4v1l-2 4z" transform="translate(245 196)scale(.48468)"/><path fill="url(#sh-ac-ac-U)" d="M362 435s-12 1-14 3q-5 3-2 3c3 0-1 1-2 4q-1 6 3 3 4-5 4-2l4 2 4-4q-1 3 2 0l2-5s1-3-1-4" transform="translate(245 196)scale(.48468)"/><path fill="url(#sh-ac-ac-T)" d="m358 432-3-5q1-4 2-1c1 1 2-3 3-4q2-3 2 0v5c1-2 1 2-1 4s-3 2-3 1" transform="translate(245 196)scale(.48468)"/><path fill="url(#sh-ac-ac-R)" d="M412 404s-2-7-5-7c-4-1-2 2-2 2l-7 1q-3 2 1 4l3 2q-3 2 1 2 6 0 9-4" transform="translate(245 196)scale(.48468)"/><path fill="url(#sh-ac-ac-Q)" d="m414 404 9-3q5-1 1 2c-4 3-1 1 1 2q6 3 1 4-3 1-2 3 3 3-1 2c-3-2-13-8-9-10" transform="translate(245 196)scale(.48468)"/><path fill="url(#sh-ac-ac-P)" d="M383 401s7-2 8-4c0-2-5 1-4-2s2-8 0-6-3-2-3-4c0-1-2-4-3-1q0 6-1 4-3-3-4 1 3 4 1 3v3l4 4z" transform="translate(245 196)scale(.48468)"/><path fill="url(#sh-ac-ac-O)" d="m373 394 2-9q1-6-1-6l-2-4q-3-1-3 2 0 4-1 2-3-1-3 2c1 1-1 5-1 1l-3-8q-2 2-5-1-3 0-3 3 2 2 0 3-2-1-1 2l5 4q5 1-1 2c-4 0-4 4-2 3q2 2-3 2c-2-1-6 0-1 2 4 2-2 4 4 4q10 2 16 0 4-3 3-4" transform="translate(245 196)scale(.48468)"/><path fill="url(#sh-ac-ac-N)" d="M369 405c-3 0-5-5-7-4q-5 0-2 1 4 3-3 3h-5q2 2-1 2c-2 0-1 4 1 2 2-1 8 0 6 1q-2 3 2 2 7-3 5-3-4 5 2 2c4-3 11-6 2-6" transform="translate(245 196)scale(.48468)"/><path fill="url(#sh-ac-ac-M)" d="M487 446q4 0 2-1h3q3-1-1-2c-3 0 0-1 1-2h-1q-3 1 0-4 1-4-3 2-2 3-2-1 0-2-1 0v5c0 1-3-2-2 0v4q-1 3 2 2 3-2 2-3" transform="translate(245 196)scale(.48468)"/><path fill="url(#sh-ac-ac-b)" d="M496 440q2-3 2 1 0 2 3 0c1-3 5-3 4 0q-2 2 1 0 6 0 5 1-3 2 0 1l5 1q1 2-2 2l2 3q1 3-2 2-3 0-1 2 1 2-2 1h-3q1 3-2 2l-2 1q-1 3-3-1-3-3-3-1l-2-1q-1-4-4-5-3 1-1-1c1-2 4-1 5-8" transform="translate(245 196)scale(.48468)"/><path fill="url(#sh-ac-ac-K)" d="M481 455s5 2 3 3q-4 3-2 4 4 0 3 1-2 4 1 4 1-1 1 2 3 5 4 2v-3c2 2 6 4 4 0q-3-5-1-4 4 4 4 0-4-4-2-3c2 0 7 0 3-2q-7-2-4-2 4 0-2-1c-6-1-1-3-5-3z" transform="translate(245 196)scale(.48468)"/><g stroke="#174520" stroke-miterlimit="10"><g fill="none" stroke="none"><path d="m445 390-1-4 1-2q2-2 2 0 3 0 2 2zm-32 15-5 2h-1q1-1-2-1l-1-2v-1q-1-2 1-1l3-1c2 1 0-2 1-1zm1-1-2-4q0-2 1-1l1-2h1v2l2 1-1 2q2-1 0 0l-1 2zm6 3-6 1-1 2-1 2q-1 3 1 1l2-1 2 1 2-2h1l1-2zm-2-2-1-2 1-1 1-2h2v3l-1 2zm27-13s-1-4-3-4l-1 1-3 1v2l2 1q-2 1 1 1zm1 0 4-2q3 0 0 1-1 1 1 1 3 2 1 2-3 0-1 2h-1c-1 0-6-3-4-4m-15-2 3-2c1-1-2 1-1-1v-3l-2-1-1-1q0 3-1 2h-1v3l2 2q0 2 1 1m-5-3 1-5v-2l-2-2q-1-1-1 1v1h-2q0 3-1 1l-1-4h-3l-1 1v2l2 2q2 1 0 1-3 1-1 2l-2 1q-3-1 0 1c2 1-1 2 2 2h8zm-2 5-4-2q-2 0-1 1 2 1-1 1h-2v2l3 1 1 1 2-2c-1 0-1 3 1 1 2-1 5-3 1-3"/><g stroke-width="0"><path d="M481 412h1l1-1q2 0 0-1h1q1-1-1-1v-1q1-2-2 0c-3 2 0 1 0 0h-1v3h-1v1q0 2 1 1 2 0 1-1"/><path d="M485 409q2-2 1 0h4v1h2l1 1h2l-1 1 1 2h-1v1l-1 1h-2l-1 1h-2l-2-1h-1q0-2-2-3-1 1 0 0zm-7 7s3 1 2 2l-1 2h1v2l1 1q1 4 2 1v-1q3 2 2 0v-2h1l-1-2q3 0 2-1l-2-1h-1l-3-1z"/></g></g><path fill="url(#sh-ac-ac-J)" d="m416 389-3 22-1 10v2l-4-3 2-9z" transform="translate(245 196)scale(.48468)"/><path fill="url(#sh-ac-ac-I)" stroke="none" d="M507 447q-13-1-22 2l1-4v-1l-3 6c-8 4-13 10-13 10l2 1 7-5c9-2 11 3 11 6 1 2 2 5 1-2-2-7-10-6-10-6l3-2c15-7 34-4 23-5m-28 8 2-1z" transform="translate(245 196)scale(.48468)"/><path fill="url(#sh-ac-ac-H)" d="m382 410 7 7 5 3 2-4-4-3-8-6c-1-1-2-10-1-14 1-5-2 1-2 5v6l-5-5-15-17-1 1 14 17 5 7-16-1c-6 0 1 0 4 1 3 0 11 0 14 3zm1-4 1 1z" transform="translate(245 196)scale(.48468)"/><path fill="url(#sh-ac-ac-C)" d="M362 434z" transform="translate(245 196)scale(.48468)"/><path fill="url(#sh-ac-ac-B)" d="m350 431-1-7q0-5-1 0l1 6q-13-3-15-1l5 1 30 8 2-2z" transform="translate(245 196)scale(.48468)"/></g><path fill="url(#sh-ac-ac-bx)" d="M505 393c-2 14 1 27-2 33-2 7-10 3-15-1l-18-17-15-16-14-18-6-9-11-21c-3-4-6-5-9-13-4-9-1-19-2-21l-2-10q-2-9-1-41c0-4 8-16 12-18l4-1a15 15 0 0 1 13 0c6 4 22 20 27 27a217 217 0 0 1 26 49q11 34 11 48c0 10 3 14 2 29" transform="translate(245 196)scale(.48468)"/><path fill="url(#sh-ac-ac-S)" d="m440 394 1-20 14 18 15 16c4 9 0 16 2 20a37 37 0 0 1 4 17l3 9c0 1 0 8-4 8-3 0-11-4-13-6l-10-15-6-10a73 73 0 0 1-6-37" transform="translate(245 196)scale(.48468)"/><path fill="url(#sh-ac-ac-L)" d="M452 441c1 1-8 6-9 8q-3 3-5 1-4-1-9-25c-2-18 3-38 3-38l8 7a73 73 0 0 0 6 37z" transform="translate(245 196)scale(.48468)"/><path fill="#e6c7ac" d="m459 377-1 10-3-3c-23-22-23-39-23-44l5 3c3 2 8 0 7-2l1 5 1 10 4 6 6 11z"/><path fill="url(#sh-ac-ac-e)" d="M381 199q-3-1-2-3s10-8 19-3 24 15 24 25a45 45 0 0 0 4 22l-4 2c-5 1-12 13-12 17q-1 32 1 41c1 5-9 7-16 4l-9-7q-2-2-4-1l-1 2-8 23q0 5 2 9c-1 4 2 7 0 15q-6 11-11 6l-12-21c-2-4 0-15 0-21s2-23 5-24c4-2 6-9 14-16 7-6 12-5 13-8 0-2 6-3 6-3l3-3 3-4c-2-4 0-13 0-13-4-4-12-13-13-18 0-6-5-20-2-21m19 6-1-5-6-1q-1 2 2 4 3 3 5 2" transform="translate(245 196)scale(.48468)"/><path fill="#f0ceb8" d="m438 293 1 2-3-1v-2zm-1 0"/><g fill="none" stroke-linecap="round" stroke-linejoin="round" stroke-width="0"><path d="m436 304-3-4-1-4-2-4-1-1s5-4 9-2q9 5 11 12l3 11"/><path d="M438 312q-4-4-6-9c0-3-3-9-1-10m7 19v7l-1 1m7 0s-3-2-7 0l-2 2-3 1-6 4-7 8-2 12-1 10 6 10q2 2 6-3v-7l-1-5 4-12 4-2 7-5m3 10v-20c0-2 3-8 6-9l2-1h6l13 13a107 107 0 0 1 18 47l1 14-1 17q-3 3-7-1l-9-9-7-7-7-9-3-4-6-11-4-6-1-10z"/><path d="m432 340 5 3c3 2 8 0 7-2m-14-1h2m0 0c0 5 0 22 23 44l3 3m1-10-1 10a36 36 0 0 0 3 18l3 5 5 7 6 3c2 0 2-4 2-4l-1-5-2-8-1-10m-35-100 1 2-3-1v-1z"/><path d="M455 383s-3 10-2 19l4 12q1 1 2-1l5-3"/></g><path fill="url(#sh-ac-ac-g)" d="m410 273 5 29 2 15s1 9 4 13l11 19c5 9 8 16 24 35l42 46-6-2-24-23s-12-11-28-33-12-25-18-31a34 34 0 0 1-9-22v-8l-3-23z" transform="translate(245 196)scale(.48468)"/><path fill="#f0955d" d="m455 359-4-10-1-1h-3l1 6 5 7v2l1-1q3 0 1-3m-4-16-3-10-2-2-2 1 3 13v2q5-2 4-4m15 36c1-1-4-6-5-7l-4-7-1-1h-2l5 9 7 8zm22 23-8-7-8-10q-1-2-2-1l-1 1 6 7c2 2 9 10 12 11zm-44-72q4 0 3-2l-2-7 6-7q3-2 1-2l-4 2q-3 3-4 8zm13-3h2l4 2 2 2v8l-3 3-8 3q-2 0-2-3l-1-6v-8z"/><path fill="#fdf2e8" d="M445 310s-6 0-5 1q1 3 2 2c2 0 6-3 3-3"/><g fill="#d5ccc0"><path d="m429 295 1 1 3 6c0 2 5 9 6 9l-1 2v3l1 2q1 0 0 0l-3 2-1 1v3q-2-3-3-2l-1 1-4 3-6 6q-2 1-5 7c-1 5 0 0 0 0l2-5 4-5 6-5 3-2 2-1h1l2-2v-1l1-1v-6l-5-6-1-5z"/><path d="M439 334h2q2 0 3-2v-10s-1-2 2-5l4-4-2-4c0-3 0-8-1-6v5q-4 2-6 1l-2-2-3-3v1l3 4v2h3l3-1q2 0 1 1l-4 2h-3l3 1q1 1 3-1 2-1 2-3v3l-5 4-2 1 3 2-1 2-5 11-2 3zm-9 6-6 12 2 7c0 3-2 8-3 7l-3-2q1 3 4 3 2-2 3-7l-1-5v-3z"/><path d="M441 335s-1 2-2 1h-2q1 2-1 2h-2l-1 2 2 2-3-3q-2 0-1-1l7-4z"/></g><path fill="#fdf2e8" d="M433 300q0-3 4-1c2 1 3 5 5 4q5-2 5 0 0 4-4 4zm6 7h4q3 1 1 2h-3zm5 7-2 2-2-2zm-16-23 7-2 7 4 3 3v-2q-3-3-9-5l-7 1zm21 11v2l1 9 2-1z"/><path fill="#d5ccc0" d="M444 332s-2 1-2 3v7c-1 1-6 1-4 2q4 0 6-2v1-2z"/><path fill="#ad5f38" d="m456 327 4 2-5-2zm-4 1 5 2-7-1m0 1 6 2h-6m0 2 10-2-9 4m0 1 10-2-9 6m0 1 9-5-8 7m1 1 4-4-2 3m2 0 4-6-2 5m2-1 2-3-1 2"/><path fill="#f0955d" d="m462 316-3 2-1 5 2 2 6 4 4-1 2-1m-11-12-3 2-7-1q0-2 6-4m-7 5 6 1 1 4v3l-8 3-1-6zm24 12-5 1-1 1-1 8q-1 2 1 3l4 3h4l5-2m-18 0h3l5 6v1l-1 7q1 2-3 3c-2 1-7 4-9 1l-5-13 2-1zm5 19h5l4 8v6l-6 5q-2 1-3-2l-7-11q-3-2 1-4zm9 18h2l8 7 1 2v9q0 2-1 0l-11-11q-3-3-2-6zm13 6-3-1-6-5-1-2v-5h9m0-1-8-1q-1 1-2-2l-2-3 1-1 9-5m-1-3-4 4-5 1h-2l-2-2v-12l2-1c1 0 6-3 7-2"/><path fill="none" stroke="#af6d4a" stroke-miterlimit="10" d="M452 312q2 0-1 2-4 3-6 7l2 7q1 2-4 2"/><path fill="#ad5f38" d="M449 318h5l-4-1m-1 2h7l-8 1m0 2 6-1-6 3m0 1 6-2-6 4m2 1 4-3-2 2m0-11 5-1-4-1zm3-3 2 1-3-1m4-1v1l-2-1zm2 5h-2m0 1-2 2m1 2 2-2-2 3m0 1 4-2-3 4zm4 3 1-4-2 3m3 2v-4l1 5m1 0 1-3 1 2m1 0v-2zm-1 3h2l-4 1zm-3 2 5-1-5 3m0 1 5-1-5 3m0 2 6-4-7 6m1 1 7-6-5 7m2 1 4-5-1 7m2-1 2-5v4m1 0 1-3 1 2zm0 1h2l-4 1m-2 1h5l-7 2s0-2 2-2m-2 3h7l-7 3m0 1 6-2-7 4m0 2 7-4-7 6m1 0 6-4-4 6m2 0 5-6-2 6m3-2 2-5v4m-5 5 5-1-8 3zm-2 3 6-2zm1 2 5-5-4 6m2 1 4-6-2 6m1 0 2-5v5m-7 5 4-2-4 4m1 1 4-3-2 4m1 1 3-5-2 6m1 1 3-8-2 9m1 0 1-5v5m-30-40 5 1-11 1m0 1 11-1-10 3 10-1-10 2m1 2 11-3-10 5m1 2 7-4-6 6m1 2 7-7-5 8zm3 1 6-8-3 7m2-1 2-5v4m-9 6 7-2-7 4 8-3-7 5zm1 4 9-3-8 4m1 1 8-3-7 5m1 1 6-4-5 6m1 1 5-6zm1 1 5-7-3 9zm3 1 3-7-1 6m2-1v-4l1 3m-2 6 3-2-2 4m0 1 4-2-3 4m1 1 3-5-2 6m1 1 3-5-1 7m1 1 2-7-1 8m2 2 1-9 1 10"/><path fill="#d5ccc0" d="M461 380s-2 10-1 19c2 9-1-1-1-2l-1-11 1-9zm8 37s8 4 7 1l-2-6v-7l-2-6c1 1 1-3 1-4s-4 3-8-11l8 9 1 6 1 6 1 7 1 4-1 4z"/><path fill="#fdf2e8" d="M473 399q0-2-1-1zm2 10q0-2-1-1z"/><path fill="#d5ccc0" d="M458 392s-1-4-3-3-2 9-2 9 0-8 2-14l3 3zm3 11s-2 10-3 9l-5-11 3 12q3 2 4 0l4-3z"/><path fill="#c6ac95" d="m442 344 1 3 1 6 3 6 5 7-2-4q-3-3-5-9v-7l-1-4zm-5 0s-4 1-4 4l-1-8z"/><path fill="#caa178" d="m442 344 1 4q-1 3-7 3h-3l-1-11 5 4zm-8 8h6q3-1 3 1l3 6-2 4-5 2zm7 16 4-4 4 1 4 8v3l-3 3zm18 13q-3-5-4-4l-4 3 7 7z"/><path fill="#c6ac95" d="m456 377 3 4v-4l-5-7 1 4z"/><path fill="#b28f6b" d="M456 377q1 4-2 6l4 4 1-6z"/><path fill="none" stroke="#9f8d79" stroke-miterlimit="10" d="M439 313s3 2 6 1q3-6 2-7"/><g fill="#494037"><path d="m442 292-1 1 1 2 1-2q0-1 0 0zm3 2-1 3 1 1 2-2q0-1 0 0zm-1 6h1l1-1-2-1-1 1v1zm4-2-1 1 2 2zm-8-7h-2q-2-1 0-2 2 1 0 0zm-7-2 1 1 2-1zm-2 2 1 3 2-1v-1q2 0 0-1zm2 4q-2 1 0 2h1zm2 1 2 1s1 3-1 1zm-2 3 1 2h2v-2zm9 2 2 1-1 2v-2zm3 2 1-1-1-1zm3 1v2l1-1zm-10-1h-1v-1l2-1zm1-1v1l2 1v-1l-1-1zm-1-2 1-1-1-1zm3-3v-2h-3zm-3 7v2l2-1zm4 0v2l2-1zm-3 11 2 1-1-2zm3 1 2-1v2zm-2 3 1-1 1 1zm7-7 1-1zm2-3v1l1 1m-8 14q-1-4-3-2-5 4-2 5h5zm-5-4q1 0 0 0 1 2 2-1-2-2-2 1m-5 3h-4l1 2q5-1 3-2m0 3q0 3 2 1 2-1 1-2zm4 8-3-3q-2-2 1-2l3 4m-4 3-4-5q-3 1-2-1l-2 1q-1 2 1 2 3 1 5 4m-1-7 1-3-3-1-1 1v2zm-4-6 1 1-2 2h-3zm-5 4h3l-1 3-3 1h-2zm13-9s2 0 1 1v1l-2-1m-3 1h1v-1zm4 3 1-1h-1zm2-3h-1zm-19 13 2 1-2 3h-2zm4-1 2 1v4l-2-1zm-3 6-1 1-1 2v-2zm1-2 2 2 2-1z"/><path d="m425 335 1 2v2l-2 2 2 2h3l1-3 1-2-2-2q-2-2-4-1m-5 7 2 2q4-1 0-3-3 0-1 1zm4 2q-2 0 1 2l1 1q2-2 0-3zm0 3 2 2-1 3q-1 1-2-2zm-1 6 3-1v2l1 2h-2l-1-2zm4 6-2-1v2l1 2zm-5 7q1 1 2-2l-3-4h-3zm-6-10 1 3 1-2"/><path d="M418 357v-2l-3 1m1-4 1 2 1-3-1-2-2 1zm1-6v2l2-1q0-2 1-1l1 2q3 0 2-2l-4-2zm3 2-1 3 1 2q2 0 2-2 1-3-2-3m0 7 1 3h2v-1l-1-2z"/></g><g fill="none" stroke="#9f8d79" stroke-miterlimit="10"><path d="M448 304s0 5-2 5l-4 1-3-3-3-3m8 29-3 2-3-1m6 1-5 2-3-2m8 3-2 1-4 1-5-3"/><path d="m431 338 3 2c1 1 6 4 10 0m-3-8 1-1m1 1h-2"/></g><path fill="#494037" d="m438 331 2 2q2-1 1-3l-3-1z"/><g fill="none" stroke-miterlimit="10"><path stroke="#af6d4a" d="m462 316-3 2-1 5 2 2 6 4 4-1 2-1m-11-12-3 2-7-1q0-2 6-4m-7 5 6 1 1 4v3l-8 3-1-6zm24 12-5 1-1 1-1 8q-1 1 1 3l4 3h4l5-2m-18 0h3l5 6v1l-1 7q0 2-2 3c-2 1-8 4-9 1l-6-13 2-1zm5 19h5l4 8q2 3 0 6l-6 5q-2 1-3-2l-7-11q-3-2 1-4zm9 18h2l8 7 1 2v9q0 2-1 0l-11-10q-3-4-2-7zm13 6-3-1-6-5-1-2v-5h9m0-1h-8l-2-3-2-3 1-1 9-5m-1-3-4 4-5 2-2-1-2-2v-12l2-1 7-2"/><path stroke="#af6d4a" d="M452 312q2 0-1 2-4 3-6 7l2 7q1 2-3 2m13-3h2l4 2 2 2v8l-3 3-8 3q-2 0-2-3l-1-6v-8zm-2 32-4-10-1-1h-3l1 6 4 7 1 2 1-1q3 0 1-3zm-4-16-4-10-1-2-2 1 3 13v2q5-2 4-4zm15 36-5-7-4-7-1-1h-2l5 9 6 8zm22 23-8-7-8-10-2-1-1 1 6 7c1 2 9 10 12 11z"/><path stroke="#000" d="m444 327 3 17 1 10 4 7 7 12 29 31"/><path stroke="#b49578" d="m442 344 1 4q-1 3-7 3h-3m0 1h7q3-1 3 1l3 6-2 4-5 2m2 3 4-4 4 1 4 8v3l-3 4m1 0 4-3q1-1 3 4"/></g><path fill="#494037" d="M463 382q-2-1-2 1l3 2 1-1zm-2 2-1 4q0 2 2 1l1-3zm-3 5 1-2 1 3v2l-2 1zm2 5 1 5h1l1-3-1-2zm2 7 1 2 1 2 2-3-2-2q-2-1-2 1m3 4v3h2l1-2q0-2-3-1m1-5v2h2v-2zm1-5-1 2 2 1 2-1-2-3q-1-1-1 1m2 3 1 2q0 2 1 1 3-1 2-2l-3-1zm4 3q-3 1-2 2l2 1 1 1h2zm-4 2v2l1 1h2v-1zm-1 5-1 2 1 3q0 2 3 2t1-1c-1-2-3-7-4-6m1 9h2l2 1q1 2-1 1zm7-9h-5l1 3 1 3h2l1-1zm1 7h-3v2h2zm-14-26 3 1v-3l-2-1zm-1 1v2l1 2 2 2 1-4zm6-1-1 1v2l3 1 1-1zm3 4-1 2 2 1q0 2 1-1zm-13 15q0-3-1-2 0 5 1 2m-3-4q1 2 1 0zm-1-3q0-3 1-2l1 1zm3 0v2l1-2zm-3-9 2 2v2q2-2 1-4l-1-2q-2-1-2 2m-1 2h1l1 3h-2z"/><g fill="none" stroke="#000" stroke-miterlimit="10"><path d="m436 304-3-4-1-4c0-3-4-4-3-5 0 0 5-4 9-2q9 5 11 12l3 11"/><path d="M438 312s-7-7-7-10-3-9-1-10"/><path d="M437 311v7l-1 1m7 0s-3-2-7 0l-2 2-3 1-6 4-7 8-2 12-1 10 7 10q2 2 5-3v-7l-1-5 4-11 4-3 7-5m3-11c0-1 3-7 6-8q3-2 8-1l13 13a107 107 0 0 1 18 47c0 5 2 7 1 14l-1 17q-3 3-7-1l-16-16-10-13-6-11-4-6-1-10c0-1-2-5-1-25z"/><path d="m430 339 7 4c3 2 8 0 7-2"/><path d="M432 340c0 5 0 24 26 47"/><path d="M459 377c-1 7-3 18 2 28l8 12 6 3c2 0 2-4 2-4l-1-5-2-8-1-10"/></g><path d="m438 293 1 2-3-1v-2z"/><path fill="none" stroke="#000" stroke-miterlimit="10" d="M455 384s-3 9-2 18l4 12q1 1 2-1l5-3"/><path fill="none" stroke="#000" stroke-miterlimit="10" d="M489 372q1-7-6-23l-12-24-13-13h-6s-3-4-3-11q-2-7-11-12c-4-2-9 2-9 2l1 2c-2 0 1 6 1 10q2 5 6 9v2l-1 3c-2-2-9-10-15-11q-10-1-13 2-4 2-9 9h10l6-2q8 2 7 3-2 2 1 3l4 4-2 1-7 8-2 12v10c0 2 5 9 6 10q2 2 5-3v-7l-1-5 4-12 2 1c0 5 0 22 23 44 0 0-3 9-2 18l4 12q2 1 3-1l4-3 5 7 6 3q3-1 2-4l-1-5-2-8-1-10 9 9q4 3 6 2l1-1 1-17c1-7-1-9-1-14z"/><path fill="url(#sh-ac-ac-bw)" d="m13 393 1 33c3 7 11 3 15-1l18-17 15-16 14-18 6-9 12-21c2-4 5-5 9-13 3-9 1-19 1-21l2-10q2-9 2-41c0-4-8-16-13-17l-4-2a15 15 0 0 0-12 0 139 139 0 0 0-27 27 217 217 0 0 0-26 49q-12 34-11 48c0 10-4 14-2 29" transform="translate(245 196)scale(.48468)"/><path fill="url(#sh-ac-ac-D)" d="m78 394-2-20-14 18-15 16c-3 9 1 16-2 20a37 37 0 0 0-4 17l-3 9c0 1 0 8 4 8q8-1 14-6l9-15 6-10a73 73 0 0 0 7-37" transform="translate(245 196)scale(.48468)"/><path fill="url(#sh-ac-ac-E)" d="m65 441 10 8q3 4 5 1 3-1 8-25c2-18-3-38-3-38l-7 7a73 73 0 0 1-7 37z" transform="translate(245 196)scale(.48468)"/><path fill="#e6c7ac" d="m282 377 1 10 3-3c23-22 23-39 23-44l-5 3c-3 2-8 0-7-2l-1 5-1 10-4 6-6 11z"/><path fill="url(#sh-ac-ac-F)" d="m135 296 1 2 8 23-1 9c0 4-3 7 0 15 2 7 8 9 10 6l13-21c1-4-1-15-1-21s-2-23-5-24l-13-16c-8-6-13-5-13-8-1-2-6-3-6-3l-4-3-2-4c1-4-1-13-1-13 4-4 13-13 13-18 1-6 5-20 2-21q4-2 3-3s-11-8-20-3-23 15-23 24a45 45 0 0 1-5 23l5 2c4 1 12 13 12 17q0 32-2 41c0 5 9 7 16 4l9-7q3-2 4-1m-17-91q-2-4 1-5l5-1q2 1-1 4-4 3-5 2" transform="translate(245 196)scale(.48468)"/><path fill="#f0ceb8" d="m303 293-1 2 3-1v-2zm1 0"/><g fill="none" stroke-linecap="round" stroke-linejoin="round" stroke-width="0"><path d="m305 304 2-4 2-4 2-4 1-1s-5-4-9-2c-5 3-12 8-12 12q0 11-2 11"/><path d="M303 312q5-4 6-9c0-3 3-9 1-10"/><path d="M304 311v7l1 1m-7 0s3-2 6 0h1l2 2 3 1 6 4 7 8 2 12v10l-6 10q-2 2-5-3v-7l1-5-5-12-3-2-7-5m-3 10v-20c0-2-4-8-6-9l-2-1h-6l-13 13c-2 3-9 13-13 24l-5 23c0 5-2 7-1 14l1 16q3 4 7 0l9-9 7-7 7-9 3-4 5-11q3-1 5-6v-10z"/><path d="m309 340-5 3c-3 2-8 0-7-2m14-1h-2m0 0c0 5 0 22-23 44l-3 3m-1-10 1 10a35 35 0 0 1-4 18l-2 5-5 7-7 3-2-4q2-1 2-5l2-8 1-10m35-100-1 2 3-1v-1z"/><path d="M286 383s3 10 2 19l-4 12q-1 1-3-1l-4-3"/></g><path fill="url(#sh-ac-ac-G)" d="m108 273-6 29-2 15s-1 9-4 13l-11 19c-4 9-7 16-24 35l-27 30s-14 14-17 15q-1 1 2 1l6-2 25-23 27-33c16-21 13-24 19-31a34 34 0 0 0 9-22l-1-8 4-23z" transform="translate(245 196)scale(.48468)"/><path fill="#f0955d" d="m286 359 4-10 1-1h3l-1 6-5 7v2l-1-1q-3 0-1-3m4-16 3-10 2-2 2 1-3 13v2q-5-2-4-4m-15 36c-1-1 4-6 5-7l4-7 1-1h2l-5 9-7 8zm-21 23 7-7 9-10q1-2 2-1l1 1-6 7c-2 2-9 10-12 11zm43-72q-4 0-3-2l1-7q-1-4-5-7l-2-2 5 2q3 3 4 8zm-13-3h-2l-5 2-1 2v8l3 3 8 3q2 0 2-3l1-6v-8z"/><path fill="#fdf2e8" d="M296 310s6 0 5 1q-1 3-2 2c-2 0-6-3-3-3"/><g fill="#d5ccc0"><path d="m312 295-1 1-3 6-6 9 1 2v3l-1 2q-1 0 0 0l3 2 1 1v3l3-2 1 2 4 2 6 6 4 7c2 5 1 0 1 0l-2-5-4-5-6-5-3-2-2-1h-1l-2-2v-1l-1-1v-6l5-6 1-5z"/><path d="M302 334h-2q-2 0-3-2v-10s1-2-2-5l-4-4 2-4c0-3 0-8 1-6v5q3 2 6 1l2-2 3-3v1l-3 4-1 2h-2l-4-1v1l3 2h4l-3 1q-1 1-3-1-2-1-2-3v3l5 4 2 1-3 2 1 2 4 11q4 3 2 3zm9 6c2 2 6 9 6 12l-2 7c0 3 2 8 3 7l3-2q-1 4-4 3-3-2-3-7v-5l1-3z"/><path d="M300 335s1 2 2 1h2q-1 2 1 2h2l1 2-2 2 3-3q2 0 1-1l-7-4z"/></g><path fill="#fdf2e8" d="M307 300q-1-3-3-1c-2 1-3 5-5 4q-5-2-5 0 1 4 4 4 3-1 9-7m-5 7h-4q-3 1-1 2h3zm-5 7 2 2 1-2zm15-23-7-2-6 4-4 3 1-2q3-3 9-5l7 1zm-20 11v2l-1 9-2-1z"/><path fill="#d5ccc0" d="M297 332s2 1 1 3l1 7c1 1 6 1 4 2q-4 0-6-2v1-2z"/><path fill="#ad5f38" d="m285 327-5 2 6-2zm4 1-5 2 6-1m1 1-6 2h6m-1 2-9-2 9 4m0 1-10-2 9 6m0 1-9-5 8 7m-1 1-4-4 2 3m-2 0-4-6 2 5m-2-1-2-3 1 2"/><path fill="#f0955d" d="m279 316 3 2v5l-1 2-6 4-4-1-2-1m11-12 3 2 7-1q0-2-6-4m7 5-6 1-1 4v3l8 3 1-6zm-24 12 5 1 1 1 1 8-1 3-4 3h-4l-5-2m18 0h-3l-5 6v1l1 7q-1 2 2 3c2 1 8 4 9 1l6-13-2-1zm-5 19h-5l-4 8q-2 3 0 6l6 5q2 1 3-2l7-11q2-2-1-4zm-9 18h-2l-8 7-1 2v9q0 2 1 0l11-11q3-3 2-6zm-13 6 3-1 6-5 1-2v-5h-9m0-1 8-1q1 1 2-2l2-3-1-1-9-5m1-3 8 5h3l2-2v-3l-1-9-1-1c-1 0-6-3-7-2"/><path fill="none" stroke="#af6d4a" stroke-miterlimit="10" d="M289 312q-2 0 1 2 4 3 5 7l-1 7q-1 2 3 2"/><path fill="#ad5f38" d="M292 318h-6l5-1m1 2h-7zm0 2-7-1 7 3m0 1-6-2 5 4m-1 1-4-3 2 2m0-11-5-1 4-1zm-3-3-2 1 3-1m-4-1v1l2-1zm-2 5h-1 2m0 1h-1l1 2m0 2-2-2 2 3m0 1-4-2 2 4zm-4 3-1-4 2 3m-3 2-1-4v5m-2 0v-3l-1 2m-1 0v-2l-1 1m1 3h-2l4 1zm2 2-5-1 6 3m0 1-5-1 5 3m0 2-6-4 6 6m0 1-7-6 5 7m-2 1-4-5 1 7m-2-1-2-5v4m-1 0-1-3-1 2zm0 1h-2l4 1m2 1h-5l7 2zm2 3h-7l7 3m0 1-6-2 6 4m0 2-6-4 6 6m-1 0-5-4 4 6m-2 0-5-6 2 6m-3-2-2-5v4m5 5-5-1 8 3zm2 3-6-2zm-1 2-5-5 3 6m-1 1-4-6 2 6m-2 0-2-5 1 5m7 5-4-2 3 4m-1 1-3-3 2 4m-1 1-4-5 3 6m-1 1-3-8 1 9m0 0-1-5-1 5m31-40-5 1 10 1m1 1-11-1 10 3-11-1 11 2m-1 2-11-3 10 5m-1 2-7-4 6 6m-1 2-7-7 5 8zm-4 1-5-8 3 7m-3-1-1-5-1 4m10 6-8-2 8 4-9-3 8 5zm-1 4-9-3 8 4m-1 1-8-3 7 5m-1 1-6-4 5 6m-1 1-5-6 5 7m-1 1-5-7 3 9zm-4 1-2-7v6m-1-1-1-4-1 3m3 6-3-2 2 4m0 1-4-2 3 4m-1 1-4-4 3 5m-2 1-3-5 2 7m-1 1-3-7 2 8m-2 2-1-9-1 11"/><path fill="#d5ccc0" d="M280 380s2 10 1 19c-2 9 1-1 1-2l1-11-1-9zm-8 37s-8 4-7 1l2-6-1-3 1-4 2-6c-1 1-1-3-1-4s4 3 8-11l-8 9-1 6-1 6-1 7-1 4 1 4z"/><path fill="#fdf2e8" d="M268 399v-1zm-2 10q0-2 1-1z"/><path fill="#d5ccc0" d="M283 392s1-4 3-3 2 9 2 9l-2-14-3 3zm-3 11s2 10 3 9l5-11-3 12q-3 2-4 0l-4-3z"/><path fill="#c6ac95" d="M299 344s-2 1-1 3l-1 6-3 6-5 7 2-4q3-3 5-9v-7l1-4zm5 0s4 1 4 4l1-8z"/><path fill="#caa178" d="m299 344-1 4q1 3 7 3h3l1-11-6 4zm8 8h-6q-3-1-3 1l-3 6 2 4 5 2s4-7 5-13m-7 16-5-4-3 1-4 8v3l3 3zm-18 13q3-5 4-4l4 3-7 7z"/><path fill="#c6ac95" d="m285 377-3 4v-4l5-7-1 4z"/><path fill="#b28f6b" d="M285 377q0 4 2 6l-4 4-1-6z"/><path fill="none" stroke="#9f8d79" stroke-miterlimit="10" d="M302 313s-3 2-6 1q-3-6-2-7"/><g fill="#494037"><path d="m299 292 1 1-1 2-1-2q0-1 0 0zm-3 2 1 3-1 1-2-2q0-1 0 0zm1 6h-1l-1-1 2-1 1 1v1zm-5-2 1 1-2 2zm8-7h3q2-1 0-2-1 1 0 0zm7-2-2-1zm2 2-1 3-2-1v-1q-2 0 0-1zm-3 4 1 2h-1zm-2 1-1 1s-1 3 1 1zm3 3-1 2h-2v-2zm-9 2-2 1 1 2v-2zm-3 2-1-1 1-1zm-4 1h1v2l-1-1zm11-1h2v-2h-2zm-1-1v1l-2 1v-1l1-1zm1-2h-1l-1-1 1-1zm-3-3v-2h3zm3 7v2l-2-1zm-4 0v2l-2-1zm3 11-2 1 1-2zm-3 1-2-1v2zm2 3-1-1-1 1h1zm-7-7-1-1zm-2-3v1l-1 1m8 15q0-5 3-2 5 4 2 4h-5zm5-5-1-2q2-2 2 1m5 3h4l-1 2q-4-1-3-2m0 3q0 3-2 1-2 0-1-2zm-4 8 3-3q2-2-1-2l-3 4m4 3 4-5h2q1-2 2 0t-1 2q-3 1-5 4m0-7v-3l3-1 1 1v2zm5-6-1 1 2 2h3zm5 4h-3l1 3 2 1h3zm-13-9-1 1v1l2-1m3 1h-1v-1zm-4 3-1-1zm-2-3h1zm19 13-2 1 2 3h2zm-4-1-2 1v4l2-1zm3 6 1 1 1 1v-1zm-1-2-2 2-2-1 3-1z"/><path d="m316 335-1 2v2l1 2-1 2h-3l-1-3-1-2 2-2q2-2 4-1m4 7q0 2-2 2-2-1 0-3 3 0 2 1m-3 2-1 2-1 1q-3-2-1-3zm-1 3-1 2 1 3q1 1 1-2zm2 6-3-1v2l-1 2h2l1-2zm-4 6q0-2 2-1v2l-1 2zm5 7q-1 1-2-2l3-4h3zm6-10-2 3v-2"/><path d="M323 357v-2l2 1m0-4-1 2q-2-1-1-3l1-2 1 1zm-1-6q1 1-1 2l-1-1-1-1-1 2q-3 0-2-2l4-2zm-3 2 1 3-1 2q-2 0-2-2-1-3 2-3m0 7-1 3h-2l-1-1 2-2z"/></g><g fill="none" stroke="#9f8d79" stroke-miterlimit="10"><path d="M293 304s0 5 2 5l4 1 3-3 3-3m-8 29 3 2 2-1m-5 1 5 2q3-1 2-2m-7 3 2 1 4 1 5-3"/><path d="m310 338-3 2c-1 1-6 4-10 0m3-8-1-1m-1 1h2"/></g><path fill="#494037" d="m303 331-2 2-2-3 4-1z"/><g fill="none" stroke-miterlimit="10"><g stroke="#af6d4a"><path d="m279 316 3 2v5l-1 2-6 4-4-1-2-1m11-12 3 2 7-1q0-2-6-4m7 5-6 1-1 4v3l8 3 1-6zm-24 12 5 1 1 1 1 8-1 3-4 3h-4l-5-2m18 0h-3l-5 6v1l1 7q-1 2 2 3c2 1 8 4 9 1l6-13-2-1zm-5 19h-5l-4 8q-2 3 0 6l6 5q2 1 3-2l7-11q2-2-1-4zm-9 18h-2l-8 7-1 2v9q0 2 1 0l11-10q3-4 2-7zm-13 6 3-1 6-5 1-2v-5h-9m0-1h8l2-3 2-3-1-1-9-5m1-3 8 6 3-1 2-2v-3l-1-9-1-1-7-2"/><path d="M289 312q-2 0 1 2 4 3 5 7l-1 7q-1 2 3 2m-13-3h-2l-5 2-1 2v8l3 3 8 3q2 0 2-3l1-6v-8zm2 32 4-10 1-1h3l-1 6-5 7v2l-1-1q-3 0-1-3zm4-16 3-10 2-2 2 1-3 13v2q-5-2-4-4zm-15 36c-1-1 4-6 5-7l4-7 1-1h2l-5 9-7 8zm-22 23 7-7 9-10q1-2 2-1l1 1-6 7c-2 2-9 10-12 11z"/></g><path stroke="#000" d="m297 327-3 17-1 10-5 7-6 12-16 19c-2 2-13 14-13 12"/><path stroke="#b49578" d="m299 344-1 4q1 3 7 3h3m0 1h-7q-3-1-3 1l-3 6 2 4 5 2m-2 3-5-4-3 1-4 8v3l3 4m-1 0-4-3q-1-1-4 4"/></g><path fill="#494037" d="M278 382q2-1 2 1l-3 2-1-1zm2 2 1 4q-1 2-2 1l-1-3zm3 5-1-2-1 3q-2 1-1 2 2 2 3 1zm-2 5-1 5h-2l-1-3 2-2zm-2 7-2 2-1 2-1-3 1-2q2-1 3 1m-4 4 1 3h-2l-1-2zm0-5q1 2-1 2h-1q-2 0 0-2zm-1-5 1 2-2 1-2-1 1-3zm-2 4-1 1-1 1-2-2 3-1zm-5 3 2 1 1 2-1 1q0 2-2 1h-1z"/><path fill="#494037" d="M271 403h1l1 2-1 1h-2v-1zm2 5 1 2-1 3-3 2q-3 0-1-1c0-2 3-7 4-6m-1 9h-3l-1 1q-2 2 1 1zm-7-9h5l-2 3-1 3h-1l-1-1zm-1 7h3v2h-2zm14-26-3 1v-3l2-1zm1 1v2l-1 2-3 2v-4zm-6-2 1 2-1 2-2 1-2-1zm-4 5q3 1 1 1l-1 2q-2 1-2-1zm14 15q0-3 1-2zm3-4q0 2-2 0l1-1zm1-3q0-3-1-2l-1 1zm-3 0-1 2-1-2zm2-9-1 2-1 2-1-4 1-2q3-1 2 2m2 2h-1q-2 1-1 3h2z"/><g fill="none" stroke="#000" stroke-miterlimit="10"><path d="m305 304 2-4 2-4c0-3 4-4 3-5 0 0-5-4-9-2-5 3-12 8-12 12q0 11-2 11"/><path d="M303 312s7-7 7-10 3-9 1-10"/><path d="M304 311v7l1 1m-7 0s3-2 7 0l2 2 3 1 6 4 7 8 2 12v10l-6 10q-2 2-5-3v-7l1-5-4-11-4-3-7-5m-3-11-6-8q-3-2-8-1l-13 13c-2 3-9 13-13 24q-5 16-5 23c0 5-2 7-1 14l1 16q3 4 7 0l16-16 10-13 5-11q3-1 5-6v-10c1-1 3-5 2-25z"/><path d="m311 339-7 4c-3 2-8 0-7-2"/><path d="M309 340c0 5 0 24-26 47m-1-10c0 7 2 18-3 28l-7 12-7 3-2-4q2-1 2-5l2-8 1-10"/></g><path d="m303 293-1 2 3-1v-2z"/><g fill="none" stroke="#000" stroke-miterlimit="10"><path d="M286 384s3 9 2 18l-4 12q-2 1-3-1l-4-3"/><path d="M252 372q0-7 5-23c4-11 11-21 13-24l13-13h6s3-4 2-11c0-4 7-9 12-12 4-2 9 2 9 2l-1 2c2 0-1 6-1 10q-2 5-6 9v2l1 3c2-2 9-10 15-11q10-1 13 2c1 1 7 5 9 9h-10l-6-2q-8 2-7 3 2 2-1 3l-4 4 2 1 7 8 2 12v10l-6 10q-2 2-5-3v-7l1-5-5-12-1 1c0 5 0 22-23 44 0 0 3 9 2 18l-4 12q-1 1-3-1l-4-3-5 7-7 3-2-4 2-5 2-8 1-10-9 9q-4 3-6 2h-1v-1l-1-17c-1-7 1-9 1-14z"/></g><path fill="#012169" d="M0 0h256v256H0Z"/><path fill="#fff" d="M256 0v32l-95 96 95 94v34h-33l-96-94-93 94H0v-34l93-93L0 37V0h31l96 94 93-94z"/><path fill="#c8102e" d="m92 162 6 17-77 77H0v-1zm62-6 27 4 75 74v22ZM256 0l-96 98-2-22 75-76ZM0 1l97 94-30-4L0 25Z"/><path fill="#fff" d="M88 0v256h80V0ZM0 88v80h256V88Z"/><path fill="#c8102e" d="M0 104v48h256v-48ZM104 0v256h48V0Z"/></svg>