<svg xmlns="http://www.w3.org/2000/svg" viewBox="0 0 512 512"><path fill="#006" d="M512 512V0H0v512z"/><path fill="#012169" d="M0 0h256v256H0Z"/><path fill="#fff" d="M256 0v32l-95 96 95 94v34h-33l-96-94-93 94H0v-34l93-93L0 37V0h31l96 94 93-94z"/><path fill="#c8102e" d="m92 162 6 17-77 77H0v-1zm62-6 27 4 75 74v22ZM256 0l-96 98-2-22 75-76ZM0 1l97 94-30-4L0 25Z"/><path fill="#fff" d="M88 0v256h80V0ZM0 88v80h256V88Z"/><path fill="#c8102e" d="M0 104v48h256v-48ZM104 0v256h48V0Z"/><path fill="#128bbf" d="M477 217c0 61-10 127-89 158-80-31-89-97-90-158z"/><path fill="#e8ece9" d="M388 375q53-23 71-62h-8c-2 0-77-6-85-9s-37 2-51 7q18 41 73 64"/><path fill="#69522b" d="M332 337h5l1-1h2q2 1 3-1h4l2-2 2-1q0 2 2 1v2h3q1 1 1-1l-1-8-1-5q1-3-4-5 1-2-3-2l-1-2v-2l3-1h10l4-3 2-2q1-7-2-10l-2-7-3-6-1-2-2-3c-3-3-4-12-5-18l-2-14-6-2-3-8-4 3q-2 0-2 2l-2 7c-2 3-5 2-7 6q-8-9-6-10l-5-5v-6q-3-2-5 0l-3 4-7 8c3 34 10 68 33 94"/><path fill="#bca76b" d="m477 217-1-64a247 247 0 0 0-177 0v64z"/><path fill="#cfa763" d="m303 244 3 6 2-3v-4l1-1v4l-3 9c3 6 1 9 4 15h8q3 1 3 4l1 2 1 4 1 2-1 2 1 3q3 3 4 11-1 5 2 6 2 1 1 3l1 10 2 2q1 2 3 2h5l3 7 1 5 1-2-1-5q-2-1-1-2v-3q-1-3 2-1l2 3 1 4 1 1 1 1q-1 2 1 3l2 1q0 2 1 0l-1-7-1-5-1-2-1-1-1-1-2-1-1-1h-1l-1-3-1-3-1-3-2-4q-1-2-1 0l1 4 1 2v4l-1-1-1-3-1-1h-1v-5l-3-9v-2q3 3 3 5l1 2 1-1-1-2-5-12-2-12-2-3v-5q-1-2-1 1v9q-1 1 2 4l1 3q-1 1-1-1l-2-2-1-2v-3h-1l-1 4-1-1 1-6 1-7-3-6-6-8-2-7-4-4v-4q0-2-2-1l-3 2-2 3z"/><path fill="#cfa763" d="m310 272 3 1q2-3 4-1l3 6q0 5 2 9 4 3 4 7l1 9 2 3 2 5v6q0 2-1 1l-2-2q0-2-1 1l4 3 2 1 2 1h5l2 2 2 6v4h-1l-2-1-1-2h-1q0 2-1 1h-3l-2-1v-1l-2-1-2-1-1-2v-1l-1-1-1-1v-4l-1-2-1-3q-3 0-3-3l-2-11-3-2-1-2-2-5-2-2v-15z"/><path fill="#d7c99c" d="m340 325-2 1-1-2v-2h-2l-2-1v-1 1l-1 1-1-2h-1l-3-3q1-3 1-1t2 2q1 1 1-1v-2l-1-1q-2 1-1-2h-1q-2 0-2-2 0-3-1-1t-2-1q-1-4-1-1t-2 1l1 3q0 3 3 3l1 3 1 2v4l1 1h1l1-1q2-1 3 2 1 2 2 1 1-2 2 0l1 1h2l2-2z"/><g fill="#7fb8c1" stroke-width="4"><path d="m341 339 9-3 6 3-5-1 2 2-5-1zm4 3 6 1q-3 2 2 2h-2c2 1 8-1 9-1-2 2-11 4-15-2m4 6h5zm4 0c2-1 8 1 10-1l-6 2-3-1zm2 3q5 1 9-1l6 2h-6q-4 2-9-1"/><path d="M358 351h10l3 2-7-1-8 1zm-3-11q5 2 11-1 2-1 1 1-7 3-12 1-3-1 0-1m30-8a27 27 0 0 1-23 1q-2 0 0 1l8 2v2h12l1-1v-1l-1-1 3-1z"/><path d="M373 333c4 0 12-2 16-6l4 2q4 0 1 1l-5-1a29 29 0 0 1-16 4q-3 0 0 0m-7-12-4 1h-1l-1 1h-2v1h3l4-2z"/><path d="m362 324 8 2q3 0 1 1-5 1-9-2-2-2 0-1"/><path d="M387 326q-7 2-10 1h-2l7 2-11 1h-7l-3-1 1-1h1q-4 0-2 2h10a18 18 0 0 0 17-3zm-9-4h-4q3 2 5 1h2l4 1q1 0 0 0l-1-1v-1l3 1 3-2h-8l1-1q1 0 0 0l-6-1h-2v1zq1 2 0 0-3 0-1 1m35-2-10 3q-2 0 0 0 7 1 11-3zm-20 5 7 1h1l2-1h7l3-2-16 1z"/><path d="m410 325 3-2 4 1 1-1 2-1 5 1 6-1 1 2h3l10 1 1 1-1 1-1 1-3 1h-19v-1l2-1q3 0 2-1h-11zm6 3-5-1q-2 1 0 1zq2 0 0-1zm-2 2h5zq-2 1-1-1m-23 7c2 0 8 0 10-5h1l8 2q4 0 0 1l-8-2q-5 5-11 4-2 0 0 0"/><path d="m403 329-5 3h-6q-2-1 0 0l6 2 3-1 4 2h5q2 1 0 1l-5-1q2 4 5 4v1h4l1 1q1 0 0 0l-4 1a18 18 0 0 0 12 2q2 0 0-1h-4l1-1 4-1q2 0 0 0h-6v-2l2-1q-6-1-5-3v-1l-4-1v-1zm28 0-6 2q-2 0-1 1h8l5-1q2 0 0 0h-7l2-2zm-1 4-5 2 5 3-3 1 6-1q5 1 8-1l-6-1 3-2q-5 1-7-1z"/><path d="m427 339 3-1c-2 0-9-1-11-3q-3-1-1 1 2 4 9 3m6 4-7 1h-1l-1 1h-4q-2 1 0 1h11q1 0 0 0v-1zm-40-5-9 2-5 1 5 1-3 2h4l-6 2 2 1h-5l1 2-5-1q2 3 9 2l8-3h-5l8-4h-2l7-1-3-2h16v-1l-10-1 4 1a14 14 0 0 1-11-1"/><path d="m380 344 3-2q-3 1-5-1 2 1 5-1l-7-1h-5q-1 1 3 1l-7 1v4l10 2q-3-2-1-2zm-6 6q8 1 16-4h1a27 27 0 0 1-15 6q-5-1-2-2m35-7h-5l-3 1v1h3l-2 1 6 1h-2c2 2 10 2 11 2l-1 1 7-1h-4l2-2-5 1 1-2-10-1 7-1zm-10 2-5 1q-2 1 0 1h1q-2 0-1-1zm-3 4 4-1 5 2q3 0 0 1l-5-2zm-23 13q5 2 10 1 3 2 7 2h5l8 1h-4q-1 1 1 1l-11 3a6 6 0 0 1 6-3h-10l-1-2q-6 1-11-3m-8-5 7-3h6v2l-7 2h-6z"/><path d="m378 356-7 2 1 2 14-2-5 2 8 1v1q-1 1 1 1 4 1 6-2h-2l2-2h-4l-1-1 2-2q-3 2-7-1h4l-2-1q4-2 10 0l7 1 4-3c-6 0-16-1-16-4q-4 4-8 3l1 3h-7l4 2z"/><path d="M390 363q4 1 6-2h-2l2-2 10-1h7l-5 1 2 2q-3 0-4 2-3-1-4 1-3-2-5 1l-6-1q2 0-1-1m19-11h5l-2 1 9-1-4 2 1 1h1-8l4-1h-4l-1-1q1 0 0 0l-5 2zm-15 2 6 3 1 1q-5 0-8-4zm52-22q-3 1-2 4l13-18v-1l-4 3-4 4q1 2-1 3l-2 1-2 2 2-1v1l-2 1q3 0 2 1m-86-22 7 2 6 3-6 2-2-1v2h6q3 0 1 1-6 1-10-2-1-5-8-2l-1-1-2-2q4 1 9-2"/><path d="m361 316-4 2-1 1 5-2zm6 5h1l1-1 4 1v-1l-3-1zm23 0 8 2 2-2 3 1h1l3-1 3-1q2 0 0-1l-5 1-4 1h-10m27-1 10 2q2 0 0 0-5 1-10-2-2 0 0 0m3 0 6 1 6-1q2 0 0-1h-14zm12 1h14l-5 1h-3z"/><path d="M447 321h-14q3 0 4-2h3l4 1v-1h5l3-1z"/></g><path fill="none" stroke="#000" stroke-width="2" d="M477 217c0 61-10 127-89 158-80-31-89-97-90-158z"/><g stroke-width="4"><path fill="#cfa763" d="m334 245-5 4q-4 3-3 5 3 2 3 4 0 3 2 3t2 3l1 5 1 4 3 12c1 4 5 10 4 12q-1 1 1 4l3 5q0 3 2 2l2-2h3q3 2 5 1l3-2 3-4v-2l-1-3q1-3-2-6l-4-8-1-4-2-2-3-7-1-9-1-1-1-2-1-2 1-3v-5q0-3-3-3l-4-3-1-5q-1-2-3 1-2 1-2 4l1 3 1 3c0 3 3 6 0 9q-4 2-3 4 1 4-1 0t2-4 2-4l-2-6q0-3-1-1"/><path fill="#d7c99c" d="M311 278v11l1-3v-8zm16 25-1-9q0-4-4-7-2-3-2-7-2-1-2 1l1 5 1 3 1 3v2l1 2 2 2v5q1-1 2 1h2zm-7-54q-2 0-1 4 0 2-2 0l-2-4-1 3 2 2q1 2-1 2v4q0 2-1 0v-5l-1-2q-2-1-1-2l1-3v-1l2-1 1-2q0-2 2-1zm23 23q0-4 2-6 3-5 2 1l-1 5q-2 1-1 3l1 4 1 5 2 3 2 4 3 6 3 5q2 2-1 1l-2 1h-2q-1-3-4-3l-2-4-4-3v3q-1 1 1 4l3 5q0 3 2 2l2-2h3q3 2 5 1l3-2 3-4v-2l-1-3q1-3-2-6l-4-8-1-4-2-2-3-7-1-8q-2 3-2 1-1-2-2-1v-1l-1-1v-3q-1-3-1 0l-1 4-1 4 1 3zq1 3 1 0m-10-8 1 5 1 4 3 12 1 4 2-3q1-1-2-4l2-4q1-2-2-3l-2-3v-5l-1-2-1-2q2-2-1-1l-1 1z"/></g><path fill="none" d="m357 263-3 34m13-13-5 18m46-34 9 4m6 11-2 13m0-13-3 14m-53-13-6 16"/><path fill="#666" d="m432 316-1 1v1h-1l-2 1h-3l-3-1-3 1-1 1h-3l-3-1h-3l-2 1h-4l-2-1-3 1h-6l-3-1h-2l-3 1-3-1-4-1-2 1h-3l-4-3-7-7v-5l-1-1-2-1-2-1-2-1-2-2-2-1-1-1-2-1-2-1v-1l2 1 3 1 2 1 2 1 3 1 1 1 2 1 1 1 2 1 4 2 9 1h27l10-4 3-4 14-3s25-1 26 1v3c0 1-24-3-24 0v10l1 3v2z"/><path fill="none" d="m359 280-13 13m37-33 14-13m-20 25 10 4m-12-23q2 5 10 7m-14-34-9 7m14 10 8 4m-8 38 4 18m-5 0a85 85 0 0 0 17-25m15-27q4 5 9 6m1-15 7 9m-28-20q-1 6-4 10m9-8q-4 5-9 8m9-21-6 4m33 23q-3 5-8 8m8 14-8 7m24 8-15 10m2 0 13-10m-14-36 5 6"/><path fill="#bca76b" d="M427 225v70l5-1-2-70z"/><g stroke="#000"><path fill="#333" d="M430 315q2 0 3 2 4 3 7 0l4 1 3-1q3-1 2-3l2-4 4-2v-8l1-4-3-1-6-1-4-1h-10l-4 1-1 3v4l1 6v4z"/><path fill="none" stroke="none" d="m436 281 7 13m10 0-4-7"/></g><path fill="#472b1f" d="m453 274 2 2zm-5 1-3 12zm15 0-2 1zl1-1zm-14 12h-1zm1 0 2 2zm7 1-4 1z"/><path fill="#fff" d="m448 274-3 13h4l4 2 6-1h3l3-13h-2l-4 2-4-1-2-2z"/><path fill="#c8102e" d="m454 276-1 4-3-1h-3l-1 3h4l2 1-1 5h1l1 1h1l1-5h8v-3h-4l-3-1 2-3z"/><path fill="none" stroke="#000" d="m446 274-5-18"/><g stroke="#472b1f"><path fill="none" d="m447 275 6-1 5 3 6-2 3 1-2 5-1 4v3h-5l-6 1-4-2h-5z"/><g fill="#bca76b" stroke="none" stroke-width="0"><path d="M448 275h-2l-5 18h3z"/><path d="m446 275-1-2 3-1 2 2q0 2-4 1"/></g></g><path fill="#472b1f" d="M465 275q-3 7-3 13h2v-3l1-4 1-5z"/><path fill="none" d="m436 261 9 10m-4-17-4-19m-4 48 4 11m0-63q-6-2-7-6m-15 9c2 0 10-6 11-9m9 57 5 11m-6-8 4-1m-3 4 4-2m-2 6 4-2m-9-21 6 6m-18 9-4 13m3-10h4m-5 3h5m-6 3 5 1"/><g fill="#bca76b" stroke="#472b1f"><path stroke="none" d="M430 223h-4v2h4z"/><path d="M416 234c2 6 9 5 9-1"/><path d="M423 233c2 8 11 7 11 0"/><path d="M431 233q3 8 8 0m2-3-26 2v2l27-2zm-24 27c2 8 9 7 9 0"/><path d="M424 257c2 9 12 7 11-1"/><path d="M432 257q3 9 9-1m2-2-27 1v2l28-1zm-27 24c2 8 10 7 9 0"/><path d="M423 278c2 11 13 7 12-1"/><path d="M432 278q3 8 9-1"/><path d="m443 275-28 1v2l29-1z"/><path stroke="none" d="m434 244-11 1v2h11zm0 22-11 1v2h11z"/></g><g stroke="#000"><path fill="none" d="m408 279 7 18m-46-13-4 19"/><path stroke="none" d="m455 296-23-1q-9 0-16 2l-2 1-2 5-7 5q-17 1-38-2l-2-3h-1 2l5 1 12-1h16l9-1h1l2-3 2-2 7-2 9-1 10-1h6q6 0 10 2 2 0 1 1z"/><path fill="none" stroke="none" d="M404 220q2 3 7 3m-11 45-11 5m21 28-6-16m1-6 7 19m-8-14 5-2"/></g><path fill="#bca76b" d="m401 218-1 86h5l-1-86z"/><path fill="none" stroke="#000" d="M407 231a20 20 0 0 0 10 9"/><g fill="#bca76b" stroke="#472b1f"><path d="M391 226c1 7 9 6 9 0"/><path d="M398 226c2 8 12 7 11-1"/><path d="M406 226q4 9 9-1m2-2-27 1v2l27-1zm-26 20c1 8 9 7 9 0"/><path d="M398 243c2 9 12 7 11 0"/><path d="M406 243c2 6 8 5 9-1m2-2-27 1v2l27-1z"/></g><path fill="none" stroke="#000" d="m399 253-8 5"/><g fill="#bca76b" stroke="#472b1f"><path d="M390 260c2 7 9 6 9-1"/><path d="M397 259c2 9 12 8 11 0"/><path d="M405 259c2 7 8 5 9 0m2-3-27 2v2l28-2z"/></g><path fill="none" d="M393 279q-1 13-6 24m9-24q-1 13-5 24m8-24-4 24"/><g fill="#bca76b" stroke="#472b1f"><path d="M390 275c2 8 9 6 9 0"/><path d="M397 275c2 8 12 7 12-1"/><path d="M405 275c2 6 8 5 9-1m3-2-28 1v2l28-1z"/><path stroke="none" d="m408 234-10 1v3h10zm0 17-9 1v2h8zm0 17h-9v2h9z"/></g><path fill="none" d="m393 282 5 1m-6 4h6m-7 3 6 2m-8 4h7m-8 4h8m-10-21c-1 9 5 17 8 24m15-4 5-2m-6-1 6-2m-7-2 5-2m-7-2 6-1"/><path d="m375 319-2-1-1-1-2-1-2-1-1-2-2-1-2-2-1-2-1-1-1-1q-1 0 0 0h-1v2l2 2 1 1 2 2 1 1 1 2 2 1 2 1 1 1h5zm41-19-5 7 16-1v-8z"/><path fill="#333" d="m416 300-3 5q7 1 14-1l-1-6z"/><path d="m365 308 17 1 44-1h1l-1 2q-24 2-47 1l-10-1z"/><path fill="none" stroke="#000" d="m371 270-13 8m14-24-12 8"/><path fill="#bca76b" d="M371 224v80h4l-3-81z"/><path fill="none" stroke="#000" d="m372 224 10 8"/><path fill="#bca76b" d="m374 221-5 1 1 2h3z"/><path stroke="#000" d="m371 315 1-1h4l1 1 1-1h2l1 1 1 1h2l1-2 3 1h2l1 1 1-1 1-1h3l1 1 1 1 1 1 1-1 2-1v-1h5l1 1h1l1-1h4l2 1h1l1-1 3-1 2 1 1 1h2l-1-1v-1h1l1 1 2 1v1h-18l-4 1h-31l-3-1z"/><g fill="#bca76b" stroke="#472b1f"><path stroke="none" d="M361 234c2 5 8 4 8 0"/><path d="M367 234c2 6 11 5 11-1"/><path stroke="none" d="M375 234q3 6 8-1m1-1h-24v2l25-1z"/></g><path fill="none" stroke="#000" d="M368 243q-4 4-8 4"/><path fill="none" stroke="#000" d="M364 237q-9 31-19 57"/><g fill="#bca76b" stroke="#472b1f"><path stroke="none" d="M361 249c2 5 8 5 8-1"/><path d="M367 249c2 7 11 6 10-1"/><path d="M375 249q4 7 9-1m1-2-25 1v2l25-1zm-25 17c1 7 9 6 8 0"/><path d="M367 263c2 10 12 9 12-1"/><path d="M375 263q4 9 8-1m2-2-28 1v2l29-1zm-26 20c2 7 10 6 10-1"/></g><path fill="none" stroke="#000" d="m380 284 6 19m-8-20 5 20"/><g fill="#bca76b" stroke="#472b1f"><path d="M367 280c2 9 12 9 12-1"/><path d="M375 280q4 9 10-1m2-3-31 2v2l31-1z"/><path stroke="none" d="M377 241h-9v2h9zm0 15h-9v2h9zm0 16h-9v2h10z"/></g><g fill="none" stroke="#000"><path stroke="none" d="m381 286-5 1m6 3-5 1m6 3h-5m6 4-5 1m-19-2 6 1m-4-5 5 1m-4-5 5 2m-4-5 4 1"/><path d="M428 304q15-1 27 2m-26 1a52 52 0 0 1 25 1m-24 5a47 47 0 0 1 20 0m-20 2a43 43 0 0 0 19 0"/></g><path d="m343 294 19 11h1l-7-4z"/><g fill="none" stroke="#000"><path stroke="none" d="M436 303v-6m2 0v7m4 0v-7m4 0v7m2-7v7m3-6v6m2-6v7m-16 1v6m-2-5v5m5-6v6m2-6v6m3-6v6m3-5-1 5"/><path d="m428 297 27 1"/></g><path fill="none" stroke="#000" stroke-width="2" d="m477 217-1-64a247 247 0 0 0-177 0v64z"/><path fill="#69737c" stroke="#000" d="m382 180 4 7 1 5-2 7-1 4 1 1 2-1h1l1-1v-1h-3v-1l1-4 1-3v-1l1-2h1l-3-4v-2l-2-3z"/><path fill="#66452b" stroke="#000" d="m392 184 4 6-1 1 1 2-2 7-2 6h2v-3l2-5 1-4 1-2v-3l-1-1-1-2-1-3z"/><path fill="#fff" d="m379 177 2 2 4 2h1l2 1h2l2 2h2l1-1 4-6-1-9-17 1z"/><path fill="#fff" d="m397 162 7 7 4 4c3 3 15 7 15 8-3-1-4 3-7 2q-3 1-7-2l-9 2h-5m-16-6-5-3q-4-3-3-7v-9l-3-5q-3-3-2-6l5-5 6 1q4 1 5 4l3 8q3 4 7 4l5 3"/><path d="M411 178h-3l-7-1-7-2q-5 0-8-2-4 0-6-2l-3-6q-2-4 1-7 3 0 5-2l6 2 7 3 5 4 4 6 6 5q3 0 2 2z"/><path fill="#69737c" d="m387 171-4-2q-3 0-1-2h3l4-1 4-1 2-2q2 1 0 1 0 2 2 2l-2 3-4-1-1 1h-3zm26 9h-3l-1-1q-1-1-3 1h1-4l-2 1-2-1q-1 1 1 1l-1 1h-2v1h3l3-1 3-1h6zq0-1 0 0"/><path d="m410 181 1-1 1-1h-2l-1-1 1-1h4l2 1h1l1 1 2 1h1l1 1h-2l-2 1-1 1h-5l-1-1zm-37-39h-2l-2 2-2 2-1 1h1l3-2h2l1 1h2l2 1h3v2l1 1v1l1 2v1l2 1v1l1 1h2-1v-2l-1-1v-2l-1-2v-1l-1-1-1-1v-1l-1-2-3-1-2-1z"/><path fill="#69737c" d="m381 154-1 2-3 1-1 1-2 2v2l2 1 2-2 2-1 1-1 1-1 1-2z"/><path fill="#66452b" stroke="#000" d="M391 207h-3l-2-1-2 1-1 1v1l2-1h5l-1 1h-4l-2 1v1h1l3-1h4l-2 1-2 1v1h1l2-1 2-1 2-1 1-1 2-1h1v-2l-1-1h-2l-2 1-1 1zm-16 4 1-3 7-3-7 1-4 2 2-3q4-3 8-2h4v1l-3 2q-6 2-8 5z"/><path fill="#69737c" stroke="#000" d="m385 203-9 5 8-3 2-1z"/><path fill="#69737c" d="m397 189-1 2 1 1z"/><path fill="#69737c" stroke="#000" d="M394 206h-1l-1 1-2 1-2 1h-1v1l1-1h2l2-1h1l1-1z"/><path fill="#69737c" stroke="#000" d="m388 212 2-1h1l1-1 1-1 1-1h-2v1l-1 1-1 1z"/><path fill="none" stroke="#000" d="M395 178v4l-1 2h-2l-1-1-1-2-1-1v-1m1 3h-3l-1-1h-1v-1h-1v-1h-1v-1m3 3h-2l-1-1h-1l-1-1-1-1-1-1v-1"/><path fill="#bca76b" d="M411 182h3l1-1h1l1 1h1v1h-1l-1 1h-4l-1-1z"/><path d="M368 151h-7l-3 1h-5v-1l5-1 3-1 3-1h3l3-1 2-1h3l2 1-1 2h-3l-2-1-1 1h-4z"/><path fill="#fff" d="M373 148h1v1zm2-2h2l3 2 3 6 1 2 1 2h-2v2l-2-1v-1l1-1-1-3-1-2-3-4z"/><path fill="#bca76b" d="M380 147h1l1 1v2h1v2l-1-1v-1l-1-1v-1zm-5-2v-1h2v2z"/><path fill="#fff" d="M375 145h-3v-2h2v1zm1-1v1h2v1h2l-1 1v-1h-3z"/><path d="M379 149h-4l-2 1h-1l3 2 2 1 1 1-2 2-1 1-1 2 1-1 1-1h3l1-1 1-1v-5z"/><path fill="#69737c" d="m404 173-3 1v1l4 1 3 1v-2l-3-2z"/><path fill="#fff" d="M403 175h-4l-1-1h1l1-1 2 1zm5 0h-3l-2-1-1-1 2-1 2 1 1 1z"/><path fill="#69737c" d="M394 170h-2l-3 1 1 2h7zm9 0h-1l-2-1-1-1q-1 0 0 0 0-1 0 0l2 1h1zm-1 2h-4l-2-2 1-1q0-1 0 0l3 1 1 1zm-12-11 3 2q1 1-2 1l-4-2q-2 1 1 1l1 2h-3l-3-2-1-1 1 2q2 2 0 2l-2-2v-2l4-1z"/><path fill="#fff" d="M379 162v2l1 1v1h3-1v-1l-1-1-1-1zm9 3h-2l-2-2-2-1v1l1 2 2 1 3 1 1-1zm-2 5h-1l-1-1-2-1h-1l1 1 2 1zm5-2 1 2h-5l-1-2h1l2 1h2zm5-1v2h-2l-2-1-1-1 1-1 2 1z"/><path fill="none" stroke="#000" d="m397 162 7 7 4 4c3 3 15 7 15 8-3-1-4 3-7 2q-3 1-7-2l-9 2h-5m-16-6-5-3q-4-3-3-7v-9l-3-5q-3-3-2-6l5-5 6 1q4 1 5 4l3 8q3 4 7 4l5 3"/></svg>