<svg xmlns="http://www.w3.org/2000/svg" viewBox="0 0 512 512"><defs><clipPath id="si-a"><path d="M60 0h498v497H60z"/></clipPath></defs><g fill-rule="evenodd" clip-path="url(#si-a)" transform="translate(-62)scale(1.0295)"><path fill="#fff" d="M0 0h995v497H0z"/><path fill="#d50000" d="M0 332h995v165H0z"/><path fill="#0000bf" d="M0 166h995v166H0z"/><path fill="#d50000" d="M282 90c-4 60-6 93-15 108-10 16-20 28-58 43-39-15-48-27-58-43-9-15-11-48-15-108l5-2 27-7c9-2 16-4 41-5 24 1 32 3 41 5l26 7z"/><path fill="#0000bf" d="M276 88c-3 60-6 88-11 101-10 22-24 35-56 46-32-11-47-24-56-46-5-13-8-41-12-101l27-7c9-2 16-4 41-5 24 1 32 3 41 5z"/><path fill="#ffdf00" d="m209 107 1 3 7 1-4 3 4 3-6 1-2 3-2-4h-6l4-3-4-3 6-1z"/><path fill="#fff" d="m263 175-4-3-3-5-5-5-3-4-5-5-3-4-2-3-2-1-5 4-3 4-3 3-3-3-3-4-10-18-10 18-3 4-3 3-4-3-2-4-5-4-2 1-3 3-2 4-5 5-3 5-5 4-3 4-4 4a64 64 0 0 0 18 35q11 10 36 20a101 101 0 0 0 35-20 64 64 0 0 0 19-36"/><path fill="#ffdf00" d="m225 82 1 3 7 1-4 3 4 2-6 2-2 3-2-4h-6l4-3-4-3 6-1zm-32 0 1 3 7 1-4 3 4 2-6 1-2 4-2-4-6-1 4-2-4-3 6-1z"/><path fill="#0000bf" d="M254 197h-14l-8-4h-9l-8 4h-12l-8-4h-9l-8 4h-15l-3-6 11 2 7-1 8-4h9l8 4 6 1 6-1 8-4h9l8 4 7 1 11-2zm-84 9h7l8-4h10l8 4 6 1 6-1 8-4h9l8 4 7 1 5-6v-1l-5 2h-7l-8-4h-9l-8 4h-12l-8-4h-9l-9 4h-6l-5-1z"/></g></svg>