<svg xmlns="http://www.w3.org/2000/svg" viewBox="0 0 512 512"><path fill="#ee1c25" d="M0 0h512v512H0z"/><path fill="#0b4ea2" d="M0 0h512v341H0z"/><path fill="#fff" d="M0 0h512v171H0z"/><path fill="#fff" d="M203 396c-46-22-111-66-111-153s4-127 4-127h215s4 40 4 127-66 130-112 153"/><path fill="#ee1c25" d="M203 384c-42-20-102-60-102-140s4-116 4-116h197s3 36 3 116-60 120-102 140"/><path fill="#fff" d="M212 223c12 0 34 1 54-6l-1 15 1 16a172 172 0 0 0-54-6v44h-18v-44a172 172 0 0 0-53 6s0-7 0-16v-15c20 7 42 6 53 6v-28a128 128 0 0 0-42 6s0-7 0-15v-15q26 7 42 6c0-18-6-40-6-40l15 1 15-1s-5 22-6 40a126 126 0 0 0 42-6s0 7 0 15v15q-26-7-42-6z"/><path fill="#0b4ea2" d="M203 281c-21 0-32 29-32 29s-7-14-24-14c-12 0-20 11-26 20 22 34 56 55 82 68 27-13 61-34 82-68-5-9-14-20-26-20-17 0-23 14-23 14s-12-29-33-29"/></svg>