<svg xmlns="http://www.w3.org/2000/svg" viewBox="0 0 512 512"><g fill-rule="evenodd"><path fill="#19b6ef" d="M0 256h512v256H0z"/><path fill="#fff" d="M0 0h512v256H0z"/></g><path fill="#fd0" fill-rule="evenodd" stroke="#7d6c00" stroke-width="2" d="M253 362c56-42 116-127 46-172q-23-5-35 3-5-3-11 3-3-6-11-3a44 44 0 0 0-33-4c-62 37-24 125 44 173z"/><g stroke="#3a9d4f" stroke-width="2"><path fill="#4fd46b" fill-rule="evenodd" stroke-linejoin="round" d="m356 267 7-9q8-6 7-8c6-2 4-7 5-8a7 7 0 0 0 1-8s2-8-1-10q-1-11-9-2-7 3-4 9c-6 0-6 9-4 14-8-1-4 8-4 9-3 1 2 13 2 13zm-49 73 4 2q2 5 6 4 3 6 9 1 5 7 11 3 8 5 14-1 6 4 9-3 4 2 7-3c6 0 3-6-2-8 4-4 8-11 2-12h-9q-1-5-10 0c-1-4-7-2-10 0q-4-5-14 1zm0-10c1-4-2-11 2-12-1-6 1-14 8-13 1-6 1-12 8-13 1 0 6-21 13-6 2 4 1 10-3 9q2 9-7 9 4 7-1 11zm35-25 7-1q8-8 12-2c5-1 11 0 10 4q9 1 6 8c1 5-1 13-5 4-13-8-20-7-40-2zm4-6c0-1 18-5 16-11 6-1 7-6 7-6 11-4 10-10 10-10 3-3 9-7 7-13 1-6 1-11-8-6q-9-1-11 9c-3-4-8 2-9 8l-8 8-7 13z"/><path fill="#4fd46b" fill-rule="evenodd" stroke-linejoin="round" d="M346 284q-7-5-6-11-5-5-2-10l-2-8c-6-2-4-7-2-9q-4-5 0-11c0-7 5-4 9 0 0 0 6 5 1 9q8 4 4 8 6 4 3 9c4 3 2 8 4 12z"/><path fill="#4fd46b" fill-rule="evenodd" stroke-linejoin="round" d="M354 252s-7-10-5-10q-2-4-2-9-4-5-1-11-3-6 2-10 0-8 6-8c3-9 7-6 9 0q5 5 2 11c4 3 1 6 0 8z"/><path fill="#4fd46b" fill-rule="evenodd" stroke-linejoin="round" d="m353 206-6-6c1-3 3-9-2-12-3-6-15-13-17 1-2-4-6-8-9-3q-11-8-7 3s-3 5 5 8c1 1-2 9 7 9q-2 6 5 7c-3 3 2 7 5 5q-2 6 4 6l6 7 5 7z"/><path fill="none" stroke-linecap="round" d="m357 263 13-34m-12-12s2 21-4 37m-31-59s23 22 25 32m-9-34s2 18 8 36m33 30s-23 20-35 37m13 32s-31 5-44 5m34 9s-38-1-41-4m22-46s-19 32-20 43"/></g><path fill="#65c7ff" fill-rule="evenodd" stroke="#7d6c00" stroke-width="2" d="M253 356c-41-38-82-110-41-146q10 5 28-4 5 6 13 2 8 2 11-2c12 6 27 10 30 3 40 39 0 110-41 147z"/><path fill="#8fc753" fill-rule="evenodd" d="M253 355a227 227 0 0 1-45-62q3-2 4-5l17-1q1 10 6 17l8-16a36 36 0 0 0 18 0c3 4 2 11 8 16 4-10 7-11 11-17q7 2 13 0l5 7a206 206 0 0 1-45 61"/><path fill="#fff" fill-rule="evenodd" stroke="#000" d="M206 175a4 4 0 1 1-8 0 4 4 0 0 1 8 0zm-4-8a4 4 0 1 1-7 0 4 4 0 0 1 7 0zm-5-8a4 4 0 1 1-7 0 4 4 0 0 1 7 0zm-3-7a4 4 0 1 1-7 0 4 4 0 0 1 7 0zm1-8a4 4 0 1 1-7 0 4 4 0 0 1 7 0zm19-13a4 4 0 1 1-7 0 4 4 0 0 1 7 0zm-7 1a4 4 0 1 1-7 0 4 4 0 0 1 7 0zm-8 4a4 4 0 1 1-7 0 4 4 0 0 1 7 0zm24-5a4 4 0 1 1-7 0 4 4 0 0 1 7 0zm10 0a4 4 0 1 1-7 0 4 4 0 0 1 7 0zm9 0a4 4 0 1 1-7 0 4 4 0 0 1 7 0z"/><path fill="#fd0" fill-rule="evenodd" stroke="#7d6c00" d="M262 125a9 9 0 1 1-18 0 9 9 0 0 1 18 0z"/><path fill="#fff" fill-rule="evenodd" stroke="#000" d="M272 131a4 4 0 1 1-7 0 4 4 0 0 1 7 0zm9 1a4 4 0 1 1-7 0 4 4 0 0 1 7 0zm9-1a4 4 0 1 1-7 0 4 4 0 0 1 7 0zm8 0a4 4 0 1 1-7 0 4 4 0 0 1 7 0zm9 1a4 4 0 1 1-7 0 4 4 0 0 1 7 0zm8 5a4 4 0 1 1-7 0 4 4 0 0 1 7 0z"/><path fill="#e40000" fill-rule="evenodd" stroke="#ac0000" stroke-width="2" d="m202 162 9 17h85l9-17q-6-5-17-5-7-9-18-7l-7-4-18 1c-5 0-9 4-9 4q-12-3-16 6-10-3-18 5z"/><path fill="#fff" fill-rule="evenodd" stroke="#000" d="M318 144a4 4 0 1 1-7 0 4 4 0 0 1 7 0zm0 9a4 4 0 1 1-7 0 4 4 0 0 1 7 0zm-2 8a4 4 0 1 1-7 0 4 4 0 0 1 7 0zm-3 6a4 4 0 1 1-7 0 4 4 0 0 1 7 0zm-4 8a4 4 0 1 1-8 0 4 4 0 0 1 8 0zm-50-10a5 5 0 1 1-11 0 5 5 0 0 1 11 0zm1-12a6 6 0 1 1-13 0 6 6 0 0 1 13 0z"/><path fill="#fff" fill-rule="evenodd" stroke="#000" d="M259 141a6 6 0 1 1-12 0 6 6 0 0 1 12 0z"/><path fill="#fd0" fill-rule="evenodd" stroke="#7d6c00" d="M251 116v-4h-4v-4h4v-3h4v3h4v4h-4v4z"/><path fill="none" stroke="#fd0" stroke-width="3" d="M211 179c-8-12-19-30-12-37 9-11 32-1 46-8 1 13-2 33 3 37l-5 4c-3-4-9-9-16 1q-7-5-11 1-2 2-5 2zm85 0c8-13 19-30 12-38-10-11-32-1-46-7-1 12 2 32-3 37l5 4q8-10 16 0 6-5 11 2z"/><path fill="#fd0" fill-rule="evenodd" stroke="#7d6c00" stroke-width="2" d="M211 189a466 466 0 0 1 84 0l3-10c-29-5-50-6-88 0z"/><path fill="#c76e2e" fill-rule="evenodd" d="M250 351v-4q5 1 8-1l3-3-2-3-4 4-5-1-2-7c-1-2-5-2-4 1v3l2 5v3zm1-19q-3 1-8-2l-8 1 3-3q1-6 3-6l3 1h2z"/><path fill="#ffe100" fill-rule="evenodd" stroke="#e9bf00" stroke-width="2" d="M236 391c7-13 60-37 109-90-50 48-82 60-123 89z"/><path fill="#9d4916" fill-rule="evenodd" stroke="#68300e" d="M308 334a4 4 0 1 1-8 0 4 4 0 0 1 8 0zm36-37a4 4 0 1 1-8 0 4 4 0 0 1 8 0zm13-32a4 4 0 1 1-8 0 4 4 0 0 1 7 0zm-12-41a4 4 0 1 1-8 0 4 4 0 0 1 7 0z"/><path fill="#fff" fill-rule="evenodd" stroke="#a9a9a9" d="M212 288v-17l-1-1v-4h3v-18l-2-1v-3h2l1-3-1-1 1-2-1-2-1-3 1-3v-1l-2-3 2-2-1-3 2-3 3-3 4-1 6 1 3 2v5l-1 3-2 1h-3l1 3v3l-1 4v3l-1 1v4l4 1v2l-3 1 1 16 4 1v5l-2 1v17zm67 0v-16l-2-2v-3l3-1 1-18-2-1v-3h2v-3l-1-1 2-2-1-1-1-3 1-3-1-2-1-2 2-2-1-3 2-3 2-4 5-1 5 1 3 2 1 5-1 3-3 1h-3l1 3v10l-1 1v4l4 1v3h-3v17h5v5l-2 1-1 17zm-34 0v-16l-1-1v-4h3v-18l-2-1v-3h2l1-4h-2l2-2-1-2-1-3 1-3-1-1-1-3 2-2-1-3 2-3 2-3 5-1 6 1 3 2v4l-1 3-2 2h-3l1 3v3l-1 4v2l-1 1v5l4 1v2h-3l1 17 4 1v5l-2 1v16z"/><path fill-rule="evenodd" d="M216 287v-12h8v13zm34 1v-13h7v13zm33 0v-12h6v12zm-65-38h4v6h-4zm33 0h5v6h-5zm33 1h5v6h-5z"/><path fill="none" stroke="#a8a8a8" d="m220 221 5 5m28-5q1 3 4 5m31-4 3 4"/><path fill="#b97700" fill-rule="evenodd" d="M216 207c12-4-3-12-6 0-4 1-5 4-14 2-21 36-5 93 58 152-113-97-67-168-36-166 17 1 9 23-2 12"/><path fill="none" stroke="#7d6c00" stroke-width="2" d="M219 189s11 3 11 7m0-8s7 3 8 6m49-5s-10 1-12 4m-2-3s-6 5-5 6m3 13s-4-5-3-11m-32 8s3-3 3-8m14-2v12m10-2c0-1 4-8 0-12m-22-2s-2 8 0 15m21-8-7 4m-12-2c0-1 5-2 6 1"/><path fill="#c76e2e" fill-rule="evenodd" d="M235 322q3 0 4-3 2-3 1-4l-4-1-5-6v-5q-6 2-7 7l3 3h4l1 4zm-4-24v-6h-5l-2 2-3 1 4 4q3 2 6-1m-15 10-2-4h5v4zm39 4 3-3-5-6h-4l-4-1 3 3zm5 1 6-1 3-6 6 8-4 1-3 3c0 1-6 1-8-1q-2-3 0-4m3-14v-8h-7l-4 2s1 5 3 4q2 3 4 3zm27-6q-2 3 0 8l3 1 6-10q-6-2-9 1"/><path fill="#b97700" fill-rule="evenodd" d="M291 206c-12-4 3-12 6 0 4 1 5 4 14 3 21 35 5 92-58 151 113-97 67-168 36-166-17 1-9 23 2 12"/><path fill="#c76e2e" fill-rule="evenodd" d="m293 304-4 2-4 2h-5l-1-3 4-4-9 3 2 6 5 4 6-1zm-25 32 12-14-5-6-6 8-2 10q0 3 1 2"/><path fill="#006800" fill-rule="evenodd" stroke="#004100" stroke-linejoin="round" stroke-width="2" d="M199 339c-16-14-37-22-67-11q13 3 24 8z"/><path fill="none" stroke="#00a400" stroke-linecap="round" stroke-width="2" d="M153 329c31 0 40 8 39 7"/><path fill="#006800" fill-rule="evenodd" stroke="#004100" stroke-linejoin="round" stroke-width="2" d="M199 340c-9 2-22 11-26 11l-29-9h-12c35-17 47-14 68-2zm-23-24-17 2q-7-1-21-14c-4-5-14-4-14-4q33-8 52 16zm-16-23c-15-1-35-15-40-32 0 0 6 4 5 5 26 6 28 11 36 27zm27 27q5-21-4-32c-5-7-7-10-11-20-1 19-5 35 15 52zm-25-40c12-17 14-30 12-50l-5 12c-17 11-9 28-7 39z"/><path fill="#006800" fill-rule="evenodd" stroke="#004100" stroke-linejoin="round" stroke-width="2" d="M152 197c11 18 10 34 8 54l-5-11c-17-11-6-32-3-43z"/><path fill="#006800" fill-rule="evenodd" stroke="#004100" stroke-linejoin="round" stroke-width="2" d="M161 224c29-14 18-33 23-47-20 15-22 31-23 47z"/><path fill="none" stroke="#00a400" stroke-linecap="round" stroke-width="2" d="m165 220 12-27m-20 49-5-29"/><path fill="#006800" fill-rule="evenodd" stroke="#004100" stroke-linejoin="round" stroke-width="2" d="M158 274c-16-1-33-23-38-40 0 0 6 4 5 5 23 10 26 19 33 35zm-5-15a67 67 0 0 1-11-51l4 12c18 11 10 28 8 39zm11-30c30-14 21-27 29-42-19 15-29 25-29 42z"/><path fill="none" stroke="#00a400" stroke-linecap="round" stroke-width="2" d="M165 226c12-12 17-22 17-22"/><g fill-rule="evenodd"><path fill="#ffe100" stroke="#e9bf00" stroke-width="2" d="M270 391h15c-48-45-140-64-127-146-13 89 75 97 112 146z"/><path fill="#9d4916" stroke="#68300e" d="M166 227a5 5 0 1 1-9 0 5 5 0 0 1 9 0zm-3 25a4 4 0 1 1-9 0 4 4 0 0 1 9 0zm4 36a4 4 0 1 1-8 0 4 4 0 0 1 8 0zm33 40a4 4 0 1 1-7 0 4 4 0 0 1 7 0zm5 11a4 4 0 1 1-7 0 4 4 0 0 1 7 0z"/></g><g fill="#fff" fill-rule="evenodd"><g stroke="#000"><path d="m222 372-5-6-15-2v9z"/><path stroke-linejoin="round" d="M112 362c9 2 22-1 26 5 6 6-16 15-13 20 7 7 14 4 21 0l4-12c-3-6-10-9-8-19 12-4 36-4 38-2l1 9c-2 3-8 10-8 14 13 4 16-1 28-1 13 0 22 4 24-1-2-5-14-1-19-4l-5-5c-2-2-8-2-9-7 2-11 18-10 21-11l41 3c7-1 11 13 1 17s-39-6-52 1c-1-3-10-7-11-8-4 2-11 1-11 1l-6 10c-9-4-17 3-26 1l-15 1-9-1-14 4 10-8z"/><path d="M112 361a4 4 0 1 1-8 0 4 4 0 0 1 8 0zm-1 19a4 4 0 1 1-8 0 4 4 0 0 1 8 0z"/></g><g stroke="#000"><path d="M284 372q4-2 5-6l15-2v9z"/><path stroke-linejoin="round" d="M394 362c-9 2-22 0-26 5-6 6 16 15 13 20-7 7-14 4-21 0l-4-12c3-6 10-9 8-19-12-4-35-4-38-2v9c2 4 7 10 7 14-13 4-16-1-28-1-13 0-21 4-24-1 2-5 14-1 19-4l6-5q6-1 8-7c-2-11-18-9-21-11l-41 3c-7-1-11 13-1 17s39-6 52 1c1-3 10-7 11-7h12l5 10c9-4 17 3 26 1l15 1h9l14 4-10-9z"/><path d="M394 361a4 4 0 1 0 8 0 4 4 0 0 0-8 0zm1 19a4 4 0 1 0 8 0 4 4 0 0 0-8 0z"/></g><path d="M253 351h-7l-6 17h17c-5-1-4-17-4-17"/></g><g font-family="Trebuchet MS" font-size="9" font-weight="bold"><path d="M217 363v-11h2v9h5v2z" aria-label="L"/><path d="M226 364v-12h2v11z" aria-label="I"/><path d="M235 364h-4v-11h4l2 1 1 2-1 2q2 1 2 3l-1 3zm-2-9v2h1l2-1-1-1zm0 4v4h1l2-1 1-1-1-2h-2z" aria-label="B"/><path d="M244 355v3h4v2h-4v3h5v2h-7v-11h7v1z" aria-label="E"/><path d="m259 365-3-5h-2v5h-2v-11h3q5 0 5 3l-1 2-2 1 4 5zm-5-9v3h1l2-1v-2z" aria-label="R"/><path d="M267 355v10h-2v-10h-4v-1h9v1z" aria-label="T"/><path d="m278 363-1-2h-4v2h-3l5-11h1l4 11zm-3-8-1 4h3z" aria-label="A"/><path d="m282 362 1-1h2l2-1v-1l-2-1-2-1-1-1v-2l1-2 3-1 3 1-1 2-2-1h-1l-1 1 2 2 2 1 1 1v2l-1 2-3 1z" aria-label="S"/></g><path fill="none" stroke="#00a400" stroke-linecap="round" stroke-width="2" d="M161 340h33m-49-37c9 7 29 12 29 12m11 2c-3-15-6-19-9-28m-46-17c15 7 18 11 27 18m6-15c1-19 4-23 8-28m-41-2 24 25m-8-42c7 5 7 23 7 23"/></svg>