<svg xmlns="http://www.w3.org/2000/svg" xmlns:xlink="http://www.w3.org/1999/xlink" viewBox="0 0 512 512"><path fill="#0f47af" d="M0 0h512v512H0z"/><path fill="#fff" d="M0 171h512v170H0z"/><g transform="translate(-184)scale(.85333)"><g fill="#fff" fill-rule="evenodd" stroke-width="0"><path d="m515 353 10-1q12-4 14-7h3l-5-3-5 1q-3 3-17 4-14-1-17-4l-4-1q-5 1-6 3h3q2 3 14 7z"/><path d="M488 347v-1l3-1h-3z"/><path d="m491 345-3 1v2l5-1zm51 2v-1l-3-1h3l1 1z"/><path d="m539 345 3 1v2l-5-1z"/></g><path d="m496 343-1 3v1l2-1q1-2-1-2zm0 1 1 2h-2z"/><path fill-rule="evenodd" d="m498 348 2-3z"/><path d="m500 345-1 1v3l3-1zm0 1v1l-1 1z"/><path fill-rule="evenodd" d="M504 347h-1v1l1 1a1 1 0 0 1-2 1 1 1 0 0 1 0-2v1h1v-1l-1-1zm2 0v4l1-1 1-2v2l-2 1-1-2zm5 5-2-3-1 2 1-3 1 3 1-2zm0 0 1-3z"/><path d="m514 349-1 1 1 2 2-1zm0 0 1 2-1 1-1-1z"/><path fill-rule="evenodd" d="m519 352-2-2v2h-1v-3zl-1-2h1zm2 0v-4zh1zm2-1-1-3h1z"/><path d="m524 348 1 3h1l1-1-1-1zm0 0v1zm0 1 1 1h-1z"/><path fill-rule="evenodd" d="m527 348 1 1 1-1v1h-2l-1-3h2-1z"/><path d="M529 346h-2l2 4v-2l1 1-1-1zm0 1v-1z"/><path fill-rule="evenodd" d="m529 346 2-1-1 1 2 2h-1l-1-2z"/><path d="M532 344v4h1v-1l1-1 1 1zm1 1h-1zm2-2 2 3 1-2zm1 0v2l-2-2h1z"/><g id="sv-a" stroke="#000" stroke-miterlimit="3" stroke-width="0"><path fill="#e60000" fill-rule="evenodd" d="m485 355 1-1-1-1-1 1zm-5 6h1l-1-1-1 1zm-12-19 1-1-1-1-1 1zm-7 3 1-1-1-1-1 1zm-2-22 1-1-1-1-1 1zm-6 2 1-1-1-1-1 1zm3-20 1-1-1-1-1 1zm-5-18 1-1-1-1-1 1zm7 1h1l-1-1-1 1zm7-15 1-1-1-1a1 1 0 1 0 0 2zm-5-4 1-1-1-1-1 1zm10-10 1-1-1-1-1 1zm-21 46 1-1-1-1-1 1z"/><path fill="none" d="m486 359-1-4 1-1m-1 6h-4v1m-14-15 1-4 1-1m-5 4h-3m-1-23v1l-3 4-3-2h-1m-5-20h1l3 3 4-3h1m-6-19 1 1 2 3 3-2h1m1-19h1l1 4h4"/><g fill="#1f601a" fill-rule="evenodd"><path d="M533 378h-5l-2-3c-1-1-11-6-18-7l-19-6a88 88 0 0 1-26-19c-3-4-6-14-7-19-1-2-4-12-4-19l2-20a111 111 0 0 1 15-26s-12 18-14 26l-2 21c0 4 3 20 8 31 5 9 8 10 14 15l14 9 18 6 18 5z"/><path d="m464 343 1-2 2-4v-3l1-2-2-3-2-4v2l-1 3v8zm0-1-4-6v-4q-3 0-1-5l2-3 2-3v13zm38 23h-4l-3-1-4-3-3-4q-1-1 3-1l3 2 4 3 2 1z"/><path d="m506 368-8-4-3-3-4-3-3-6 5 1 4 2 3 3 2 5z"/><path d="M510 368s-6-1-9-5l-2-3-4-4-2-7 4 1 4 3 3 5 1 4 1 3zm-9-2-6-2-2-1h-10l3 3 4 1h7z"/><path d="m504 366-7-1h-4l-6 1-7 1 4 3 6 1 6-1 2-1z"/><path d="M509 369s-6-3-11-1l-4 1h-5c-1 0-6 3-7 2l5 4h11l4-2 2-2zm-31-13-4-4-3-3-3-2-4-2 1 4 3 3 4 2h2z"/><path d="m481 357-6-4-4-1-5-3-4-1 1 4 4 3 5 2 3-1z"/><path d="m483 358-7-2-4-1-5-1c-1 0-6 2-7 1q-1 1 3 2l4 3q3 2 6 1h3q2-2 7-3zm0-1v-7l-1-3-2-4-1-5q-2 1-3 5v3l1 4 1 5z"/><path d="m483 358-3-2-6-3-4-5v-3l1-4 2-4 1 4 1 3 2 4 1 6c1 0 3 4 5 4zm-19-15h-3l-6-1-3-3-2-4-4-5q1-1 7 1c6 2 3 2 3 2l6 6z"/><path d="m464 343-5-2q-3-1-5-5l-3-3-3-7 5 1 5 2q0 3 2 3l1 5zm-7-20 1-7 1-3 1-3v-6l-2 2-2 2-1 2-1 3v3z"/><path d="M457 324v-3l2-1 1-2 1-2v-5h-2l-2 3-1 2v5zm-5-23 1-6 5-6v6l-2 3-2 2z"/><path d="M453 303v-4l2-2 2-3 3-3v6l-3 4-2 1h-1zm3 20-2-2q-6 0-7-2l-2-2-2-3-1-5 2 1 3 1 2 2 2 1 2 4 2 2z"/><path d="m456 322-3-2-4-4-2-4-2-4 1-4 1 2 3 2 2 2 1 2 1 3zm-3-16c-1 0 1-2-2-3l-6-4-1-2-1-4 1-4 2 1 2 2 1 2 2 2 1 4q-1 2 1 3z"/><path d="m453 304-3-3-2-4-1-4v-4l1-3 1 2 2 2 2 2zm2-18 2-1 4-3 2-2 1-5-3 1-3 2-2 2-1 3z"/><path d="M455 285v-8l6-4v3l-2 4z"/><path d="m454 286-1-3-1-3v-3l3-5 1 4v7zm8-15 2-1 3-1 3-1 1-2 2-2h-3q-4 1-5 3z"/><path d="m463 270 3-1 1-2 2-3v-4l-2 1-2 1-1 3s-3 2-1 5z"/><path d="m462 270 2-2 1-3 2-3-1-3-2 2-1 2-2 2 1 4z"/></g><path fill="none" d="m495 365-11-1m17 2-10 2h-6l-5-1m27 2-6 1-7 2h-12m6-15 5 3 4 3m-9-11 8 7 8 7m-10-16 5 6 3 3 2 5 4 4m-44-22 7 6m-9-3 8 5 10 2m2 2h-7l-7-1-7-1m12-18v5l2 6 2 5m2-16-1 5 1 4 1 4 1 4 2 2m-37-26 6 3 2 2m10-10 1 6v5l-1 5m-2-20v4l-1 4v7m-12-11 5 4 5 7 4 5m-21-33 5 5 2 3m12-6-2 3-1 3-1 4m3-16-1 3-2 4-1 8m-10-16 1 4 3 3 3 7 2 3m-11-32 1 3 3 6m9-8-1 3-1 2-1 2m6-5-2 4-2 3q-3 2-3 4m-5-17 1 5 1 4 1 3 1 4m12-26-3 3-5 6m4-11-2 5-1 2m-2-8v8l-1 4m18-21-5 4m2-8-3 5-1 2m1-7-2 3-2 6m7-11 2 1"/></g><use xlink:href="#sv-a" width="100%" height="100%" transform="matrix(-1 0 0 1 1030 0)"/><path fill="#00209f" fill-rule="evenodd" d="M515 366s0-2 2 0c0 0 2 4 0 4h-3z"/><path fill="#00209f" fill-rule="evenodd" d="m517 366 1-7 5-1c2 2 0 8 0 9q-1 3-5 2l-1-2h3l2-2-1-5-3-1zm-3 4s-6 4-3 9l-2-1v3s-4-4-1-8l6-5z"/><path fill="#00209f" fill-rule="evenodd" d="M514 367s-2-2-6-1c0 0-2-5-1-7l1-1q-1-2-2 4l2 7h6z"/><path fill="#00209f" fill-rule="evenodd" d="m514 367-6-9 2-1q2-1 4 2l2 6z"/><path fill="#011322" fill-rule="evenodd" d="m514 367-4-2v-5l-2-2q-2 0-1 3l1 5q1-1 6 1"/><path fill="#00209f" fill-rule="evenodd" d="M518 370s2 1 2 4l2 7 1-2 3 2-1-3-2-5z"/><path fill="#011322" fill-rule="evenodd" d="m519 360-2 6v1l1-1z"/><path fill="#011d33" fill-rule="evenodd" d="M514 369s-3 1-4 4zm4 0 2 2zm-4-1h-5zm8-3 1 2 1-6-2-2zm-5 1s2 4 0 4v-2l-1-3z"/><path fill="none" d="M515 366s0-2 2 0c0 0 2 4 0 4h-3z"/><path fill="none" d="m517 366 1-7 5-1c2 2 0 8 0 9q-1 3-5 2l-1-2h3l2-2-1-5-3-1z"/></g><g transform="translate(-184)scale(.85333)"><path fill="#00209f" fill-rule="evenodd" d="m510 256-1-8 4-12 1-1 1-2 1 4-1 6-2 5v3z"/><path fill="#fff" fill-rule="evenodd" d="m515 247 1-5-1-6-1 6-2 5v3z"/><path fill="#00209f" fill-rule="evenodd" d="m516 248 1-5v8z"/><path fill="none" d="M517 251v-8l-1-6-1-4-1 1-1 2-4 11 1 9"/><path fill="#fc0" fill-rule="evenodd" d="M515 234v-1zl2 2-2 2-1-2z"/><path fill="none" d="M515 233h1l2 1m-2-1 2 2"/><path fill="#fc0" fill-rule="evenodd" d="M514 233h1v1l-1 3-2-2 1-1z"/><path fill="none" d="m515 233-1 2m0-1-1 2h1"/><path fill="#fc0" fill-rule="evenodd" d="M515 233q1-2 3-1v1zl1 1 2-1-2-1zm0 0-2-1h-1v1zl-2 1-1-1 1-1zm0-1h2z"/><path fill="#fc0" fill-rule="evenodd" d="m515 226 2 4q0 2-2 3l-2-3z"/><path fill="none" d="m515 226 2 4-2 3-2-3z"/><path fill="none" d="m515 229 1 2h-1l-1-1z"/><path fill="#fff" fill-rule="evenodd" d="M515 345h-2v-5l2-7 2 7v5z"/><path fill="#00209f" fill-rule="evenodd" d="m515 332 2 7v5l1-1h1l1-1 1-1v-2l-1-1v-1l-1-1v-1h-1l-1-2v-2zm0 0-2 7v5l-1-1h-1l-1-1-1-1v-2l1-1v-1l1-1v-1h1l1-2v-2z"/><g id="sv-b" fill="none" stroke-miterlimit="3" stroke-width="0"><path stroke="#011322" d="m514 332-1 5q-2 2-2 6"/><path stroke="#011d33" d="m514 332-1 5q-2 2-2 6"/><path stroke="#022743" d="m515 332-2 5q-3 2-1 6"/><path stroke="#033054" d="m515 332-2 5q-3 1-1 6"/><path stroke="#053a65" d="m515 332-2 5c0 1-3 3-1 6"/><path stroke="#011d33" d="m514 332-1 5q-2 2-2 6"/><path stroke="#022743" d="m514 332-2 5q-2 2-1 6"/><path stroke="#033054" d="m514 332-2 5c0 1-3 3-1 6"/><path stroke="#053a65" d="m514 332-2 5c0 1-3 3-1 6"/><path stroke="#00209f" d="m514 332-2 5q-3 2-1 5"/><path stroke="#00209f" d="m515 332-2 5c0 1-3 3-1 6"/></g><use xlink:href="#sv-b" width="100%" height="100%" transform="matrix(-1 0 0 1 1030 0)"/><path fill="none" d="m519 335 1 1v1l1 1v2l-1 1-1 1h-1l-1 1h-2v1-1h-2l-1-1h-1v-1h-1l-1-1v-2l1-1v-1l1-1v-1"/><g id="sv-c"><g fill-rule="evenodd"><path fill="#fff" d="m487 294-3-13 1-17 8 8v6l1 5z"/><path fill="#00209f" d="m494 283-1-5v-6l4 5zm-19 7v-18l1-14v-4l9 10-1 17 3 13-2 3zm6 14-1-5v-5l5 3zm-14 24-2-3-1-3v-4l-2-6-2-13q2-6 1-13v-4l11 7-1 15 3 11zm17 3 6 4 6 2 6-1h2l4-1 3-2 1-2h1v2l-1 1v1h-1l-1 1-4 1-2 1-3 1h-2l-9 1-5-2-7-3-2-1-5-2z"/><path fill="#00209f" d="M498 332h14l-1 1-3 2-5-1z"/><path fill="#fff" d="m498 332 5 2 4 1-3 1h-2l-6 1-6-2-6-3z"/></g><g fill="none" stroke-miterlimit="3" stroke-width="0"><path stroke="#022743" d="M477 260s1 15 7 14"/><path stroke="#022847" d="M484 274q-5 0-6-7l-1-7"/><path stroke="#032b4c" d="M484 274q-5-1-6-7l-1-7"/><path stroke="#032d4f" d="M484 274q-5-1-6-7l-1-7"/><path stroke="#032f53" d="M484 274q-5-3-6-7l-1-8"/><path stroke="#043258" d="M484 274q-5-3-6-7l-1-8"/><path stroke="#04345b" d="M484 274q-5-3-5-7l-2-8"/><path stroke="#04365e" d="M484 274q-5-3-5-8l-2-7"/><path stroke="#043862" d="M484 274q-5-4-5-8l-2-7"/><path stroke="#053b67" d="M484 274q-5-4-5-8l-2-7"/><path stroke="#053d6a" d="M484 274q-5-4-5-8l-2-7"/><path stroke="#053f6e" d="M484 274q-5-5-5-8l-2-7"/><path stroke="#064172" d="M484 274q-5-5-5-8l-2-7"/><path stroke="#00209f" d="m477 259 2 7q0 3 5 7"/><path stroke="#022743" d="M477 256s5 12 8 11"/><path stroke="#022a49" d="m485 267-5-5-3-6"/><path stroke="#032d4f" d="m485 267-5-5-3-6"/><path stroke="#033054" d="m485 267-5-5-3-6"/><path stroke="#043359" d="m485 267-5-5-3-6"/><path stroke="#043760" d="m485 267-5-5-3-6"/><path stroke="#053a65" d="m485 267-5-5-3-6"/><path stroke="#053d6a" d="m485 267-5-5-3-6"/><path stroke="#064171" d="m485 267-5-5-3-6"/><path stroke="#00209f" d="m477 256 3 6 5 5m8 12 4-1m-4-3 4 2"/><path stroke="#064171" d="m493 275 4 2"/><path stroke="#053e6c" d="m493 275 4 2"/><path stroke="#053b67" d="m493 275 4 2"/><path stroke="#043862" d="m493 276 4 1"/><path stroke="#04355c" d="m493 276 4 1"/><path stroke="#043258" d="m493 276 4 1"/><path stroke="#032f53" d="m493 276 4 1"/><path stroke="#032c4d" d="m493 276 4 1"/><path stroke="#022a49" d="M493 277h4"/><path stroke="#064171" d="m493 279 4-1"/><path stroke="#053e6c" d="M493 278h4"/><path stroke="#053b67" d="M493 278h4"/><path stroke="#043862" d="M493 278h4"/><path stroke="#04355c" d="M493 278h4"/><path stroke="#043258" d="M493 278h4"/><path stroke="#032f53" d="m493 277 4 1"/><path stroke="#032c4d" d="m493 277 4 1"/><path stroke="#022a49" d="M493 277h4"/><path stroke="#022743" d="M493 277h4m-22 1 1 4 7 7"/><path stroke="#022847" d="m483 289-5-4-2-3-1-4"/><path stroke="#032b4c" d="m483 289-5-5-2-2-1-4"/><path stroke="#032d4f" d="m483 289-5-5-2-2-1-4"/><path stroke="#032f53" d="m483 289-5-5-2-2-1-4"/><path stroke="#043258" d="M484 289q-4-2-6-5l-1-2-2-5"/><path stroke="#04345b" d="m484 289-6-5-1-2-2-5"/><path stroke="#04365e" d="m484 289-5-5-2-2-2-5"/><path stroke="#043862" d="m484 289-5-5-2-2-2-5"/><path stroke="#053b67" d="m484 289-5-5-2-3-2-4"/><path stroke="#053d6a" d="m484 289-5-5-2-3-2-4"/><path stroke="#053f6e" d="m484 289-5-5-2-3-2-4"/><path stroke="#064172" d="m484 289-5-5-1-3-3-4"/><path stroke="#00209f" d="m475 277 4 6 5 6"/><path stroke="#011d33" d="m475 290 10 7 2-3-1-3"/><path stroke="#011e34" d="m475 290 10 6 2-3-1-2"/><path stroke="#022037" d="m475 290 10 6 2-3-1-2"/><path stroke="#022139" d="m475 290 10 6 2-3v-1l-1-1"/><path stroke="#02223b" d="m475 290 10 6 2-3v-1l-1-1"/><path stroke="#02233d" d="m475 290 10 6h1l1-3v-1l-1-1"/><path stroke="#022540" d="m475 290 11 6 1-3v-1l-1-1"/><path stroke="#022541" d="m475 290 11 6v-1l1-2v-1l-1-1"/><path stroke="#022743" d="m475 290 11 6v-1l1-2v-1l-1-1"/><path stroke="#022847" d="m475 290 11 5 1-2v-1l-1-1"/><path stroke="#022a49" d="m475 290 11 5v-3q1 0 0 0v-1"/><path stroke="#032a4a" d="m475 290 11 5v-4"/><path stroke="#032b4c" d="m475 290 10 5h1v-4"/><path stroke="#032d4f" d="m475 290 10 5h1v-4"/><path stroke="#032e50" d="m475 290 10 5 1-3v-1"/><path stroke="#032f53" d="m475 290 10 5h1v-4"/><path stroke="#033156" d="m475 290 10 5 1-1v-3"/><path stroke="#043258" d="m475 290 10 5 1-1v-3"/><path stroke="#043359" d="M475 290q4 3 10 4h1v-3"/><path stroke="#04355c" d="M475 290c2 0 7 4 10 4h1l-1-3h1"/><path stroke="#04365e" d="M475 290c1 0 7 4 10 4h1l-1-3h1"/><path stroke="#043760" d="m475 290 10 4h1l-1-3h1"/><path stroke="#043862" d="m475 290 10 4h1l-1-3h1"/><path stroke="#053a65" d="M476 290s7 4 10 4v-1l-1-2h1"/><path stroke="#053b67" d="M476 290s7 4 10 4v-1l-1-2h1"/><path stroke="#053c68" d="M476 290s7 4 10 4v-1l-1-2h1"/><path stroke="#053e6c" d="M476 290s8 4 10 3l-1-2h1"/><path stroke="#053f6e" d="M476 290s8 4 10 3l-2-3 1 1h1"/><path stroke="#053f6f" d="M476 290s8 4 10 3l-2-3 1 1h1"/><path stroke="#064171" d="M476 289c0 1 8 5 10 4l-2-3h1l1 1"/><path stroke="#064374" d="M476 289s8 5 10 4l-2-3h1l1 1"/><path stroke="#00209f" d="M476 289s9 6 10 3l-2-2h1l1 1"/><path stroke="#011d33" d="m474 315-7 13-2-2-1-4v-3l-2-7"/><path stroke="#011d33" d="m462 312 2 6v4l1 3 2 3 7-13"/><path stroke="#011e34" d="m462 312 2 6v4l1 3 2 2 7-12"/><path stroke="#011e34" d="m462 312 2 6v4l1 3 2 2 7-12"/><path stroke="#011f36" d="m462 312 2 6v3l1 4 2 2 7-12"/><path stroke="#011f36" d="m462 312 2 6v3l1 4 2 2 7-12"/><path stroke="#022037" d="m462 312 2 6v3l1 4 2 2 7-12"/><path stroke="#022037" d="m462 312 2 6v3l1 4 2 2 7-12"/><path stroke="#022139" d="m462 312 2 6v3l1 3 2 3 7-12"/><path stroke="#022139" d="m462 312 2 6v3l1 3 2 2 7-11"/><path stroke="#022139" d="m462 312 2 6v3l1 3 2 2 7-11"/><path stroke="#02223b" d="m462 312 2 6v3l1 3 2 2 7-11"/><path stroke="#02223b" d="m462 312 2 6v3l1 3 2 2 7-11"/><path stroke="#02233d" d="m462 312 2 6v3l1 3 2 2 7-11"/><path stroke="#02233d" d="m462 312 2 6v3l1 3 2 2 7-11"/><path stroke="#02233e" d="m462 312 2 6v3l1 3 2 2 7-11"/><path stroke="#02233e" d="m462 312 2 6v3l1 3 2 2 7-11"/><path stroke="#022540" d="m462 312 2 5v3l1 3 2 2 7-10"/><path stroke="#022540" d="m462 312 2 5v3l1 3 2 2 7-10"/><path stroke="#022540" d="m462 312 2 5v3l1 3 2 2 7-10"/><path stroke="#022541" d="m462 312 2 5v3l1 3 2 2 7-10"/><path stroke="#022541" d="m462 312 2 5v3l1 3 2 2 7-10"/><path stroke="#022743" d="m462 312 2 5v3l1 3 2 2 7-10"/><path stroke="#022743" d="m462 312 2 5v3l1 3 2 1c1 1 7-9 7-9"/><path stroke="#022845" d="m462 312 2 5v3l1 3 2 1c1 1 7-9 7-9"/><path stroke="#022845" d="m462 312 2 5v3l1 2 2 2 7-9"/><path stroke="#022847" d="m462 312 2 5v3l1 2 2 2 7-9"/><path stroke="#022847" d="m462 312 2 5v3l1 2 2 2 7-9"/><path stroke="#022847" d="m462 312 2 5v2l1 3 2 2 7-9"/><path stroke="#022a49" d="m462 312 2 5v2l1 3 2 2 7-9"/><path stroke="#022a49" d="m462 312 2 5v2l1 3 2 1c1 1 7-8 7-8"/><path stroke="#032a4a" d="m462 312 2 5v2l2 3 1 1c1 1 7-8 7-8"/><path stroke="#032a4a" d="m462 312 2 5v2l2 3 1 1 7-8"/><path stroke="#032b4c" d="m462 312 2 4v3l2 2 1 2 7-8"/><path stroke="#032b4c" d="m462 312 2 4v3l2 2 1 2 7-8"/><path stroke="#032c4d" d="m462 312 2 4v3l2 2 1 2 7-8"/><path stroke="#032c4d" d="m462 312 2 4v3l1 2 2 2 7-8"/><path stroke="#032c4d" d="m462 312 2 4v3l1 2 2 1c1 1 6-7 7-7"/><path stroke="#032d4f" d="m462 312 2 4v2l1 3 2 1c1 1 6-6 7-7"/><path stroke="#032d4f" d="m462 312 2 4v2l1 3 2 1 7-7"/><path stroke="#032e50" d="m462 312 2 4v2l1 3 2 1 7-7"/><path stroke="#032e50" d="m462 312 2 4v2l1 2 2 2 7-7"/><path stroke="#032f53" d="m462 312 2 4v2l2 2 1 2 7-7"/><path stroke="#032f53" d="m462 312 2 4v2l2 2 1 2 7-7"/><path stroke="#033054" d="m462 312 2 4v2l2 2 1 1c1 1 6-6 7-6"/><path stroke="#033054" d="m462 312 2 4 1 2 1 2 1 1c1 1 6-5 7-6"/><path stroke="#033054" d="m462 312 2 4 1 2 1 2 1 1 7-6"/><path stroke="#033156" d="m462 312 2 4 1 2 1 2 1 1 7-6"/><path stroke="#033156" d="m462 312 2 4 1 2 1 2 1 1 7-6"/><path stroke="#043258" d="m462 312 2 4 1 1 1 2 1 2 7-6"/><path stroke="#043258" d="m462 312 2 3 1 3 1 2 1 1 7-6"/><path stroke="#043359" d="m462 312 2 3 1 2 1 2 1 2 7-6"/><path stroke="#043359" d="m462 312 2 3 1 2 1 2 1 1c1 1 6-4 7-5"/><path stroke="#04345b" d="m462 312 2 3 1 2 1 2 1 1c1 1 6-4 7-5"/><path stroke="#04345b" d="m462 312 2 3 1 2 1 2 1 1 7-5"/><path stroke="#04345b" d="m462 312 2 3 1 2 1 2 1 1 7-5"/><path stroke="#04355c" d="m462 312 2 3 1 2 1 2 1 1 7-5"/><path stroke="#04355c" d="m462 312 2 3 1 2 1 2 1 1 7-5"/><path stroke="#04365e" d="m462 312 2 3 1 2 1 1 1 1c2 1 6-3 7-4"/><path stroke="#04365e" d="m462 312 2 3 1 2 1 1 1 1c2 1 6-3 7-4"/><path stroke="#043760" d="m462 312 2 3 1 2 1 1 1 1c2 1 6-3 7-4"/><path stroke="#043760" d="m462 312 2 3 1 1 1 2 1 1c2 1 6-3 7-4"/><path stroke="#043862" d="m462 312 2 3 1 1 1 2 1 1 7-4"/><path stroke="#043862" d="m462 312 2 3 1 1 1 2 1 1 7-4"/><path stroke="#043862" d="m462 312 2 3 1 1 1 2 1 1 7-4"/><path stroke="#043963" d="m462 312 2 3 1 1 1 2h1q4 0 7-3"/><path stroke="#043963" d="m462 312 2 3 1 1 1 1 1 1q4 0 7-3"/><path stroke="#053a65" d="m462 312 2 2 1 2 1 1 1 1q4 0 7-3"/><path stroke="#053a65" d="m462 312 2 2 1 2 1 1 1 1q4 0 7-3"/><path stroke="#053b67" d="m462 312 2 2 1 2 1 1 1 1 7-3"/><path stroke="#053b67" d="m462 312 2 2 1 2 1 1 1 1 7-3"/><path stroke="#053c68" d="m462 312 2 2 1 2 1 1 1 1 7-3"/><path stroke="#053c68" d="m462 312 2 2 1 1 1 2h1q4 1 7-2"/><path stroke="#053c68" d="m462 312 2 2 1 1 1 2h1q4 1 7-2"/><path stroke="#053d6a" d="m462 312 2 2 1 1 1 1 1 1q4 1 7-2"/><path stroke="#053d6a" d="m462 312 2 2 1 1 1 1 1 1q4 1 7-2"/><path stroke="#053e6c" d="m462 312 2 2 1 1 1 1 1 1q4 1 7-2"/><path stroke="#053e6c" d="m462 312 1 2 2 1 1 1 1 1 7-2"/><path stroke="#053f6e" d="m462 312 1 2 2 1 1 1 1 1 7-2"/><path stroke="#053f6e" d="m462 312 1 2 2 1 1 1 1 1 7-2"/><path stroke="#053f6f" d="m462 312 1 2 2 1 1 1h1q4 1 7-1"/><path stroke="#053f6f" d="m462 312 1 2 2 1 1 1h1q4 1 7-1"/><path stroke="#053f6f" d="m462 312 1 2 2 1 1 1h1q4 1 7-1"/><path stroke="#064171" d="m462 312 1 2h2l1 1 1 1q4 1 7-1"/><path stroke="#064171" d="m462 312 1 2h2l1 1 1 1 7-1"/><path stroke="#064172" d="m462 312 1 1 2 1 1 1 1 1 7-1"/><path stroke="#064172" d="m462 312 1 1 2 1 1 1 1 1 7-1"/><path stroke="#064374" d="m462 312 1 1 2 1 2 1h7"/><path stroke="#064374" d="m462 312 1 1 2 1 2 1h7"/><path stroke="#00209f" d="m462 312 1 1 2 1 1 1h8m-12-3s6 5 12 3"/><path stroke="#022743" d="m462 292 1 9q1 4 7 7"/><path stroke="#022a49" d="m462 292 1 9c1 1 3 6 7 7"/><path stroke="#032b4c" d="m462 292 2 9 6 7"/><path stroke="#032e50" d="m462 292 2 9q0 3 6 7"/><path stroke="#033054" d="m462 292 2 9 6 7"/><path stroke="#043359" d="m462 292 2 9 6 7"/><path stroke="#04355c" d="m462 292 2 9q0 2 6 7"/><path stroke="#043760" d="m462 292 2 9 6 7"/><path stroke="#053a65" d="m462 292 2 9 6 7"/><path stroke="#053c68" d="m462 292 2 9 6 7"/><path stroke="#053f6e" d="m462 292 2 9 6 7"/><path stroke="#064172" d="m462 292 2 9 6 7"/><path stroke="#00209f" d="m462 292 3 9 5 7"/><path stroke="#022743" d="M462 287s1 12 9 15"/><path stroke="#022a49" d="m462 287 2 7q2 5 7 8"/><path stroke="#032b4c" d="m462 287 2 7 7 8"/><path stroke="#032e50" d="m462 287 2 7 7 8"/><path stroke="#033054" d="m462 287 2 7 7 8"/><path stroke="#043359" d="m462 287 3 7 6 8"/><path stroke="#04355c" d="m462 287 3 7 6 8"/><path stroke="#043760" d="M462 287s1 5 3 7l6 8"/><path stroke="#053a65" d="m462 287 3 7 6 8"/><path stroke="#053c68" d="m462 287 3 7 6 8"/><path stroke="#053f6e" d="m462 287 3 7 6 8"/><path stroke="#064172" d="m462 287 3 7 6 8"/><path stroke="#00209f" d="m462 287 3 7 6 8"/><path stroke="#022743" d="M462 284s3 9 9 12"/><path stroke="#022847" d="m462 284 3 6q3 5 6 5"/><path stroke="#032a4a" d="m462 284 3 6q3 4 6 5"/><path stroke="#032c4d" d="m462 284 3 6q3 5 6 5"/><path stroke="#032f53" d="m462 284 3 6 6 5"/><path stroke="#033156" d="m462 284 3 6 6 5"/><path stroke="#043359" d="m462 284 4 6 5 5"/><path stroke="#04355c" d="m462 284 9 11"/><path stroke="#043760" d="m462 284 4 6 5 5"/><path stroke="#043963" d="m462 284 4 6 5 5"/><path stroke="#053b67" d="m462 284 4 6 5 5"/><path stroke="#053e6c" d="m462 284 4 6 5 5"/><path stroke="#053f6f" d="m462 284 4 6 5 5"/><path stroke="#064172" d="m462 284 4 6 5 5"/><path stroke="#00209f" d="m462 284 4 5 5 6m9 2h4m-4 3 4-2"/><path stroke="#064171" d="M480 297h4"/><path stroke="#053e6c" d="M480 297h4"/><path stroke="#053b67" d="M480 297h4"/><path stroke="#043862" d="M480 297h5"/><path stroke="#04355c" d="M480 297h5"/><path stroke="#043258" d="M480 298h5"/><path stroke="#032f53" d="m480 298 5-1"/><path stroke="#032c4d" d="M480 298h5"/><path stroke="#022a49" d="M480 298h5"/><path stroke="#064171" d="m480 300 5-2"/><path stroke="#053e6c" d="m480 300 5-2"/><path stroke="#053b67" d="m480 300 5-2"/><path stroke="#043862" d="m480 299 5-1"/><path stroke="#04355c" d="m480 299 5-1"/><path stroke="#043258" d="m480 299 5-1"/><path stroke="#032f53" d="m480 299 5-1"/><path stroke="#032c4d" d="m480 299 5-1"/><path stroke="#022a49" d="M480 298h5"/><path stroke="#022743" d="M480 298h5"/><path stroke="#032b4c" d="M484 332h-12"/><path stroke="#032e50" d="M484 332h-12"/><path stroke="#033054" d="M484 332h-12"/><path stroke="#043359" d="M484 332h-12"/><path stroke="#04355c" d="M484 332h-12"/><path stroke="#043760" d="M484 332h-12"/><path stroke="#053a65" d="m484 332-3 1-9-1"/><path stroke="#053c68" d="m484 332-3 1-9-1"/><path stroke="#053f6e" d="m484 332-3 1-9-1"/><path stroke="#064172" d="m484 332-3 1-9-1"/><path stroke="#00209f" d="m473 332 8 1 3-1"/><path stroke="#022a49" d="m486 337 5 1 3-1h2"/><path stroke="#032d4f" d="m486 337 5 1h3l2-1"/><path stroke="#033054" d="m486 337 5 1 2-1h2"/><path stroke="#043359" d="M485 337h10"/><path stroke="#043760" d="M485 337h10"/><path stroke="#053a65" d="M485 337h10"/><path stroke="#053d6a" d="m485 336 6 1h3"/><path stroke="#064171" d="m484 336 7 1h3"/><path stroke="#022743" d="m486 337 5 1h3l2-1"/><path stroke="#00209f" d="m484 336 7 1h3m12 0 4-2q4-2 3-3"/><path stroke="#00209f" d="m506 336 3-1 3-4"/><path stroke="#053e6c" d="m505 336 4-1 1-1 2-1v-1"/><path stroke="#043862" d="m505 336 4-1 1-1 2-1v-1"/><path stroke="#043258" d="m505 337 4-2 1-1 2-1v-1"/><path stroke="#032c4d" d="m504 337 5-2 1-1 2-1v-1"/><path stroke="#053e6c" d="m506 337 4-2 2-1 1-2"/><path stroke="#043862" d="m505 337 5-2 2-2 1-1"/><path stroke="#043258" d="m505 337 5-2 2-2 1-1"/><path stroke="#032c4d" d="m505 337 5-2 2-2 1-1"/><path stroke="#022743" d="m504 337 6-2 2-2v-1"/><path stroke="#032b4c" d="M511 332h-13"/><path stroke="#032e50" d="M511 332h-13"/><path stroke="#033054" d="M511 332h-13"/><path stroke="#043359" d="M511 332h-12"/><path stroke="#04355c" d="M511 332h-12"/><path stroke="#043760" d="M511 332h-12"/><path stroke="#053a65" d="m511 332-3 1-9-1"/><path stroke="#053c68" d="m511 332-3 1-9-1"/><path stroke="#053f6e" d="m511 332-3 1-9-1"/><path stroke="#064172" d="m511 332-3 1-9-1"/><path stroke="#00209f" d="m499 332 9 1 4-1"/></g><path fill="none" stroke="#000" stroke-miterlimit="3" stroke-width="0" d="M475 290v-18l1-14v-4l21 23m-30 51-2-3-1-3v-4l-2-6-1-13v-17l24 16m28 33v2l-1 1v1h-1l-1 1-4 1-2 1-3 1h-2l-9 1-5-2-7-3-2-1-5-2"/><g stroke="#000" stroke-miterlimit="3" stroke-width="0"><path fill="#fc0" fill-rule="evenodd" d="M485 298v-1l-23-16-1 1zm-24-17 1-2h1q1 1-1 2h-1l2-1v-1h-1zm0 0-2 1v2l2-2v-1 1l-1 2h-1l-1-2z"/><path fill="#fc0" fill-rule="evenodd" d="M461 281v1l1-1zm-5-3 4 1 1 2h-3z"/><path fill="none" d="M458 279h1l1 1h-1z"/><path fill="#fc0" fill-rule="evenodd" d="M461 283v-1l1 1 1 2-3 1v-2z"/><path fill="none" d="M461 282v1h1v3m0-3v3m-1-2 1 2h-1"/><path fill="#fc0" fill-rule="evenodd" d="M497 277h1l-22-24v1zm-20-24 1-2h1v1l-2 1h-1 3v-2h-2l-1 2z"/><path fill="#fc0" fill-rule="evenodd" d="m476 253-2 1v1q1 1 2-1l-1 1h-2l1-2h3z"/><path fill="#fc0" fill-rule="evenodd" d="M476 253v1l1-1zm-4-4 4 2v2h-3z"/><path fill="none" d="m474 250 1 1v1h-1z"/><path fill="#fc0" fill-rule="evenodd" d="m476 255 1-1v4h-2v-2z"/><path fill="none" d="M476 254v1l1 1v2m-1-3v3m0-1v1"/></g></g><use xlink:href="#sv-c" width="100%" height="100%" transform="matrix(-1 0 0 1 1030 0)"/></g><path fill="#fc0" d="m255 211-43 72h86z"/><path fill="#fff" d="m255 216-38 64h77z"/><path fill="#007e93" d="m228 261-11 20h77l-11-20z"/><g fill="none" stroke-miterlimit="3" stroke-width="0"><path d="m249 227 6-2q4-1 7 2"/><path d="M249 227q2-3 6-2 4 0 7 2"/><path d="m248 227 7-2 7 2"/><path d="m248 227 7-2 7 2"/><path d="m248 227 7-2q5 0 7 3"/><path d="M248 228q4-3 7-3 5 0 7 3"/><path d="M248 228q3-3 7-3 5 0 7 3"/><path d="M248 228q3-2 7-2 6 0 8 3"/><path d="M248 228q3-2 7-2h1q5 0 7 3"/><path d="M248 228q3-3 7-3l8 4"/><path d="M248 228q3-3 7-3 5 0 8 4"/><path d="M248 228q3-3 7-3 5 0 8 3"/><path d="M248 228q3-3 7-3 5 0 8 3"/><path d="m248 228 7-3q5 0 8 3"/><path d="M248 228q3-3 7-3 5 0 8 3m-12-5 4-1 5 1"/><path d="m251 223 4-1 5 1"/><path d="m251 223 4-1 5 1"/><path d="m251 223 4-1 5 1"/><path d="m251 223 4-1 5 1"/><path d="m251 223 4-1 5 1"/><path d="m251 223 4-1 5 1"/><path d="m251 223 4-1 5 1"/><path d="m251 224 4-2 5 1"/><path d="m251 224 4-2 5 1"/><path d="m251 224 4-2 5 1m-10 2 5-1 6 1"/><path d="m250 225 5-1 6 1"/><path d="m250 225 5-2 6 2"/><path d="m250 225 5-2 6 2"/><path d="m250 225 5-2 6 2"/><path d="m250 225 5-2 6 2"/><path d="m250 225 5-2 6 2"/><path d="m250 225 5-2 6 2"/><path d="m250 225 5-2 6 2"/><path d="m250 224 5-1 5 1"/><path d="m250 224 5-1 5 1"/><path d="m250 224 5-1 5 1"/><path d="m250 224 5-1 5 1"/><path d="m250 224 5-1 5 1"/><path d="m250 224 5-1 5 1"/><path d="m251 224 4-1 5 1"/><path d="m251 224 4-2 5 2m-11 2 6-2 6 1"/><path d="m249 226 6-2q4 0 6 2"/><path d="m249 226 6-2q4 0 6 2"/><path d="m249 226 6-2 6 2"/><path d="m249 226 6-2 6 2"/><path d="m249 226 6-2 6 2"/><path d="m249 226 6-2 6 2"/><path d="m249 226 6-2 7 2"/><path d="m249 226 6-2 7 2"/><path d="m249 227 6-2q4-1 7 2"/><path d="m249 227 6-2q4-1 7 2"/><path d="m249 227 6-2q4 0 7 2"/><path d="m249 227 6-3 7 3"/><path d="m249 227 6-3q4 0 7 3"/><path d="m249 227 6-3q4 0 7 3"/><path d="m249 227 6-3 7 2"/><path d="m249 227 6-3 7 2m-3-3-4-1-4 1"/><path d="M263 229q-2-3-8-3-4-1-7 2"/><path d="m262 227-7-2q-4-1-6 2"/><path d="M263 228q-3-3-8-3-3 0-7 3m13-3-6-1-5 1m10-1-5-2-4 2"/><path d="m262 226-7-2-6 2"/></g><g fill="none" stroke-miterlimit="3" stroke-width="0"><path d="m247 229 8-2 8 2 9 14q-2 15-17 16-15-1-16-16z"/><path d="m255 227 8 2 8 14q-1 15-16 16a16 16 0 0 1-16-16l9-14z"/><path d="m255 228 8 2 8 13a16 16 0 1 1-31 0l8-14z"/><path d="m255 228 8 2 8 13q-1 13-16 15a15 15 0 0 1-15-15l8-13z"/><path d="m255 229 7 2 8 12a15 15 0 0 1-29 0l7-13z"/><path d="m255 229 7 2 7 12q-1 13-14 14a14 14 0 0 1-14-14l7-12z"/><path d="m255 230 7 2 7 11a14 14 0 0 1-27 0l7-12z"/><path d="m255 230 7 2 6 11q-1 12-13 13a13 13 0 0 1-13-13l7-11z"/><path d="m255 231 6 1 7 11q-1 12-13 13a13 13 0 0 1-12-13l6-11z"/><path d="m255 233 5 2 5 8a10 10 0 0 1-10 10 10 10 0 0 1-10-10l5-8z"/><path d="m255 234 5 1 5 8a10 10 0 0 1-19 0l5-8z"/><path d="m255 235 4 1 5 7a9 9 0 0 1-9 8 9 9 0 0 1-8-8l4-7z"/><path d="m255 235 4 1 4 7a8 8 0 0 1-8 8 8 8 0 0 1-8-8l4-7z"/><path d="M255 227q5 0 8 3l8 13a16 16 0 0 1-16 16 16 16 0 0 1-16-16l9-14z"/><path d="m255 228 8 2 8 13a16 16 0 0 1-16 15 16 16 0 0 1-15-15l8-13z"/><path d="m255 228 8 2 7 13q-1 14-15 15a15 15 0 0 1-15-15l8-13z"/><path d="m255 228 8 2 7 13a15 15 0 0 1-15 15 15 15 0 0 1-15-15l8-13z"/><path d="m255 229 7 2 8 12a14 14 0 1 1-29 0l7-12z"/><path d="m255 229 7 2 7 12a14 14 0 0 1-14 14 14 14 0 0 1-14-14l7-12z"/><path d="m255 230 7 1 7 12q-1 13-14 14a14 14 0 0 1-14-14l8-12z"/><path d="m255 230 7 2 7 11q-1 12-14 13a13 13 0 0 1-13-13l7-11z"/><path d="m255 230 7 2 6 11a13 13 0 0 1-26 0l7-11z"/><path d="m255 231 6 2 7 10q-1 12-13 13a12 12 0 0 1-12-13l6-11z"/><path d="m255 231 6 2 6 10a12 12 0 0 1-24 0l6-11z"/><path d="m255 231 6 2 6 10a12 12 0 0 1-12 12 12 12 0 0 1-12-12l6-10z"/><path d="m255 231 6 2 6 10a12 12 0 0 1-12 12q-10-1-12-12l6-10z"/><path d="m255 232 6 1 6 10q-2 10-12 12a12 12 0 0 1-11-12l6-10z"/><path d="m255 232 6 1 5 10q1 10-11 11a11 11 0 0 1-11-11l6-10z"/><path d="m255 232 6 2 5 9q-1 10-11 11a11 11 0 0 1-11-11l6-10z"/><path d="m255 232 6 2 5 9a11 11 0 1 1-22 0l6-9z"/><path d="m255 233 6 1 5 9q-1 10-11 11a11 11 0 0 1-10-11l5-9z"/><path d="m255 233 5 1 6 9a11 11 0 0 1-11 11q-10-1-10-11l5-9z"/><path d="m255 233 5 1 5 9q-1 10-10 10a10 10 0 0 1-10-10l5-9z"/><path d="m255 233 5 1 5 9q-1 10-10 10-12 0-10-10l5-9z"/><path d="m255 234 5 1 5 8a9 9 0 0 1-10 9 9 9 0 0 1-9-9l5-8z"/><path d="m255 234 5 1 4 8a9 9 0 0 1-9 9 9 9 0 0 1-9-9l5-8z"/><path d="m255 234 5 1 4 8q-1 8-9 9-10 0-9-9l5-8z"/><path d="m255 234 5 2 4 7a9 9 0 0 1-9 9 9 9 0 0 1-9-9l5-7z"/><path d="m255 235 4 1 4 7a8 8 0 0 1-8 8 8 8 0 0 1-8-8l4-7z"/><path d="m255 235 4 1 4 7q0 7-8 8a8 8 0 0 1-8-8l4-7z"/><path d="m255 236 4 1 4 6q-1 7-8 8a8 8 0 0 1-7-8q1-4 4-7z"/><path d="m255 236 4 1q3 1 4 6a7 7 0 0 1-8 7 7 7 0 0 1-7-7l4-6z"/><path d="m255 236 4 1 3 6a7 7 0 1 1-14 0l4-6z"/><path d="m255 236 4 1 3 6a7 7 0 0 1-7 7 7 7 0 0 1-7-7q1-4 4-6z"/><path d="m255 236 4 1 3 6a7 7 0 0 1-14 0q0-4 4-6z"/><path d="M255 237h3l4 6a7 7 0 0 1-7 7 7 7 0 0 1-6-7l3-6z"/><path d="m255 237 3 1 3 5a6 6 0 0 1-6 6 6 6 0 0 1-6-6q1-4 3-5z"/><path d="m255 237 3 1 3 5a6 6 0 0 1-6 6 6 6 0 0 1-6-6l3-5z"/><path d="m255 237 3 1 3 5a6 6 0 1 1-12 0l3-5z"/><path d="m255 237 3 1q3 2 3 5a6 6 0 0 1-6 6 6 6 0 0 1-5-6l2-5z"/><path d="M255 238h3l3 5a5 5 0 1 1-11 0l3-5z"/><path d="M255 248a5 5 0 0 0 0-10 5 5 0 0 0-5 5 5 5 0 0 0 5 5"/></g><path fill="#fff" fill-rule="evenodd" d="M255 248a5 5 0 1 0-5-5 5 5 0 0 0 5 5"/><g stroke-width="0"><path fill="none" d="m256 238 1-3m-1 3v-3m-1 3v-3m0 3-1-3m0 3v-3m0 3-1-3m0 3-1-2m1 2-2-2m1 3-1-3m1 3-2-2m1 3-2-2m2 2-2-2m2 2-3-1m3 2-3-1m2 1-2-1m2 2-3-1m3 1h-3m3 1h-3m3 1h-3m3 0-3 1m3 0-2 1m3-1-3 1m3 0-3 1m3-1-6 4m6-4-6 6m7-5-6 6m6-6-4 6m5-5-5 7m5-7-2 5m3-5-3 7m3-7-1 5m2-5-1 8m2-8v3m0-3 2 7m-1-7 1 4m-1-4 4 7m-3-7 3 6m-3-7 5 7m-4-7 4 5m-4-5 7 6m-7-7 4 3m-3-3 2 1m-2-2 3 1m-3-1 3 1m-3-2 3 1m-3-1h3m-2-1h2m-3 0 3-1m-3 0 3-1m-3 0h3m-3 0 3-1m-3 0 2-1m-2 1 2-2m-3 2 2-2m-2 1 2-2m-3 2 2-2m-2 2 1-3m-2 2 2-2m-2 2 1-3m-3-4v-2m-2 2-1-2m-2 3v-2m-2 3-1-1m-1 3-1-1m0 3-2-1m1 3h-2m1 3h-2m2 2h-2m3 3h-2m23 2 3 1m-1-3h2m-2-3h2m-2-2h2m-3-2 3-1m-3-2 1-1m-3-1 2-1m-4 0 2-2m-4 0 1-2m-3 2v-2"/><path fill="#e60000" fill-rule="evenodd" d="M258 246h-3l-1 1h4zm-5-1 1-3v1l-1-1v-1l1-1h1l1 1 1 2 1 2v1l-1-1z"/><path fill="none" d="M253 245h5"/><path fill="#fc0" fill-rule="evenodd" d="M255 253v-8h1v14z"/></g><g fill="#e60000"><path fill-rule="evenodd" d="M247 247h-1zh-1v-1zm-1-1h2zh-1zh-1l-1-1h1v1zm-1-4 1-1 1 1-1 1v-1zm0-2v-2zl1 1v-2 2zv-1z"/><path d="M246 237v1l2 1h-1v-2m1 0h-1z"/><path fill-rule="evenodd" d="m249 237-1-1h-1l1-1zm1-1-1-2zm0-2 1-1zh2l-1 1zl2-1zm4 1v-2zl-1-2v1zh-1v-2zl1-2z"/><path d="M255 232v2h2l-1-1h1l-1-1zm0 0v1h-1zm0 1v1h-1zm3-1-1 3v-1h1q1 0 0 0v1h1v-2zm0 1"/><path fill-rule="evenodd" d="m260 234 1 1zl-1 1 2 1-2-1zl2 1z"/><path d="m263 235-2 2 1 1h2v-2zm0 1v1h-1z"/><path fill-rule="evenodd" d="M265 238h-1l1 1-1 1v-2l-1 1 1 1-1-1zl1 1h-1zm-1 4h1v-1h1v1z"/><path d="M265 243v1h2q1 0 0 0zm1 0q0 1 0 0"/><path fill-rule="evenodd" d="M265 245h-1zv1h-1l1-2zm-2 2 2 1v-1 1z"/></g><path fill="none" d="m255 216-38 64h77z"/><g fill="none" stroke-miterlimit="3"><path d="M257 273h4l5-2 6 2 5-1h3l6 1m-59 2 6-1 6 1 5-1 6 1h2l3-1h4l3 1h3l5-1 6 1 5-1h4q3 2 5 1"/><path d="m223 273 5-1 6 1 5-1 6 1h3l2-1h4l3 1h4l5-1 6 1 5-1h4q1 2 5 1"/><path stroke="#fff" d="m219 280 6-2 5 2 5-2 6 1h3l2-1h4l3 1h4l5-1 6 2 5-2h3l6 2"/><path d="m220 276 5-1 6 1 3-1m-2-3 3-1 4 1 3-1m27 9h3l4-1 3 1h3l6-1 5 1m-19-8 5-1h4l5 1m-69 8 6-1 5 1 5-1 6 1h3l2-1h8"/><path stroke="#000" d="m224 277 6-1 5 1 5-1 6 1h3l2-1h4l3 1h4l5-2 6 2 5-1h3l6 1"/></g><g fill="#fc0" fill-rule="evenodd" stroke-width="0"><path d="m225 266 2-1v-1l2-1 4-3 6-6h3l1 1 4 2q2 0 3 3l2 1h1l2 2 3 3 1 1 2 2 3 2h-42z"/><path d="m264 271-3-2-2-2-1-1-3-3-2-2h-1l-2-1-2-2 2-1h3l3 2 3 2 2 1v1l2 1 3 3 2 2 3 2z"/><path d="M255 259h1l3 2 2 1v1l2 1 2 3h1l2 2 2 1h6l-3-1-2-2-3-3-1-1-2-1q-1-2-3-2l-3-2h-3z"/><path d="m264 261 1 1 2 1 1 1 3 3 2 2 2 1h6l-1-1-2-2-2-2-2-1-1-1-2-2-3-1h-2z"/><path d="M281 269h-1l-2-2-2-2-2-1-1-1-2-2h3l2 1 2 1 1 1 2 1 1 2 2 1 1 1z"/></g><path fill="none" d="M236 256h1m-3 0h1m-5 1h2m-2 1h1m-2 1h1m-11 11 6-1m4-11h2m-3 2h2m0 0h-2m1 1h-2m0 0h2m-3 1h2m-3 0h3m0 1h-4m3 0-1 1-1-1-2 1m0 0h4m-4 0h1l2 1m-4 0h4m-5 0h5m-5 1h5m-5 0 3 1h2m-6 0h5m-5 1h5m-6 0h6m-6 1h6m3-6h2m-2 0h2m-2 1h2m-4 0h2m-2 0h2m-3 1h3m-3 0h3m-3 1h3m-3 0h3m-4 1h4m-4 0h4m-5 1h4m-4 0 4 1m3-7h1m-1 0h1m-1 1h1m-2 1h1m-1 0h1m-2 1h2m-2 0h2m-2 1h2m-2 1h2m-2 0h3m-3 1h3m-4 0h5m-5 1 5-1m-12 1h2m11 0h4m-5-1h5m-15 0h-2m11-10h1m1 3h-1m0 1 1-1m0 2h1v-1h1m0 1h-2m1 1 1-1m-1 1h2m0 1h-2m0 1 2-1m1 1h-3m0 0h3m0 1h-3m1 1 3-1m0 1h-3m0 1 1-1h3m0 1h-4m0 0h4m-3 1 2-1h1m0 0h5m-4 1h4m-2-3h1m-1 3h1m-1 0h2m-2 1h3m0 0h5m-5-1h5m-14-11h1m-1 1 1-1h1m-1 1h1m1 0h-2m1 1h1m1 0h-1m0 1 1-1m1 1h-1m0 1 2-1m0 1h-1m0 0h2m3 2h-2m0 0h2m0 2h1m1 0h-3m1 1 2-1m1 1h-3m1 1 3-1m1 1h-3m0 1 2-1h2m0 1h-3m0 0h3m-2 0h3m-18-11h1v-1h1m4 6h1m0 2 2-1m1 1h-3m-8-9-1 1m8 1h1m-1 1 1-1m-1 1h2m0 1h-2m1 0h1m1 0h-2m1 1h1m1 0h-1m0 1 1-1m1 1h-1m0 0h1m1 1h-1m2 1h-1m0 0h2m-1 2h1l2-1m0 1h-2m0 0h3m1 1h-3m0 0h2m1 0h-2l-1 1m0 0h4m0 0h-3m0 1 2-1h1m-2 1h3m-18-11h1m5 5h1m0 2 1-1m1 1h-2m-8-8-1 1m8 3 1-1m-1 1h1m2 2h-1m0 0h1m1 0h-1m0 1h1m1 0h-1m0 0h1m2 1h-1m0 1h2m-1 1h1m1 0h-2m0 0h2m1 1h-3m1 0h2m1 0h-3m1 1h2m1 0h-3m1 0h1m-2 0h2m-14-8h1m4 5h1m1 0-2 1m1-5h1m-1 0h1m0 0-1 1m0 0h1m1 0h-1m2 2h-1m2 0h-1m0 1h1m0 1h2m0 0h-2m0 0h2m1 0h-2v1m0 0h1m1 0h-3m1 1 1-1h1m1 1h-3m1 0h1m-2 0h2m-9-3h1m1 0h-2m-5-5"/><g fill="#fc0"><path d="M222 319v4l-3 2q-1 2 2 4l2 1 4-8-1-1-2 3v-4zm0 6h1l-1 2-1-1z"/><path fill-rule="evenodd" d="m215 325-4-3v-1l3 2 1-2-2-2 1-1 2 2 1-2-2-2 1-1 4 2z"/><path d="m212 312-2 3-1-1h-4q-2 3 1 5l2 1 6-7zm-4 3-2 2v-2z"/><path fill-rule="evenodd" d="m201 314-1-1 3-4q3-1 2-3-3-1-4 1l-4 3-1-1 4-4q3-2 6 0 2 3-1 6z"/><path d="M198 297h-2q-2 1-1 3h-2q-3 1-1 4l2 2 8-5-2-3zm0 2-2 1v-2zm-3 2-2 1z"/><path fill-rule="evenodd" d="m195 293-2-3h2l2 4-8 4-1-2zm-10-3 8-4 1 2-9 4zm-1-10-1 2q2 3 4 2 3-1 2-4l-1-2h2l1 2a5 5 0 0 1-3 6q-4 0-6-3v-3z"/><path d="m188 267-9 6 1 1 10 2-1-2h-2v-4l1-1zm-3 4 1 2h-4zm-2-21a4 4 0 0 0-4 4l-1 3 10 1v-3a5 5 0 0 0-4-5zm0 2q3 0 3 3h-6q1-3 3-3"/><path fill-rule="evenodd" d="m180 246 1-5 1 1-1 3h3v-3l2 1-1 3h3v-3h2l-1 5zm3-12 2-5 1 1-1 3h2l1-2h2l-1 3 2 1 1-3 1 1-1 4zm11-6 1-3 2 1-2 4-9-4 1-2zm3-15-2 1v2c1 1 3-3 6-1v4l-3 2v-2l2-1v-1h-6v-4l2-1z"/><path d="m201 205-1 1 4 9 1-1-1-2 3-2h2l1-1zm1 3 3 1-1 2z"/><path fill-rule="evenodd" d="m212 206 2-2 1 1-3 3-6-7 1-1zm6-14 2 10-1 1-8-6 2-2 5 5-2-7z"/><path d="M225 189h-2l1 10h2v-3l3-1 1 2 2-1zm0 3 2 2-2 1zm10-7-1 1h-3l3 9h2a5 5 0 0 0 3-6q0-3-4-4m0 2 2 2q1 3-2 4l-2-5 1-1zm11-4a5 5 0 0 0-4 5 5 5 0 0 0 5 4 5 5 0 0 0 4-5 5 5 0 0 0-5-4m0 2 3 2-2 3q-3 1-3-2-1-2 2-3m8-3v10h2v-4l2 4h2l-2-4 2-3q0-3-4-3zm2 2 2 1-2 2z"/><path fill-rule="evenodd" d="m272 184 5 1v2l-3-1-1 2 3 1v1l-3-1-1 3 3 1v1l-5-1zm9 6-2 6-2-1 4-9 1 1 2 8 3-6h1l-3 9h-1zm12 11 2 1-1 2-3-3 5-8 1 1z"/><path d="m304 199-9 5 2 1 2-1 2 2v2l1 2 4-10zm-1 3-1 3-2-2zm15 12-10 2 2 2 2-1 2 3-1 2 1 1 5-8zm-2 2-1 3-2-2z"/><path fill-rule="evenodd" d="M323 229h-7l5-5-6 2-1-2 9-2 1 1-4 4h6l1 1-8 6-1-2zm5 4 2 4-1 1-1-3h-2l1 3-2 1-1-3-2 1 1 3h-2l-1-5z"/><path d="m331 241-9 2v2l4-1-3 3v2l3-3 3 1q3 0 2-4zm-1 2-1 2-2-1v-1z"/><path fill-rule="evenodd" d="m333 252-9 1-1-2 10-1zm-2 10 1-2q0-3-4-3-2 0-3 3l1 2h-2v-2a5 5 0 0 1 4-5q5 0 5 5v2z"/><path d="M324 264v2l2 1-1 3h-2v2l10-2v-1zm3 3 3 2-3 1z"/><path fill-rule="evenodd" d="m324 290 2-1q1-3-2-4-2-1-4 1v3l-2-1 1-2a5 5 0 0 1 6-3q4 2 3 6l-2 2zm1 4-2 5-2-1 2-3-2-1-1 3-2-1 2-2-3-2-1 3-1-1 2-4zm-8 8-5-4 1-1 8 5-1 1-8 1 5 3-1 2-8-6 1-1zm-4 8 1 1-4 4-1-1 1-1-6-6 2-1 5 5z"/><path d="m302 310-2 1 3 3-5-1-1 1 4 2v3h5l2-2zm1 5 2 2-2 1zm-7 0-2 1v2l-2 2-2-1-2 1 9 6 1-1zm-1 5 1 3-3-2z"/><path fill-rule="evenodd" d="m286 323-3 1-1-2 5-2 4 9-2 1z"/></g></svg>