<svg xmlns="http://www.w3.org/2000/svg" viewBox="0 0 512 512"><defs><clipPath id="sx-a"><path d="M0 0h450v450H0z"/></clipPath></defs><g clip-path="url(#sx-a)" transform="scale(1.1378)"><path fill="#ed2939" fill-rule="evenodd" d="M0 0h675v225H300z"/><path fill="#002395" fill-rule="evenodd" d="M0 450h675V225H300z"/><path fill="#fff" fill-rule="evenodd" d="m0 0 300 225L0 450z"/><path fill="#ff0" d="m151 170 1-4s-2-3 0-6c0 0-5-2-4-6 0 0-4-1-4-6q-2 1-5-4-1 2-6-3-1 1-6-2-1 1-7-2c1 0-4 2-6-2-2 4-6 2-6 2q-6 3-7 2c-1 3-6 2-6 2q-4 5-6 3c0 4-5 4-5 4a5 5 0 0 1-4 6c1 4-3 6-3 6q2 5 0 6v4z"/><path fill="none" d="M151 170v-4s-1-3 1-6c0 0-5-2-4-6 0 0-4-1-4-6q-2 1-5-4-1 2-6-3-2 1-6-2-1 1-7-2s-4 2-6-2c-2 4-6 2-6 2q-6 3-7 2c-1 3-6 2-6 2q-4 5-6 3-3 5-5 4a5 5 0 0 1-4 6c1 4-3 6-3 6q2 5 0 6v4z"/><path fill="red" d="M150 166q-19-5-36 1-12-4-25-3l-14 2h-1q-13 1-24-5l7 41c2 20-10 38-5 58 3 10 14 16 24 17l28 4 5 2 5 4q10-8 21-8c14-2 32-1 40-14q6-12 2-26l-1-8c-9-22-2-47 2-70q-6 4-14 5h-13z"/><path fill="#80cfe1" d="m167 230 1 4c2 10 3 23-7 29-11 7-26 4-38 8q-6 1-8 4l-4-2c-11-6-25-4-37-7q-10-3-14-13c-4-16 6-30 5-46l-6-36a50 50 0 0 0 31 3q13-2 24 3l13-3 26 2 16-4c-3 19-9 39-2 58"/><path fill="#fff" d="M150 234v-18h2l-27-18v-9h3l-14-10-14 10h3v9l-27 18h2v18z"/><path fill="none" stroke="#000" d="M376 907v-18h2l-27-18v-9h3l-14-10-13 10h2v9l-27 18h2v17z" transform="matrix(1.0075 0 0 1.0074 -229 -679)"/><path fill="#fff" d="M159 257v6H71v-6z"/><path fill="none" stroke="#000" d="M384 930v5h-87v-5z" transform="matrix(1.0075 0 0 1.0074 -229 -679)"/><path fill="#fff" d="M77 257v-19h3v19-19h-5v-4h79v4h-5v19-19h3v19"/><path fill="none" stroke="#000" d="M303 929v-18h3v19-19h-5v-4h78v4h-4v19l-1-19h4v19" transform="matrix(1.0075 0 0 1.0074 -229 -679)"/><path fill="none" stroke="#000" d="M320 925v-13h-11v13h11" transform="matrix(1.0075 0 0 1.0074 -229 -679)"/><path fill="none" stroke="#000" d="M312 914v8h5v-8h-5m59 11v-13h-11v13h11" transform="matrix(1.0075 0 0 1.0074 -229 -679)"/><path fill="none" stroke="#000" d="M363 915v7h5v-7h-5m8-11v-13h-11v13z" transform="matrix(1.0075 0 0 1.0074 -229 -679)"/><path fill="none" stroke="#000" d="M363 893v8h5v-8h-5m-43 11v-14h-11v13z" transform="matrix(1.0075 0 0 1.0074 -229 -679)"/><path fill="none" stroke="#000" d="M312 893v8h5v-8h-5m26 11v-14h-10v13h11" transform="matrix(1.0075 0 0 1.0074 -229 -679)"/><path fill="none" stroke="#000" d="M331 893v8h5v-8h-5m22 11v-13l-10-1v13h10" transform="matrix(1.0075 0 0 1.0074 -229 -679)"/><path fill="none" stroke="#000" d="M345 893v8h5v-8h-5" transform="matrix(1.0075 0 0 1.0074 -229 -679)"/><path fill="#fff" d="M130 227v30H99v-30z"/><path fill="none" stroke="#000" d="M356 900v30h-30l-1-30zm-31 8h31m-27 22v-22m23 22v-22m15-21-17-13h-19l-17 13h53m-35-23v7h16v-7h-16" transform="matrix(1.0075 0 0 1.0074 -229 -679)"/><path fill="none" stroke="#000" d="M336 866v4h8v-4h-8m4-11 9 6h-18l9-6" transform="matrix(1.0075 0 0 1.0074 -229 -679)"/><path fill="#fff" d="M151 178c2 0 3 10 3 15l9 7h-25l9-6c0-6 1-16 4-16"/><path fill="none" stroke="#000" d="M376 851c3 0 4 10 4 16q5 1 9 6h-25q5-5 9-6c0-6 1-16 3-16m-49 49h2l-1 1v4l1 1h-2v-6m4 0h3l-1 1v5h-2l1-1v-3l-1-2m5 0h2v6h-2l1-1v-3zm6 0h2l-1 2v2l1 1h-2v-4zm5 0h2l-1 2v2l1 1h-2v-5m5 0h2l-1 2v2l1 1h-2v-5" transform="matrix(1.0075 0 0 1.0074 -229 -679)"/><path fill="#ff0" d="M115 296a82 82 0 0 0 32-6l14-1v18a135 135 0 0 1-94 0l1-18 14 1a87 87 0 0 0 33 6"/><path fill="none" d="M115 296c11 0 25-2 32-6l14-1 1 18c-13 6-41 8-47 8s-35-2-48-8l1-18 14 1c7 4 21 6 33 6"/><path fill="#ff0" d="m30 221 13 4-4 20-12 2s-2-11 3-26"/><path fill="none" d="m30 221 13 4-4 20-12 2s-2-11 3-26"/><path fill="#7e7e7e" d="m39 245-12 2 8-11z"/><path fill="none" d="m39 245-12 2 8-11z"/><path fill="#ff0" d="M23 236h12c0 11 1 51 49 53l-2 14c-57 1-62-48-59-67"/><path fill="none" d="M23 236h12c0 11 1 51 49 53l-2 14c-57 1-62-48-59-67m45 70 14-3"/><path fill="#ff0" d="m198 221-13 4 4 21 13 2s2-11-4-27"/><path fill="none" d="m198 221-13 4 4 20 13 3s2-11-4-27"/><path fill="#7e7e7e" d="m189 245 13 2-8-10z"/><path fill="none" d="m189 245 13 2-8-10z"/><path fill="#ff0" d="m206 236-12 1c-1 10-2 50-49 52l2 14c57 1 61-48 59-67"/><path fill="none" d="m206 236-12 1c-1 10-1 50-49 52l2 14c57 1 61-48 59-67m-45 70-14-3"/><path fill="#009fc5" d="M107 305h-4l1-3h3l1 2zm-4 4v-3h3l2-1 1-1-1-2-2-1h-4v8zm8-6h4l1 1-1 1h-4zm0 7v-4h3l1 1 1 1v2h1v-3l-1-1 1-1v-1l-1-2h-6zm9-2-1-2 1-3 2-1 2 1 1 2v3l-3 1zm-1-5-1 3 1 3 3 1 4-2v-3l-1-3-3-1q-3 0-3 2m38-12h3l2 2h-2l-1-1h-1l-2 1-1 3 1 2 3 1 2-1v-2h-3v-1l4-1 1 5h-1v-1l-1 1-2 1-3-1-2-3 1-3zm8-1 3-1h1l1 1v1l-2 1-2 1zm3 7-2-3 3-1h1l1 1v1l1 1 1-1h-1v-2l-1-1h-1l1-1v-1l-2-2-2 1-4 1 3 8zm9-4-5-7 6-3v1l-4 2 1 2 4-2 1 1-4 2 1 3 5-3v1zm4-12 2-2h2l2 1 1 2v1l-1 1-1 1zm7 3q2-1 1-3l-2-2-2-2-3 2-2 2 6 6zm5-6-7-5v-1l8 5zm3-5-8-3 2-6h1l-2 5 3 1 2-4h1l-2 4 2 1 2-4h1zm4-10-9-2 1-1 7-3-6-1v-1l8 2v1l-8 3zm-1-10v-1l1-1 1-2v-1l-1-1h-1l-1 2v1l-1 1-1 1-2-1-1-2 1-2 2-1v1h-1l-1 2 1 1 1 1 1-1v-2l1-1 2-1 2 1v3l-1 2zm-172-1v1l-1 1v3h3v-4l2-1h2l1 2-1 2-1 2-1-1 1-1 1-2-1-1h-2v4l-2 1h-2l-1-2v-3zm0 11 8-3 2 6h-1l-2-4h-2l1 5h-1l-1-4zl2 4-1 1zm3 10 8-4 1 1-6 6 8-2 1 2-8 4v-1l4-3h1l1-1-8 2v-1l5-6-1 1h-1zm14 11-2-2 3-2 1 2 1 1-1 1zm-6 0 3-2 2 2 1 1 2-1 1-2-1-1-2-3zm8 7 4-7 5 3v1l-5-2-1 2 4 2v1l-4-3-2 3 4 2v1zm13-1 3 1 1 1-1 1h-2l-2-1zm-2 7 1-4 2 1 1 1v3h1v-4h1l1-1-1-3h-1l-4-2-3 8z"/><path fill="#bc715f" d="M69 154c1-2 10-8 39-6 0 0 5 4 8 3q2 0-3-2-7-4 3-5c5 0 24 1 24 3s-10 2-14 2q-5 1 0 2c12 0 25-5 39 5 2 1-4 1-8-1h-18s-4 4-9 3c1 2-2 8-19 4-2 0-12 2-11-1q-6 1-8-1c-1-1 8-3 9-5l-22-1s-11 3-10 0"/><path fill="#008737" d="m75 180 1-1c2 0 3 4 6 2q1-1 1 1l3-1h9l-3 4 1 5-1 2-4-1 1 2h-3v2l-2-2v2q1 4-3 6l-1 1-1-4-3 4-3-4a5 5 0 0 1 2-6q-2 0-3-2c-3-1-4 3-6 1l2-7-2-1q-4-2-4-5a12 12 0 0 1 13 2"/><path fill="#ff0" d="M77 180q1 2 3 2h-3v2q-1 1-1-1l-1-1-1 1-1-1h3v-2zm6 2 2 1-1 1-1-1h-1l1 1h-2l-1-1-1 1v-2h1c1 0 1-3 3-1m-7 3v2q2-2 3 0v2l-4-1v1l1 2-3-1-1-2q1 2-2 1v-2l3-1 1-2q1-1 2 1"/><path fill="#fff" d="M80 186c-1 2-2-1-3-1zm4 2-1-2z"/><path fill="#ff0" d="M83 187v2l1-1 2 1q0 2-2 2h-1v-1l-1 1v2q-2 1-3-1v-2q-1 2-2 1v-1l3-1v-3z"/><path d="m82 190-1 1-1-1 1-1z"/></g></svg>