<svg xmlns="http://www.w3.org/2000/svg" xmlns:xlink="http://www.w3.org/1999/xlink" viewBox="0 0 512 512"><path fill="#3e5eb9" d="M0 0h512v512H0Z"/><path fill="#ffd900" d="M0 96h512v320H0Z"/><path fill="#b10c0c" d="M0 128h512v256H0Z"/><g fill="#ffd900" stroke="#000" transform="translate(-42 59)scale(.98607)"><g id="sz-a"><path fill="#fff" d="m493 154-24 9 24 8 24-8z"/><rect width="357" height="6" x="123" y="160" rx="3" ry="3"/><path d="m471 166 3-3-3-3m-2 6 2-3-2-3m-3 6 3-3-3-3"/></g><use xlink:href="#sz-a" width="100%" height="100%" x="-23" y="17"/><rect width="486" height="9" x="60" y="196" rx="4" ry="4"/></g><path fill="#fff" stroke="#000" d="M394 256c-28 28-66 85-141 85-65 0-112-57-141-85 29-28 76-84 141-84 75 0 113 56 141 84z"/><path d="M244 201c7 8 1 12 9 12 8 1 3 9 10 10 5 0 0 19 5 26 4 7 8 2 9 7 0 5-14 4-14 20 0 9-11 9-12 15 0 6 22 9 22 13-1 5-24 5-25 10s32 9 35 23l-30 4c-65 0-112-57-140-85 28-28 75-84 140-84 0 0-19 17-9 29"/><g stroke="#fff" transform="translate(-42 59)scale(.98607)"><g id="sz-d" stroke-width="7"><g id="sz-c"><path id="sz-b" d="M214 192v-22m14 0v22m14-22v22"/><use xlink:href="#sz-b" width="100%" height="100%" y="38"/></g><use xlink:href="#sz-c" width="100%" height="100%" x="42"/></g></g><use xlink:href="#sz-d" width="100%" height="100%" x="105" stroke="#000" transform="translate(-42 59)scale(.98607)"/><g fill="#a70000"><path fill="#333" stroke="#000" d="M462 253c-4 7 3-3 22 9a18 18 0 0 1 6 13l-3-2c-1 1 2 7 2 10l-4-4 1 11-3-3v9l-4-3-2 7-2-2-7 10c-4-3-13-11-15-16q-1 4-6 5c-1-6-6-14-3-20l-5 3a41 41 0 0 1 23-27z"/><path fill="#b3b3b3" d="m446 289 4-7q3-7 5-6 2 0-1 6-2 5-8 7m12 9v-11q3 0 3 4t-3 7m9 5-1-8v-7q2-1 3 5 1 5-2 10m10-26-5-3q-4-4-5-3t2 4q4 3 7 2m-1 12-3-5-3-4q-3 1 0 4 1 4 6 5"/><path fill="#333" stroke="#000" d="m37 260-1-4q2 3 4 1 2 1 1-3l11 3c4 0 10-3 14 1q5 6 3 14l-3-3v20l-1-2c-2 4-4 5-4 11v-3c-2 4-14 7-9 11-4-3-6-2-8-5l-2 3c-7-3-4-10-10-15l-1 5-3-10-3 4-2-10-2 2c2-13 10-23 16-20z"/><path fill="#b3b3b3" d="m29 282 4-8 4-9q3 1 0 8-3 6-8 9m6 11 3-8q0-7 2-7t1 6q-1 5-6 9m8 8 2-8q-1-7 1-8 2 1 1 6 0 6-3 10zm18-25q-4-5-8-6-4-8-7-6-2 1 4 6c4 4 5 4 11 6m-2 13-5-7q-3-7-5-6-2 2 2 6 2 4 8 7"/><path fill="#333" stroke="#000" d="M208 187c-4 7 7-3 24 10a29 29 0 0 1 7 16l-10-5s8 8 8 16q-4-1-5-3l2 9-5-4c3 5-4 13-1 16a22 22 0 0 1-15-9l-1 3c0 1-10-7-9-9l-2 4-8-11-3 4c-1-7-1-7 1-13l-4 4a41 41 0 0 1 21-29z"/><path fill="#b3b3b3" d="m198 223 3-10q-1-9 2-10 3 0 1 8c-1 6-2 7-6 12m11 10v-9q-2-7 0-9 3 0 3 7c0 5 0 6-3 11m17 8-5-8q-1-6-4-7-2 1 1 7zm6-34-10-4-10-5q-1 3 6 6c6 3 7 3 14 3m2 14-8-5q-6-6-7-5-2 1 4 6c4 3 5 3 11 4"/></g></svg>