<svg xmlns="http://www.w3.org/2000/svg" xmlns:xlink="http://www.w3.org/1999/xlink" viewBox="0 0 512 512"><path fill="#002868" d="M512 512V0H0v512z"/><g fill="none" stroke="#000"><path fill="#fcd116" stroke-width="8" d="M491 192v90c0 60-30 124-105 159a173 173 0 0 1-105-159v-90z"/><path stroke="#fff" stroke-width="7" d="M491 192v90c0 60-30 124-105 159a173 173 0 0 1-105-159v-90z"/><g stroke-linecap="round" stroke-linejoin="round" stroke-width="2"><path fill="#fcad56" stroke="none" d="M348 291q-5 6-11 4c-4-2-7-10-11-15-3-5-4-3-7-6l-12-7q-4-1-9-9l5-5q3-1 4-5 0-4 5-7l-5-1h-4l-5 1 2-4q1-2 5-1c3 0 5-4 7-4q-2-1-1-3c-3 0-3-4-1-4l-3-1q-2-2 1-3-2-4 2-6c-3-1 0-4 1-7q0-3 2-1l5 5q4 1 5 4 0 3 4 5 6 0 6 8l6 2"/><path fill="#ffa1a1" stroke="none" d="m355 223 3 6q4 2 3 5l2 4q3 2 3 6l1 5 2 7v9q1 2-1 7-2 4-7 5-5 2-4 8 0 6-7 5c-5 4-8-1-10-7s-1-13-9-18c-7-6-4-15 2-19 6-3 6-14 5-21q1-8 7-14c4 2 10 9 10 12"/><path fill="#f1b2dc" stroke="none" d="M344 266q-3-5 1-14c4-7 1-12 0-16v-8l3-5q1-2 2 0t-2 6c-2 4 6 12 2 21q-1 11 3 20c4 9 2 19-7 21 6-2 1-20-2-25"/><path stroke="none" d="M307 265q2 0 3-2 0-2 2-1l3-2 4-2q1-5 5-7m9-22q-3-1-6 4m-10-19c3 1 1 3 3 4 3 2 0 4 2 5s3 1 2 3c-1 3 2 3 1 5m-13 10 7-5m-7-4h7m-7-3 4-2m-6-2 5-1m-7-3 5-2m-3-4h2"/><g fill="#9e540a" transform="translate(436 267)scale(.125)"><g id="tc-b"><path d="M-55-233s-70-59-128-99-128-89-128-99c11-8 70 30 151 79 82 50 128 99 128 99zm-5 40s-68-41-135-70c-70-29-175-29-186-39 0-10 122-16 209 19 89 41 135 70 135 70zm-1 68s-74-34-146-50c-70-16-170-10-182-19 0-10 124-30 217 0 94 29 134 49 134 49zm-4 69s-56-38-130-46c-70-7-163 46-175 36 0-10 81-69 182-59 99 10 146 49 146 49zm23-218s-71-65-71-109c0-39 43-99 62-99-10 20-43 60-43 99 0 40 75 89 75 89z"/><path d="M-42-274s14-65 14-109c0-59-42-113-38-128 15 15 57 59 57 128 0 60-10 89-10 89z"/><g stroke="none"><use xlink:href="#tc-a" width="100%" height="100%" stroke="#fcd116" stroke-width="12"/><path id="tc-a" d="M-25-295q0-29-19-49-26-28-65-21-46 8-69 51c-20 37-22 77-23 116 0 135 5 190 9 323 1 39 8 119-10 182q-10 40-27 78c8-33 12-50 16-75 11-65 8-126 6-186-4-123-11-186-15-335-1-45 3-79 24-115 22-37 60-64 103-64q26-1 48 12c30 16 44 49 44 82z"/></g><path d="m-19 187-49 86c-21 36-38 44-54 33-15-11-2-40 10-54s79-79 79-79z"/><path d="m-12 191-20 98c-8 41-22 55-39 50-18-4-15-37-8-54l49-103z"/><path d="M0 193v100q0 61-29 58c-18-1-22-33-18-52 3-18 28-111 28-111z"/></g><use xlink:href="#tc-b" width="100%" height="100%" transform="scale(-1 1)"/><g id="tc-c"><path d="M0 192c-53-1-58-20-58-20s-7-24-8-39c-1-2-15-32-11-45-5-12-17-41-6-46-5-14-13-30-14-45-4-11-14-35-6-43 0 0-19-40-10-50 0 0-9-39 0-49 0 0 0-40 10-50 0 0 0-39 9-49 0 2 28-55 94-55l-1 85h1z"/><path fill="none" d="M0-26c-85-1-103-20-103-20M0-76c-85 0-113-20-113-20M0-125c-85-1-113-20-113-20M0-175c-85-1-103-20-103-20m102-19c1 0-64 0-74-10l-19-19M0 152c-25 0-53-4-66-19m66-21c-47 0-75-19-75-19l-2-5M0 63c-62-1-79-14-83-21M0 23C-85 23-94 3-94 3l-3-6"/></g><use xlink:href="#tc-c" width="100%" height="100%" transform="scale(-1 1)"/></g><g transform="translate(386 317)scale(.125)"><g id="tc-d"><path fill="#009e49" d="M0 712c-43 40-126 14-152-4-27 9-99-19-118-50-52 7-70-67-61-86 14-28-11-46 7-65 25-24-14-47 10-63 24-17-6-45 18-63 25-19-13-45 13-58s-3-47 19-60-13-46 17-61c29-15 3-41 26-52 25-13 2-40 25-49 26-11 7-40 29-48 19-7 7-25 19-41H0"/><path d="M-99 18c-20 20 4 35-16 59-21 25-2 38-19 60s8 33-11 58c-19 24 4 39-17 59-20 21 4 39-17 61-20 23 4 38-16 58-21 21 3 43-17 63-20 21 4 47-19 71-22 24 4 43-14 61-19 19-2 38-15 51s-15 31-10 39M-60 25c-18 25 10 36-7 56-17 21 7 28-6 52s10 30-7 54 9 43-9 67c-19 24 9 37-8 61-16 25 8 38-7 56-15 19 11 37-8 60-18 22 8 39-7 59-15 21 6 43-7 60-13 16 9 41-10 63-18 22 4 37-7 52s-20 37-9 43"/></g><use xlink:href="#tc-d" width="100%" height="100%" transform="scale(-1 1)"/><path stroke="#009e49" d="M0 712V12"/><path d="M0 48c-9 39 13 73 0 106-13 32 9 45 2 71-8 26 9 45-2 73s15 50 0 87c-15 36 10 45 0 82-11 42 19 64 0 94s17 37 2 71c-15 33 9 46-2 80"/><path fill="#fcd116" d="M15 174c-5 11 15 37 4 57-12 19 6 49-6 73s19 54 7 82c-13 28 6 63 0 89-5 26 13 76 0 94-13 19 13 24-2 70s-25 7-16-7c19-31-21-41-2-71s-11-52 0-94c10-37-15-46 0-82 15-37-11-59 0-87s-6-47 2-73c7-26-15-39-2-71 10-32 20 9 15 20m-84 32c-7 12 12 35-5 58-12 16 8 35-9 58-11 16 11 36-4 59-10 13 7 38-5 57-12 20 6 36-15 62-12 14 9 49-4 60s-1 54-10 60c-8 7 0 38-22 45 11-15-11-30 7-52 19-22-3-47 10-63 13-17-8-39 7-60 15-20-11-37 7-59 19-23-7-41 8-60 15-18-9-31 7-56 17-24-11-37 8-61 18-24-8-43 9-67s-6-30 7-54c24 9 12 61 4 73m-50-65c-10 16 4 35-11 55-15 21 0 47-15 64-15 16 4 48-15 61s-7 52-22 65 0 50-17 69-9 58-19 67c-9 9 13 28-3 41-17 13-17 39-39 56 13-13-4-32 15-51 18-18-8-37 14-61 23-24-1-50 19-71 20-20-4-42 17-63 20-20-4-35 16-58 21-22-3-40 17-61 21-20-2-35 17-59 19-25-6-36 11-58 8-10 8-19 8-27 12-31 12 23 7 31"/><path fill="#ce1126" d="M-139 35c0-210 29-283 139-283s139 73 139 283z"/><path fill="#000001" d="M-139 35c0-210 29-283 139-283-50 0-81 39-89 65-9 26-4 24 7 14s6 12-4 24c-9 12-18 47-5 36 13-12 23 1 9 21-14 19-26 65-12 49s17 10 8 23c-8 13-7 25 0 19 8-6 7 21 0 32zm191-4C52 0 53-73 36-97c-12-19-12-39 2-17s21 11 11-11c-12-28-28-59-24-65 5-7 8-4 18 11s12-7 1-22c-11-14-10-17 13-7 41 17 61 66 61 231z"/><path fill="#ce1126" d="M0 65c-44 0-92-7-124-20-38-15-40-28-27-44 10-12 30-5 50 4a379 379 0 0 0 202-1c20-8 40-15 50-3 13 16 11 29-27 44C92 58 44 65 0 65"/></g></g></g><path fill="#012169" d="M0 0h256v256H0Z"/><path fill="#fff" d="M256 0v32l-95 96 95 93v35h-33l-96-94-93 94H0v-34l93-94L0 37V0h31l96 94 93-94z"/><path fill="#c8102e" d="m92 162 6 17-77 77H0v-2Zm62-6 27 4 75 73v23zM256 0l-96 98-2-22 75-76zM0 0l97 95-30-4L0 24Z"/><path fill="#fff" d="M88 0v256h80V0zM0 88v80h256V88z"/><path fill="#c8102e" d="M0 104v48h256v-48zM104 0v256h48V0z"/></svg>