<svg xmlns="http://www.w3.org/2000/svg" viewBox="0 0 512 512"><path fill="#00247d" d="M0 0h512v512H0z"/><path fill="#fed100" d="M91 384c-6 0 50-29 96-67 61-49 192-129 230-141 4-2-8 6-10 9-41 49-8 140 43 186 16 12 15 13 44 14v3zm-4 6s-3 2-3 4c0 3 4 6 4 6l397 4 8-5-11-6z"/><path fill="#fff" d="m106 117-4 12 10-8 10 8-4-12 11-8h-13l-4-12-4 12H95zm77 57 9-7h-11l-3-10-3 11h-11l9 6-4 10 9-6 9 6zM39 187l-4-12-4 12H18l10 7-4 12 11-7 10 7-4-12 10-7zm78 122-5-15-5 15H92l12 8-4 15 12-9 12 8-5-14 12-8z"/></svg>