<svg xmlns="http://www.w3.org/2000/svg" viewBox="0 0 512 512"><path fill="#00843d" d="M0 0h512v512H0Z"/><path fill="#fff" d="M381 57a64 64 0 1 1-66 107 64 64 0 0 0 67-107Zm-60 47 7-23-19 14h24l-19-14Zm0-33 7-22-19 13h24l-19-13Zm32 17 7-23-19 14h24l-19-14Zm-65 31 8-22-19 14h23l-19-13Zm32 17 8-22-19 14h23l-19-14z"/><path fill="#d22630" d="M92 0h139v512H92Z"/><g fill="#383739"><path d="M126 0h-5l-8 8-4-3h3V1h-6L96 11v4h5v-3l2 2-6 5 3 3-8 7v5l13-12-2-3 5-5-4-5 3-3 6 6ZM92 0v9l3-3V3h4l2-3Zm25 0h-3l1 2z"/><path fill="#ffc72c" d="M125 0h-3l-9 8-5-3h4V2h-5l-11 9v3h4v-3l3 3-5 5 3 3-9 7v4l13-11-3-3 6-5-5-4 4-4 6 6zM92 0v9l3-3V2h4l2-2Zm25 0h-2v2z"/></g><g fill="#383739"><path d="M92 59v5l8 8-3 2 6 5-3 2v-3h-4v4l10 10h6v-4h-3l4-3 9 8-9 8-4-3h3v-4h-6l-11 10v4h5v-3l2 2-5 5 2 3-7 7v5l13-12-3-3 6-5-5-4 3-3 6 5 13-12-13-12-6 6-3-3 5-5-6-5 3-2zm0 25v19l3-4v-3h4l2-3-2-2h-4v-4zm23 6-1 3v3l3-3z"/><path fill="#ffc72c" d="M92 60v4l9 8-3 2 6 6-4 3v-4h-4v3l11 10h4l1-3h-4l5-4 9 8-9 8-5-4h4l-1-2h-5l-10 9v4h4v-4l3 3-5 5 3 3-9 7v4l13-11-3-3 6-5-5-4 4-4 6 6 12-12-12-11-6 5-4-3 5-5-6-5 3-2Zm0 24v18l3-3v-3h4l2-3-3-2h-3v-4zm23 7v4l2-2z"/></g><g fill="#383739"><path d="M92 156v5l8 7-3 2 6 5-3 3v-3h-4v3l10 10h6v-3h-2l3-3 9 7-9 8-3-3h3l-1-4h-6l-11 11v3h5v-3l2 2-5 6 2 2-7 7v5l13-12-3-3 6-5-5-5 3-2 6 5 13-12-13-12-6 5-3-3 5-4-6-5 3-3zm0 24v19l3-3v-4h4l2-3-2-2h-4v-4zm23 7-1 2 1 3 3-3z"/><path fill="#ffc72c" d="M92 156v4l9 8-3 2 6 5-4 4v-4h-4v3l11 10h4l1-3h-4l5-3 9 8-9 8-5-4h4l-1-3h-5l-10 9v4h4v-4l3 3-5 5 3 3-9 7v5l13-11-3-3 6-5-5-5 4-3 6 5 12-11-12-12-6 6-4-4 5-4-6-5 3-3zm0 25v17l3-2v-4h4l2-3-3-2h-3v-4zm23 6v4l2-2z"/></g><g fill="#383739"><path d="M92 252v5l8 7-3 2 6 6-3 2v-4h-4v4l10 11h6v-4h-2l3-3 9 7-9 8-3-3h3l-1-4h-6l-11 11v3h5v-3l2 3-5 5 2 2-7 8v4l13-12-3-2 6-5-5-5 3-3 6 6 13-12-13-12-6 5-3-3 5-4-6-6 3-2zm0 24v19l3-3v-4h4l2-2-2-3h-4v-4zm23 7-1 2 1 3 3-3z"/><path fill="#ffc72c" d="M92 252v4l9 8-3 2 6 6-4 3v-4h-4v4l11 9h4l1-3h-4l5-4 9 9-9 8-5-4h4l-1-3h-5l-10 10v3h4v-4l3 4-5 5 3 2-9 8v4l13-12-3-2 6-5-5-5 4-4 6 6 12-11-12-12-6 6-4-4 5-4-6-6 3-2zm0 25v18l3-3v-4h4l2-2-3-2h-3v-4zm23 7v3l2-2z"/></g><g fill="#383739"><path d="M92 348v5l8 8-3 2 6 5-3 2v-3h-4v3l10 11h6v-4h-2l3-3 9 7-9 8-3-3h3l-1-4h-6l-11 11v3h5v-3l2 2-5 5 2 3-7 7v5l13-12-3-3 6-5-5-4 3-3 6 6 13-12-13-13-6 6-3-3 5-4-6-6 3-2zm0 25v19l3-4v-4h4l2-2-2-3h-4v-3zm23 6-1 3 1 2 3-2z"/><path fill="#ffc72c" d="M92 349v4l9 7-3 3 6 5-4 3v-4h-4v4l11 10h4l1-3h-4l5-4 9 8-9 8-5-4h4l-1-3h-5l-10 10v4h4v-4l3 3-5 5 3 3-9 7v4l13-11-3-3 6-5-5-4 4-4 6 6 13-12-13-12-6 6-4-4 5-4-6-5 3-2Zm0 24v18l3-3v-4h4l2-2-3-2h-3v-4zm23 7v4l2-2z"/></g><g fill="#383739"><path d="M197 0h4l9 8 4-3h-4l1-4h5l11 10v4h-5v-3l-3 2 6 5-3 3 8 7v5l-13-12 3-3-6-5 5-5-3-3-6 6Zm34 0v9l-4-3V3h-3l-3-3Zm-26 0h4l-1 2Z"/><path fill="#ffc72c" d="M197 0h4l9 8 4-3h-4l1-3h4l12 9v4h-4v-4l-4 3 6 5-2 2 8 8v4l-13-11 3-3-6-5 4-5-4-3-6 6Zm33 0v9l-2-3V2h-4l-2-2Zm-24 0h2v2z"/><path d="M231 59v5l-8 8 2 2-6 5 3 3v-4h5v4l-11 10h-5l-1-4h3l-3-3-9 8 9 8 3-3h-3l1-4h5l11 10v4h-5v-3l-3 2 6 5-3 3 8 7v5l-13-12 3-3-6-5 5-4-3-3-6 5-14-12 14-12 6 6 3-3-5-5 6-5-3-2Zm0 25v19l-4-4v-3h-3l-3-3 3-2h3v-4zm-23 6v6l-3-3z"/><path fill="#ffc72c" d="M231 60v4l-9 8 3 2-6 6 4 3v-4h3v3l-10 10h-4l-1-3h4l-5-4-9 8 9 8 5-4h-4l1-2h3l11 9v4h-4v-4l-4 3 6 5-2 3 8 7v4l-13-11 3-3-5-5 4-4-4-4-6 6-12-12 12-11 6 5 4-3-4-4 6-6-3-2Zm0 24v18l-3-3v-3h-4l-2-3 2-2h4v-4zm-23 7v4l-2-2z"/><path d="M231 156v5l-8 7 2 2-6 5 3 3v-3h5v3l-11 10h-5l-1-3h3l-3-3-9 7 9 8 3-3h-3l1-4h5l11 11v3h-5v-3l-3 2 6 6-3 2 8 7v5l-13-12 3-3-6-5 5-5-3-2-6 5-14-12 14-12 6 5 3-3-5-4 6-5-3-3zm0 24v19l-4-3v-4h-3l-3-3 3-2h3v-4zm-23 7v5l-3-3z"/><path fill="#ffc72c" d="M231 156v4l-9 8 3 2-6 5 4 4v-4h3v3l-10 10h-4l-1-3h4l-5-3-9 8 9 8 5-4h-4l1-3h3l12 9v4h-4v-4l-4 3 6 5-2 3 8 7v5l-13-11 3-3-6-5 5-5-4-3-6 5-12-11 12-12 6 6 4-4-5-4 6-5-3-3zm0 25v17l-3-2v-4h-4l-2-3 2-2h4v-4zm-23 6v4l-2-2z"/><path d="M231 252v5l-8 7 2 2-6 6 3 2v-4h5v4l-11 11h-5l-1-4h3l-3-3-9 7 9 8 3-3h-3l1-4h5l11 11v3h-5v-3l-3 3 6 5-3 2 8 8v4l-13-12 3-2-6-5 5-5-3-3-6 5-14-12 14-12 6 6 3-3-5-5 6-5-3-2zm0 24v19l-4-3v-4h-3l-3-2 3-3h3v-4zm-23 7v5l-3-3z"/><path fill="#ffc72c" d="M231 252v4l-9 8 3 3-6 5 4 3v-4h3v4l-10 10h-4l-1-3h4l-5-4-9 8 9 8 5-3h-4l1-3h3l11 9v3h-4v-3l-4 3 6 5-2 3 8 7v4l-13-11 3-3-5-5 4-5-4-4-6 6-12-12 12-11 6 5 4-3-4-4 5-6-3-2zm0 25v18l-3-3v-4h-4l-2-2 2-2h4v-4zm-23 7v3l-2-2z"/><path d="M231 348v5l-8 8 2 2-6 5 3 2v-3h5v3l-11 11h-5l-1-4h3l-3-3-9 7 9 8 3-3h-3l1-4h5l11 11v4h-5v-3l-3 2 6 5-3 3 8 7v5l-13-12 3-3-6-5 5-4-3-3-6 5-14-12 14-13 6 6 3-3-5-4 6-6-3-2zm0 25v19l-4-4v-4h-3l-3-2 3-3h3v-4zm-23 6v5l-3-2Z"/><path fill="#ffc72c" d="M231 349v4l-9 7 3 3-6 5 4 3v-4h3v4l-10 10h-4l-1-3h4l-5-4-9 8 9 8 5-4h-4l1-3h3l12 10v4h-4v-4l-4 3 6 5-2 3 8 7v4l-13-11 3-3-6-5 5-4-4-4-6 6-12-12 12-12 6 6 4-4-5-4 6-5-3-3Zm0 24v18l-3-3v-4h-4l-2-2 2-2h4v-4zm-23 7v4l-2-2Z"/></g><path fill="#ffc72c" d="m104 453 3 8q2-4 1-9l-3-7q-3 3-1 8m-1 12 7 6 2-6q2-3 1-7l-2 4-3 5-3-4-5-5zm10 8v4l-5-3-6-5q1 5 4 8l9 4 1-7-1-7zm6 9 3 6-7-4-9-5q2 8 9 10l11 2-3-8-3-6zm11 8 4 4-12-2h-7l10 5h14l-5-7q-2-5-8-6zm14 7-21 3a34 34 0 0 0 24 0l11-2a26 26 0 0 1 17 9l2-2a39 39 0 0 0-33-8"/><path fill="#383739" d="m110 60-12-7V37l12-7v-8l10-7h8l17-9h34l15 9h8l11 7v8l11 7v16l-11 7v8l-11 7h-8l-16 9h-34l-16-9h-8l-10-6Z"/><path fill="#00843d" d="m144 6-15 9h-9l-10 7v8l-12 7v16l12 7v8l10 7h9l15 9h34l16-9h9l10-7v-8l11-7V37l-11-7v-8l-11-6h-8l-16-9Zm1 4h33l15 9h8l8 4v9l11 7v12l-11 7v8l-8 6h-8l-15 8h-33l-16-8h-8l-7-5v-9l-12-7V39l11-7v-8l8-5h8z"/><path fill="#ffc72c" d="M161 45V10h-16l-16 9h-8l-7 5v9l-11 6v6zv34h16l16-8h8l7-5v-9l12-6v-6z"/><path fill="#fff" d="M102 45v6l12 7v8l7 5h8l16 9h16V45h59v-5l-11-7v-9l-7-5h-9l-16-9h-15v35z"/><g fill="#383739"><path d="m127 23-3-3-3 2 3 2-4 2h8l7 7 2-3-6-6v-4z"/><path d="m140 21-3-2-3 1 3 3-4 2h8l7 6 2-2-6-6v-4zm-15 9-3-2-2 1 3 3-4 2h8l6 6 3-2-7-6v-4z"/><path d="M161 10h-7l-4 4h-6l-6 2 2 3 4-2h2l8 8 7-5z"/><path fill="#d22630" d="m124 20 2 3-2 1-2-2Zm6 1v4l6 5-1 2-6-6h-7zm7-2 2 2-2 2-2-3Zm6 1v3l6 6-1 2-7-6h-6z"/><path fill="#d22630" d="m123 28 2 2-2 1-2-2Zm6 0v4l6 5-1 2-7-6h-6Zm32-18h-6l-4 4h-7l-5 2 1 2 4-2h2l7 8 8-4z"/><path d="m127 68-3 2-3-2 3-2-4-2h8l7-7 2 3-6 6v4z"/><path d="m140 69-3 2-3-2 3-2-4-2h8l7-6 2 2-7 6v4zm-15-9-3 3-2-2 3-2-4-2h8l6-7 3 3-7 6v3z"/><path d="M161 80h-7l-4-3h-6l-6-3 2-3 4 3h2l8-9 7 5z"/><path fill="#d22630" d="m124 70 2-2-2-2-2 2zm6 0v-4l6-6-1-2-6 6h-7zm7 1 2-2-2-2-2 2zm6-1v-4l6-5-1-2-7 6h-6z"/><path fill="#d22630" d="m123 62 2-2-2-1-2 2zm6 0v-3l6-6-1-2-7 6h-6Zm32 18h-6l-4-4h-7l-5-2 1-3 4 3h3l6-8 8 4z"/><path d="m122 34-3-1-5 3-6 9 7 9v1l4 3 3-1-2-2v-2l1-1h4V39h-4l-1-1v-3Z"/><path fill="#d22630" d="m115 36 4-3 2 1-1 1v3l1 1h3v12h-3l-1 1v3l1 1-2 1-4-3-7-9z"/></g><g fill="#383739"><path d="m196 23 2-3 3 2-3 2 4 2h-7l-7 7-3-3 7-6v-4z"/><path d="m183 21 3-2 2 1-3 3 4 2h-7l-7 6-2-2 6-6v-4zm14 9 3-2 2 1-3 3 4 2h-8l-6 6-2-2 6-7v-3z"/><path d="M161 10h7l4 4h7l5 2-1 3-5-2h-2l-7 8-8-5z"/><path fill="#d22630" d="m199 20-3 3 2 1 3-2Zm-7 1v4l-6 5 2 2 6-6h7zm-6-2-3 2 2 2 3-3Zm-6 1v3l-6 6 1 2 6-6h7z"/><path fill="#d22630" d="m200 28-3 2 2 1 3-2zm-6 0v4l-7 5 2 2 6-6h7zm-33-18h7l4 4h7l5 2-1 2-5-2h-2l-7 8-8-4z"/><path d="m196 68 2 2 3-2-3-2 4-2h-7l-7-7-3 3 7 6v4z"/><path d="m183 69 3 2 2-2-3-2 4-2h-7l-7-6-2 2 6 6v4zm14-9 3 3 2-2-3-2 4-2h-8l-6-7-2 3 6 6v4z"/><path d="M161 80h7l4-3h7l5-3-1-3-5 3h-2l-7-9-8 5z"/><path fill="#d22630" d="m199 70-3-2 2-2 3 2zm-7 0v-4l-6-6 2-2 6 6h7zm-6 1-3-2 2-2 3 2zm-6-1v-4l-6-5 1-1 7 6h6z"/><path fill="#d22630" d="m200 62-3-2 2-1 3 2zm-6 0v-3l-7-6 2-2 6 6h7zm-33 17h7l4-3h7l5-3-1-2-5 3h-2l-7-8-8 4z"/><path d="m200 34 4-1 4 3 7 9-7 9-5 3-3-1 2-1v-2l-1-1h-3V39h3l1-1v-3Z"/><path fill="#d22630" d="m208 36-4-3-3 1 2 1v3l-1 1h-4v12h4l1 1v3l-2 1 3 1 3-3 7-9z"/></g><path fill="#383739" d="m116 52-2-1v-1l-3-5 4-5v-1l1-1 3 3h-1l3 3h6l5-4V28h13l15-9v-2l-3-1-3 1v2l-2-3 4-3 5-3h1l4 3h1l4 3-2 3v-2l-3-1h-1l-2 1v2l15 9h13v11l5 4h6l3-3h-2l3-3 2 2v1l4 5-4 5-2 2-3-3h2l-3-3h-6l-5 4v11h-13l-15 9v2l2 2h1l2-2v-1l3 3-4 3h-1l-4 3h-1l-5-3-4-3 2-3v1l3 2 3-2v-2l-15-9h-13V50l-5-4h-6l-3 3h2z"/><path fill="#ffc72c" d="m161 74 2 2-2 1zm-5 3 4 3h1v-2l-2-2 2-2v-5l-16-9h-11V50l-7-5h-9l-2 3-3-3h-2l3 5v1l2 1 2-2h-1l3-3h7l5 3v11h13l15 9v3l-2 1h-2l-2-1v-1l-2 2zm-40-34 2 2h-4zm45-30-1 1 1 1zm43 32 2 2 2-2zm-38-32-4-3h-1v3l3 1-3 2v5l17 9h11v10l6 5h9l2-3 3 3h3l-4-5-2-2-2 2h1l-3 4h-7l-5-4V29h-12l-16-9v-3l3-2h1l2 2v1l2-2z"/><path fill="#fff" d="m161 77-1-1 1-2zm-43-32-2 2-2-2zm48 32-4 3h-1v-3l3-2-3-1v-5l16-9h12V50l6-5h9l2 3 3-3h3l-4 5v1l-2 1-2-2h1v-1l-3-2h-7l-5 3v11h-12l-16 9v3l3 1h1l2-1v-1l2 2zm40-34-1 2h4zm-50-30 4-3h1v3l-2 1 2 2v5l-16 9h-11v10l-7 5h-9l-2-2-3 2h-2l3-4v-1l2-2 2 2h-1v1l3 3h7l5-4V29h13l15-9v-3l-2-2h-2l-2 2v1l-2-2zm5 2 2-1-2-1z"/><path fill="#00843d" d="M161 45V21l-15 9h-12v10l-6 5zv24l16-10h11V49l7-4z"/><path fill="#d22630" d="m128 45 6 5v9h11l16 10V45h34l-6-5V30h-12l-16-9v24z"/><path fill="#383739" d="m144 33-2-2-3 1 3 3-4 2h8l6 7 3-3-7-6v-4zm34 24 3 2 3-1-3-3 3-2h-7l-7-6-2 2 7 6v4zm-34 0-2 2-3-1 3-3-4-2h8l6-6 3 2-7 6v4zm34-24 3-2 3 1-3 3 3 2h-7l-7 7-2-3 7-6v-4z"/><path fill="#d22630" d="m181 59-3-2 3-2 2 2zm-6 0v-4l-6-6 1-2 7 6h6zm-34-28 3 3-2 1-3-2zm7 0v4l6 6-2 2-6-6h-6z"/><path fill="#00843d" d="m181 31-3 3 3 1 2-2zm-6 0v4l-6 7 1 1 7-6h6zm-34 28 3-2-2-2-3 2zm7 0v-4l6-6-2-2-6 6h-6z"/><path fill="#383739" d="m178 45-17 12-17-12 17-11Z"/><path fill="#fff" d="m161 34-16 11h33zv22l17-11h-32l15 11z"/><path fill="#383739" d="M166 49v3h-9v-3h-6v-8h6v-3h9v3h6v8z"/><path fill="#d22630" d="M157 39v3h-6v3h10v-6zm4 6h10v-4h-6v-2h-3zm-10 0v4h6v3h4v-7zm10 7h4v-3h6v-4h-10z"/><path fill="#383739" d="M190 174v-5h14v-5h14v-45h-14v-5h-14v-5h-13v-5h-30v5h-15v5h-13v5h-14v45h14v5h13v5h14v5h30v-5z"/><path fill="#ffc72c" d="M146 104v5h-13v5h-14v5h-13v44h13v5h14v6h14v4h30v-5h13v-4h14v-6h13v-44h-13v-5h-14v-4h-14v-5zm4 4h23v5h13v5h14v5h13v37h-13v5h-14v5h-13v5h-23v-5h-14v-5h-14v-5h-13v-37h13v-5h14v-5h14z"/><path fill="#d22630" d="M137 169v-5h-14v-4h-13v-37h13v-5h14v-5h13v-5h22v5h14v5h14v5h13v36h-14v5h-13v5h-14v5h-22v-5z"/><path fill="#383739" d="m140 117-4-3v5l-3 3v-4l-3 3-3-3v4l-4-3v5l-3 2v-3l-4 3-4-3v3l-3-2v14h-4v7h4v14l4-3v3l3-3 4 3v-3l3 2v5l4-2v3l3-3 3 3v-3l3 2v5l4-3v4l3-3 4 3v-4l3 3v5l5-4v5l6-4 7 4v-5l5 4v-5l3-3v4l4-3 3 3v-4l3 3v-5l4-2v3l3-3 3 3v-3l4 2v-4l3-3v3l4-2 3 3v-3l4 2v-14h3v-7h-3v-14l-4 2v-3l-4 3-3-3v3l-3-2v-5l-4 3v-4l-3 3-3-3v4l-4-3v-5l-3 3v-4l-4 4-3-4v4l-3-3v-5l-5 4v-5l-7 4-6-4v5l-5-4v6l-3 2v-4l-4 4-3-4z"/><path fill="#00843d" d="M113 127v-3l3 2 3-2v3l4-3v34l-4-2v3l-3-3-3 3v-3l-4 2v-14h-4v-6h4v-13zm27-13 3 3 3-3v4l4-3v53l-4-3v3l-3-2-3 3v-4l-4 3v-53l4 3zm42 0-3 3-3-3v4l-4-3v53l4-3v3l3-2 3 3v-4l4 3v-53l-4 3zm28 13v-3l-4 2-3-2v3l-4-3v34l4-2v3l3-3 4 3v-3l3 2v-14h4v-6h-4v-13z"/><path fill="#ffc72c" d="m127 119 3 3 3-3v3l3-2v43l-3-2v3l-3-3-3 3v-3l-4 2v-43l4 2zm28-5-5-4v63l5-5v6l6-4 6 3v-4l5 4v-63l-5 4v-5l-6 4-6-4zm41 5-3 3-3-3v3l-4-2v43l4-2v3l3-3 3 3v-3l3 2v-43l-3 2z"/><g fill="#383739"><path d="m115 135 1 1 2-1 1-5-2 2-1-2-1 2-2-2zm14-3-1-2v-2l-3 2 5 5 4-5-2-2v2l-1 1v-3l2-2-3-2-3 2 2 2zm14-5-2-1v-2l-2 2 4 5 5-5-3-2v2l-1 1v-4l2-1-3-3-2 3 2 1z"/><path fill="#fff" d="m116 131 1 1 1-1-1 3-2 1-1-4 1 1zm28-8v5l2-2v-1l1 1-3 4-5-4 2-1v1l2 2v-5l-2-1 2-2 3 2z"/><path fill="#d22630" d="M130 127v5l2-2v-1l2 2-4 3-4-4 1-1v2l2 1zl-2-1 3-2 2 2z"/><path d="m208 135-2 1-1-1-1-5 2 2v-2l1 2 2-2zm-14-3 1-2v-2l2 2-4 5-5-5 3-2v2l1 1v-3l-2-2 3-2 3 2-2 2zm-14-5 1-1v-2l3 2-5 5-4-5 2-2v2l1 1v-4l-2-1 3-3 3 3-2 1z"/><path fill="#fff" d="M206 131v1l-2-1 1 3 3 1 1-4-2 1Zm-27-8v5l-2-2v-1l-2 1 4 4 4-4-2-1v1l-1 2zl1-1-2-2-2 2z"/><path fill="#d22630" d="M192 127v5l-2-2v-1l-1 2 4 3 4-4-2-1v2l-1 1v-5l1-1-2-2-3 2z"/><path d="m166 129-1-2 4-4-4-2v2l-1 1v-4l3-3-6-4-6 5 4 2v4l-2-2v-1l-4 2 4 4-1 2z"/><path fill="#d22630" d="m156 129 2-2-4-4 3-2v1l2 2v-4l-3-2 5-4 6 4-3 2v4l2-2v-1l3 2-4 4 1 2z"/><path d="m159 118 2 1 3-1-3-2z"/><path fill="#00843d" d="m161 116 2 2-2 1-2-1z"/></g><g fill="#383739"><path d="M115 147h3l1 6-2-2-1 2-1-2-2 2zm14 4-1 1v2l-3-2 5-4 4 4-2 2v-2l-1-1v4l2 2-3 2-3-2 2-2zm14 4-2 1v3l-2-3 4-4 5 4-3 3v-3l-1-1v4l2 2-3 2-2-2 2-1z"/><path fill="#fff" d="m116 152 1-2 1 2-1-4h-2l-1 4 1-2zm28 8v-5l2 2v1l1-2-3-3-5 3 2 2v-2l2-1v5l-2 1 2 2 3-2z"/><path fill="#d22630" d="M130 155v-5l2 2v1l2-1-4-4-4 4 1 1v-1l2-1zl-2 2 3 2 2-2z"/><path d="M208 147h-3l-1 6 2-2v2l1-2 2 2zm-14 4 1 1v2l2-2-4-4-5 4 3 2v-2l1-1v4l-2 2 3 2 3-2-2-2zm-14 4 1 1v2l3-2-5-5-4 5 2 2v-2l1-1v4l-2 2 3 2 3-2-2-2z"/><path fill="#fff" d="M206 152v-2l-2 2 1-4h3l1 4-2-2zm-27 8v-5l-2 2v1l-2-2 4-3 4 3-2 2v-2l-1-1zl1 1-2 2-2-2z"/><path fill="#d22630" d="M192 155v-5l-2 2v1l-1-1 4-4 4 4-2 2v-2l-1-1v4l1 1-2 2-2-2z"/><path d="m166 154-1 2 4 4-4 2v-2l-1-1v4l3 2-6 4-6-4 4-2v-4l-2 1v2l-4-2 4-4-1-2z"/><path fill="#d22630" d="m156 154 2 2-4 3 3 2v-1l2-2v5l-3 2 5 4 6-4-3-2v-5l2 2v1l3-1-4-4 1-2z"/><path d="m159 165 2-2 3 2-3 2z"/><path fill="#00843d" d="m161 166 2-1-2-1-2 1z"/></g><path fill="#383739" d="M210 139h-6v-2h-18l-13-8h-23l-13 8h-18v2h-6v5h6v2h18l13 9h23l12-9h19v-2h6z"/><path fill="#d22630" d="m150 129-13 8h-18v2h-6v4h6v2h19l12 9h23l12-8h19v-3h6v-3h-6v-2h-19l-12-9zm0 1h22l12 8v1h13v5h-13v1l-12 8h-22l-11-8v-1h-14v-5h14v-1z"/><path fill="#d22630" d="m172 130 12 8v1h13v5h-13v1l-12 8h-22l-11-8v-1h-13v-4h13v-2l11-7z"/><g fill="#383739"><path d="m145 146 5 3 3-2-2-1h-1l-2-1 19-13h-3zm10 5h4l19-14-5-4-4 3 2 1 2-1 1 1zm8 0h4l-19-14 1-1 1 1 2-1-3-3-5 4zm11-6-1 1-2-1-2 2 4 2 5-4-19-14h-4Zm-33-4 3 3 3-3-3-2Z"/><path d="m158 141 3 3 4-3-4-2zm24 0-4 3-3-3 3-2z"/><path fill="#ffc72c" d="m177 146-4 3-3-2 2-1 1 1 2-1-19-14h3zm-11 5h-3l-18-14 5-3 2 2-1 1-1-1-2 1zm-7 0h-3l19-14-2-1-2 1-1-1 3-2 4 3zm4-19h3l-18 14 2 1 1-1 1 1-2 2-5-3z"/><path fill="#00843d" d="m144 140 3 1-3 2-2-2zm17 0 3 1-3 2-2-2zm17 0-2 1 2 2 3-2z"/></g><path fill="#383739" d="m103 234-1 2 2 2-2 1 1 2 2 1 3-2 7 3v-3l-4-2 3-3v-4l-6 5-3-2zm0-12-1 2 2 2-2 2 1 1h2l3-2 7 4v-3l-4-2 3-3v-4l-6 5-3-3zm0 31-1-2 2-2-2-1 1-2h2l3 1 7-3v3l-4 2 3 3v4l-6-5-3 2zm117-19 1 2-2 2 2 1-2 2-2 1-3-2-6 3v-3l4-2-4-3v-4l6 5 3-2zm-1-12 2 2-2 2 2 2-2 1h-2l-3-2-6 4v-3l4-2-4-3v-4l6 5 3-3zm0 31 2-2-2-2 2-1-2-2h-2l-3 1-6-3v3l4 2-4 3v4l6-5 3 2zm-26-52v5h4v2h4v-4h-3v-3zm11 8v5h4v2h4v-4h-4v-3zm-75-8v5h-4v2h-3v-4h3v-3zm64 73v-5h4v-2h4v4h-3v3zm-64 0v-5h-4v-2h-3v4h3v3zm75-8v-5h4v-3h4v4h-4v4zm-86-57v4h-4v3h-3v-4h3v-3zm0 57v-5h-4v-2h-3v3h3v4zm57-65-3-3-3 2 2 3-3 3h5l1-2 2 2h5l-3-3 2-3-3-2zm-14 0-3-3-3 2 3 3-3 3h4l2-2 2 2h4l-3-3 2-3-2-2Zm-14 0 3-3 3 2-3 3 4 3h-5l-1-2-2 2h-5l3-3-2-3 3-2zm27 73-2 2-3-2 2-2-3-3h5l1 1 2-1h5l-3 3 2 2-3 2zm-13 0-3 2-3-2 3-2-3-3h4l2 1 2-1h4l-3 3 2 2-2 2zm-13 0 2 2 3-2-2-2 3-3h-5l-1 1-2-1h-5l3 3-2 2 3 2z"/><path fill="#00843d" d="M115 240v3l-7-4-3 2h-2l-1-1 2-2-2-2 1-2h2l3 2 6-4v3l-4 3zm0-12v3l-7-4-3 2h-2l-1-2 2-2-2-1 1-2h2l3 2 6-4v2l-4 4zm0 19v-3l-7 4-3-2h-2l-1 2 2 1-2 2 1 2h2l3-2 6 4v-3l-4-3zm93-7v3l6-4 3 2h2l1-1-2-2 2-2-1-2h-3l-2 2-6-4v3l4 3zm0-12v3l6-4 3 2h2l1-1-2-2 2-2-1-2h-3l-2 2-6-4v2l5 4zm0 19v-3l6 4 3-2h2l1 2-2 1 2 2-1 2h-3l-2-2-6 4v-3l4-3zm-11-46v4h3v3h-3v-2h-4v-4zm11 8v3h3v4h-3v-2h-4v-5zm-83-7v3h-3v3h3v-2h3v-4zm72 72v-3h3v-4h-3v2h-4v5zm-72 0v-3h-3v-4h3v2h3v5zm82-8v-4h3v-3h-2v2h-4v5zm-93-57v3h-3v4h3v-2h4v-5zm0 57v-4h-3v-3h3v2h4v5zm57-67 3 2 3-2 2 2-2 2 2 3h-3l-2-2-1 2h-4l2-3-2-2zm-13 0 3 2 3-2 2 2-2 2 2 3h-4l-1-2-2 2h-4l3-3-2-2zm-8 0-3 2-2-2-3 2 3 2-3 3h4l1-2 2 2h4l-3-3 2-2zm21 77 3-2 3 2 2-2-2-2 2-3h-3l-2 2-1-2h-4l2 3-2 2zm-13 0 3-2 3 2 2-2-2-2 2-3h-4l-1 2-2-1h-4l3 2-2 2zm-8 0-3-2-2 2-3-2 3-2-3-3h4l1 2 2-2h4l-3 3 2 2z"/><path fill="#383739" d="M125 262v7h72v-7h11v-48h-11v-8h-72v8h-11v48z"/><path fill="#ffc72c" d="M125 206v8h-10v47h11v8h71v-8h11v-47h-11v-8zm5 3h63v8l2 2h10v38h-10l-2 2v7h-63v-7l-3-2h-9v-38h9l3-2z"/><path fill="#d22630" d="M130 209v8l10-8zm53 0 9 8v-8zm-65 10v7l9-7zm77 0 9 7v-7zm9 30-9 7h9zm-86 0v7h9zm12 9v8h10zm62 0-9 8h9z"/><path fill="#00843d" d="m182 209 22 17v23l-22 17h-42l-22-17v-22l23-17z"/><path fill="#383739" d="m124 252-3-3 2-3-2-3 2-3-2-2 2-3-2-3 2-3-2-3 3-3h75l3 3-3 3 3 3-3 3 3 3-3 2 3 3-3 3 3 3-3 3zm51-39-3-3-2 3-3-3-3 3-3-3-3 3-2-3-3 3-3-3-3 3v49l3 2 3-2 3 2 2-2 3 2 3-2 3 2 3-2 2 2 3-2z"/><g fill="#ffc72c"><path d="m169 213-2-2-3 2v49l3 2 2-2zm-11 0-2-2-3 2v49l3 2 2-2z"/><path d="m124 251-3-2 3-3h75l2 3-2 2zm75-16 2 3-2 2h-76l-2-2 2-3zm0-6 2-3-2-2h-76l-2 2 2 3z"/></g><g fill="#d22630"><path d="m175 213-3-2-2 2v49l2 2 3-2zm-22 0-3-2-3 2v49l3 2 3-2z"/><path d="m124 246-3-3 3-3h75l2 3-2 3zm0-12-3-2 3-3h75l2 3-2 3z"/><path d="m164 262-3 2-2-2v-49l2-2 3 2z"/></g><path fill="#383739" d="M187 214h-51v4h-7v39h7v4h51v-4h7v-38h-7z"/><path fill="#d22630" d="M136 215v3h-6v38h6v5h5l-10-9v-29l10-9zm45 0 11 8v29l-11 8h6v-3h6v-38h-7v-4z"/><g fill="#00843d"><path d="m142 215-11 9v27l11 9h38l12-9v-27l-12-9zm1 1h37l10 8v27l-10 8h-37l-10-8v-27z"/><path d="m153 251 1 1v2l-2 2 3 3h-3l-2-2-2 2h-3l4-3-3-2 1-2 1-1 2 2zm10 0 2 1v2l-2 2 3 3h-3l-2-2-2 2h-3l3-3-2-2v-2l2-1 2 2zm7 0-1 1-1 2 2 2-3 3h3l2-2 2 2h3l-3-3 2-2v-2l-2-1-2 2zm-17-27 1-1v-2l-2-2 3-3h-3l-2 2-2-2h-3l4 3-3 2 1 2 1 1 2-2zm10 0 2-1v-2l-2-2 3-3h-3l-2 2-2-2h-3l3 3-2 2v2l2 1 2-2zm7 0-1-1-1-2 2-2-3-3h3l2 2 2-2h3l-3 3 2 2v2l-2 1-2-2zm19 3-1 2 1 1v2l-2-2-2 2h-2l-1-2 2-1-2-2 1-1h2l2 1 2-2zm0 9-1 2 1 1v2l-2-2-2 2h-2l-1-2 2-1-2-2 1-1h2l2 1 2-2zm0 12-1-1 1-2v-2l-2 2-2-2h-2l-1 2 2 2-2 1 1 1 2 1 2-2 2 2zm-56-21 2 2-2 1v2l3-2 1 2h3v-2l-1-1 1-2-1-2h-2l-1 2-3-2Zm0 9 2 2-2 1v2l3-2 1 2h3v-2l-1-1 1-2-1-1h-2l-1 1-3-2zm0 12 2-1-2-2v-2l3 2 1-2h3v2l-1 2 1 1-1 1-2 1-1-2-3 2z"/></g><path fill="#d22630" d="m143 217-10 7 3 2 2-1h2l1 2-2 2 2 1-1 2h-2l-2-1-3 2v1l3 2 2-2h2l1 2-2 2 2 1-1 2h-2l-2-1-3 2v1l3 2 2-2h2l1 2-2 2 2 1-1 2h-2l-2-1-3 2 10 8h2l3-3-2-2v-2l2-1 2 2 2-2 3 1v2l-2 1 3 3 3-3-2-1v-2l2-1 2 2 2-2 2 1v2l-1 1 3 3 3-3-2-1v-2l2-1 2 2 2-2 2 1v2l-2 1 3 3h3l9-7-2-2-2 1h-2l-1-2 1-1-1-2 1-2h2l2 2 2-2v-1l-2-2-2 1h-2l-1-2 1-1-1-2 1-2h2l2 1 2-1v-1l-2-2-2 1h-2l-1-2 1-1-1-2 1-2h2l2 1 2-2-9-7h-2l-3 3 1 1v2l-2 1-2-1-2 1-2-1v-2l2-1-3-3-3 3 2 1-1 2-2 1-2-1-2 1-2-1v-2l2-1-3-3-3 3 2 1-1 2-2 1-2-1-2 1-2-1v-2l2-1-3-3zm-10 20v2l1-1z"/><path fill="#fff" d="m150 257-1 2h3zm11 0-1 2h3zm11 0-2 2h4zm-23-40 1 1 2-1zm11 0 1 1 2-1zm11 0 1 1 2-1zm18 11h1zm0 9h1zm0 9h1zm-56-18v1h1zm0 9v2l1-1zm0 9v1h1z"/><g fill="#383739"><path d="M170 234v-3h-3v-3h-12v3h-3v4h-5v6h5v3h3v4h12v-4h3v-3h5v-7Z"/><path fill="#ffc72c" d="M161 228v4l-5 3v2h-9v-2h5v-3h3v-4zm0 19v-4l6-3v-2h8v3h-5v3h-3v3z"/><path fill="#fff" d="M166 237v-2l-5-3v-4h6v4h3v3h5v2zm-18 1h8v2l5 3v4h-5v-4h-4v-3h-4z"/><path fill="#d22630" d="M156 238v2l5 3v-5z"/><path fill="#00843d" d="m161 232-5 3v2h5z"/><path fill="#d22630" d="M166 237v-2l-5-3v5z"/><path fill="#00843d" d="m161 243 5-3v-2h-5z"/></g><path fill="#d22630" d="M117 302v10h-9v9H98v26h10v9h9v10h34l7 4-3 1h-12l-2-1h12l-3-3h-17l8 8h15l5-4 5 4h15l8-8h-17l-3 3h12l-2 1h-12l-3-1 6-4h35v-11h9v-9h10v-25h-10v-9h-9v-10h-35l-6-3 3-2h12l1 1h-11l3 3h16l-7-7h-15l-5 3-5-3h-15l-7 7h16l3-3h-12l2-1h12l3 2-6 3z"/><path fill="#ffc72c" d="M170 365h35v-10h9v-9h10v-25h-10v-9h-9v-10h-35l-14-8h-15l-7 6h15l3-2h-11l1-2h13l16 10h30v10h9v9h10v18h-10v8h-9v10h-30l-16 10h-13l-2-2h12l-3-2h-15l7 7h15zm-19-3h-30v-10h-9v-9h-10v-18h10v-9h9v-10h30l16-10h13l2 2h-12l3 2h15l-7-6h-15l-13 8h-35v10h-9v9H98v25h10v9h10v10h34l14 9h15l7-7h-15l-3 2h12l-2 2h-13z"/><path fill="none" d="m161 300-10 6h-29v10h-10v9h-10v17h10v9h10v10h29l10 7 10-7h29v-10h10v-9h9v-17h-9v-9h-10v-10h-29zm0 3 10 5h28v10h9v9h9v13h-9v9h-10v10h-28l-9 6-10-6h-27v-10h-10v-9h-10v-13h10v-9h10v-10h27z"/><path fill="#00843d" d="M198 349v10h-27l-10 6-9-6h-28v-10h-9v-9h-10v-12h10v-9h9v-10h28l9-6 10 6h28v10h9v9h9v12h-9v9z"/><g fill="#383739"><path d="M128 345v10h15zm0-23v-10h15zm67 23v10h-15zm0-23v-10h-15z"/><path fill="#d22630" d="m129 346 13 9h-14Zm0-24 13-9h-14Zm65 24-13 9h13zm0-24-13-9h13z"/></g><g fill="#383739"><path d="M147 331v-5h-2l-8-5-7 5h-2v5h-4v5h4v5h1l8 5 9-5h1v-5h6v-5z"/><path fill="#d22630" d="m138 321 7 5h-15zm7 20-8 5-7-5zm-2-10v5h-9v-4z"/><path fill="#ffc72c" d="M147 336v5h-9v-5Zm-10 0v5h-9v-5Zm15-5v5h-8v-4zm-19 0v5h-9v-4zm14-4v4h-9v-4zm-10 0v4h-9v-4z"/><path d="M131 333v2h-4v-3Zm3-5v2h-3v-2zm10 0v2h-4v-2zm-3 5v2h-5v-2Zm9 0v2h-4v-2Zm-6 4v3h-4v-3zm-9 0v3h-4v-3z"/><path fill="#fff" d="M130 333h-3v2h4zm4-5h-3v2h3zm10 0h-4v2h4zm-4 5h-4v2h4zm9 0h-3v2h3zm-5 5h-4v2h4zm-10 0h-4v2h4z"/></g><g fill="#383739"><path d="M175 331v-5h2l8-5 8 5h2v5h4v5h-4v5h-2l-8 5-8-5h-2v-5h-5v-5z"/><path fill="#d22630" d="m185 321-7 5h15zm-7 20 7 5 8-5zm1-10v5h10v-4z"/><path fill="#ffc72c" d="M176 336v5h9v-5Zm9 0v5h10v-5Zm-15-5v5h9v-4zm19 0v5h9v-4zm-13-4v4h9v-4zm9 0v4h10v-4z"/><path d="M192 333v2h4v-3Zm-4-5v2h4v-2zm-10 0v2h4v-2zm4 5v2h4v-2Zm-10 0v2h4v-2Zm6 4v3h4v-3zm10 0v3h4v-3z"/><path fill="#fff" d="M192 333h4v2h-4zm-4-5h4v2h-4zm-9 0h3v2h-4zm3 5h4v2h-4zm-9 0h3v2h-3zm6 5h3v2h-4zm9 0h4v2h-4z"/></g><g fill="#383739"><path d="M171 323v5h-2l-8 5-8-5h-2v-5h-4v-6h5v-5h1l8-4 8 4h2v5h5v6z"/><path fill="#ffc72c" d="m161 333 8-5h-15zm8-20-8-5-7 5z"/><path fill="#d22630" d="M171 317v-4h-10v4Zm-10 0v-4h-9v4Zm14 5v-4h-9v4zm-9 0v-4h-9v4zm-10 0v-4h-9v4zm15 5v-4h-10v4zm-10 0v-4h-9v4z"/><path d="M159 314v3h-5v-3Zm9 0v3h-4v-3Zm-14 5v3h-4v-3zm9 0v3h-4v-3zm10 0v3h-4v-3zm-15 5v3h-4v-3zm10 0v3h-4v-3z"/><path fill="#fff" d="M158 314h-3v2h3zm10 0h-4v2h4zm-15 5h-3v2h3zm10 0h-3v2h3zm10 0h-4v2h4zm-15 5h-3v2h3zm10 0h-4v2h4z"/></g><g fill="#383739"><path d="M171 350v5h-2l-8 5-8-5h-2v-5h-4v-5h5v-5h1l8-5 8 5h2v5h5v5z"/><path fill="#ffc72c" d="m161 359 8-4h-15zm8-19-8-5-7 5z"/><path fill="#d22630" d="M171 345v-5h-10v5zm-10 0v-5h-9v5zm14 5v-5h-9v5zm-9 0v-5h-9v5zm-10 0v-5h-9v5zm15 4v-4h-10v5zm-10 0v-4h-9v5z"/><path d="M159 341v2h-5v-2zm9 0v2h-4v-2zm-14 5v3h-4v-3zm9 0v3h-4v-3zm10 0v3h-4v-3zm-15 5v3h-4v-3zm10 0v3h-4v-3z"/><path fill="#fff" d="M158 342h-3v1h3zm10 0h-4v1h4zm-15 5h-3v1h3zm10 0h-3v1h3zm10 0h-4v1h4zm-15 5h-3v1h3zm10 0h-4v1h4z"/></g><path fill="#383739" d="m109 409 36-19h33l36 19v32l-36 19h-33l-36-19Z"/><path fill="#00843d" d="m145 390-36 19v32l36 19h33l35-19v-32l-35-19Zm0 3h32l34 18v28l-34 18h-31l-34-18v-28z"/><path fill="#ffc72c" d="M161 425v32h16l34-18v-14zv-32h-15l-34 18v14z"/><path fill="#fff" d="M161 425v32h-15l-34-18v-14zv-32h16l34 18v14z"/><path fill="#383739" d="M164 455v-9l-3 2-3-2v9h-9l6-5v-6l-9-6h-7v-26h6l10-6v-7l-6-4h10v9l3-2 3 2v-9h9l-6 4v7l9 6h7v26h-7l-9 6v6l6 5z"/><path fill="#ffc72c" d="M165 395v10l-4-2v2l15 10h5v10h2v-13h-6l-10-6v-7l5-4zm-26 30v12h7l10 7v6l-6 5h8v-10l3 2v-3l-15-9h-4v-10z"/><path fill="#fff" d="m150 395 6 4v7l-10 6h-7v13h3v-10h4l15-9v-3l-3 2v-10zm31 30v10h-5l-15 9v3l4-2v10h7l-5-4v-7l10-7h6v-12z"/><path fill="#d22630" d="M142 435h5l14 9 15-9h5v-20h-5l-15-9-14 9h-5z"/><path fill="#383739" d="M172 430h3v-2h-3v-2h5v6h-5v5h-9v-7h4v3h-2v1h5v-3l-19-11h-3v2h2v2h-5v-6h5v-5h10v6h-4v-2h1v-1h-4v2zm-2-12v-2h-5v1h2v2h-5v-6h10v5h6v6h-5v-2h2v-2h-3l-19 12v2h5v-1h-2v-3h5v7h-11v-5h-5v-6h6v2h-4v2h4z"/><path fill="#fff" d="M170 432v3h-5v-2h2v-3h-4v6h9v-4h5v-6h-4v2h2v2h-4l-19-12v-3h6v2h-2v2h4v-6h-10v5h-5v6h5v-2h-3v-2h4zm1-12h4v2h-2v2h4v-6h-5v-5h-9v6h4v-2h-2v-2h5v3l-19 12h-4v-2h3v-2h-4v6h4v4h10v-5h-4v2h2v2h-6v-3z"/><path fill="#383739" d="M203 427v9h-4v-3h-4v3h-5v-9h5v3h4v-3zm-15 13v10h-4v-4h-5v4h-4v-10h4v4h5v-4zm15-17v-10h-4v4h-4v-4h-5v10h5v-4h4v4zm-84 4v9h5v-3h5v3h3v-9h-4v3h-4v-3zm0-4v-10h5v4h5v-4h3v10h-4v-4h-4v4zm69-13v-10h-4v4h-5v-4h-4v10h4v-4h5v4zm-53 30v10h4v-4h5v4h3v-10h-3v4h-5v-4zm0-30v-10h4v4h5v-4h3v10h-3v-4h-5v4zm55-7v7h14zm-58 44v-8h-14zm0-44v7h-14zm58 44v-8h14z"/><path fill="#d22630" d="M199 433v3h4v-9h-4v3h-5v-3h-4v9h4v-4zm-15 13v4h3v-10h-3v4h-5v-4h-4v9h4v-3zm15-29v-4h4v10h-4v-4h-5v4h-4v-9h4v3zm-75 15v4h-4v-9h4v3h4v-3h4v9h-4v-4zm0-15v-4h-4v10h4v-4h4v4h4v-9h-4v3zm60-13v-4h3v10h-3v-4h-5v4h-4v-10h4v4zm-45 42v4h-4v-10h4v4h5v-4h3v9h-3v-3zm0-42v-4h-4v10h4v-4h5v4h3v-10h-3v4z"/><path fill="#ffc72c" d="M191 404v6h12zm-72 36 13 6v-6z"/><path fill="#fff" d="m132 404-13 6h13zm59 36v6l12-6z"/><path fill="#ffc72c" d="m219 453-4 8-1-9 3-7q3 3 2 8m1 12-8 6q1-3-2-6-2-3 0-7l2 4 2 5 3-4 6-5zm-11 8 1 4 4-3 6-5a10 10 0 0 1-4 8l-8 4-2-7a7 7 0 0 1 2-7zm-6 10-3 5 7-4 10-4q-3 7-10 9l-10 2 3-8 2-6q2 3 1 6m-10 7-4 4 11-2h7l-9 5h-14l5-7q2-4 7-6zm-15 7 21 3a34 34 0 0 1-23 0l-11-2q-8-1-17 9l-3-2a37 37 0 0 1 33-8"/></svg>