<svg xmlns="http://www.w3.org/2000/svg" viewBox="0 0 512 512"><path fill="#009fca" d="M0 0h512v512H0z"/><path fill="#fff40d" fill-rule="evenodd" d="m478 226 7 21-18-13-19 13 7-21-18-12h23l7-21 7 21h23zm-57 163 7 21-19-13-18 13 7-21-18-13h22l7-20 7 21h23zm57-37 7 21-18-13-19 13 7-21-18-12h23l7-21 7 21h23zM232 470l7 21-18-13-19 13 7-21-18-12h23l7-21 7 21h22zm43-88-7-21 18 13 19-13-7 21 18 12h-23l-7 21-7-21h-22zm67-93-7-21 19 13 18-13-7 21 19 12h-23l-7 21-7-21h-23zm57-19-7-21 18 13 19-13-7 21 18 12h-23l-7 21-7-21h-23zm-57 161-7-21 19 13 18-13-7 21 19 12h-23l-7 21-7-21h-23zm-67 16-7-21 18 13 19-12-7 20 18 12h-23l-7 21-7-21h-22z"/><path fill="#012169" d="M0 0h256v256H0z"/><path fill="#FFF" d="M256 0v32l-95 96 95 94v34h-33l-96-94-93 94H0v-34l93-93L0 37V0h31l96 94 93-94z"/><path fill="#C8102E" d="m92 162 6 17-77 77H0v-1zm62-6 27 4 75 74v22zM256 0l-96 98-2-22 75-76zM0 1l97 94-30-4L0 25z"/><path fill="#FFF" d="M88 0v256h80V0zM0 88v80h256V88z"/><path fill="#C8102E" d="M0 104v48h256v-48zM104 0v256h48V0z"/></svg>