<svg xmlns="http://www.w3.org/2000/svg" viewBox="0 0 512 512"><clipPath id="tw-a"><path d="M0 0h512v512H0z"/></clipPath><g clip-path="url(#tw-a)"><path fill="red" d="M0 0h768v512H0z"/><path fill="#000095" d="M0 0h384v256H0z"/><g fill="#fff"><path d="m164 135-2 11 10 2-2-7zm50 6-2 7 10-2-2-11zm-44-26-6 6 2 7z"/><path d="m166 128-2 7 6 6z"/><path d="m164 121-7 7 7 7 2-7zm15 29 6 6 7-2zm20 6 11 2 2-10-7 2z"/><path d="m205 150 7-2 2-7zm-33-2 2 10 11-2-6-6zm20 6 7 2 6-6z"/><path d="m185 156 7 7 7-7-7-2zm-13-48-10 2 2 11 6-6zm-2 33 2 7 7 2zm48-13 2-7-6-6z"/><path d="m179 106-7 2-2 7zm35 9-2-7-7-2zm6 20 7-7-7-7-2 7z"/><path d="m214 115-9-9-13-4-13 4-9 9-4 13 4 13 9 9 13 4 13-4 9-9 4-13z"/><path d="m214 141 6-6-2-7zm6-20 2-11-10-2 2 7zm-8-13-2-10-11 2 6 6zm-27-8-11-2-2 10 7-2z"/><path d="m192 102-7-2-6 6z"/><path d="m199 100-7-7-7 7 7 2z"/><path d="m205 106-6-6-7 2zm-20 50-11 2 5 18 13-13zm-6 20 13 48 13-48-13-13zm-7-28-10-2-5 17 17-5z"/><path d="m157 163-13 48 35-35-5-18zm-13-22-35 35 48-13 5-17z"/><path d="m164 135-7-7-13 13 18 5zm0-14-2-11-18 5 13 13z"/><path d="m144 115-48 13 48 13 13-13zm96 26-18 5 5 17 48 13z"/><path d="m212 148-2 10 17 5-5-17zm-13 8-7 7 13 13 5-18zm21-21 2 11 18-5-13-13zm-15 41 35 35-13-48-17-5zm7-68 10 2 5-17-17 5zm28 7 35-35-48 13-5 17zm-13-22 13-48-35 35 5 18zm13 48 48-13-48-13-13 13z"/><path d="m220 121 7 7 13-13-18-5zm-41-41-35-35 13 48 17 5zm-7 28 2-10-17-5 5 17z"/><path d="m157 93-48-13 35 35 18-5zm42 7 11-2-5-18-13 13z"/><path d="m205 80-13-48-13 48 13 13z"/><path d="m185 100 7-7-13-13-5 18z"/></g><circle cx="192" cy="128" r="54" fill="#000095"/><circle cx="192" cy="128" r="48" fill="#fff"/></g></svg>