<svg xmlns="http://www.w3.org/2000/svg" viewBox="0 0 512 512"><defs><clipPath id="ug-a"><path d="M124 0h496v496H124z"/></clipPath></defs><g clip-path="url(#ug-a)" transform="translate(-128)scale(1.0321)"><path fill="#ffe700" fill-rule="evenodd" d="M0 331h744v82H0z"/><path fill="#000001" fill-rule="evenodd" d="M0 248h744v83H0z"/><path fill="#de3908" fill-rule="evenodd" d="M0 165h744v83H0z"/><path fill="#ffe700" fill-rule="evenodd" d="M0 83h744v82H0z"/><path fill="#000001" fill-rule="evenodd" d="M0 0h744v83H0z"/><path fill="#fffdff" fill-rule="evenodd" stroke="#000" d="M449 248a77 77 0 1 1-154 0 77 77 0 0 1 154 0z"/><path fill="#de3108" fill-rule="evenodd" stroke="#000" d="m358 189-5-9q3-3 11-4l-1 10z"/><path fill="#ffe700" fill-rule="evenodd" stroke="#000" d="m363 186 1-10s10 0 16 6l-6 8z"/><path fill="#de3108" fill-rule="evenodd" stroke="#000" d="m375 190 5-8q5 5 5 10l-8 2z"/><path fill-rule="evenodd" stroke="#000" stroke-linecap="round" stroke-linejoin="round" d="M361 321s10-11 28-9c-3-4-12-4-12-4s-2-21 0-22h11q3-1 2-6c-1-5-7-10-5-11 2-2 13 1 13 1l-31-40s-3-15 3-22c8-7 7-14 7-14-1-6-12-11-19-5-4 5-1 9-1 9s-11 3-12 5c0 2 13 0 13 0l-1 8s-26 23-6 43v-1s7 8 14 10l6 6s2 11 0 13h-21c-2 1-11 0-9 15l3-8s0 5 2 7l2-9c1-1 1 6 2 7s1-10 9-9l12 1s3 20 2 22c-5-1-18 1-19 4l11 1s-6 5-4 8"/><path fill="#9ca69c" fill-rule="evenodd" stroke="#9ca69c" stroke-linecap="round" stroke-linejoin="round" d="M364 208s-18 20-10 36v-4l2 2-1-4 3 1-2-3 4 1-1-4h3c-5-9 0-17 2-25"/><path fill="#9ca69c" fill-rule="evenodd" stroke="#9ca69c" d="M370 191s1 7-2 9l-3 2q0 3 3 2c4-1 8-10 2-13z"/><path fill="#fff" fill-rule="evenodd" d="M364 197a2 2 0 1 1-3 0z"/><path fill="#de3108" fill-rule="evenodd" stroke="#000" d="M358 203c-1 0-6 6-1 8 5-2 3-3 5-4q-1-3-4-4z"/><path fill="#9ca69c" fill-rule="evenodd" stroke="#9ca69c" stroke-linecap="round" stroke-linejoin="round" d="M369 252q-2 4 0 9 5-2 8 0-5-3-8-9"/><path fill="#fff" fill-rule="evenodd" stroke="#fff" stroke-linecap="round" stroke-linejoin="round" d="m376 272 1 10h5c1 0 0-7-6-10"/><path fill="#9ca69c" fill-rule="evenodd" stroke="#000" d="M401 274s-6-16-22-20-14-21-13-22q0-3 6-1c4 2 26 13 29 13s0 30 0 30z"/><path fill="#de3108" fill-rule="evenodd" stroke="#000" stroke-linejoin="round" d="M386 254c0 1 21 13 15 24 6-4 4-11 4-11s5 13-7 20l2 1-2 2 7-3-2 3s0 2 6-3l-6 8c12-1 38-40-8-51l2 2z"/><path fill="#fff" fill-rule="evenodd" stroke="#000" stroke-linecap="round" stroke-linejoin="round" d="m387 251 4 3h-5l-7-6-5-3c-3-1-5-9 4-7l10 5 10 3 6 7-12-6 5 6z"/><path fill="none" stroke="#fff" stroke-linecap="round" d="m345 203 12-2"/><path fill="#de3908" fill-rule="evenodd" d="M0 413h744v83H0z"/></g></svg>