<svg xmlns="http://www.w3.org/2000/svg" xmlns:xlink="http://www.w3.org/1999/xlink" viewBox="0 0 512 512"><path fill="#4b92db" fill-rule="evenodd" d="M0 0h512v512H0z"/><g transform="translate(-129)scale(.64)"><path id="un-a" fill="#fff" d="m664 587-10 9c-21-22-46-47-70-47-14 0-25 12-37 19-17 11-41 18-61 9a66 66 0 0 1-29-19 64 64 0 0 0 58 5c19-9 39-20 62-20 33 0 65 23 87 44m-246-69c22 25 58 17 87 23q7 3 13 2l-12-4c-23-9-27-33-39-50q23 17 44 39a74 74 0 0 0 37 16l-11 2c-24 6-51 15-77 7a75 75 0 0 1-42-35m-35-58c14 31 48 34 71 53l14 9-15-17c-13-19-9-45-19-65a142 142 0 0 1 23 35c9 20 11 43 31 59-21-7-45-6-63-18-20-13-38-33-42-56m-15-63c2 28 31 42 45 65l11 13-5-8a63 63 0 0 1-5-32c1-14 7-27 5-42 12 26 8 58 15 86l7 18c-11-9-27-17-39-27a86 86 0 0 1-29-37 85 85 0 0 1-5-36m1-50 5-18c-5 26 13 44 18 67l7 25v-1c-8-23 5-45 17-64l6-17q1 18-3 35-5 21-12 41a65 65 0 0 0 0 28l-1-1c-9-17-27-30-33-48a103 103 0 0 1-4-47m10-28a79 79 0 0 1 19-50h1c-13 19-1 43-3 65l-2 22h1l1-7c3-18 19-31 33-43l7-11q-2 14-8 26c-10 21-30 38-34 62-1-23-15-40-15-64m33-66a46 46 0 0 1 22-14c-17 11-16 31-21 48l-6 18h1a54 54 0 0 1 13-20c12-10 29-17 35-33-1 22-20 39-37 52a63 63 0 0 0-18 22v-17c-1-20-3-41 11-56m66-37q-17 17-29 37-13 13-28 25c5-10 6-22 12-32 11-17 29-24 45-30"/><use xlink:href="#un-a" width="100%" height="100%" transform="matrix(-1 0 0 1 1202 0)"/></g><path fill="#fff" d="m351 280-2-2a103 103 0 0 1-19 27l-14-13a84 84 0 0 0 16-23l-2-1a82 82 0 0 1-16 22l-12-12 13-18-3-2-12 18-13-13 9-14-3-1-8 13-12-12a23 23 0 0 0 6-14h17l-3 13 3 1 3-14h19a61 61 0 0 1-6 23l3 2a64 64 0 0 0 5-25h17a81 81 0 0 1-7 33l2 1q8-16 8-34h19a102 102 0 0 1-10 43za105 105 0 0 0 10-46q1-20-7-39l-2 1q7 18 7 37h-19a84 84 0 0 0-6-30l-2 1a81 81 0 0 1 5 29h-17l-4-22-3 1 4 21h-19l-2-13-2 1 2 12h-17a23 23 0 0 0-6-14l12-12 9 14 2-1-9-15 13-13a61 61 0 0 1 13 20l3-1a64 64 0 0 0-14-21l12-12a81 81 0 0 1 18 26l2-1a84 84 0 0 0-18-27l14-13a103 103 0 0 1 21 33l3-1a105 105 0 0 0-23-35 105 105 0 0 0-36-23l-1 2a103 103 0 0 1 34 22l-14 13a84 84 0 0 0-27-17l-1 2a81 81 0 0 1 27 17l-13 12a64 64 0 0 0-20-13l-1 2a61 61 0 0 1 20 13l-14 13-13-8-1 3 12 7-12 12a23 23 0 0 0-14-5v-18l14 3 1-2-15-3v-19a61 61 0 0 1 22 4l1-2a64 64 0 0 0-23-5v-17a81 81 0 0 1 30 6l1-2a84 84 0 0 0-31-7v-18q20 0 37 7l1-2a105 105 0 0 0-39-8 105 105 0 0 0-47 11l1 2a102 102 0 0 1 45-10v19a83 83 0 0 0-36 8l1 2a81 81 0 0 1 35-8v17a64 64 0 0 0-27 7l1 2a61 61 0 0 1 26-6v19l-17 4 1 2 16-4v18l-8 1 1 3 8-2a20 20 0 0 1 14 6 20 20 0 0 1 6 14q-2 19-20 21a20 20 0 0 1-14-6 20 20 0 0 1-6-15q0-8 6-14l6-4-1-3-6 4-12-12 10-7-1-2-11 8-14-14 16-11-1-2-16 11-13-12a81 81 0 0 1 21-15l-1-2-21 15-14-13a103 103 0 0 1 26-19l-1-2a106 106 0 0 0-48 48l3 1a103 103 0 0 1 18-26l14 13a84 84 0 0 0-16 22l3 1a81 81 0 0 1 15-21l12 12-12 17 2 2 11-17 14 13-8 13 2 1 8-12 12 12a23 23 0 0 0-6 14h-17l3-14-2-1-4 15h-19a61 61 0 0 1 6-24l-2-2a64 64 0 0 0-6 26h-17a81 81 0 0 1 8-34l-3-1a83 83 0 0 0-8 35h-19a102 102 0 0 1 11-44l-3-1a105 105 0 0 0-10 46 106 106 0 0 0 4 30l2-1-4-27h19l4 23 2-1-3-22h17l3 18 2-1-3-17h19l3 13 2-1-2-12h17a23 23 0 0 0 6 14l-12 12-9-14-2 1 9 15-13 13a61 61 0 0 1-15-24l-2 1a64 64 0 0 0 15 25l-12 12a81 81 0 0 1-20-33l-2 1a84 84 0 0 0 20 34l-14 13a102 102 0 0 1-25-43l-2 1a105 105 0 0 0 26 45q14 14 29 21l2-3a103 103 0 0 1-28-19l14-13a84 84 0 0 0 23 16l1-2a81 81 0 0 1-23-16l12-12a64 64 0 0 0 20 12l1-2a61 61 0 0 1-19-12l14-14 14 9 2-2-14-8 12-13a23 23 0 0 0 14 6v17l-12-2-2 3 14 2v19a61 61 0 0 1-23-5l-1 2a64 64 0 0 0 24 6v17a81 81 0 0 1-33-7l-1 2a84 84 0 0 0 34 7v19q-23 0-43-10l-2 3a105 105 0 0 0 46 10q26 0 48-11l-2-3a102 102 0 0 1-45 11v-19a84 84 0 0 0 37-8l-2-3a81 81 0 0 1-35 9v-17a64 64 0 0 0 28-7l-2-2a61 61 0 0 1-26 6v-19a42 42 0 0 0 18-4l-2-2-16 4v-18a23 23 0 0 0 14-5l12 12-10 6 2 3 10-7 14 13-16 11 2 2 15-11 13 12-21 14 2 2 20-14 14 13a103 103 0 0 1-26 18l1 3a106 106 0 0 0 27-20 106 106 0 0 0 21-29"/><path fill="#fff" d="M261 209h1v-1zm-1-1h1v1zm0 0h-1v1zm-8-1h1zm-87 68v3h1zm8 9v1l-1-1-1-1v-1l-1-2 1 1 1 1 1 1zm22 29-1-1h1l2 1v2l-1-1zm58-97h-1l-1-2 1-1v-1h-4v-1h1l-1-1-1 1v1h-1v1h-1v1l-3 3h-6l-1-1-2 1-2-1-4-3c-2-2-5 1-5 1q-1 2-2 1h-3l-2 1h-1v1h-1 3l-1 2h-3l-1 1h-2l-1 1-1 2v1l-1 1v1l-1 1v3h-1v2l-2 2v2l-1 1v2h-1v1l-1 2h1v2l-1 1h-1l-2-1-1-1h-5v2l-2 2-2 2q1 0 0 0v2l-1 1v3l1 1-1 2h-2v1h-10v-1h-1v-1h-2v1h-2l-2 2-1-2h2v-1h-6v2l-1 1v3l1 2-1 1 1 1 1 2v3l1 1h2l-1-3q0-3 2-1l1 1q1 2 3 1 1-2 1 0l2 2h2v2q2 0 3 2l3 4h3l3 3 3 1 2 2h3q2-2 4 1l2 1 1 1 1 2h6l2-2h6c3 0 1-4 0-4l1-4-8-7v-3l-1-2v-3q-3-3-2-4v-2l1-1-1-3v-1h-1l-1-5-4-6v-5l2-1 1-1h1v-2l1-1h2l1-2v-1h-1l-1-4q4-3 5-1h1q2 4 0 4v3l1 4-2 1v3c-2 0 1 2 0 1q2 0 1-1l3-2 2 2h5l1 3q4-1 2 1l2 2 1 1 1-2c-2-1 2-1 1 1l-1 1 1 1v2q3-1 2-3h1l1-1 1-4q3-1 2-3t1-1l-1-2-1-1h-1v-1h-2v1h-1l-1 1h-2v-1l1-1h1v-2h2l1-1 1-1 1 1h1v1l-1 1 1 1h4v-2q-1-2 1-1l1-2q1 1 0 0l1-2 1-1v-2h-2l1-1v-1h1v-1h1l2-1h2l2-2v-2z"/><path fill="#fff" d="M210 237h-2v1h1v5h-2v1l2 2 1-1zm0 13 1-1-1-1v-2l-1 1-1-1v3zm1 2h-1v1h1zm-1 6h-1v1zm1-3"/><circle cx="212" cy="257" r="1" fill="#fff"/><circle cx="212" cy="245" r="1" fill="#fff"/><path fill="#fff" d="M242 241v-1l1-1 1-1v-1h2l1-1v-3h2v-2h-1v-1h-2v1h1v1h-1v1h-1l-2 2v1l-1 2h-2l-1 2 1 2zm9-5v-3l-2-1-1 1v3h-1l-1 3v1l-1 1h-2v2h-1v1l-1 4 2 1 1-1 1-1h5l1-1h1v-2h1v-2l1-2 1-1h-1v-2l-1-1zm2 13-2 2h-1l-1-1v-1h1zm5-7 1-1v-2l-2 2zm6-5 2 3-1 1-2-3v-1zm1 32h-1zh1zm-4-1v1m17-3-1 1h1zm29 23h1v2h6v-4l-1-1v-2q0-4-2-3h-2v3l-1 2zm-2-5-1 1v1h1zm-5-19v2h-1zm11-21q1-2 3-1 0 2-1 1zm2-14h2v-1zm-2 1v1l-1-1v1h1v1zm4-26h-2l-1-1h-4v2h-1v1h1l1 1q3-1 2 1l3 4 1 2h1l1-1h1v-1h-2v-3l-1-1 1-1h-1v-2zm4 11h-2l-1 2 1 1v6q-2 1 0 0v3h1l1-1 1-3v-2l1-2v-4zm1 4h1v1zm-1-5v-3l-1-1v-1l-1-1v-2l-1-1 1-1 1-1v1l1 2v2l1 2v4zm-6-18 1 1v1l1 1v2l1 1h1v-1l-1-2v-1l-1-1zm1-1-1-1h-2v-1l-1-1h1l1 1 1 1zm-13 12h-3q0-2 1-1l1-2v-2l-1-1h2l1-2 2-1v4h-1v1l-1 1v1h2l1 1v1zm-7 1h2v1h-2zm14-9 3-1 1-1v2h1v2h-1v1h-3v-1zm-4-6 1 3 2 1 1-2v-2l-1-1-1-1-1-1-1 1-1 2zm3 10v-1zm-1-16v1zm-2 10h1v1zm-10 11h1zm-3-2h1zm-21 0h2v-1zm3-1v1h1l1 1 1 1 1-1 1-2h-3zm5-1h2l1 2h6q2 3 2 1v-2l-3-2h-4l-2-1h-2zm25-14 1-2-1-2-2-1-1-3h2l-5-5q-3 1-2-1l-4-4-2-1v2h2l1 2-1 1 1 1h1v2l2 1v2l-1 2 1 1h1v2l3 2 1 1 1 1q2 1 2-1"/><path fill="#fff" d="m285 177 1-2h3l1 1v1h-3v2h-2zm-1-3v-2l-1-1-2-1-1-2q0 1 0 0h-2v-1h-1v1l1 2 2 1h2zm-11-12h-1v1zm0-4 1 1 2 1h1v-1l-1-1h-1l-1-1zm19 1-1 2v1h2v2q3 1 2 2l1 1v2l2 1-1 3 1 1v1l1 3h1l3-1q3 1 3 4l-1 1 1 3 3 3 1 1q1-3 2-1v2l1 1 1 1h3l1 2h2l1 1 1 2 1 1 1 1 1 1v1h1l1 1h2l1-1 2-2 1-2 1-2-2-2-1-1-1-2-1-2-2-1v-1l-1-1-3-3v-2h-2l-3-3v-1h-1v-2l1-3h-3l1-1v-1h-3v-4h-1v-1h-1v-1h-1l-1-1v-1h-2l-1-1-1-1-2-1h-1l-1-1h-1v1h-2zm11-3 3-1q2 1 2 4l-2-1-1-1zm-36-9-2-2v-3h-3l-2 1-1 1-1 1h3l1 1h2l2 2q2 0 1-1m0-6q-2 0-1 2h3v-1l6 1v-1l2-1v-1h-6v1zm-11 19 2-1h1l-1-2h-1l-1-1-1 2zm-12 1h2l1 1 1 1-2-1h-1zm35-23 1 1 1-1zm-6-3h2v-1l-1 1zm-2 23h-2zl1 2 1-1zm-35 30v1h1zm-18-20v2zm30 138v1h1v-1zm-8-7h1zm80-20-1-1zm0-2v-1h1zm25-9h2l-1 2zm6-4h-1zm-2 0 1 1v-1zm-5-10-2 1h2zm-29-35-1 1-1 1v2l-1 1h-4l1-1v-2l1-2-1-1-1-1h-4v1q-2 3-2 0v-1l-2-1v-1l-3-3h-2l-1-1h-1q-3-1-4 2v2l-1-1h-1v2l-1 1-1-2 1-3v-1l1-1h1-3l-2 2q-3 1-2-2l-3 1h-2q-2 1-2-1l1-1h-1l-1 1q-2 0-1 2h-1l1 1v1l1 1h-2l-3 1-1-2-2-1 1-2 1-3-2 1-1 1h-1l-1 1v1h-3l-1-1-2-1-1 1h-2v2h3v3l-1-1h-2v2h1v1h1l1 1h2l1 1h1l3 3v2h-2v1h2l1-2 2 1-1 1v1l1 1-1 2v1h-2v1h-1l2 1 1-1 1 1v2h1v3l1 1v5h-1v1h-6v1l-1 1-1 1v2l-1 2v3h2l2 1h1v-2h-1v-4l1-1 1 3 1 1v1l-1 1 1 1h-1l-1 1h-2l-1-1h-1v2l-1 2-1 1h-3v1h-1l1 1h1v2h-4v2h-1v3h1v1h3l4-4 3-1h1l1 1h2v1h1v-1h1l-1-1h-1l-1-1q-1-1 1-1h1l2 3 1 1h2v1h2v-1h-2v-1l-1-1q-1-3 1-1v-2h1v-2l-1-1h3v-2h1l3 1 2-3v-1h-1v-2h1v1h3l1 1 1 1h-5l-2 3v2h-1l-3 1v1q-2 0-2 2v1l1 1 2-1 2-2 2 2-1 1v1l-1 1v1h-5l-1 1h-1l-1 2q0 2-3-1h-3v-1l-2-1-4 1h-1l-1 1-2 1h-1v-1h-1l-1 2-4 2-1 1h-1l-1 1h-1v3h-1v2h-2l1 2h1l1 2h1v1l1 2 2 1v1h5v1h13l1 2 1 2 2 1h1l1 2h1v6l1 1v1l1 1h2l4 4 3 2v1h2l2-1 2-1h1l12-10-1-1v-2q3-3 0-4-2-1 1-2v-1l3-2v-2l-6-5c-2-1 0-6 2-6 2 1 0-8 0-8h-1v-3h-1l-2 3v2c-1 2-7 1-7 1l-3-1-2-1h-2l-1-1-2-1h1v-1l3 1h1l1 1h4l1 1 1 1h4v-4l1-1v-1h1v-8l-1-1h-2l-1 1v1l-1 1-1 1h-2l-1-1 2-1h1l1-1q0-2 1-1 2 0 3-3l2-4h3l1-2h5l2-1 3-1v-1l-2-2-2-1q-2-1-2-3l-1-1-2-3v-3l2-1v-2h2l1-1-1-1 1-2h5l1-2 1-1 1-1z"/><path fill="#fff" d="M256 258v1h-1l-1 1v-1l-1 1h-1v-1l1-1v-1h1l-1-1v-1l2-1v3zm-5 1 1-2h1v2z"/></svg>