<svg xmlns="http://www.w3.org/2000/svg" xmlns:xlink="http://www.w3.org/1999/xlink" id="flag-icons-uz" viewBox="0 0 512 512"><path fill="#1eb53a" d="M0 341.3h512V512H0z"/><path fill="#0099b5" d="M0 0h512v170.7H0z"/><path fill="#ce1126" d="M0 163.8h512v184.4H0z"/><path fill="#fff" d="M0 174h512v164H0z"/><circle cx="143.4" cy="81.9" r="61.4" fill="#fff"/><circle cx="163.8" cy="81.9" r="61.4" fill="#0099b5"/><g fill="#fff" transform="translate(278.5 131)scale(2.048)"><g id="uz-e"><g id="uz-d"><g id="uz-c"><g id="uz-b"><path id="uz-a" d="M0-6-1.9-.3 1 .7"/><use width="100%" height="100%" transform="scale(-1 1)" xlink:href="#uz-a"/></g><use width="100%" height="100%" transform="rotate(72)" xlink:href="#uz-b"/></g><use width="100%" height="100%" transform="rotate(-72)" xlink:href="#uz-b"/><use width="100%" height="100%" transform="rotate(144)" xlink:href="#uz-c"/></g><use width="100%" height="100%" y="-24" xlink:href="#uz-d"/><use width="100%" height="100%" y="-48" xlink:href="#uz-d"/></g><use width="100%" height="100%" x="24" xlink:href="#uz-e"/><use width="100%" height="100%" x="48" xlink:href="#uz-e"/><use width="100%" height="100%" x="-48" xlink:href="#uz-d"/><use width="100%" height="100%" x="-24" xlink:href="#uz-d"/><use width="100%" height="100%" x="-24" y="-24" xlink:href="#uz-d"/></g></svg>