<svg xmlns="http://www.w3.org/2000/svg" xmlns:xlink="http://www.w3.org/1999/xlink" viewBox="0 0 512 512"><path fill="#fff" d="M0 0h512v512H0z"/><path fill="#369443" stroke="#010002" stroke-miterlimit="10" d="M164 316s-1-3 4-5c6-2 6-10 5-15l-6 7s-6 3-6 8v4c-1 0-3-7 2-13q7-8 2-20s0 6-4 9-4 3-4 11l-2 4-3-7q-2-3 2-8s11-7 3-22c0 0 0 6-4 9q-4 4-4 10l-1 6s-6-13-1-19 8-8 2-21c0 0 1 7-4 10s-4 10-4 10v5s-7-13-1-19q8-7 3-19 1 1-3 6-5 2-5 12v7l-4-8q-1-4 1-8c2-4 10-13 1-27l-3 9q-2 6-1 12l-1 7c-1 1-4-8-3-16q1-13-11-21s-6 13 2 20c0 0 7 7 9 15q-1 2-10-10c-5-9-14-7-15-7 0 0 1 14 16 18 0 0 10 1 12 8l2 8q-1 1-6-6c-3-4-2-4-12-5l-5-3s4 15 14 15c0 0 9-1 14 11l-2-2q-2-2-12-2l-10-1s7 13 16 9c10-3 15 10 15 10l-3-2q-2-4-12-2l-10 1s5 9 16 7c11-1 14 8 14 8l-3-1q-1-3-13-1c-12 2-10 0-10 0s4 8 13 9l6-1a9 9 0 0 1 11 3h-2s-6-2-10 1c0 0-4 4-10 4 0 0 7 6 19 1 0 0 4-3 6-1 3 2 10-2 10-2z"/><g fill="#f4c53d" stroke="#010002" stroke-miterlimit="10"><path d="M226 147s-1-12 8-13l14 1 5 9-2 5-6 3s1-9-7-9h-6q-5 1-6 4z"/><path d="m291 176-7 2s6 4 8 11c3 6-66 0-66 0l5-6q-1 1-6-2 1 1 6-4s4-6 7-7l-5-1s6-1 8-11l3-5c2-4 2 0 6-5v-6c-1-4-3-1-7-3s-5-3-4-6q2-5 5-3l4-5a29 29 0 0 1 16 0q3 0 11 12c3 9-1 12 9 26h-7s5 9 14 13z"/><path fill="none" d="M249 138c-8-1-5-8-5-8"/><path d="m262 139-2-2q-4-5-8-2l-3 3q1-1 3 2l5 2 3-2z"/></g><path fill="#369443" stroke="#010002" stroke-miterlimit="10" d="M162 333s0-5 7-5l18 26s0 2-9 1l-1 1c-1 2-15-23-15-23z"/><g id="vi-a" fill="#f4c53d" stroke="#010002" stroke-width="10" transform="translate(3 85)scale(.12044)"><path d="M1495 1808s-50 86-110 87c0 0-104-13-133 14-21 19-42 35-50 83-9 49 16 59 22 61 0 0 5 35 39 26 0 0 2 36 62 18 60-17 85-12 97-72s23-59 34-66c14-10 41-19 61-30 18-11 87-46 111-49 24-2 18-82 18-82h-61l-29-43zm192-429s-61 49-112 0c0 0-21 24-62 17s-48-29-52-41c0 0-36 20-66 4s-30-41-30-41-53 10-80-26c-27-35-10-70 4-74 0 0-56 14-72-34a56 56 0 0 1 17-63s-120-1-169-38c0 0-41-26-16-53 0 0-108-17-135-60 0 0-11-11-8-32 0 0 1-12 13-12 0 0-123-19-158-60 0 0-17-18-9-43 0 0 2-7 5-11 0 0-111-24-166-74 0 0-32-28-16-66 0 0-186-51-143-133 0 0-87-28-60-107 0 0-72-37-40-95 30-55 122 10 232 40 0 0 296 94 442 118l414 618 242 93z"/><path d="M1690 924s-39-29-108 5c0 0-24 16-42-1a37 37 0 0 1 4-58c52-38 71-153-8-201 1 0-113-67-532-174 0 0-35-10-54-5a52 52 0 0 0-37 38s-19 53 44 84c0 0 28 13 58 21 0 0-32-7-46 25-13 30 6 61 65 81l38 12s-50 15-26 55c0 0 22 43 98 51 0 0-57 6-17 60 0 0 18 30 74 41 0 0-42 1-21 39s71 59 121 63c0 0 26 1 45-3 0 0-47 24-19 63 0 0 20 28 71 27 0 0-13 44 24 60 29 13 53-8 53-8s-10 47 33 64c0 0 21 11 52 0 0 0 24 54 110 16 85-38 20-355 20-355zm5 489s-13 68-112 152c0 1-77 68-75 146 2 80-14 89-44 116 0 0 62 4 92-37 1 0-1 69-10 75 0 0 20 1 48-29 0 0 17-18 33-25 0 0-19 47-4 91 0 1 4-17 29-24 0 0 44-9 61-73 0 0 11-42 80-79 0 0 78-30 76-68-2-39-174-245-174-245z"/><path stroke-miterlimit="10" d="M2057 2282s-18 79-80 73c0 0-44-5-41-78 0 0-65 35-75-51 0 0-59 14-59-66 0 0-55 10-48-62 0 0-60 16-60-51 0 0-140-23 151-288l260 154z"/><path d="M2085 1928s-43 39-74-19c0 0-42-2-48-34 0 1-34-3-41-35 0 0-46-5-45-45 0 1-85-6 0-102s228 159 228 159zm49-24c42 1 89 263 77 420-5 58-35 105-77 105s-73-47-77-105c-13-157 35-419 77-419"/><ellipse cx="2134" cy="1903" rx="58" ry="86"/><path fill="none" stroke-miterlimit="10" d="M1936 2277s7-138 127-337m-202 286s-19-80 150-317c0 0-19-56 41-92m-250 343s-5-87 161-284c0 0-15-51 45-92m-254 315s6-88 168-259c0 0-8-53 50-85m-278 292s12-100 183-252c0 0-6-39 51-79"/><path fill="none" d="M372 432s135 78 553 156m-493-49s364 119 533 133m-390 0s214 67 463 110m-281 30s241 58 356 67m-194 47s204 42 256 47m-126 58s149 22 208 21m-23 69s60-3 89-8m-34 105s51-14 82-33m-6 133s39-15 58-57m38 94s30-28 32-58m82 82s-12-10-4-53m-11-63s-6-12-4-32m-211-581s69 28 92 66 8 75 0 96c-4 10-53 104 4 172m-95 73 25-8m-170-91s41 8 81 8m-138-110s48 5 94 5m-166-110s70 14 107 14m-164-132s85 24 149 33m142 51s-62 57 12 110c0 0-31 48 31 99m-16 24s-10 92 103 92c0 0-22 82 87 79 0 0 13 66 91 53m-173 721s-18 4-56 0m-109 48s-54-8-52 110m85-83s-49-6-46 109m520-385s-23 5-40 24c-16 18-47 15-47 15s17-14 23-49c5-34 25-45 25-45m-57-32s-23 5-40 23c-16 19-48 15-48 15s17-13 23-48c6-34 25-45 25-45m24 189s-21 4-35 20c-14 17-42 14-42 14s15-12 20-43c5-30 22-39 22-39"/></g><use xlink:href="#vi-a" width="100%" height="100%" stroke="#010002" stroke-width="10" transform="matrix(-1 0 0 1 518 0)"/><path fill="#0081c6" stroke="#010002" stroke-miterlimit="10" d="m380 273-7-4-12 49-4-3 11-48-8 1 19-34zm27 13-5-7-34 41-4-4 35-40-7-4 31-21z"/><path fill="#0081c6" stroke="#010002" stroke-miterlimit="10" d="m400 263-6-5-31 59-4-3 31-59-8-2 26-28zm-44 72-3 9 7 7-9 37-8-10-12 5 9-38 8-2 2-9s3-1 6 1z"/><path fill="#0081c6" stroke="#010002" stroke-miterlimit="10" d="m358 329-5 8 5 8-18 34-5-13-13 3 18-34h9l4-9s3 0 5 3z"/><path fill="#0081c6" stroke="#010002" stroke-miterlimit="10" d="m359 331-12 16 2 8-24 29-3-13-12-1 24-29 8 2 13-16s4 1 4 4zM52 295q5-1 5-5l-1-5-19-59-3-7-4-3h24q-5 1-5 5l1 5 15 46 15-46 1-5q-1-4-6-5h24l-5 3-2 7-19 59-2 5s-1 3 5 5zm413-6v-67l-1-2-4-4h22l-5 3v73l5 3h-22l4-3z"/><path fill="#fff" stroke="#010002" d="M260 312s59-26 59-87H200c1 61 60 87 60 87z"/><path fill="#a60032" stroke="#010002" d="M210 225v39l9 14v-53zm18 0v64l9 8v-72zm18 0v79l9 6v-85zm64 0v39l-9 14v-53zm-18 0v64l-9 8v-72zm-18 0v79l-10 6v-85z"/><path fill="#162667" stroke="#010002" stroke-miterlimit="10" d="M319 181s-29 15-59-2c-30 17-60 2-60 2v44h119z"/></svg>