<svg xmlns="http://www.w3.org/2000/svg" viewBox="0 0 512 512"><path fill="#244AA5" d="M0 0h512v512H0z"/><path fill="#D0A650" d="m202 246 2-1h1l1-1 2 1 2 1h2v-1l1-1 1-1 1-1 1-1h2l1-1 1-1h2l-1-1-1-1h-1l-1-1v-1l-1-1-1-1q-1 0 0 0v-1l1-1v-2l1-1 2-2h1l1 2 1-1 1-2 1-1 1-1v-1l2-1h1l1 1h1l1-1h1v-2h1l1-1h1l1-1-1-2v-2h-1v-2h2l2-1v-4l-2-2-1-1-1-1v-1l-1-1-1-1-3-1-1-1 1-2-1-1-1-1 1-1h9l1-1 1-1 1-1 1-1 1-1 1-1 2 1h3l1 1 1-1-1-2v-1h4l1 1 1 1 1 1v1h1l1 1v2l1 1v1l-2-1-1 1h-1v1l1 1-1 1h-1l-1 1 1 1h2l1 1 1-1 2 1 1 1v1h3v2l2 1 1 1h1l1-1 1-1h3l3 1v1l2 1v1h1l2-1h1l-1-1 1-1h1l1 1 1 2 2-1 1 1 1 1v2l-1 1v2l1 1 1 2v1q0 2 1 1l1 1-1 1v1l1 1 1 1 1-1 1-1-1-1 1-1h1l1 1 1 1 1 1v2l1 1v3h-1v2l1 1 1 1v2l1 1 1 1 1 2h1l1-1h5l1 1v2l2 1q0 1 0 0h1l1 1h1l1-1h4v3l-1 1h-1v3q-2 0 0 0v3h-2v5l-1 1h-1v2l1 1 1-1h5v1l1 1 1-1h2l1 1h1l1 1h3l1-1h2l1 1h2v2l-1 1 2 1 2 1 1-1 2 1v3l1 1h2v-3h2l2-1h6v2l1 1v1l1 1 1 1v1l-1 1h-2l-1 2v1l-1 2h-1l1 2 1 1v3l-1 1-1 1h-3l-1 1v3l1 1h-2l-1 2h-1l-1 2q0 1 0 0l-1 1-1 1-1 1-2 1v2l1 2 1 1v1l1 1-1 1v1h-1v1l-1 1-2 1v-1h-3v1l-1 1h-4v2l-1 1v3l1 2 1 1 1-1h2v3l2 1 1 3-2 1h-1l-1 1h-1l-2 1-1-3-1-2h-2l-1-1-2 1h-2v1l-1 2 1 1q1 3-2 2-1-2-3-2h-2v1l-1 1-1 1-1 1-2 2q0-1 0 0h-1v1l-2 4 1 1-2 2q1 0 0 0l-1 1 1 1 1 2h1l-1 1 1 1-2 1v-2l-1 2h-1l-2 1h-3l-1-1-1 1-1-1v-4l-2-3-1-2-1-2v-1h-1v-2l-4-1h-1l-1-1-1 1-2 2-3 1-1 2h-1l-2 2h-2l-2 1v1h-1l-1 1-3-1-2 2h-1v2l-2 1-1 1h-5l-2 2h-4l-1 1v1l-1 1-1 1-1 1 1 1-2 2v7h1l1 3-1 3 1 1 2 2h-2l-2 3-1 1v2h-1l-1 1-4 2-1-1v-1h-4v1l-2 1-2-1-1-2-3-6h1l3-2h1v-1q2-2 1-5l-2-3v-1l-1-2v-3l-3-3-1-2v-1l-1-1 1-2v-1l1-2-2-3 1-1-2-2v-1l-1-2-1-4-1-1v-1l-2-1v-2h-1l-2-2-2-2-2-1h-2l-2-1-1-2-3-1h-1v-1l-1-2h-1l-2 1h-1l-1 1v-1h-5l-1-1q1-1-2-3l2-1v-2l-1-1v-1l-2-1v-1l-1-1v-1l2-1-1-2v-1l-2-1q-2-1-1-2l-1-2-1-2-1-1v-2h-1l-4-2v-1l-3-1v-1l-1-1-1-1v-2l1-1v-2q-2-1-1-3v-2l1-1 1-1 1-1 1-1h-1l-1-1h-1l-1-1h-1l-2-2h-6v-1l-1-2h-1v-1l-1-1h2v-2l-1-1 1-1c0-2 1 0 2-2l1-1h2l2-2h2l1 1h3l1 1h1l3 2h1l2-1v1l1-1h2l1-2h1l-1-2h1l1-1 1-1v-1h1l1-1 3-2h1l1 1h1l1-1 1-1z"/><path fill="#FFF" d="m281 125 13 39-34-24h42l-34 24zm51 8 12 40-33-24h41l-33 24zm47 18 13 40-33-25h41l-33 25zm-149-26-13 39 34-24h-42l34 24zm-50 8-13 40 34-24h-42l34 24zm-48 18 13 40-33-25h41l-33 25z"/></svg>