<svg xmlns="http://www.w3.org/2000/svg" viewBox="0 0 512 512"><defs><clipPath id="za-a"><path d="M70 0h500v500H70z"/></clipPath></defs><g clip-path="url(#za-a)" transform="translate(-72)scale(1.0248)"><g fill-rule="evenodd"><path fill="#000001" d="M0 398V102l220 148z"/><path fill="#000c8a" d="m150 500 248-167h351v167z"/><path fill="#e1392d" d="M135 0h615v167H398S138-2 135 0"/><path fill="#ffb915" d="M0 63v39l220 148L0 398v39l278-187z"/><path fill="#007847" d="M0 63V0h93l294 199h362v102H387L93 500H0v-63l278-187z"/><path fill="#fff" d="M93 0h57l248 167h351v32H387zm0 500h57l248-167h351v-32H387z"/></g></g></svg>