<svg xmlns="http://www.w3.org/2000/svg" viewBox="0 0 512 512"><defs><clipPath id="zm-a"><path d="M248 0h496v496H248z"/></clipPath></defs><g fill-rule="evenodd" clip-path="url(#zm-a)" transform="translate(-256)scale(1.0321)"><path fill="#198a00" d="M0 0h744v496H0z"/><path fill="#ef7d00" d="M657 178h87v318h-87z"/><path fill="#000001" d="M570 178h87v318h-87z"/><path fill="#de2010" d="M481 178h89v318h-89z"/><g fill="#ef7d00" stroke="#000"><path stroke-linejoin="round" d="M686 64s33-14 36-17c1 1-13 19-42 26 26-7 48-26 52-25 2 0 1 19-58 34 41-10 65-30 65-28 0 1-4 16-40 27 10-2 37-18 37-15 0 1-27 36-76 25 39 10 65-15 68-14 1 0-7 21-56 22 24-2 17 0 17 0s-14 11-31 4c13 3 15 4 15 5-1 1-12 3-22-2l16 5a11 11 0 0 1-10 1l-49-29 75-20zm-89 73a6 6 0 0 0-6 6s-1 0-1 3l2-3q2 1 9-2c-5 4-2 6-2 6s-1 4 2 4v-2s4-1 4-7q1 7 3 7c2 0 0 3 3 3q-2-3-1-4c1-1 4-3 0-8l4-4-4-2v-8l-2-9-4 14c0-2 0 6-7 6z"/><path stroke-linejoin="round" d="M630 117s5 5 10 5c1-2-4-5-4-6 2 2 10 9 15 6 2-2-4-2-10-10 4 3 15 10 20 7 2-2-11-10-16-15l-11-6-16 13z"/><path stroke-linecap="round" stroke-linejoin="round" d="M612 73s6-4 27-2l19-6c6-1 26-5 31-9 4-1-1 7-6 9s-23 8-30 7c8 1 4 7-9 4 6 3 4 4 4 4s-11 1-14-2c7 3 4 4 4 4l-11-1c5 1 3 2 3 2h-8c-4-1-9-11-10-11"/><path stroke-linejoin="round" d="m621 120 1 14-1 1c-1 0-10-2-9 6q0 3 2 5v-3q0 2 5-3v6q-1 3 3 4l-1-3s4-1 3-7h2q-1 3 3 3 2 2 0 3c-2 1 3 0 3-2q3-4-2-7l1-2 4 2c0 1 0-3-3-4l-4-1-1-13z"/><path stroke-linecap="round" stroke-linejoin="round" d="M634 132c0-1-6-10-5-11 2 0 5 4 7 3-1-2-3-1-5-5s-2-11-10-19c5 8 16 13 17 10s-10-11-10-13c2 5 13 14 21 13 1-1-6-5-8-9-5-3-19-15-19-18l-10-10-1-2c-3-7 1-9 4-10h4l-5-2c2 1 8 0 6 5 3-1 8-7-6-9-4-5-22-8-27 14l2 2c-6-3-21-5-27-6-15-4-30-15-32-14s9 12 9 12q-15-9-27-13l-12-7c-2 5 9 16 11 17l19 9c-25-11-30-13-31-15-2 0-7-7-9-7-1 1 1 12 13 18l25 10-28-11c-5-2-11-10-13-9-1 1 3 9 9 11l22 10-25-10-6-5c-1 1 1 12 28 19l10-2-16 3c0 1 2 5 16 4l11-3-20 6 11 4c7 0 19-4 19-4l-13 5h-5c0 1 7 8 27 1-2 3-12 4-12 5l6 3h6a25 25 0 0 0 13-7c0 2-13 8-12 9 2 3 12 0 13-1l18-11-23 14c2 3 10 0 10 0l10-6c1 0-11 7-10 8 0 5 18-3 20-4 1 0-9 5-9 7 3 5 13 3 15 2l-1 4 3-4-2 6-2 9c0 1 7-3 6-13l-2 16c2 1 5-5 6-9l5 7-1-6 1-15c6 10 8 14 6 22 2 1 4-5 4-8 2 9 11 10 11 10"/><path stroke-linecap="round" stroke-linejoin="round" d="m544 66-8 2c1 5 10 1 10 1s-4 5-8 6c2 2 11 1 12 0l4-4-10 10c0 1 9 1 11-1l7-4-13 9c4 1 14-2 20-6-9 6-10 8-15 10 4 0 6 3 20-3 8-4 12-10 12-10a79 79 0 0 1-21 17c0 1 9 5 22-8"/><path stroke-linecap="round" d="M610 93s1 4 4 7q4 5 3 6m-9-38s1 3 5 6l9 10 2 13m-37-24c0 2-5 8 2 16l-6 9s4 2 10-4c10 13 7 19 7 19"/><path stroke-linecap="round" stroke-linejoin="round" d="M599 104s-1-1 1-7l4 3c1 0 8 2 9 8"/><path d="M608 56c0-1-1-4-7 0q5 2 7 0z"/><path stroke-linejoin="round" d="M665 71s17 4 23 2c-7 10-22 3-22 3l10 4c1 2-13 2-18-1l13 5c1 2-20 0-22-3l12 7c-4 2-11 4-25-6 18 16 34 15 36 18-6 9-30-5-41-13-10-7 24 18 27 18-1 2-13 0-13-1"/><path stroke-linecap="round" d="M669 88h-9"/><path stroke-linecap="round" stroke-linejoin="round" d="M539 63s13 7 19 7l-4 2 11 1-3 3q1 2 10-1l-2 3 4 1"/></g></g></svg>