<svg xmlns="http://www.w3.org/2000/svg" viewBox="0 0 640 480"><defs><clipPath id="ag-a"><path d="M-80 0h683v512H-80z"/></clipPath></defs><g fill-rule="evenodd" clip-path="url(#ag-a)" transform="translate(75)scale(.9375)"><path fill="#fff" d="M-80 0h683v512H-80z"/><path fill="#000001" d="M-80 0h683v205H-80z"/><path fill="#0072c6" d="M21 203h480v112H21z"/><path fill="#ce1126" d="M603 0v512H262zM-80 0v512h342z"/><path fill="#fcd116" d="m440 203-76-19 65-49-80 11 41-69-71 41 13-81-48 64-19-74-22 76-47-65 13 83-70-43 41 70-78-13 64 48-80 20z"/></g></svg>