<svg xmlns="http://www.w3.org/2000/svg" xmlns:xlink="http://www.w3.org/1999/xlink" viewBox="0 0 640 480"><defs><path id="ai-b" fill="#f90" d="m271 87 8 10c-2 2-2 1-2 5q3-4 5-3c4 4 1 13-3 15-3 2-3 0-8 3q3 2 8 0v7q2-1 2-6c2-5 11-9 11-14q3-1 6 1-3-6-6-6-2-7-10-9l-6-1c-1-2-6-4-5-2"/></defs><clipPath id="ai-a"><path d="M0 0v120h373v120h-53zm320 0H160v280H0v-40z"/></clipPath><path fill="#012169" d="M0 0h640v480H0z"/><path stroke="#fff" stroke-width="50" d="m0 0 320 240m0-240L0 240"/><path stroke="#c8102e" stroke-width="30" d="m0 0 320 240m0-240L0 240" clip-path="url(#ai-a)"/><path stroke="#fff" stroke-width="75" d="M160 0v280M0 120h373"/><path stroke="#c8102e" stroke-width="50" d="M160 0v280M0 120h373"/><path fill="#012169" d="M0 240h320V0h107v320H0z"/><path fill="#fff" d="M424 192c0 90 10 121 29 142a179 179 0 0 0 35 30 180 180 0 0 0 35-30c20-21 30-52 30-142-15 6-23 10-34 9a78 78 0 0 1-31-9 78 78 0 0 1-30 9c-12 1-20-3-34-9"/><g transform="matrix(1.96 0 0 2.002 -41 63)"><use xlink:href="#ai-b"/><circle cx="281" cy="91" r="1" fill="#fff" fill-rule="evenodd"/></g><g transform="matrix(-.916 -1.77 1.733 -.935 563 829)"><use xlink:href="#ai-b"/><circle cx="281" cy="91" r="1" fill="#fff" fill-rule="evenodd"/></g><g transform="matrix(-1.01 1.716 -1.68 -1.031 925 -103)"><use xlink:href="#ai-b"/><circle cx="281" cy="91" r="1" fill="#fff" fill-rule="evenodd"/></g><path fill="#9cf" d="m440 315 13 19a179 179 0 0 0 35 30 180 180 0 0 0 35-30l13-19z"/><path fill="#fdc301" d="M421 188c0 94 10 127 31 149a187 187 0 0 0 36 31 186 186 0 0 0 37-31c20-22 30-55 30-149-14 7-23 10-35 10-11 0-23-6-32-10-9 4-20 10-31 10-12 0-21-3-36-10m4 5c14 7 22 10 34 10a76 76 0 0 0 29-10q14 7 30 10c11 0 19-3 33-10 0 89-9 120-28 140a176 176 0 0 1-35 30 176 176 0 0 1-34-30c-19-20-29-51-29-140"/></svg>