<svg xmlns="http://www.w3.org/2000/svg" xmlns:xlink="http://www.w3.org/1999/xlink" viewBox="0 0 640 480"><path fill="#74acdf" d="M0 0h640v480H0z"/><path fill="#fff" d="M0 160h640v160H0z"/><g id="ar-c" transform="translate(-64)scale(.96)"><path id="ar-a" fill="#f6b40e" stroke="#85340a" stroke-width="1" d="m397 251 28 62 2 1v-1l-24-64m0 24c-1 9 5 14 4 23-1 8 4 13 5 16v6q2 0 2-7c0-4-4-6-3-16s-4-13-3-22"/><use xlink:href="#ar-a" width="100%" height="100%" transform="rotate(23 400 250)"/><use xlink:href="#ar-a" width="100%" height="100%" transform="rotate(45 400 250)"/><use xlink:href="#ar-a" width="100%" height="100%" transform="rotate(68 400 250)"/><path id="ar-b" fill="#85340a" d="M404 274c1 9 6 13 5 22 2-7-3-12-3-22m-8-23 20 42-16-44"/><use xlink:href="#ar-b" width="100%" height="100%" transform="rotate(23 400 250)"/><use xlink:href="#ar-b" width="100%" height="100%" transform="rotate(45 400 250)"/><use xlink:href="#ar-b" width="100%" height="100%" transform="rotate(68 400 250)"/></g><use xlink:href="#ar-c" width="100%" height="100%" transform="rotate(90 320 240)"/><use xlink:href="#ar-c" width="100%" height="100%" transform="rotate(180 320 240)"/><use xlink:href="#ar-c" width="100%" height="100%" transform="rotate(-90 320 240)"/><circle cx="320" cy="240" r="27" fill="#f6b40e" stroke="#85340a"/><path id="ar-h" fill="#843511" stroke-width="1" d="M329 234q-3 0-4 3 4 3 9 0zm0 1 4 1q-4 4-8 1 2-3 4-2"/><use xlink:href="#ar-d" width="100%" height="100%" transform="matrix(-1 0 0 1 640 0)"/><use xlink:href="#ar-e" width="100%" height="100%" transform="matrix(-1 0 0 1 640 0)"/><use xlink:href="#ar-f" width="100%" height="100%" transform="translate(18)"/><use xlink:href="#ar-g" width="100%" height="100%" transform="matrix(-1 0 0 1 640 0)"/><path fill="#85340a" d="M316 244a2 2 0 1 0 2 3h6v-3l1 1a1 1 0 0 1-2 0l-3 2-2-2-2 1zm2 5-5 3 3-2h8l3 2-5-3-2 1zm-1 3h-3l6 1 6-1z"/><path fill="#85340a" d="M314 252c4 1 2 3 7 3s3-2 7-3c-5 0-3 2-7 2-3 1-2-2-6-2"/><path fill="#85340a" d="M324 259a4 4 0 0 0-8 0 4 4 0 0 1 8 0"/><path id="ar-e" fill="#85340a" stroke-width="1" d="M303 234q9-6 14-1l2 3q1 3-2 8h1q2-5 1-9v-3q-8-6-16 2"/><path id="ar-d" fill="#85340a" stroke-width="1" d="M311 233q4 0 4 2l2 1q1 0 0 0l-2-1zl-6 2q-1-1 6-3"/><use xlink:href="#ar-h" width="100%" height="100%" transform="translate(-18)"/><circle id="ar-f" cx="311" cy="236" r="2" fill="#85340a" stroke-width="1"/><path id="ar-g" fill="#85340a" stroke-width="1" d="M306 238q5 3 9 1 3-2 1-2l-2 1z"/></svg>