<svg xmlns="http://www.w3.org/2000/svg" xml:space="preserve" version="1.0" viewBox="0 0 640 480"><path fill="#006233" d="M0 0v480h640V0Z" class="arab-fil0 arab-str0"/><g fill="#fff" fill-rule="evenodd" stroke="#fff"><path stroke="none" d="M260 249c-10 12-3 21 7 21 6 1 19-8 19-18l-3-2q3 6-5 11c-8 7-26 7-18-12"/><path d="M1277 2882c146 4 192-137 102-258l-8 13c5 56 14 112 15 170-18 20-44 13-49-10 1-32-10-58-23-83l-7 13q15 31 20 70c-42 50-88 60-71-6-33 58 17 98 73 10 13 60 59 22 62 9 5-39 3-103-8-153 41 70 42 121 21 155-24 37-76 55-127 70z" transform="matrix(.36355 0 0 .3308 -130 -671)"/><path d="M1360 2722c-31 2-47-4-30-27 16-23 32-5 36 26 4 28-55 64-75 64-31 0-45-39-17-75-36 104 79 44 86 12zm-22-24c-3 0-6 7-4 8 5 4 14 2 15 0 2-5-5-8-11-8z" transform="matrix(.36355 0 0 .3308 -130 -671)"/><path d="M1191 2771c-30 59-1 83 38 77 22-4 51-20 67-42q1-72-4-141c15-18-2-18-7-37-3 11-9 23-3 32q6 70 6 142-45 34-69 33c-33-1-40-29-28-64z" transform="matrix(.36355 0 0 .3308 -130 -671)"/><path d="M1252 2787c-1-45-1-95-5-126 15-18-1-18-6-38-3 12-10 24-4 32q4 72 5 143c4-2 8-3 10-11z" transform="matrix(.36355 0 0 .3308 -130 -671)"/><path stroke="none" d="m283 250-4-5 2-5 4 6m2 1 10 1c11 0 24-2 23 13a24 22 0 0 1-24 20c-15 0-28-15-5-43l8 1q6 0 13-4 1-14-2-26-1-5 2-11c2 6 8 7 2 12l1 25q-2 7-13 9c-8-1-12-12-21-8 2-10 25-12 27-4-1 8-22 5-28 30-2 8 8 16 17 15 9 0 19-6 20-16 1-8-12-7-17-7q-12 0-16-3m8-18q4-2 8 0l-3 3z"/><path d="M1194 2651a49 49 0 0 1 5 21c-2 10-11 20-20 20q-9 3-17-10 0-3-5-2-14 24-26 23c-19 0-13-16-30-21-7-1-19 6-24 20-23 64-43 0-35-29q4 44 16 44c5 0 9-12 16-25 5-9 17-26 29-26s5 21 28 21q16 0 32-26 3 2 3 5c2 6 12 22 26 8q0-7-4-10z" transform="matrix(.36355 0 0 .3308 -130 -671)"/><path stroke="none" d="M331 189q-7 2-10-2 5-1 6-4-1-4-9-4-10 0-11 6 5-1 7 2-7 3-18 3c-11 0-13-4-16-8l-2-1c-3 0-6 11-10 11q-4-3-4-11c-1 6 2 28 14 4h1q6 9 17 10 9 0 21-7 2 5 9 5 9 0 12-7c0-2 1-7-2-7-4 0-6 8-5 15v-2m-16-9q4-2 7 1l-3 1zm18 5q-1-4 3-6 1 4-3 6m14 3-2-5q1-7 8-7l10 3 10 2v4l-22 9q-6 0-10-7l-1-24 2-3 1 25q1 3 4 3m6 1q-6 1-5-5-2-5 4-5l14 5zm-5 4 1 3z"/><path stroke-linecap="round" stroke-linejoin="round" stroke-width="4" d="m1094 2719 7-8 8 7-7 7zm18-3 7-7 8 7-7 7zm-49-75 7-7 8 7-8 7zm3 22 7-8 8 7-8 7zm128 35 7-5 6 6-7 5zm-86-136 5-4 5 4-5 5zm12-1 5-5 5 5-5 4zm246 54-5 3-4-4 5-3z" transform="matrix(.36355 0 0 .3308 -130 -671)"/><path stroke="none" d="M291 238v3h5l3-3z"/><path d="m1265 2600 4-1v10l-3 1z" transform="matrix(.36355 0 0 .3308 -130 -671)"/></g><path fill="#fff" d="M320 326c52 0 94-38 94-85a82 82 0 0 0-33-64 70 70 0 0 1 19 48c0 41-36 74-80 74s-80-33-80-74q1-28 19-48a82 82 0 0 0-33 64c0 47 42 85 94 85" class="arab-fil2"/><g fill="#fff" stroke="#000" stroke-width="8"><path d="M-54 1623c-88 44-198 32-291-28q-7-4-2 12c10 29 18 52-12 95-13 19 2 22 24 20 112-11 222-36 275-57zm-2 52c-35 14-95 31-162 43-27 4-26 21 22 27 49 5 112-30 150-61z" class="arab-fil2 arab-str2" transform="matrix(.23458 0 0 .21345 320 27)"/><path d="M0 1579c12 0 34-5 56-8 41-7 11 56-56 56v21c68 0 139-74 124-107-21-48-79-7-124-7s-103-41-124 7c-15 33 56 107 124 107v-21c-67 0-97-63-56-56 22 3 44 8 56 8z" class="arab-fil2 arab-str2" transform="matrix(.23458 0 0 .21345 320 27)"/><path d="M54 1623c88 44 198 32 291-28q7-4 2 12c-10 29-18 52 12 95 13 19-2 22-24 20-112-11-222-36-275-57zm2 52c35 14 94 31 162 43 27 4 26 21-22 27-49 5-112-30-150-61z" class="arab-fil2 arab-str2" transform="matrix(.23458 0 0 .21345 320 27)"/><path d="M3 1665c2 17 5 54 28 38 31-21 38-37 38-67 0-19-23-47-69-47s-69 28-69 47c0 30 7 46 38 67 23 16 25-21 28-38 1-6 6-4 6 0z" class="arab-fil2 arab-str2" transform="matrix(.23458 0 0 .21345 320 27)"/></g><g fill="#fff" stroke="#000" stroke-width="8"><path d="M-29 384c-13-74-122-79-139-91-20-13-17 0-10 20 20 52 88 73 119 79 25 4 33 6 30-8z" class="arab-fil2 arab-str2" transform="matrix(.23458 0 0 .21345 320 27)"/><path d="M4 386c11-76-97-112-110-129-15-18-17-7-10 14 13 45 60 98 88 112 23 12 30 17 32 3z" class="arab-fil2 arab-str2" transform="matrix(.23458 0 0 .21345 320 27)"/><path d="M93 430c10-91-78-105-101-134-15-18-16-8-11 13 10 46 54 100 81 117 21 13 30 18 31 4z" class="arab-fil2 arab-str2" transform="matrix(.23458 0 0 .21345 320 27)"/><path d="M66 410c-91-59-155-26-181-29-25-3-33 13 10 37 53 29 127 25 156 14 30-12 21-18 15-22zm137 40c-28-98-93-82-112-94s-21-9-17 13c8 39 75 82 108 95 12 4 27 10 21-14z" class="arab-fil2 arab-str2" transform="matrix(.23458 0 0 .21345 320 27)"/><path d="M190 467c-78-63-139-16-163-23-18-5-10 7-3 12 50 35 112 54 160 32 19-8 20-10 6-21zm169 64c1-62-127-88-154-126-16-23-30-11-22 26 12 48 100 101 148 111 29 6 28-4 28-11z" class="arab-fil2 arab-str2" transform="matrix(.23458 0 0 .21345 320 27)"/><path d="M355 542c-81-73-149-49-174-56-25-6-35 9 4 39 48 36 122 43 153 36s23-14 17-19zm145 107c-23-106-96-128-114-148-17-20-35-14-20 34 18 57 77 107 108 119 30 13 28 3 26-5z" class="arab-fil2 arab-str2" transform="matrix(.23458 0 0 .21345 320 27)"/><path d="M499 663c-59-95-136-92-160-105-23-14-39-2-8 39 36 50 110 78 144 80s28-7 24-14z" class="arab-fil2 arab-str2" transform="matrix(.23458 0 0 .21345 320 27)"/><path d="M575 776c34-108-44-148-52-166q-14-27-23 1c-22 77 49 152 60 167 11 14 13 7 15-2z" class="arab-fil2 arab-str2" transform="matrix(.23458 0 0 .21345 320 27)"/><path d="M559 806c-27-121-98-114-114-131-17-17-19-5-16 17 8 59 79 99 111 119 10 6 22 13 19-5zm68 142c49-114-9-191-27-208-18-16-29-23-23 0 8 35-20 125 23 191 14 22 16 43 27 17z" class="arab-fil2 arab-str2" transform="matrix(.23458 0 0 .21345 320 27)"/><path d="M601 971c11-70-29-134-72-159-25-15-26-11-26 10 2 65 63 119 81 149 17 28 16 7 17 0z" class="arab-fil2 arab-str2" transform="matrix(.23458 0 0 .21345 320 27)"/><path d="M590 1153c-36-132 39-208 62-223 22-16 36-22 26 3-15 37 1 140-56 205-18 22-25 45-32 15z" class="arab-fil2 arab-str2" transform="matrix(.23458 0 0 .21345 320 27)"/><path d="M598 1124c30-115-35-180-55-193-19-13-31-18-22 3 12 32-1 122 49 178 16 19 22 38 28 12z" class="arab-fil2 arab-str2" transform="matrix(.23458 0 0 .21345 320 27)"/><path d="M561 1070c-54 58-55 143-31 193 15 29 17 27 31 6 38-61 15-149 17-188 1-37-11-17-17-11z" class="arab-fil2 arab-str2" transform="matrix(.23458 0 0 .21345 320 27)"/><path d="M650 1162c0 80-49 145-101 165-30 11-30 8-26-16 14-90 83-123 108-152 24-28 19-5 19 3z" class="arab-fil2 arab-str2" transform="matrix(.23458 0 0 .21345 320 27)"/><path d="M464 1400c88-80 41-136 45-188 2-28-9-21-19-11-56 55-59 153-47 191 5 17 13 15 21 8z" class="arab-fil2 arab-str2" transform="matrix(.23458 0 0 .21345 320 27)"/><path d="M582 1348c-29 88-106 142-171 145-38 2-37-1-24-27 49-94 136-105 175-129 36-22 23 2 20 11z" class="arab-fil2 arab-str2" transform="matrix(.23458 0 0 .21345 320 27)"/><path d="M343 1513c114-57 91-152 112-176 15-17-3-15-12-9-67 39-121 101-122 167 0 25 2 28 22 18z" class="arab-fil2 arab-str2" transform="matrix(.23458 0 0 .21345 320 27)"/><path d="M187 1619c144 23 211-86 253-96 22-5 6-14-5-15-96-11-218 34-255 84-15 20-15 24 7 27z" class="arab-fil2 arab-str2" transform="matrix(.23458 0 0 .21345 320 27)"/><path d="M333 1448a279 279 0 0 1-218 179c-38 3-38-1-24-26 65-118 178-138 218-168 34-26 27 6 24 15zM29 384c13-74 122-79 139-91 20-13 17 0 10 20-20 52-88 73-119 79-25 4-33 6-30-8z" class="arab-fil2 arab-str2" transform="matrix(.23458 0 0 .21345 320 27)"/><path d="M-4 386c-11-76 97-112 110-129 15-18 17-7 10 14-13 45-60 98-88 112-23 12-30 17-32 3z" class="arab-fil2 arab-str2" transform="matrix(.23458 0 0 .21345 320 27)"/><path d="M-93 430c-10-91 78-105 101-134 15-18 16-8 11 13-10 46-54 100-81 117-21 13-30 18-31 4z" class="arab-fil2 arab-str2" transform="matrix(.23458 0 0 .21345 320 27)"/><path d="M-66 410c91-59 155-26 181-29 25-3 33 13-10 37-53 29-127 25-156 14-30-12-21-18-15-22zm-137 40c28-98 93-82 112-94s21-9 17 13c-8 39-75 82-108 95-12 4-27 10-21-14z" class="arab-fil2 arab-str2" transform="matrix(.23458 0 0 .21345 320 27)"/><path d="M-190 467c78-63 139-16 163-23 18-5 10 7 3 12-50 35-112 54-160 32-19-8-20-10-6-21zm-169 64c-1-62 127-88 154-126 16-23 30-11 22 26-12 48-100 101-148 111-29 6-28-4-28-11z" class="arab-fil2 arab-str2" transform="matrix(.23458 0 0 .21345 320 27)"/><path d="M-355 542c81-73 149-49 174-56 25-6 35 9-4 39-48 36-122 43-153 36s-23-14-17-19zm-145 107c23-106 96-128 114-148 17-20 35-14 20 34-18 57-77 107-108 119-30 13-28 3-26-5z" class="arab-fil2 arab-str2" transform="matrix(.23458 0 0 .21345 320 27)"/><path d="M-499 663c59-95 136-92 160-105 23-14 39-2 8 39-36 50-110 78-144 80s-28-7-24-14z" class="arab-fil2 arab-str2" transform="matrix(.23458 0 0 .21345 320 27)"/><path d="M-575 776c-34-108 44-148 52-166q15-27 23 1c22 77-49 152-60 167-11 14-13 7-15-2z" class="arab-fil2 arab-str2" transform="matrix(.23458 0 0 .21345 320 27)"/><path d="M-559 806c27-121 98-114 114-131 17-17 19-5 16 17-8 59-79 99-111 119-10 6-22 13-19-5zm-68 142c-49-114 9-191 27-208 18-16 29-23 23 0-8 35 20 125-23 191-14 22-16 43-27 17z" class="arab-fil2 arab-str2" transform="matrix(.23458 0 0 .21345 320 27)"/><path d="M-601 971c-11-70 29-134 72-159 25-15 26-11 26 10-2 65-63 119-81 149-17 28-16 7-17 0z" class="arab-fil2 arab-str2" transform="matrix(.23458 0 0 .21345 320 27)"/><path d="M-590 1153c36-132-39-208-62-223-22-16-36-22-26 3 15 37-1 140 56 205 18 22 24 45 32 15z" class="arab-fil2 arab-str2" transform="matrix(.23458 0 0 .21345 320 27)"/><path d="M-598 1124c-30-115 35-180 55-193 19-13 31-18 22 3-12 32 1 122-49 178-16 19-22 38-28 12z" class="arab-fil2 arab-str2" transform="matrix(.23458 0 0 .21345 320 27)"/><path d="M-561 1070c54 58 55 143 31 193-15 29-17 27-31 6-38-61-15-149-17-188-1-37 11-17 17-11z" class="arab-fil2 arab-str2" transform="matrix(.23458 0 0 .21345 320 27)"/><path d="M-650 1162c0 80 49 145 101 165 30 11 30 8 26-16-14-90-83-123-108-152-24-28-19-5-19 3z" class="arab-fil2 arab-str2" transform="matrix(.23458 0 0 .21345 320 27)"/><path d="M-464 1400c-88-80-41-136-45-188-2-28 9-21 19-11 56 55 59 153 47 191-5 17-13 15-21 8z" class="arab-fil2 arab-str2" transform="matrix(.23458 0 0 .21345 320 27)"/><path d="M-582 1348c29 88 106 142 171 145 38 2 37-1 24-27-49-94-136-105-175-129-36-22-23 2-20 11z" class="arab-fil2 arab-str2" transform="matrix(.23458 0 0 .21345 320 27)"/><path d="M-343 1513c-114-57-91-152-112-176-15-17 3-15 12-9 67 39 121 101 122 167 0 25-2 28-22 18z" class="arab-fil2 arab-str2" transform="matrix(.23458 0 0 .21345 320 27)"/><path d="M-187 1619c-144 23-211-86-253-96-22-5-6-14 5-15 96-11 218 34 255 84 15 20 15 24-7 27z" class="arab-fil2 arab-str2" transform="matrix(.23458 0 0 .21345 320 27)"/><path d="M-333 1448c29 95 137 173 218 179 38 3 38-1 24-26-65-118-178-138-218-168-34-26-27 6-24 15z" class="arab-fil2 arab-str2" transform="matrix(.23458 0 0 .21345 320 27)"/></g><path fill="#006233" d="M360 129c-5-3-21-1-24-3 6 4 19 1 24 3m39 8c-3-6-24-10-27-15 5 10 21 8 27 14m-3 7c-7-7-25-4-31-8 13 10 20 2 31 8m-45-30q9 2 14 10l-15-10zm77 44c-3-7-14-14-15-16 3 8 12 10 15 16m3 11c-10-13-24-12-30-17 4 5 21 8 30 17m21 21c1-14-10-20-11-28 0 10 12 23 12 28m-6 8c-3-13-19-14-21-21 0 7 18 14 21 21m13-7c8 9 2 23 6 34-4-8-2-27-6-35zm-14 40c13 12 8 26 13 32-7-8-6-25-13-32m26 1c-11 11-4 28-10 35 7-6 6-27 10-35m-13 0c-2-12-15-19-16-26-1 7 13 18 16 26m-7 30c2 9-6 28-3 34-5-10 4-29 3-34m17 20c-5 16-16 15-19 24 2-9 16-17 19-24m-34 8c-7 10-1 22-7 30 8-8 4-22 7-30m17 28c-9 14-25 13-32 23 7-13 27-15 32-23m-30-1c-15 9-10 18-21 29 13-11 12-22 21-29m-7 37c-14-1-34 16-46 15 12 2 34-13 46-15m-23-15c-1 13-37 21-41 30 4-12 36-20 41-30M310 98q-9-6-12-10 2 6 10 11zm-8 4c-8-4-16-3-20-8q5 6 17 9zm-22 27c5-3 21-1 24-3-6 4-19 1-24 3m-39 8c3-6 24-10 27-15-5 10-21 8-27 15m3 6c7-7 26-4 31-8-13 11-20 2-31 8m31-20c4-8 17-9 20-15-5 8-15 9-20 15m36-7c13-6 26-1 32-4-8 4-26 2-32 4m-99 41c3-7 14-14 15-16-3 8-12 10-15 16m-3 11c10-13 24-12 30-17-4 5-21 8-30 17m-22 21c0-14 11-20 12-28 0 10-12 23-12 28m6 8c3-13 19-14 21-21 0 7-18 14-21 21m-13-7c-8 9-2 23-6 34 4-8 2-27 6-34m14 40c-13 12-7 26-13 32 7-8 6-25 13-32m-26 1c11 11 4 28 10 35-7-6-6-27-10-35m13 0c2-12 15-19 16-26 1 7-13 18-16 26m7 30c-2 9 6 28 3 34 5-10-4-29-3-34m-17 20c6 16 16 15 19 24-2-9-16-17-19-24m34 8c7 10 1 22 7 30-8-8-4-22-7-30m-17 28c9 14 26 13 32 23-6-13-27-15-32-23m30-1c15 9 10 18 21 29-13-11-12-22-21-29m7 37c14-1 34 16 46 15-12 2-34-13-46-15m23-15c1 13 37 21 41 30-4-12-36-20-41-30m53-222c3-11 17-14 19-20-1 7-18 15-19 20m42-29c-2 9-18 14-20 21 1-9 17-14 20-21m-12 21c7-10 22-8 27-14-4 7-22 8-27 14" class="arab-fil0"/><path fill="none" stroke="#f7c608" stroke-linecap="round" stroke-linejoin="round" stroke-width="2" d="M430 240c0 56-49 100-110 100s-111-45-111-100 50-100 110-100c62 0 111 45 111 100"/><path fill="#f7c608" d="m298 341-3 1-8-2 3-8 8 2 1 2v1m-19-5v-1l2-1 8 2-2 8-8-2-1-3"/><path fill="#006233" d="M296 340h-2l-6-1 2-6 6 2 1 1v1m-16-4v-1l2-1 7 2-2 6-7-2v-2"/><path fill="#f7c608" d="m268 331-1 1-2 1-7-4 4-7 8 4v2l-1 1m-16-10v-1l3-1 6 5-4 7-7-5v-3"/><path fill="#006233" d="M267 330h-1l-2 1-6-3 4-5 6 3v2m-14-8h2l6 4-4 5-5-4-1-2"/><path fill="#f7c608" d="M242 314h-1l-3 1-5-6 6-5 6 5v2l-1 1m-13-14h3l5 6-6 5-5-6q-1-2 1-3"/><path fill="#006233" d="m241 312-1 1h-2l-4-5 4-4 5 5v2h-1m-10-11h2l4 5-4 4-5-5 1-2"/><path fill="#f7c608" d="M222 291h-4l-3-7 8-4 4 7-1 2h-1m-8-16h2l3 7-8 4-3-7q0-2 2-3"/><path fill="#006233" d="M222 289h-3l-3-6 6-2 3 5-1 2m-7-13h1l3 6-6 2-3-5 2-2"/><path fill="#f7c608" d="M211 264h-2l-2-2-1-7 8-1 2 7-1 2h-2m-2-18 2 2v7l-8 1-1-7 2-2"/><path fill="#006233" d="M211 262h-1l-2-1-1-6 6-1 2 6-1 2h-1m-3-15h1l2 1v6l-6 1-1-6 2-2"/><path fill="#f7c608" d="m208 235-2-1-1-1 1-8 8 1v8l-2 1h-1m2-18h2l1 2-2 7-8-1 1-7 3-1"/><path fill="#006233" d="m208 233-1-1 1-7 6 1v6q0 2-2 1h-1m3-14 1 1-2 6-6-1 1-6 2-1"/><path fill="#f7c608" d="m214 206-1-1q-2 0-1-2l3-6 8 3-3 7-2 1-1-1m8-16h1l1 2-4 7-8-4 4-6 3-1"/><path fill="#006233" d="m215 205-1-1-1-1 3-6 6 2-3 6-1 1h-1m7-14 1 2-3 5-6-2 3-6h2"/><path fill="#f7c608" d="m229 180-1-1-1-2 6-6 6 6-5 6h-2l-1-1m13-14 1 1v2l-6 6-6-6 5-5h3"/><path fill="#006233" d="M230 179v-2l5-5 4 4-4 5h-2m10-12 1 1v1l-5 5-4-4 4-5 3 1"/><path fill="#f7c608" d="m251 159 1-2 7-4 4 6-6 5h-3v-1m16-10v2l-8 3-4-6 7-4 2 1"/><path fill="#006233" d="m253 159-1-1v-2l6-3 4 5-6 3h-2v-1m13-8 1 1v1l-6 4-4-5 6-4 2 1"/><path fill="#f7c608" d="M279 145v-1q-1-2 1-2l7-3 3 8-8 3-2-1v-1m19-6v1l-1 2-8 2-3-8 8-2 3 2"/><path fill="#006233" d="m281 145-1-1 1-2 7-2 2 6-7 2-1-1h-1m16-5v1l-1 1-6 2-2-6 6-1 2 1"/><path fill="#f7c608" d="M310 138v-1l2-2h8v8h-8q-2 1-2-1v-1m20 0v1l-2 2-8-1v-8h8l2 3"/><path fill="#006233" d="M312 139v-1l1-2h7v6h-7l-1-1v-1m16 0v1l-1 1h-7v-6h7l1 2"/><path fill="#f7c608" d="M340 140v-2l2-1 8 2-2 8-8-2-1-2v-1m19 5v1q0 2-2 1l-8-2 2-8 8 2 1 3"/><path fill="#006233" d="M342 140h1l7 1-2 6-6-2-1-1v-1m16 4-1 1-1 1-7-2 2-6 7 2v2"/><path fill="#f7c608" d="m370 149 2-1 7 4-4 7-8-3v-3l1-1m16 10h-3l-6-4 4-7 7 4v3"/><path fill="#006233" d="M372 150h2l6 3-4 5-6-3v-2m14 8-2 1-6-4 4-5 5 4v2"/><path fill="#f7c608" d="m396 166 1-1h3l5 6-6 5-6-5v-2l1-1m13 13-1 1h-2l-5-6 7-5 5 5-1 3"/><path fill="#006233" d="M397 167h2l4 4-4 4-5-4v-2h1m11 11h-3l-4-5 4-4 5 5-1 2"/><path fill="#f7c608" d="m416 189 1-1 3 1 4 7-9 3-4-7 1-1 1-1m9 16-1 1-3-1-3-7 8-3 4 6-2 3"/><path fill="#006233" d="m417 190 1 1 3 5-5 3-4-6 1-2h1m7 14h-1l-2-1-2-5 5-3 3 6-1 2"/><path fill="#f7c608" d="M428 216h1l2 1 2 7-9 2-2-8 2-1 1-1m3 18h-1l-2-1-1-7 9-2 1 8-2 1"/><path fill="#006233" d="M428 217h1l2 1 1 6-7 1-1-6 1-1h1m2 14-2-1-1-7 7-1 1 7-2 1"/><path fill="#f7c608" d="M431 245h2l1 2-1 7-8-1v-7l2-2 1 1m-2 17h-2l-1-2 2-7 8 1-1 8-3 1"/><path fill="#006233" d="m431 246 1 2-1 6-6-1v-6l2-1h1m-2 15h-1q-2 0-1-2l1-6 6 1-1 6-2 1"/><path fill="#f7c608" d="M425 274h1q2 0 1 2l-3 7-8-3 3-7 2-1h1m-7 17-2-1-1-2 4-6 8 3-3 7h-3"/><path fill="#006233" d="M424 275h1l1 2-3 6-6-3 3-6h2m-6 14-1-1-1-1 3-6 6 2-3 6h-2"/><path fill="#f7c608" d="m411 299 1 1v2l-5 6-7-5 5-6h2l1 1m-12 13h-1l-1-3 6-5 7 5-6 6-3-1"/><path fill="#006233" d="m409 300 1 1v2l-4 4-5-3 4-5h3m-11 12-1-1v-2l5-4 5 4-5 4h-2"/><path fill="#f7c608" d="M389 321v2l-7 4-5-7 7-4h2l1 1m-17 10v-2l7-4 5 7-7 4-3-1"/><path fill="#006233" d="M387 321v2l-6 3-3-5 5-3h2l1 1m-14 8-1-1 1-2 6-3 3 5-5 3h-3"/><path fill="#f7c608" d="M361 335v1l-1 2-8 3-2-8 7-3 2 1 1 1m-19 6v-1q-1-2 1-2l8-2 2 8-8 2-2-2"/><path fill="#006233" d="M359 335v1q1 1-1 2l-6 2-2-6 7-2 1 1m-15 5-1-1 1-1 7-2 2 6-7 1-2-1"/><path fill="#f7c608" d="M330 342v1l-2 2h-8v-8h8l2 1v1m-20 1v-2l2-1h8v8h-8l-2-2"/><path fill="#006233" d="m328 342-1 1h-7v-6h7l1 1v1m-16 0 1-1h7v6h-7l-1-2"/></svg>