<svg xmlns="http://www.w3.org/2000/svg" viewBox="0 0 640 480"><path fill="#006" d="M0 0h640v480H0Z"/><path fill="#bd1021" d="M-1 240 639 0v480Z"/><path fill="#fff" d="M60 240 640 26v428"/><path d="M474 270c5 1 5 6 5 6h18q3-8 9-2l9 4c2-9 14-7 14-7 6-13 6-13 3-15l-4-4q-5-6-5-13c-1-3-5 2-5 1h-10v2l-4-1-1 1h-6l-11 2q-4 1-13 9l-7 4c-1 5-13 11-13 11q-4 4-10 0c-3-2 0-7 0-7 1-1 2-1 2-8q1-7 10-14l15-18 2 4 4-7 1 1 3-4q-2-1-11 4c-9 5-9 3-9 3l-4-4c-2-10 8-18 8-18-14-3-4-21 13-28 16-7 16-10 16-10l2 3s1-2 11-6l14-8 1 4c26-9 52-31 52-31l1 5c4-4 19-13 19-13a9 9 0 0 1-4 8l1 2 14-9c4 3 0 9 0 9l3-1c1 6-6 12-6 12l3-1c-1 7-14 14-14 14q2 3-2 5-3 2-3 4c1 1 7-3 7-3 1 3-7 9-7 9 5 0 20-6 20-6q-2 8-14 12l-6 3c1 1 11-2 11-2-3 7-13 11-13 11q4 2 10-3l14-6q8-2 9-1l9 1c8 0 9 4 9 4l4 2q2 4 2 9l-1 3-1 3c0 1-2 7-15 7h-23c-6 3-3-2-9 4q-11 6-11 4l-12 11q-5 3 0 4h9q-3 3-1 3l7-1c2 3-4 10-4 10h6q-2 4-7 6-3 1-2 3l1 3c-5-3-5 0-5 0l-1 9q-4 0-3 1-3 7-5 8-2-4-3-3l-6 7 1 8h-4v1l34 1q1-1 2 4-1 4-3 4l-36-1-2 2c-2 1-1-1-2 3 0 5-7 0-7 0l-4 4q-3-8-6-2c-3 4 4 3 4 3l45-6q4-2 7 3c1 3-6 4-6 4l-44 4q-3 4-4 3-1 3-4 5h-5c-5 4-8 1-8 1h-8q-4-4-3-5l-28 3-2 1q0 4-2 5 2 0 3 5c0 4-5 4-2 7q3 3 11-2c8-5 10-2 12-2l11 3q6 1 5-2l2-2 1 3 3-2-2 3c-3 2 2 1 2 1l15-1 14 5v-4l5 2v-3c10 5-2 8-5 9l-3 2 6-1 7-1 8 1q-7 1-6 2c3 1 0 3 0 3-4-5-7 0-7 0l6 2 6 2 5 2q3 3 2 4l-4-3q-1 4-3 3c4-4-4-6-8-6q-5 1-6 3c7 7 12 4 12 4 0 3-6 2-6 2l2 3-9-4q-9-3-10-2c5 5-2 9-2 9-2 1 1 3 1 3q-4 0-3-2l-5 1c1-3 5-1 5-5q1-6-16-4-18 0-16-2l-2 1q3 2 3 4l1 2q-4-2-3-3l-1 2v3q-3-1-1-5c1-1-3-4-3-4h-5a15 15 0 0 1-14-3l-3-1c-8 4-16-5-16-5q-10 1-12-5l-5-5q-5-3-3-9l2-2c-4-6 6-8 6-9q0-3 4-4l4-1h4c1 0 6-4 10-2q7 2 8 1l28-4q0-5 9-7 13-4 12-6l-4-2-3-2-11 6c-8 5-8-5-8-5h-18q-1 5-3 5l-6 1c-4-2-4-8-4-8-20 0-30 7-30 7-22-11-39-14-39-14a122 122 0 0 0 40-10 63 63 0 0 0 29 9c0-6 4-7 4-7z"/><path fill="#ffc221" d="M442 315q-6 5-4 6 3 2-1 3l-1 2q1 8 6 8l3 5q5 5 8 4 3 0 1-1l-3-3 6 4c5 6 11 5 13 5l2-1-2-1c-9-1-11-6-11-6a24 24 0 0 0 15 6q3 0 2 1l-3-1v1l2 1 4 2c4 3 12 1 12 1q-7-3-6-4c-8 1-11-4-11-4l-5-3-5-6q1 3 6 5l4 1h-4l5 2c8 1 4-2 4-2q8 0 7-1 4 3 6 2c-6 3-1 2-1 2h7l4 2h3q4 3 10 2l4 1q-1-1-5 1h-14l-8-2 4 4 1 1 3-2 5 3v-1q4 3 5 2l1-2 2 1h3l-1-2c3-2 11-1 11-1q6 3 4 4l3 2v-2l3 4c3-3-3-7-3-7h8l6 3 6 3-3-2v-1h3l-8-6 4-1-6-1h14c-3-4-11-3-14-3h-4l3-1q4 1 7-2l6-1q-2-2-8 0l-7 2q8-2 7-3l-6 1-4-1 6-3-5-2q-5 6-12 2l-9-3a14 14 0 0 1 14 1q6 2 5 0l-1-1c10 5 14 2 16 0 2-1-1-3-1-3q-1 5-7 3l-10-4q-8-2-15 0h-10q-6 0-13-3-7-1-15 3t-10 1q-3-2-1-4t2-5q-1-5-3-5 3-3 2-4t2-1l1-2h-2l-5-1c-5-3-10 2-10 2q-3-2-4 0l-3 1-4 2v4l-2 4v3-4l-2 3 1-4 3-4q-2-1-3 1"/><path d="M448 338s-2-2-2-5v-4 2l-1 2-2-3v-3l-2-1q-3 1 2 5l2 4zm13-8 2-4v-6l1-1c2-2-1-4 2-6l2-3-5 3c-2 1-9 4-8 7l2 4s-5-3-3-7l2-3c2-2 1 0 5-2l4-4-3 2-5 2c-2 2-6 5-4 8q-2 1-5-4s-8 9 8 13z"/><path fill="#ffc221" d="m532 299 43-6q5-2 6 2c1 3-5 3-5 3l-41 4h-2z"/><path fill="#5a3719" d="M447 318s-4 9 13 11l1-2q2-3 1-7l1-3 1-4s-5 2-7 5c-2 2 3 4 0 7l-4-4q-1 1-6-3"/><path d="M465 329s4 4 9 4q7 0 9-4l1 3s4-4 12-1l7 3-11 3c-8 3-28 2-28-8z"/><path fill="#5a3719" d="m457 313 4-2zm-14 17s-4-3-2-3q1-1 2 3"/><path d="M521 348s2-4 8-4 6 3 13 3c0 0-9 3-14 1z"/><path fill="#5a3719" d="M466 332s9 5 16-1l1 2s6-5 16 1l-6 1c-6 3-22 5-27-3"/><path d="M498 337h15c4 0 9-1 6 1h9c9-1 0 2 6 3 0 0-16 8-36-4"/><path fill="#5a3719" d="M519 332s5-2 9 0l7 3q0 2-7 0zm5 14s5-2 10 0l3 1q-1 2-7 0zm-22-8h16s-7 3 9 1c0 0 4 0 3 1l1 1s-12 5-29-3"/><path d="m451 329 2 2 4 4 4 3s-8 1-12-3c0 0-3-3 2-6"/><path fill="#5a3719" d="m514 348-8-2c-4-2-5 0-8-2q-5-2-8-1t0-2l-4-1-5 1s2 3-6 2a10 10 0 0 0 11 3q-1 1 3 3l6 3-4-5h6q8 3 17 1m2 3s0 2 3 2h10s1-3-7-3zm-65-21s-3 3-1 5q5 3 8 2l-2-2-3-3zm-3-12s-5 9 13 11v-2q2-3 1-7l2-3q-1-2 1-4s-6 2-8 5c-2 2 3 4 0 7l-4-4q-1 1-6-3z"/><path d="m493 339 13 3q14 4 15 3 0 2-14-1z"/><path fill="#ffc221" d="m552 337 3 1 3-1q1-2-6 0m-7-5 3-1-3-2zm-71-24s-1-1 1-1l32-5 2 1q1 2-8 3l-25 3z"/><path fill="#ffc221" d="M502 307s0 4 4 5q6 0 7-3v-5h-3l-3 2 1 2q-1 1-2-1 1-1-2-1zm18-3q3 1-1 7-5 2-6 1v-2q2-3 1-5l1-1z"/><path fill="#ffc221" d="M521 304s2 2 0 6q-1 1 1 1 5-2 6-5l-2-1q-2 0 1-1s2 0-2-3h-1z"/><path fill="#ffc221" d="m525 301 3 3 1 1q3 0 3-3l-3-3q-2-1-4 1zm-16 3s1-2-2-2l3-1 2 2zm6 0 5-1q0-2-6-2zm5-1 3-2-3-1h-3q2 0 3 3m1-4 3 1 3-2q-1-1-6 1"/><path fill="#5a3719" d="M436 291s7-6 11-6h6l11-1s-5-4-15-4l-11 6s-9-5-18-2c0 0 10 3 16 7"/><path fill="#ffc221" d="M512 301h1l1 3-1-1zm-9 1h1l3-1h6l3-1 2-1 3-1q4 0 0-2v-1l2 1 2 1 2-5q4-2 1-2h-4c-1 0-7 5-11 6q-6 0-10 6m-101-24 14 4q2-1-4-3s12 0 26 6c0 0 7-6 28-4v-3s-15-1-29-9c0 0-12 6-35 9m65 6c-1-12 3-13 3-13h5s-4 5-3 13q1 1-2 1z"/><path fill="#5a3719" d="m470 292-3-5 3-1 3 1 2 5z"/><path fill="#ffc221" d="m475 286-1-5q1-8 2-5h2s-1-7-3-3l-2 10 1 4z"/><path fill="#5a3719" d="M500 286s4 0-2 2c0 0 0 8 8 3l8-5 1-1q1-1-1-2h-2l-2-1q-2 0-1 2l2 1q3-2 1 0-3 1-5-2zm-22 1h-2s-1 1-2-1v1s2 9 4 0"/><path fill="#ffc221" d="M475 277s-1 5 1 9h21v-9h-3v7-7h-3v7-7h-3v7h-1v-7h-2v7h-1v-7h-3l1 7h-1v-7h-2v7h-1v-7zm23 10s-1-10 1-13q2-4 6 0l8 5q2 0 2 2 1 4-3 0l-2-2c-3-1 0 1 1 2q2 1 0 2z"/><path d="M505 280s-1-2 1-3q3 1 2 5c0 3-2-2-3-2m-3 9s-2 1 0 1c1 1 5-2 4-2zm3-3h2z"/><path fill="#ffc221" d="M516 283s1 4 4 5l2-1-1-2-2-2h2l-2-1h1l1-1-1-1-1-1h2l-1-2h1q2-1 0-1-1-1 1-1l2-1c1-1 4-3 0-2q-7 1-7 3z"/><path fill="#ffc221" d="M527 286h1q0 2-2 3h-2l-2-2 1-1zm-5-1 4-1 1-1h-5zm0-3 1 2h3l2-1q0-2-1-1zm0-2h6q0-2-1-1h-5"/><path fill="#5a3719" d="m582 286 1 2-45-1 1-2z"/><path fill="#ffc221" d="M523 278v1h4l1-1h-2l2-1h1q2-1 0-1t0-1h2l-1-1q-1-1 0 0h2v-1h9l-1-2h2l1-2q1-3-1-6l-3 5q-3 5-6 4c-4-2-6 1-7 1-1 1 2 1 0 1h-1v1q1 0 0 0l-2 1 1 1q1 0 0 0zm4 11 2-1 1-1q-1-1-3 1z"/><path fill="#ffc221" d="M532 276s3-4 6-2l4 3-1 1h1l2 1q1 1-1 1h-4s-2 0-1-1v-2 1l-2 1v1l-1 1q-3 0 0 0c3 0-1 0 2 2q2 3-1 4v1h1q0 3-5 1l1-1h-2l-2-3q2 0 1-1v-1l3 1-2-1-2-2 2-1-1-2h1z"/><path d="m534 277 1-1h1q2 0 0 1z"/><path fill="#ffc221" d="M538 281v2l1 2 43 1 2-4z"/><path fill="#5a3719" d="m583 285 1-3q2 0 2 2 0 4-2 4z"/><path fill="#7b3c20" d="m533 295 3-3s8 5 8 0v-2s3 0 3-2l-7-1-2 1q-2 3-6 2h-2v1zm17-15h-5l-4-5 1-2 2-3v-1c1 1 5 5 6 4l1-3h1l1 4 1 4s-6-2-4 2m-19-9s3 2 5-1q4-3 1-5-1-3 1-5 2 1 2-4 1-5 4-6c1-2 4-3 0-4-5-1-14-3-16-7q-3-3-3-1l1 7q3 9 7 9 4 2 3 6z"/><path fill="#5a3719" d="M543 261s1 8 7 11v-6l3 1q1-1-3-4c-3 0-1-5 0-6v-3q-2-2 1-1 3 0 1-2-3-2 0-2 5-1 3-3-2 0 1-2 4-2 2-2l-2-1q2-1-2-2c-3-1-7 0-4-3 4-3-5 0-1-2s-2-2-2-2l-1-1h-1l-1-1q-1-2-2 0l-4 1q-1-2-4 0-3 1-2-1 2-4-3 0c-5 4 0-3-3-1q-3 3-4 1 0-2-4 0c-3 2 0-1 0-2 0 0 2-5-1-1 0 0-1 2-4-2 0 0-3 4-4 2q-1-3-3 0v-2q0-3-6 1c-5 4 2 1-2 3s-14 7-5 6c9-2-4 3-1 4s2 3 13 0 10 0 15-3c6-2-1 1 7 1 7 0 1 0 3 2q3 3 14 6 8-2 6 1l-4 4q-3 1-4 7c0 4-5 4-3 8z"/><path fill="#5a3719" d="m553 270-1-3 1 1s4-4-1-6c-4-1-1-5 0-5s2 0 0-2q-2-1 2-2 3-1 1-1l-2-2s6-3 4-4q-2-1 2-3l3-2h-4v-2q-1-3-5-2-2 1 0-1t-2-2l2-3h-5l2-3-5 1 2-3s-5 1-7 3l-1-1-5 1 2-3c1-1 1-3-7 2l-2-3-3 3-1-1h-1q-1 2-1-1l-1-4-4 4-3-4q-1-3-2 0l-2 3-1-2-1 1-1-3s-9 4-10 7h-10l2-4q-1 1-2-2h3c1 0-2-3 1-3q4 1 3-2l-1-4 5 2 4-1q4 0 4-2c2 0 3 1 2-6s4 4 0-7l-3-5q1 2-3 0c-3-2-8-2-6-4q5-3 3-5l-7 1c-4-2-4 1-8 0l3-3c3-3-2 0-4 1q-3 1 2-3c4-3 12-9 11-13h7q7-1 10-5l6-5q2-2 1 1-2 5-11 10l-11 6c-1 2-7 5-3 4 4 0 11 0 8-1s-7 1-4-2l8-5c4-2 9-6 8-2 0 5-8 9-10 11q-2 1-1 2l-2 2v2l1 2 1 2 2 1h2q0 2 1 0 1-4-1-2h-3l-1-1q-2 0 1-2l3-2 2-3-4 3q-1 1-1-2 2-3 6-4c2 0 6 1 4 3l-5 6h4v5l-3 2s-2-4-2-1v5l4 1c1 0-4 3-2 3q4 0 6-3l-6-3s5-1 4-5c0 0 5 1 3 3l-2 2 3 2v4q3 0 1-2c-2-1 2-1 1-2l-3-2s20-12 10-7c0 0 2-5 5-5q4 1 1 4-1 4-6 5s5 3-1 8l-1 1 5-3 3-3 11-10q2-4 7-7 6-3 4-4l3-3 12-8 10-7c2-3 8-7 9-6q2 2-3 5l-14 11-11 6-4 3-6 7-5 4q1 2-2 4l-11 8s4 2 1 5l-2 3s6-1 2 4q-1 2 1 0 2-3 1-4l8-3q6 0 0-1 1-2 5-2 3 3-1 4l-8 3s5 1 7-1l3-1v3l-1 2q0 2-3 2l-3 3q2 3-1 3l-2-2q-1-2-5 0-5 2-4-1-1 2-4 0-2-3 1-4c1-1 5-3 2-2q-4 1-7-2 0-2 2-2 2 2 3 0l2-2q-2-1-3 1 0-2-6-2c-3 1 1 1 2 1q2 0-2 4-4 3 0 2c3 0 8 0 5 3q-4 4-6 3-2 0 1-2t-1 0l-3-2v-5q-2 0-1-1l-2-3v3q-1 2 1 2t0 2v1q2 1 1 3-2 2 0 1l2 2q-1 2 3 0t6 1q0 3 2 1c3-2 4 1 5 0q3-4 5-1 3 3-1 5-1 2 3 0 6-3 9 0h6q2-2 6 1l8 2-8 2-6 1 2 4h4l1 3q3 1 2 2c-1 2 2 1 0 3q-3 3-2 5l-1 2-1 4c-1 2-5 1-5 7l4-5 3-4q-1-2 1-3l1-3 1-3c2-1-1-1 0-3 2-2-3-4-2-5 2-1 5-2-5-2 0 0 3-4 10-3l-2 3 2 1-2 2 5 4-4 2 2 3q-1-1-3 1l-2 2v7h-2l-1 4c-2 0 1 1-1 1q-2-1-4 4l4-2 3-4q3-3 2-5l1-5q1-3 6-3l-3-3 4-2-6-4 4-4h-2l3-3 1 3q2-2 8-2s1 3-5 10h6q1 1-6 5c-5 2 1 4-5 3-5 0-3 2-3 4v6s-4-1-4 3q-1 6-2 5l-3-2q0 2-7 8"/><path fill="#7b3c20" d="m547 221 4 1q5 0 2-3l3 1h4q2-1 0-2h2l1 2s0 3 2 0l4-6 1 2q1 2 3-1l1-4q1 2 4 0l4-2 9-5c2-3 2-1 4-2s8-4 9-6q0-3-1-2l-1-1-3 1c-1 1 2 1 0 2l-4 1-5 3q2 1-1 2-2 2-4 0l-4 5-1-1-3 3-3-2-4 4-2-2q2 2-4 6l-2-2-7 4v-1q3-2-1-3h-4l-2 1q-3 0-4 2 2 3-1 4z"/><path fill="#5a3719" d="M558 215s0-2-2-3c0 0 13-2 3-7 0 0 12-3 9-6q-4-4-6-3 1-2 4-2s10 4 8 0l-3-3 8 4 1-3 4 2v-2l4 4 2-3 4 2v-3s5 2 6-1c0 0 5 1 1 3l-4 2q-4 4-7 4-1 2-4 2-1-2-3 0l-2 4-2-1-2 2-3-2-3 4-3-2q1 1-3 6l-3-2z"/><path fill="#5a3719" d="M551 210s-2 1-1 2h2c2-1 18-3 3-8h3c3-1 12-3 8-6-5-4-8 1-5-3 4-3 1-5 1-5l-10 7q-5 2-2 4c4 1 6-4 6-3s-6 5-5 7q0 3 2 3h3z"/><path d="M556 201s-1 1 1 1 6-1 5-2q-1-1-6 1"/><path fill="#7b3c20" d="M582 185s8-1 11 1l5 4s0 3-5 1v3l-4-2-1 2-4-3-1 1-5-1v2s-5-4-10-4l4 5s-10 0-8-6c1-5 0-4 6-4z"/><path fill="#5a3719" d="M536 199v2q3 0 6-3 2 0 0 1l-5 5 10-5c5-4 0-2 7-5q12-8 8-9l-11 7q-4 3-4 1l7-4q4-3 3-4c0-1-1-4 5-8 6-3 25-14 27-18q-1-1-13 6l-14 9-3 2-10 10q-2 1-2 3z"/><path fill="#5a3719" d="M562 184h-3q-2-1 3-5l12-5s0 4-10 7q1 1-2 3"/><path fill="#aa5323" d="M565 182v2s18 1 27-10c1 0-12 2-17 5q-1-1 12-8c14-7 14-7 15-9 0 0-12 4-18 4l-2 1-11 7 6-2s-3 8-12 10"/><path fill="#5a3719" d="m531 192-1 2q1 2 6-1c3-3 12-11 7-11 0 0-7 0-7 4s-5 6-5 6m-16-2s5 2 3 4c0 0 14-11 10-14s-7 2-6 3h2zm-3-4 3 2c0 1 9-6 7-10q-4-2-7 1c0 3 5 0 3 2zm32-7s-2 2 0 3l4-2 6-6 4-3c2-1 13-7 20-13 6-6 4-5 11-8s11-8 13-12l-6 3-11 6-4 2-4 5-24 17z"/><path fill="#aa5323" d="M530 183h6c3 0 17-14 22-17l18-14 4-4 6-3c4-2 21-12 20-18l-31 20-25 18-10 8z"/><path fill="#aa5323" d="M525 178s4 0 5 2c0 0 10-7 12-10 2-2-1-1 5-5l27-19 12-8c4-3 20-10 18-17l-14 10q-4 0-7 3l-9 7-15 11-18 13z"/><path fill="#aa5323" d="m510 177 3 1c1 0 5-4 9 0 0 0 17-12 19-15l11-7 15-10 11-10c3-2 11-7 10-11 0 0-7 3-11 8-4 4-4 0-8 4l-16 12c-6 3-2 2-6 5l-5 2-5 3-10 7z"/><path fill="#aa5323" d="M516 168v-3q4-3 5-7c1-3 0-2 5-4a188 188 0 0 0 38-22l9-6q1 1-2 4l-21 15-10 6c-2 1-1 2-10 6l-9 5 6-2 11-6 7-5 18-12 6-3v2l-9 8-10 5-3 4-7 3q-4 2-6 5l-19 10z"/><path fill="#aa5323" d="M570 132v2q1 2 5-1l13-10q4-2 4-5s-12 6-22 14m16-1 6-5 11-8q2 0-1 4l-11 7q-1 2-5 2"/><path fill="#7b3c20" d="M499 163s-5 3-3 4q3 2 5 1l3-1 6-3 6-6q3-2 3-5zm-28 22s3-2 8-1l-1-1 7-4 2-3c1-1 9-7 8-8l-2-4q2 0-9 6c-7 4-15 6-21 14q-9 12 2 15 0-2 17-2c13 1 17 6 18 6q3 2 1 9 1 2 2-1l1-1q2 0 1-2l-2-7q-1-1 1-1 3 3 2-1c-2-4-2-2-2-2l-4-1-9-5q-2 0 1-1l3-2-3-1a13 13 0 0 0-12 2s1-4-2-4q-6-1-10 3-2-1 3-7c4-2 3-1 5-1q3-2 2-4s4 1 12-6c0 0-4 6-9 7q1 1-6 4-6 2-4 4"/><path fill="#5a3719" d="M457 213s2-14 16-15q15-1 17 1c2 2 8 2 6 4l-4 2s3-3 0-4q-3 0-2 2l-2 4h-3c-3 1 0 1 1 1h1q0 2-4 4c-3 2-2 2-6 2q-4 1-10 6-7 4-10-2z"/><path d="M472 212s1-3-1-4c0 0-7 1-9-1 0 0 8 0 12-2 5-2 3-3 2-3q-4-1-5 2v-3l5-1q2 2 8-1 3 0 4 2l-1 4-1 1q-2-2-2 1l-3 4s1-5-3-6l-5 2s3 3-1 5"/><path fill="#5a3719" d="M479 204s-1-2 1-2q3 0 4 3-2 2-5-1"/><path fill="#fff" d="M593 182s-4 1-1 3l8 5q4 0 5 4c1 4-1 3-2 5q-1 3 3 1l4-2q3 0 2 1l-2 1 19-1q6 0 7-5l2-2v-1l-3 1v-1l3-1 1-2q-2-1-1-2 1-2-2-2l-10 5-7 2-8 3c-4 2-3-1-3-1q0 2 5-1c3-3 2 0 10-3 9-2 7-3 10-4q6-2 4-4-3-5-5 0a35 35 0 0 1-16 6s18-8 16-9l-5-3-5 1-4 2-7 2-8 4q-1-1 9-5l11-5h-4c-2 0-1-1-6 1l-6 2-7 3 3-2c1-1-1-1 2-1h1l9-3q-2-2-10 1l-4 2-6 3z"/><path fill="#5a3719" d="m483 202 2 2 1-1q0-2-2-2z"/><path fill="#7b3c20" d="m478 226 7-1s-2-5 1-4h2l-1-4 5 1v-7l4 3v-2h3c2 1 3-7-1-9l-5 2q-5 1-5 5c0 4-3 2-6 5l-5 6z"/><path fill="#999" d="M603 178c1 0-1-1 2-1h1l9-3q-2-2-10 1l-4 2-6 3-2 2s-4 1-1 3l8 5q4 0 5 4l-2 5q-1 3 3 1l4-2q3 0 1 1-3 1-1 1l19-1q6 0 7-5l2-2v-1l-3 1v-1l3-1 1-2-1-1h-2l-7 2-7 3q-6 4-9 1l-2 1q-4 2-3-1h-2q0-2 4-2 5-1 3-3l-4 2q-2 2-5-1 1-4-4-4-5-1-3-4z"/><path d="m616 197 11-4h1zm1 1s7-2 8-1q2 1-1 1zq-1 0 0 0m11-2h2z"/><path fill="#fff" d="M446 256s0-6 3-9 18-19 20-23l2 4s2-5 4-6l2 5 9-2-2 4h12s-11 6-8 6h6s-3 4-9 4c0 0 7 0 8 2l-12 5v-2q1 1-2 3l-6 5q-3 3-7 4 1-1-1-3l-6 2h-10l3-2c2 0 8 1 8-3 1-4-3-3-2-6l2-2q-1-1-3 3l-4 6-5 5z"/><path fill="#fff" d="m453 252 2-1q3 0 2-2l1-3 1 1c0 1 3 6-6 5"/><path fill="#999" d="M448 248c0 4 5 2 5 2l-4 4c1-2-3-2-3-2zm19-22 2-2s2 1 2 4c0 0 2-5 4-6l2 5 9-2-2 4h11s-10 6-7 6h6s-3 4-9 4c0 0 7 0 8 2l-4 1-8-1 8-4q0-2-4 0s-5-3-1-6l-4 1 2-4s-6-1-7 3v-3l-5 4zm-10 26h-4l1-1z"/><path d="m467 237 3 3 3-3 2 3 2-2 4 1v-4h3s-1-2 5-4l-6 3-3-1v5l-3-1-1 1-3-3-3 3z"/><path fill="#ffc221" d="m453 267 3-1c2-2 9-6 9-9q0-5-4-3-2 2-1 4 1 1-3 6z"/><path fill="#ffc221" d="M452 268s-5-2-1-4 7-3 7-5q2-3-1-1c-2 1-8 4-9 1h6q6-2 4-3h-11l-2 2-2 5q-2 2 1 5z"/><path d="m450 257-1 1h2z"/><path fill="#fff" d="M452 267s-3-1 0-2l6-4z"/></svg>