<svg xmlns="http://www.w3.org/2000/svg" viewBox="0 0 640 480"><defs><clipPath id="aw-a"><path d="M0 0h288v216H0z"/></clipPath></defs><g clip-path="url(#aw-a)" transform="scale(2.2222)"><path fill="#39c" d="M0 0v216h324V0z"/><path fill="#ff0" d="M0 144v12h324v-12zm0 24v12h324v-12z"/></g><path fill="#9cc" d="m143 28 3 3zm-3 6 3 3zm6 0 3 3z"/><path fill="#ccf" d="m140 37 3 3zm6 0 3 3z"/><path fill="#6cc" d="m137 43 3 3z"/><path fill="#c66" d="m143 43 3 3z"/><path fill="#6cc" d="m149 43 2 3z"/><path fill="#ccf" d="m137 46 3 3zm12 0 2 3z"/><path fill="#fcc" d="m140 49 3 3zm6 0 3 3z"/><path fill="#6cc" d="m134 52 3 3z"/><path fill="#c00" stroke="#fff" stroke-width="4" d="m142 34-21 79-78 21 78 21 21 78 21-78 79-21-79-21z"/><path fill="#6cc" d="m152 52 3 3z"/><path fill="#9cf" d="m134 55 3 3zm18 0 3 3z"/><path fill="#fcc" d="m137 58 3 3zm12 0 2 3z"/><path fill="#69c" d="m131 61 3 3z"/><path fill="#c33" d="m138 63 1 2zm11 0 2 2z"/><path fill="#69c" d="m155 61 3 3z"/><path fill="#9cf" d="m131 64 3 3zm24 0 3 3z"/><path fill="#fcc" d="m134 66 3 3zm18 0 3 3z"/><path fill="#69c" d="m128 69 3 3zm29 0 3 3z"/><path fill="#9cc" d="m128 72 3 3zm29 0 3 3z"/><path fill="#cff" d="m128 75 3 3zm29 0 3 3z"/><path fill="#69c" d="m125 78 3 3z"/><path fill="#fcc" d="m131 78 3 3zm24 0 3 3z"/><path fill="#69c" d="m160 78 3 3z"/><path fill="#9cc" d="m125 81 3 3z"/><path fill="#c33" d="m132 83 1 2zm23 0 1 2z"/><path fill="#9cc" d="m160 81 3 3z"/><path fill="#cff" d="m125 84 3 3zm36 0 3 3z"/><path fill="#fcc" d="m128 87 3 3zm29 0 3 3z"/><path fill="#9cc" d="m122 90 3 3z"/><path fill="#c33" d="m129 92 1 2zm29 0 1 2z"/><path fill="#9cc" d="m163 90 3 3z"/><path fill="#ccf" d="m122 93 3 3zm41 0 3 3z"/><path fill="#fcc" d="m125 96 3 3zm36 0 3 3z"/><path fill="#9cc" d="m119 99 3 3z"/><path fill="#c33" d="m126 101 1 2zm35 0 1 2z"/><path fill="#9cc" d="m166 99 3 3z"/><path fill="#ccf" d="m119 102 3 3zm47 0 3 3z"/><path fill="#fcc" d="m122 105 3 3zm41 0 3 3z"/><path fill="#9cc" d="m116 108 3 3z"/><path fill="#c33" d="m122 108 3 3zm41 0 3 3z"/><path fill="#9cc" d="m169 108 3 3zm-62 3 3 3z"/><path fill="#ccf" d="m110 111 3 3zm65 0 3 3z"/><path fill="#9cc" d="m178 111 3 3zm-80 3 3 3z"/><path fill="#ccf" d="m101 114 3 3z"/><path fill="#fcc" d="m113 114 3 3z"/><path fill="#c33" d="m116 114 3 3zm53 0 3 3z"/><path fill="#fcc" d="m172 114 3 3z"/><path fill="#ccf" d="m184 114 3 3z"/><path fill="#9cc" d="m187 114 3 3z"/><path fill="#69c" d="m87 117 3 3z"/><path fill="#9cc" d="m90 117 3 3z"/><path fill="#cff" d="m93 117 3 3z"/><path fill="#fcc" d="m104 117 3 3z"/><path fill="#c33" d="m109 118 2 1zm68 0 2 1z"/><path fill="#fcc" d="m181 117 3 3z"/><path fill="#cff" d="m193 117 3 3z"/><path fill="#9cc" d="m196 117 3 3z"/><path fill="#69c" d="m199 117 3 3zm-121 3 3 3z"/><path fill="#9cc" d="m81 120 3 3z"/><path fill="#cff" d="m84 120 3 3z"/><path fill="#fcc" d="m95 120 3 3z"/><path fill="#c33" d="m100 121 2 1zm86 0 2 1z"/><path fill="#fcc" d="m190 120 3 3z"/><path fill="#cff" d="m202 120 3 3z"/><path fill="#9cc" d="m205 120 3 3z"/><path fill="#69c" d="m208 120 3 3zm-139 3 3 2z"/><path fill="#9cf" d="m72 123 3 3z"/><path fill="#fcc" d="m87 123 3 3z"/><path fill="#c33" d="m92 124 2 1zm103 0 2 1z"/><path fill="#fcc" d="m199 123 3 3z"/><path fill="#9cf" d="m214 123 3 3z"/><path fill="#69c" d="m216 123 3 3z"/><path fill="#6cc" d="m60 126 3 3z"/><path fill="#9cf" d="m63 126 3 3z"/><path fill="#fcc" d="m75 126 3 3zm136 0 3 3z"/><path fill="#9cf" d="m222 126 3 3z"/><path fill="#6cc" d="m225 126 3 3zm-174 3 3 2z"/><path fill="#ccf" d="m54 128 3 3z"/><path fill="#fcc" d="m66 128 3 3z"/><path fill="#c33" d="m71 129 2 1zm145 0 2 1z"/><path fill="#fcc" d="m219 128 3 3z"/><path fill="#ccf" d="m231 128 3 3z"/><path fill="#6cc" d="m234 128 3 3z"/><path fill="#9cc" d="m42 131 3 3z"/><path fill="#ccf" d="m45 131 3 3z"/><path fill="#fcc" d="m57 131 3 3zm171 0 3 3z"/><path fill="#ccf" d="m240 131 3 3z"/><path fill="#9cc" d="m243 131 3 3zm-207 3 3 3z"/><path fill="#c66" d="m51 134 3 3zm183 0 3 3z"/><path fill="#9cc" d="m249 134 3 3zm-207 3 3 3z"/><path fill="#ccf" d="m45 137 3 3z"/><path fill="#fcc" d="m57 137 3 3zm171 0 3 3z"/><path fill="#ccf" d="m240 137 3 3z"/><path fill="#9cc" d="m243 137 3 3z"/><path fill="#6cc" d="m51 140 3 3z"/><path fill="#ccf" d="m54 140 3 3z"/><path fill="#fcc" d="m66 140 3 3z"/><path fill="#c33" d="m71 141 2 1zm145 0 2 1z"/><path fill="#fcc" d="m219 140 3 3z"/><path fill="#ccf" d="m231 140 3 3z"/><path fill="#6cc" d="m234 140 3 3zm-174 3 3 3z"/><path fill="#9cf" d="m63 143 3 3z"/><path fill="#fcc" d="m75 143 3 3zm136 0 3 3z"/><path fill="#9cf" d="m222 143 3 3z"/><path fill="#6cc" d="m225 143 3 3z"/><path fill="#69c" d="m69 146 3 3z"/><path fill="#9cf" d="m72 146 3 3z"/><path fill="#fcc" d="m87 146 3 3z"/><path fill="#c33" d="m92 147 2 1zm103 0 2 1z"/><path fill="#fcc" d="m199 146 3 3z"/><path fill="#9cf" d="m214 146 3 3z"/><path fill="#69c" d="m216 146 3 3zm-138 3 3 3z"/><path fill="#9cc" d="m81 149 3 3z"/><path fill="#cff" d="m84 149 3 3z"/><path fill="#fcc" d="m95 149 3 3z"/><path fill="#c33" d="m100 150 2 1zm86 0 2 1z"/><path fill="#fcc" d="m190 149 3 3z"/><path fill="#cff" d="m202 149 3 3z"/><path fill="#9cc" d="m205 149 3 3z"/><path fill="#69c" d="m208 149 3 3zm-121 3 2 3z"/><path fill="#9cc" d="m90 152 3 3z"/><path fill="#cff" d="m93 152 3 3z"/><path fill="#fcc" d="m104 152 3 3z"/><path fill="#c33" d="m109 153 2 1zm68 0 2 1z"/><path fill="#fcc" d="m181 152 3 3z"/><path fill="#cff" d="m193 152 3 3z"/><path fill="#9cc" d="m196 152 3 3z"/><path fill="#69c" d="m199 152 3 3z"/><path fill="#9cc" d="m98 155 3 3z"/><path fill="#ccf" d="m101 155 3 3z"/><path fill="#fcc" d="m113 155 3 3z"/><path fill="#c33" d="m116 155 3 3zm53 0 3 3z"/><path fill="#fcc" d="m172 155 3 3z"/><path fill="#ccf" d="m184 155 3 3z"/><path fill="#9cc" d="m187 155 3 3zm-80 3 3 3z"/><path fill="#ccf" d="m110 158 3 3zm65 0 3 3z"/><path fill="#9cc" d="m178 158 3 3zm-62 3 3 3z"/><path fill="#c33" d="m122 161 3 3zm41 0 3 3z"/><path fill="#9cc" d="m169 161 3 3z"/><path fill="#fcc" d="m122 164 3 3zm41 0 3 3z"/><path fill="#ccf" d="m119 167 3 3z"/><path fill="#c33" d="m126 169 1 2zm35 0 1 2z"/><path fill="#ccf" d="m166 167 3 3z"/><path fill="#9cc" d="m119 170 3 3zm47 0 3 3z"/><path fill="#fcc" d="m125 173 3 3zm36 0 3 3z"/><path fill="#ccf" d="m122 176 3 3z"/><path fill="#c33" d="m129 178 1 2zm29 0 1 2z"/><path fill="#ccf" d="m163 176 3 3z"/><path fill="#9cc" d="m122 179 3 3zm41 0 3 3z"/><path fill="#fcc" d="m128 182 3 3zm29 0 3 3z"/><path fill="#cff" d="m125 185 3 3z"/><path fill="#c33" d="m132 187 1 2zm23 0 1 2z"/><path fill="#cff" d="m160 185 3 3z"/><path fill="#9cc" d="m125 188 3 3zm36 0 3 3z"/><path fill="#69c" d="m125 190 3 3z"/><path fill="#fcc" d="m131 190 3 3zm24 0 3 3z"/><path fill="#69c" d="m160 190 3 3z"/><path fill="#cff" d="m128 193 3 3zm29 0 3 3z"/><path fill="#9cc" d="m128 196 3 3zm29 0 3 3z"/><path fill="#69c" d="m128 199 3 3zm29 0 3 3z"/><path fill="#fcc" d="m134 202 3 3zm18 0 3 3z"/><path fill="#9cf" d="m131 205 3 3z"/><path fill="#c33" d="m138 207 1 2zm11 0 2 2z"/><path fill="#9cf" d="m155 205 3 3z"/><path fill="#69c" d="m131 208 3 3zm24 0 3 3z"/><path fill="#fcc" d="m137 211 3 3zm12 0 2 3z"/><path fill="#9cf" d="m134 214 3 3zm18 0 3 3z"/><path fill="#6cc" d="m134 217 3 3zm18 0 3 3z"/><path fill="#fcc" d="m140 220 3 3zm6 0 3 3z"/><path fill="#ccf" d="m137 223 3 3zm12 0 2 3z"/><path fill="#6cc" d="m137 226 3 3z"/><path fill="#c66" d="m143 226 3 3z"/><path fill="#6cc" d="m149 226 2 3z"/><path fill="#ccf" d="m140 232 3 3zm6 0 3 3z"/><path fill="#9cc" d="m140 235 3 3zm6 0 3 3zm-3 6 3 3z"/></svg>