<svg xmlns="http://www.w3.org/2000/svg" viewBox="0 0 640 480"><path fill="#cf142b" d="M0 0h640v480H0z"/><path fill="#fff" d="M560 131v161c0 43-86 57-86 57s-87-14-87-57V131z"/><path fill="#2f8f22" d="M560 292c0 43-86 57-86 57s-87-14-87-57l2-5s-1 7 4 12c0 0-4-8 0-15 0 0-1 10 5 15 0 0-3-8 0-16 0 0-2 14 5 17 0 0 2-9-1-14 0 0 5 2 4 14q1 1 2-10s0 10 4 12l-1-6 1-6q-1 2 4 9s-2-8 0-9c0 0 0 7 5 8l-1-4v-4s2 6 4 7v-7s0 5 5 7q-2-1-2-8l29 1 15 1 44-3 8-7s3 4-2 11c0 0 5-1 7-8q2 1-1 8s5-5 6-11c0 0 2 6-3 12q1 1 6-8s2 4-3 9c0 0 9-4 8-13 0 0 4 5 0 12 0 0 4-4 4-9 0 0 3 2 0 9 0 0 5-5 6-10q2 1-3 11 1 1 5-7 1 1-1 7 1 2 4-6v6q1 1 2-7z"/><path fill="#d40000" stroke="#000" stroke-linejoin="round" d="m515 199-7-1h-6q1-1-2-6 1 3-1 5h-2l-2-3q2 0 2-4-1-4-3-4v2s-3-2 1-5q6-3 3-5l-3-4 1 3q-2 2-2 0v-4q2 1 6-3s1-5-4-7v3s-1 3-2 1l-2-4s5 0 3-5c0 0 0 4-7-1 0 0 4-4 3-8h-5s4-3 2-5l-4 1q2-1-3-5l-3 2-4-4-4 4-4-2 1 5-4-2q-2-1-3 2l1 4s-6-2-6 2l3 6s-3 5-6 1q-2 0 1 4v4s-2 2-4-2c0 0-4 5 1 8q1 1 7-1s-1 8-4 6q-2 0 1-3s-5 0-6 4q-1 2 4 5s3 1 0 4c0 0-3 1-1 4 0 0 2 3-3 3h-3l-1 4q0-2-7 0l-5 1-2 3 3 3-1 4 2 1 11-5 11-6 9 1 5 1h7l6-2h7l9 4 9 6 5 1 4-1v-8z"/><path fill="#d40000" stroke="#000" stroke-linejoin="round" d="M428 208s4 2 6-1c0 0 2-4-3-6 0 0 3-3 0-6h-4q0-2-4-3l-3 3q-1-1-5 1s-3 3 2 5l2 1 3-2 4 1s-1 3 2 7z"/><path fill="#64b4d1" stroke="#000" d="M522 200a7 7 0 0 1 7 4c2 6-3 10-3 10v3c8 1 6 9 6 9l-2-2q-8-1-13 9c-3 7-2 9-1 17s13 13 13 13l-10 25c-4 10-12 6-14 3h-4c-1 1 5 6-7 11-11 5-13 8-15 10-2 1-10 0-11-1l-4-3-13-6q-7-5-6-7c0-1 2-6-4-2-7 5-12-2-12-2-2-2-7-16-7-16l-5-12 5-2q7-5 9-12c1-5 0-13-1-14-1-2-4-9-9-11-4-1-7 3-7 3s-1-9 6-10l1-3s-6-4-3-10c0 0 2-4 7-4l-1 3s-2 12 17 4c18-9 18-10 28-5h8s11-5 15-3l16 9s12 5 15-4z"/><path fill="#fff" stroke="#00247d" stroke-miterlimit="10" d="m466 255-1-6q-2-1 1-7l2-4 4-2 3-1s3-4 8 0l5-3q1-1 5 1s3-3 6 2c0 0 4-3 7 2 0 0 4-2 7 2l2 6 2 7 6 8-15 6h-7l-14 3-24 2-7-8z"/><path fill="#d40000" stroke="#000" stroke-linejoin="round" d="m445 296-5 1-6 3h-5s-7-1-7 4c0 0-9 1-5 9 0 0 2 6 7 1 0 1-3 5 3 7 0 0 5 1 6-4l-1-4 4-2s-5 5 0 8c0 0 6 1 7-5q-1-2 2-5s5-1 7-6c0 0-7-4-7-8zm-14-58s-6-2-9 0h-7l-7 5-1 7 1 5-4 2c0 1-3 4-6 1 0 0 1 4 6 4q-2 0 0 7l-1 8s4-2 4-7l1-6 2 7v7s5-2 4-7c0-5-3-3-1-8l2 4a7 7 0 0 1 2 7s3-4 2-7l-1-4 8-5 5-8z"/><path fill="none" stroke="#000" stroke-miterlimit="10" d="M418 260s-4-1-4-3m-6-2 2 1 2 1"/><path d="m423 249-3-1-1 1v2s3 1-1 3c0 1 4-1 3-3l-2-2z"/><path fill="#784421" stroke="#000" d="m478 259 2-1-14-48h-1z"/><path d="M431 312s-3-2-6 1l3-2q0-2 4-3l-3 3z"/><path fill="#64b4d1" stroke="#00247d" stroke-miterlimit="3" d="M420 320s-6-3-3-9l3-1s3 1 0 5zm10 5s-7-3-5-9l2-2q1-1 3 4z"/><path d="m429 304-3 2-3-1h3z"/><path fill="#64b4d1" stroke="#00247d" stroke-miterlimit="3" d="M435 324s6-2 5-8l-3-2s-3 1-1 5z"/><path fill="#f5ce00" stroke="#000" stroke-miterlimit="3" d="m462 197 5 2s6 2 13 0l5-2-4 5v3l2 3s-1 1-5-2c0 0-4-3-10 0l-5 2 4-4-2-3z"/><path fill="#fff" d="M438 317v-1h-1v5l1-1-1-1z"/><path fill="#d40000" stroke="#000" stroke-linejoin="round" d="M518 208s-4 2-6-1c0 0-2-4 3-6 0 0-3-3 0-6h4q0-2 4-3l3 3q1-1 5 1s3 3-1 5l-3 1-3-2-3 1s1 3-3 7z"/><path fill="#f5ce00" stroke="#000" stroke-miterlimit="3" d="m485 204-1 1h-1v-1q-1-1 1-3h7l15 8 8 2s7 0 10-4q2-2 0-6l-3-1-2 1s-1 2 1 3l2-1-1 3s-4 6-15-1l-14-8s-7-3-11 2c0 0-4 5 1 8q1 2 5-1 2-1-1-4-1-1-3 1 0 3 2 1z"/><path fill="#e4cb5e" stroke="#000" stroke-miterlimit="3" d="M428 229v-9l1-2q1-3 4 2l4-4q1-2 3 0l3-3s4-2 4 4l2-2s2-2 4 1l4 4 1 3 1 3 3 1q1-1 3 3l2 11v21l-15 18-23-7-9-4-2-7 9-5 5-13-2-10z"/><path fill="#784421" stroke="#000" d="m492 240 1-1 2-2 5 13v3s6 1 7 10l-5 10-8-5-2-1z"/><path fill="#fff" d="M418 312s-2 2 0 5z"/><path fill="none" stroke="#000" stroke-miterlimit="10" d="m442 311-1-2v-1m6-91v4l3 6"/><path fill="#d40000" stroke="#000" stroke-linejoin="round" d="m501 296 6 1q3 0 5 3h5s7-1 7 4c0 0 9 1 6 9 0 0-3 6-8 1 0 1 3 5-3 7q-2 2-5-4l1-4q-1 1-4-2s5 5 0 8c0 0-7 1-7-5l-2-5s-5-1-7-6c0 0 7-4 6-8z"/><path fill="none" stroke="#000" stroke-miterlimit="10" d="m444 227 6 48m-5-48 7 45m-6-45 8 44"/><path fill="#784421" stroke="#000" d="m459 268 2-1-14-48h-1z"/><path fill="none" stroke="#000" stroke-miterlimit="10" d="m451 225 14 36m-15-35 13 37"/><path fill="#fff" d="M428 322s-2-2-2-5q-1 1 1 5z"/><path fill="none" stroke="#000" stroke-miterlimit="10" d="m452 225 14 32m-18-30 9 43"/><path fill="#f5ce00" stroke="#000" stroke-miterlimit="3" d="M520 259c-6-4-8-11-8-11a25 25 0 0 1 2-15c4-8 11-10 11-10s-7 5-9 11v11l1 8z"/><path fill="#784421" stroke="#000" d="m493 239-27 8-1 12c-7 9-20 11-20 11l11 11 19 4 10-8 9-9-1-11 1-4s-2-10-1-14z"/><path fill="none" stroke="#000" stroke-miterlimit="10" d="m465 256 28-10m-36 20s22-4 37-13l6-3"/><path fill="none" stroke="#000" stroke-miterlimit="10" d="m500 253-6 4s-25 11-44 12m43-4s-18 10-29 10"/><path fill="#d40000" stroke="#000" stroke-linejoin="round" d="M516 238s5-2 8 0h8l6 5 1 7v5l3 2c0 1 4 4 6 1 0 0 0 4-6 4 0 0 3 2 1 7q-2 0 1 8s-5-2-5-7q1-1-1-6 2 0-1 7s-3 3-1 7c0 0-4-2-4-7 1-5 3-3 2-8l-2 4a7 7 0 0 0-3 7s-2-4-2-7l2-4-9-5-4-8z"/><path fill="#fff" stroke="#00247d" stroke-miterlimit="10" d="M421 268s0-3 4-2c0 0 1-6 8-6 6 0 6 6 6 7l6-3s5 0 3 9l1 1s4-10 13-8c0 0 8 3 3 11 0 0 4 6 7 5q6 1 11-8c3-6 11-7 13-6q3 0 4 3s5-15 20-13l6 4 3 1-4 10-8 19-7 2-7-4-2 1v6l-9 7-6 2-7 5-2 4s-3-2-8 0l-1-4-4-3-16-8-2-9-3-1-4 4h-4l-7-4z"/><path fill="none" stroke="#000" stroke-miterlimit="3" d="M488 198s-6 0-6 6"/><path fill="#f5ce00" stroke="#000" stroke-miterlimit="3" d="M527 263c-10-3-13-14-13-14a26 26 0 0 1 1-15c5-11 13-11 13-11l4 3-1 3q-4 2-4 0l-1-3 2-1q2 1 1 2l-1-2q0-2-7 4s-4 6-4 14c0 0-1 15 14 18l-4 12-7 17s-4 9-14 5c0 0-5-2-5-6 0 0 0-4 3-4q2-1 3 2 1 2-3 2l-1-1 1-1q2 1 0 0h-1v2l2 1 3 2 7-1 3-4 5-14 4-9zm-29 28s2 0 2 2q1 1-3 2-2 0-2-4 0-2 3-2 1-1 4 4v6q-4 5-9 6l-11 5s-4 3-2 5l2 2 1-2-1 1h-2v-2l4-1 1 3q0 2-3 2l-4-1q-3-4 0-8l5-3 9-4q5-1 6-4l2-4q1-1-1-2z"/><path fill="none" stroke="#000" stroke-miterlimit="3" d="M498 291s2 0 4 3v2m1-9s-2 0-1 3l4 5"/><path fill="#f5ce00" stroke="#000" stroke-miterlimit="3" d="m462 204 1 1h1v-1l-1-3h-8l-7 4-8 4-8 2s-6 0-9-4v-6l2-1 2 1v3q-1 1-2-1v3s4 6 15-1l14-8s8-3 12 2c0 0 3 5-1 8q-1 2-6-1-1-1 1-4 1-1 4 1 0 4-2 1zm-36 55c7-3 8-11 8-11 2-8-1-15-1-15-4-8-11-10-11-10s6 5 8 11l1 11-2 8z"/><path fill="none" stroke="#000" stroke-miterlimit="3" d="M458 198s6 0 6 6"/><path fill="#f5ce00" stroke="#000" stroke-miterlimit="3" d="M419 263c11-3 13-14 13-14a26 26 0 0 0-1-15c-5-11-13-11-13-11l-4 3 1 3q5 2 5 0v-3l-2-1-1 2 1-2q1-2 7 4s5 6 5 14c0 0 1 15-15 18l5 12 6 17s5 9 14 5c0 0 6-2 6-6 0 0 0-4-3-4 0 0-4-1-4 2q-1 2 4 2l1-1-2-1q-1 1 0 0h1l1 1-1 1-1 1-3 2-7-1-3-4-6-14-3-9z"/><path fill="#f5ce00" stroke="#000" stroke-miterlimit="3" d="M449 291s-2 0-2 2q-1 1 3 2 2 0 2-4 0-2-4-2-1-1-4 4-1 1 1 6 4 5 8 6l11 5s4 3 3 5l-2 2-1-2v1h2v-2l-3-1-1 3q-1 2 3 2l3-1q3-4 0-8l-4-3-9-4-7-4-2-4 1-2z"/><path fill="none" stroke="#000" stroke-miterlimit="3" d="M448 291s-2 0-3 3l-1 2m-1-9s2 0 1 3l-3 5m27-91s5-4 11 0m-40 31s1-3-3-8l-3-7m7-4 3 7 3 7"/><path fill="none" stroke="#000" stroke-miterlimit="10" d="M441 238s2 2 2 6m-8-8s2 1 2 7q-1 2 3 6m-6 1s7 0 8 4l2 4q1-1 4 4m-11-7 2 3m6-7 2 4m6-35 3 3m3 9s3 2 3 10q-1 2 1 8"/><path fill="#784421" stroke="#000" d="M443 227h1s6 1 9-3l-1-1s-5-1-9 4z"/><path fill="none" stroke="#000" stroke-miterlimit="10" d="m465 259 28-10"/><path fill="#784421" stroke="#000" d="m463 221-1-1 10-4 1 1z"/><path fill="none" stroke="#000" stroke-miterlimit="10" d="m463 220 7 33m-5-33 7 33m-6-34 8 33m-5-34 12 25m-10-25 12 24m-11-25 13 24m-15 13 5-2m-9-1 27-10m-28 11s20-5 28-9m-22 25 1 3 3-1-1-3m5-1 1 3 3-1-1-3m-16-18v-4l25-8 2 4m-16 1 1 4m8-7 1 4m1-5 1 4m1-4 1 3m0-4 3-1 1 3m-2-2 1 3"/><path fill="none" stroke="#00247d" stroke-miterlimit="10" d="M430 283s-5-5 0-10c0 0-6-2-5-7m13 21s-5 1-3-9l-3 6 2 5q3 3 7-1m-8-16s-2 2-1 5m3-5s0 4 2 6m-1-7s0 4 3 6m-1-8s0 5 3 8m14-1s1-4 5-3l-2 2q-1 2 3 3l4-1m-2 16s-9-4-8-10q0-2 4-5m-2 3s-1 3 1 5m1-6s-1 3 1 5m1-7s-1 3 1 5m-9 11s5 4 9 4m-10-3 7 4m-9-3s6 5 9 5m14 5s-6 3-1 6m-3-9 9-5m-6 6 11-6m-7 7 12-8m-7 7 11-7m2-5s-3-4-12 0l10-5m8-16v5m-13 10s1-3 6-4q0 2 5 2s5-1 3-7q1-2-7-5m18-7s6 1 6 6c0 0 1 8-7 9m6-12s2-3 6-5m-5-2 3 3m-4-1 2 3m-2-1 1 2m-33-31s1-2 4-1m12 15s2-7 9-5m-3 0s1-4-1-6m-3 6v2"/><path fill="#64b4d1" stroke="#00247d" stroke-miterlimit="3" d="M516 325s8-3 5-9l-2-2q-2-1-2 4 1 1-1 7z"/><path fill="#fff" d="m519 322 1-5h1q1 1-2 5"/><path fill="#64b4d1" stroke="#00247d" stroke-miterlimit="3" d="M527 320s5-3 2-9l-2-1s-3 1-1 5z"/><path fill="#fff" d="M528 312s2 2 1 5h-1z"/><path fill="#64b4d1" stroke="#00247d" stroke-miterlimit="3" d="M511 324s-6-2-5-8l3-2s3 1 1 5z"/><path fill="#fff" d="M509 317v-1 5-5z"/><path d="M515 312s4-2 6 1q1-1-2-2 0-2-4-3l3 3zm3-8 3 2 2-1h-2z"/><path fill="none" stroke="#000" stroke-miterlimit="10" d="M505 311v-3m24-48 4-3m6-2-2 1-2 1"/><path d="m524 249 2-1 2 1-1 2s-2 1 2 3c0 1-5-1-3-3l1-2z"/><path fill="#64b4d1" stroke="#00247d" stroke-miterlimit="3" d="m526 206 1-5q0-5 3-3v3z"/><path fill="#fff" d="m527 203 1-4z"/><path fill="#64b4d1" stroke="#00247d" stroke-miterlimit="3" d="m525 204-2-3q-3-5 1-5l2 3z"/><path fill="#fff" d="m525 201-2-3s2 1 2 3"/><path fill="#64b4d1" stroke="#00247d" stroke-miterlimit="3" d="m522 203-3-2q-4-2-1-4l2 1z"/><path fill="#fff" d="m521 201-4-2z"/><path fill="#64b4d1" stroke="#00247d" stroke-miterlimit="3" d="m524 204-5-1q-5 0-3 3l2 1z"/><path fill="#fff" d="M517 205h4v1z"/><path fill="none" stroke="#000" stroke-miterlimit="3" d="m519 195 1 2"/><path fill="none" stroke="#000" stroke-miterlimit="10" d="M526 195v3"/><path fill="#64b4d1" stroke="#00247d" stroke-miterlimit="3" d="M420 206v-5q-1-5-4-3v3z"/><path fill="#fff" d="M419 203v-4h-1zq0 1 0 0"/><path fill="#64b4d1" stroke="#00247d" stroke-miterlimit="3" d="m421 204 3-3q2-5-1-5-1-1-2 3z"/><path fill="#fff" d="m422 201 2-3h-1s-2 1-2 3z"/><path fill="#64b4d1" stroke="#00247d" stroke-miterlimit="3" d="m424 203 4-2q4-2 1-4l-3 1z"/><path fill="#fff" d="m426 201 3-2-4 2z"/><path fill="#64b4d1" stroke="#00247d" stroke-miterlimit="3" d="m423 204 4-1q4 0 4 3l-3 1z"/><path fill="#fff" d="M430 205h-4v1h4z"/><path fill="none" stroke="#000" stroke-miterlimit="3" d="m427 195-1 2"/><path fill="none" stroke="#000" stroke-miterlimit="10" d="M420 195v3"/><path d="M487 178v5l1 3q2 0 3-2s2 4-2 6q-1 2-5 0l-1-5v-6l1 5s-1 6 4 6q2 1 3-4l-3 1a2 2 0 0 1-2-3zm-5 9s0 5-5 6v-3l-1-4v8s7-1 6-7m-6-4-1-4-1-4 1 4v3s-2 0-4-3q-2-5-3-3l2 3q1 4 6 3zm-10-7 1 4-4-3q-2 0-2 5l-4-4 3 2q-1-1 3-4l3 3zm5-6 3 2 3-2s0 3-3 3q-2 1-3-3m-14 19 2 1s1 2 2 0l3-2-2 3-2 1-1-1zm17-30q-3 2-1 3-1 6-5 4v-4c1-1-3 1-1 4q3 3 7-1c1 2 6 3 7 1 2-3-1-4-1-4s2 3 0 4q-5 2-6-4 3-1 0-3m2-4 1 5q1-1-1-5m-10 4s0-2-3-2zm16 0s0-2 2-2zm-19 4 2-1zm-6-13s2-1 4 2l-2 2 1-2zm32 0s-2-1-4 2l3 2-1-2zm-14 2 3-1h5l-5 1z"/><path fill="#fff" d="M476 154s2-3 6-2q1 2-6 2"/><circle cx="479" cy="153" r="1" fill="#784421"/><circle cx="479" cy="153" r="1"/><path d="m467 148 4 1h4l4-3-5 3-1-3 2-2-3 2 1 3-2-1zm7 17v2q2 1 0-2m-1-13-4-1h-5l5 1q1 2 4 0"/><path fill="#fff" d="M471 154s-2-3-6-2q-1 2 6 2"/><circle cx="468" cy="153" r="1" fill="#784421"/><circle cx="468" cy="153" r="1"/><path fill="none" stroke="#000" d="M560 131v161c0 43-86 57-86 57s-87-14-87-57V131z"/><path fill="#006" d="M0 0h320v240H0z"/><path fill="#fff" d="m38 0 122 91L281 0h39v31l-120 90 120 89v30h-40l-120-89-119 89H0v-30l120-89L0 32V0z"/><path fill="#c8102e" d="m212 141 108 79v20l-135-99zm-92 10 3 17-96 72H0zM320 0v2L196 96l1-22 98-74zM0 0l120 88H90L0 21z"/><path fill="#fff" d="M121 0v240h80V0zM0 80v80h320V80z"/><path fill="#c8102e" d="M0 97v48h320V97zM137 0v240h48V0z"/></svg>