<svg xmlns="http://www.w3.org/2000/svg" viewBox="0 0 640 480"><path fill="#007934" d="M0 0h640v480H0z"/><path fill="#ffe000" d="M0 0h640v320H0z"/><path fill="#d52b1e" d="M0 0h640v160H0z"/><path fill="#a05a2c" d="m369 211-98 98-2-1 98-98z"/><path fill="#e7e7e7" d="M375 205q-2 1-1 3l-2-1v2h-3l3 1h2l-3 1h-2l-2-1v-2l1-3v2l1 1v-1l2-1-2-1 4-1 5-4z"/><path fill="#a05a2c" d="m387 223-126 71-1-1 126-71z"/><path fill="#e7e7e7" d="m395 218-2 4-2-2v1h-2l2 2h1-5l-1-1v-2l2-3v4l1-2h2l-1-1zl6-2z"/><path fill="#a05a2c" d="m376 218-113 85-1-1 113-86z"/><path fill="#e7e7e7" d="m383 212-1 4-2-2v2h-2l2 1h2l-4 1-2-1q-1 1-1-1v-1l1-3v2l1 1 1-1h2l-2-2zl6-3z"/><path fill="#a05a2c" d="m271 211 98 98 2-1-98-98z"/><path fill="#e7e7e7" d="M265 205q2 1 1 3l2-1v2h3l-3 1h-2l3 1h2l2-1v-2l-1-3v2l-1 1v-1l-2-1 2-1-4-1-5-4z"/><path fill="#a05a2c" d="m253 223 126 71 1-1-126-71z"/><path fill="#e7e7e7" d="m245 218 2 4 2-2v1h2l-2 2h-1 5l1-1v-2l-2-3v4l-1-2h-2l1-1-4-1-6-2z"/><path fill="#a05a2c" d="m264 218 113 85 1-1-113-86z"/><path fill="#e7e7e7" d="m257 212 1 4 2-2v2h2l-2 1h-2l4 1 2-1 1-1v-1l-1-3v2l-1 1-1-1h-2l2-2zl-6-3z"/><path fill="#00e519" d="M300 283c4-2 15-4 17-3q-14 8-17 3"/><path fill="#ffe533" d="M300 284q3 4 17-4z"/><path fill="none" d="M300 284q3 4 17-4z"/><path fill="none" d="m300 283 17-3q-14 8-17 3"/><path fill="#a05a2c" d="m348 220-26 53-3-1-4 3v4q0 4-2 4l-3 2-5 10-4 6-10-5c5-8 16-19 15-20q6-9 11-10 4-4 4-7l3-1 19-38q2-1 2 1l1-1z"/><path fill="#cce5e5" d="M349 209h1l2 1-30 62-3-1 21-41 10-19-3-1-1-2 13-22z"/><path fill="#e7e7e7" d="M349 209h1l2 1-30 62-3-1 21-41 10-19-3-1-1-2 13-22z"/><path fill="none" d="M309 272q-5 0-3 5m2-2-2-1m15-13q-2 9-5 11-4 5-3 8l-9 13"/><path fill="#cce5e5" d="M322 273c-1-1-6-5-10-4l-6 8 8 5 1-1v-2l3-4h2z"/><path fill="none" d="M322 273c-1-1-6-5-10-4l-6 8 8 5 1-1v-2l3-4h2z"/><path fill="#cce5e5" d="m318 273-5 2z"/><path fill="none" d="m318 273-5 2m-4 1 1 1 1-1zm3-3h1l1-1h-2z"/><path fill="#cce5e5" d="M345 226q2 0 1-2l-5-2-1 1 1 1z"/><path fill="none" d="M345 226q2 0 1-2l-5-2-1 1 1 1z"/><path fill="#00e519" d="M295 286c3-3 15-4 16-4-8 6-16 7-16 4"/><path fill="#ffe533" d="M295 286c0 3 8 2 16-4z"/><path fill="none" d="M295 286c0 3 8 2 16-4z"/><path fill="none" d="m295 286 16-4c-8 6-16 7-16 4"/><path fill="#a05a2c" d="m341 222-25 53h-2l-4 2-1 5-1 4-3 2-5 9-4 6-10-5c4-7 15-18 15-19q5-9 10-11 5-4 3-7l4-1 18-38q2-1 2 1l1-1z"/><path fill="none" d="m341 222-25 53h-2l-4 2-1 5-1 4-3 2-5 9-4 6-10-5c4-7 15-18 15-19q5-9 10-11 5-4 3-7l4-1 18-38q2-1 2 1l1-1z"/><path fill="#cce5e5" d="m341 211 1 1h1l2 1-29 62h-3l20-42 10-19-3-1-1-2 12-22z"/><path fill="#e7e7e7" d="m341 211 1 1h1l2 1-29 62h-3l20-42 10-19-3-1-1-2 12-22z"/><path fill="none" d="M303 275q-5 0-3 5m2-3h-2m15-13q-2 8-5 10c-2 2-4 8-3 8l-8 14"/><path fill="#cce5e5" d="M316 275c-1 0-6-4-10-4l-6 9 8 5 1-2v-1q0-5 4-5h1z"/><path fill="none" d="M316 275c-1 0-6-4-10-4l-6 9 8 5 1-2v-1q0-5 4-5h1z"/><path fill="#cce5e5" d="M312 275q-3 0-5 3z"/><path fill="none" d="M312 275q-3 0-5 3m-3 1v-1h-1zm2-4 1 1 1-1z"/><path fill="#cce5e5" d="M339 228v-2l-5-2v2z"/><path fill="none" d="M339 228v-2l-5-2v2z"/><path fill="#00e519" d="m341 283-17-3q14 8 17 3"/><path fill="#ffe533" d="M341 283q-3 5-17-3z"/><path fill="none" d="M341 283q-3 5-17-3z"/><path fill="none" d="M341 283c-5-3-16-4-17-3q14 8 17 3"/><path fill="#a05a2c" d="m293 219 25 53h3l4 3 1 4 1 4 4 2 4 10 4 6c2 0 10-6 11-5-5-8-16-19-16-20q-6-9-10-11-5-3-4-6l-4-2-19-38-2 1-1-1z"/><path fill="#cce5e5" d="m292 208-1 1h-1l-2 1 30 62h3l-20-42-10-19 2-1 1-2-13-22z"/><path fill="#e7e7e7" d="m292 208-1 1h-1l-2 1 30 62h3l-20-42-10-19 2-1 1-2-13-22z"/><path fill="none" d="M332 272q5 0 3 5m-2-2 2-1m-15-13 5 11q4 5 3 8l8 13"/><path fill="#cce5e5" d="M319 272c1 0 5-4 10-3l6 8-8 5-1-1v-2q0-4-4-4l-2-1z"/><path fill="none" d="M319 272c1 0 5-4 10-3l6 8-8 5-1-1v-2q0-4-4-4l-2-1z"/><path fill="#cce5e5" d="m323 273 5 2z"/><path fill="none" d="m323 273 5 2m3 1v-1h1zm-2-4-1 1-1-1z"/><path fill="#cce5e5" d="M295 225a1 1 0 0 1-1-2l5-1h1v1z"/><path fill="none" d="M295 225a1 1 0 0 1-1-2l5-1h1v1z"/><path fill="#00e519" d="M346 286a38 38 0 0 0-17-4q14 9 17 4"/><path fill="#ffe533" d="M346 286q-3 5-17-4z"/><path fill="none" d="M346 286q-3 5-17-4z"/><path fill="none" d="m346 286-17-4q14 9 17 4"/><path fill="#a05a2c" d="m300 222 24 53h3l4 2v5l2 4 3 2 4 9 4 6 10-5c-4-7-15-18-15-19q-5-9-10-11-5-4-3-7l-4-1-18-38q-2-1-2 1l-1-1z"/><path fill="none" d="m300 222 24 53h3l4 2v5l2 4 3 2 4 9 4 6 10-5c-4-7-15-18-15-19q-5-9-10-11-5-4-3-7l-4-1-18-38q-2-1-2 1l-1-1z"/><path fill="#cce5e5" d="M299 211h-1l-2 1 29 62h3l-20-42-10-19 3-1 1-2-12-22z"/><path fill="#e7e7e7" d="M299 211h-1l-2 1 29 62h3l-20-42-10-19 3-1 1-2-12-22z"/><path fill="none" d="M337 275q5 0 3 5m-2-3h2m-15-13 5 10c2 2 4 8 3 8l8 14"/><path fill="#cce5e5" d="M324 275c1 0 6-4 10-4l6 9-8 5-1-2v-1q0-5-3-5h-2z"/><path fill="none" d="M324 275c1 0 6-4 10-4l6 9-8 5-1-2v-1q0-5-3-5h-2z"/><path fill="#cce5e5" d="M328 275q3 0 5 3z"/><path fill="none" d="M328 275q3 0 5 3m4 1a1 1 0 0 1-2 0v-1h1zm-3-4-1 1v-1z"/><path fill="#cce5e5" d="m302 228-1-2 5-2 1 1-1 1z"/><path fill="none" d="m302 228-1-2 5-2 1 1-1 1z"/><path fill="#a05a2c" d="m315 251 36-38-2-1-35 38z"/><path fill="#e7e7e7" fill-rule="evenodd" d="m350 212-5-2q0-3 4-4c-1 3 3 4 3 4z"/><path fill="#e7e7e7" d="m352 210 3 2q2 1 4-2 1 2-1 6-4 3-7 2 2 0 2-4l-3-1"/><path fill="#e7e7e7" d="m353 210-2 3-2-1 3-3z"/><path fill="#007934" fill-rule="evenodd" d="m308 290-1 9 2-2 2-7-2-3zm2-20-2 16q0 3 2-1l1-11z"/><path fill="#d52b1e" fill-rule="evenodd" d="m316 285-2-2v3s2 1 2 4v-2z"/><path fill="#ffe000" fill-rule="evenodd" d="M307 299s4-3 4-9v-2h1l1-3q1-1 1 1l-1 9v2h-2q0 3-4 2m4-25-1 11 1 3h1v-2l1-7z"/><path fill="#ffe000" fill-rule="evenodd" d="M310 299v2l2-1 1-3h-2zm2-11 1-3-1 1z"/><path fill="#d52b1e" fill-rule="evenodd" d="m315 287-1-1-1 12s-1 3-3 3c0 0 1 11 5 8l1-6-1-6v-4l1-3z"/><path fill="#d52b1e" fill-rule="evenodd" d="m317 285 1 1-2 20-1-6q-1-6 1-10z"/><path fill="#f7e214" fill-rule="evenodd" d="m313 279-1 7s2-2 2 0l1-3z"/><path fill="#007934" fill-rule="evenodd" d="M311 288s0-6-3-2v3l1 2h1z"/><path fill="#d52b1e" d="m288 237-1-13-12-13s-2 10-6 16z"/><path fill="#ffe000" d="m289 237 1-10-8-7c1 3-3 8-3 14"/><path fill="#007934" d="M295 245c1-5-1-5 2-11l-7-7-2 10 6 4"/><path fill="#d52b1e" d="M268 270c-2-4 0-13 0-18l2-21-14-8-2 29q-3 13-1 22 2 12 7 16c6 6 20 3 20 3 11-3 17-10 17-10l-9 2c-13-1-18 2-19-11"/><path fill="#f7e214" d="m305 279-6 2h-8c-18 1-15-10-15-27l1-18-11-7q-4 16-3 24c-1 6-2 17 0 22 2 12 12 12 24 10l9-2z"/><path fill="#007a3d" d="m306 279-6 2h-8q-20 3-19-27c0-7 1-10 3-20l7 4v1l-1 9q2 25 23 31z"/><path fill="none" d="M260 231c1 2 8 12 12 14m-11-8c1 3 10 15 14 15m-16 4q2 4 10 10m-7 3c4 4 13 12 23 12m-23-6c2 2 6 13 24 8m-27-6c1 3 10 17 26 12"/><path fill="#d52b1e" d="M278 265c-2-4 0-13 0-18l2-20-14-10-2 30-1 24c1 10 6 13 7 14 7 6 22 5 24 5 10-4 15-11 15-11h-11c-13-1-20 0-20-13"/><path fill="#ffe000" d="m316 274-6 1-8 1c-17 0-15-10-14-28v-15l-11-7q-3 14-3 22c-1 6-2 17 0 22 3 12 12 11 24 10l10-2z"/><path fill="#007934" d="m316 273-6 2-8 1q-20 2-18-27c0-7-1-8 2-17l11 9-1 6q0 24 20 26l1-13"/><path fill="none" d="M270 225c1 2 8 13 12 15m-11-8c2 2 10 14 14 15m-16 4q2 4 10 10m-7 3c4 3 14 11 23 12m-23-6c2 2 6 13 24 8m-27-6c2 2 10 17 26 11"/><path fill="#e8a30e" d="m256 224-1 6 1 10v6h-2l1-6v-10z"/><path fill="none" d="m256 224-1 6 1 10v6h-2l1-6v-10z"/><path fill="#f7e214" d="m256 222-1 10v8l-1 4q0 1 0 0h-2l1-4z"/><path fill="#e8a30e" d="m256 222-1 10v8l-1 4q0 1 0 0h-2l2-4zc1-1-1 4 0 0m0 17-1 1m1-2h-1m1-2h-1m4 3h-1m12-20v21q-1 3-2 1l1-7v-9z"/><path fill="none" d="M266 219v15l1 6q-1 3-3 1l1-7v-9z"/><path fill="#e8a30e" d="m266 217-1 10v8l-1 4h-2l2-5z"/><path fill="none" d="m266 217-1 10v8l-1 4h-2l2-5zm0 17h-1m0-2h-1m1-2h-1m1-1h-1m2 6-1-1m1-2h-1m4 2-1-1"/><path fill="#e8a30e" d="m274 211 1 8-1 7v4h2l-1-4z"/><path fill="#e8a30e" d="m274 211 1 8-1 7v4h2l-1-4zm0 15h1m-1-2h1m-1-1h1m-4 2"/><path fill="#fff" fill-rule="evenodd" d="M316 257h2"/><path fill="#e8a30e" fill-rule="evenodd" d="M292 284c0 3-7 7-13 0-5-4-4-11 1-12l54-53 4-4 9 9-3 4z"/><path fill="#e7e7e7" fill-rule="evenodd" d="M338 215c2-3 13 6 10 9-3 2-13-5-10-9"/><path fill="#cccccf" fill-rule="evenodd" d="M347 223c-2 1-9-5-8-7 2-2 10 6 8 7"/><path fill="none" d="M344 228a16 16 0 0 1-10-9m-23 45a16 16 0 0 1-11-12m9 14a16 16 0 0 1-12-11m-2 26q-8-3-12-13m10 15a18 18 0 0 1-12-12m-2 14q0 2-2 1m14-2q-4 5-7 3"/><path fill="#e8a30e" d="m276 285 2 2 2-2-2-1z"/><path fill="none" d="M280 285q-1 2-2 1m13-2q-3 5-6 3"/><path fill="#007934" fill-rule="evenodd" d="m332 290 1 9-2-2-2-7 2-3zm-2-20 2 16q0 3-2-1l-1-11z"/><path fill="#d52b1e" fill-rule="evenodd" d="m324 285 2-2v3s-2 1-2 4v-2z"/><path fill="#ffe000" fill-rule="evenodd" d="M333 299s-4-3-4-9v-2h-1l-1-3-1 1 1 9v2h2q0 3 4 2m-4-25 1 11-1 3h-1v-2l-1-7z"/><path fill="#ffe000" fill-rule="evenodd" d="M330 299v2l-2-1-1-3h2zm-2-11-1-3 1 1z"/><path fill="#d52b1e" fill-rule="evenodd" d="m325 287 1-1 2 12s0 3 2 3c0 0-1 11-5 8l-1-6 1-6v-4l-1-3z"/><path fill="#d52b1e" fill-rule="evenodd" d="m323 285-1 1 2 20 1-6q1-6-1-10z"/><path fill="#f7e214" fill-rule="evenodd" d="m327 279 1 7s-2-2-2 0l-1-3z"/><path fill="#007934" fill-rule="evenodd" d="M329 288s0-6 3-2v3l-1 2h-1z"/><path fill="#d52b1e" d="m352 237 1-13 13-13s1 10 5 16z"/><path fill="#ffe000" d="m351 237-1-10 8-7 3 14"/><path fill="#007934" d="M345 245c-1-5 1-5-2-11l7-7 2 10-6 4"/><path fill="#d52b1e" d="M372 270c2-4 0-13 0-18l-2-21 14-8 2 29q3 13 1 22-2 12-7 16c-6 6-20 3-20 3-11-3-17-10-17-10l9 2c13-1 18 2 19-11"/><path fill="#f7e214" d="m335 279 6 2h8c18 1 15-10 15-27l-1-18 11-7q5 16 3 24c1 6 2 17 0 22-2 12-12 12-24 10l-9-2z"/><path fill="#007a3d" d="m334 279 6 2h8q20 3 19-27c0-7-1-10-3-20l-7 4v1l1 9q-2 25-23 31z"/><path fill="none" d="M380 231c-1 2-8 12-12 14m11-8c-1 3-10 15-14 15m16 4q-2 4-10 10m7 3c-4 4-13 12-23 12m23-6c-2 2-6 13-24 8m27-6c-1 3-10 17-26 12"/><path fill="#d52b1e" d="M362 265c2-4 0-13 0-18l-1-20 13-10 2 30 2 24q-5 14-8 14c-7 6-22 5-23 5-11-4-16-11-16-11h11c13-1 20 0 20-13"/><path fill="#ffe000" d="m324 274 6 1 8 1c17 0 15-10 14-28v-15l11-7q3 14 3 22c1 6 2 17 0 22-3 12-12 11-24 10l-10-2z"/><path fill="#007934" d="m324 273 6 2 8 1q20 2 18-27c0-7 1-8-2-17l-11 9 2 6q0 24-21 26l-1-13"/><path fill="none" d="M370 225c-1 2-8 13-12 15m11-8c-2 2-10 14-14 15m16 4q-2 4-10 10m7 3c-4 3-14 11-23 12m23-6c-2 2-6 13-24 8m27-6c-2 2-10 17-26 11"/><path fill="#f7e214" d="m384 224 1 6-1 10v6h2l-1-6v-10z"/><path fill="#e8a30e" d="m384 224 1 6-1 10v6h2v-6l-1-10z"/><path fill="#f7e214" d="m384 222 1 10v8l1 4q0 1 0 0h2l-1-4z"/><path fill="#e8a30e" d="m384 222 1 10v8l1 4q0 1 0 0h2l-1-4zs1 4 0 0m0 17 1 1m-1-2h1m-1-2h1m-4 3h1"/><path fill="#f7e214" d="M374 219v21q1 3 2 1l-1-7v-9z"/><path fill="#e8a30e" d="M374 219v15l-1 6q2 3 3 1l-1-7v-9z"/><path fill="#f7e214" d="m374 217 1 10v8l1 4h2l-2-5z"/><path fill="#e8a30e" d="m374 217 1 10v8l1 4h2l-2-5zm0 17h1m0-2h1m-1-2h1m-1-1h1m-1 6 1-1m-1-2h1m-4 2 1-1m-10-22-1 8 1 7v4h-2l1-4zm3 0-1 8 1 7v4h-2l1-4zm0 15h-1m1-2h-1m1-1h-1m4 2"/><path fill="#fff" fill-rule="evenodd" d="M324 257h-2"/><path fill="#d52b1e" d="m292 216 2-4 4-2v1l-2 3z"/><path fill="#a05a2c" fill-rule="evenodd" d="m292 215 29 38 2-1-31-39z"/><path fill="#d52b1e" d="M291 207s3 0 3-2q-1-2-3-2l-5 2q-3 1-2 5l2 6v3l1 2q1 2 2-1l3-4 2-4 4-2-2-1z"/><path fill="none" d="M291 207s3 0 3-2q-1-2-3-2l-5 2q-3 1-2 5l2 6v3l1 2q1 2 2-1l3-4 2-4 4-2-2-1z"/><path fill="none" d="M291 207h-2q-2 0-3 3m11 0-4 1-3 3-4 4m9-9-1 1-1 2"/><path fill="#e8a30e" fill-rule="evenodd" d="M348 284c0 3 7 7 13 0 5-4 4-11 0-12l-55-53-4-4-9 9 3 4z"/><path fill="#e7e7e7" fill-rule="evenodd" d="M302 215c-2-3-13 6-10 9 3 2 13-5 10-9"/><path fill="#cccccf" fill-rule="evenodd" d="M293 223c2 1 9-5 8-7-2-2-10 6-8 7"/><path fill="none" d="M296 228a16 16 0 0 0 10-9m23 45q9-3 11-12m-9 14q9-2 12-11m2 26q8-3 12-13m-10 15a18 18 0 0 0 12-12m2 14q0 2 2 1m-14-2q4 5 7 3"/><path fill="#e8a30e" d="m364 285-2 2-2-2 2-1z"/><path fill="none" d="M361 285q0 2 2 1m-14-2q4 5 7 3"/><path fill="#007934" fill-rule="evenodd" d="m340 176 5 12a23 23 0 0 1-7 20q-9 7-17 7l-6 3v-2l8-2q12-1 19-12c6-10 2-18-2-26"/><path fill="#d52b1e" d="M342 206h-1z"/><path fill="#007934" fill-rule="evenodd" d="m347 205-3 1-4 1-2 2 3 1 2-1 2-1zm-6 1-2 1z"/><path fill="#007934" fill-rule="evenodd" d="m347 205-5 3-5 1 5-1zm-3 5h-5l-4 2q6 3 9-2"/><path fill="#007934" fill-rule="evenodd" d="M340 214c-1-1-8-4-9-1q5 3 9 1"/><path fill="#007934" fill-rule="evenodd" d="m339 216-3-1h-2l-6-1q4 6 11 1m1-2-10-1zm4-4q-2 2-11 1v1c8 0 9-1 11-2"/><path fill="#007934" fill-rule="evenodd" d="M339 216q-3 1-11-2h-2 2c7 3 6 2 10 1m-11-3-1 2z"/><path fill="#d52b1e" d="M346 187h-1z"/><path fill="#007934" fill-rule="evenodd" d="M342 203c0-2-1 1-4-4l-1-4 4 4zm-4-8 2 4 2 4"/><path fill="#007934" fill-rule="evenodd" d="m339 197 3 6q-1-4-3-5zm10 3-2 1-2 1-1 1-2 2 2 1 4-3z"/><path fill="#007934" fill-rule="evenodd" d="m341 205 6-2 3-3-4 3zm9-10-2 2-2 1-1 1-1 2 1 1 4-4z"/><path fill="#007934" fill-rule="evenodd" d="M343 202q6-2 8-7zm8-11-2 2-1 1-2 1-1 2 2 1 2-2 1-2z"/><path fill="#007934" fill-rule="evenodd" d="m349 194-5 4zm1-6-2 2-1 1-1 1v2l1 1 2-2 1-2zm-5-1v2zm3 4-3 4zm-5 10-1-1z"/><path fill="#007934" fill-rule="evenodd" d="m343 183-1-1zm6 0q-3 3-3 7c3 3 3-4 3-7"/><path fill="#007934" fill-rule="evenodd" d="m346 178-1 7c4 1 2-4 1-7"/><path fill="#007934" fill-rule="evenodd" d="M344 174q3 6 0 8l-2-3z"/><path fill="#007934" fill-rule="evenodd" d="m340 172 2 6q3-2-2-6"/><path fill="#007934" fill-rule="evenodd" d="M340 176c-4 0-2-3-3-5q4 1 3 5m2 4c-1-4-4-2-6-4q1 5 6 4m1 5q-4-1-6-5 5 0 6 4"/><path fill="#007934" fill-rule="evenodd" d="m344 188-2-2-3-4q0 5 5 6"/><path fill="#007934" fill-rule="evenodd" d="m344 192-5-6c1 2 0 6 5 6"/><path fill="#007934" fill-rule="evenodd" d="M344 196c-5 0-5-5-5-7l3 4z"/><path fill="#007934" fill-rule="evenodd" d="m343 199-1-2-4-5q-1 3 2 5zm-4 7q-4-4-1-8 3 4 1 8m1-29-3-6z"/><path fill="#007934" fill-rule="evenodd" d="m339 207-1-9zm4-8c0-1-4-3-4-7 0 4 4 5 4 8zm1-2-5-8zm1-4-6-7zm0-4q-3-1-6-7 2 5 6 8zm-1-4-7-5zm-2-4-6-5zm7 2-4 8zm-3-5q1 5-2 8 3-3 2-8m-2-4v10zm-4-2q3 4 2 7h-1zm-4 31q2 5-2 7c-2-5 1-4 2-7"/><path fill="#007934" fill-rule="evenodd" d="m336 203-2 8h-1zm8-20v-2h-1z"/><path fill="#d52b1e" d="M345 187h-1z"/><path fill="#007934" fill-rule="evenodd" d="m345 189-1-2zm0 0-1-1zm-2 12v-2zm0 0 1-1zm-3 5v-1z"/><path fill="#d52b1e" d="M339 205a1 1 10 1 0-1 0"/><path fill="#007934" fill-rule="evenodd" d="M339 205v1zm-12 10-1-1zm6-9a6 6 0 0 1-4 6q0-4 4-6"/><path fill="#007934" fill-rule="evenodd" d="m333 206-5 7h-1zm-7 8 1-1zm3-5-2 3-3 2q0-4 5-5"/><path fill="#007934" fill-rule="evenodd" d="m329 209-5 5 4-5m-28-33-5 12a23 23 0 0 0 7 20c5 5 14 6 17 7l6 3v-2l-8-2q-12-1-19-12-6-14 2-26"/><path fill="#007934" fill-rule="evenodd" d="m314 214-7 3-3-1 2-1z"/><path fill="#007934" d="M304 216q4 1 8-1"/><path fill="#007934" fill-rule="evenodd" d="m311 209 5 3 1 2-2-1z"/><path fill="#007934" d="m317 214-4-4"/><path fill="#007934" fill-rule="evenodd" d="m300 176 2-5h2v1z"/><path fill="#007934" d="m304 171-3 3"/><path fill="#007934" fill-rule="evenodd" d="M299 177v-4l1-2v2z"/><path fill="#007934" d="m300 171-1 5"/><path fill="#007934" fill-rule="evenodd" d="m299 178 4-3 1-1-1 1z"/><path fill="#007934" d="m304 174-3 3"/><path fill="#007934" fill-rule="evenodd" d="m298 180-1-6 1-1z"/><path fill="#007934" d="M298 173v5"/><path fill="#007934" fill-rule="evenodd" d="m297 182-2-6 1-2v2q2 2 1 6"/><path fill="#007934" d="M296 175q-1 2 1 5"/><path fill="#007934" fill-rule="evenodd" d="m296 184-2-5v-1l1 1z"/><path fill="#007934" d="m294 178 1 4"/><path fill="#007934" fill-rule="evenodd" d="m298 180 5-2 1-2-2 1z"/><path fill="#007934" d="m304 177-4 2"/><path fill="#007934" fill-rule="evenodd" d="M297 182q3 0 5-2l1-1h-1z"/><path fill="#007934" d="m303 179-4 2"/><path fill="#007934" fill-rule="evenodd" d="M296 184q3 0 5-2l1-1h-1z"/><path fill="#007934" d="m302 181-4 3"/><path fill="#007934" fill-rule="evenodd" d="M297 183v-2h-1v1-1 1z"/><path fill-rule="evenodd" d="M296 180v1zm1 0v1z" overflow="visible" style="marker:none"/><path fill="#007934" fill-rule="evenodd" d="m297 183 1-1zm-2 4-2-5v-2 1z"/><path fill="#007934" d="m293 180 2 5"/><path fill="#007934" fill-rule="evenodd" d="M296 187q1 1 5-2l1-2-2 1z"/><path fill="#007934" d="m302 183-5 3"/><path fill="#007934" fill-rule="evenodd" d="M295 190q2 0 5-3l1-2-1 1z"/><path fill="#007934" d="m301 185-4 4"/><path fill="#007934" fill-rule="evenodd" d="m295 190-4-5v-2l1 1z"/><path fill="#007934" d="m291 183 3 5"/><path fill="#007934" fill-rule="evenodd" d="m295 193 5-4 1-1-2 1z"/><path fill="#007934" d="m301 188-4 4"/><path fill="#007934" fill-rule="evenodd" d="M295 193s-4-2-4-4l-1-2 2 1z"/><path fill="#007934" d="m290 187 4 5"/><path fill="#007934" fill-rule="evenodd" d="M295 192v-2h-1v1l-1-1 1 1z"/><path fill-rule="evenodd" d="M293 189v1zm1 0" overflow="visible" style="marker:none"/><path fill="#007934" fill-rule="evenodd" d="m295 192 1-1v-1 1l1-1-1 1z"/><path fill-rule="evenodd" d="m298 189-1 1zm-2 0v1z" overflow="visible" style="marker:none"/><path fill="#007934" fill-rule="evenodd" d="m295 196-5-4-1-2 2 1z"/><path fill="#007934" d="m290 190 4 5"/><path fill="#007934" fill-rule="evenodd" d="m296 196 5-4v-3l-1 2q-3 2-4 5"/><path fill="#007934" d="m301 190-4 5"/><path fill="#007934" fill-rule="evenodd" d="m297 199 4-4 1-3-2 1z"/><path fill="#007934" d="m302 192-4 6"/><path fill="#007934" fill-rule="evenodd" d="m296 199-6-3-1-3 2 1z"/><path fill="#007934" d="m289 193 5 5"/><path fill="#007934" fill-rule="evenodd" d="m300 206 3-6v-2l-1 1z"/><path fill="#007934" d="m303 198-2 6"/><path fill="#007934" fill-rule="evenodd" d="M300 206q-2 1-8-3l-1-2 2 1q4 1 7 4"/><path fill="#007934" d="m291 201 6 4"/><path fill="#007934" fill-rule="evenodd" d="M298 203s-5-1-7-3l-1-2 2 1z"/><path fill="#007934" d="m290 198 6 4"/><path fill="#007934" fill-rule="evenodd" d="M298 203q3-1 4-6v-2l-1 1z"/><path fill="#007934" d="m302 195-2 6"/><path fill="#007934" fill-rule="evenodd" d="m297 202-1-1v-1 1h-1 1z"/><path fill-rule="evenodd" d="M294 200a1 1 46 1 1 1 1 1 1 46 1 1-1-1" overflow="visible" style="marker:none"/><path fill-rule="evenodd" d="M295 199a1 1 72 1 1 1 1 1 1 72 1 1-1-1" overflow="visible" style="marker:none"/><path fill="#007934" fill-rule="evenodd" d="M298 201v-1zh1v-1z"/><path fill-rule="evenodd" d="M299 198a1 1 8 1 0 0 1 1 1 8 1 0 0-1" overflow="visible" style="marker:none"/><path fill-rule="evenodd" d="M298 198a1 1 72 1 0 0 1 1 1 72 1 0 0-1" overflow="visible" style="marker:none"/><path fill="#007934" fill-rule="evenodd" d="M302 208q-1 1-7-1l-2-1h2z"/><path fill="#007934" d="m293 206 6 1"/><path fill="#007934" fill-rule="evenodd" d="m302 208 2-5-1-2v1z"/><path fill="#007934" d="m304 201-1 5"/><path fill="#007934" fill-rule="evenodd" d="M306 210q-2 2-8 1l-3-2h3z"/><path fill="#007934" d="m296 209 7 1"/><path fill="#007934" fill-rule="evenodd" d="M306 210v-5l-2-2v2z"/><path fill="#007934" d="m304 203 2 5"/><path fill="#007934" fill-rule="evenodd" d="m303 209-1-1zh-1 2"/><path fill-rule="evenodd" d="M300 209a1 1 24 1 1 1 0 1 1 24 1 1-2 0" overflow="visible" style="marker:none"/><path fill-rule="evenodd" d="M300 207a1 1 50 1 1 1 1 1 1 50 1 1-1-1" overflow="visible" style="marker:none"/><path fill="#007934" fill-rule="evenodd" d="m303 209 1-1-1-1 1 1v-1 2"/><path fill-rule="evenodd" d="M304 205a1 1 70 1 0 0 2 1 1 70 1 0 0-2m-2 1a1 1 44 1 0 1 1 1 1 44 1 0-1-1" overflow="visible" style="marker:none"/><path fill="#007934" fill-rule="evenodd" d="M308 212q-1 2-7 2l-3-1 2-1z"/><path fill="#007934" d="M298 213h8"/><path fill="#007934" fill-rule="evenodd" d="M311 213h-3 2l-1 1h-1 1z"/><path fill-rule="evenodd" d="M307 214a1 1 5 1 1 1 0 1 1 5 1 1-1 0m0-2a1 1 31 1 1 2 1 1 1 31 1 1-2-1" overflow="visible" style="marker:none"/><path fill="#007934" fill-rule="evenodd" d="m310 212-1-5-2-1v1z"/><path fill="#007934" d="m307 206 2 4"/><path fill="#007934" fill-rule="evenodd" d="M311 213v-1l-1-1 1 1v-2l1 1z"/><path fill-rule="evenodd" d="M310 209a1 1 43 1 0 1 1 1 1 43 1 0-1-1m-2 2a1 1 17 1 0 2 0 1 1 17 1 0-2-1" overflow="visible" style="marker:none"/><path fill="#452c25" d="m319 209-1 6 4-6 2-1-3-2z"/><path fill="none" d="m319 209-1 6 4-6 2-1-3-2z"/><path fill="#452c25" d="m311 213-3 6 5-7h-2z"/><path fill="none" d="m311 213-3 6 5-7h-2z"/><path fill="#452c25" d="m312 212-3 5c1 1 5-7 5-7h-2z"/><path fill="none" d="m312 212-3 5c1 1 5-7 5-7h-2z"/><path fill="#452c25" d="m312 211-3 5 6-7h-2z"/><path fill="none" d="m312 211-3 5 6-7h-2z"/><path fill="#452c25" d="m313 210-4 5 7-7h-2z"/><path fill="none" d="m313 210-4 5 7-7h-2z"/><path fill="#452c25" d="m314 208-4 5 6-7h-1z"/><path fill="none" d="m314 208-4 5 6-7h-1z"/><path fill="#452c25" d="m313 212-4 6 6-7z"/><path fill="none" d="m313 212-4 6 6-7z"/><path fill="#452c25" d="m315 211-2 5 4-5c2-3-2 0-2 0"/><path fill="none" d="m315 211-2 5 4-5c2-3-2 0-2 0"/><path fill="#452c25" d="m315 211-1 6q2-1 3-6c1-3 0 0 0 0v-3z"/><path fill="none" d="m315 211-1 6q2-1 3-6c1-3 0 0 0 0v-3z"/><path fill="#452c25" d="m314 210-4 6 6-7z"/><path fill="none" d="m314 210-4 6 6-7z"/><path fill="#452c25" d="m314 211-4 5 7-6h-2z"/><path fill="none" d="m314 211-4 5 7-6h-2z"/><path fill="#452c25" d="m315 212-4 5 6-6h-1z"/><path fill="none" d="m315 212-4 5 6-6h-1z"/><path fill="#452c25" d="m315 205-3 5 5-4q0-2-2-1"/><path fill="none" d="m315 205-3 5 5-4q0-2-2-1"/><path fill="#452c25" d="m315 210-2 5 4-5v-2z"/><path fill="none" d="m315 210-2 5 4-5v-2z"/><path fill="#452c25" d="M315 208s2-5 0 1-4 4-4 4l3-4 2-3"/><path fill="none" d="M315 208s2-5 0 1-4 4-4 4l3-4 2-3"/><path fill="#452c25" d="M318 207s2-4 0 1c-3 6-4 5-4 5l2-4 3-3"/><path fill="none" d="M318 207s2-4 0 1c-3 6-4 5-4 5l2-4 3-3"/><path fill="#452c25" d="m317 206-3 5 4-4q0-3-2-2"/><path fill="#e8a30e" d="M353 251a33 37 0 1 1-66 0 33 37 0 1 1 66 0"/><path fill="none" stroke="#390" d="M294 251c0-17 12-30 26-30s26 13 26 30" color="#000" font-family="Sans" font-weight="400" overflow="visible" style="line-height:normal;text-indent:0;text-align:start;text-decoration-line:none;text-transform:none;marker:none"/><path fill="#007934" d="M287 253c1 20 15 35 33 35s32-15 33-35z"/><path fill="none" d="M353 251a33 37 0 1 1-66 0 33 37 0 1 1 66 0"/><path fill="#d52b1e" d="M315 225v4l1 3h-1l-5-4 4 6h-4l-3-1 3 2 2 1v1l-6 2 6 1-2 2-3 2q2 1 3-1h4l-4 6 5-4h1l-1 3v4l2-3 1-3 1 1 1 6 1-6h1l1 2 3 3-1-4-1-2 1-1 5 4-4-6h4l3 1-3-2-2-1v-1l6-1-6-2 2-2 3-2-3 1-3 1v-1l3-6-5 4h-1l1-3 1-4-2 3-2 3h-1l-1-7-1 7h-1l-1-3z" overflow="visible" style="marker:none"/><path d="M326 237q-3-3-5-1v4-4q2-2 5 1"/><path d="m323 236-1 1h-1q0 1 0 0h2l2 1q1-1-2-2m2 2h-3z"/><circle cx="323" cy="237" r="1"/><path d="m322 238 3-1h-1zm3 0h-4zm-4 2-1 1h1a1 1 0 1 0 0-1m1 3-1-1h-1zm0 0h-2zm0 0-2 1zm-8-6q3-3 5-1v4-4q-2-2-5 1"/><path d="m317 236 1 1h1q0 1 0 0h-2l-2 1q-1-1 2-2m-2 2h3z"/><circle cx="-317" cy="237" r="1" transform="scale(-1 1)"/><path d="m318 238-3-1h1zm-3 0h4zm4 2 1 1h-1a1 1 0 1 1 0-1m-1 3 1-1h1zm0 0h2zm0 0 2 1z"/><path fill="#007934" d="M323 258h5l4-1q1 0 0 0l-2-1-2-2h-1q5 3 12 1h3l4-1-1-1-3-1-5-3-2-1-5-4-7-5-3-1-6 3-4 3-7 5-9 5c8-1-7 2 29 4"/><path fill="#007934" d="m303 249 13-8v1l1-1h2l-4 3h2v1l-2 1-1 1 1-1 3-1 2-1-1 1h1l-3 3h-1v1l-3 3h-1q-2 3-5 3c0-2-4 2-13-1m31 0h-1 3q-1 0 0 0v-1h-2 3l2-1q1 0 0 0l-1 1h-1 3l1-1v1q-1 0 0 0h1v-1h-1 2v1l1-1 1 1h-1v1h-1v1h2l1-1v-1q-1 0 0 0h1v-1h1v1h-1v1l1 1h3v-1l3 1h-3l-4 1-2-1m-11 0"/><path fill="#007934" d="M321 259q2 2 4 0h2c3 1 11 0 10-1l-3-2h-1l-2-1-3-1-1-2h-2l-2-2-1-1-2-1-3 2-2 2-5 2-7 3s2 2 8 1l3 1h2z"/><path fill="#007934" d="M310 255c1-1 6-3 7-5l1 1 1-1v1l-2 1h1l-1 1-1 1 1-1h1l2-1-1 1h1l-2 1-1 1-1 1-1 1-3 1-8-1"/><path fill="#00a6de" d="M320 214c-18 0-33 17-33 37s15 37 33 37 33-16 33-37c0-20-15-37-33-37m0 8c13 0 25 13 25 29s-12 29-25 29-25-13-25-29 12-29 25-29" color="#000" font-family="Sans" font-weight="400" overflow="visible" style="line-height:normal;text-indent:0;text-align:start;text-decoration-line:none;text-transform:none;marker:none"/><path fill="#e8a30e" d="M322 276v-6q3-2 4 0v6zm2-7v7zm0 0v7zm1-3v1zm-1 0 1 1zm0 1v1zm0 1v1zm1 0"/><path fill="#e8a30e" d="m325 269-1 7h1zm0-2 1 1zm0 1v1zm1 1-1 7zm2-2-1 1zm-1 0v1zm-1 1v1zm1 1h-1zm0 0-1 1zm-3 0v7zm-1-3v1zm1 0-1 1zm0 1v1zm0 1v1zm-1 1 1 7zm0-2-1 1zm0 1v1zm-1 2 1 6zm-2-3 1 1zm1 0v1zm1 1v1zm0 0v1zm-1 1h1zm0 0 1 1zm3-3v1zm0 0v1zm0 1v1zm1 1-1 1zm0 0-1 1zm-2-1 1 1zm0 1 1 1zm0 1 1 7zm-1-3 1 1zm1 1v1zm1 1-1 1zm-2-1 1 1zm0 1 1 1zm0 0 1 1zm0 2 1 3-1 3zm1-1 1 7zm-1-2v1zm1 1v1zm-2 0 1 1zm1 1q0-1 0 0m-2-2 1 1zm1 0v1zm0 1v1zm1 1v1zm-2-1 1 1zm0 1h1zm5 0-1 7zm0-2v1zm0 1v1zm1 0-1 1zm0 1-1 7zm0-2v1zm0 1v1zm1-1-1 1zm0 1-1 1zm0 1h-1zm-1 1v6zm1-2v1zm-1 1v1zm2 0h-1zm0 0h-1zm-1 0"/><path fill="#e8a30e" d="m324 272 1 1h-4z"/><path fill="#e8a30e" d="m323 272-1 1h1zm1 0-1 1h1zm0 0v1zm1 0v1z"/><path fill="#e7e7e7" d="M317 269v4l1 1v1h-1v-1l-1-1-1-3m-7-1h2v3l-1 1 2 2 1 1v-1l-1-1v-1l1-2v-2l-1-2v-1m-2-1q-3 3-1 4m10-8v-2z"/><path fill="#e7e7e7" d="m319 262-1-1h-1l-1 2-1 3h-4l-2 1-1 1v1c1 3 2 0 2 0l3 2q6 2 5-6z"/><path fill="#e7e7e7" d="m317 261 1-1zm-9 7 1 2-1 1v3h1v2h1-1v-4h1l1-1v-1h1l-1-1v-1m6 2-2 1-1 2v3h-1v-8m5-6"/><path d="M318 261q0 2 0 0"/><path fill="#e7e7e7" fill-rule="evenodd" d="M329 273v2h1v-17h-1v14m0 2h1m-1-1h1m-1-1h1m-1-1h1m-1 0h1m-1-1h1m-1-1h1m-1-1h1m-1 0h1m-1-1h1m-1-1h1m-1-1h1m-1-1h1m-1 0h1m-1-1h1m-1-1h1m-1-1h1m-1-1h1m-1 0h1m-1-1h1m-1 15h1m-1 1h1"/><path fill="#007934" fill-rule="evenodd" d="M332 257h2zh2l-1-1h2-1 2-1l3-1-8 1 1-1h-1l1-1 1-1h-1l2-1h-1l2-1q-5 1-6 5a7 7 0 0 0-6-4l2 1h-1l2 1h-1l2 1h-1l2 1h-1l1 1-7 3 2-1 2-1-1 1 2-1v1l1-1v1l1-1a6 6 0 0 0-3 6l1-2v1l1-2v1l1-2v1l1-2v1l1-1 1 2v-1l1 2v-1 3l1-1v2q1-4-2-6l2 1-1-1 2 1v-1l1 2v-1l1 2v-1l1 1q0-4-5-5z"/><path fill="none" d="M330 257q6 0 8 5l-2-1v1l-1-2v1l-1-2v1l-2-1 1 1-2-1m-1-2q-4-2-9 2h2l2-1-1 1 2-1v1l1-1v1l1-1"/><path fill="none" d="M330 257q-1-5-7-5l2 1h-1l2 1h-1l2 1h-1l2 1h-1l1 1m2 1q-5 1-5 6l1-2v1l1-2v1l1-2v1l1-2v1zm-2 0v1m-1-1v2m-1-1v2"/><path fill="none" d="M330 259v-1" class="bo-fil1 bo-str2"/><path fill="none" d="M333 261v2m-1-3v1m4-3v2m-2-2 1 1m-2-2 1 1m-11 0 2-2m0 1 1-1m0 1 2-1m-1 1 2-1m-4-4 2 1m-1 0h2m-1 1h2m-1 1h1m1 0a9 9 0 0 1 9-1h-3l1 1h-2 1-2l1 1h-2 1-2m4-2h-2m1 1h-2m1 0h-2m1 1h-2m-2-2q1-4 6-5l-2 1h1l-2 1h1l-1 1-1 1h1l-1 1m2-4-2 1m1 0-1 1m1 0-2 1m1 0-1 1m-1 2v1m1-2q4 3 3 8v-2l-1 1v-3 1l-1-2v1l-1-2"/><path fill="#e8a30e" d="M293 234h2v-1l-1-1-1 1zm2 1h2l1-1h-1v-1l-2 1m-3 0 1-2h1v-1h1v1l1 1 1-1h1v3l-1 1v1l-2-1-1-1zm9-11 1 2 1 1h1l1-1-1-1-1-2zm4 0 1 2-1 2h-2l-2-1-1-2 1-2h2zm8-3v1l2-1h1v1h-1l-2 1h-1v-2l-1-2v-1h1v1zm9-3v-1h2l-1 1v4h-1zm10 5 3-2h1l-5 4v-6h2zm9 4 1-1v1h1l-2 1-1 1-1 2-1-1 1-1zm5 10 1-1h-2zm-2-1h-2v-1h6v1l-4 4v-1l1-1z" font-family="Linux Biolinum" font-size="100" font-weight="700" letter-spacing="60" style="line-height:125%;text-align:center" text-anchor="middle" word-spacing="0"/><path fill="#e8a30e" d="m325 281-1 2h-2l2 1-1 3 2-2 2 1-1-2 2-1h-2zm9-4-1 2h-2l2 1-1 3 2-2 2 2-1-3 2-1h-2zm14-25-1 2h-2l2 1-1 3 2-2 2 2-1-3 2-1h-2zm-7 18 1 2h3l-2 1v2l-2-1-2 2 1-3-2-1h3zm5-9 1 3h2l-2 1 1 2-2-1-2 1 1-2-2-1h2zm-31 20 1 2h2l-2 1 1 3-2-2-2 1 1-2-2-1h2zm-9-4 1 2h2l-2 1 1 3-2-2-2 2 1-3-2-1h2zm-14-25 1 2h2l-2 1 1 3-2-2-2 2 1-3-2-1h2zm6 18v2h-3l2 1v2l2-1 2 2-1-3 2-1h-3zm-4-9-1 3h-2l2 1-1 2 2-1 2 1-1-2 2-1h-2z"/><path fill="#e7e7e7" d="m321 248-1 1zm0 0v-1zl-1 1zm0 1h-2zm0 0h-2zm-2 0h2v1-1 1"/><path fill="#e7e7e7" d="M319 249h2v1-1 1m0-2h-1v-1z"/><path fill="#e7e7e7" d="M321 248h-1v-1zm-1 2-1 1zm-1 0"/><path fill="#452c25" d="m317 210-1 6q2-1 3-6 1-1 0 0v-3z"/><path fill="none" d="m317 210-1 6q2-1 3-6 1-1 0 0v-3z"/><path fill="#452c25" d="m318 208-2 6 3-5q0-1 0 0v-4"/><path fill="none" d="m318 208-2 6 3-5q0-1 0 0v-4"/><path fill="#452c25" d="m321 206-3 7q2-1 3-5 1-1 0 0l1-4"/><path fill="none" d="m321 206-3 7q2-1 3-5 1-1 0 0l1-4"/><path fill="#452c25" d="m357 196 3 1-1 1-13-7-4-2 5 1z"/><path fill="none" d="m357 196 3 1-1 1-13-7-4-2 5 1z"/><path fill="#452c25" d="m358 195 3 2h-1l-12-6c-4-2-1 1-1 1v-2z"/><path fill="none" d="m358 195 3 2h-1l-12-6c-4-2-1 1-1 1v-2z"/><path fill="#452c25" d="m364 197-6-2-2-1s1 2-4-2l-4-2h2l9 4z"/><path fill="none" d="m364 197-6-2-2-1s1 2-4-2l-4-2h2l9 4z"/><path fill="#452c25" d="m343 198 1 2s0 2-5-2l-5-3h3z"/><path fill="none" d="m343 198 1 2s0 2-5-2l-5-3h3z"/><path fill="#452c25" d="m337 199 1 3q-1 1-4-2v-5z"/><path fill="none" d="m337 199 1 3q-1 1-4-2v-5z"/><path fill="#452c25" d="m339 198 2 3q-2 1-6-3-2-3 0-3z"/><path fill="none" d="m339 198 2 3q-2 1-6-3-2-3 0-3z"/><path fill="#452c25" d="M351 196s6 3 1 3c0 0-8-3-13-7l1-1z"/><path fill="none" d="M351 196s6 3 1 3c0 0-8-3-13-7l1-1z"/><path fill="#452c25" d="m354 195 3 3c0 1-10-2-15-6l2-1z"/><path fill="none" d="m354 195 3 3c0 1-10-2-15-6l2-1z"/><path fill="#452c25" d="m345 197 2 2q-2 1-9-3v-2z"/><path fill="none" d="m345 197 2 2q-2 1-9-3v-2z"/><path fill="#452c25" d="m348 197 2 2q1 2-11-4l1-2z"/><path fill="none" d="m348 197 2 2q1 2-11-4l1-2z"/><path fill="#452c25" d="m340 192 2 3-5-1-3-3h3z"/><path fill="none" d="m340 192 2 3-5-1-3-3h3z"/><path fill="#452c25" d="m336 188 5 3 4 3q-1 1-6-2l-5-4"/><path fill="none" d="m336 188 5 3 4 3q-1 1-6-2l-5-4"/><path fill="#452c25" d="m333 202 1 3q-1 1-3-2c-2-3 1-2 1-2z"/><path fill="none" d="m333 202 1 3q-1 1-3-2v-2z"/><path fill="#452c25" d="m335 201 1 3-4-2c-4-3 2-3 2-3z"/><path fill="none" d="m335 201 1 3-4-2c-4-3 2-3 2-3z"/><path fill="#452c25" d="m331 190 4 10q-1 1-3-2l-2-6z"/><path fill="none" d="m331 190 4 10q-1 1-3-2l-2-6z"/><path fill="#452c25" d="m336 193 4 4-5-3c-3-2 1-1 1-1"/><path fill="none" d="m336 193 4 4-5-3c-2-2 1-1 1-1"/><path fill="#452c25" d="m334 193 3 6-4-3-2-3"/><path fill="none" d="m334 193 3 6-4-3-2-3"/><path fill="#452c25" d="M313 204v3q1 1 2-2l-1-3z"/><path fill="none" d="M313 204v3q1 1 2-2l-1-3z"/><path fill="#452c25" d="M314 200v4c1 1 2-3 2-4z"/><path fill="none" d="M314 200v4c1 1 2-3 2-4z"/><path fill="#452c25" d="M315 204v4l2-2-1-3z"/><path fill="none" d="M315 204v4l2-2-1-3z"/><path fill="#452c25" d="M315 200v5l2-5zm0-5-2 2z"/><path fill="none" d="m315 195-2 2z"/><path fill="#452c25" d="m314 194-1 3 2-1z"/><path fill="none" d="m314 194-1 3 2-1z"/><path fill="#452c25" d="m332 191 1 4-2-2z"/><path fill="none" d="m332 191 1 4-2-2z"/><path fill="#452c25" d="M332 199v3q-2 0-2-3zm-3 5v2q0 2-2-1l-1-2 2-1zm2-1v3l-2-3 2-1z"/><path fill="#452c25" d="m329 195 2 7c-1 2-3-3-4-6q0-2 2-1"/><path fill="#452c25" d="m328 196 2 7c-2 0-4-5-5-6z"/><path fill="#452c25" d="M328 198v5l-2-6zm6-9 1 4-3-3z"/><path fill="#452c25" d="M332 189s4 5 2 5h-1l-3-4zm3 0 2 3-4-3zm-6 4 3 8-5-7q0-2 2-2"/><path fill="#452c25" d="m328 193 1 4-3-3zm3-1v3l-2-2zm-6 2 2 4-3-2zm12-6 3 3q-3 0-5-3z"/><path fill="#452c25" d="m335 188 2 2 2 2-4-2-1-1zm7 1 8 4-10-4z"/><path fill="#452c25" d="m342 190 6 4-8-3-3-2 3-1zm-15 4 1 3q-2 1-2-1t1-2m0 6v4l-2-5z"/><path fill="#452c25" d="m322 194 4-2h2l1-1s-1-4 4-4l11 1 7 2 9 4 4 2v1l-15-7v1l-3-1-3-1h-2l-5-1h-1l1 1-2-1-1 1h-1l-1 3-3 1-1 1-1 1h-3zm5 10v3q-1 1-2-2 0-3 1-2z"/><path fill="#452c25" d="M327 201v-1l-1-2-1-2-1-2-2-1h-4l-4 1v2h1l-1 2 1 3v4l1 1q0 1 0 0l1 1v1l1 2v-1l1 1v1l1-2 1-1v-1l2 2v1l1-1v2l1-1 1-2 1-1z"/><path d="M325 198v2zm1 1v1zm-1 4v1zm-1 1"/><path fill="#452c25" d="m311 194-1 4q3 0 3-3-1-2-2-1"/><path fill="none" d="m311 194-1 4q3 0 3-3-1-2-2-1"/><path fill="#452c25" d="m313 194-2 3 3-2z"/><path fill="none" d="m313 194-2 3 3-2z"/><path fill="#452c25" d="m285 195-4 2c0 1 10-1 16-5l-2-1z"/><path fill="none" d="m285 195-4 2c0 1 10-1 16-5l-2-1z"/><path fill="#452c25" d="M289 195s-6 2-2 2c0 1 9-1 14-5l-1-2z"/><path fill="none" d="M289 195s-6 2-2 2c0 1 9-1 14-5l-1-2z"/><path fill="#452c25" d="m298 189-6 4 8-2 3-3-3-1z"/><path fill="none" d="m298 189-6 4 8-2 3-3-3-1z"/><path fill="#452c25" d="m296 196-2 2q2 2 8-3v-2z"/><path fill="none" d="m296 196-2 2q2 2 8-3v-2z"/><path fill="#452c25" d="m292 196-2 2q-1 2 10-4l1-1-1-2z"/><path fill="none" d="m292 196-2 2q-1 2 10-4l1-1-1-2z"/><path fill="#452c25" d="m290 190-14 7 18-7m11 10-1 3q1 1 4-2c2-3-2-2-2-2z"/><path fill="none" d="m305 200-1 3q1 1 4-2c2-3-2-2-2-2z"/><path fill="#452c25" d="m307 202-1 3 3-3q2-2 0-1zm-4-3-1 3q1 1 5-3 1-2 0 0l-1-2z"/><path fill="none" d="m307 202-1 3 3-3q2-2 0-1zm-4-3-1 3q1 1 5-3 1-2 0 0l-1-2z"/><path fill="#452c25" d="m301 197-2 3 6-2c3-2 0-4 0-4z"/><path fill="none" d="m301 197-2 3 6-2c3-2 0-4 0-4z"/><path fill="#452c25" d="m297 197-1 2s0 2 5-1l5-3-3-1z"/><path fill="none" d="m297 197-1 2s0 2 5-1l5-3-3-1z"/><path fill="#452c25" d="m282 195-3 1 1 1 12-4 5-4-3-1z"/><path fill="none" d="m282 195-3 1 1 1 12-4 5-4-3-1z"/><path fill="#452c25" d="m277 196 6-1 2-1s-1 2 5-2c7-3 0 0 0 0l8-4h-1l-15 6z"/><path fill="none" d="m290 192 8-4h-1l-15 6-5 2 6-1 2-1s-1 2 5-2"/><path fill="#452c25" d="M309 202v4l2-3q0-3-2-2z"/><path fill="none" d="M309 202v4l2-3q0-3-2-2z"/><path fill="#452c25" d="M311 204v2l2-2 1-1-3-1z"/><path fill="none" d="M311 203v3l2-2 1-1-3-1z"/><path fill="#452c25" d="M311 199s-2 4 0 4l2-4z"/><path fill="none" d="M311 199s-2 4 0 4l2-4z"/><path fill="#452c25" d="M311 199s0 5 1 4l1-4z"/><path fill="none" d="M311 199s0 5 1 4l1-4z"/><path fill="#452c25" d="M313 199v5l2-5z"/><path fill="none" d="M313 199v5l2-5z"/><path fill="#452c25" d="M308 198v4l2-3q-1-2-2-1m-8-6-2 2 5-1 2-1-2-2z"/><path fill="none" d="m303 189-1 2 4-1v-2z"/><path fill="#452c25" d="m305 189-2 3c1 1 4-3 5-3z"/><path fill="#452c25" d="m304 188-5 2-4 4 6-2 5-3m-1 2-4 5q2 0 6-4"/><path fill="#452c25" d="m306 192-3 6q2 1 4-2l2-4"/><path fill="#452c25" d="m308 193-3 6q1 2 3-2l1-4zm2 0-3 8 5-6zm-8-5-3 2 4-1z"/><path fill="#452c25" d="m302 189-1 2 4-2zm5 0-2 4 4-3z"/><path fill="#452c25" d="m308 190-2 4 1-1 2-2zm1 1-2 4 2-2z"/><path fill="#452c25" d="m309 192-1 3q2 1 3-1zm1 7v3q2 0 2-3z"/><path fill="#452c25" d="M316 194h-2l-3-2q-1 0 0 0v-2q0-2-2-3h-12l-12 4 11-3h4s-3 1-1 1h8l2 2 3 3 1 1h1z"/><path fill="#452c25" d="m298 188-8 4 10-3c2-1-2-1-2-1"/><path d="m316 195 1-1zm-1 5v1z"/><path fill="#bd8759" d="m317 214-1 1-1 1h1l1-1 1-1h1l1 1v-1l-1-1-1-1 1-2-1-1v2l-1 2-3 1v1h2"/><path fill="none" d="m317 214-1 1-1 1h1l1-1 1-1h1l1 1v-1l-1-1-1-1 1-2-1-1v2l-1 2-3 1v1h2"/><path fill="#bd8759" d="M323 209v3l-1 1h-1v1h2v1l1 1v-2h2v1-1h1l-1-1h-2v-4z"/><path fill="none" d="M323 209v3l-1 1h-1v1h2v1l1 1v-2l2 1h1l-1-1-2-1v-4z"/><path fill="#dcddde" d="M315 197v-1l2-1h1l2-1 1 1h1v1l1 1v2l-1 1v1l-1 1h-1l-1-1-2 1-1-1v-1l-1-1v-1z"/><path fill="#d9c0b9" d="M313 215h1z"/><path fill="none" d="M313 215h1z"/><path fill="#d9c0b9" d="M316 216v1z"/><path fill="none" d="M316 216v1z"/><path fill="#d9c0b9" d="m320 215-1-1h1z"/><path fill="none" d="m320 215-1-1h1z"/><path fill="#d9c0b9" d="M321 213v1z"/><path fill="none" d="M321 213v1z"/><path d="m323 196 1 1zm3 9v1zm-11-2 1 1zm3 1 1 1zm5-2v1zm2 6v2zm-10-6v1z"/><path fill="#fff" d="m319 196 3-1zm3 1h-2zm-2 1v3zm-2 1v3zm2-1 2 2zm-1 1v2zm1 0 2 2zm-2-3-1-1zm-1 0h-2zm1 0v-1zm2 1 2-1zm1 1 2 1v-1zm-3 2-1 1v1z"/><path fill="#fff" d="M320 199v2zm1 0 1 1zm0 1v2zm-1-3 2 1v-1zm-1-1 1-1v-1zm-1 0-1-2v1zm0 1-1-2v1zm-1-1h-2zm2 3-1 2zm0 0 1 2zm1-1 2 1zm-2-1v-2zm-1-1-1-1zm0 3-1 1zm1 1-1 1zm2-4 2-1zm-3 4v2zm1 0v2zm2-1 1 2zm0 0 2 1zm1-1 1 1v1-1zm-1-2 2-1zm-2 0v-1zm0 5v1zm1-6v1zm-1 1v-2zm2 4v1zm-1 0v2zm1 0v2zm-4-4v1zm0 4v1zm1 2 1-2zm2-2v2zm0-1v2zm0 0 1 1zm1-4v2zm-1 0v2zm-1 1h-1z"/><path fill="#dba05f" d="m319 196-3 1h-1l-2-1-2 1h-1v2l1 1h5l4-2z"/><path fill="none" d="m319 196-3 1h-1l-2-1-2 1h-1v2l1 1h5l4-2z"/><path d="M311 198h1zh1-2"/><path fill="none" d="M311 198v-1h1m0 0h-1m0 0"/><path fill="#c6262c" d="m313 197-1-1-1-1-1 1-1 1h1l-1 1h1l1-1h1z"/><path fill="none" d="m313 197-1-1-1-1-1 1-1 1h1l-1 1h1l1-1h1z"/><path fill="#d9c0b9" d="M309 200s-1-1 1-2l1 1z"/><path fill="none" d="M309 200s-1-1 1-2l1 1z"/><path fill="#d9c0b9" d="M309 200h2v-1z"/><path fill="none" d="M309 200h2v-1z"/><path fill="#7a2e26" d="m313 200 1-1zm0-3h1zm7 1v-1zm-5-1 1 1zm2 2"/><path fill="#5e3f17" d="M310 199h-1z"/><path fill="#842116" d="M310 198v-1zm1-2h1z"/><path fill="#dcddde" d="m314 195-3-1-2-2-2-3h-8c-3 1 1-1 1-1h-4l-2 1-3 1-7 3-5 2 7-4 11-4h12q3 1 2 3v3zh1l1-1h4l1 1h1l3-1 1-1 2-1s-1-4 4-4l11 1 7 2 5 2 4 2 4 3-4-2-2-1-4-2-5-2 1 2-4-2-3-1h-7l-1-1v1h-3l-2 3-2 1-2 1h-8l-3 1"/><path fill="#e7e7e7" d="m314 195-3-1-2-2-2-3h-8c-3 1 1-1 1-1h-4l-2 1-3 1-7 3-5 2 7-4 11-4h12q3 1 2 3v3zh1l1-1h4l1 1h1l3-1 1-1 2-1s-1-4 4-4l11 1 7 2 5 2 4 2 4 3-4-2-2-1-4-2-5-2 1 2-4-2-3-1h-7l-1-1v1h-3l-2 3-2 1-2 1h-8l-3 1"/><path fill="#574f4c" d="m323 194 1 1z"/></svg>