<svg xmlns="http://www.w3.org/2000/svg" xmlns:xlink="http://www.w3.org/1999/xlink" viewBox="0 0 640 480"><defs><radialGradient id="bz-a"><stop offset="0" stop-color="#ffef5d"/><stop offset="1" stop-color="#ea5700"/></radialGradient><radialGradient id="bz-b"><stop offset="0" stop-color="#952d1a"/><stop offset="1" stop-color="#570a00"/></radialGradient><radialGradient xlink:href="#bz-a" id="bz-c" cx="247" cy="238" r="36" fx="247" fy="238" gradientTransform="scale(1.22624 .8155)" gradientUnits="userSpaceOnUse"/><radialGradient xlink:href="#bz-a" id="bz-d" cx="322" cy="153" r="11" fx="322" fy="153" gradientTransform="scale(.93615 1.06821)" gradientUnits="userSpaceOnUse"/><radialGradient xlink:href="#bz-b" id="bz-e" cx="364" cy="238" r="36" fx="364" fy="238" gradientTransform="scale(1.2242 .81686)" gradientUnits="userSpaceOnUse"/><radialGradient xlink:href="#bz-b" id="bz-f" cx="468" cy="156" r="11" fx="468" fy="156" gradientTransform="scale(.95596 1.04607)" gradientUnits="userSpaceOnUse"/></defs><path fill="#ce1126" d="M0 0h640v480H0z"/><path fill="#003f87" d="M0 34h640v412H0z"/><circle cx="320" cy="240" r="189" fill="#fff"/><circle cx="320" cy="239" r="156" fill="none" stroke="#552300" stroke-width="4"/><path fill="#007f00" d="M302 73c14-15 27 3 27 11-1 8-15 26-28 12 13 3 17-12 24-12-7 0-9-15-23-11M155 192c-8-19 14-23 21-19s17 25-1 30c9-11-3-21 0-27-3 6-18 2-20 16m317-19c19 8 7 26 0 28-8 3-30-4-21-21 1 14 17 12 19 18-2-6 11-14 2-25M219 377c-21-2-14-22-8-27 7-5 30-4 26 15-5-13-19-7-24-12 5 5-6 16 6 24m209-15c0 21-21 17-26 11-6-6-8-29 11-27-12 6-4 20-9 25 5-5 17 4 24-9M170 153c-2-21 20-18 26-13 6 6 10 29-10 29 12-8 3-21 7-26-4 5-17-3-23 10m22 193c-20-3-13-24-5-28 7-4 30-2 25 17-5-13-20-8-24-14 4 5-7 16 4 25M354 74c19-9 25 12 21 19-3 8-23 20-29 2 11 7 20-5 26-3-6-2-4-17-18-18m40 314c-9 19-26 6-28-2s6-30 23-19c-14 0-14 16-20 18 6-2 13 11 25 3m91-178c15 13-2 26-10 26-9 0-27-13-13-27-3 14 12 17 12 24 0-7 15-10 10-23zM222 101c4-20 24-11 28-4s0 30-18 24c13-4 9-19 15-22-6 3-16-8-25 2m-62 172c-18-10-4-26 4-28 8-1 29 8 18 24 0-14-15-14-17-21 2 7-12 13-5 25m264-159c20-3 19 18 14 25-6 6-28 11-29-8 8 11 20 1 26 6-6-5 2-18-11-23M306 408c-19 9-23-13-20-20 4-7 24-18 30 0-11-8-20 4-27 1 6 3 3 18 17 19m171-115c8 19-13 24-20 20-8-3-19-23-1-30-8 11 5 21 2 27 2-6 17-3 19-17m-325-61c-12-17 8-25 16-23s22 20 5 29c7-12-7-19-6-26-1 7-16 6-15 20m112 164c-20 7-23-15-19-22s25-17 30 2c-10-9-21 3-27 0 6 3 2 17 16 20m-6-314c12-18 27-2 28 6s-10 28-25 16c14 1 15-14 22-15-7 1-12-13-25-7m201 252c1 20-21 17-26 11-6-5-10-28 10-27-12 7-4 20-8 25 4-5 17 3 23-9m-5-195c21 4 12 24 5 28s-30 2-25-17c5 13 20 9 23 14-3-5 8-15-3-25m-258-14c0-21 21-17 27-10 5 6 7 29-13 27 12-7 5-20 10-25-5 5-17-4-24 8m-26 186c-19-9-5-26 3-28s29 6 19 23c0-14-16-14-18-20 2 6-12 13-4 25M392 91c20-7 23 14 19 21s-25 17-30-1c11 9 21-3 27 0-6-3-2-18-16-20m-41 315c-16 14-27-4-26-12 1-9 16-26 28-10-13-5-18 10-25 10 7 0 9 15 23 12m132-158c15 15-4 26-12 25s-26-16-10-28c-4 13 10 18 10 25 0-7 15-8 12-22"/><path fill="#005800" d="M301 96c13 3 17-12 24-12-4 5-15 17-24 12m1-23c14-15 27 3 27 11-12-20-15-17-27-11M174 203c9-11-2-20 0-26 3 5 9 20 0 26m-19-11c-8-19 14-23 21-19-23 2-22 6-21 19m296-12c1 14 16 12 19 18-6-2-21-7-19-18m21-7c19 8 7 26 0 28 14-17 10-20 0-28M237 365c-5-13-19-7-23-12 6 0 22 1 23 12m-18 12c-21-2-14-22-8-27-9 21-4 22 8 27m194-31c-12 6-4 19-9 24 0-6-1-22 9-24m15 16c0 21-21 17-26 11 22 7 22 2 26-11M186 168c12-7 3-19 7-25 1 7 3 22-7 25m-16-15c-2-21 20-18 26-13-23-4-23 0-26 13m41 182c-4-13-18-8-22-14 6 1 22 3 22 14m-19 11c-20-3-13-24-6-28-10 21-5 22 6 28M345 95c12 7 20-5 26-3-5 3-19 11-25 3zm9-21c19-9 25 12 21 19-3-23-8-21-21-19m34 293c-13 0-12 15-19 17 3-5 9-20 19-17m6 21c-9 19-27 6-29-2 17 16 20 12 29 2m68-179c-3 14 12 17 12 23-5-3-17-13-12-23m22 1c16 13-1 26-10 26 20-12 17-15 10-26m-252-89c13-4 9-18 14-22-1 6-4 22-14 22m-11-20c5-20 25-11 29-4-20-12-22-7-29 4m-39 168c0-14-15-13-17-20 6 3 20 10 17 20m-22 4c-18-10-4-26 4-28-17 16-13 19-4 28m249-142c8 11 20 1 25 5-6 1-22 4-25-6m14-16c21-3 20 18 14 25 4-23-1-23-14-25M316 388c-11-8-20 4-26 1 5-2 20-9 26-1m-10 20c-19 9-23-13-20-20 3 23 7 22 20 20m151-125c-9 11 4 20 1 26-3-5-10-19-1-26m20 10c8 19-13 24-20 20 23-3 21-7 20-20m-303-55c6-12-8-19-7-25 4 5 14 17 6 25m-21-6c-12-17 8-25 16-23-22 7-20 11-16 23m123 144c-10-9-20 3-26 0 6-3 20-9 26 0m-11 20c-20 7-23-15-19-22 1 23 6 22 19 22m-3-292c14 1 15-14 21-15-3 5-11 19-21 15m-3-22c12-18 27-2 28 6-14-18-17-14-28-6m185 236c-12 7-3 19-8 24-1-6-2-21 8-24m16 16c1 20-21 17-26 11 22 6 22 1 26-11m-25-184c4 13 18 8 22 14-6-1-22-3-22-14m19-11c21 4 12 24 5 28 11-20 7-21-5-28m-244 3c13-6 5-20 10-24 0 6 1 22-10 24m-14-17c0-21 21-16 27-10-22-7-23-3-27 10m-4 181c0-14-16-13-18-19 6 2 21 9 18 19m-22 5c-18-9-5-26 3-28-16 16-12 19-3 28m212-200c11 9 20-3 26 0-5 2-20 8-26 0m11-20c20-7 23 14 19 21-1-23-6-22-19-21m-39 293c-13-5-17 10-24 10 4-5 15-16 24-10m-2 22c-15 14-27-4-26-12 10 20 14 17 26 12m110-161c-4 13 10 18 10 24-5-4-16-15-10-24m22 3c15 15-4 26-12 25 21-10 18-13 12-25"/><g fill="#730000" stroke="#000"><path d="M349 120h2l1 4-2 1s1-2-1-5zm-9 31v-3l1-1v4h-1m27-5-4 2 2 1 5-3h-3m-50 14-1 3-2 3v4c1 1 3 8 2 13v9l2 3q2 0 2-2c1-2 0-22-1-28l-3-8-1-3q-2-3-3-13s-5 1-9-9q-3-5-9-5l2-1 5 1 1-3 1-2v7q1 6 7 9 4 1 3-6v-7l2 1v2l2-1h1l-2 4-1 8v8l4 7 1 4 2 4 2 7 1 7q1 3 4-1c3-1 3-6 3-6h1l1 2q-2 4 1 2l6-4h4l-2 2h4l-7 4-8 4q-6 2-7 5v11l-1 10h-11s2-7 0-10l-10-10c-3-2 2-1 2-1v-2l5 6s8-7 0-17l-7-9h-7c-4 1-13 1-16-4l3-1 2-1s-1 4 7 4 8 0 7-7l3-1 1 1v6l5 4 2 1 2-2 3-3 1-2z"/><path d="m319 155 2-3 4-6q3-3 2-8l1 1v4l3-2s-6 6-11 16zm-51-20q0 2 4 6l1-1-3-6-2 1m9-3-1 7 2-1v-5zm51-15 1 11 2-1 1-2 8-3-1-2-4 3-3 1q-3 0-2-6l-2-1m21 32v8h1l1-7-2-1m7 4s-1 3-4 4l4-1 2-2-2-1"/></g><g fill="#289400" stroke="#030"><path d="m327 138 1 1h1l3 3h2v3h1v3l2-2 2 2 3-1 1-1q-8-3-6-7c2-5 7-2 8-1l19 10v-2l-1-3 4 2 3 1v-1l3 3q2 0 2-2l3 3 1-1 2-4 2-2 2-2-2-1-1-1 2-2v-1l-3-2-2-2-2-3 1-1-4-2h2l-5-1-1-2-1 1-3-1 1 1-3-1-1-3-2 2v-1l-3 1v-2l-1 2v-2l-3 3-1 2h-2v2h-2l1 1h-3l1 1s-3 0-3-2h-2l-2 1-1-1v1l-2-2v1l-1-2v3l-1 1-1-1-2 1v-3l-2 2-2 1 1 1h-3l1 1h-3c-2 1 1 1 1 1h-3v1l-3-1 1 2-3 2 2 1-1 1h1l-2 3 3-1q1-1 0 0l2-1v1l2-2z"/><path d="m325 108-1-2h5l1-2 3 2 6-1v3h5v2l6 2q4 2 1 2l3 5-5 1-1-1-1 3-4-2v2l-5-3-2 1-3-3-3 1-2-2v2l-1-2-2-2-2 2-1-2h-4q-1-2 3-5zm-19 13-2 2-1-1-2 2v-1l-1 2-2-1-1 2-1-1-2 2v-2l-2 2-1-1-1 2-1-1-1 1v-1h-1l1-2-1-2 1-1h-2l3-3v-3l2-1q2-1 0-2l3-2v-3l5 1 1-2 4 1 3-2 3 3h3v3l5 2-1 3 4-1v4l5 2-1 2v4l-3-1-1 2-1-1h-2l-1-1v-1l-2 1-2-2v-2l-2 2v-2l-1 1-1-2-1 2z"/><path d="m275 131 4 3v-3l2 1v-2c-1-1 3-3 4 0 0 0 2-2-2-5q-1-1 2-1l-1-1h3l-4-2q-2 0-1-1v-2h-2v-1h-4l-1-2-2 1-3 2-2-1-1 3h-2l1 1h-4l1 3-3 1h1l-3 2h1l-2 2h1l-2 1 1 1-1 1h2l-1 6 2-3-1 3 3-2 1-1v2l1-3 2 1v-1l3 1 1-1h1v2l1-2h1l1-3zm-14 14 2 3-3 2-1 5-1 2 8-4v-1l9-4 1 1 2-2 2 5-2 1 2 5 3-1 2-1v1l3-1 2 1 2-3 2 1 1-2 3-1 1 2 3-2 1 1 4 2 1-3 4 2-2-4 1-2h-1l1-2h-2l1-1-3-1 2-3-8-2 2-1-2-2h-5l-1-2-3 2h-1l-3 1-2-3-3 4-1 1q-2-3-4-2l-2 2h-3l-3 3h-3l-1 2zm44 39v-2l3 2 1-2 2 2 1-2v3l3-2h1v-2l1-3 2-1-4-3-2-1-3-2h-2l-2-2-1 1-3-1v1l-5-1 1 1-4-1v2l-3-1v1l-4 1 1 2-3-1v1l-3 1 1 1-4 3 1 1h-4l2 1-4 4 2 2-1 2 4 1 1 2h4v3l4-4 4 2v-3h2v-3l1 1 2-3 3 4 2-5zm19-11v-5l-1 1v-4h-2l1-4-2-1 1-2 1-1 3-3h7v-2l5 1q2 0 3-2h1l1 2 5 1-2 2h4l2 1 3-1h3l1 1h3l-1 1 3 2v1l3 1h1v2l3 4 3 1q1 2-3 3v2l-2 3-2-1-1 3-5-5-1 2-4-3v2l-3-2-2 1-3-3h-4l2-2h-4l-1-3-1 3-2-2-3 4-1-2c0-2-2 2-2 2l-1-3-1 2-2-2zm1 10v-2l6-2 5-2 2-1 1 2 1-3 2 3 2-1 1 1h2v2h5v2l4 1 1 4 1 5c0 2-2-2-2-2l-1 4-5-1-2 4-3-3-1 3-4-5c-2-2-2 2-2 2l-2-5-2-2-5 5-1-3-3 1q-2 0 0-7z"/></g><g fill="none" stroke="#004b00"><path d="M351 125v2l3-1v2l3 1v1l2 1-2 2 5 3-3 1v2h-2l1 3h-4m14-5v-5l4 3c2 0 0-4 0-4l3 2c2 0-1-3-1-3h3m-45-15-1-2c-2-3 3 3 4 3m4 0 3 1-1-3 4 1 1-2 5 1m-25 0-1-3m-24 12v-3l2 1v-2h1l1-2 2 2 1-2 1 1 2-1h2v-2m-19 10v-3m-24 10v-4h2m9 0q-1-2-3-2m-16 9v-4m25 52 1-3 2 4 1-2 3-2 2 4m41-17 2-3 2 1 1-3 2 1 2-3 2 1 1-2 2 2v-3l2 1s2-2-1-2"/><path d="m344 163 2 3 2-2 2 4 2-1 3 2 2-2 3 3 2-3 3 1 2-4m-85-9 1-3 3 2v-4l4 3v-4l5 1 1-2 3 2v-4l3 2-1-3h3v-3m30 45 2-1 2 2 3-4 2 3 1-3 2 2 1-2 3 2v-3l2 1v-2"/></g><path fill="#9dd7ff" d="m283 298-6-13 43-37 42 37-6 13-1 1-3-1-2 1-3-1-4 1-2-1-4 1-2-1-3 1-3-1-4 1-3-1-2 1-4-1-4 1-4-2-4 1-4-1-3 1-3-1-4 1-3-1z"/><path fill="#fff" stroke="#000" d="M320 205v43l-43 37a84 84 0 0 1-4-27v-53h47"/><path fill="#ffd83c" stroke="#000" d="M320 205v43l42 37a84 84 0 0 0 4-27v-53h-46"/><g stroke="#000"><path fill="#730000" d="m292 289 9 4 21 2q11 1 15-1l3-2-7 7s-26 1-31-2z"/><path fill="none" d="M331 277s8 5 0 14m-38-1 12-12-1 16m6 1v-26m21 26v-27m-11 27v-29"/><path fill="#ff0018" d="m310 271-5 1 5 1v-2m10-4-5 2h5v-2m11 1-6 2 6 1zm3 13c0-2 4-1 4-1v6l-4-1z"/><g fill="#fff"><path d="m295 288 10-10v6s-6 4-6 6l-4-2m5 2s1-3 4-4v6zm15-17h7v5q-2-1-8 1-1-1 1-6zm-9 1h8l-1 5s-5-2-7 0z"/><path d="M306 279h7v5q-2-1-8 1-1-2 1-6zm8 0 9-1q-1 2 1 6s-7-2-9 0zm-9 6 8 1v7s-6-2-8 0zm9 0h11v9s-9-3-11-1q-2-2 0-8zm11-12h8v5s-6-2-8 1zm0 6h8v5s-6-2-8 0zm1 6h7v7s-5-2-7 0c0 0-2-5 0-7z"/><path d="M335 285s1 5 3 6l-3 3s-3-2-3-5z"/></g></g><g stroke="#000"><path fill="#006ac8" stroke="none" d="M355 299a66 66 0 0 1-36 28 67 67 0 0 1-36-29l4-1 3 1 4-1 3 1 3-1 3 1 5-1 4 2 4-1 3 1 3-1 3 1 4-1 3 1 3-1 2 1 3-1 3 1 4-1 3 1 2-1z"/><path fill="none" d="m354 301-2-1-4 2-3-2-3 1-2-1-3 1-3-1-5 2-3-2-4 1-4-1-3 1-4-1-4 1-4-1-4 1-2-1-5 1-3-2-4 2"/><path fill="#5ac800" d="m293 305-3 1v1-1 1l11 11 19 9 17-9q9-6 13-12-3 3-4 1l-2-1-3 1-3-1-4 2-3-2-5 1-4-1-3 1-4-1-4 1-3-1-4 1-3-1-4 1z"/><path fill="#ffd800" d="m320 327 17-9-3-1-2 1-5-1h-18l-4-1-4 2a55 55 0 0 0 19 9z"/></g><g stroke="#000"><path fill="#b34b00" d="M313 249q3-3 2-4h-2l-3-2-3-3-9-11-3-5-13-14q-1-2-5 0-3 3 0 6l13 12 6 3 13 13q2 3 1 4v2z"/><path fill="none" d="m281 214 13 13"/><path fill="#fff" d="m299 220 1-2c0-1 4-7 6-7l11 8-5 8s-14-6-13-7z"/><path fill="#ccb8c8" stroke="none" d="m306 222-6-4-1 2 12 6z"/><path fill="none" stroke="none" d="m300 218 5 3 6 5"/><path fill="#782121" d="m277 253 26-32q2 0 3 2l-24 33s-3 0-5-3z"/><path fill="#730000" d="m363 253-3 1-5-6-26-32 3-2 23 27 9 9z"/><path fill="#fff" d="m338 220-4-5-4 2q1 2-8 5s2 7 9 10c0 0 2-7 5-8z"/><path fill="#730000" d="M328 242h-4l1-2h5l-2 2m28-28v-2q2-2-1-1-3 0-1 5z"/><path fill="#fff" d="m327 243 29-29 7 7h-2l1 2h-2v2h-2v2h-2v2h-2v2h-3l1 2h-2v2h-3l1 2h-2v2h-2v2h-3v2h-2l1 2h-2v2l-2-1v3l-2-1 1 2-2-1z"/><path fill="#7e4b7e" stroke="none" d="m355 216-3 2 1 8s0-2 1-1l1-1zm-5 4-1 2v8s1-3 1-1zm-17 18-2 1 1 5s0-3 1-1v-2z"/><g fill="none" stroke="#7e4b7e"><path d="m331 218 4 5m-3-3-1 4m2-3-2 3m2-3-1 2m1-1v1m-3-3-5 3m4-2-3 2m3-1-3 2m2 0-1 1"/><path stroke-linecap="square" d="m311 225 2-3 2-2"/></g></g><path fill="#289400" stroke="#060" d="M217 303c2 1 0-4 1-6 0-3 4 5 6 6 3 1 16-5 16-5l3-6 1 5 5-6-1 4c-1 2 3 3 3 6-1 3 4-2 4-2l12 1s2-8 5-12l1 5 5-5a66 66 0 0 0 41 39 67 67 0 0 0 41-37l6 7 7-2 15 6v-4c1 0 6 1 6 4l2-3 4 4 15 3 1 3h5l-1 2q0 3-3 4-1 1 2 1 3 2-4 5-1 1 1 3l-4-1-2 4-5-2v2s-7 0-9-3l-2 2-6-4-1 2-5-2v2l-5-3-2 3-5-3-2 2-3-2-1 3-7-1v2l-5-2-1 2-4-1-3 3h-3l-1 3s-6-2-7-1v3l-5-1-1 3s-7-2-8-1l-3 2v-1l-2-3-4 1-7 2-1-3-4 1-2-3h-3v-2l-4-1-3-2h-6l1-1-9 1c-2 0 2-3 2-3l-8-2-10 2-2-2-3 2-1-3-5 2-1-3-4 5v-2l-4 4v-3s-8 5-11 4l1-2h-5l-4-2 4-1s-6-2-8-1q-1-1 2-3l-6-3 5-1-4-7z"/><path fill="#730000" stroke="#000" d="m209 189 71-37-2-5q-29 17-61 30c-2 0-13 5-19 12l-2 4 1 4 2 2h1l2-2z"/><path fill="#fff" stroke="#000" d="m266 152 9-4s3 2 3 5c0 0 1 6 8 10 0 0-6 8-17 9 0 0 1-11-1-14q-1 1 0 0z"/><path fill="none" stroke="#7e4b7e" d="m277 154-8 4m5-2v5m-1-5v5m-1-5v3m-1-2v1m6-1 4 6m-4-5 3 5m-3-3 2 4m-2-2 1 3"/><g stroke="#000"><path fill="#b34b00" d="m342 148 26 13c6 3 8 0 10 2l52 26q8 2 6 5 1 4 3 3l2-1h1l1-1q3-5 1-8c-3-1-3 2-6 1 0 0-5-1-7-3l-8-5c-4 0-28-14-42-21l-6-8-30-15q-4-3-8 3-4 5 5 9z"/><path fill="none" d="m345 143 29 14"/></g><g fill="#ffa54b" stroke="#000" transform="translate(-40)scale(.96)"><path fill="url(#bz-c)" d="M310 165h-1l-1 5-3 3c-2 0-4 3-8 0h-1s1 4-3 6l-16 8v7l-1 1-3 6-3-3 1-4 1-6-3-2-1 1 1 2-1 3-9 5 2 2c0 1 1 10 4 15s4 3 4 4l2 2 5-1 3-5q5-3 6-7l2 13 16 2 12-2v-8l2 6q1 4 5 5 4 0 4-3v-6h9l5 1q2 0 0-2l3 1h4v-1l-4-3-5-1h-6l-6 2-1-1-1-11-1-5v-9q0-3-7-4-6-2-7-7l1-9"/><g fill="none"><path fill="url(#bz-d)" d="M292 154v9l2 7 3 3c3 3 7 0 8 0l3-3 1-4 1-1 1-3-2-2v-8q-7 3-15 2l-1-1-1 1"/><path fill="#000001" d="M292 155v-3l1-3 2-2h3l9-1 4 4 1 8q0 4-1 3-1-2-2 0v-8l-9 2-7-2-1 2"/><path fill="#fff" stroke="#fff" d="m295 152-1-4 2 4z"/><path d="m298 160-1 3m11 2h1m0-4q2 0 1 2m-18-5 3 1q2 1 0 4v3h2l1-1 1 1 1-2m0-4 1-1h5m-5 11h-5m0-1h5m-6 1h6"/><path fill="#fff" stroke="none" d="M292 160h4q0 2-2 2zm9 1 2-1 2 1h-2z"/><path fill="#000001" stroke="none" d="m294 161-1-1-1 1zm8 1 1-1-1-1z"/></g><g id="bz-g"><g fill="none"><path d="m346 214-2-2-2-1-2-1m0 3-1-1h-1l-2-1m-63-10q2 1 3 6l1 3m-13-8q0 4 6 13m-5-21v3m15 11 4-5m1 4-1-8v-8s2 7-3 9m34 12 1-6v-9q2-1 0-9s3 11-4 11c-8 0-7-3-7-3"/><path d="M284 191c0 2 0 8 9 8l8-3m2-3v-7m-14-3 9-1m0-6q0 4 4 6m5-7-1 4m0 3h9m1 22 4 7m-32-12q-2 3 0 9a12 12 0 0 1-1 12m6-19-2 4m6-1c0 1-2 8-4 10l3 7m7-21 1 2m3 1c1 1 5 6 4 9m-7-7-1 9m-2 0q-2 0-3 3m9-3q2-2 3 7m16-11-3 2-2 1"/></g><path fill="#000001" stroke-width="0" d="m290 198 1-1-1-1-1 1zm23 0 1-1h-2z"/><path fill="#fff" d="M281 240q3-13 5-15l10 1h19l1 4 2 34 1 12 3 40h-3s-14 1-14-1-1-27 1-42l-1-5-5-12-6 19-1 41-10 7c-1 1-9-3-9-4l5-33v-11c0-2 0-27 2-35z"/><path fill="none" d="m294 275-3 6m-3-54q0 3-7 11m14-10c-1 4-5 23-6 46m0 7-2 20m-1 4-3 18m33-36c-1 2-1 16 3 28m-18-86-1 18 2 3-2 6m-4-13-3 11m13-25h5l4 46m-11-42v16m2 2 1 4m-17-28 3 1m5 2-1 4m9 39 1 5"/><path fill="#9b5f00" d="m285 224 1-4 9 1h12l8-1v5l-8 1h-15z"/><path fill="#fff" d="m288 225 1-5h1l-1 5h-1m22-4v5h2l-1-5h-1m-15 0-1 5h1l1-5h-1"/><path d="m277 321-1 5q-1 3 1 4l1-3v4c2 0 3-4 3-4q-2 3 0 4c2 0 2-4 2-4v5c2 0 2-4 2-4s-1 5 2 4l2-3v-6l-1-3-5 3c-1 1-6-2-6-2zm30-5-1 3q-1 3 3 3h9l7 1 4-1h3l2-1q-1-2-3-2l-5-1-6-2z"/></g><g fill="none"><path fill="#ffb366" d="M256 190v-3l2-2 3-2 3-1 3 3v2q-1 1-1-1l-1 2h-1l-1 2-2-1v2h-2q-1-2-3-1z"/><path d="m266 186-4-3m2 5-1-2-4-1m2 4-1-1-4-1"/></g></g><g stroke="#000" transform="translate(-40)scale(.96)"><path fill="url(#bz-e)" d="m439 165 1 1 1 4 1 2q4 3 10 2l1-1s-1 4 3 6l16 8v8l4 6 3-3-1-4-1-6 3-2 1 1q0 2-2 2l1 3 10 5-2 2c0 1-1 10-4 15l-4 4-2 1h-5l-3-5q-5-3-6-7l-2 13-16 2-12-2v-8l-2 6q-2 4-5 5-4 0-4-3v-6h-9l-5 1q-2 0-1-2h1l-3 1h-4v-1l4-3 5-1h6l6 2 1-1v-9l1-5-1-7q1-8 8-9 7-2 7-6v-9"/><g fill="none"><path fill="url(#bz-f)" d="m456 154 2 5-1 3q1 3-2 8l-3 4q-5 1-9-2l-2-2-1-4-1-1-1-3q0-2 2-2l-1-6 1-2q7 3 15 2l1-1v1"/><path fill="#000001" d="m457 155-1-4-2-3q-1-2-2-1h-6l-5 1-3 3-1 7 1 3h2l-1-4 1-5 9 2 7-1z"/><path d="m450 160 1 2m-10 3h-1m17-6h-4v4l1 2-2 1h-3v-2m0-4-2-1-5 1m12 9h-2l-2-1-2 1m6 0h-6m0 1h5"/><path fill="#fff" stroke="none" d="M456 160h-3q0 2 2 2zm-8 1-3-1-1 1h1z"/><path fill="#000001" stroke="none" d="m455 161 1-1zm-9 1v-1l1-1v1z"/></g><use xlink:href="#bz-g" width="100%" height="100%" fill="#730000" transform="matrix(-1 0 0 1 749 0)"/><g fill="none"><path fill="#730000" d="M492 194q2-1 0-3 1-1-2-2l-3-2-3-2-3 3v3l1-1 1 2q1 1 1-1l2 2h2l-1 1z"/><path d="M483 190q1-3 4-3m-2 4v-1l5-2m-3 5 2-2h3"/><path fill="#730000" stroke="none" d="m482 187-2 2 1 3 1-1 1 2 1-1 1 2h2v1h2q-1-2 2-1l1-1-7-5z"/><path d="M481 188q-2 4 1 3 1 3 2 1 2 4 3 1 0 3 2 1h2l1-1m-8-6-2 4m5-2-3 3m6-1-3 2"/></g></g><path fill="#5ac800" d="m239 311-1-5 2 2 1-4 2 2v-4l2 3 1-4 2 4c0 2 2-2 2-2l2 5 1-2 1 4 2-4 2 4h4l1 2 2-2 2 2 3-1 3 2 1-2 2 1 2-3 2 3 1-3q1-1 2 1l1-4 3 2c1 2 1-2 1-2l3 5s-17 6-28 4zm110-1 2-3 2 3 2-1 2 2 1-2 2 2 3-1 2 1 5-1 1 1 2-2 2 2 3-3 1 2 3-2q1-1 2 1l1-2q1-3 2 1l2-3 1 4 4-2-1 5 3-3v5l3-1v3l3-1s-14 2-27 1-26-6-26-6m-9 10s-5 10-17 11c-17 1-31-8-31-8l3-4 3 5 1-3q2 0 3 3l2-2q2 0 2 3l3-2 2 5 3-2 2 4 5-2 3 2 4-5 2 2 2-4 1 2 2-3 2 2z"/><path fill="none" stroke="#060" d="m239 311-1-5 2 2 1-4 2 2v-4l2 3 1-4 2 4c0 2 2-2 2-2l2 5 1-2 1 4 2-4 2 4h4l1 2 2-2 2 2 3-1 3 2 1-2 2 1 2-3 2 3 1-3q1-1 2 1l1-4 3 2c1 2 1-2 1-2l3 5m58-1 2-3 2 3 2-1 2 2 1-2 2 2 3-1 2 1 5-1 1 1 2-2 2 2 3-3 1 2 3-2q1-1 2 1l1-2q1-3 2 1l2-3 1 4 4-2-1 5 3-3v5l3-1v3l3-1m-110 8 3-3 3 4 1-3q2 0 3 3l2-2q2 0 2 3l3-2 2 5 3-2 2 4 5-2 3 2 4-5 2 2 1-4 2 2 2-3 2 2 3-4"/><g fill="#fff"><path d="M320 362c22 0 35-8 42-13 16-11 20-11 23-11q6 0 8 4c0 4-7 6-11 6l-14-3-3 2c2 1 23 8 27 1l9-17s-5-9-16-9c-10 0-20 7-27 12s-16 12-39 12c-22 0-31-7-38-12s-17-12-28-12a18 18 0 0 0-15 9s4 11 9 18c4 6 25-1 27-2l-3-2-14 3c-4 0-11-2-11-6q3-4 8-4c3 0 7 0 23 11a72 72 0 0 0 43 13"/><path d="M284 336v-5q-2-4-4-4l-3 4-3-2 6-4 19 9 1 9zm-6 14s-3 3-3 8q1 8 7 7 7 0 7-9zm77-14v-5q2-5 4-3l3 3 3-2-6-4-19 9-1 9zm6 14s3 3 3 8q-1 8-7 7-6 0-7-9z"/></g><path fill="#69f" d="m271 345-14 3c-4 0-11-2-11-6q3-4 8-4c3 0 6 0 17 7m96 0 15 3c4 0 11-2 10-6q-1-4-8-4-1-2-16 7m-84-9-3-2-4-3 3-3q2-1 4 3zm-7 28h5q7 1 7-8l11 4 2 4q-1 5-3 5l-17-3zm78-28 3-2 4-3-3-3q-3-1-4 3zm7 28h-5q-7 1-7-8l-12 4-1 4q1 5 3 5l17-3z"/><g fill="none" stroke="#000"><path d="M320 362c22 0 35-8 42-13 16-11 20-11 23-11q6 0 8 4c0 4-7 6-11 6l-14-3-3 2c2 1 23 8 27 1l9-17s-5-9-16-9c-10 0-20 7-27 12s-16 12-39 12-31-7-38-12-17-12-27-12-16 9-16 9l9 18c4 6 25-1 27-2l-3-2-14 3c-4 0-11-2-11-6q3-4 8-4c3 0 7 0 23 11a72 72 0 0 0 43 13z"/><path d="m271 345-14 3c-4 0-11-2-11-6q3-4 8-4c3 0 6 0 17 7zm97 0 14 3c4 0 11-2 10-6q-1-4-8-4-1-2-16 7zm-84-9-3-2-4-3 3-3q2-1 4 3z"/><path d="M284 336v-5q-2-4-4-4l-3 4-3-2 6-4 19 9 1 9-16-7m-6 14s-3 3-3 8q1 8 7 7 7 0 7-9z"/><path d="m280 351-3 7q0 5 5 4 6-2 3-8l-5-3"/><path d="M277 364h5q6 1 7-8l11 4 2 4q0 5-4 5l-16-3zm78-28 3-2 4-3-3-3q-3-1-4 3z"/><path d="M355 336v-5q1-4 4-4l3 4 3-2-6-4-19 9c-1 1-2 7-1 9l16-7m6 14s3 3 3 8q-1 8-7 7-6 0-7-9z"/><path d="M359 351s2 3 2 7q1 5-4 4-6-2-3-8l5-3"/><path d="M362 364h-5q-7 1-7-8l-12 4-1 4q1 5 3 5l17-3z"/></g><path fill="none" stroke="#fff" d="M300 361s3 3-1 6m-9-7 10 4m-8-2 7 3m-5-5 6 3m39-2s-3 3 1 6m9-7-10 4m8-2-7 3m5-5-6 3"/><path stroke="#000" d="M261 331v2l-1 1-2 1-1-1h-2l1-3v1l1 1v1h3v-2l-1-1h-1v-1l-1-1-1-1 1-1 1-1h1l1 1h2l-1 3v-2l-1-1h-2v2l1 1 1 1h1m12 2h-2v1l-2 3-2 1h-2l-1-1-1-1v-2l3-4v-1h-1v-1l4 2h-2v1l-2 4v2l1 1h1l1-1h1l1-3 1-1v-1h-1v-1l3 2m4 7v2l-1 1h-2l-4-2v-1l1 1 1-1 3-5v-1h-1l4 2 1 1v1l-1 1h-2zm0-1v-1h1v-1l-1-1v-1h-1l-1 3 1 1zm-1 2v-1l-1-1-1-1-1 3v1h2zm19 5h-2v1l-2 3v1l-1 1h-1l-3-1v-1l-1-1 1-1 2-5-1-1 3 1v1h-1l-2 4v2l1 1h1l2-1 1-3 1-1v-1h-1v-1l3 1v1m9 10-3-1h1l2-6-5 6-1-8-1 5-1 1 1 1v1l-3-1v-1h2v-1l1-4v-2h-1 3l1 7 3-4 1-1h2v1h-1l-2 6v1h1m9-2 1 2-1 1h-7 1l1-1v-7h-1 5l1 1 1 1-1 1v1h-2zm-1-2v-2h-1l-1-1-1 4h2zm0 3v-1l-2-1h-1v4h2zm11 3h-2l-1-2-1-2h-1v3h1v1h-4v-1h1v-7h-1v-1h5l1 1h1v2l-1 1-1 1 1 1 1 1 1 1zm-3-6v-2h-2v3h2zm13 5h-3 1v-1l-1-1h-3v1l-1 1h2v1h-3v-1h1v-1l1-3 1-4h1l3 7zm-3-3-2-3-1 3zm15-7v1l-1-1-1-1-1 1h-1l1 3h1l1-1v-1l1 3h-1v-1h-1l-1 1 1 3h1l-3 1h-1 1v-1l-1-6h-2v-1l7-2v2m10 0 1 2-6 3v-2l-2-5h-2v-1l3-1h1-1v1l2 5 1 1h1l1-1v-2h1m4-9 2 1 1 2 1 1v2l-1 1-1 1-4 1-1-1-1-1-1-2v-2l2-2 2-1zm3 6-1-1v-2l-1-1-1-1h-3v1l-1 1 1 2 1 2 1 1h2zm10-6-2 2-2-1-2-1-1 1 2 2h1l-3 2 1-1-4-5v-1h-1v1l-1-1 4-2h1v-1h1l1 2v2l1 1zm-6-3-1-1-1 1h-1l2 3 1-1zm13-2 1 2-7 3v-1h1v-1l-2-5v-1h-2l6-2 1 2-1-1h-3l1 4 1-1h1v-2l1 3v1l-1-1h-2l1 2v1h2l1-1 1-1v-1m7-6 1 1 1 2v2l-1 1-3 2-3-1-1-1v-5l3-2h2zm0 6v-4l-1-1-1-1h-2l-1 1v5l1 1h1l1 1 1-1z"/><path fill="none" stroke="#000" d="M366 205v53c0 11-1 53-46 69a70 70 0 0 1-47-69v-53h93"/></svg>