<svg xmlns="http://www.w3.org/2000/svg" xmlns:xlink="http://www.w3.org/1999/xlink" viewBox="0 0 640 480"><defs><path id="cc-a" d="m0-360 69 216 212-80L156-36 351 80l-226 20 31 224L0 160l-156 164 31-224-226-20 195-116-125-189 212 81z"/><path id="cc-b" d="M0-210 55-75l145 10L89 29l34 141L0 93l-123 77 34-141-111-94 145-10z"/></defs><path fill="green" d="M0 0h640v480H0z"/><circle cx="320" cy="240" r="67" fill="#ffe000"/><circle cx="341" cy="240" r="55" fill="green"/><circle cx="110" cy="173" r="70" fill="#ffe000"/><path fill="#802000" stroke="#7b3100" stroke-width="2" d="M105 226h18l-1-2q-3-1-3-4c2-6 2-4 3-18l2-36h-2l-1 16-4 16-3 11-4 8-3 5-1 1z"/><path fill="green" d="m118 123-1 9-2 9c-2 1-4-3-6-1l7 10c0 1 3 4 1 5q-5-4-8-11a19 19 0 0 0-15-10c-3 0-11 0-9 4l10 6q5 2 6 5l-10-5q-10-3-17 5-1 3 1 6 3-6 10-6c3 0-4 6-1 5l4-2 4 1 2 2-3 1-3 2h-5q-8-3-11 3l-3 1q1 4-4 4l-6 6c1 3 7-4 7-1-3 4 1 4 3 2 3-3 6-7 11-4 2 2 3-1 4-1 1 3 2 0 3 0 2-1 2 2 4 0 4-2 9 0 13-3 4-2 0 2-1 3-2 4 0 9-4 11-2 4 2 10-2 13 0 2 5 2 6 3 3 0 0-6 3-7 3 2 3-4 2-6l3-12c2-4 4 2 2 4q-4 7-1 13l3 3q2 1 3-2l3-18q3-3 5 1l8 11 8 7c0 3 8 3 5 0q-2-4 2-7v-1q-3-2 0-2c4 1 0-3-1-3q-5-1-8-7l12 1q5-1 7 3 2-1 0-4 3-1 1-3c-1-1 1-4-2-4q0-4-4-5c-2-3-10 3-10-2-1-3 3-1 4-2 2-3-5-3-3-5 2-1 8-2 3-3l-7-1c-2 3-7-2-6 4-1 2-6 7-7 3 1-3 7-4 5-9 0-2-3 1-4 1q0-3 4-5c3 3 3-3 6-2q1-2-2-2c1-1 4-2 1-4s-5 2-7 3c-3-3 2-4 3-5l-2-2c1-1 5-1 3-3l-10 1-4 5q0-4-3-6m15 42c3-1 0 4-1 3 0-1-3-1-1-2z"/><g fill="#ffe000" transform="translate(0 80)scale(.0635)"><use xlink:href="#cc-a" width="100%" height="100%" x="7560" y="4200"/><use xlink:href="#cc-a" width="100%" height="100%" x="6300" y="2205"/><use xlink:href="#cc-a" width="100%" height="100%" x="7560" y="840"/><use xlink:href="#cc-a" width="100%" height="100%" x="8680" y="1869"/><use xlink:href="#cc-b" width="100%" height="100%" x="8064" y="2730"/></g></svg>