<svg xmlns="http://www.w3.org/2000/svg" xmlns:xlink="http://www.w3.org/1999/xlink" viewBox="0 0 640 480"><path fill="#0021ad" d="M0 0h640v480H0z"/><path fill="#1c8a42" d="M0 0h640v480z"/><circle cx="320" cy="240" r="58" fill="#ffc639"/><path fill="#1c8a42" d="M285 214c4 6 10 15 14 12q6-1 7 3a37 37 0 0 0 33-14s0 0 0-5q1-2 3-1l1 2 4-5v-2q2-2 3 0v1h6l1-1h1c0 8 2 8 2 12l-2 7c1 3 7 3 5 4s0 3-3 4q-12 8-10 9c2 1-3 4-3 4-1 3-3 1-4 2v8l-1 7-3 8-1 12-14-2q3-18 2-21c-1-8-12-6-14-7l-3-2-3-1-2 2c-5 0-7-4-7-4 1-2-9 0-15-1l-5 5-4-2 3-4 5-4q0-4 2-7l3-1c1-1 2-6 1-7l-5-4q0-7 3-7"/><path fill="#ffc639" d="M562 142c-3-10-26-32-44-46q-7-4-6 3l6 11 2 6 1 5q7 10 6 11a49 49 0 0 0 12 16c6 4 1 16 1 22q-1 5-5 3c-20-18-40-18-58-24q-9 1-5 5a129 129 0 0 0 39 29l8 5 9 7q9 8 7 9-2 13-5 17-6 12-7 11c-38 25-58 32-119 24-1-1-7 0 0 3 16 5 54 13 91-4 9-7 15-5 21-8l28-16c9-4 32-9 37-14q10 1 13-6c2-1 5 0 7-5l4-2q-3-5-9-8-7-2-11 0l-4 2-5-2c-11 0-10-38-14-54"/><path fill="#1c8a42" d="M589 204a3 2 16 1 1-6-2 3 2 16 0 1 6 2"/><g fill="#fff" transform="matrix(.64 0 0 .64 0 80)"><path id="cx-a" d="m188 191-13-12-13 12 2-18-17-2 14-10-9-15 17 5 7-16 6 16 17-5-9 15 14 10-17 3z"/><path d="m233 336-13-10-14 10 5-15-14-10h17l5-16 6 15h16l-13 10z"/><use xlink:href="#cx-a" width="100%" height="100%" x="3" y="269"/><use xlink:href="#cx-a" width="100%" height="100%" x="-112" y="123"/><use xlink:href="#cx-a" width="100%" height="100%" x="108" y="85"/></g></svg>