<svg xmlns="http://www.w3.org/2000/svg" viewBox="0 0 640 480"><g fill-rule="evenodd"><path fill="#be0027" d="M0 0h640v480H0z"/><path fill="#b4d7f4" d="M0 480h640V240z"/><path fill="#239e46" d="M0 0h640v240z"/><path fill="#f3e295" d="M186 360c-11 3-17 12-17 19h53q1-13-17-19c52-1 97-20 105-33-8-3-18 2-24 1 16-7 63-38 55-71-6 19-24 34-32 38 18-27 42-55 21-77 1 13-8 27-12 28 11-29 20-64-2-88 3 9 2 33-2 34-1-20-5-60-25-60 6 6 9 22 9 38a58 58 0 0 0-21-27 118 118 0 0 0-41-43c2 13 3 23 21 36-9 0-19-18-28-18-8-1-14 7-27 3 1 4 7 6 8 9q-5 2-14-3c7 10 19 16 28 14q18-4 37 6a63 63 0 0 1-23 0c7 7 12 12 24 12 10 0 16-6 19-2l17 25c-13 1-9-14-23-22-8 16 9 35 21 43a65 65 0 0 0 7 32c3 6 8 13 6 28-7-5-14-22-11-36-9 3-12 18-8 25 3 6 5 17 2 22-4 5-4 4-4 14q0 10-9 18l1-16c-4 7-14 15-18 22-3 8-4 22-20 25-20 4-27 7-40 13-2-10 2-31 11-30 8 1 33-9 24-29-2 6-8 13-14 13 7-9 19-18 13-33a43 43 0 0 1-16 18c8-16 1-21-9-8q-5 9-9 29c-4-11-4-25-8-36-5-12 6-16 12-15 13 4 34 4 33-18q-10 12-26 7c12-8 21-25 8-34a31 31 0 0 1-17 24 51 51 0 0 1-1-24q-8 9-12 30 1-19 4-29c3-11 10-4 20-3 11 0 24-5 22-19q-7 9-18 7c9-5 24-15 16-29-4 5-5 10-15 12 3-6 3-15 11-18q-20-3-26 20c-2-10-4-13-4-21 7-8 8-24-8-28a35 35 0 0 0 1 17c-8-4-19-7-26 0 5 5 13 10 24 4-3 9-10 7-20 4q9 15 22 12c5 12 5 20-8 37q3-14-8-27c-7-7-13 1-2 16q-11-9-17-25-3 21 7 36-4 4-13-9c2 27 14 32 30 26l1 47c-9-13-21-23-27-25-2 7 6 17 10 22-7-1-21-12-21-12-1 12 15 23 25 28-12 0-17-5-25-12 0 34 36 28 43 23l3 52c-10-2-9-5-18-5-24-1-44-30-50-51q-2 5-2 12c-4-11-9-24-16-30q3 8 1 23c-2-7-4-9-5-18 1-6 7-11 6-20 0-7-6-22-7-33q-4 19-9 31c2-12 1-21 5-29q8-13 5-26c-2 4-2 7-9 15-1-9 10-23 20-29 7-4 16-18 10-27q-7 6-19 23c7-27 25-34 46-34 5 0 15-2 17-8q-9 3-19 1c4-7 14-6 23-6 7 0 19-1 23-11a51 51 0 0 1-31 2c14-7 35-8 46-17-12-10-44 2-63 15l19-21c-11-5-38 25-48 43q-12 9-16 19c5-17 5-28 9-41-30 10-17 67-24 80 1-15 0-34-6-44-9 7-10 50-1 85q-7-13-12-30c-13 26 9 56 27 79-14-7-27-23-37-36 3 46 50 55 58 67-10-5-29-14-37-5a99 99 0 0 1 32 12q17 23 76 24"/></g></svg>