<svg xmlns="http://www.w3.org/2000/svg" viewBox="0 0 640 480"><g font-size="12"><path fill="#fff" fill-rule="evenodd" d="M0 0h640v480H0z"/><path fill="#09c" d="M640 410 92 0H0v68l550 412h90z"/></g><g font-size="12"><path fill="#005bbf" d="M316 352c-64 0-62-60-62-60v-93h124v93s3 60-62 60"/><path fill="none" stroke="#000" d="M297 401c-60 0-58-56-58-56v-87h116v87s2 56-58 56z" transform="matrix(1.06667 0 0 1.06758 0 -76)"/><path fill="#d81126" d="M316 141s-13-6-26 3c0 0-22-3-24 18v3l1 2 1 1v2l1 3 1 5 1 4 2 4v5l2 2c2 0 17 5 40 5s32-2 41-5l2-2v-4c1 0 4-5 3-6v-3l2-5 1-3 1-3 2-1v-9c-1-2-5-14-21-11 0 0-12-10-30-5"/><path fill="none" stroke="#000" stroke-width="2" d="M296 203s-12-6-24 3c0 0-21-3-23 17l1 3v2l1 1v2l1 2 1 5 1 4 2 3v5l2 2c1 0 16 5 38 5 21-1 29-2 38-5l2-2v-4q2-2 2-5v-3l3-5 1-3v-2l2-2v-7c-1-3-4-14-20-11 0 0-11-9-28-5z" transform="matrix(1.06667 0 0 1.06758 0 -76)"/><path fill="#bcac0b" d="M360 181c-50-16-89-1-89-1l1 3 1 2v3q0 3 2 4s35-13 81 1l1-3 1-4z"/><path fill="#c8b100" d="M314 265h-22s-2 19 15 25v2h3v2s-6 6-1 12v2h1v3h1v5s-1 19-19 27v1h48v-1c-18-8-19-27-19-27v-5h1v-3h1v-2c6-6-1-12-1-12v-2h4v-2c17-6 15-25 15-25z"/><path fill="none" stroke="#000" d="M294 319h-20s-2 19 13 24v2h4v2s-6 5-1 11v2h1v3h1v5s-1 17-18 25v1h45v-1c-17-8-18-25-18-25v-5h1v-3h1v-2c5-6-1-11-1-11v-2h4v-2c15-5 13-24 13-24z" transform="matrix(1.06667 0 0 1.06758 0 -76)"/><path fill="none" d="M306 290h21m-21 2h20m-16 2h12m-13 13h14m-13 1h12m-12 3h12m-19 25h27m-35 6h42m-44 1h46"/><path fill="#ccc" d="M316 264a14 14 0 1 0 0-28 14 14 0 0 0 0 28"/><path fill="none" stroke="#000" d="M297 318a13 13 0 1 0 0-26 13 13 0 0 0 0 26z" transform="matrix(1.06667 0 0 1.06758 0 -76)"/><path fill="#ccc" d="M284 223h-9v-9h-7v9h-9v8h9v8h7v-8h9z"/><path fill="none" stroke="#000" d="M266 280h-8v-8h-7v8h-8v7h8v8h7v-8h8v-7" transform="matrix(1.06667 0 0 1.06758 0 -76)"/><path fill="#ccc" d="M374 223h-9v-9h-7v9h-9v8h9v8h7v-8h9z"/><path fill="none" stroke="#000" d="M351 280h-8v-8h-8v8h-8v7h9v8h7v-8h8v-7" transform="matrix(1.06667 0 0 1.06758 0 -76)"/><path fill="#ccc" d="M329 212h-9v-9h-8v9h-8v8h8v8h8v-8h8z"/><path fill="none" stroke="#000" d="M308 270h-8v-8h-7v8h-8v7h8v8h7v-8h8v-7" transform="matrix(1.06667 0 0 1.06758 0 -76)"/><path fill="#ccc" d="M284 261h-9v-9h-7v8h-9v8h9v9h7v-9h9z"/><path fill="none" stroke="#000" d="M266 315h-8v-8h-7v8h-8v7h8v8h7v-8h8v-7" transform="matrix(1.06667 0 0 1.06758 0 -76)"/><path fill="#ccc" d="M374 261h-9v-9h-7v8h-9v8h9v9h7v-9h9z"/><path fill="none" stroke="#000" d="M351 315h-8v-8h-8v8h-8v7h9v8h7v-8h8v-7" transform="matrix(1.06667 0 0 1.06758 0 -76)"/><path fill="#ccc" d="M284 298h-9v-8h-7v8h-9v8h9v9h7v-9h9z"/><path fill="none" stroke="#000" d="M266 351h-8v-8h-7v8h-8v7h8v8h7v-8h8v-7" transform="matrix(1.06667 0 0 1.06758 0 -76)"/><path fill="#ccc" d="M374 298h-9v-8h-7v8h-9v8h9v9h7v-9h9z"/><path fill="none" stroke="#000" d="M351 351h-8v-8h-8v8h-8v7h9v8h7v-8h8v-7" transform="matrix(1.06667 0 0 1.06758 0 -76)"/><path fill="#005bbf" d="M316 122a8 8 0 1 0 0-16 8 8 0 0 0 0 16"/><path fill="none" stroke="#000" d="M297 186a8 8 0 1 0 0-16 8 8 0 0 0 0 16z" transform="matrix(1.06667 0 0 1.06758 0 -76)"/><path fill="#fc0" d="M324 113h-7v-11h3v-3h-3v-2h-2v2h-3v2h3v11h-6v2z"/><path fill="#bcac0b" stroke="#000" d="M304 177h-7v-11h3v-2h-3v-2h-2v2h-2v2h2v11h-6v1h15v-1" transform="matrix(1.06667 0 0 1.06758 0 -76)"/><path fill="#fc0" d="m283 132 10 1s-4 5-4 11l2 6 2 7h1s1-5-1-8a11 11 0 0 1-1-11l5-5a18 18 0 0 0 12-2q4-2-1-3-6-1-14 3s-2-3-13-1q-17 1-22 16c-1 5 4 16 8 18v-3s-7-8-5-16q4-12 21-13"/><path fill="#bcac0b" stroke="#000" d="M265 195s6-1 9 1l-3 10 2 6q2 2 1 6h1s2-4 0-7a10 10 0 0 1-1-10l4-6c3 2 10 0 12-1q4-2-1-3-6-1-13 3 2-2-13-2-16 2-20 16c-1 4 3 14 7 17l1-3s-7-8-5-15q4-11 19-12z" transform="matrix(1.06667 0 0 1.06758 0 -76)"/><path fill="#fff" d="m304 131 3-1h-3l-4 1z"/><path fill="none" stroke="#000" d="M278 195s-2 2 0 0 7-3 9-2c3 0 0 1-1 1h-5" transform="matrix(1.06667 0 0 1.06758 0 -76)"/><path fill="#fc0" d="M350 133s-6-1-10 1a16 16 0 0 1 1 17q-2 2-1 7h-1s-2-5 0-8a11 11 0 0 0 1-11l-4-6c-4 2-11 0-13-1q-4-2 1-4 7-1 14 4s2-3 14-2q17 1 21 16c2 5-3 16-7 19l-1-3s8-9 6-16q-6-12-21-13"/><path fill="#bcac0b" stroke="#000" d="M328 196h-9a15 15 0 0 1 1 16l-2 7h-1s-1-5 1-7a10 10 0 0 0 1-11l-4-5q-7 1-12-1-4-3 1-4 6-1 13 3-2-1 13-1 16 2 20 15c1 5-3 15-7 17l-1-2s7-8 5-15q-4-12-19-12z" transform="matrix(1.06667 0 0 1.06758 0 -76)"/><path fill="#fff" d="M329 131h-4zh3z"/><path fill="none" stroke="#000" d="M315 196s2 2 0 0q-4-3-9-3c-3 1 0 1 1 1h5" transform="matrix(1.06667 0 0 1.06758 0 -76)"/><path fill="#fc0" d="M311 126v24q0 4 5 7s5-2 5-7v-25h-1v22q0 5-4 6c0 1-4 0-4-6z"/><path fill="#bcac0b" stroke="#000" d="M291 189v23q1 4 5 6s5-2 5-6v-24h-1v21q0 4-4 6-1 1-4-6v-20h-1" transform="matrix(1.06667 0 0 1.06758 0 -76)"/><path fill="#fff" d="M258 159a3 3 0 1 0 0-6 3 3 0 0 0 0 6"/><path fill="none" stroke="#000" d="M242 220a3 3 0 1 0 0-5 3 3 0 0 0 0 5z" transform="matrix(1.06667 0 0 1.06758 0 -76)"/><path fill="#fff" d="M256 152a3 3 0 1 0 0-6 3 3 0 0 0 0 6"/><path fill="none" stroke="#000" d="M240 214a3 3 0 1 0 0-6 3 3 0 0 0 0 6z" transform="matrix(1.06667 0 0 1.06758 0 -76)"/><path fill="#fff" d="M257 144a3 3 0 1 0 0-5 3 3 0 0 0 0 5"/><path fill="none" stroke="#000" d="M241 206a3 3 0 1 0 0-5 3 3 0 0 0 0 5z" transform="matrix(1.06667 0 0 1.06758 0 -76)"/><path fill="#fff" d="M261 138a3 3 0 1 0 0-6 3 3 0 0 0 0 6"/><path fill="none" stroke="#000" d="M245 200a3 3 0 1 0 0-5 3 3 0 0 0 0 5z" transform="matrix(1.06667 0 0 1.06758 0 -76)"/><path fill="#fff" d="M267 133a3 3 0 1 0 0-6 3 3 0 0 0 0 6"/><path fill="none" stroke="#000" d="M250 196a3 3 0 1 0 0-6 3 3 0 0 0 0 6z" transform="matrix(1.06667 0 0 1.06758 0 -76)"/><path fill="#fff" d="M274 130a3 3 0 1 0 0-6 3 3 0 0 0 0 6"/><path fill="none" stroke="#000" d="M256 193a3 3 0 1 0 0-5 3 3 0 0 0 0 5z" transform="matrix(1.06667 0 0 1.06758 0 -76)"/><path fill="#fff" d="M281 129a3 3 0 1 0 0-6 3 3 0 0 0 0 6"/><path fill="none" stroke="#000" d="M263 192a3 3 0 1 0 0-5 3 3 0 0 0 0 5z" transform="matrix(1.06667 0 0 1.06758 0 -76)"/><path fill="#fff" d="M287 129a3 3 0 1 0 0-6 3 3 0 0 0 0 5"/><path fill="none" stroke="#000" d="M269 192a3 3 0 1 0 0-6 3 3 0 0 0 0 6z" transform="matrix(1.06667 0 0 1.06758 0 -76)"/><path fill="#fff" d="M293 129a3 3 0 1 0 0-6 3 3 0 0 0 0 6"/><path fill="none" stroke="#000" d="M275 192a3 3 0 1 0 0-5 3 3 0 0 0 0 5z" transform="matrix(1.06667 0 0 1.06758 0 -76)"/><path fill="#fff" d="M310 127a3 3 0 1 0 0-6 3 3 0 0 0 0 6"/><path fill="none" stroke="#000" d="M291 190a3 3 0 1 0 0-5 3 3 0 0 0 0 5z" transform="matrix(1.06667 0 0 1.06758 0 -76)"/><path fill="#fff" d="M316 128a3 3 0 1 0 0-5 3 3 0 0 0 0 5"/><path fill="none" stroke="#000" d="M296 191a3 3 0 1 0 0-5 3 3 0 0 0 0 5z" transform="matrix(1.06667 0 0 1.06758 0 -76)"/><path fill="#fff" d="M316 150a3 3 0 1 0 0-6 3 3 0 0 0 0 5"/><path fill="none" stroke="#000" d="M296 211a3 3 0 1 0 0-5 3 3 0 0 0 0 5z" transform="matrix(1.06667 0 0 1.06758 0 -76)"/><path fill="#fff" d="M375 161a3 3 0 1 0 0-6 3 3 0 0 0 0 6"/><path fill="none" stroke="#000" d="M351 222a3 3 0 1 0 0-6 3 3 0 0 0 0 5z" transform="matrix(1.06667 0 0 1.06758 0 -76)"/><path fill="#fff" d="M376 154a3 3 0 1 0 0-6 3 3 0 0 0 0 5"/><path fill="none" stroke="#000" d="M353 215a3 3 0 1 0 0-5 3 3 0 0 0 0 5z" transform="matrix(1.06667 0 0 1.06758 0 -76)"/><path fill="#fff" d="M375 146a3 3 0 1 0 0-6 3 3 0 0 0 0 6"/><path fill="none" stroke="#000" d="M352 208a3 3 0 1 0 0-5 3 3 0 0 0 0 5z" transform="matrix(1.06667 0 0 1.06758 0 -76)"/><path fill="#fff" d="M372 139a3 3 0 1 0 0-6 3 3 0 0 0 0 6"/><path fill="none" stroke="#000" d="M349 202a3 3 0 1 0 0-6 3 3 0 0 0 0 5z" transform="matrix(1.06667 0 0 1.06758 0 -76)"/><path fill="#fff" d="M367 134a3 3 0 1 0 0-5 3 3 0 0 0 0 5"/><path fill="none" stroke="#000" d="M344 197a3 3 0 1 0 0-5 3 3 0 0 0 0 5z" transform="matrix(1.06667 0 0 1.06758 0 -76)"/><path fill="#fff" d="M360 131a3 3 0 1 0 0-6 3 3 0 0 0 0 6"/><path fill="none" stroke="#000" d="M338 194a3 3 0 1 0 0-5 3 3 0 0 0 0 5z" transform="matrix(1.06667 0 0 1.06758 0 -76)"/><path fill="#fff" d="M353 130a3 3 0 1 0 0-6 3 3 0 0 0 0 6"/><path fill="none" stroke="#000" d="M331 193a3 3 0 1 0 0-6 3 3 0 0 0 0 5z" transform="matrix(1.06667 0 0 1.06758 0 -76)"/><path fill="#fff" d="M347 129a3 3 0 1 0 0-6 3 3 0 0 0 0 6"/><path fill="none" stroke="#000" d="M325 192a3 3 0 1 0 0-5 3 3 0 0 0 0 5z" transform="matrix(1.06667 0 0 1.06758 0 -76)"/><path fill="#fff" d="M341 128a3 3 0 1 0 0-6 3 3 0 0 0 0 6"/><path fill="none" stroke="#000" d="M319 191a3 3 0 1 0 0-5 3 3 0 0 0 0 5z" transform="matrix(1.06667 0 0 1.06758 0 -76)"/><path fill="#fff" d="M345 151a3 3 0 1 0 0-5 3 3 0 0 0 0 6"/><path fill="none" stroke="#000" d="M323 213a3 3 0 1 0 0-5 3 3 0 0 0 0 5z" transform="matrix(1.06667 0 0 1.06758 0 -76)"/><path fill="#fff" d="M346 146a3 3 0 1 0 0-6 3 3 0 0 0 0 6"/><path fill="none" stroke="#000" d="M324 208a3 3 0 1 0 0-5 3 3 0 0 0 0 5z" transform="matrix(1.06667 0 0 1.06758 0 -76)"/><path fill="#fff" d="M322 128a3 3 0 1 0 0-6 3 3 0 0 0 0 6"/><path fill="none" stroke="#000" d="M302 191a3 3 0 1 0 0-5 3 3 0 0 0 0 5z" transform="matrix(1.06667 0 0 1.06758 0 -76)"/><path fill="#fff" d="M308 127a3 3 0 1 0 0-6 3 3 0 0 0 0 6"/><path fill="none" stroke="#000" d="M289 190a3 3 0 1 0 0-5 3 3 0 0 0 0 5z" transform="matrix(1.06667 0 0 1.06758 0 -76)"/><path fill="#fff" d="M305 127a3 3 0 1 0 0-6 3 3 0 0 0 0 6"/><path fill="none" stroke="#000" d="M286 190a3 3 0 1 0 0-5 3 3 0 0 0 0 5z" transform="matrix(1.06667 0 0 1.06758 0 -76)"/><path fill="#fff" d="M287 152a3 3 0 1 0 0-6 3 3 0 0 0 0 6"/><path fill="none" stroke="#000" d="M269 213a3 3 0 1 0 0-5 3 3 0 0 0 0 5z" transform="matrix(1.06667 0 0 1.06758 0 -76)"/><path fill="#fff" d="M286 145a3 3 0 1 0 0-6 3 3 0 0 0 0 6"/><path fill="none" stroke="#000" d="M268 207a3 3 0 1 0 0-6 3 3 0 0 0 0 6z" transform="matrix(1.06667 0 0 1.06758 0 -76)"/><path fill="#fff" d="M288 138a3 3 0 1 0 0-6 3 3 0 0 0 0 6"/><path fill="none" stroke="#000" d="M270 201a3 3 0 1 0 0-6 3 3 0 0 0 0 6z" transform="matrix(1.06667 0 0 1.06758 0 -76)"/><path fill="#fff" d="M301 128a3 3 0 1 0 0-6 3 3 0 0 0 0 5"/><path fill="none" stroke="#000" d="M282 191a3 3 0 1 0 0-6 3 3 0 0 0 0 6z" transform="matrix(1.06667 0 0 1.06758 0 -76)"/><path fill="#fff" d="M296 129a3 3 0 1 0 0-5 3 3 0 0 0 0 5"/><path fill="none" stroke="#000" d="M277 192a3 3 0 1 0 0-5 3 3 0 0 0 0 5z" transform="matrix(1.06667 0 0 1.06758 0 -76)"/><path fill="#fff" d="M291 133a3 3 0 1 0 0-5 3 3 0 0 0 0 5"/><path fill="none" stroke="#000" d="M273 196a3 3 0 1 0 0-5 3 3 0 0 0 0 5z" transform="matrix(1.06667 0 0 1.06758 0 -76)"/><path fill="#fff" d="M316 132a3 3 0 1 0 0-6 3 3 0 0 0 0 6"/><path fill="none" stroke="#000" d="M296 194a3 3 0 1 0 0-5 3 3 0 0 0 0 5z" transform="matrix(1.06667 0 0 1.06758 0 -76)"/><path fill="#fff" d="M316 137a3 3 0 1 0 0-6 3 3 0 0 0 0 6"/><path fill="none" stroke="#000" d="M296 200a3 3 0 1 0 0-6 3 3 0 0 0 0 5z" transform="matrix(1.06667 0 0 1.06758 0 -76)"/><path fill="#fff" d="M316 143a3 3 0 1 0 0-6 3 3 0 0 0 0 6"/><path fill="none" stroke="#000" d="M296 205a3 3 0 1 0 0-5 3 3 0 0 0 0 5z" transform="matrix(1.06667 0 0 1.06758 0 -76)"/><path fill="#fff" d="M326 127a3 3 0 1 0 0-6 3 3 0 0 0 0 6"/><path fill="none" stroke="#000" d="M305 190a3 3 0 1 0 0-5 3 3 0 0 0 0 5z" transform="matrix(1.06667 0 0 1.06758 0 -76)"/><path fill="#fff" d="M330 126a3 3 0 1 0 0-5 3 3 0 0 0 0 5"/><path fill="none" stroke="#000" d="M309 189a3 3 0 1 0 0-5 3 3 0 0 0 0 5z" transform="matrix(1.06667 0 0 1.06758 0 -76)"/><path fill="#fff" d="M334 127a3 3 0 1 0 0-6 3 3 0 0 0 0 6"/><path fill="none" stroke="#000" d="M313 190a3 3 0 1 0 0-5 3 3 0 0 0 0 5z" transform="matrix(1.06667 0 0 1.06758 0 -76)"/><path fill="#fff" d="M345 139a3 3 0 1 0 0-6 3 3 0 0 0 0 6"/><path fill="none" stroke="#000" d="M324 201a3 3 0 1 0 0-5 3 3 0 0 0 0 5z" transform="matrix(1.06667 0 0 1.06758 0 -76)"/><path fill="#fff" d="M339 130a3 3 0 1 0 0-6 3 3 0 0 0 0 6"/><path fill="none" stroke="#000" d="M317 193a3 3 0 1 0 0-6 3 3 0 0 0 0 5z" transform="matrix(1.06667 0 0 1.06758 0 -76)"/><path fill="#fff" d="M343 133a3 3 0 1 0 0-5 3 3 0 0 0 0 5"/><path fill="none" stroke="#000" d="M321 196a3 3 0 1 0 0-5 3 3 0 0 0 0 5z" transform="matrix(1.06667 0 0 1.06758 0 -76)"/><path fill="#fff" d="m316 176-8 4 7 4 8-4z"/><path fill="none" stroke="#000" d="m296 236-7 4 6 4 8-4-7-4" transform="matrix(1.06667 0 0 1.06758 0 -76)"/><path fill="#fff" d="m299 177-11 2v7l12-1s1-6-1-8"/><path fill="none" stroke="#000" d="m281 237-11 1v7l11-1z" transform="matrix(1.06667 0 0 1.06758 0 -76)"/><path fill="#058e6e" d="m298 179-8 1v4l8-1z"/><path fill="none" stroke="#000" d="m280 239-8 1v4l8-1v-4" transform="matrix(1.06667 0 0 1.06758 0 -76)"/><path fill="#fff" d="m331 177 12 2-1 7-11-1z"/><path fill="none" stroke="#000" d="m311 237 10 2v7l-11-2z" transform="matrix(1.06667 0 0 1.06758 0 -76)"/><path fill="#058e6e" d="m333 179 8 2v4l-8-1z"/><path fill="none" stroke="#000" d="m312 239 8 1v4l-8-1v-4" transform="matrix(1.06667 0 0 1.06758 0 -76)"/><path fill="none" stroke="#000" d="M254 242s37-14 84 1m-82 7s36-14 80 0m-80-9 7 2-5 6" transform="matrix(1.06667 0 0 1.06758 0 -76)"/><path fill="red" d="m273 189 5-4-5-1z"/><path fill="none" stroke="#000" d="m256 248 4-4-5-1 1 2zm82-5-8 1 5 6" transform="matrix(1.06667 0 0 1.06758 0 -76)"/><path fill="red" d="m358 189-3-3 4-1-1 2z"/><path fill="none" stroke="#000" d="m335 248-3-3h5l-2 1zm-70-6 2-1-2-1-1 1zm21-2 1-1-1-1-1 1zm0 3 1-1-1-1-1 1zm20-3 1-1-1-1-1 1zm20 3 2-1-2-1-1 1zm0 3 1-1-1-1-1 1zm-20-3 1-1-1-1-1 1zm-40 3 2-1-2-1-1 1z" transform="matrix(1.06667 0 0 1.06758 0 -76)"/><path fill="#fc0" d="M271 171s0 7 5 6 4-7 4-8h1s1 6 6 6c4-1 4-9 4-10h1s2 8 7 7 5-7 5-7 1 6 6 6q6 1 4-8h3s-1 8 4 8q7-2 6-5h1s0 6 4 6q6-2 5-7h5s-5 8 2 9c6 1 6-5 6-5h2s0 8 3 8q6 2 6-7l2 1s-2 10-8 8q-5-3-5-6s-2 4-7 3q-6-3-4-6s-3 5-7 4q-6-1-5-5s-2 4-6 4q-5 0-5-4 1 2-6 4-4 0-6-4 0 2-5 5-5 0-6-4s-1 5-6 6c-4 1-6-3-6-3s-1 4-4 5q-6 2-7-4l-1-5z"/><path fill="#bcac0b" stroke="#000" d="M254 231s0 7 4 6 5-7 5-7h1s0 5 5 5c4-1 4-8 3-9l1-1s2 9 7 7c5-1 5-6 5-6s1 6 5 5q5 1 5-7h2s-1 8 4 8q6-3 5-5h1s0 5 5 5q5-2 4-6h4s-4 7 2 8 6-4 6-4h2s-1 7 3 7q5 1 5-6h2s-1 9-8 8q-4-3-4-6s-2 4-7 3q-5-3-4-6s-2 5-6 4q-5-1-5-4s-2 4-5 3q-5-1-5-4s-1 4-5 4q-4 0-6-3s-1 4-5 4q-5 0-6-4s-1 5-5 6q-6 0-5-2c1-2-1 3-5 4q-5 2-6-4l-1-5z" transform="matrix(1.06667 0 0 1.06758 0 -76)"/><path fill="#fc0" d="M281 171a2 2 0 1 0 0-4 2 2 0 0 0 0 4"/><path fill="#bcac0b" stroke="#000" d="M263 231a2 2 0 1 0 0-3z" transform="matrix(1.06667 0 0 1.06758 0 -76)"/><path fill="#fc0" d="M304 167a2 2 0 1 0 0-3z"/><path fill="#bcac0b" stroke="#000" d="M285 228a2 2 0 1 0 0-3z" transform="matrix(1.06667 0 0 1.06758 0 -76)"/><path fill="#fc0" d="M328 168a2 2 0 1 0 0-4 2 2 0 0 0 0 4"/><path fill="#bcac0b" stroke="#000" d="M307 229a2 2 0 1 0 0-4z" transform="matrix(1.06667 0 0 1.06758 0 -76)"/><path fill="#fc0" d="M351 172a2 2 0 1 0 0-4 2 2 0 0 0 0 4"/><path fill="#bcac0b" stroke="#000" d="M329 232a2 2 0 1 0 0-3z" transform="matrix(1.06667 0 0 1.06758 0 -76)"/><path fill="#fc0" d="M315 165h-2c0 2-4 3-4 3l1-3q-5-2-4-3l4-1-1-3 5 2q-1 1-2-5l2 1s0-5 2-6c2 1 2 6 2 6l2-1-2 5 5-2-1 3 4 1q1 1-4 3l1 3s-4-1-4-3z"/><path fill="#bcac0b" stroke="#000" d="M295 226h-1q-3 3-4 2l1-2q-5-2-4-3l4-1-1-3 4 2q-1 1-2-5l2 1 2-5q3 3 2 5l2-1q-1 6-2 5 0-2 4-2v3l4 1q1 1-4 3v3l-3-3z" transform="matrix(1.06667 0 0 1.06758 0 -76)"/><path fill="#fff" d="M316 166a3 3 0 1 0 0-6 3 3 0 0 0 0 6"/><path fill="none" d="M316 166a3 3 0 1 0 0-6 3 3 0 0 0 0 6"/><path fill="#fff" d="M316 165a2 2 0 1 0 0-4 2 2 0 0 0 0 4"/><path fill="none" d="M316 165a2 2 0 1 0 0-4 2 2 0 0 0 0 4"/><path fill="#fc0" d="m340 167 2 1 3 3v-3l5-2-4-2 1-3-5 2q1 1 4-5h-3v-5h-1c-2 0-3 4-3 4l-2-1 1 6-3-4v4h-5q-1 1 3 3v3l4-1h4"/><path fill="#bcac0b" stroke="#000" d="M319 228h2l3 3v-2l4-2-4-2 2-3-5 1q2 2 3-4h-2q1-2-1-5c-2 0-3 4-3 4l-2-1 1 6q1-1-3-3v3h-4l3 3-1 3 4-2 1 1h2" transform="matrix(1.06667 0 0 1.06758 0 -76)"/><path fill="#fff" d="M339 168a3 3 0 1 1 2-6 3 3 0 0 1-2 6"/><path fill="none" d="M339 168a3 3 0 1 1 2-6 3 3 0 0 1-2 6"/><path fill="#fff" d="M340 167a2 2 0 1 1 0-4 2 2 0 0 1 0 4"/><path fill="none" d="M340 167a2 2 0 1 1 0-4 2 2 0 0 1 0 4"/><path fill="#fc0" d="M291 167h-2c0 2-4 3-4 3v-3q-5-1-4-2l4-2-1-3 5 2q-1 1-3-5h2l1-5h1c2 0 2 5 2 5l2-1-1 6q-1-1 4-4l-1 4q2-1 5 1l-4 3 1 3-4-3-2 1z"/><path fill="#bcac0b" stroke="#000" d="M272 228h-1l-3 3v-3l-4-2 3-2-1-3 5 2q-2 1-3-5l2 1 1-5h1l2 4 2-1q0 6-2 6 0-2 4-3v3q1-1 4 1l-3 2 1 3s-4 0-4-2h-2l-2 1" transform="matrix(1.06667 0 0 1.06758 0 -76)"/><path fill="#fff" d="M291 168a3 3 0 1 0 0-7 3 3 0 0 0 0 7"/><path fill="none" d="M291 168a3 3 0 1 0 0-7 3 3 0 0 0 0 7"/><path fill="#fff" d="M291 166a2 2 0 1 0 0-3z"/><path fill="none" d="M291 166a2 2 0 1 0 0-3z"/><path fill="#fc0" d="M363 174s-1-2-3-1l-3 1v-3l-3-4h5v-3s4 1 4 3v-6l2 2s1-4 6-3l-3 4-3 3v3l-1 2z"/><path fill="#bcac0b" stroke="#000" d="M340 234s-1-2-2-1l-3 1v-3l-3-3 4-1 1-2q2 0 3 3-1-1 1-6l1 2q0-2 5-2l-2 3-3 3v2l-1 2z" transform="matrix(1.06667 0 0 1.06758 0 -76)"/><path fill="#fff" d="M360 170a3 3 0 0 1 5-2v2l-1 2-1 1z"/><path fill="none" d="M360 170a3 3 0 0 1 5-2l-1 2v2l-1 1z"/><path fill="#fff" d="m362 170 3-1v1l-1 2h-1q-2 0-1-2"/><path fill="none" d="m362 170 3-1-1 1v2h-1q-2 0-1-2"/><path fill="#fc0" d="M269 173s1-2 3-1l3 1v-3l3-3q1-1-5-1v-2l-3 2q1-1-1-6l-2 2s0-4-5-3l3 4 2 3 1 3v2z"/><path fill="#bcac0b" stroke="#000" d="M252 233s1-2 3-1l3 1v-2l3-3-5-1v-3q-2 0-3 3 1-1-1-6l-1 2q1-1-5-3l2 4 2 3 1 2v2z" transform="matrix(1.06667 0 0 1.06758 0 -76)"/><path fill="#fff" d="M272 169a3 3 0 0 0-5-2l1 2v2l1 2a3 3 0 0 0 3-4"/><path fill="none" d="M272 169a3 3 0 0 0-5-2l1 2v2l1 2a3 3 0 0 0 3-4"/><path fill="#fff" d="m270 169-3-1 1 1v2h1z"/><path fill="none" d="m270 169-3-1 1 1v2h1q2 0 1-2"/><path fill="none" stroke="#000" stroke-width="2" d="M257 252s34-14 77 0" transform="matrix(1.06667 0 0 1.06758 0 -76)"/><path fill="none" stroke="#000" d="M338 241c-47-15-84-1-84-1" transform="matrix(1.06667 0 0 1.06758 0 -76)"/><path fill="red" d="m316 178-4 2 3 2 5-2z"/><path fill="none" stroke="#000" d="m296 238-4 2 4 2 4-2-4-2" transform="matrix(1.06667 0 0 1.06758 0 -76)"/></g></svg>