<svg xmlns="http://www.w3.org/2000/svg" viewBox="0 0 640 480"><path fill="#AA151B" d="M0 0h640v480H0z"/><path fill="#F1BF00" d="M0 120h640v240H0z"/><path fill="#ad1519" d="M127 213v-1h-1l-1-1v-2l1-1 2-1h1l1-1h10l2 1h3l1 1v3l-1 1-1 1h-1l-7-1z"/><path fill="none" d="M127 213v-1h-1l-1-1v-2l1-1 2-1h1l1-1h10l2 1h3l1 1v3l-1 1-1 1h-1l-7-1z"/><path fill="#c8b100" d="m133 207 2-2 1 2-1 2z"/><path fill="none" d="m133 207 2-2 1 2-1 2z"/><path fill="#c8b100" d="m134 207 1-2v4z"/><path fill="none" d="m134 207 1-2v4z"/><path fill="#c8b100" d="m134 205 1-1h1zm1-1h-1v-3h2v1h-1z"/><path fill="none" d="M135 204h-1v-3h2v1h-1z"/><path fill="#c8b100" d="M136 204h-3v-1h1v-2h2v1h-1v1z"/><path fill="none" d="M136 204h-3v-1h1v-2h2v1h-1v1zm-1 0-1 1h-1z"/><path fill="#c8b100" d="M135 213h-5v-2l-1-2-2-2v-1q2 0 5 4l1 1h4v-1q3-4 5-4l1 1-3 2v2l-1 1v1z"/><path fill="none" d="M135 213h-5v-2l-1-2-2-2v-1q2 0 5 4l1 1h4v-1q3-4 5-4l1 1-3 2v2l-1 1v1z"/><path fill="none" d="M127 207q2-1 4 3m11-3-4 3"/><path fill="#c8b100" d="M128 215a27 27 0 0 1 15 0v1l-1 1-6-1z"/><path fill="none" d="M128 215a27 27 0 0 1 15 0v1l-1 1-6-1z"/><path fill="#c8b100" d="m135 218 5-1 2-1h-1l-6-1-7 1 1 1z"/><path fill="none" d="m135 218 5-1 2-1h-1l-6-1-7 1 1 1z"/><path fill="#c8b100" d="M142 213h-2l-1-1-1 1-1-1h-5l-1 1-1-1-1 1h-2v1l8-1z"/><path fill="none" d="M142 213h-2l-1-1-1 1-1-1h-5l-1 1-1-1-1 1h-2v1l8-1z"/><path fill="#c8b100" d="m135 211 1 1 1-1 1 1 1-1h1v1l1 1 1-1v1h1l1-1-1 1-1 1-1-1-2-1-1 1-1-1-1 1-1-1h-3l-1 1-1-1-1 1h-1l-1 1-1-1-1-1 1 1h1v-1h1l1 1 1-1v-1l1 1 1-1 1 1z"/><path fill="none" d="m135 211 1 1 1-1 1 1 1-1h1v1l1 1 1-1v1h1l1-1-1 1-1 1-1-1-2-1-1 1-1-1-1 1-1-1h-3l-1 1-1-1-1 1h-1l-1 1-1-1-1-1 1 1h1v-1h1l1 1 1-1v-1l1 1 1-1 1 1z"/><path fill="#c8b100" d="m135 213-8 1zl7 1z"/><path fill="none" d="m135 213-8 1zl7 1z"/><path fill="#ad1519" d="M135 215h-1l-1-1h3z"/><path fill="none" d="M135 215h-1l-1-1h3z"/><path fill="#058e6e" d="M139 215v-1z"/><path fill="none" d="M139 215v-1z"/><path fill="#ad1519" d="M142 215h-1z"/><path fill="none" d="M142 215h-1z"/><path fill="#ad1519" d="m135 217-6-1 12 1z"/><path fill="none" d="m135 217-6-1 12 1zm2-6"/><path fill="#c8b100" d="M135 209h-1v1h1z"/><path fill="none" d="M135 209h-1v1h1z"/><path fill="#c8b100" d="M133 211h2v-1h-2z"/><path fill="none" d="M133 211h2v-1h-2z"/><path fill="#c8b100" d="M136 211h-1v-1h1z"/><path fill="none" d="M136 211h-1v-1h1z"/><path fill="#c8b100" d="m129 209 1 1v-2z"/><path fill="none" d="m129 209 1 1v-2z"/><path fill="#c8b100" d="m128 211 2-1h-2"/><path fill="none" d="m128 211 2-1h-2"/><path fill="#c8b100" d="M132 211h-1l1-1z"/><path fill="none" d="M132 211h-1l1-1z"/><path fill="#c8b100" d="M127 211v1h-2l1-1z"/><path fill="none" d="M127 211v1h-2l1-1z"/><path fill="#c8b100" d="M129 211v1z"/><path fill="none" d="M129 211v1z"/><path fill="#c8b100" d="m140 209-1 1h-1z"/><path fill="none" d="m140 209-1 1h-1z"/><path fill="#c8b100" d="m141 211-1-1z"/><path fill="none" d="m141 211-1-1z"/><path fill="#c8b100" d="M138 211h2l-2-1z"/><path fill="none" d="M138 211h2l-2-1z"/><path fill="#c8b100" d="M143 211v1h1z"/><path fill="none" d="M143 211v1h1z"/><path fill="#c8b100" d="M139 211v1z"/><path fill="none" d="M139 211v1z"/><path fill="#c8b100" d="M144 212h1-2z"/><path fill="none" d="M144 212h1-2z"/><path fill="#c8b100" d="M124 223h21v-5h-21z"/><path fill="none" d="M124 223h21v-5h-21z"/><path fill="#c8b100" d="M126 227h16l-1-1 1-2h-17l1 2z"/><path fill="none" d="M126 227h16l-1-1 1-2h-17l1 2z"/><path fill="#c8b100" d="M127 227h16l1 1h-18z"/><path fill="none" d="M127 227h16l1 1h-18z"/><path fill="#c8b100" d="M127 223h16l1 1h-18z"/><path fill="none" d="M127 223h16l1 1h-18z"/><path fill="#005bbf" d="M150 317h-4l-4-1-4 1h-7l-4-1-3 1h-4v3l4-1 3-1 4 1 4 1 3-1 4-1 4 1 4 1z"/><path fill="none" d="M150 317h-4l-4-1-4 1h-7l-4-1-3 1h-4v3l4-1 3-1 4 1 4 1 3-1 4-1 4 1 4 1z"/><path fill="#ccc" d="m150 320-4-1-4-1-4 1-3 1-4-1-4-1-3 1-4 1v2l4-1h22l4 1z"/><path fill="none" d="m150 320-4-1-4-1-4 1-3 1-4-1-4-1-3 1-4 1v2l4-1h22l4 1z"/><path fill="#005bbf" d="m150 322-4-1-4-1-4 1-3 1-4-1-4-1-3 1-4 1v2l4-1 7 1h7l4-1 4 1h4z"/><path fill="none" d="m150 322-4-1-4-1-4 1-3 1-4-1-4-1-3 1-4 1v2l4-1 7 1h7l4-1 4 1h4z"/><path fill="#ccc" d="m150 327-4-1-4-1-4 1-3 1-4-1-4-1-3 1-4 1v-3h18l4-1 4 1h4z"/><path fill="none" d="m150 327-4-1-4-1-4 1-3 1-4-1-4-1-3 1-4 1v-3h18l4-1 4 1h4z"/><path fill="#005bbf" d="m150 329-4-1-4-1-4 1-3 1-4-1-4-1-3 1-4 1v-2l4-1 3-1 4 1h7l4-1 4 1 4 1z"/><path fill="none" d="m150 329-4-1-4-1-4 1-3 1-4-1-4-1-3 1-4 1v-2l4-1 3-1 4 1h7l4-1 4 1 4 1z"/><path fill="#c8b100" d="m126 308-2 2h22l-3-2v-1z"/><path fill="none" d="m126 308-2 2h22l-3-2v-1z"/><path fill="#c8b100" d="M127 307h17l-1 1h-16l-1-1z"/><path fill="none" d="M127 307h17l-1 1h-16l-1-1z"/><path fill="#c8b100" d="M124 317h22v-6h-22z"/><path fill="none" d="M124 317h22v-6h-22z"/><path fill="#ad1519" d="M122 287q-4 1-3 3l1 1q3 3 2 5a6 6 0 0 0 0-9"/><path fill="none" d="M122 287q-4 1-3 3l1 1q3 3 2 5a6 6 0 0 0 0-9"/><path fill="#ccc" d="M127 306h15v-77h-15z"/><path fill="none" d="M138 229v76m2-76v76m-13 1h15v-77h-15z"/><path fill="#ad1519" d="M158 258a50 50 0 0 0-23-2q-15 2-16 8l-3-8q0-5 17-9l9-1 16 2z"/><path fill="none" d="M158 258a50 50 0 0 0-23-2q-15 2-16 8l-3-8q0-5 17-9l9-1 16 2z"/><path fill="#ad1519" d="M127 267q-8 0-8-3 0-2 4-4h4z"/><path fill="none" d="M127 267q-8 0-8-3 0-2 4-4h4z"/><path fill="#ad1519" d="m143 262 5 1v1q1 2-6 5z"/><path fill="none" d="m143 262 5 1v1q1 2-6 5z"/><path fill="#ad1519" d="M117 282q0-2 10-6l8-3q13-7 13-9v-1l1 8q0 3-12 10l-10 4q-8 3-8 5z"/><path fill="none" d="M117 282q0-2 10-6l8-3q13-7 13-9v-1l1 8q0 3-12 10l-10 4q-8 3-8 5z"/><path fill="#c8b100" d="M126 254q3-1 2-3l-2-1-3 1 2 6h2zm-1-3 2 1-1 1v1zm7-2h-2l1 6 5-1h-3zm8 5 3-6h-1l-2 4-2-4h-2zm9-5h-2q-3 0-3 2l3 3-1 1-2-1v1h1l4-1c0-2-4-3-4-4l2-1z"/><path fill="#ad1519" d="M278 212h-3l-1 1-1-1-1 1h-3v-1h-1v-2l2-1h2l3-1 3 1 3-1 3 1h2l2 1v2h-1l-1 1h-2l-1-1-2 1-1-1z"/><path fill="none" d="M278 212h-3l-1 1-1-1-1 1h-3v-1h-1v-2l2-1h2l3-1 3 1 3-1 3 1h2l2 1v2h-1l-1 1h-2l-1-1-2 1-1-1z"/><path fill="#c8b100" d="m277 208 1-2 1 2-1 1z"/><path fill="none" d="m277 208 1-2 1 2-1 1z"/><path fill="#c8b100" d="m277 208 1-2 1 2-1 1z"/><path fill="none" d="m277 208 1-2 1 2-1 1z"/><path fill="#c8b100" d="M271 215h14v1l-1 1-6-1z"/><path fill="none" d="M271 215h14v1l-1 1-6-1z"/><path fill="#c8b100" d="m278 218 6-1 1-1h-1l-6-1-7 1 1 1z"/><path fill="none" d="m278 218 6-1 1-1h-1l-6-1-7 1 1 1zm4-12q1 0 0 0m-3 0v1zm9 5-3-3-1 1m-1 0-2-2-2 1m9 2q1 0 0 0m-4-3v1z"/><path fill="#c8b100" d="M285 213h-1l-1-1-2 1-1-1h-4l-1 1-2-1-1 1h-1v1l7-1z"/><path fill="none" d="M285 213h-1l-1-1-2 1-1-1h-4l-1 1-2-1-1 1h-1v1l7-1zm-11-7q-1 0 0 0m1 0v1zm-7 5 2-3 2 1m1 0 3-2 2 1m-8-1v1z"/><path fill="#c8b100" d="m278 211 1 1 1-1 1 1 1-1h1v1l1 1 1-1v1h1l1-1-1 1-1 1v-1h-1l-2-1-1 1-1-1-1 1-1-1-1 1-1-1-2 1-1-1-1 1h-1l-1 1-1-1-1-1h1v1h1l1-1 1 1 1-1v-1l1 1 1-1 1 1z"/><path fill="none" d="m278 211 1 1 1-1 1 1 1-1h1v1l1 1 1-1v1h1l1-1-1 1-1 1v-1h-1l-2-1-1 1-1-1-1 1-1-1-1 1-1-1-2 1-1-1-1 1h-1l-1 1-1-1-1-1h1v1h1l1-1 1 1 1-1v-1l1 1 1-1 1 1z"/><path fill="#c8b100" d="m278 213-7 1h-1zl7 1h1-1z"/><path fill="none" d="m278 213-7 1h-1zl7 1h1-1z"/><path fill="#ad1519" d="M278 215h-1v-1h2z"/><path fill="none" d="M278 215h-1v-1h2z"/><path fill="#058e6e" d="M283 215h-1v1z"/><path fill="none" d="M283 215h-1v1z"/><path fill="#ad1519" d="m278 217-6-1h6l6 1z"/><path fill="none" d="m278 217-6-1h6l6 1z"/><path fill="#c8b100" d="M275 211q0 1 0 0"/><path fill="none" d="M275 211q0 1 0 0"/><path fill="#c8b100" d="M278 209h-1l1 1z"/><path fill="none" d="M278 209h-1l1 1z"/><path fill="#c8b100" d="M276 211h2v-1h-2z"/><path fill="none" d="M276 211h2v-1h-2z"/><path fill="#c8b100" d="M280 211h-1v-1h1z"/><path fill="none" d="M280 211h-1v-1h1z"/><path fill="#c8b100" d="m273 209-1 1 1 1z"/><path fill="none" d="m273 209-1 1 1 1z"/><path fill="#c8b100" d="m271 211 1-1z"/><path fill="none" d="m271 211 1-1z"/><path fill="#c8b100" d="M275 211h-1l1-1z"/><path fill="none" d="M275 211h-1l1-1z"/><path fill="#c8b100" d="M270 211v1h-2z"/><path fill="none" d="M270 211v1h-2z"/><path fill="#c8b100" d="M272 211v1z"/><path fill="none" d="M272 211v1z"/><path fill="#c8b100" d="m283 209-1 1z"/><path fill="none" d="m283 209-1 1z"/><path fill="#c8b100" d="m285 211-1-1z"/><path fill="none" d="m285 211-1-1z"/><path fill="#c8b100" d="M281 211h2l-2-1z"/><path fill="none" d="M281 211h2l-2-1z"/><path fill="#c8b100" d="M286 211v1h1z"/><path fill="none" d="M286 211v1h1z"/><path fill="#c8b100" d="M282 211v1z"/><path fill="none" d="M282 211v1z"/><path fill="#c8b100" d="M277 205h1l-1 1zm2 0h-2v-3h2v1h-1v1"/><path fill="none" d="M279 205h-2v-3h2v1h-1v1z"/><path fill="#c8b100" d="M279 205h-2v-1h1v-1h-1v-1h2v1h-1z"/><path fill="none" d="m278 205-1 1z"/><path fill="#c8b100" d="M288 212h-2z"/><path fill="none" d="M288 212h-2z"/><path fill="#c8b100" d="M288 212h-1v1zq2 0 0 0"/><path fill="none" d="M288 212h-1v1zq2 0 0 0"/><path fill="#c8b100" d="M267 223h22v-5h-22z"/><path fill="none" d="M267 223h22v-5h-22z"/><path fill="#c8b100" d="M286 227h-17l1-1-1-2h17l-1 2z"/><path fill="none" d="M286 227h-17l1-1-1-2h17l-1 2z"/><path fill="#c8b100" d="M270 227h16l1 1h-18z"/><path fill="none" d="M270 227h16l1 1h-18z"/><path fill="#c8b100" d="M270 223h16l1 1h-18z"/><path fill="none" d="M270 223h16l1 1h-18z"/><path fill="#005bbf" d="M263 317h4l3-1 4 1h8l3-1 4 1h4v3l-4-1-4-1-3 1-4 1-4-1-4-1-3 1-4 1z"/><path fill="none" d="M263 317h4l3-1 4 1h8l3-1 4 1h4v3l-4-1-4-1-3 1-4 1-4-1-4-1-3 1-4 1z"/><path fill="#ccc" d="m263 320 4-1 3-1 4 1 4 1 4-1 3-1 4 1 4 1v2l-4-1h-7l-4 1-4-1h-7l-4 1z"/><path fill="none" d="m263 320 4-1 3-1 4 1 4 1 4-1 3-1 4 1 4 1v2l-4-1h-7l-4 1-4-1h-7l-4 1z"/><path fill="#005bbf" d="m263 322 4-1 3-1 4 1 4 1 4-1 3-1 4 1 4 1v2l-4-1h-4l-3 1h-8l-4-1-3 1h-4z"/><path fill="none" d="m263 322 4-1 3-1 4 1 4 1 4-1 3-1 4 1 4 1v2l-4-1h-4l-3 1h-8l-4-1-3 1h-4z"/><path fill="#ccc" d="m263 327 4-1 3-1 4 1 4 1 4-1 3-1 4 1 4 1v-3h-4l-4-1-3 1h-8l-4-1-3 1h-4z"/><path fill="none" d="m263 327 4-1 3-1 4 1 4 1 4-1 3-1 4 1 4 1v-3h-4l-4-1-3 1h-8l-4-1-3 1h-4z"/><path fill="#005bbf" d="m263 329 4-1 3-1 4 1 4 1 4-1 3-1 4 1 4 1v-2l-4-1-4-1-3 1-4 1-4-1-4-1-3 1-4 1z"/><path fill="none" d="m263 329 4-1 3-1 4 1 4 1 4-1 3-1 4 1 4 1v-2l-4-1-4-1-3 1-4 1-4-1-4-1-3 1-4 1z"/><path fill="#c8b100" d="M286 308q0 2 3 2h-22l3-2-1-1z"/><path fill="none" d="M286 308q0 2 3 2h-22l3-2-1-1z"/><path fill="#c8b100" d="M270 307h17l-1 1h-16l-1-1z"/><path fill="none" d="M270 307h17l-1 1h-16l-1-1z"/><path fill="#c8b100" d="M267 317h22v-6h-22z"/><path fill="none" d="M267 317h22v-6h-22z"/><path fill="#ad1519" d="m291 287 3 3-2 1-2 5a6 6 0 0 1 1-9"/><path fill="none" d="m291 287 3 3-2 1-2 5a6 6 0 0 1 1-9"/><path fill="#ccc" d="M270 306h16v-77h-16z"/><path fill="none" d="M281 229v76m2-76v76m-13 1h16v-77h-16z"/><path fill="#ad1519" d="M254 258a50 50 0 0 1 23-2q16 2 16 8l4-8q-1-5-18-9l-9-1-16 2z"/><path fill="none" d="M254 258a50 50 0 0 1 23-2q16 2 16 8l4-8q-1-5-18-9l-9-1-16 2z"/><path fill="#ad1519" d="M286 267q6 0 7-3 1-2-3-4h-4z"/><path fill="none" d="M286 267q6 0 7-3 1-2-3-4h-4z"/><path fill="#ad1519" d="m270 262-6 1v1q0 2 6 5z"/><path fill="none" d="m270 262-6 1v1q0 2 6 5z"/><path fill="#ad1519" d="M295 282q1-2-9-6l-8-3q-14-7-14-9v-1l-1 8q0 3 13 10l10 4q7 3 8 5z"/><path fill="none" d="M295 282q1-2-9-6l-8-3q-14-7-14-9v-1l-1 8q0 3 13 10l10 4q7 3 8 5z"/><path fill="#c8b100" d="m264 254 2-6h-1l-1 5-3-4h-2l4 6zm6-6h-2v6h4v-1h-2zm7 1h2v-1h-6v1h2l-1 5h2zm2 6h1v-3l1 2 1 2h2l-1-1-1-2 2-2v-1l-2-1h-3zm3-5 2 1-2 1zm8 7v2h1l1 1v-7l-1-1-6 4 1 1 2-1zm-2-2 2-1v2z"/><path fill="none" d="m182 192 2-2 2 2q0 3-2 2z"/><path fill="#ad1519" d="M206 175q10 0 15 3l15 2 10 3 8 4-2 2v3l-4 5-2 2-5 4h-3l-1 2-31-4-32 4-1-2h-2l-5-4-2-2-4-5-1-3-1-2 7-4 11-3h6l8-2q6-3 16-3"/><path fill="#c8b100" d="M206 217q-18 0-30-4l-1-1 1-1a109 109 0 0 1 30-3q18 0 30 3a1 1 0 0 1 0 3q-11 3-30 3"/><path fill="#ad1519" d="M206 216q-17-1-27-4l27-3 28 3q-12 4-28 4"/><path fill="none" d="M207 216v-7m-2 7v-7m-1 7v-7m-2 7v-7m-1 7v-7m-3 6v-5m1 5v-6m-4 6v-5m2 5v-5m-5 5v-5m1 5v-5m1 5v-5m-3 5v-5"/><path fill="none" stroke="#000" d="M190 215v-5m-2 4v-4m-2 4v-3m1 3v-3m-2 3v-3m-1 3v-3m-2 2v-2m-1 2v-1m-1 1v-1"/><path fill="none" d="M214 215v-5m-3 6v-7m-2 7v-7"/><path fill="#c8b100" d="M206 207a108 108 0 0 0-30 4v-3l-3-2q14-4 33-4a123 123 0 0 1 33 4s-1 0-2 2l-1 3q-11-3-30-3"/><path fill="#c8b100" d="M206 202q-20 0-33 4l-1-1 1-1a121 121 0 0 1 33-4q20 1 34 4v1l-1 1q-13-4-33-4"/><path fill="none" d="M206 216q-17-1-27-4l27-3 28 3q-12 4-28 4"/><path fill="#fff" d="m197 205 1-1 1 1-1 1z"/><path fill="#ad1519" d="M206 206h-3a1 1 0 0 1 0-2h6l1 1-1 1z"/><path fill="#058e6e" d="M190 207h-2l-1-1 1-1 2-1h2l2 1-1 1z"/><path fill="#fff" d="m181 207 1-1 1 1-1 1z"/><path fill="#ad1519" d="m174 209 1-2h3l-2 2z"/><path fill="#058e6e" d="M222 207h2l1-1v-1l-3-1h-2l-1 1 1 1z"/><path fill="#fff" d="m213 205 1-1 1 1-1 1zm16 2 1-1 1 1-1 1z"/><path fill="#ad1519" d="m238 209-1-2h-3l2 2z"/><path fill="none" d="M177 213q12-3 29-4 18 1 29 4"/><path fill="#c8b100" d="m182 184 2 1 2-3a7 7 0 0 1-4-8q1-6 12-7l8 2 1-2-9-2q-12 1-14 9a9 9 0 0 0 3 8z"/><path fill="none" d="m182 184 2 1 2-3a7 7 0 0 1-4-8q1-6 12-7l8 2 1-2-9-2q-12 1-14 9a9 9 0 0 0 3 8z"/><path fill="#c8b100" d="m182 184-4-7q0-6 6-8l-4 6 3 7z"/><path fill="none" d="m182 184-4-7q0-6 6-8l-4 6 3 7z"/><path fill="#c8b100" d="m160 187-2-6 1-4q4-6 16-7l6 1-1 1h-5q-11 0-15 6v3l2 6-2 4-2-1z"/><path fill="none" d="m160 187-2-6 1-4q4-6 16-7l6 1-1 1h-5q-11 0-15 6v3l2 6-2 4-2-1z"/><path fill="#c8b100" d="m163 173-4 4-1 4 2 6-1 3-3-7q1-6 7-10"/><path fill="none" d="m163 173-4 4-1 4 2 6-1 3-3-7q1-6 7-10"/><path fill="#c8b100" d="m206 164 4 3v6l1 8-5 5-5-5 1-8v-2l1-4q0-2 3-3"/><path fill="none" d="m206 164 4 3v6l1 8-5 5-5-5 1-8v-2l1-4q0-2 3-3"/><path fill="#c8b100" d="m206 166 2 1v6l1 7-3 3-3-3 1-7v-6z"/><path fill="none" d="m206 166 2 1v6l1 7-3 3-3-3 1-7v-6z"/><path fill="#c8b100" d="m230 184-2 1-2-3a7 7 0 0 0 4-7v-1q-1-6-12-7l-8 2v-2l8-2q12 1 14 9a9 9 0 0 1-3 8z"/><path fill="none" d="m230 184-2 1-2-3a7 7 0 0 0 4-7v-1q-1-6-12-7l-8 2v-2l8-2q12 1 14 9a9 9 0 0 1-3 8z"/><path fill="#c8b100" d="m230 184 4-7q0-6-6-8l4 6-3 7z"/><path fill="none" d="m230 184 4-7q0-6-6-8l4 6-3 7z"/><path fill="#c8b100" d="m252 187 2-6-1-4q-3-6-16-7l-6 1 1 1h5q11 0 15 6v3l-2 6 2 4 2-1z"/><path fill="none" d="m252 187 2-6-1-4q-3-6-16-7l-6 1 1 1h5q11 0 15 6v3l-2 6 2 4 2-1z"/><path fill="#c8b100" d="m249 173 4 4 1 4-2 6 2 3 2-7q0-6-7-10"/><path fill="none" d="m249 173 4 4 1 4-2 6 2 3 2-7q0-6-7-10"/><path fill="#fff" d="m204 181 2-1 2 1-2 2z"/><path fill="none" d="m204 181 2-1 2 1-2 2z"/><path fill="#fff" d="m204 178 2-2 2 2-2 2zm1-4 1-1 2 1-2 2zm0-3 1-1 1 1-1 1zm0-3 1-1 1 1-1 1z"/><path fill="#c8b100" d="M206 192h1a5 5 0 0 0 5 6l4-3 1-2v2q1 4 5 4a5 5 0 0 0 5-5l1-2 1 2-1 2a4 4 0 0 0 5 4l4-1 1-2v2q0 2 2 3l4-2 3-3v2l-4 4-4 1-3-3-3 1-6-3a7 7 0 0 1-11-1l-4 2-6-3-6 3-4-2a7 7 0 0 1-11 1l-6 3-3-1-3 3-4-1-4-4v-2l4 3 4 2 2-3v-2l1 2 3 2q5 0 5-5l-1-2 1-2 2 2q0 5 4 5 5 0 5-4v-2l1 2 4 3a5 5 0 0 0 5-6z"/><path fill="#fff" d="m239 198-1-2-1 1v2zm-21-4-1-2-1 1 1 2zm-24 0 1-2 1 1v2zm-20 4v-2l2 1-1 2z"/><path fill="#c8b100" d="m183 184 2 3v-1h1v4l-1 1h-1l-1 1-2-2-1-2v-1h2zm0 10-1-1 1-1-2-1h-3v1l-3 2 4 1v1h1l2-1zm3-1-1-1 2-1 2-1h1v1l3 1-3 2 1 1h-3z"/><path fill="#ad1519" d="m182 192 2-2 2 2q0 3-2 2z"/><path fill="#c8b100" d="m206 181 2 4 1-1h1v1l-1 3-1 1h-4v-1l-1-3-1-1h1l1 1z"/><path fill="#c8b100" d="m205 192-1-1v-2l-1-1h-3l-1-1v1l1 1-4 2 4 1-1 1v1h1l3-1zm3 0v-3l1-1h3l1-1v2l3 2-3 1v2h-1l-2-1zm22-8-3 3v-1h-1v4l1 1h1l2 1 1-2 1-2 1-1h-2zm-1 10 1-1v-1l1-1h4-1v1l3 2-4 1 1 1h-1l-2-1zm-3-1 1-1-2-1-2-1h-1l1 1-4 1 3 2v1h-1 4z"/><path fill="#ad1519" d="m226 192 2-2 2 2-2 2zm23 5h-2v2h2z"/><path fill="#c8b100" d="m246 198 1-1h2l3-3h3l-3-3-2 1v-1l-2 2v4l-1-2-2-2h-2v1l-3 1 2 2h-1v1zm-80 0h-2l-2-3h-4l3-3 3 1v-1l2 2zv-2l3-2h1v1l4 1-3 2h1l1 1h-6"/><path fill="#ad1519" d="M163 197h2l1 2h-2zm41-6 2-2 2 2-2 2z"/><path fill="#005bbf" d="M202 161q1-4 4-4 4 0 4 4 0 5-4 4a4 4 0 0 1-4-4"/><path fill="#c8b100" d="M205 149v3h-2v2h2v6h-3v2h8v-2h-3v-6h3v-3h-3v-2z"/><path fill="#ccc" d="M207 331a82 82 0 0 1-36-9 23 23 0 0 1-13-20v-32h97v32a23 23 0 0 1-13 20 81 81 0 0 1-36 9"/><path fill="none" stroke="#000" d="M207 331a82 82 0 0 1-36-9 23 23 0 0 1-13-20v-32h97v32a23 23 0 0 1-13 20 81 81 0 0 1-36 9z"/><path fill="#ccc" d="M206 270h49v-53h-49z"/><path fill="none" stroke="#000" d="M206 270h49v-53h-49z"/><path fill="#ad1519" d="M206 302q-1 21-24 23c-23 2-24-10-24-23v-32h48z"/><path fill="#c8b100" stroke="#000" d="m169 321 5 2v-54h-5z"/><path fill="#c8b100" stroke="#000" stroke-linejoin="round" d="M158 302a24 24 0 0 0 6 15v-48h-6z"/><path fill="#c7b500" stroke="#000" d="M179 325h6v-56h-6z"/><path fill="#c8b100" stroke="#000" d="m190 324 6-3v-52h-6z"/><path fill="#ad1519" d="M158 270h48v-53h-48z"/><path fill="none" stroke="#000" d="M158 270h48v-53h-48z"/><path fill="#c8b100" stroke="#000" d="M201 316q4-4 5-12l1-35h-6z"/><path fill="none" stroke="#000" d="M206 302q-1 21-24 23c-23 2-24-10-24-23v-32h48v32"/><path fill="#ad1519" d="M255 270v32c0 13-11 23-25 23s-24-10-24-23v-32z"/><path fill="none" stroke="#000" d="M255 270v32c0 13-11 23-25 23s-24-10-24-23v-32h49"/><path fill="#c8b100" d="m215 294-1 1-1-1v-1h-1l1 3v4h2v-4l2-2h4v-1zm22 0v1h-4v1l4 5-1 1-5-5v9h-1v-9h-1l-4 5-2-1 5-5v-1h-4v-1zm3 0v1h4l2 2v4h1v-4l2-2v-1h-2l1 1-1 1-2-1v-1zm-7 22 4-1v2l-4 1-3 2-2-2-5-1 1-2 4 1 2-1v-7h1v7zm-11-2-1 1-4-3h-2a2 2 0 0 1 0-4l-2-5h2l1 4 1 1 5-5 1 1-4 5v2zm-6-5h1v2h-1a1 1 0 0 1 0-2m-2-4-2-1v-4l1-1v3zm1-6 2 1v4l-2 1v-3zm6 14 4 3 1-2zm-1 1 5 3-2 1-4-2zm2-9 2 1 3-4-1-1zm-1-1-1-1 3-4 1 1zm18 10 1 1 3-3h3a2 2 0 0 0 0-4l1-5h-2l-1 4-1 1-4-5-1 1 4 5v2zm6-5a1 1 0 0 0-2 0 1 1 0 0 0 0 2 1 1 0 0 0 2 0 1 1 0 0 0 0-2m2-4 2-1v-4l-2-1zm-1-6-2 1v4l1 1 1-3zm-6 14-5 3v-2l4-2zm1 1-5 3 1 1 4-2zm-2-9-2 1-3-4 1-1zm1-1 1-1-3-4-2 1zm-20-9v2h5v-2zm21 0-1 2h-4l-1-2zm-12 22 1-1 1 1-1 1zm2-8h2v-4l-2-1zm-1 0h-2v-4l2-1z"/><path fill="#c8b100" d="m212 294 1-2v-5h2v5l2 2h4-8zm12 0h4l-5-6 1-1 5 5v-7h2v7l5-5 1 1-5 5 1 1h4zm21 0h4l-2-2v-5h-2v5l-1 2h-5zm-30-15 6 7 1-1-6-7h5v-2h-4l-3-2-3 3 2 2v5h2zm32 0v5h-2v-5l-6 7-1-1 6-7h-5v-2h5l2-2 3 3zm-16 0v3h-2v-3l-1-1h-4v-2h4l2-2 3 2h4v2h-4zm-18 4-1 1v4h1zm2 0 2 1v4h-2zm30 0-1 1v4h1zm2 0 2 1v4h-2zm-25 1 1-1 3 4-1 1zm-2 1-1 1 3 4 2-1zm19-1-2-1-3 4 1 1zm1 1 1 1-3 4-2-1zm-20 9v-2h5v2zm-7-17 1-1 1 1-1 1zm12 1-1 1h-4v-1zm0-2-1-1h-4v1zm16 18-1-2h-4l-1 2zm4-17 1-1 1 1-1 1zm-16 0 1-1 1 1-1 1zm6 1 1 1h4l1-1zm0-2 1-1h4l1 1zm-6 5-1 1v4h1zm2 0 2 1v4h-2z"/><path fill="none" d="m233 316 3-1 1 2-4 1-3 2-2-2-5-1 1-2 4 1 2-1v-7h1v7zm-5-20h-4v-1h4l-5-6 1-1 5 6v-8h2v7l5-5 1 1-5 5 1 1h4v1h-4l-1 1 5 5-1 1-5-5v9h-2v-9l-5 5-1-1zm-13-17 6 7 1-1-6-7h5v-2h-4l-3-2-2 3 1 2v5h2zm7 35-1 1-4-3h-2a2 2 0 0 1-1-4h1l-2-5h2l1 4 1 1 4-5 2 1-4 5v2zm-9-13v-4l-2-2 2-3v-5h2v5l2 2h4v1h-4l-2 2v4zm3 8h1v2h-1a1 1 0 0 1 0-2m-2-4-2-1v-4h1v2zm1-6 2 1v4l-2 1zm5 14 5 3 1-2-4-2zm0 2 4 2-1 1-4-2z"/><path fill="none" d="m222 305 2 1 3-3-1-2zm-1-1-1-1 3-4 1 1zm-8-9 1-1 1 1-1 1zm26 19v1l4-3h3a2 2 0 0 0 0-4l1-5h-2l-1 4-1 1-4-5-1 1 4 5v2zm8-13v-4l2-2-2-3v-5h-2v5l-1 2h-5v1h5l2 2v4zm-2 8a1 1 0 0 0-2 0 1 1 0 0 0 0 2 1 1 0 0 0 2 0 1 1 0 0 0 0-2m2-4 1-1 1-4-2-1zm-2-6-1 1v2l-1 2 2 1zm2-20v5h-2v-5l-6 7-1-1 6-7h-5v-2h5l2-2 3 3zm-16 0v3h-2v-3l-1-1h-4v-2h4l2-2 3 2h4v2h-4zm9 34-5 3v-2l4-2zm1 1-5 3 1 1 4-2zm-28-31-1 1v4h1zm2 0 2 1v4h-2zm30 0-1 1v4h1z"/><path fill="none" d="m247 283 2 1v4h-2zm-9 22-1 1-3-4 1-1zm1-1 1-1-3-4-2 1zm-18-20 1-1 3 4-1 1zm-2 1-1 1 3 4 2-1zm19-1-2-1-3 3 1 2zm1 1 1 1-3 3h-1zm-20 9v-2h5v2zm0 1v2h5v-2zm-7-18 1-1 1 1-1 1zm12 1v1h-5v-1zm0-2v-1h-5v1zm20 19 1-1 1 1-1 1zm-4-1-1-2h-4l-1 2zm0 2-1 1h-4l-1-1zm-12 21 1-1 1 1-1 1zm2-7 2-1v-4l-2-1zm-2 0-1-1v-4l2-1zm15-33 1-1 1 1-1 1zm-16 0 1-1 1 1-1 1zm6 1 1 1h4l1-1zm0-2 1-1h4l1 1zm-6 5-1 1v4h1zm2 0 2 1v4h-2z"/><path fill="#058e6e" d="m228 295 2-3 3 3-3 2z"/><path fill="#db4446" d="M231 230h-2l-3-2-1-1-3 1 2 1 2 1 3 1z"/><path fill="none" d="M231 230h-2l-3-2-1-1-3 1 2 1 2 1 3 1z"/><path fill="#ed72aa" d="M238 228v2l1 1h-1l-1-1v1l1 1 1 2v1l-1-1h-1l1 1-1 2v-1l-1-1v4l-1-1-1-1 1 1 1 5q1 3 6 3 4-3 1-7l-1-4 1-4v-3l1-2v-3l1 2v1l1-2 2-1v2l-2 2h2l-1 1-1 3-2 1v5l2 5-2 5-3 1q-2 0-2 3l2 2 1 1 1 1-2 2v5h-2v-1h-1v1l-1-1h-1l1-1q1 0 0 0-1-1 0 0l-1-1v-1h2l1-1-1-1-1-1v-1 2h-1v-2 2h-1l-1-1v-4h-3v3l1 2-1 1h-1l-1-1h-2l-1 1h-2v-1h-1l-1-1v-1h2v-1l-1-1h1l1-1v2h4l-1-1v-1 1-2h-1v2l-1-2 1-2 2-2h4l-3-2-2-2-1-1h-1l-1 1-1 1v-2l-1 2-1 1v-2l-1 1h-2v2h-2v-2 1l-1-1v-1h1l-1-1v-1l1-1 1 1h2l2-1 1-1-1-1-1-1h-2l-1-1 1-1h1-4l1-1h1l-1-1-1-1h-1l-1-1v-1h2l-1-1h-1l1-1 1-1 1 2v-2h2v1l-1 2 2 1 1 1 2 1 1 1h1l3-1 1-1-1-1h1l2-1-1-2-2-1v-1l1-1h2l1-1h1l3 1z"/><path d="M232 225h1l1 1h-2z"/><path fill="none" d="M232 225h1l1 1h-2zm5 6"/><path fill="#db4446" d="M217 227h2v-1l-1-1v1z"/><path fill="none" d="M217 227h2v-1l-1-1v1z"/><path fill="#db4446" d="m215 228-1-1-2 1h2z"/><path fill="none" d="m215 228-1-1-2 1h2z"/><path fill="#db4446" d="M214 231h-1v1h2z"/><path fill="none" d="M214 231h-1v1h2z"/><path d="M228 231v-1z"/><path fill="none" d="M228 231v-1z"/><path d="M229 231v-1z"/><path fill="none" d="M229 231v-1zm-5 3v1zh3l-1 1v3h1l1-1 1-1v1l1 2v-1h1l1-1v1l1 1v-1l1-1v-1 1m-11 1 1-1 1-1h1m1 5 1-1 2-1"/><path fill="#db4446" d="M217 240h-2l-1 1h2z"/><path fill="none" d="M217 240h-2l-1 1h2z"/><path fill="#db4446" d="M216 243h-1l-1 2 1-1 1 1z"/><path fill="none" d="M216 243h-1l-1 2 1-1 1 1z"/><path fill="#db4446" d="M217 246v1l2 1-1-1 1-1z"/><path fill="none" d="M217 246v1l2 1-1-1 1-1zm16 1 2 2-1 3"/><path fill="#db4446" d="m224 253-1-1-1 1z"/><path fill="none" d="m224 253-1-1-1 1z"/><path fill="#db4446" d="m222 255-1 1-1 1 1-1 1 1z"/><path fill="none" d="m222 255-1 1-1 1 1-1 1 1z"/><path fill="#db4446" d="M224 258v1l1 1v-1l1-1z"/><path fill="none" d="M224 258v1l1 1v-1l1-1z"/><path fill="#db4446" d="M236 259h-1l-1 2 1-1h1z"/><path fill="none" d="M236 259h-1l-1 2 1-1h1z"/><path fill="#db4446" d="M236 262v1l1 1v-1h1-1z"/><path fill="none" d="M236 262v1l1 1v-1h1-1z"/><path fill="#db4446" d="m239 263 1 1 1 1-1-1 1-1z"/><path fill="none" d="m239 263 1 1 1 1-1-1 1-1z"/><path fill="#ffd691" stroke="#000" d="M209 316q3 1 3 4t-5 4q-5-1-5-4t3-4h-1v-1h1l1 1v-1h1l1 1v-1h1v1"/><path fill="#058e6e" stroke="#000" d="m206 327-5-3h-6l2 1 3 2h6m1 0 5-3 7 1h-2l-4 2h-6"/><path fill="#ad1519" stroke="#000" d="M207 324a5 5 0 0 1 0-7l1 3-1 4"/><path fill="#058e6e" stroke="#000" d="M206 329v-5h1v5h-1"/><path fill="#fff" d="m254 191 1-1 1 1-1 1z"/><path fill="none" d="m254 191 1-1 1 1-1 1z"/><path fill="#fff" d="m255 188 2-1 1 1-1 1z"/><path fill="none" d="m255 188 2-1 1 1-1 1z"/><path fill="#fff" d="m256 185 1-1 1 1v1a1 1 0 0 1-2-1"/><path fill="none" d="m256 185 1-1 1 1v1a1 1 0 0 1-2-1"/><path fill="#fff" d="m257 182 1-1 1 1-1 1z"/><path fill="none" d="m257 182 1-1 1 1-1 1z"/><path fill="#fff" d="m256 179 1-1 1 1-1 1z"/><path fill="none" d="m256 179 1-1 1 1-1 1z"/><path fill="#fff" d="m254 176 1-1 1 1-1 1z"/><path fill="none" d="m254 176 1-1 1 1-1 1z"/><path fill="#fff" d="m252 174 1-1 1 1-1 1z"/><path fill="none" d="m252 174 1-1 1 1-1 1z"/><path fill="#fff" d="m249 172 2-1a1 1 0 0 1 0 2z"/><path fill="none" d="m249 172 2-1a1 1 0 0 1 0 2z"/><path fill="#fff" d="m247 170 1 1-1 1z"/><path fill="none" d="m247 170 1 1-1 1z"/><path fill="#fff" d="m243 169 1-1a1 1 0 0 1 0 2z"/><path fill="none" d="m243 169 1-1a1 1 0 0 1 0 2z"/><path fill="#fff" d="m240 169 1-1 1 1z"/><path fill="none" d="m240 169 1-1 1 1z"/><path fill="#fff" d="m237 168 1 1-1 1z"/><path fill="none" d="m237 168 1 1-1 1z"/><path fill="#fff" d="m233 169 1-1 1 1-1 1z"/><path fill="none" d="m233 169 1-1 1 1-1 1z"/><path fill="#fff" d="m230 169 1-1 1 1-1 1z"/><path fill="none" d="m230 169 1-1 1 1-1 1z"/><path fill="#fff" d="m232 171 1 1-1 1zm0 3 1-1 1 1-1 1zm0 3 1-1a1 1 0 0 1 0 2zm-1 3 1-1 2 1-1 1zm-2 3 1-1 1 1zm-1-16 1-1a1 1 0 0 1 0 2z"/><path fill="none" d="m228 167 1-1a1 1 0 0 1 0 2z"/><path fill="#fff" d="m225 165 1-1 1 1-1 1z"/><path fill="none" d="m225 165 1-1 1 1-1 1z"/><path fill="#fff" d="m222 164 1-1 1 1-1 1z"/><path fill="none" d="m222 164 1-1 1 1-1 1z"/><path fill="#fff" d="m218 163 1-1 1 1-1 1z"/><path fill="none" d="m218 163 1-1 1 1-1 1z"/><path fill="#fff" d="m215 164 1-1 1 1-1 1z"/><path fill="none" d="m215 164 1-1 1 1-1 1z"/><path fill="#fff" d="m212 164 1-1 1 1-1 1z"/><path fill="none" d="m212 164 1-1 1 1-1 1z"/><path fill="#fff" d="m209 165 1 1-1 1z"/><path fill="none" d="m209 165 1 1-1 1z"/><path fill="#fff" d="m156 191 1-1 1 1-1 1z"/><path fill="none" d="m156 191 1-1 1 1-1 1z"/><path fill="#fff" d="m155 188 1 1-1 1z"/><path fill="none" d="m155 188 1 1-1 1z"/><path fill="#fff" d="m154 185 1 1-1 1z"/><path fill="none" d="m154 185 1 1-1 1z"/><path fill="#fff" d="m153 182 1-1 2 1-1 1z"/><path fill="none" d="m153 182 1-1 2 1-1 1z"/><path fill="#fff" d="m154 179 1-1 1 1-1 1z"/><path fill="none" d="m154 179 1-1 1 1-1 1z"/><path fill="#fff" d="m156 176 1 1-1 1z"/><path fill="none" d="m156 176 1 1-1 1z"/><path fill="#fff" d="m158 174 1-1 1 1-1 1z"/><path fill="none" d="m158 174 1-1 1 1-1 1z"/><path fill="#fff" d="m161 172 1-1 1 1z"/><path fill="none" d="m161 172 1-1 1 1z"/><path fill="#fff" d="m164 170 1 1-1 1z"/><path fill="none" d="m164 170 1 1-1 1z"/><path fill="#fff" d="M167 169a1 1 0 0 1 0 2z"/><path fill="none" d="M167 169a1 1 0 0 1 0 2z"/><path fill="#fff" d="m170 169 1-1a1 1 0 0 1 0 2z"/><path fill="none" d="m170 169 1-1a1 1 0 0 1 0 2z"/><path fill="#fff" d="m173 168 1-1 1 1-1 1z"/><path fill="none" d="m173 168 1-1 1 1-1 1z"/><path fill="#fff" d="m177 169 1-1 1 1z"/><path fill="none" d="m177 169 1-1 1 1z"/><path fill="#fff" d="m180 169 1-1 1 1z"/><path fill="none" d="m180 169 1-1 1 1z"/><path fill="#fff" d="m178 171 1-1 1 1-1 1zm0 3 1 1-1 1zm-1 3 1-1 2 1-1 1zm0 3 1-1 2 1-1 1a1 1 0 0 1-2-1m2 3 1-1a1 1 0 0 1 0 2zm3-16 1-1a1 1 0 0 1 0 2z"/><path fill="none" d="m182 167 1-1a1 1 0 0 1 0 2z"/><path fill="#fff" d="m185 165 1-1 1 1-1 1z"/><path fill="none" d="m185 165 1-1 1 1-1 1z"/><path fill="#fff" d="m188 164 1-1 1 1-1 1z"/><path fill="none" d="m188 164 1-1 1 1-1 1z"/><path fill="#fff" d="m192 163 1 1-1 1z"/><path fill="none" d="m192 163 1 1-1 1z"/><path fill="#fff" d="m195 164 1-1 1 1z"/><path fill="none" d="m195 164 1-1 1 1z"/><path fill="#fff" d="m198 164 1-1 1 1-1 1z"/><path fill="none" d="m198 164 1-1 1 1-1 1z"/><path fill="#fff" d="m201 165 1-1 1 1-1 1z"/><path fill="none" d="m201 165 1-1 1 1-1 1z"/><path fill="#c8b100" d="M175 229h-1v-1h-2v4h2v2h-4v7h2v14h-3v8h27v-8h-4v-14h2v-7h-3v-2h1v-4h-1v1h-1v-1h-2v1h-1v-1h-1v4h1v2h-3v-8h2v-3h-2v1h-1v-1h-1v1h-1v-1h-2v3h2v8h-4v-2h2v-4h-2v1h-1v-1h-1zm-6 34h27m-27-2h27m-27-2h27m-27-2h27m-27-2h27m-24-1h20m-20-2h20m-20-2h20m-20-2h20m-20-2h20m-20-1h20m-20-2h20m-22-2h24m-24-2h24m-24-2h24m-24-1h24m-20-2h17m-10-2h3m-3-2h3m-3-1h3m-3-2h3m-5-2h7m-12 7h3m-5-2h7m-7 33v-2m0-2v-2m-2 2v2m4 0v-2m2 4v-2m0-2v-2m0-2v-1m0-2v-2m-2 7v-2m-4 2v-2m7 0v2m2-2v-1m-5-2v2m3-2v2m4-2v2m-2-2v-2m2-2v2m0-5v1m-2-3v2m2-4v2m-4-2v2m-3-2v2m-2-4v2m4-2v2m3-2v2m2-3v1m-4-1v1m-3-1v1m-2-3v2m7-2v2m-3-6v2m15-2h-4m5-2h-6m6 33v-2m0-2v-2m2 2v2m-3 0v-2m-2 4v-2m0-2v-2m0-2v-1m0-2v-2m2 7v-2m3 2v-2m-7 0v2m-1-2v-1m5-2v2m-4-2v2m-3-2v2m2-2v-2m-2-2v2m0-5v1m2-3v2m-2-4v2m3-2v2m4-2v2m1-4v2m-3-2v2m-3-2v2m-2-3v1m3-1v1m4-1v1m1-3v2m-6-2v2m3-6v2m-7 18v-2m0-5v-2m0 5v-2m0-5v-2m0-1v-2m0-4v-2m0-1v-2m-8 5h3m4-6h3m3 5h4"/><path fill="#c8b100" d="M187 263v-5q1-3-5-4-5 1-4 4v5z"/><path fill="#c8b100" d="M179 258h-2l1-3 2 2zm6 0h3l-1-3-2 2zm-2-2 1-2-2-1-2 1 2 2zm-4-6v-5q0-2-3-2t-2 2v5zm7 0v-5l2-2 3 2v5zm-2-12v-4h-4v4zm3 0v-4h4v4zm-10 0 1-4h-5l1 4z"/><path fill="#0039f0" d="M185 263v-4q1-2-3-3-3 1-3 3v4zm-7-13v-4q1-2-2-2t-2 2v4zm8 0v-4l2-2 2 2v4z"/><path fill="#ad1519" d="M191 270q2-16 15-18c13-2 16 8 16 18s-7 17-16 17-15-7-15-17"/><path fill="none" stroke="#000" d="M191 270q2-16 15-18c13-2 16 8 16 18s-7 17-16 17-15-7-15-17z"/><path fill="#005bbf" d="M195 270q1-12 11-13c10-1 11 6 11 13q-1 12-11 13c-10 1-11-6-11-13"/><path fill="none" stroke="#000" d="M195 270q1-12 11-13c10-1 11 6 11 13q-1 12-11 13c-10 1-11-6-11-13z"/><path fill="#c8b100" d="m201 261-1 3v2l-1-1-1 1v2h1l1 1h-1v1h1l-1 1h1l1 1 1-1h1l-1-1h1v-1h-1l1-1h1l1-1v-1a1 1 0 0 0-2-1l-1 1 1-2z"/><path fill="none" d="m201 261-1 3v2l-1-1-1 1v2h1l1 1h-1v1h1l-1 1h1l1 1 1-1h1l-1-1h1v-1h-1l1-1h1l1-1v-1a1 1 0 0 0-2-1l-1 1 1-2z"/><path fill="#c8b100" d="M199 270h4v-1h-4z"/><path fill="none" d="M199 270h4v-1h-4z"/><path fill="#c8b100" d="m211 261-1 3 1 2-2-1-1 1v1l1 1h1l1 1h-2v1h1v1h1v1l1-1h1l-1-1h2v-1h-2l1-1h1l1-1v-1l-1-1-2 1 1-2z"/><path fill="none" d="m211 261-1 3 1 2-2-1-1 1v1l1 1h1l1 1h-2v1h1v1h1v1l1-1h1l-1-1h2v-1h-2l1-1h1l1-1v-1l-1-1-2 1 1-2z"/><path fill="#c8b100" d="M209 270h5v-1h-5z"/><path fill="none" d="M209 270h5v-1h-5z"/><path fill="#c8b100" d="m206 270-1 2 1 3-2-1-1 1v2l1-1 1 1v1h-1v1h1l-1 1h1l1 1 1-1h1l-1-1h1v-1h-1v-1l1-1 1 1 1-1v-1l-1-1-2 1 1-3q-1-3-2-2"/><path fill="none" d="m206 270-1 2 1 3-2-1-1 1v2l1-1 1 1v1h-1v1h1l-1 1h1l1 1 1-1h1l-1-1h1v-1h-1v-1l1-1 1 1 1-1v-1l-1-1-2 1 1-3q-1-3-2-2"/><path fill="#c8b100" d="M204 279h4v-1h-4z"/><path fill="none" d="M204 279h4v-1h-4z"/><path fill="#c8b100" d="M238 223v1h-1v-1h-1v-1l-1 1v-1l-1-1v3l3 1 2 3 1-1h2l-2-1v-1h-2v-1z"/><path fill="none" d="M238 223v1h-1v-1h-1v-1l-1 1v-1l-1-1v3l3 1 2 3 1-1h2l-2-1v-1h-2v-1z"/><path fill="#c8b100" d="m236 221-1 1h1z"/><path fill="none" d="m236 221-1 1h1z"/><path fill="#c8b100" d="M240 224h-1z"/><path fill="none" d="M240 224h-1z"/><path fill="#c8b100" d="M239 224h1z"/><path fill="none" d="M239 224h1z"/><path fill="#c8b100" d="M240 226h1z"/><path fill="none" d="M240 226h1z"/><path fill="#c8b100" d="M241 227q-2 0 0 0"/><path fill="none" d="M241 227q-2 0 0 0m38-22h-2v-1h1v-1h-1v-1h2v1h-1zm-145 12v-1m0 1v-1m0 1v-1m0 1v-1m-1 1v-1m0 1v-1m0 1v-1m-1 1v-1m0 1v-1m-1 1v-1m1 1v-1m0 1v-1m-1 1v-1m5 1v-1m-1 1v-1m0 1v-1m143 1v-1m-1 1v-1m0 1v-1m0 1v-1m0 1v-1m-1 1v-1m0 1v-1m0 1v-1m0 1v-1m-1 1v-1m0 1v-1m0 1v-1m0 1v-1m4 1v-1m0 1v-1m-1 1v-1"/></svg>