<svg xmlns="http://www.w3.org/2000/svg" viewBox="0 0 640 480"><defs><clipPath id="et-a"><path d="M-61 0h682v512H-61z"/></clipPath></defs><g fill-rule="evenodd" clip-path="url(#et-a)" transform="translate(58)scale(.94)"><path fill="#ffc621" d="M-238 4H800v498H-238z"/><path fill="#ef2118" d="M-240 343H799v169H-240z"/><path fill="#298c08" d="M-238 0H800v180H-238z"/><circle cx="534" cy="353" r="200" fill="#006bc6" transform="matrix(.54 0 0 .54 -26 74)"/><path fill="#ffc621" d="m214 188-6 5 23 33 7-4zm30 78-10-7 4-12h-48l-14-10 66-1 12-37 6 15zm76-71-6-4-24 32 5 5zm-65 52 3-11h14l-16-46 6-16 21 62h39l-13 11zm90 51 3-7-38-13-3 7zm-69-46h12l4 12 39-28h17l-53 39 12 37-14-8zm-20 102h8l1-41h-8zm22-81 4 12-10 8 39 27 5 17-54-38-31 23 3-16zm-103 13 2 8 39-12-2-7zm83-4-9 8-11-8-14 46-14 10 19-63-31-23 16-1z"/></g></svg>