<svg xmlns="http://www.w3.org/2000/svg" viewBox="0 0 640 480"><path fill="#68bfe5" d="M0 0v480h640V0z"/><g stroke-miterlimit="5"><path fill="#fff" d="M421 193v137c0 44 80 71 80 71s81-27 81-71V193z"/><path fill="#d21034" d="M490 241v62h-69v22h69v71l11 5 12-5v-71h69v-22h-69v-62z"/><path fill="#d21034" d="M421 193h161v53H421z"/><g stroke-miterlimit="3"><g fill="#fff" stroke="#000" transform="translate(-97 98)scale(.66486)"><ellipse cx="798" cy="192" rx="14" ry="11"/><ellipse cx="798" cy="187" rx="12" ry="6"/><ellipse cx="798" cy="199" rx="12" ry="6"/><ellipse cx="798" cy="192" rx="12" ry="6"/></g><path fill="#ffd100" stroke="#000" d="m578 235-1-3s-4-2-4-4q-2-7-5-7h-5l-7 1-3-1-2-1-3-3q4 0 9-5l6-3c-2 4 1 4 1 4 5-3 0-9-1-9h-2l-1 1c1-7-3-9-3-9l-1 2q-3 5-10 2c-4-2-16 2-20 3q-6 4-16 1-8-5-10-2h-11l-1-2 1-4c1-1-4 1-2 7v1l2 2v1l1 1 2-1s-1 5 6 6l-1-1-1-2v-2h5l5 1-1-3c1 0 6 5 8 5l8-2 9-2c8-2 18-6 21-2l2 3s0 6-10 3l-3-1s-1-2-20 3l-2 1-5 1c-4 1-18 6-27 4h-3 1l-1-1c-7-1-6-4-6-4v1-6q7-4 8-3-6-3-8-2l-1-8-8 5c0-4-5-6-5-6 2 2 1 8 1 8v1h-1l-3 5-1 2v-1s-3 3-8 0l-9-4-4 2s-6 0-8 3c0 0-4 2 0 5l1 3s0-4 1-3v1l1 2h1v-2h1l1 1h2l1-1 2-2 3-1 5 5q4 2 6 1-3 3-2 4l-1 1h6v2q-3 4-2 5s-6 2-8 5l-1-1-4-2h-3l-1-4v-2l-3 1h-1l-1 1h-2v1h-2v2q-2 2-1 3c1 6 11 4 12 4l4 1 3 3c1 0 0-2 6-3l8-4 3-4v1l-1 4 5-2q3-2 2-3 5 8 6 7v-3h2q0-3-2-3l3 2 1-1 1 2v-1q3 2 4 1l-1-1c5 3 13-1 13-1h2l3-2c5 0 9-4 9-4q4-1 3-2l5-3c6-8 15-4 15-4l-5 1c-14-1-8 9-8 9 2 0 6 3 4 6-2 4-7 0-9-3q-3-4-4-3c-1 1-8 2-5 8q0 2 4 5t10 1l11-4 5-4c2-3-3-4-4-6v-1c5 2 5-5 5-5l4 5c3-2 1-7 1-7 6 10 9 9 9 9q-3-4-1-5c2 11 14 2 14 2q-1 2 1 3 3 2 1 3c0 2-6 2-6 2s-5 0-4 4l5 1h8l2-2q6-2 5-3z"/><path d="m430 217 2 1-1-3 2-1v-1l-2 2v2zm141 24-8-1 2-2-3 3zm-59 1 1-4q-3 3-1 5z"/><path d="M508 238q1 3 4 5v-1zq0-5 2-5-2 0-3 5m52 1v2zl2-1v-1zm-119-24-1 2h-2l-1-1v-1l1-2-2 2 1 2h1l1 1h1zc3 1 6-3 6-3s-3 4-6 3"/><path d="m433 215 1 2h2v-1l1 1v-1h-1v1h-1l-1-1zl2-3zm-4 21 1-1h2l1 3v1l-1-4h-1l-1-1zm10-5-3 1v2l2 4v-1l-2-3v-2zl1 3zm-5 0v1l2 5q-3-3-2-5h2v-1zm-2 1v2zh1zm44-22 1 4v2l6 3h-1 2v1h3-1l1 1 8 4-9 1v1l4 6q-3 1-7-2v1l2 5-3-1v1l-1-1v-1l-1 1-3-2v1l1 2h-1l-1 3-5-6-2 2-4 1v-4l1-2s-7 2-10 1l2-5v-2h-5l1-1 1-3v-1l-6-1 3-1h1l-1-2 2 1v-3 2h-2l-1-1 1 1v2l-3 1h-1l1 1 5 1-1 3-1 1v1h6v1l-2 5q5 2 9-1l-1 2 1 2-1 2v1l5-2 2-1q4 6 5 5h1v-3h2v-1h2l1 2v-1l4 1v-1l-2-5 7 1-4-6q8 0 9-2h-1l-7-5-4-1-1-1q-5 0-6-2v-1l1-1z"/><path d="m459 209-2 3h-5l1 2 4 1-2 5v1l4-1 1 4 1 1v2l4-5 1-1v1q-1 2 3 3l1-3v-2l3 1q2 2 4 1l-1-1h-1l-1-1v-1l-1-2 2 1 2 1h1-1l-1-2v-1l1-7-1 1 1 1-1 5v3l-1-1-2-1 1 2v2l1 1-2-1-3-1v2l-1 3-3-3v-1l-2 1-3 4v-3l-1-3v-1h-1q-3 2-4 1l3-5-5-1-1-2h5zl3-5-4 5"/><path d="m464 203-2 2h1a21 21 0 0 1 13 6l1-2c-4-7-13-6-13-6m0 0c1 0 9 0 13 6l-1 1a22 22 0 0 0-13-6z"/><path d="m463 207-2 3v1l-1 3v3h1q0 4 5 3l4-3 2-1 2-2h1l1-4-2 3v1l-2 2-2 1-4 3q-5 1-5-3-2-5 1-6v-1zl3-2h-1z"/><path d="M461 216h3v2h4-4v-2zl-1-2z"/><path d="m463 214 2 1h2v-1zm1 2-1-1v-1l3 1v1zm0 2v2l1-2zm0 0-1 1zm-2-1-1 1zm0 0"/><path d="m461 216 1 3 1 1h2l1-1v-1 1h-1l-2 1-1-1zm1-6-2 2h1zh2v-1zm7 4 1 3c2-2-1-4-1-4zm-6 0 1 2-1-1zm2-7s3 1 0 4l2-2q0-2-2-2m9 4-2-1h-3l-1 2 2-2q1-1 2 1z"/><path d="M474 211h-1l-2-1-2 2 2-1z"/><path d="m472 212-2 1-1-2 1 1zq1 0 0 0m-1 0-1-1zm-5-3q0-1 0 0m-2-1s3 0 2 3v-3zm0 1 1 2h1zm1 0 1 1zm3 2v2l-1 1 1-2zm10 11c2 0 8 5 8 5l1-1zm2 6q1 4 3 4v-1s-2-1-2-3zm-6 1 2 5h1zm-8 0v2h1z"/><path fill="#fff" d="m430 216 1 3v-3zm2 1 1 3h1l1-3zm3 0 1 2 1-1-1-2zm4 1-1 1-1-1v-1s1-1 2 1m-9 16v-3h1l1 3zm6-3v-2l2-1 1 2zm-2 1 1-3h1v3zm-2 0v-2h2v2s-2-1-2 1z"/></g><g fill="#00a651" stroke="#000"><path d="M462 270s5 5 4 10c0 0 3-8-1-10z"/><path fill="#964b36" d="M455 275v3q-2 1 0 5l-1 4q-1 2 1 5h3l1-5-1-5v-6z"/><path d="M457 269s-7-12-11-12q-6-3-5-5c1-2 1 2 4 2s10 5 11 8l2 4z"/><path d="M457 268s2-15 12-15 6 1 9-1l-11 4c-4 0-8 8-7 10q-1 3-4 3z"/><path d="M459 274s2-6 6-4c0 0-3-6-8-1zm-8-6s4 13-1 17c0 0 0-7-3-11s3-8 4-6z"/><path d="m452 270 6 8c0 2 2-6-1-8l-6-3z"/><path fill="#964b36" d="m441 285 2 3 1 2q-1 1 1 2v4l4-1-1-4-1-3q1-1-2-3l-1-3z"/><path d="M444 282s-8-3-12 1l7 2c1 2 5-2 5-3z"/><path d="m441 287-1-1c-1-1-7-2-8 4 0 0-3-6 1-7q5-1 8 4m-5-13 4 5h1s-3-5-5-5zm-1-8s-2-6-5-5c-2 2-2 7-2 7s-4-5-2-9c3-4 9 0 9 7z"/><path fill="#964b36" d="m440 280 1 1 2 1-2-4z"/><path d="M438 272s0-6 4-8l1-1s-3 7-2 11v1"/><path d="M439 265s7-14 15-9c0 0-8 2-12 8l-3 4z"/><path d="m436 270-4-10q-2-3-6-1s5-4 9-1q6 8 4 9v6l-4-3"/><path d="M443 281s-8-15-14-4v4s-3-2-1-8 10-3 13 2l3 7zm23 5s6-13 10-7q1 1-1 4s-2-3-4 1l-2 3z"/><path d="M475 283s3 2 2 5c0 0 5-8-1-9q1 1-1 4zm1-9s7 3 8 6c0 0 1-7-3-9 0 0-6 1-5 3z"/><path d="M479 264c3-7 8 2 8 2s1-7-3-8-7 15-7 15l-5 1s1-14 9-15h1"/><path d="M473 268s-5-10-8-11 2-2 4 0 5 4 5 9zm-5 13s1-6 5-8l7-2c1 0-4 1-5 4l-2 2z"/><path fill="#964b36" d="m466 286-2 4-1 5 3 1q2-1 2-5l1-4z"/><path fill="#000001" stroke="none" d="M455 279h3l-1-1zm0 4h4l-1-1zm-1 4s3 2 5 0h-1q-3 2-4 0m-11 1 3-3h-1zm1 2q2 1 3-2-2 3-3 2m1 2 3-2zm19-1 3 1 1-1h-1z"/></g><g fill="#964b36" stroke-width="0"><path d="M551 298h-1v-3h-1v-14 2-4l-4-2v19l-3 3v1h1l-1 1h4l1-1h2v-1h2z"/><path d="M545 300h3l1-1h2v1l1-1v-1h-1v-1l-1 1v-1h-1l-1-1v1l-1 1h-2v-1 1h-1v1h-1v-1 1l-1 1h2m-3-3-1 1h-1v2h2l1-1v-2"/></g><g stroke="#000"><path d="m551 278-2 1-1-1 1-2zm-5-2-1 1q-2 1-2-1l2-2z"/><path d="m549 277-2 1-1-1 1-2zm-3 1-1 2-1-2 1-2zm3 1-2 2-1-2 1-1z"/></g><path fill="#00a651" stroke="#000" d="M549 262s14-20 29 0l-1 4-1-1h-1v-1h-1v-2l-2 1 1-1-2 2v-5l-2 4v-3l-1 2v-2l-1 2-1-1v1l-2-2v2l-1-2v2l-1-2v2l-3-1v1l-1-1v1h-2l1 1h-2v1l-3-1 1 1v1s15-5 16 14l-3 1 1-1-1-1-2-2 1-2h-1v-1h-1l-1-1v-1l-1 1v-3l-1 2-1-1-1-1-1 1v-1 1l-2-1v1l-1-1v1l-2-2v1l-2-1v1s14 8 10 21l-1 1v-4l-2 2 1-4-1 1v-2l-1 2v-3l-1 1-1-3v1l-1-4-1 2-1-3v2l-2-3v1l-1-2v1l-3-1c-1-1-3 4-3 4v-3l-1 2v-2l-2 5v-4l-1 4v-1 1h-1v1l-1-1v2l-1-1-1 3v-1 2l-1-1v3l-1-1v3h-1l1 2s-4-7 0-14q9-10 11-9v-1l-4 2v-1l-1 1v-2l-1 2v-1l-1 1-1-2v3l-1-2-1 4v-3l-1 3v-3l-1 3v-3l-1 3-1-3-1 3v-2l-1 3-1-3-1 5-1-2v3l-1-2 1 4-1-1 1 2-2-2v3l-1-1v1s-1-13 8-15c9-3 15 0 15 0l-3-2v-1h-1v-1h-2v-1h-2v-1l-1 1 1-1-2 1v-1l-1 1-1-1-4 4 1-4v-1l-2 2v-1 2l-1-2-1 2-1-2v2-1l-1 2-1-1v1l-2-1v1l-1-1-1 2-1-1v2l-1-2v2s7-20 27-7l3 4q1 2 0 0v-14 6l1-2v3l2-4s-3 7-2 9c0 0 1-8 4-9l-3 6h1v1l-1 2v2z"/><path d="M547 270h3-4m0-7v1h1l-2 2h1l3-3zl1-1zv-1z"/><path d="M544 263v1l2 5h1l-1 1h1l1-3h-1v1l-2-3h1zh1v-2h-1v1zm-2 6h2l1 1v-1l-1-1zm2 6v-3zm4-1-1-2h1zm2 2-1-2h1z"/><path fill="#00a651" stroke="#000" d="M443 340h-4l-2 2h5l1-2m0 1-1 3q2 2 1 3l1-5q-1-3-1-1m-3-6-2 2-1 3 4-3v-1m1 0v-3l-2-2v4l2 1m-3-1-1-3-2-1 2 4 1 1m5 4s2-1 3 2q0 3-1 2z"/><path d="M443 341v3h1zl1-5z"/><path d="m441 341 3-1zm3-3-6-3v-1z"/><path d="m440 337 1-2 1 1zm2-1-2-2 1-1zm1 4 2 1h1z"/><path fill="#fff" stroke="#000" d="M471 341q3-3 3-5l-5 3c3-2 6-10 6-10 0 3-8 6-12 8-5 3-2 10-2 10q-3-2-5-8 0-5-5-5c-3-1-5 3-5 3l-4 2h4s4 1 4 4-3 13 2 19c3 4 16 7 16 7"/><path fill="#fff" stroke="#000" d="M462 349s1-4 4-4 4-4 6-4c2-1 11-4 12-8 0 0-1 7-9 11 0 0 7-2 8-4 0 0-4 7-11 8 0 0 7 0 8-2 0 0-3 4-8 4 0 0 5 2 6 1q-1 2-6 3h1s-4 4-7 2-4 0-4 0m7 1 5 10s7 8 10 9l-4-2 3 3-2-1 1 1h-2v1l-2-1v1h-4l-2 2-5-12"/><path d="m474 379-7-13h1zm5-1-10-12v-1l11 12zm3-1-12-12zm-31-40h-3zm-5 0-1 1zm4 0-1 1h-1zm0 0h-1zm0 0h-2zm0 23v2l2 2 1 1 1-1s-3-1-4-4"/><g fill="#964b36" stroke="#000"><path stroke="none" d="M549 335s6-8 11-6l8 3s0 5-2 5-6-5-8-3l-4 4c-1 1-7 1-5-3"/><path d="m528 370-1 2h2z"/><path d="M527 372s-3-2-5 2l-6 11c-1 1 13-6 13-9v-4z"/><path stroke="none" d="M527 372s-3 1-3 5q-3 7-5 7m49-52s-4 2-4 5"/></g><path fill="#fff200" d="M534 341s0-10 9-10v2q1-1 3 1 2-1 3 2 2-1 3 2 1-1 2 1 1-1 2 1 1-1 2 2 1-2 4 1c1 3-3 10-7 11"/><path d="M558 342s1 8-4 11v1c5-3 4-12 4-12m-6 9c3-3 4-10 4-11s-1 8-4 11m-2-2 4-10s-4 5-5 10m-2-1c0-6 4-10 4-10v-1s-4 5-5 11m-3-2c0-7 4-10 4-10v-1s-4 4-5 11zm-3-2c0-6 4-10 4-10s-5 4-5 10m-5-2a10 10 0 0 1 7-9 11 11 0 0 0-8 9"/><path fill="#00a651" d="M529 354s-2-10 4-13l2 1q2-1 3 2 1-2 2 0 2-1 3 2 1-1 2 2 2-1 3 1 2-1 2 1 2-1 2 3 2-1 2 1s4 1 2 3l-9 7"/><path fill="#00a651" d="M525 364s-2-8 3-10h2q1-1 3 1 1-1 3 1 1-1 1 1 1-1 2 1 1-1 2 1 2 0 2 2l1 1q2-1 2 2 1-1 1 2-4 4-8 5"/><path fill="#00a651" d="M528 371s-5-5-2-7l1 2h4l1 1 2 1 1 1 2 1s3 1 1 2h-8z"/><path d="m546 362 8-9s-5 7-8 8m-2-1c3-1 8-8 8-8v-1c0 1-5 8-8 9m-1 0 7-11-7 10m-2-1c0-4 6-10 6-10h-1s-5 6-6 10m-11-5c-1-6 4-12 4-12s-5 6-5 12m3 0c-1-4 4-10 4-10s-5 6-5 10m5 2c0-5 5-10 5-10s-5 5-5 10m-11 9c-2-5 1-11 1-11h-1s-3 6-1 11m2 0c-2-4 1-11 1-11h-1s-2 7-1 11m8 5c5-1 9-6 9-6h-1s-3 4-8 6m-1-1c4-1 8-6 8-6v-1s-4 5-8 7m-1 0 7-8h-1zm-5-3 2-11s-3 6-2 11m3 1c3-3 4-10 4-11s-1 8-4 11m2 1 6-9s-2 6-6 9m0-13-3 11v1zc-1-6 4-12 4-12s-5 5-5 11"/><path d="M539 357c0 1-1 8-5 11 4-3 5-10 5-11l6-9zm-12 9 1 5h1zm2 0v5zm0 5 2-5zm0 0 4-4h-1s0 3-3 4m1 0 4-4s-2 3-4 3m0 2q6-1 6-3h-1s-1 2-5 3"/><path d="M530 372s5 1 7-2c-2 3-7 2-7 2"/><path fill="none" stroke="#000" stroke-width="3" d="M421 193v137c0 44 80 71 80 71s81-27 81-71V193z"/></g><path fill="#012169" d="M0 0h320v240H0z"/><path fill="#FFF" d="m38 0 122 91L281 0h39v31l-120 90 120 89v30h-40l-120-89-119 89H0v-30l120-89L0 32V0z"/><path fill="#C8102E" d="m212 141 108 79v20l-135-99zm-92 10 3 17-96 72H0zM320 0v2L196 96l1-22 98-74zM0 0l120 88H90L0 21z"/><path fill="#FFF" d="M121 0v240h80V0zM0 80v80h320V80z"/><path fill="#C8102E" d="M0 97v48h320V97zM137 0v240h48V0z"/></svg>