<svg xmlns="http://www.w3.org/2000/svg" xmlns:xlink="http://www.w3.org/1999/xlink" viewBox="0 0 640 480"><defs><linearGradient xlink:href="#fk-a" id="fk-c" x1="444" x2="471" y1="592" y2="577" gradientTransform="matrix(-1.08448 0 0 1.26674 910 -415)" gradientUnits="userSpaceOnUse"/><linearGradient xlink:href="#fk-a" id="fk-g" x1="852" x2="646" y1="370" y2="370" gradientTransform="matrix(.85733 0 0 .9624 -161 0)" gradientUnits="userSpaceOnUse"/><linearGradient xlink:href="#fk-a" id="fk-d" x1="458" x2="521" y1="563" y2="553" gradientTransform="matrix(-1.01941 0 0 1.3554 910 -415)" gradientUnits="userSpaceOnUse"/><linearGradient xlink:href="#fk-a" id="fk-e" x1="472" x2="445" y1="579" y2="580" gradientTransform="matrix(1.08448 0 0 1.26674 50 -415)" gradientUnits="userSpaceOnUse"/><linearGradient xlink:href="#fk-a" id="fk-f" x1="518" x2="456" y1="554" y2="558" gradientTransform="matrix(1.01941 0 0 1.3554 50 -415)" gradientUnits="userSpaceOnUse"/><linearGradient id="fk-a"><stop offset="0" stop-color="#a43907"/><stop offset="1" stop-color="#fff"/></linearGradient><linearGradient xlink:href="#fk-a" id="fk-h" x1="389" x2="677" y1="507" y2="509" gradientTransform="matrix(.88927 0 0 1.54542 50 -414)" gradientUnits="userSpaceOnUse"/><linearGradient xlink:href="#fk-a" id="fk-i" x1="580" x2="557" y1="505" y2="506" gradientTransform="matrix(.91096 0 0 1.52008 50 -415)" gradientUnits="userSpaceOnUse"/><linearGradient xlink:href="#fk-a" id="fk-j" x1="581" x2="559" y1="512" y2="514" gradientTransform="matrix(-.88927 0 0 1.54542 909 -414)" gradientUnits="userSpaceOnUse"/><linearGradient xlink:href="#fk-a" id="fk-k" x1="552" x2="590" y1="518" y2="504" gradientTransform="matrix(-.91096 0 0 1.52008 910 -415)" gradientUnits="userSpaceOnUse"/><linearGradient xlink:href="#fk-a" id="fk-b" x1="444" x2="471" y1="592" y2="577" gradientTransform="matrix(.85733 0 0 .9624 -162 -1)" gradientUnits="userSpaceOnUse"/></defs><path fill="#012169" d="M0 0h640v480H0z"/><path fill="#012169" fill-rule="evenodd" d="M0 0h400v200H0z"/><path fill="url(#fk-b)" fill-rule="evenodd" stroke="#fff" stroke-width="10" d="M413 309a11 13 0 0 0-2 0c-3 0-7 11-10 17l-8 13-1 4c-6 2-6 8-6 10v4l4 7c4 9 9 21 13 22 4 2 16-3 24-12a141 158 0 0 0 54 13q30-1 53-13c9 9 20 14 25 12 3-1 8-13 12-22l4-7 1-4c0-2-1-8-7-10q1-2-1-4l-8-13c-2-6-7-17-10-17-4-1-13 1-13 2v1l-17 18c0 1 0 14 4 26a126 142 0 0 1-43 9q-26-1-44-9a117 131 0 0 0 5-26l-18-18v-1zm4 23q4 1 7 4v2a68 76 0 0 1-3 10 74 83 0 0 1-12-10q3-4 8-6zm127 0q6 2 9 6a73 82 0 0 1-13 10 67 75 0 0 1-3-10v-2zm-143 26 10 7-4 2h-4a15 17 0 0 1-1-6 60 68 0 0 1 0-3zm159 0v3a15 17 0 0 1-1 6 10 12 0 0 1-8-2z"/><path fill="url(#fk-c)" fill-rule="evenodd" stroke="#000" d="M426 340s-6-11-11-11c-5 1-10 8-10 9a45 52 0 0 1-8-10c1 0 8-21 12-22s13 2 13 3z"/><path fill="url(#fk-d)" fill-rule="evenodd" stroke="#000" d="M440 328s-2 30-11 40-23 17-28 15c-5-1-17-31-17-31s12 14 22 12c9-3 14-20 16-29s0-26 0-26z"/><path fill="url(#fk-e)" fill-rule="evenodd" stroke="#000" d="M533 340s6-11 11-11c5 1 10 8 10 9a45 52 0 0 0 8-10c-1 0-8-21-12-22s-13 2-13 3z"/><path fill="url(#fk-f)" fill-rule="evenodd" stroke="#000" d="M519 328s2 30 11 40 23 17 28 15c5-1 17-31 17-31s-12 14-21 12c-9-3-15-20-17-29v-26z"/><path fill="url(#fk-g)" fill-rule="evenodd" stroke="#000" stroke-width="2" d="m401 326-8 13q-2 5 4 14a122 122 0 0 0 168 0q6-9 3-14l-8-13c0 8-29 39-79 39s-80-31-80-39z"/><path fill="url(#fk-h)" fill-rule="evenodd" stroke="#000" d="m558 379 8-15-4-4c-1 4-6 6-7 11q1 8 3 8z"/><path fill="url(#fk-i)" fill-rule="evenodd" stroke="#000" d="M565 375s1-7-3-8c-5-1-7 4-6 2q2-2 3-11v-10s2-9 9-8c7 2 7 8 7 10v4z"/><path d="m539 352 2 2h1l-1-2 2-2 4 9v1h-1l1 1 4-3v-1l-1 1h-1l-4-9 1-1h1l1 1h1l-2-3zm-10 6v1h1l4 9-1 1 1 1 4-3-1-1-1 1-2-5 5-2 1 4v1h-1l1 1 4-2v-1h-2l-3-9v-2l-4 3v1l1-1h1l1 4-4 2-2-3v-1h1v-1zm-3 8h1l1 3-1 1q-3 0-5-4-1-5 2-6h2l1 1h1l-1-3-3 1q-6 2-4 8t7 4a11 13 0 0 0 3-2l-1-4 1-1v-1zm-9 10 4-1v-1h-1l-3-10 1-1-5 1 1 1h1l3 9-1 1zm-26 5 8-1v-3h-1v2l-4 1v-5l2-1v2h1v-4h-1v1l-2 1-1-5h4v2h1v-3h-8v1h1v1l1 10zm-12-12v10h-1v1h4v-1h-1v-5h5v5h-2v1h5v-1h-1v-11h1v-1h-5v1h1v5h-4v-4h1v-1zm-10-1v4h1l1-2v-1h2v11h-2v1h5v-1h-1v-10h2v2h1v-4zm-14 11h8v-3h-1v2h-4v-5h2l1 2 1-4h-1v1h-3l1-5 3 1v2h1v-3l-7-1v1h1v1l-1 10h-1zm-19-6 5 2v-1h-1v-1l2-9h2v-1l-4-1h-1l1 1h1l-3 10zm-7-3 2 2q5 1 5-2v-4l-2-2-1-2 2-1 1 1v2h1l1-3-2-1q-3-1-5 2l1 3 1 2 1 3-2 1-2-1 1-3h-1zm-10-4 7 4 2-3-1-1-1 2h-1l-3-2 2-4 2 1v2l2-4-1-1-1 2-2-1 2-4 3 1v1l-1 1 2 1 1-3-7-4-1 1 1 1-3 9h-2zm-1-15-4-3v2l-4 8h-1v-1l-1 1 4 3q1 2 3 1 3 0 5-3 2-5-2-8m-2 0h1q3 3 1 7-3 4-6 2l-1-1zm30 13-1 10h-2v1l5 1v-1h-1v-5h1l1 3 1 3 2 1h1v-1l-1-1-1-3-1-2q3 0 3-2 0-3-3-4zm3 1q2 1 2 3 0 3-3 2zm54 1v1h1l2 10-1 1h-1l1 1 4-1v-1h-1l-1-4q3-1 3 2l2 2h2a12 14 0 0 0 1 0v-1l-2-1-2-3h-1l2-4q0-3-4-3zm3 1q2-1 3 2l-2 3h-1z"/><path fill="url(#fk-j)" fill-rule="evenodd" stroke="#000" d="m402 379-8-15 4-4 6 11c1 4-3 9-3 8z"/><path fill="url(#fk-k)" fill-rule="evenodd" stroke="#000" d="M394 375s-1-7 3-8c5-1 7 4 7 2q-3-2-4-11v-10s-2-9-9-8c-7 2-7 8-7 10l1 4z"/><path fill="#0072c4" fill-rule="evenodd" stroke="#fff" stroke-width="4" d="M481 356s-82-27-82-129l1-136h161l1 135c0 102-82 130-82 130z"/><g fill-rule="evenodd"><path fill="#bcbcbc" d="m410 124 2-2 4-3 4-1 3-3v-5l4-2 4-2h4l4 1 4 3 3 3 3 2 4 3 2 3a27 30 0 0 0 4 2l5 2h4l5 1h9l5 1h14a37 42 0 0 0 5 0l5-1h6l4 2 4 1 3 3a18 20 0 0 1 3 5l2 5v5l1 6-1 6-1 5-1 4v11a52 58 0 0 0-3 6l-2 3-1 2 1 3v6l1 4q2 1 0 0-2 2-3-1l-1-4-1-5q0-3-3-2l-4-2q-2-1-2 2v6l-1 4-3 4q-1 2-3 2l-2-3 2-4 2-4-2-3a19 22 0 0 1-2-5l-3-1-4 2h-5l-5 1h-8l-5-1-4-1-4 1-4 4-1 5-2 4-1 5q1 3-2 1l-2-3 1-6h-2l-1 5-2 3-3 3v-7l1-6-1-5-3-3-4-2-3-3-3-2-2-3-2-5a16 18 0 0 0-1-5 18 20 0 0 0-1-5l-1-5v-11l-1-5-1-5q0-2-2-3-1 2-4 2l-4-1-3-1a32 36 0 0 0-2-3l-1-6z"/><path fill="#fefefe" d="m430 138 1-1 2-2 2-1 3-2 2-2 3-1h3l3-3v-2q0 3-2 3l-2 4-2 2-2 3 1 1h2a10 12 0 0 0 2-3l2-3 2-2 2-2 2-2-1 4 1 3 1 2v-4 3l1 4 1 1 1-4v4l1 3 1 1 1-6v-3 3-4a29 32 0 0 1 1 5v3l2-2a13 15 0 0 1 2-3l-2 3a13 15 0 0 1 2-3 30 33 0 0 0-1 3l1 4v3l1 2q1 1 1-2v-4q0-2 1 1v4l1 2 2-3 1-3 1-2 1-4a30 34 0 0 0 0-4l2 1v4l1 3 2 3v4l1-5v-4l-1-3v-2h3l1 2 1 4 1 3h1l1-3 1-2v3l2 4 1 1v-8l1-3 1 3 1-2h1v5l2 2a12 14 0 0 0 1 3l2 1v-5l-1-4v-3l2 4 1 3a15 17 0 0 1 2 3l2 3h2l-1-4v-4l-3-3v-1a19 22 0 0 1 3 4l2 2 3 2 2 1-2-1 2 1v1l-1-5-2-3-3-2-2-3q1-1 4 1l2 3a13 15 0 0 0 2 4l3 2v-1q0-3 1-1l3 2 1 1 1-1-3-4-2-2-1-3 1 3-1-3 3 2 2 2 1 2 3 2 1 3 1 4q-1 1-1-1l-2-1 1 4-1 2-1-1-1-3v1l1 4v19a17 19 0 0 0 0 4v-4 4l-2-4-1-3-1-3-1-2v6l1 3v4l-1 2-1 2-1-4-2-4-2-3-1-3-2-3-1-1v4l1 5v3l-2-5-2-3-1-3-1-1 1 3 1 4-2-6-2-4-2-2-2-1 1 4 1 3q0 2-1-1l-1-3-2-2q-1-1-1 1l1 4v9l-1-3-2-4h-2l1 4q-1 2-2-1l-2-2-1-2v-3l-3 1v8l-1 2-1 3h-1v-13l-2-1v2l1 4v4l-1 3-1 1-3-2h-3l-2-2a23 26 0 0 1-1-5l-1-3-1-2-1 4-1 3-1-3q1-3-2-3t-2 2l2 4v4l-1 2-2-5-1-1-2 1v2h-1v3l-1 3q-1-1 0 0l-5-2-1 2h-4l-3 1h-3l-2-1 1-2a15 17 0 0 0 2-2l2-2 2-3 3 1h3l3-2 3-1 2-3 1-3-3 1-3 2-2 1h-3l-4 1 4-2 2-2q2 1 2-2h-2l-3 1-3 1v-2l2-2-3 1h-10l-1-2 3-1 2-2q2 0 1-1h-3l1-1h3l3-1 2-2 2-3 2-2 1-2-3 2-2 2-3 1h-3q-2 0 0-1v-2l-3-1h-3l-3-1h1a13 15 0 0 0 3-1l2-2h-4zm-20-6-1-6 1-2 2-2 4-3 4-1 3-3v-5l4-2 4-2h4l4 1 4 3 3 3 3 2v1q0 3-2 2l-2-3v2l-2 1-1-4q0-2-1 0l1 3h-6q-2 1-1 2l3 2 4-1h3l2 1-1 2-1 2-3 1-4 1-1 3-4 1-1-1a9 11 0 0 0 2-3v-2q-2 0-2 2 0 3-2 2l1-3a18 21 0 0 1-3 0l-1 2h-3l-1-1q-1-2-3-2l-2 2-2-1q-2 0-1 2l1 1h6l1 2h-4a12 14 0 0 1-2 0h-3q-2 0 0 0l3 2-1 2h-4z"/><path fill="#bcbcbc" d="m417 122-1 1-3 3h-1l2-1 3-1zm11-13 1 1 1 3 1-3-2-2q1 1-1 1"/><path fill="#c4c4c2" stroke="#000" d="m349 418 2-1 1-2 2 1 3 1v1h-3l-3 1z" transform="matrix(1.08448 0 0 1.26674 43 -410)"/><path fill="#bcbcbc" d="M433 109v4l2-2q0-4-3-3m9 33 1-1 2-2 3-2 2-1q0 3-2 3l-2 2-2 1q-1 2-3-1zm5 8 3-3 2-3 2-3 2-3v4l-1 3-2 2-2 2a19 21 0 0 1-3 1zm-8 6 1-1 3-2 3-1h1v2l-3 2-3 1-1-1 2 1zm11 0v-1q1-3 3-3l2-1v2l-1 3-3 1z"/><path d="m425 120-1 1-1-1 1-2z"/></g><g fill="#005120" fill-rule="evenodd" stroke="#002b0d"><path d="M352 480h1q-4-1 3 3 2-2 4 1 1 2 2-2 0 7 4 4l7 1c2 3 1-1 3 1 4 0 4-4 8-5q3 3 7-1c2 1 5 5 5 1q2-4 4 0 2 1 4-2 4 3 11 1 1 4 4 1 4 3 10 0 2-3 2 2l7-1q4 1 5-3 2 4 5 1c4 0 3 1 5-1 2 4 3 1 5 3l-6 7q-2 5-6 7l-8 6-13 1h-37l-11 3-11-1-7-6-4-6-3-9z" transform="matrix(1.08448 0 0 1.26674 47 -411)"/><path d="m438 488-2 4-3 2m-3-3-6 8 6-8-6 8m-7-12-1 4m-2 2zm-7-5h-1q1 0 0 0zm-50 0 4 4v8m3-7 5 4-5-4 5 4v1-7q2 4 3 2l11-3q-1 1 1 2m60-4h1l-5 7m-33-9h7" transform="matrix(1.08448 0 0 1.26674 47 -411)"/></g><path fill="#fff" fill-rule="evenodd" d="M426 214c-12 0-16 14-27 14h-1v1l2 26c11-1 15-14 26-14s15 14 27 14c11 0 15-14 27-14 11 0 15 14 26 14 12 0 16-14 27-14s15 13 26 14a139 156 0 0 0 2-27h-1c-11 0-15-14-27-14s-15 14-27 14c-11 0-15-14-27-14-11 0-15 14-26 14-12 0-16-14-27-14m0 53c-9 0-13 8-20 12a111 125 0 0 0 8 20q5-4 12-5c11 0 15 14 27 14 11 0 15-14 27-14 11 0 15 14 26 14s16-14 27-14a18 21 0 0 1 12 5 112 126 0 0 0 8-20c-6-4-11-12-20-12-11 0-15 14-27 14s-15-14-26-14-16 14-27 14c-12 0-16-14-27-14m54 53c-12 0-16 13-27 13s-15-12-25-13a132 132 0 0 0 39 33c4-3 7 3 13 3 5 0 9-6 12-3a129 145 0 0 0 39-33c-10 2-14 13-25 13s-15-13-26-13"/><g transform="matrix(.86465 0 0 .97062 -175 3)"><path fill="none" stroke="#512007" d="m333 541 10-3 16 16-13 3z" transform="matrix(1.25 0 0 1.3 259 -430)"/><path fill="none" stroke="#512007" d="M414 471c0-5 8-31 8-31m-5 31 6-31m-4 31 5-31m-10 27 6-2m-4-2 4-2m-3-2 4-1m-4-3 5-1m-2-3h3m-3-4 4 1" transform="matrix(1.06 0 0 1.03 277 -178)"/><path fill="none" d="M773 327c0-8-11-55-11-55m8 53-9-52m5 48-6-48m13 47-7-3m4-5-5-2m4-4a30 42 0 0 0-5-2m5-6-6-1m3-5h-4m3-6h-4"/><path fill="none" stroke="#512007" d="M414 471c0-5 8-31 8-31m-5 30 6-30m-3 28 4-28m-10 27 6-2m-4-2 4-2m-3-2 4-1m-4-3 5-1m-2-3h3m-3-4 4 1" transform="matrix(-1.25 0 0 1.3 1321 -302)"/><path fill="#dd8b59" fill-rule="evenodd" stroke="#512007" d="m395 572 1-73h3l-1 73zm29-70-1 62-2 2 1-64z" transform="matrix(1.25 0 0 1.3 259 -430)"/><path fill="#dd8b59" fill-rule="evenodd" stroke="#512007" d="M363 560s3 30 36 29c34-1 43-30 43-30h-14c-1 0-12 14-27 13q-19-1-22-6l-6-8-17-6 1 6zm90-3-1-4v-3l2-4-25 4v7z" transform="matrix(1.25 0 0 1.3 259 -430)"/><path fill="none" stroke="#512007" d="m449 550-1 6h4v-6zm-5 0v6h2l1-6zm-4 6v-5h2l1 5zm-5 0v-4h3l1 5zm-6 0 1-4h3v5zm-67 4 7 1 8 10" transform="matrix(1.25 0 0 1.3 259 -430)"/><path fill="none" stroke="#512007" d="M367 561s6 20 34 20 34-22 34-22" transform="matrix(1.25 0 0 1.3 259 -430)"/><path fill="none" stroke="#512007" d="M440 559s-14 29-39 27c-26-2-30-11-32-16l-3-9" transform="matrix(1.25 0 0 1.3 259 -430)"/><path fill="#dd8b59" fill-rule="evenodd" stroke="#512007" d="M373 558v-54h-1v53zm-41-17 22 11-1 1-21-10z" transform="matrix(1.25 0 0 1.3 259 -430)"/><path fill="#dd8b59" fill-rule="evenodd" stroke="#512007" d="m342 538 3 18 2 1-3-19zm20 0 21-3v3l-20 2z" transform="matrix(1.25 0 0 1.3 259 -430)"/><path fill="#fecf3e" fill-rule="evenodd" stroke="#512007" d="m365 514 10 3q2-2 1-3h4l1-4z" transform="matrix(1.25 0 0 1.3 259 -430)"/><path fill="#dd8b59" fill-rule="evenodd" stroke="#512007" d="m363 522 23-6v2l-23 6z" transform="matrix(1.25 0 0 1.3 259 -430)"/><path fill="#fecf3e" fill-rule="evenodd" stroke="#512007" d="m415 513 3 3 3-2q0 2 3 2c2 0 3-4 3-4l3 1 2-5zm-2 28 3 2 3-2q-1 3 4 3 4-3 3-4l2 1c3 1 5-3 5-3z" transform="matrix(1.25 0 0 1.3 259 -430)"/><path fill="#dd8b59" fill-rule="evenodd" stroke="#512007" d="m363 513 1 3 19-7v-1zm25-4 20-6v3l-18 5z" transform="matrix(1.25 0 0 1.3 259 -430)"/><path fill="#fecf3e" fill-rule="evenodd" stroke="#512007" d="M413 522s-3 3-2 7l3 9s3-6 7-6c3-1 10 3 10 3l-1-10c0-4 5-9 5-9z" transform="matrix(1.25 0 0 1.3 259 -430)"/><path fill="#dd8b59" fill-rule="evenodd" stroke="#512007" d="M387 517v2l24-6v-2z" transform="matrix(1.25 0 0 1.3 259 -430)"/><path fill="#b6b6b4" fill-rule="evenodd" stroke="#512007" d="M356 552h-6l3 4q-1 3 1 4l3-2v-5z" transform="matrix(1.25 0 0 1.3 259 -430)"/><path fill="#dd8b59" fill-rule="evenodd" stroke="#512007" d="M388 537v2l21-3-1-1z" transform="matrix(1.25 0 0 1.3 259 -430)"/><path fill="#fecf3e" fill-rule="evenodd" stroke="#512007" d="m363 541 2 2 3-2q0 2 4 3l5-4 2 2 3-3zm0-17s-3 0-2 6q2 8 4 8s2-5 6-6c3-1 9 3 9 3l1-9 3-8z" transform="matrix(1.25 0 0 1.3 259 -430)"/><path fill="#dd8b59" fill-rule="evenodd" stroke="#512007" d="M412 539v2l21-3v-2zm0-19v2l25-6v-2z" transform="matrix(1.25 0 0 1.3 259 -430)"/><path fill="none" stroke="#512007" d="M414 511v2l18-5 1-2c-2 1-18 6-19 5zm39 34-18-29m-3 20 2-18" transform="matrix(1.25 0 0 1.3 259 -430)"/><path fill="#fecf3e" fill-rule="evenodd" stroke="#512007" d="m389 510 4 3 3-3s0 4 2 3q4-1 3-3c-1-2 2 1 3 0l2-5zm-1 8q-2 3-2 10l3 8q1-2 9-5c3-1 9 3 9 3l-2-8c0-3 5-13 5-13zm0 21q0 2 3 3l3-2c0-1-1 3 2 3 4 0 5-4 5-4s0 2 3 1l6-4c-1 0-21 4-22 3z" transform="matrix(1.25 0 0 1.3 259 -430)"/><use xlink:href="#fk-l" width="992" height="496" transform="translate(-7 7)"/><use xlink:href="#fk-l" width="992" height="496" transform="translate(7 4)"/><use xlink:href="#fk-l" width="992" height="496" transform="translate(0 11)"/><path id="fk-l" fill="#be0f17" fill-rule="evenodd" stroke="#512007" stroke-width="1" d="M409 477a2 2 0 1 1-4 0 2 2 0 0 1 4 0z" transform="matrix(.04 -1.07 1.02 .04 252 668)"/><path fill="none" stroke="#512007" d="m398 500 9 4 32 43m-15-43 8 4 2 6m-61-10 9 7 1 5m-42 30 33-26m-40 21 31-26m22 4 30 49m-4-29s3 12 7 14l8 4" transform="matrix(1.25 0 0 1.3 259 -430)"/><path fill="none" stroke="#512007" d="M413 540s2 13 6 16l7 5" transform="matrix(1.25 0 0 1.3 259 -430)"/><path fill="none" stroke="#512007" d="M391 439s3 19 10 24l13 8" transform="matrix(1.25 0 0 1.3 256 -299)"/><path fill="none" stroke="#512007" d="M391 439s7 15 14 19l15 10m-54-28 4 13 6 7m-9-20 6 13 16 17" transform="matrix(1.25 0 0 1.3 256 -299)"/><path fill-rule="evenodd" stroke="#512007" d="M385 471a2 2 0 1 1-5 0 2 2 0 0 1 5 0zm10 5a2 2 0 1 1-3 0zm14 1a2 2 0 1 1-4 0 2 2 0 0 1 4 0zm12-4-2 1-1-2 1-1zm9-6q1 1-1 1l-2-1 2-2z" transform="matrix(1.25 0 0 1.3 256 -299)"/><path fill="red" fill-rule="evenodd" stroke="#512007" d="m374 404-13 4 13 2zm25-4-9 3 9 2zm25 3-9 3 9 2z" transform="matrix(1.25 0 0 1.3 256 -299)"/><path fill="none" stroke="#512007" d="M414 471c0-5 8-31 8-31m-5 30 6-30m-3 28 4-28m-10 27 6-2m-4-2 4-2m-3-2 4-1m-4-3 5-1m-2-3h3m-3-4 4 1" transform="matrix(1.25 0 0 1.3 256 -299)"/><path fill="none" stroke="#512007" d="M414 471c0-5 8-31 8-31m-5 31 6-31m-4 31 5-31m-10 27 6-2m-4-2 4-2m-3-2 4-1m-4-3 5-1m-2-3h3m-3-4 4 1" transform="matrix(1.25 0 0 1.36 225 -323)"/><path fill="none" stroke="#512007" d="M414 471c0-5 8-31 8-31m-5 30 6-30m-3 28 4-28m-10 27 6-2m-4-2 4-2m-3-2 4-1m-4-3 5-1m-2-3h3m-3-4 4 1" transform="matrix(-1.25 0 0 1.32 1259 -307)"/><path fill="#dd8b59" fill-rule="evenodd" stroke="#512007" d="M426 559h28v-2h-28zm2-8 27-4v-3l-27 5z" transform="matrix(1.25 0 0 1.3 259 -430)"/><use xlink:href="#fk-l" width="992" height="496" transform="translate(0 6)"/></g><path fill="#012169" d="M0 0h320v240H0z"/><path fill="#FFF" d="m38 0 122 91L281 0h39v31l-120 90 120 89v30h-40l-120-89-119 89H0v-30l120-89L0 32V0z"/><path fill="#C8102E" d="m212 141 108 79v20l-135-99zm-92 10 3 17-96 72H0zM320 0v2L196 96l1-22 98-74zM0 0l120 88H90L0 21z"/><path fill="#FFF" d="M121 0v240h80V0zM0 80v80h320V80z"/><path fill="#C8102E" d="M0 97v48h320V97zM137 0v240h48V0z"/></svg>