<svg xmlns="http://www.w3.org/2000/svg" xmlns:xlink="http://www.w3.org/1999/xlink" viewBox="0 0 640 480"><path fill="#fff" d="M0 0h640v480H0z"/><rect fill="#fff" fill-rule="evenodd" rx="0" ry="0"/><rect id="gb-nir-a" width="640" height="96" y="192" fill="#c00" fill-rule="evenodd" rx="0" ry="0"/><use xlink:href="#gb-nir-a" width="600" height="300" transform="matrix(0 .75 -1 0 560 0)"/><path fill="#ebeae3" fill-rule="evenodd" stroke="#000" d="M355 147q4-8-3-9s-15 4-31 5-35-4-35-4q-5 4-1 10s17 6 36 5a111 111 0 0 0 30-5z"/><path fill="#fff" stroke="#161111" stroke-width="2" d="m320 358-31-65-71 6 40-59-40-59 71 6 31-64 31 64 71-6-40 59 40 59-71-6z"/><path fill="#b02320" fill-rule="evenodd" stroke="#000" d="M320 122c38 7 37 8 37 8l10-30s1-6-2-9-10-2-10-2-1-5-5-6c-3-1-16 5-20 6l-11 2c-6 0-16-5-17-6q-3-2-7-1-4 0-7 2l-1 4-5-1q-4 0-7 2l-3 6 4 8v12l7 12z"/><path fill="#ebeae3" fill-rule="evenodd" stroke="#000" d="m356 139 2 4-1 1v2l-1 1-1 1-4 1s-15-5-31-5-35 6-35 6l-2-2v-2l-1-1v-4l2-2s17-6 36-6 36 6 36 6z"/><path fill="none" stroke="#000" d="m276 102 1-5 5-1 1 2 2-1"/><path fill="#fc0" fill-rule="evenodd" stroke="#000" d="m370 107-6 12h-8l-3 1 5-12 1 4 4 3-1-5-3-7z"/><path fill="#121116" stroke="#121116" stroke-linejoin="round" d="M317 69h6v28h-6z"/><path fill="#f6ca1f" fill-rule="evenodd" stroke="#000" d="m277 120 4 9s18-7 39-7c31 1 40 7 40 7l5-11-4 2-3 2-4 2-5-1-5-3-2-5-4 4-6 1-7-1-5-8s-4 8-10 9c-8 1-12-4-12-4s-3 7-8 8c-7 2-13-4-13-4z"/><g stroke-width="2"><path fill="#eee" stroke="#1e1e1e" stroke-linejoin="round" stroke-width="1" d="M348 66q0 3-3 3l-3-3a3 3 0 0 1 3-4 3 3 0 0 1 3 4"/><path fill="#a3afb8" fill-rule="evenodd" d="m344 67 3-1-1-2 1 2-1 2z"/><path fill="#eee" stroke="#1e1e1e" stroke-linejoin="round" stroke-width="1" d="M340 70q0 2-3 3l-3-3a3 3 0 0 1 3-4l3 3"/><path fill="#a3afb8" fill-rule="evenodd" d="m335 71 3-1v-2l1 2-2 2z"/><path fill="#eee" stroke="#1e1e1e" stroke-linejoin="round" stroke-width="1" d="M358 63q-1 4-3 4a3 3 0 0 1-4-4 3 3 0 0 1 4-3l3 3"/><path fill="#a3afb8" fill-rule="evenodd" d="m353 65 3-1v-2l1 2-2 2z"/><path fill="#eee" stroke="#1e1e1e" stroke-linejoin="round" stroke-width="1" d="M369 66q0 2-4 3l-3-3a3 3 0 0 1 3-4 3 3 0 0 1 4 3"/><path fill="#a3afb8" fill-rule="evenodd" d="m364 67 3-1-1-2 2 2-2 2z"/><path fill="#eee" stroke="#1e1e1e" stroke-linejoin="round" stroke-width="1" d="M377 72q0 3-4 4a3 3 0 0 1-3-4l3-3a3 3 0 0 1 4 3"/><path fill="#a3afb8" fill-rule="evenodd" d="m372 74 3-1v-3l1 3-2 2z"/><path fill="#eee" stroke="#1e1e1e" stroke-linejoin="round" stroke-width="1" d="M380 83q0 3-3 4a3 3 0 0 1-3-4l3-3 3 3"/><path fill="#a3afb8" fill-rule="evenodd" d="m375 85 3-1v-3l1 3-2 2z"/><path fill="#eee" stroke="#1e1e1e" stroke-linejoin="round" stroke-width="1" d="M379 94q0 4-3 4a3 3 0 0 1-4-3 3 3 0 0 1 4-4l3 3"/><path fill="#a3afb8" fill-rule="evenodd" d="m374 96 3-1v-2l1 2-2 2z"/><path fill="#eee" stroke="#1e1e1e" stroke-linejoin="round" stroke-width="1" d="M374 104q0 4-3 4a3 3 0 0 1-4-4 3 3 0 0 1 4-3l3 3"/><path fill="#a3afb8" fill-rule="evenodd" d="m369 106 3-1v-3l1 3-2 1z"/><path fill="#eee" stroke="#1e1e1e" stroke-linejoin="round" stroke-width="1" d="M332 72q0 4-3 4a3 3 0 0 1-3-4l3-3 3 3"/><path fill="#a3afb8" fill-rule="evenodd" d="m327 74 3-1v-2l1 2-2 2z"/><g stroke-width="3"><path fill="#eee" stroke="#1e1e1e" stroke-linejoin="round" stroke-width="1" d="m322 72-3 2-2-2 2-3 3 3"/><path fill="#a3afb8" fill-rule="evenodd" d="m318 73 3-1-1-2 1 2-1 1z"/></g><g stroke-width="3"><path fill="#eee" stroke="#1e1e1e" stroke-linejoin="round" stroke-width="1" d="m322 75-3 3-2-3 2-3 3 3"/><path fill="#a3afb8" fill-rule="evenodd" d="m318 77 3-1-1-2 1 2-1 1z"/></g><g stroke-width="3"><path fill="#eee" stroke="#1e1e1e" stroke-linejoin="round" stroke-width="1" d="m322 80-2 3-3-3 3-3 2 3"/><path fill="#a3afb8" fill-rule="evenodd" d="m318 82 3-1v-2 2l-1 1z"/></g><g stroke-width="3"><path fill="#eee" stroke="#1e1e1e" stroke-linejoin="round" stroke-width="1" d="m323 86-3 3-3-3 3-3 3 3"/><path fill="#a3afb8" fill-rule="evenodd" d="m318 87 3-1v-2l1 2-2 2z"/></g><path fill="#eee" stroke="#1e1e1e" stroke-linejoin="round" stroke-width="1" d="M323 93q0 3-3 4a3 3 0 0 1-4-4 3 3 0 0 1 4-3l3 3"/><path fill="#a3afb8" fill-rule="evenodd" d="m318 95 3-1v-3l1 3-2 2z"/><path fill="#eee" stroke="#1e1e1e" stroke-linejoin="round" stroke-width="1" d="m323 109-4 3-3-3q1-3 4-4l3 3"/><path fill="#a3afb8" fill-rule="evenodd" d="m318 110 3-1v-2 2l-1 2z"/><path fill="#eee" stroke="#1e1e1e" stroke-linejoin="round" stroke-width="1" d="M314 72q0 3-4 4a3 3 0 0 1-3-4l3-3a3 3 0 0 1 4 3"/><path fill="#a3afb8" fill-rule="evenodd" d="m309 74 3-1-1-3 1 3-1 2z"/><path fill="#eee" stroke="#1e1e1e" stroke-linejoin="round" stroke-width="1" d="M305 69q0 3-3 3l-3-3 3-3 3 3"/><path fill="#a3afb8" fill-rule="evenodd" d="m300 71 3-1v-3l1 3-2 1z"/><path fill="#eee" stroke="#1e1e1e" stroke-linejoin="round" stroke-width="1" d="M297 65q0 3-3 4a3 3 0 0 1-4-4 3 3 0 0 1 4-3l3 3"/><path fill="#a3afb8" fill-rule="evenodd" d="m292 67 3-1v-3l1 3-2 2z"/><path fill="#eee" stroke="#1e1e1e" stroke-linejoin="round" stroke-width="1" d="M288 63q0 3-3 4a3 3 0 0 1-4-4 3 3 0 0 1 4-3l3 3"/><path fill="#a3afb8" fill-rule="evenodd" d="m283 65 3-1v-3l1 3-2 1z"/><path fill="#eee" stroke="#1e1e1e" stroke-linejoin="round" stroke-width="1" d="M277 66q0 3-3 3a3 3 0 0 1-4-3 3 3 0 0 1 4-4 3 3 0 0 1 3 4"/><path fill="#a3afb8" fill-rule="evenodd" d="m272 68 3-2v-2l1 2q0 3-2 2z"/><path fill="#eee" stroke="#1e1e1e" stroke-linejoin="round" stroke-width="1" d="M270 74q0 2-4 3l-3-3a3 3 0 0 1 3-4 3 3 0 0 1 4 3"/><path fill="#a3afb8" fill-rule="evenodd" d="m265 75 3-1-1-2q2 0 1 2l-1 2z"/><path fill="#eee" stroke="#1e1e1e" stroke-linejoin="round" stroke-width="1" d="M266 84q0 4-3 4a3 3 0 0 1-3-4l3-3 3 3"/><path fill="#a3afb8" fill-rule="evenodd" d="m262 86 3-1-1-3 1 3-1 1z"/><path fill="#eee" stroke="#1e1e1e" stroke-linejoin="round" stroke-width="1" d="m268 95-3 4a3 3 0 0 1-4-4l3-3a3 3 0 0 1 4 3"/><path fill="#a3afb8" fill-rule="evenodd" d="m263 97 3-1v-3l1 3-2 2z"/><path fill="#eee" stroke="#1e1e1e" stroke-linejoin="round" stroke-width="1" d="M273 106q0 2-3 3a3 3 0 0 1-4-3 3 3 0 0 1 4-4l3 3"/><path fill="#a3afb8" fill-rule="evenodd" d="m268 107 3-1v-2l1 2-2 2z"/><g stroke-width="3"><path fill="#eee" stroke="#1e1e1e" stroke-linejoin="round" d="M431 247a7 7 0 0 1-7 7 7 7 0 0 1-6-7 7 7 0 0 1 6-6 7 7 0 0 1 7 6" transform="matrix(.31597 -.08466 .13499 .50378 109 30)"/><path fill="#a3afb8" fill-rule="evenodd" d="m276 121 2-2-1-2 1 2v2z"/></g><g stroke-width="3"><path fill="#eee" stroke="#1e1e1e" stroke-linejoin="round" d="M431 247a7 7 0 0 1-7 7 7 7 0 0 1-6-7 7 7 0 0 1 6-6 7 7 0 0 1 7 6" transform="matrix(.31758 .0784 -.125 .50636 260 -40)"/><path fill="#a3afb8" fill-rule="evenodd" d="m362 120 2-1 1-2v2l-1 1z"/></g></g><path fill="#b3a192" fill-rule="evenodd" stroke="#000" d="M317 54v5l-7 2q0 6 2 7c2 1 2-2 8-2l8 1 1-4v-3h-7v-6z"/><path fill="#f0ddcb" stroke="#121116" stroke-linejoin="round" d="m326 63-1 1-1-1 1-1 1 1m3 0-1 2-1-2 1-1 1 1m-5 0-2 1-1-1 1-2 2 2m-6 0-1 1-2-1 2-2 1 2m-3 0-1 1-2-1 2-1 1 1m6-4-1 1a1 1 0 0 1-2-1l1-1 2 1m0-4-1 1-1-1 1-1 1 1m0 2-1 1-1-1 1-1 1 1m-9 7-2 1-1-1 2-1 1 1"/><path fill="#916c68" stroke="#4d3126" stroke-linejoin="round" d="m321 62-2 2a1 1 0 0 1-1-2l1-1 2 1"/><g stroke-width="3"><path fill="#eee" stroke="#1e1e1e" stroke-linejoin="round" stroke-width="1" d="m322 46-2 2-3-2 3-3 2 2"/><path fill="#a3afb8" fill-rule="evenodd" d="m318 47 3-1-1-2 1 2-1 1z"/></g><path fill="#fc0" fill-rule="evenodd" stroke="#000" d="m280 130 3 4 1 7s24-7 35-6l38 6 1-5 2-7s-25-8-41-7l-27 4zm35-94h10l-3 3-1 4 4-1 4-3v13l-4-3-3-1v3l5 6h-15l5-6 1-3h-4l-3 4V40l3 3h3v-4z"/><path fill="#fc0" fill-rule="evenodd" stroke="#121116" d="M314 77s-7-1-13-4-13-8-22-6c-1 1-8 4-11 14a26 26 0 0 0 2 18l6 8 3-3s-9-8-8-18 6-13 6-13 7-5 15 0a80 80 0 0 0 26 9z"/><path fill="#fc0" fill-rule="evenodd" stroke="#000" d="m275 115-4-7 11-5-3 6-1 6 2-3c2-1 3-7 3-7l5 16-4-3-5 1-3 1z"/><path fill="#fc0" fill-rule="evenodd" stroke="#121116" d="M327 76s7 0 13-3q8-7 21-6c2 1 9 4 12 13a26 26 0 0 1-3 19l-3 6-5-2s8-7 7-17-6-13-6-13-6-5-15 0c-8 5-17 7-17 7l-8 2z"/><path fill="#fc0" stroke="#121116" stroke-linejoin="round" d="M323 69h3v28h-3zm-10 0h4v28h-4z"/><path fill="#fc0" stroke="#121116" stroke-linejoin="round" d="M329 63q-1 8-10 9-8-1-9-9 1-8 9-9 9 1 10 9"/><path fill="#fc0" fill-rule="evenodd" stroke="#000" d="M311 97h17l-4 4-2 5 5-2 4-3v15l-4-3-4-1h-6l-4 1-4 3v-15s1 3 4 4l4 1q1-2-2-5z"/><path fill="#f6ca1f" fill-rule="evenodd" stroke="#000" d="m320 109 5 8q5 3 9 2 8-3 9-5c1-2 0 4 3 7q5 3 8 2l10-6 2 1-9 6c-2 1-9 1-11-1q-4-4-4-6c0-2-1 3-4 4h-11l-7-6v-2s-2 6-6 7l-12 1q-4-3-3-4c1-1-1 6-8 8-8 1-15-4-15-4l1-2s5 5 12 5c6-1 9-10 9-10s3 5 11 5 10-10 10-10z"/><g fill="#fc0" stroke="#000"><path fill-rule="evenodd" d="M301 112v-4h3l1 2v4l2 1q2 0 1-2-1-1 0 0v-7q0-4-2-5l-5 1-3 4v8h3zm-6 2-2-3h-3v3l1 3-1 2-2-1 1-1-4-6 1-5q2-2 4-1l5 3 3 7-2 1z"/><path fill-rule="evenodd" d="M294 92s-3 5-2 9l5 12v1h2l-1-1 1-13zm5 23 3 2 4 1-1-3h-1l-1 1-3-2zm-2 0-2 4q-2 3-3 2l-1-3h3l2-3z"/><path stroke-linejoin="round" d="M302 113q1 2-4 2h-5q0-2 5-2h4"/></g><g fill="#fc0" stroke="#000"><path fill-rule="evenodd" d="m346 113 2-3h2l1 3-2 3q0 2 2 2l1-1v-1l3-6q2-3-1-5-2-2-4-1-4 1-5 3l-3 7 3 1z"/><path fill-rule="evenodd" d="m340 113-1-3q-1-3-3-1l-1 2v4l-1 1-2-1 1-1-1-7 2-5 5 1 3 4 1 8h-3z"/><path fill-rule="evenodd" d="M347 92s-5 4-5 8v13l-1 1h2v-1l5-12zm-4 23 2 4q3 2 4 1v-2l-1-1h-1l-3-2zm-2 0-3 2q-3 3-3 1v-3l1 1h1l3-2z"/><path stroke-linejoin="round" d="M347 115h-5l-4-2h5l4 2"/></g><path fill="#cca715" fill-rule="evenodd" stroke="#000" d="M279 130s1 2 2 1 17-8 40-8 37 7 38 7h2l-1-2c-1 0-15-7-40-7s-41 7-41 7z"/><path fill-rule="evenodd" d="m308 139 2-2 2 1h-2l-1 1 2-1h2l-3 1 2 1h-5l-2-1-2 1 2-2 2 1zm-17 4 2-3h2l-2 1-1 1 2-1h2l-3 2h2zl-2-1-2 2 2-2h2zm31-4 2-3 3 1h-3l-1 1h4l-3 1 2 1zl-2-1-2 1 2-2 2 1zm14 1 2-2 3 1h-3l-1 1h4-3q0 2 2 2l-5-1q0-2-2-1h-2l2-1h2zm14 3 2-2 2 1h-2l-1 1h3-2l1 1zl-1-1-2 1 2-2 1 1z"/><path fill="#0f6545" stroke="#000" stroke-linejoin="round" d="m305 130-4 4-6-2q1-3 4-4 5-1 6 2z"/><path fill="#cecfc1" d="m299 129-1 1h-1l1-1z"/><path fill="#0f6545" stroke="#000" stroke-linejoin="round" d="M344 132q-1 2-6 1l-4-4q2-3 6-2 5 2 4 5z"/><path fill="#cecfc1" d="M339 129h-1l-1-1 1-1z"/><path fill="#1f2d86" stroke="#000" stroke-linejoin="round" d="M315 126h10v5h-10z"/><path fill="#707c8b" d="m319 127-1 1-1-1z"/><path fill="#9f1209" fill-rule="evenodd" stroke="#000" d="m286 131 2 5-3 2h-3q-3-2-2-4z"/><path fill="#8f322f" d="m283 135-1 1-2-1 2-2z"/><path fill="#e2a494" d="M282 134v-2z"/><path fill="#9f1209" fill-rule="evenodd" stroke="#000" d="m354 132-2 4 4 2h3v-4z"/><path fill="#aa675d" d="m359 135-2 1-1-1 1-1z"/><path fill="#f5d8bc" d="m329 126-1 1-1-1zm4 1h-1zm-2 1-1 1-1-1 1-1zm2 3-1-1 1-1zm-4 0h-2l1-1zm-21-4-1-1h2m4-1-1 1zm-2 3-1-1v-1zm3 2-1-1 1-1zm-4 0-1 1h-1l1-1zm-19 0-1 1h-1l1-1zm4-1-1-1 1-1zm-2 2v1h-1zm3 2-1-1q0-1 0 0zm-4 1h-1zm56-6v-1zm5 1-1 1-1-1zm-3 2h-1l-1-1h1zm2 3-1 1-1-1 1-1zm-5-1v-1h1z"/><path fill="none" stroke="#000" d="m356 89-4 2-5-2v-2m-34 6-5-1-3-2-4 3q1 3 3 2 2-2 0-2l-1 1m-16-4s1 2 4 1q4 0 4-2l-1-2-2-1"/><g stroke="#161111" stroke-width="2"><path fill="#c00" d="M339 270q5-2 9-11l5-20c2-9 7-18 1-17-5 0-7 6-9 10q-3 2-4 6l-2-21v-20l-1-11-4-3q-3 1-4 4v3l-1 8v20l-2-21v-17q-1-5-4-5t-5 5v15l-1 25-1-14-1-9v-10c0-1-1-6-4-6q-3 0-4 5v35l-1-7-1-9-1-9q1-4-2-4-4 0-4 5l-1 11-2 21-1 9 1 21c2 7 7 10 6 15v17q0 5 10 2c12-2 18 3 27-1l1-20zm-6-24q3-9 8-11"/><path fill="none" d="m307 239 11-3 13-4 6-1m-36 42h2l2 1h4l4-1m10 0 2 1h7q5-1 7-3"/></g></svg>