<svg xmlns="http://www.w3.org/2000/svg" xmlns:xlink="http://www.w3.org/1999/xlink" viewBox="0 0 640 480"><defs><g id="gd-c"><g id="gd-b"><path id="gd-a" fill="#fcd116" d="M0-1v1h1" transform="rotate(18 0 -1)"/><use xlink:href="#gd-a" transform="scale(-1 1)"/></g><use xlink:href="#gd-b" transform="rotate(72)"/><use xlink:href="#gd-b" transform="rotate(144)"/><use xlink:href="#gd-b" transform="rotate(216)"/><use xlink:href="#gd-b" transform="rotate(288)"/></g></defs><path fill="#ce1126" d="M0 0h640v480H0z"/><path fill="#007a5e" d="M67 67h506v346H67z"/><path fill="#fcd116" d="M67 67h506L67 413h506z"/><circle cx="320" cy="240" r="58" fill="#ce1126"/><use xlink:href="#gd-c" width="100%" height="100%" transform="translate(320 240)scale(52.8)"/><use xlink:href="#gd-d" width="100%" height="100%" x="-100" transform="translate(-30)"/><use xlink:href="#gd-c" id="gd-d" width="100%" height="100%" transform="translate(320 34)scale(31.2)"/><use xlink:href="#gd-d" width="100%" height="100%" x="100" transform="translate(30)"/><path fill="#ce1126" d="M102 241a80 80 0 0 0 34 33 111 111 0 0 0-11-45z"/><path fill="#fcd116" d="M90 195c10 21-27 73 36 86a63 63 0 0 1-11-42 70 70 0 0 1 32 31c17-60-42-56-57-75"/><use xlink:href="#gd-d" width="100%" height="100%" x="-100" transform="translate(-30 415)"/><use xlink:href="#gd-c" width="100%" height="100%" transform="translate(320 448)scale(31.2)"/><use xlink:href="#gd-d" width="100%" height="100%" x="100" transform="translate(30 415)"/></svg>