<svg xmlns="http://www.w3.org/2000/svg" viewBox="0 0 640 480"><path fill="#e32118" d="M0 0h640v480H0z"/><path fill="#fff" d="M0 0h640v320H0z"/><path fill="#3e9a00" d="M0 0h640v160H0z"/><path fill="#0073ce" d="M0 0v480l180-240z"/><g stroke="#000"><path fill="#fff" d="M282 192h76v80c0 27-35 6-38 21-5-15-38 6-38-23z"/><path fill="#73452b" stroke="none" d="M325 280h-2c-2-1-2-51-2-51l7-6 2 2c-9 4-8 11-7 22l1 15 4 17c1 2-3 1-3 1"/><path fill="#73452b" stroke="none" d="M319 222h4q-3 43-1 54l2 4c-4 4-6 0-6 0z"/><path fill="#a36629" stroke="none" d="M314 280q-5 0-4-2c7-15 11-48 4-52v-3l5 4v53c-4 4-5-1-6-1"/><path fill="none" stroke="none" d="M313 279c0-3 6-11 5-20m5 7q3 8 2 14"/><path fill="#009a3b" stroke="none" d="m331 208 3-1c1-3 6-3 6 0q6 1 3 4 7-2 7 5 7 4 1 7-1 5-7 3-7 5-10-1-6 2-8-3-4 2-9-1 0 3-3 2 0 6-4 4c2 5-4 7-7 3q-4 0-4-2-4 5-7 2-8-3 0-4 1-4 5-3 0-2 2-1-1-2 2-2-3-5 1-6-1-4 3-3 0-5 5-5-1-2 2-2-2-4 4-4c0-5 11-2 10 5q4 0 5 3"/><path fill="none" stroke="none" d="m310 206 2 2q2-3 3 2m11-5q-3 1-3 4-2-2-4 0m12-1-1 4m13-1-4 1m12 11q-2-1-4 1 1-2-2-3m-1 5-1-3m-6 0q-2 0-3 2m-8-3v-3m-23 11 1-3q-1-3-4-1m4 1h3m-6-7h4m0-5q2-1 3 1 4-4 5-2m4 0q2-1 6 3 1-2 3-2m7 2q5 0 5 3l4-2m-33 4h3q0-3 2-3"/><path fill="gold" d="M317 181h-4l-2 4-3-4h-4l2-4-2-4h4l2-4 3 4h4l-2 4zm-18 1-5 1-1 4-3-3-4 1 1-4-3-3 4-1 1-5 3 4 5-1-2 4zm-19 4-4 2v4l-4-2-4 2 1-5-4-2 4-2v-5l4 3 4-2v4zm43-6 5 1 2 4 2-4h4l-2-4 3-4h-5l-2-4-2 4h-5l2 4zm19 2 4 1 1 4 4-3 4 1-1-4 3-3-5-1-1-5-3 4-4-1 1 4zm18 4 4 2v4l4-2 4 2v-5l3-2-4-2v-5l-4 3-4-2 1 4z"/><g fill="#fff"><path d="m365 270 5 8 5-7-3-6zm-31 21v8l4-1 3-2v-4zm-27 0-1 7h-3l-3-1-2-5zm-32-21-6 8-5-10 4-4z"/><path d="M300 306c0 7 41 7 41 0v-10c0 5-41 4-41 0z"/><path d="M263 284c3 18 37 18 37 18v-6q-2-3 6-4 2-1 1-3c-1-2-15 2-25-2-14-5-16-16-16-16zm114 0c-3 18-36 18-36 18v-6q1-3-6-4-3-1-1-3c2-2 14 2 24-2 14-5 15-16 15-16z"/><path d="M265 277c-9-5-2-11-1-25 2 9 12 12 11 18-5 0-7-6-9 1zm110 0c9-6 1-11 1-25-2 9-12 12-11 18 4 0 6-6 8 1z"/></g><path stroke="none" d="m271 283 1 1-2 3-1 2 2-1 3-2 1 1-3 2q-1 3-3 1-2-1 0-4zm4 4h1v5l2-3h1l-3 6-1-1v-5l-2 4-1-1zm2 8 3-5h1l-3 6zm4-5-2 6 2 1q3 1 4-2t-2-4zm1 2q3 0 2 3-1 2-3 1zm6 1-4 5h2v-1l3 1v1h1zm0 1 1 2h-2zm3-1v6h2q4 0 3-3 0-3-3-3zm1 1q4 0 3 2 0 3-3 2zm20 8v6h2v-2h2l1-2q0-2-2-2zm2 1v2h-1zm5-1-2 6h1l1-1h2l1 1h1l-2-6zm1 1 1 3h-2zm3 4 4-4h-3v-1h5v1l-4 4h4v1h-6zm21-12v4q1 2-1 2-2 1-2-1h1l1 1v-2zm2-1v3l2 2 1-2-1-3 1-1 1 4q0 2-2 3-1 1-3-2zm6 3h2v-1h-3l-1-2 2-2 3 1-2 1-1-1-1 1 3 1 1 1q1 2-1 2-3 1-3-1m5-5-1 1-1-1 5-2v1l-2 1 2 4-1 1zm3-2 3 5-1 1zm7 0a2 2 0 0 1-3 3q-4-1-3-4 3-3 5-1l-1 1h-2l1 3zm-1-4 4 5-1 1zm4-3-1 1 2 6 1-1-1-1 2-2 1 1 1-1zm0 1 2 1-1 2z"/></g></svg>