<svg xmlns="http://www.w3.org/2000/svg" xmlns:xlink="http://www.w3.org/1999/xlink" viewBox="0 0 640 480"><defs><linearGradient id="gs-b"><stop offset="0" stop-color="#d5dfff"/><stop offset="1" stop-color="#fff"/></linearGradient><linearGradient id="gs-a"><stop offset="0" stop-color="#474747"/><stop offset="1" stop-color="#f50"/></linearGradient><linearGradient xlink:href="#gs-a" id="gs-c" x1="109" x2="111" y1="219" y2="173" gradientTransform="matrix(1.178 0 0 .50849 388 38)" gradientUnits="userSpaceOnUse"/><linearGradient id="gs-d" x1="126" x2="126" y1="316" y2="337" gradientTransform="matrix(.96067 0 0 .6235 388 38)" gradientUnits="userSpaceOnUse"><stop offset="0" stop-color="#b50000"/><stop offset="1" stop-color="#ffc500"/></linearGradient><linearGradient xlink:href="#gs-b" id="gs-e" x1="408" x2="456" y1="149" y2="147" gradientTransform="matrix(.4361 0 0 1.37349 388 38)" gradientUnits="userSpaceOnUse"/><linearGradient xlink:href="#gs-a" id="gs-f" x1="216" x2="229" y1="103" y2="103" gradientTransform="matrix(.57794 0 0 1.03641 388 38)" gradientUnits="userSpaceOnUse"/><linearGradient xlink:href="#gs-b" id="gs-g" x1="118" x2="78" y1="1040" y2="1004" gradientTransform="matrix(1.9991 0 0 .29962 388 38)" gradientUnits="userSpaceOnUse"/><linearGradient xlink:href="#gs-b" id="gs-h" x1="265" x2="255" y1="246" y2="226" gradientTransform="matrix(.69142 0 0 .86628 388 38)" gradientUnits="userSpaceOnUse"/></defs><path fill="#006" d="M0 0h640v480H0z"/><path fill="#6a4c2d" stroke="#000" d="m471 345-4 7-7-3-6 7-7-1-6-1v-2s-7 6-9 5l-7-7-1 4-11-1-9-6-5 9c-1-1-9 2-9 2l-1-2-6-4 5-6-3-1-3 3-7 4-7-3 3-6 1-4 5-8 66-64 33 60z"/><path fill="#fff" stroke="#000" d="m518 349 17-1-7-3 66-3-10-3-8-12-34-2s-2-2-7-1l-3-6-21-2-13 9 9 23z"/><path fill="url(#gs-c)" stroke="#000" d="m451 156 2-6 3-7 2-5c1 0 7-2 9 2 7-11 16-1 16-1l2-2 5-6 7 7 1 1 8-1a9 9 0 0 0 3 8c3 2 5 11 5 11z"/><path fill="#656263" stroke="#000" d="M518 226c1-1 6-2 5-8 0-6-6-7-9-7l-5 3-10-6s5-31 10-33l6-5-2-3-32-4-30 3-2 5q0 2 6 7c6 5 10 31 10 31l-9 4-4-1c-1 0-6 3-6 8 0 6 5 9 5 9s28-3 33 5c4-10 31-6 34-8z"/><path stroke="#000" stroke-linejoin="round" d="M549 194s0-3 3-5c2-1 18-2 22 0 3 3 5 14 5 14l2 8 1 5s13 16 13 31c1 10 1 37-3 47a43 43 0 0 1-6 22s2 2 1 4l-1 5 19 9-7-2 7 5-8-3 4 4-11-5 5 5-8-4 5 5-8-3 1 3s-6-1-6-5l-5-4-13-2-15-45 4-75 1-4z"/><path fill="#fb0" stroke="#000" d="M539 435s-8-16-11-16c-4-7 12-60 41-64 17 2 2 19-9 14l7 11s-22 9-28 55zm-102 2s6-18 10-18c4-1-10-61-41-62-16 2-1 19 10 14l-7 11s21 10 28 55z"/><path fill="#00713d" stroke="#000" d="M465 323s-8 2-3 11c0-4 4-5 4-5s-5 6 0 11l4-7c1 0-4 12 0 14l3-7c1 0-3 10 0 13l3-6c1 0-2 11 2 11l3-7c1-1-1 9 5 9l1-7s3 9 7 8v-8s3 9 8 7v-5s3 5 8 3l-1-5c1 0 8 8 10 3 2-4-6-5-6-5h5s-1-5-8-6h4s-1-6-8-6h6s-1-6-9-7q3-2 4-1c1 1-3-5-6-5z"/><path fill="none" stroke="#3ec26d" stroke-linecap="round" d="M497 350s3 1 2 2m-1-5s4 3 4 5m0-6s3 2 3 5m2-4 1 4m1-2v2m-36-18s4 2 3 5m-3-2 1 2m3-5s3 3 2 5m2-3v3m2-2v3m-1 4s3 0 3 3m-1-6s3 1 3 4m1-5 2 5m2-5v5m3-3v4m-4-10s2 1 2 3m0-5s2 2 2 5m1-6s2 3 1 6m3-5v4m3-2s-2 1-1 3m-13 10v3m-3-4 1 4m-5-4 2 4m-5-4 2 3m-3 0 1 2"/><path fill="#fff" stroke="#000" d="M441 229h25s16 0 17 5c3-7 17-6 17-6l25-1 1 60c-5 24-22 41-41 48a62 62 0 0 1-41-48z"/><path fill="#006b00" stroke="#000" d="m450 229 35 94 32-96c-10 1-31-2-34 8-4-9-26-5-33-6z"/><path fill="#ffc900" stroke="#006b00" stroke-linecap="round" d="M474 280c1 1 1-25 3-26l2-6c-2-3-9-2-11 0l1 5c4 5 3 28 5 27z"/><path fill="#cdad56" stroke="#000" stroke-linejoin="round" d="m465 77 2-3c0-1 12-2 18-14 4-7 0-3 0-3v-3s5-4 3-7c-2-2-1 3-4 3s-1-6-1-6l-1-1-2 3-2-5s-2-2-3 5c1 7 5 6 5 11 1 5-4 9-5 9l-1-4-1-2q2 1 2-7c-1-6-2 2-4 2-1-1 0-7 1-7 0-1-1-4-5 3 0 4-1 0-2 0q-2 4 1 7l5 7q0 3-4 4-2-1 0-5l-4-5-2-4-1 3c-1 4-3-3-3-3s-1 5 2 8l-3 1c0 1 4 2 4 4 1 2-3 4-3 4s1 2 6-2l-2 5q3 0 3 2zm-16 0-2-4s-11 1-16-12c-3-6 0-2 0-2l1-3s-4-4-2-6c1-2 1 3 2 3 3-1 1-6 1-6l1-1 2 4 4-5c1 0 1-3 2 4-1 6-7 5-7 10q2 7 5 8l1-4 1-2s-4 1-3-4 3 0 4 0q2-3 0-6c0-1 3-4 4 3 0 3 2-3 2-3q2 5-2 9l-3 6q0 2 2 3 2 0 1-4l3-4 1-4q1-2 2 3c1 3 2-3 2-3s1 5-2 7l3 1-2 4 2 3s-2 2-6-2l2 5q-3 0-3 2z"/><path fill="#ffc900" d="m511 243-3-1-1-1h-2v4q1 2-2 2l1-2-2-2 1-2h-3l-1 2-4-1 3-1v-2l2-1v-1l-3-1-1-3 2 1h2l2 2 1-2-1-2 2-4v4l2 1-1 2h2l2-1h3l-2 1-1 2-2 1 1 1 2 1zm-54 1 3-1 2-1 1-1 1 2-1 3 2 2v-2l1-2v-2h2l1 2 4-1-2-1-1-2-2-1 1-1 2-1 2-3-3 1h-2l-2 2-1-2 1-2-2-4v4l-1 1v2h-2l-1-1h-4l2 1 1 2 3 1-2 1-2 1z"/><path fill="#ffc900" stroke="#006b00" stroke-linecap="round" stroke-linejoin="round" d="M509 249c-2 2-14 5-14 15q2 15 0 14c-5 0-5-12-5-17v-5l3 4c0 2 3-7 2-9q4 2 5 1l-3-3 3 1q1-1-3-2c-3 0 1-1 1-1s2 1 3-1l-3-2s-2-3-5-4l-5 1v2q-2 3-1 4l4 1q0 3-4 1h-1l2 2s-4 0-5 2l3 1-4 3-1-1-4-2-1 6s3 3 4 2 4-4 6-3l-12 9s-3-3-3-1q-2 2 1 2c1 0-4 1-3 3q1 3 2 1l2-1 3-2-2 2-3 1 1 2s4-3 5 0q4-2 3-6l1 4c-1 1 6-3 2-6l1 4 2-1v2q2 2 2 5l-2-3-6 3c-2 0 3 7 3 7h-4s-2-3-2-1v1h-2q-2 2-1 3h3l-3 1v2q2 1 3-1v2q2 1 3-3c1-4 1 2 1 2s3 1 3-3v3l3-2-2 9-4 1v5l2-1 2-1 1-2-1 2-2 2 2 2c1 1 3-4 3-4v1l2-2c1-1-2-2 0-4q2 0 0 2c-2 2 1 3 1 3 1 0 2-5 1-7l2 2s2-5 0-6l-3-1v-1q1 2 4 2 2-2-3-5c-3-1 0-5 0-5s2 3 4 1q2-1 0-1c-2 0 5-3 5-5h-3q2 0 2-4l-2 1 2-4-2 2c-1-1-3-9 1-10 3 0 2 4 2 4s5-2 0-5q3 0 4 2c1 2-2-6-7-3l3-2 5-1h-4c-1-1 8-1 7-6"/><path fill="none" stroke="#006b00" stroke-linecap="round" d="M469 253s5-3 8 0m2 6-2 2m5 3s5 1 8-4"/><path fill="none" stroke="#006b00" stroke-linecap="round" d="m487 263 1 3h-2q2 2 0 4"/><path fill="#e80000" stroke="#006b00" stroke-linecap="round" d="m485 297-4 2"/><path fill="none" stroke="#006b00" stroke-linecap="round" d="m487 289-1-7 4-5m-4 8s-1 3-7 2m9-10s0 4-5 2m-1-22-2 4"/><path fill="#006b00" d="m489 252 3-2 2-2-1-4h3c2 1-1-3-3-3l-3 1v1l1 2 2 3z"/><path fill="#ffc900" stroke="#ffc900" stroke-linecap="round" stroke-linejoin="round" d="m491 243 1 1z"/><path fill="#e80000" stroke="#006b00" stroke-linejoin="round" d="m483 304 1 3v-2zm-2-4q-2 0-2 2l2-1zm0-2-2 1h2zm-7-16 1 1q2-1-1-1zm-2 3s2-2 2 0zm0 3h1zm-2-21h-2l2 1zm-3 8 1-3 1 1zm4-1-1 1h1z"/><path fill="#ffc900" stroke="#006b00" stroke-linejoin="round" d="M469 256q-1 2 2 2-1-3-2-2z"/><path fill="none" d="m469 253 1 1z"/><path fill="#e80000" stroke="#006b00" stroke-linejoin="round" d="m470 255 2 1-1-2zm1 3h2l-2-1z"/><path fill="#ffc900" stroke="#006b00" stroke-linejoin="round" d="M469 253q-1 2 1 1 0-2-1-1z"/><path fill="url(#gs-d)" d="M469 246s6-1 9 1q4 2 3 0c-1-2 4 2 5 2l1-1c1-1-4 0-4-2q0-3-2-3l1-4q-2 0-3 2c-3-1-1-4-3-4l-2 4c-1 0-6 3-5 5"/><path fill="#c01500" stroke="#000" d="M406 425c4-1 23 4 30 12-1-14-5-25-5-25s-12-3-13-2zm-6-66-4 4c-1 3-3 13-5 15l-4 5q-1 5 6 9c6 0 16-10 16-10l7-11c-12 4-20-7-16-12zm170 64a53 53 0 0 0-31 12c2-14 6-25 6-25 1 0 11-3 13-2zm5-66q2 1 3 5 2 6 6 11l4 8q1 4-7 6c-6 1-15-7-15-7s-4-5-6-11c11 4 19-7 15-12z"/><path fill="#fb0" stroke="#000" d="M393 413s12 8 13 12c32-49 116-64 163-4l13-11c-50-65-149-57-189 3z"/><path fill="#1e5aa6" stroke="#000" d="M517 227h5l-8 11 10 12-20 25 19 23-8 14-11-12 20-25-16-18zm-68 2h-5l10 11-10 12 21 23-18 23q3 8 9 15l10-13-21-23 15-20z"/><path fill="#1e5aa6" stroke="#000" d="m473 290-8 10 27 31 13-8-14-16 5-17 9 10-26 32-13-8 13-17zm-8-15 4 6-3-8zm35 5 4-5-2-2z"/><path fill="none" stroke="#fff700" stroke-linecap="round" d="M556 195s5-4 8-4m-7 4 29-5m-29 5 31-3m-31 3s33-2 35 0m-35 0 33 1m-33-1 31 2m-32-2s32 3 35 7"/><path fill="none" stroke="#fff700" stroke-linecap="round" d="M593 208c0-1-11-13-37-13"/><path fill="none" stroke="#fff700" stroke-linecap="round" d="M556 195s18 1 24 8"/><path fill="none" stroke="#fff700" stroke-linecap="round" d="M557 195s11-2 24 12"/><path fill="url(#gs-e)" stroke="#000" d="m549 208 16 2c0 1-11 5-12 12 0 6 9 7 10 15 1 9-7 10-9 12-1 1-5 13-5 20 1 7 3 31 7 35 2 3 7 10 11 7 5-2 2-10 1-12l2-9-1-7c0-1 12 3 12 16-1 12-6 8-6 8s1 16-3 18c-7 3-12-1-12-1l1 3-6-3-8-14-3-29a337 337 0 0 0 0-56z"/><path fill="#ff7000" stroke="#000" d="M532 204s11-11 18-10c3 0 0 3 0 3s6 0 6 3l-2 1c-2 0 2 1 2 3s-24 0-24 0z"/><path fill="none" stroke="#000" d="M533 204s12-2 17-7m-5 3 9 1"/><path fill="#fff" stroke="#000" stroke-linejoin="round" d="M576 330s8-2 10-5c1-1 8 10-10 5z"/><path fill="none" stroke="#fff" stroke-linecap="round" d="M574 267s1 6-2 10q-3 2-5 6l1 7-3 6 3 12m-8-60s-6 2-7 8"/><path fill="#c75b00" stroke="#000" d="M558 200s2 6 8 1c-4-6-8-1-8-1z"/><path d="m563 200-1 1-1-1z"/><path fill="#fff" stroke="#000" d="M503 187s13 14 21 14c2 4-4 7-6 9-4-1-8 0-17-12zm17-32q3-8 8-9c-1-4 6-21 25-28 2 9-8 18-8 18s29-5 35-13c-1 4-7 24-37 24 11 11-4 20-11 17 12-9-3-15-12-9z"/><path fill="#cccccd" stroke="#ccc" d="M530 148q7-5 13-3l-4 1 2 2q-2-2-11 0z"/><path fill="none" stroke="#000" d="m528 146 18-11"/><path fill="#00f" stroke="#000" d="M518 210s16 4 18-18c-4-10-8-31-1-37-7-5-14 0-14 0-1 1-6 10 2 24-19-5-12 13-12 13 1-3 11-5 14 9 1 4-7 9-7 9z"/><path fill="#00f" stroke="#000" d="M536 192s16-9 16-30c-14 0-19 19-19 19z"/><path fill="#fff" stroke="#000" d="M461 191s-12 11-19 7c-5 3-11-2-11-2s7 26 32 7z"/><path fill="#00f" stroke="#000" d="M442 198q2-11 9-3c4 1 9-18-8-15 5-25-9-34-9-34s-5 27-2 32c2 5-4-9-21-13-1 21 19 30 19 30s6 5 12 3z"/><path fill="none" stroke="#000" d="M444 180s-8 6-6 15m-6-16s-2 6 2 15"/><path fill="none" stroke="#000" d="M431 196s3-5 11 2"/><path fill="#fff" stroke="#000" d="M432 156s-12 0-5 12c-5 2-16-6-8-16-27 0-37-13-37-25 7 8 26 5 32 10-8-7-6-18-6-18s22 7 26 27z"/><path fill="none" stroke="#000" d="M414 137c4 4 16 5 21 10"/><path fill="#cccccd" stroke="#ccc" d="M419 150s9-2 12 2q-4-1-10 1l2-2z"/><path fill="#923f00" stroke="#000" d="M465 78s5-5 11-1c-3 7-12 5-12 5v5l3 6s9-2 11 2h6l10-2 11 3c1 2 3 12 5 12s-4 2-6 0c-1-3-1 3-1 3l6 6c0 2-3 11-1 18q-3 2-2 3c0 3-4 3-4 3l-1-4-3 2 2-3 3-11q-1-6-6-8c-2 0-4 9-4 9l-1 7-2-2-2 5-3 1-1-5c1-1 8-7 7-11v-4l-4-4c0-2-4 2-10 1-2 3-2 10-2 10l1 10c1 1-3 3-3 3l-3 4-1-2-2 2 1-3 3-14v-11s-5 0-5 6l-1 7 1 8-2 1-1 1-5 4v-8s3-2 3-7l-1-7 1-6-4 1 2-5c0-2-3 2-6 0l4-6c0-2-2 2-4 0l2-4h-3l2-5-2-4-3-4v-2s-5 3-11-4c5-5 11-1 11-1s1-5 8-4c7 0 8 4 8 3z"/><path fill="#00f" stroke="#000" d="M502 154s13 1 13 7c0 7-4 5-4 5l-9-1z"/><path fill="#fffeff" stroke="#000" d="M490 152s16 0 15 7-5 5-5 5h-7z"/><path fill="#00f" stroke="#000" d="M482 152h9s5 1 5 6c-1 5-6 6-6 6l-9-1z"/><path fill="#fff" stroke="#000" d="M460 154s-12 1-12 7c0 7 3 5 4 5l9-1z"/><path fill="#00f" stroke="#000" d="M473 152s-16 0-15 7 5 5 5 5h7z"/><path fill="#fff" stroke="#000" d="M481 152h-9s-5 1-5 6 6 6 6 6l8-1z"/><path fill="#5e0043" stroke="#000" d="M505 227s7-10 10-9c2 1 0 8-1 9zm-44 1c-2-2-5-10-8-8-2 1 0 8 1 9z"/><path fill="none" stroke="#000" d="m465 210 17 8c4 0 17-11 17-11"/><path fill="#5e0043" stroke="#000" d="m467 179 2-3 12 6 12-5 3 2-14 10z"/><path fill="#474747" stroke="#474747" stroke-linejoin="round" d="M457 179a51 51 0 0 1 10 19c2 7-1-11-1-11s10 4 10 7c1 3 5 0 5 0l-28-18zm48-1s-10 14-9 28c-2-7-1-18-1-18l-2 1s-2 10-5 12v-2l-4 4v14l2 10-3 1-1-25 3-3s4-5 4-9l-4 1s0 7-2 8l-1 2-1-8z"/><path fill="none" stroke="#000" stroke-linecap="round" d="m481 194 2 40"/><path fill="none" stroke="#000" d="M457 213s4 3 6 11c15-1 20 4 20 4s12-6 18-4c2-5 8-10 8-10"/><path fill="#b4b6b9" stroke="#000" d="m450 174 31 20 29-19s5-3 5-5q-2-3-4-1l-29 20-30-19s-3-1-3 1z"/><path fill="#474747" stroke="#474747" stroke-linejoin="round" d="M506 168s-8-3-8 0q0 3 2 5l-1 3-1-2q-3-1-5-4c-1-1 1-4-2-4q-4 0-5 4l-4 10v-16l24 3 1 1zm-28-4-11 2c-1 1 3 3 3 4q-1 4-3 4c-2-1-10-4-10-6l-2-1z"/><path fill="none" stroke="#000" d="M481 163v19m-15-42-8 14"/><path fill="url(#gs-f)" stroke="#000" d="m483 140 3 6c2 1 3 6 3 6"/><path fill="none" stroke="#000" d="m497 139-8 12"/><path d="m455 83-2 1-2-2h3zm4 0 2 1 2-2-3-1z"/><path fill="#ff7000" stroke="#000" stroke-linejoin="round" d="m555 324-3 1h-9l-2 2 2-1 3 2v1h1l14-1zm5 5h-12l-3 3 2 1 1 2h1s11 1 20-1q8-2 2-5z"/><path fill="url(#gs-g)" stroke="#000" d="m519 353 22-1-4-3 59-2-2-5-66 3 8 3-18 1v2l-4-1z"/><path fill="url(#gs-h)" stroke="#000" d="M543 233q-3-3-18 4l1 19s12-7 18-5z"/><path fill="none" stroke="#000" d="m423 292-52 51m75-50-42 55m40-70-56 68m-2-1 6-6m62-27-21 30m-1 4v11m32-34-23 28m19-2 9-15m-5-3-11 13m7-25-7 9m-2-23s-24 35-23 37m20-41-20 26m-1 8-4 5m-4 6-6 7"/><path fill="#8a9396" stroke="#2b2b2b" d="M420 214v7l12 23s6-8 9-9c2 0 1 22 1 22s-4 4-6 4c-3-1 6 8 6 16-1 7-12 44-16 45-4 0 2-7 2-9l-2-3 1-8-3-3 1-4-2-3v-4c0-3-1 2-3 2-3 1-5 6-5 6s-5 7-10 4q3 9 0 9c-1 1 1 5-2 5-3 1 2 11-1 12 3 2 0 4 0 4s-7 0-6 10q-34-13-34-36t16-32c3-11 9-24 9-24l-1-9 4-6v-13l2-8c0-2-1-13 2-15l8-4 9-3 5 2c0 1 11 0 12 4q-1 7-3 6c-2-1 2 6-5 12z"/><path fill="#cecfcf" stroke="#2b2b2b" d="M410 198q1 1-1 3h-3q-1-1 1-3z"/><path d="m409 199-1 1-1-1h1"/><path fill="none" stroke="#2b2b2b" d="M425 207s3 12 0 21m1-26s5 7 4 15m-4-17s5 4 5 6m-4-8 4 5"/><path fill="none" stroke="#000" d="M426 197s-10 17-9 28"/><path fill="none" stroke="#2b2b2b" d="M427 197s-14 8-17 35"/><path fill="none" stroke="#000" d="m425 202-5 4"/><path fill="none" stroke="#2b2b2b" d="M405 234s8-33 22-37"/><path fill="#2b2b2b" stroke="#2b2b2b" d="M432 244s7-9 9-9c2 1 1 22 1 22l-7 4c-1 0 7 10 7 14l-1 3-2-5c-1-4 0-8-11-17-3-6 5 3 7 2s-3-13-3-14z"/><path fill="none" stroke="#2b2b2b" d="m419 192-4 2q-1 3-3 2l-3-2"/><path fill="#2b2b2b" stroke="#2b2b2b" stroke-linejoin="round" d="M401 203s-5 5-2 5c2 1 4-4 4-4s0 8 2 7l8-6h3s5 5 8 3q-3 7-4 6c-1-1-3 4-8 3l-5-3-5-1-2-3-2 1c-1-1 0-7 3-8z"/><path fill="none" stroke="#2b2b2b" d="M428 196s-9-2-12 2q-4 6-1 7"/><path d="m429 196-2 2-1-2 1-2z"/><path fill="#2b2b2b" stroke="#2b2b2b" d="M404 218s3 6 7 7-3 3-7 0l-2-7zm30 32s-10-14-13-14c-3-1 2-2 5 1s0-5 0-5z"/><path fill="#2b2b2b" stroke="#2b2b2b" stroke-linejoin="round" d="M403 330c3-1 20 9 24 12 3 2 11 1 11 1l-5 2c-3 1 6 1 6 1s-21 6-42-5c-2-9 4-11 6-11z"/><path fill="#2b2b2b" stroke="#2b2b2b" d="m427 254-4-3-6-7c-2-2-12-7-16-7l-6-1q-1-1-1 2l-2 9 8 10v5l6 5q2 0 2 3l-5 7-6 4q0 4 6 6h17l1-8-5-2q-2 0-2 2h-3l5-6c1 1 7 1 8 5q1 5 4 5 7-1 9-10a13 13 0 0 0-5-11l-5-4z"/><path fill="#2b2b2b" stroke="#2b2b2b" d="m368 281 14-3c2 0 13 5 16 8s9 10 13 9l5-1-2 3h-5q-3 0-8-4c-3-3-13-12-21-11-8 0-13 9-13 9v-5l-2 2z"/><path fill="#2b2b2b" stroke="#2b2b2b" d="m407 289 7 1 7-2-1-2 1-2 3 4-1 1-1-2-1 2s-6 5-9 4l-6-3zm-15 9-6 1-3 2-2-3q1-2 7-2zm13 10s0-5-2-7l-6-2 5 4 1 7c0 1-1-3-4-4q-7-2-7 1l6 3 4 7v-3h2v-5z"/><path fill="#2b2b2b" stroke="#2b2b2b" stroke-linejoin="round" d="m402 326-3-7s-1-5-4-6q-6-2-7 1l7 4-1 2-4-1q-2 3-5 2c-2 0-4-7-3-8h-2v-8l-5-4s0-27 22-5c-9-11-13-10-15-10-1 0-9 1-12 12-2 11-4 4-4 4s-1 5 2 6c2 1-2 5-2 5s-4-10-3-14q-3 6 4 22a71 71 0 0 0 28 19c8-13 7-14 7-14z"/><path fill="#8a9396" stroke="#2b2b2b" stroke-linejoin="round" d="M388 326s4 0 5 3l2 5 3-3 2-2c0-1-4-6-7-6q-4 0-6 2t1 1z"/><path fill="none" stroke="#8a9396" stroke-linecap="round" d="M398 337s12 6 31 6"/><path fill="none" stroke="#2b2b2b" stroke-linecap="round" d="M437 284s-1 9-9 29"/><path fill="none" stroke="#2b2b2b" d="M435 290s-2 7-8 12"/><path d="m401 410 2-2 1 1v1l2 2h1v-1l1-1-1-1h1l1 2-3 3h-1 1v-1h-1l-2-2h-1zm5-5 3-3 2 1h-2v1h-1l1 2v-1h1-1v-1h1l2 2h-2l1 1h1v-3h1l1 2-4 4-1-1h1v-1l-3-2h-1zm7-7 3-1 2 1 1 2v1l-1 2-3 1-2-1-1-3zm1 1v2l2 1 1-1v-3h-1zm6-6 3-2 2 1-1 1-1-1v1h-1l3 3h1v1l-2 1h-1v-1l-2-3-1 1 1 1h-1zm6-4 4-3 2 2h-3l-1 1 1 1h1v-1h-1l1-1 1 3-1-1v1h-1l1 1h1l1-1v-2h1l1 2-5 3v-1l-2-3zm6-4 4-2h2v3l1 1h2v1l-2 1-3-2v1l1 1h1l-3 2v-2l-2-3zm3 0v1h2v-2h-1zm4-3 4-2h2v2l-1 1 2 1h1l1 1h-2l-3-1v1h1v1l-2 1h-1v-1h1l-2-3v-1zm3 0v1h1l1-1v-1h-2zm6-4 2-1 3 4h1v1l-3 1v-1h1-1v-1l-2 1v1h1v1h-2v-1zm1 3h2l-2-2zm4-5 3-1 2 4v-4l3-1v1h-1l1 4h1l1 1-3 1-1-1h1v-1l-1-4v6h-1l-3-4 1 3 1 1v-1 1l-2 1v-2l-1-3zm13-3 3-1h2v1l1 1-1 1-1 1h-1v1h1v1l-3 1v-5zm2 0v2h2v-1l-1-1zm4-1 4-1h2v1h1l-1 2h-1l2 2h1v1h-2l-3-2v2h1l-3 1v-1h1v-1l-1-3v-1zm3 0v2h1l1-1v-1h-1zm8-2 3 1 1 2-1 2-1 1-1 1-3-1-1-2 1-3zm0 1v3l2 1 1-1v-3h-1zm5-1h4l1 1 1 1-1 1-2 1h-1v1l1 1h-3 1v-5h-1zm2 1v2h2v-2zm5-1 4 1h1l1 1-1 1-1 1 1 2h1v1h-2l-2-3v3l-3-1h1v-5zm2 1v2h2v-1zm5 0h3v1l-1 1v4h1-3v-1h1v-4zm7 1h1l1 5v1h1v1l-3-1v-1h1v-1h-3v1h1v1l-3-1h1v-1zm-1 3h1v-2zm6-2h3v4l2-3 3 1h-1v1l-1 3v2l-3-1v-1h1l1-4-3 5v-1l-1-5-1 4h1v1h-3l1-1h1v-4zm12 3 3 1 1 1h1v2l-1 1h-2l-1-1v3l-3-1 1-1 2-3v-1h-1zm2 2v2h1l1-1h-1zm5 0 3 2h1l1 1v2h-3l1 2v1h1v1l-2-1-1-3h-1v2l-3-1 1-1v1l1-1 1-3v-1h-1zm1 2v2h2v-1h-1zm9 3 2 2-1 3-1 1h-3l-2-2 1-2 1-2zm0 1h-2l-1 1v3h2l1-1v-2zm5 2 3 2h1l-1 2h-1v-2 1l-2 3h-1 1v1l-3-1v-1h1l2-3v-1h-1l-1 1v-1zm5 3 4 3v2h-1v-1l-1-1h-1l-1 1h2l-1 2h-1l1-1h-1l-1 1 1 1h2l1-1v1l-2 2-4-3v-1h1l2-3v-1zm7 9 2 2v1h-1l-1 1h-1v-1h-2l-1-2v-1l1-2 1-1h2l2 1v1h1l-1 2v-1l-1-1v-1h-2l-1 1v3h2v-1zm7 2 1 1-2 5v1l-1 1-2-2 1-1h1v-1l-1-1h-1v1l-1 1-1-2v-1 1h1zm-3 3h1l1-1zm7 1 3 2-1 2h-1l1-1-1-1-3 3v1l-2-2v-1 1h1l3-3zh-1l-1 1v-1z"/><path fill="#012169" d="M0 0h320v240H0Z"/><path fill="#fff" d="m38 0 122 91L281 0h39v31l-120 90 120 89v30h-40l-120-89-119 89H0v-30l120-89L0 32V0Z"/><path fill="#c8102e" d="m212 141 108 79v20l-135-99Zm-92 10 3 17-96 72H0ZM320 0v2L196 96l1-22 98-74ZM0 0l120 88H90L0 21Z"/><path fill="#fff" d="M121 0v240h80V0ZM0 80v80h320V80Z"/><path fill="#c8102e" d="M0 97v48h320V97ZM137 0v240h48V0Z"/></svg>