<svg xmlns="http://www.w3.org/2000/svg" viewBox="0 0 640 480"><path fill="#fff" d="M0 0h640v480H0Z"/><path d="m1-2 638 484M1 482 639-2" color="#000" style="-inkscape-stroke:none" transform="matrix(.99998 0 0 .99028 0 2)"/><path fill="#cf142b" d="M0-2v29l281 213L0 453v29h44l276-212 276 212h44v-29L360 240 640 27V-2h-44L320 210 44-2Z" color="#000" style="-inkscape-stroke:none" transform="matrix(.99998 0 0 .99028 0 2)"/><path fill="#cf142b" stroke="maroon" stroke-miterlimit="141" d="M364 65c11 44 5 98-44 128-49-30-55-84-44-128 11-10 64-17 88 0z"/><path fill="gold" d="M295 91h-2l-2-2h-2l-2-1 2-1-3-1-2-1 2-1h-2l-2-2h2l-2-1-2-1 2-1v-1l-3-1-1-2q0-2 2-2-1-2 1-3l3 1h3v1l-1 2 1 3 5 4 3 3h4v7z"/><path fill="#377bc8" d="m284 69 1 3h1l1-1zm-4 1h-1l1 2h1a1 1 0 0 0 0-2zm-2 4-2 1 2 1 1-1z"/><path fill="gold" d="m318 94-3-1-1 1v2h1l-1 2 1 1 1 1h2v1l2 1 1-1 1-2 2-1v2l2-2v-1l1 2 2-2 1-2v3l2-2v-2q3 1 3-1l-2-2v-2l1-2 3-1-1-3-6-1-8 2q4 1 4 3l-1 1 1 1 1 1v1l-3 1-4 2z"/><path fill="gold" d="m333 85-1 3h-1l-1-1-1-1-2-1-4 1 3-3 4-1z"/><path fill="gold" d="m344 69 4-1 1-1q0 3-4 4l-6 1-4-1q3 3-1 3v-1l-3 1h-7l-3-1-3 1v1l2 2h9l9-2 9-2 9-1q7 1 7 6-1 4-6 5h-16l2 2 2 2 5-1h7l1 2h3l1 1h-1l-1 1h2l1 1-1 1h-1l3 1 1 1h-2l1 1 1 2-1-1h-1v3l1 1v1l-2 1-1-1-1 1-1 1-2-1v-1h-2l-2-1 1-1 2-1 2-2-4-2-2-3-5 1h-6c-5 0-8-6-12-8h-4c-5 1-10 7-15 8l-6 1-2 2h-2l-1 2-2 2v-3l-2 2-2 2v-3l-1 2-2 1v-2l-1 2-3 1 1-2h-2l-2 2h-2q-2 0-1-3-3 0-3-2-1-2 3-2l-1-1a1 1 0 0 1 2-2l1 1 1 2h3l6-3 5-1v-9l13 1h5l13-2h6l8 1h7c3 0 10 0 12-3l-1-2-3-1-2 1 1 1 1 1h-3l-1-2v3l-2-1-1-2-1 1 1 2-3-1v-3l-9 2-10 2-11-1-3-3 1-2 5-3 9-2 9 1 4-1v-2l2 2z"/><path fill="none" d="m344 69 4-1 1-1q0 3-4 4l-6 1-4-1q3 3-1 3v-1l-3 1h-7l-3-1-3 1v1l2 2h9l9-2 9-2 9-1q7 1 7 6-1 4-6 5h-16l2 2 2 2 5-1h7l1 2h3l1 1h-1l-1 1h2l1 1-1 1h-1l3 1 1 1h-2l1 1 1 2-1-1h-1v3l1 1v1l-2 1-1-1-1 1-1 1-2-1v-1h-2l-2-1 1-1 2-1 2-2-4-2-2-3-5 1h-6c-5 0-8-6-12-8h-4c-5 1-10 7-15 8l-6 1-2 2h-2l-1 2-2 2v-3l-2 2-2 1v-2l-1 2-2 1v-2l-1 2-3 1 1-2h-2l-2 2h-2q-2 0-1-3-3 0-3-2-1-2 3-2l-1-1a1 1 0 0 1 2-2l1 1 1 2h3l6-3 5-1v-9l13 1h5l13-2h6l8 1h7c3 0 10 0 12-3l-1-2-3-1-2 1 1 1 1 1h-3l-1-3v4l-2-1-1-2-1 1 1 2-3-1v-3l-9 2-10 2-11-1-3-3 1-2 5-3 9-2 9 1 4-1v-2l2 2z"/><path fill="gold" d="M308 82h2l-1-1v-4h2l1-2v-2l-3 1v-2l-1-1v-1l-1 1v-2l-2-1h-1l-2 2v-1l-1 1-1 1-2-2-1 2-1 1 1 2v1l-1 2h-2l2 2q-4 4-1 9l1-2 1 3 1 2 1 1 1-1 2-1 2-2v2q6-2 4-8"/><path fill="#504416" d="m300 77-1 4 3 1 2 1 1-4h-1l-1-1-2 1z"/><path fill="#fff" d="M300 78v2l1-2zm4 1v2zm-4 2-1 1h1zm3 0v2zm-3-8h-1l1 2 1-1zm5 1 1 1h2z"/><path fill="#d1b948" d="M301 73h-2l1 1v1l2-1v-1zm0 0h1v1l-1 1-1-1zm6 1-1 1 1 1h2v-1zm0 0 1 1h-2z"/><path fill="gold" d="M301 72h-1l-1 1h4-1zm7 2h-3 1zm-9 7c-1 4 4 6 5 2z"/><path fill="#806600" d="M299 81v3a3 3 0 0 0 5-1zm0 0 5 2-1 2h-2l-2-1z"/><path fill="#377bc8" d="M301 78v8l3-7h-1v-1z"/><path fill="gold" d="m305 68-1 1-2 1v-1l-2 1-1 1 2-1 1 1 1-1zl1 2 1 1h1l1 2v-2l-1-1v-1l-1 1v-2zm-6 6q-1 2 1 2v2l2 1 1-1v1l1 1 2-1v-1h1l1-1h-3v1l-1 1-1-1h-2v-2zm-1 0-2 3-2 1 2 1q-4 4-1 9l1-2 1 3 1 2 1 1 1-1 2-1 2-2v2q6-2 4-8h2l-1-1v-3l-1 1v2l-2-1 1 4v3l-2 2v-6l-1 3-1 2v-3l-2 4-2 1-1-1-1-3 1-3-2 1-1 2-1-3 1-2 4-3h-3l1-2zm5 1h-2v1h1l1 1h2v-1z"/><path fill="none" d="M308 82h2l-1-1v-4h2l1-2v-2l-3 1v-2l-1-1v-1l-1 1-2-3-3 2v-1l-1 1-1 1-2-2-1 2-1 1 1 2v1l-1 2h-2l2 2q-4 4-1 9l1-2 1 3 1 2 1 1 1-1 2-1 2-2v2q6-2 4-8"/><path fill="#806600" d="m298 70-1 2 1 1 1-2zm2 2-1 1zh3v1l-1 1h-1v1h1v1h3v-2l-1-1h1l1 1h2v1-1l-2-1-1-1-1 2 1 1v1h-2l-1-1v-1l1-1v-1h-2zm-1 2v1l1 1-1 1 1 2h3l1 1 2-2h2v-2l-1 2h-1v-1 1l-1 1h-2v-1l-1 1-1-1-1-1v-1l-1-1zm12 0h-1l-1 3 1-1z"/><path fill="#2b2200" d="M301 73v1a1 1 0 1 0 0-1m5 2a1 1 0 1 0 0-1"/><path fill="#377bc8" d="m280 92-3 1 3 1zm34 1-3 1 3 1h1a1 1 0 0 0-1-2m-36 2q-2-1-2 2h2l1-1zm37 3q-2 0-2 2l2-1zm-35 1-1 3 2-1zm74 0-1 3 3-1zm-35 1v2l2-1v-1zm44 1h-1v3zm-5 0v3l2-2z"/><path fill="gold" d="M295 127h-2l-1-2h-3l-2-1 2-1h-2l-2-2h2l-2-1-2-1 2-1h-2l-3-2h3l-1-1-2-1-2-2q0-2 3-2-1-1 1-3l2 1h3v1l-1 2 1 2 6 5 2 3h4v6z"/><path fill="#377bc8" d="M285 106v3h1l1-1zm-4 1h-2l2 2h1a1 1 0 0 0 0-2zm-2 4-2 1 2 1 1-1z"/><path fill="gold" d="m317 130-2-1-2 1v1l1 1v3l1 1 2-1v1l2 1h1l1-2 1-1 1 1 1-1 1-2 1 2 1-1 1-2v2l2-1 1-2 2-1-2-1v-3l1-1 3-2-1-3-6-1-7 2 4 3-1 1v1l1 1v1l-2 1-4 2z"/><path fill="gold" d="m331 121-1 3-1 1-1-2v-1h-6l3-3h3z"/><path fill="gold" d="m341 107 4-2 2-1-4 4-6 1-3-1q1 3-1 3l-1-1q-1-1-3 1h-6l-3-1-3 1v1l2 1 8 1 9-2 9-2 8-1q7 1 7 5-1 4-6 5-8 2-15 1l2 1 2 2h9l1-1h1l1 2h3l1 1-1 1h-1l2 1 1 1h-2l2 1 1 1h-2l2 1v2l-1-1v2l1 2v1l-2 1-1-1-1 1h-3v-2l-2 1-1-1v-2h2l2-2-4-3-2-2-4 1h-6c-5 0-8-6-12-7h-3c-5 1-10 6-15 7l-6 1-1 2h-2l-1 2-2 1v-2l-2 2-2 1v-2l-1 2-2 1v-2l-1 1-2 2v-2h-1l-2 1-2 1q-2-1-1-3-3 0-3-2l2-2v-1a1 1 0 0 1 2-1h1l1 2h3l5-3 5-1v-8h3l10 1 5-1 12-1h5l8 1h7q6 1 11-3l-1-2-3-1-1 1v1l1 1h-2l-1-3-1 2 1 1h-3v-2l-1 1v2l-2-1-1-3-8 2-9 2-11-1q-2-1-2-3v-2l5-3 9-1h12v-2l2 1z"/><path fill="gold" d="m341 107 4-2 2-1-4 4-6 1-3-1q1 3-1 3l-1-1q-1-1-3 1h-6l-3-1-3 1v1l2 1 8 1 9-2 9-2 8-1q7 1 7 5-1 4-6 5-8 2-15 1l2 1 2 2h9l1-1h1l1 2h3l1 1-1 1h-1l2 1 1 1h-2l2 1 1 1h-2l2 1v2l-1-1v2l1 2v1l-2 1-1-1-1 1h-3v-2l-2 1-1-1v-2h2l2-2-4-3-2-2-4 1h-6c-5 0-8-6-12-7h-3c-5 1-10 6-15 7l-6 1-1 2h-2l-1 2-2 1v-2l-2 2-2 1v-2l-1 2-2 1v-2l-1 1-2 2v-2h-1l-2 1-2 1q-2-1-1-3-3 0-3-2l2-2v-1a1 1 0 0 1 2-1h1l1 2h3l5-3 5-1v-8h3l10 1 5-1 12-1h5l8 1h7q6 1 11-3l-1-2-3-1-1 1v1l1 1-2-1-1-2-1 2 1 1h-3v-2l-1 1v2l-2-1-1-3-8 2-9 2-11-1q-2-1-2-3v-2l5-3 9-1h12v-2l2 1z"/><path fill="gold" d="M307 119h2v-2l-1-1 1-2 1-1 1-1v-2l-2 1-1-2v-1l-1-1v1l-1-2h-2l-2 1v-1h-1l-1 1-1 1-1-2-1 2-1 1 1 2v1l-1 2h-2l2 2q-4 3-1 8l1-1 1 2 1 2 1 1 1-1 2-1 2-1-1 1q6-2 4-7"/><path fill="#504416" d="m300 114-1 4 2 1h3l1-3h-2v-1h-2z"/><path fill="#fff" d="M300 115v2zm4 1-1 1zm-4 1-1 2h1zm3 1-1 2h1zm-3-8 1 2a1 1 0 0 0 2-1zm6 1-1 1 1 1h1z"/><path fill="#d1b948" d="M300 110v1a1 1 0 0 0 2-1v-1zm0 0h1v1a1 1 0 0 1-2 0zm6 1v1l1 1h1v-1zm0 0 1 1v1h-1l-1-1z"/><path fill="gold" d="M300 109h3-1zm7 2h-1l-2-1 1 1zv-1zm-8 7c-1 3 4 5 5 1z"/><path fill="#806600" d="M299 118v2a3 3 0 0 0 5-1zm0 0 5 1-1 2h-2l-2-1z"/><path fill="#377bc8" d="m301 115-1 7 3-6v-1z"/><path fill="gold" d="m305 105-1 1-2 1v-1h-1l-1 1-1 1 2-1 1 1 1-1 2-1 1 2v1h2l1 2-1-2v-1l-1-1v1l-1-2zm-6 6q-1 2 1 2l-1 1 1 1h2l1 1h1l1-1h2v-2l-2 1v1h-1l-1-1-2 1-1-1 1-1zm-2 0-1 3h-2l2 2q-4 3-1 8l1-1 1 2 1 2 1 1 1-1 2-1 2-1-1 1q6-2 4-7h2l-1-2v-2 3l-2-1 1 4-1 2-2 2 1-2-1-3v3l-2 2v-3l-1 3-2 1v1l-1-2-1-2 1-4-2 1-1 2v-4l4-3h-3l1-2zm5 1h1l1 1h1v-1z"/><path fill="none" d="M307 119h2v-2l-1-1 1-2 1-1 1-1v-2l-2 1-1-2v-1l-1-1v1l-2-3-3 2v-1h-1l-1 1-1 1-1-2-1 2-1 1 1 2v1l-1 2h-2l2 2q-4 3-1 8l1-1 1 2 1 2 1 1 1-1 2-1 2-1-1 1q6-2 4-7"/><path fill="#806600" d="m298 107-1 2 1 1 1-2zm2 2v1zh3v1h-1l-1 1v1l1 1h2l1-1-1-1v-2l2 2h2l-1-1h-1l-2-1v3l-1 1-2-1v-1h1l1-1v-1h-2zm-1 2v1l1 1-1 1 1 1 1 1 1-1 1 1h1l2-1h1l1-2-1 1h-2v1l-1 1h-1v-1h-2l-1-1v-1l-1-1zm11 0-1 2 2-1z"/><path fill="#2b2200" d="M301 110v1a1 1 0 1 0 0-1m5 2a1 1 0 1 0 0-1"/><path fill="#377bc8" d="m281 128-2 1h2zm32 1-2 1 2 1 1-1zm-34 2q-2 0-2 2h2zm35 2-2 2h2l1-1zm-33 2-1 3 2-2zm70 0-1 3 2-1v-1zm-33 1v3l2-1zm41 0 1 2 1-2zm-4 1v3l2-2z"/><path fill="gold" d="m303 159-2-1-1-1h-2l-1-1 1-1h-2l-1-1 1-1h-1l-2-1 2-1h-2l-2-1h2v-1l-2-1-1-1q0-2 2-2v-2q2-2 2 1l2-1 1 1v1l-1 1 1 2 4 3 2 3h3v5z"/><path fill="#377bc8" d="M295 142v2h1l1-1zm-4 1 1 1h1v-1zm-1 3h-2l2 1z"/><path fill="gold" d="m318 161-2-1-1 1v1l1 1-1 1 1 1h2v1l2 1h1v-2l1-1 1 1 1-1 1-1v2l1-1 1-2v2l2-1v-2l2-1-1-1-1-1v-1l1-1 3-1-1-3h-5l-6 1 4 3-1 1 1 1v1l-2 1-3 1z"/><path fill="gold" d="m328 154-1 2-1 1-1-1v-1l-2-1-2 1 2-3h3z"/><path fill="gold" d="m334 142 3-1v-1l-2 4h-6q1 2-1 2v-1l-2 1h-5l-1-1-3 1v1l2 1h5l6-1 6-2 6-1q4 0 4 5 0 3-4 3l-9 1 1 1 1 2 3-1h5v1l1 1h2l-1 1h-1 2v1l-1 1h2v1h-1l1 1v1h-1v2l1 1v1h-2l-1 1h-1v-1l-1-1h-2v-1l2-1 1-1-3-2-1-2-3 1h-4c-3 0-5-5-7-6h-3c-3 0-6 5-9 6h-4l-1 2h-2v2l-2 1v-2l-1 1-1 1v-1l-1 1-1 1v-2l-1 1-1 1v-1h-1l-1 1h-2v-2l-2-1 1-2v-1l1-1 1 1 1 1h2l4-2 3-1v-7h2l6 1h3l8-1 4-1 5 1h4q4 1 8-2a2 2 0 0 0-3-3l-1 1v1l1 1h-1l-1-2v2h-2v-2l-1 1 1 2-2-1v-2l-6 1-6 2-7-1-2-2 1-2 3-2 6-1h8a1 1 0 0 0 0-2z"/><path fill="gold" d="m337 140-1 2-3 1h-3l-3-1 1 2h-2l-1 1h-3l-2-1v1l2 1h3l2-1h1v1l1-1v-1h5l2-1 1-1zm6 6h-2v2l-1-2-1 2-1-2-1 2-1-2-13 3-6-1-2-2v1l1 1 2 1 3 1 3-1h2l10-2v1l1 1 1 1-1-2 1-1v2h2-1v-1l1-1v1l1 1h1l-1-1v-1h1zl1 1v1q1-2-2-3m3 1-1 3c-3 3-10 2-13 1h-2l-2-1-4 1-8 1h-3l-6-1h-2v1l2 1-2 4v-2 2l-1 1-2 1-3 1-1 1h-2l-1-2 1 2 2 1 3-2 2-1 1 2q0-2 3-3v1l3-2 1-2v-2h2l8-1 7-1 3 2 4 4 2-1h4l1-1v2h2l-1 2h2l-1 1h2l-1 1 1 1-1 1 1 1v-1h1v-1l-1-1h1v-1h-2l1-1v-1h-2 1l1-1h-2l-1-1v-1h-5l-3 1-1-2-1-1h7q4 0 6-4zm-22 5-3 1-5 3-3 2-5 1-1 2-1-1v2l-1 1v-1l-1-1v2l-1 1v-1l-1-1-1 1v1l-1-1-1 1v1l-1-1h-1l-2 2v-1h-1l1-2h-2v-1h1v-1l1-1-1-1-1 1v1l-1 1 2 2v2h2l1-1h1v1l1-1 1-1v2l1-1 1-1v1l1-1 1-1v2l2-1v-2l2-1 1-1h4c3-1 6-6 9-7h2c3 2 5 7 8 7h4l3-1 1 2 3 2-1 1-2 1v1h2v1l1 1 1-1h1a1 1 0 0 0 2 0v-2 1a1 1 0 0 0-2 0l-1-1v2l-1-1v-1l-1 1-1-1 2-1 1-1-3-3-1-2-5 1-4-1-4-4z"/><path fill="none" d="m334 142 3-1v-1l-2 4h-6q1 2-1 2v-1l-2 1h-5l-1-1-3 1v1l2 1h5l6-1 6-2 6-1q4 0 4 5 0 3-4 3l-9 1 1 1 1 2 3-1h5v1l1 1h2l-1 1h-1 2v1l-1 1h2v1h-1l1 1v1h-1v2l1 1v1h-2l-1 1h-1v-1l-1-1-1 1-1-1v-1l2-1 1-1-3-2-1-2-3 1h-4c-3 0-5-5-7-6h-3c-3 0-6 5-9 6h-4l-1 2h-2v2l-2 1v-2l-1 1-1 1v-1l-1 1-1 1v-2l-1 1-1 1v-1h-1l-1 1h-2v-2l-2-1 1-2v-1l1-1 1 1 1 1h2l4-2 3-1v-7h2l6 1h3l8-1 4-1 5 1h4q4 1 8-2a2 2 0 0 0-3-3l-1 1v1l1 1h-1l-1-2v2h-2v-2l-1 1 1 2-2-1v-2l-6 1-6 2-7-1-2-2 1-2 3-2 6-1h8a1 1 0 0 0 0-2z"/><path fill="gold" d="M310 152h2l-1-1v-2l1-1h1v-3h-2v-2h-1v1l-1-2a1 1 0 0 0-2-1l-1 2v-1h-1l-1 1-1-1-1 1v4l-1 1h-1l1 2q-3 2 0 6v-1l1 2 1 2v1l1-1 2-1 1-1v1q5-1 3-6"/><path fill="#504416" d="M304 148v3l2 1 2 1q-1-2 1-3h-2l-1-1h-1z"/><path fill="#fff" d="M305 149v1zm2 1v1l1-1zm-2 1-1 1zm2 0v2zm-2-6 1 1h1zm4 1 1 1h1z"/><path fill="#d1b948" d="M305 145h-1zh2v-1zm0 0v1h-2zm4 1a1 1 0 0 0 1 2h1v-2zm0 0v1h-1z"/><path fill="gold" d="M305 144h-1v1zh2-1zm5 2h-2 3zv-1zm-6 6c-1 3 3 4 3 1z"/><path fill="#806600" d="M304 151v2a2 2 0 0 0 4 0v-1h-1zm0 0 3 2v1h-2l-1-1z"/><path fill="#377bc8" d="M305 149v6l2-5v-1h-1z"/><path fill="gold" d="m309 141-2 1-1 1v-1h-1l-1 1h3l1-1 1 1 1 2 1-1v1-2h-1v1l-1-2zm-5 5q-1 1 1 1l-1 1 1 1h1l1 1h1l1-1h1l1-1h-2l-1 1h-2l-1-1v-1q-2 0-1-1m-1 0-2 2h-1l1 2q-3 2 0 6v-1l1 2 1 2v1l1-1 2-1 1-1v1q5-1 3-6h2l-1-1v-2 2h-2l1 3-1 2-1 1v-4l-1 2-1 2v-3l-1 3-1 1-1-1-1-2 1-3-1 1-1 2-1-2 1-2 2-2h-2l1-2zm4 1h-1l1 1h1z"/><path fill="none" d="M310 152h2l-1-1v-2l1-1h1v-3h-2v-2h-1v1a2 2 0 1 0-4-1v-1h-1l-1 1-1-1-1 1v4l-1 1h-1l1 2q-3 2 0 6v-1l1 2 1 2v1l1-1 2-1 1-1v1q5-1 3-6"/><path fill="#806600" d="m303 143-1 1 1 1zm1 2h2v1h-1v2h2v-3l1 1h1l1 1v-1h-2l-1-1v3h-1l-1-1v-1h1v-1h-3zm0 1h1v1l1 1 1 1v-1l1 1h1l1-1h1l1-1-1 1h-1v-1 1l-1 1h-1v-1h-2l-1-1 1-1h-1zm9 0h-1l-1 2 1-1z"/><path fill="#2b2200" d="M309 146v1z"/><path fill="#377bc8" d="m294 159-2 1a1 1 0 0 1 2 1zm21 1-2 1 2 1 1-1zm-23 2-1 1a1 1 0 0 1 2 0zm24 2-2 1h2zm-22 1v2l1-1zm46 0-1 2a1 1 0 0 1 2-1zm-21 1v2l1-1zm27 0 1 2zm-3 1v2z"/><path fill="gold" stroke="#806600" stroke-linecap="round" stroke-linejoin="round" d="M379 21v-2l-6 2-3 4-1 3-2-1-1-1-3 2-2 3-1 4-1 2 2 1 3-2 2-2h1v1l-1 4-1-1-2 1h0l1 2h0l-3 2h-1 0-4l-2-1h-1l-1-1-2-5a6 6 0 0 0 5-5v-2l-1-1h0l-1-1v-1l-4-1h-1l-3 1-1 3h-1v2h0l3 5-2 2-9 4a14 14 0 0 1-11-3l-2-2h1l2-2h0l-2-1h0v-4l1-2 2 1 1 3 2 3h3l-1-2 1-5v-4l-3-3h-2l-2 1v-3l-2-5-3-4-4 4-1 5v3l-2-1h-2l-3 3v4l1 5-1 2h3l2-3 1-3 1-1 2 2v4h-1l-1 1 1 2h2l-3 2a14 14 0 0 1-10 3l-9-4-2-2 3-5h0l-2-5-3-1h0-1l-4 1-1 2v3l4 5-2 5-1 1h-1l-2 1h-4 0-1l-3-1v-1h0l1-2h0l-2-1-1 1-1-4v-1h1l2 2 3 2 2-1-1-2-1-4-2-3-3-2-1 1-2 1-1-3-3-4-6-2v2h0l9 19h-2l-1 2 2 1 3-1 2 6h-2 0l-1 1h0v1h0l1 1h1v1h0v2l-1 3 2 2 1 2h1-1l1 1h0l-1 1v1h0v1h1l12-1h4l21-1h14l21 1h10l6 1h1v-1h0v-1h0-1v-1h0l1-1h0l1-2 2-2-1-3v-2h-1l1-1h1q0 0 0 0l1-2h0l-1-1h0-2l2-6 3 1 2-1-2-2h-1z"/></svg>