<svg xmlns="http://www.w3.org/2000/svg" xmlns:xlink="http://www.w3.org/1999/xlink" viewBox="0 0 640 480"><path fill="#006" d="M0 0h640v480H0z"/><path fill="#012169" d="M0 0h320v240H0z"/><path fill="#fff" d="m38 0 122 91L281 0h39v31l-120 90 120 89v30h-40l-120-89-119 89H0v-30l120-89L0 32V0z"/><path fill="#c8102e" d="m212 141 108 79v20l-135-99zm-92 10 3 17-96 72H0zM320 0v2L196 96l1-22 98-74zM0 0l120 88H90L0 21z"/><path fill="#fff" d="M121 0v240h80V0zM0 80v80h320V80z"/><path fill="#c8102e" d="M0 97v48h320V97zM137 0v240h48V0z"/><g stroke="#fff" stroke-linejoin="round" stroke-width="10" transform="translate(-307 -21)scale(.87136)"><use xlink:href="#ky-a" width="100%" height="100%"/><use xlink:href="#ky-b" width="100%" height="100%"/><use xlink:href="#ky-c" width="100%" height="100%"/><use xlink:href="#ky-d" width="100%" height="100%"/><use xlink:href="#ky-e" width="100%" height="100%"/><use xlink:href="#ky-f" width="100%" height="100%"/><use xlink:href="#ky-g" width="100%" height="100%"/></g><g stroke="#000" transform="translate(-307 -21)scale(.87136)"><g id="ky-b" fill="#fcea83"><path d="M754 450c3 7 24 17 48 4q23-12 37-45 6-9-3-17c-5-4-14-8-17-12l-6-5 3 4c10 11 0 28-11 38-8 7-21 25-42 8-4-4-14 12-9 25zm292 0c-4 7-24 17-48 4q-23-12-37-45c-2-5-4-13 3-17 5-4 14-8 18-12l5-5-3 4c-10 11 0 28 11 38 7 7 22 25 42 8 4-4 14 12 9 25z"/><path d="M900 491c38 0 97-17 129-78 5-10 0-15-6-18l-19-14q10 10 1 21-36 62-105 62c-69 0-80-21-104-62q-10-11 0-21a66 66 0 0 1-19 14c-6 3-12 8-6 18 31 61 91 78 129 78z"/></g><path id="ky-c" fill="#c8102e" d="M811 410c-1-5-7-3-9 3l-6-11q-10-12 1-22c4-4 12-9 17-4 11 9 5 24-3 34zm177 0c1-5 8-3 10 3l7-11q9-12-2-22c-4-4-11-9-17-4-11 9-5 24 2 34zm-234 40c-4-8-8-26-9-31q-4-7 3-10c5-2 10 5 13 10l10 25c-10-6-19-2-17 6zm292 0c4-8 8-26 9-31q3-7-3-10c-5-2-10 5-12 10l-11 25q18-7 17 6z"/><g fill="#00493d" stroke="none"><path d="m782 406-4 2-1 2-2-4h2l8-4 1-1v-1l2 5h-2zl1 2 4-1v-2h1l2 4h-2l-8 4-1 2-3-4 1-1 2 1 4-2zm8 7 1-2 5 7-3 2q3-4 1-4t-1-1h-1l-4 3h4l-5 4v-1q2-3 1-4l-3 3-1 1 1 1q0 2 4 1v1l-3 1-5-8 2 1zm8 18-3 3v2h-1l-3-4h2l7-6v-2l3 4h-2zl2 3 3-3v-2l4 4h-3l-6 6v3l-4-4h2l3-4zm7 10 2 1 2-4-4 2zl-1-1-2 1v3l-2-3h2l9-5h1l-5 10v3l-4-4h3v-2zm4 10 1-1h2l6-8-1-1-4 1 2-3 8 6-3 3v-5l-7 9v1z"/><path d="m822 452-3 4 1 2h-1l-4-3 2-1 6-7-1-2h1l3 3-2 1zl3 2 2-4v-2l4 3v1h-2l-5 8v2l-4-3h1l1-1 2-4zm9 14h2l3-8v-2l8 4-2 3q1-4-1-4l-1-1-1 1-2 3q0 2 3-1h1l-3 6h-1q2-4-1-4l-2 4 1 2zm14 7v-7q2-5 5-5v7zq4 1 7-4 2-5-2-8-5-1-7 4-3 5 2 8m15 0 2-5-1-2h3v1l-2 1zq-1 5-5 4-3-2-2-5l2-7v-2l4 2-2 1-2 6 1 4q2 2 4-3m4-6h3l3 9 1-5v-2h3l-1 1-1 1-3 10-4-11-2 7 1 2v1l-3-1v-1l1-1 3-8zm16 10-3 5h-1v-1l1-9 1-1h1q2 0 1 6h2q1-6-4-7l-4-1v1l1 2-2 8-1 2h-1l5 1q5 1 6-6zm5-4-2-1v-1l9 1-1 4q0-3-2-3l-1-1-1 2v3q1 1 3-2l-1 6q-1-4-2-3l-1 5 1 1h1q2 1 3-3h1l-1 4-9-1 2-2zm16 6q-1 6-3 6l-1-1h-1l1-10v-1h1q2 0 3 6h1q-1-7-4-6l-5-1v1l1 1v9l-1 2h4q5 1 5-6zm13 4 2 1-5 1 1-2-1-9-2-1v-1h5l-1 2zm5 1 1-1-2-10q-2 0-2 3l-1-3 9-2v4q0-3-3-3l2 10 1 2zm21-10-2-6-2-1 3-1-1 2zq2 4-2 6-3 0-5-4l-2-6-1-1h-1l5-2v3l1 6 3 3q3-2 2-5m5-3 2-4q-1-3-3-2v1zl1 4h2v1l-5 2v-1l1-2-4-8-2-1 5-2q3-1 5 2l-2 5zm12 1q-2 1-5-5v-6q3 1 5 4 3 5 0 7 5-2 3-8-3-4-8-3a6 6 0 0 0-2 7q2 7 7 4m1-13h-1l3-2 8 4-3-5-2-1 3-1v2l5 9-1 1-10-6 3 7 2 1-2 2v-3l-4-7zm21 1v-2l-6-8v4l-2-4 7-4 2 3q-3-3-4-1h-1l6 8 2 1zm6-11 2 3h2l-4 4v-3l-5-7h-2l4-4v3l2 3 3-2-3-4h-2l4-4v3l6 7h2v1l-4 3v-2l-3-4zm4-10h-2v-1l6-6 3 3h-1q-2-2-4 0l-1 1 1 1 3 3v-4l4 4v1q-4-3-4-1l3 3 1 1 1-1v-5h1l2 3-7 7v-3zm11-14 1 2h4q1-1 4 1 2 3 1 5l-2 1-1 1-3-3h1q2 2 4 0v-2h-4l-4-1q-3-2-1-4l2-2v-1l3 3zm5-4-2 1h-1l5-8 4 3h-5l-1 1 1 1 3 3q2-1 0-4l5 4h-4l3 3h2l1-1q1-2-1-5l2 3-4 7h-1v-2zm12-8-1 2-3-3zh3q2 1 1 2l3-4h-3l-11-2 8 9v2h1l1-2v-1h-2l-1-1 1-3zm-2-11q-2 2 1 2l3-1q2-2 5-1 3 3 2 5l-2 2v1l-4-2q5 1 5-2 1-2-1-2l-3 1q-2 2-5 1t-2-4l2-2-1-1 4 2h-1q-3-1-3 1"/></g></g><g stroke="#000" transform="translate(-307 -21)scale(.87136)"><g id="ky-d" fill="#073163"><path fill="#fff" d="M863 233q-8 3-16-4-5-7 1-13 6-5 13-3c6 1 20 14 16 15zm15-23q2-3 11-3 9-2 11 4 3 9 7 14c-2 1-14 3-18 0-6-3-8-14-11-15zm41 0 11-1q8 0 10 5 0 8 3 16c-3 1-13 1-16-3-5-4-5-15-8-17z"/><path d="M948 213q-6-2-9 0c2 3 0 14 5 18 4 2 12 3 14-2 3-5 3-12-10-16zm-49-5q1-2 10-2 9-1 12 5c2 5 1 11 5 15-2 2-15 2-19-1-5-4-6-15-8-17zm-41 4q-1-2 12-3c9-1 9 0 12 6q1 6 7 11c-10 2-14 4-20 0l-10-10z"/></g><g fill="#f9d050"><g id="ky-f"><path d="M881 164q-16-13-33-17l32 26"/><path d="M887 156c-12-8-26-17-40-18a124 124 0 0 1 33 28m22-23a93 93 0 0 1 24-32c-5 10-10 30-13 39"/><path d="M913 141a48 48 0 0 1 24-26 101 101 0 0 0-18 35"/><path d="M917 150a85 85 0 0 1 38-32c-12 12-30 34-34 43m3 0c8-5 25-13 38-10-8 2-31 13-41 23"/><path d="M922 157c8-8 23-21 39-27l-40 40m-22-18c-6-18-15-34-28-40a131 131 0 0 1 21 49m-4-10a75 75 0 0 0-38-25 90 90 0 0 1 33 39"/><path d="M893 151c-12-22-21-25-26-30 4 8 14 30 21 39"/><path fill="none" d="M869 150a58 58 0 0 1 17 16"/><path d="m869 160 13 9m44-2c5-4 15-10 21-12m-24 8c4-6 14-14 17-17m-4-12-18 22m6-27-12 21m-26-20 10 26m-15-18 8 15"/></g><g id="ky-g"><path d="M898 136q1-8 6-9c3 0 5 6 5 9q-1 6-5 7-5 0-6-7z"/><path d="M892 140q1-8 6-8c3 0 5 6 4 9q-1 7-6 7-5-1-5-8zm12 1q-1-7 4-9 5 0 6 8 2 7-3 8-5 0-7-7z"/><path d="M897 145q1-8 6-9 5 2 6 9-1 7-6 7t-6-7z"/><path d="M889 148q1-8 6-9 5 1 6 9-1 6-6 7-5 0-6-7zm17-2q1-8 6-9 5 2 6 9-1 7-6 7t-6-7z"/><path d="M904 150q1-9 7-10 5 3 5 10-1 6-5 7-6 0-7-7z"/><path d="M897 154q1-8 5-9c4 0 6 6 6 9q-1 7-6 7-4 0-5-7zm-12 0q0-8 5-9c5-1 4 6 4 9q-1 7-4 7-5 0-5-7zm27-1q1-7 4-9c3-2 5 6 5 9q-1 7-5 7-3-1-4-7z"/><path d="M915 161q2-8 5-8c2 0 3 6 2 10q-2 6-6 6-2-2-2-8z"/><path d="M905 160q2-8 6-9 4 3 4 10-1 7-5 6-5 0-5-7zm-13 1q-2-8-6-8c-2 1-3 7-2 10q2 6 6 6 3-2 2-8z"/><path d="M889 160q1-8 4-9 5 3 5 9t-5 7q-4 0-4-7z"/><path d="M896 162q1-8 5-9 6 2 6 9-1 7-6 7-4 0-5-7zm2-53q-3 5-2 13-6-4-11 2 6-1 10 4-6-1-7 3 6-2 8-1-3 2-4 6l8-4q0 6 4 10c-1-4 2-8 1-10 4 1 5 5 11 5-3-2-4-7-7-7h8q-2-3-6-3 3-4 8-7-7 0-11 4c5-4 4-11 9-12q-4-1-10 5 1-6 3-8-7 3-9 8z"/><path d="m901 117-1 5m7-5q-2 2-3 7"/><path fill="none" d="m910 122-4 5"/></g></g><g id="ky-e" fill="#059334"><path d="M859 170q-6 0-8-4c-4-5-13-6-17-3l-4 2q-5 0-5 7h4l1 1c0 3 5 8 10 7q7 1 8 3 2 1 2 3 2 2-1 4a10 10 0 0 0 0 15c6 5 22 12 40-2 17-13 44-6 46-1l4 10q1 4 6 4t9 3q6 2 5-4c-2-13-10-15-11-21q7 0 10-2l5-6q3-2 0-1l-8 1c-22-3-84-20-96-16z"/><path fill="#000001" d="m957 186-9 10c-5 6-20 12-37 12q-25 0-36-9l-10-7q-8-5-5-12-2 5-5 4-5 1-5 3l-1-3-1-1 7-2q4 0 4-5l-2-6c4-2 55 7 65 8 10 0 39 5 35 8z"/><path d="M866 168q7-7 16-6h1q6-3 14-1h2c5-2 16 0 20 4l2 1c13-1 20 5 29 14l5 3q5 1 1 4l-10 9q-8 9-35 11-24 0-35-9l-10-6q-6-2-5-9 0-6-4-13l8-2z"/><g fill="#00493d"><path d="M950 180c-9-9-16-15-29-14l-1 3a66 66 0 0 1 24 18zm-31-15c-4-4-15-6-20-4l-1 7q5 3 9 8l9-3zm-22-4q-8-2-14 1l-1 8 6 2 8-4zm-31 7q7-7 16-6l-2 7q-9 0-14 3z"/><path d="M942 187a64 64 0 0 0-22-16l-2 3 11 20zm-37 11 2-20 9-2 10 19zm-16-23 8-5 7 7-2 21q-7 0-13-3zm-24 6 1-6c3-2 13-5 20-1v20z"/></g><g fill="none"><path fill="#000001" stroke="none" d="m841 172-4-3h-2l1 3z"/><path d="M841 180c5 0 6-7 9-7m-6 8c4 2 8-8 11-8m-20-5q3-2 5 1l4 1m-1 5q-4 5-8 4m-1-15-3 4m-1 3v2"/></g></g></g><g transform="translate(-307 -21)scale(.87136)"><path id="ky-a" fill="#fff" d="M990 233v93c0 81-39 109-90 131-51-22-90-50-90-131v-93z"/><path fill="#c8102e" d="M900 312q7 0 17-10c6-6 17-9 28 0s17 6 23 0q7-7 22-7v-62H810v62q15 0 22 8c5 5 12 9 23 0q19-12 28 0 9 8 17 9"/><path fill="#0b50a0" d="M900 360c6 0 17-6 20-8 11-6 18 0 25 3 6 2 19 6 27 0 7-7 12-6 17-6l1-23v-5c-7-2-10 0-18 6q-10 9-25 1c-10-4-20-12-31 0a24 24 0 0 1-16 8q-11-1-16-8c-11-12-20-4-30 0q-16 8-27-1-8-9-17-6v5l1 23c6 0 10-1 17 6 8 6 21 2 27 0 7-3 14-9 25-3 3 2 14 8 20 8m0 21a51 51 0 0 0 24-8q12-7 26 2 15 7 24 0 3-4 11-4-4 19-13 31a33 33 0 0 1-24-2c-10-5-23-7-30-3a36 36 0 0 1-18 6q-8 0-18-6-12-5-29 3a33 33 0 0 1-25 2q-9-12-13-31 8 0 12 4a24 24 0 0 0 23 0q14-8 27-2a51 51 0 0 0 23 8m0 76a192 192 0 0 0 51-29l-9-3c-4-3-14-4-22 1a39 39 0 0 1-40 0c-8-5-18-4-22-1l-9 3a185 185 0 0 0 51 29"/><g stroke="#000"><path fill="#f9d050" d="M888 256v5l2 4h3c11 0 23-5 34-5 10 0 16 4 22 4q5-1 6-5 1-5-12-4l-27 3c-15 0-17-5-17-8q0-4 10-6l6-1q0-2 4-4c4-2 10 0 14-3q-1 4-6 6 8-2 11 2h-7l-5 2c2-1 3 3 6 3q-5 4-13 1l-7-2q-8 0-8 3-1 3 11 3l27-2-2-4q8 0 12 5l2-10q5 2 5 6l3-3a7 7 0 0 1 3 8q3-1 4-4 2 5-3 9 5-3 10 2l-5 1a44 44 0 0 1-23 5c-8 0-9-2-13-2 3 1 8 6 14 6h7q3-1 5 1 4 3 7 2l-3 3 3 5h-3l3 5h-3l1 5q2 4-4 2 1 3-2 3-3-1-2-3l1-1q-2 3-4 1l-1-1q-6 0-4-3 1-2 4-2h3l1-2q1-4-8-6c-7 1-18-1-24-3l-1-1-2 5q0 3 4 5-3 3-5 1l-2 4-2-2q-3 5-7 4-4 3-6-1h-4q0 2-2 3-1 2-3 1v-3h-4l1-3h1-3l-1-3q2-2 3-1v1l1-2q2-2 4 1l5 1 9-5c-8-2-3-7-1-9l-7 1c-10 5-20 11-27 9l1 3-5-1q-2 2-1 5l-5-2 1 4q-3-2-5-1l-5 1-3 2-1-3q-1 3-4 5v-4c0 2-4 3-4 5v-4l-5 3 1-3q-2 3-6 3-1 2-4 1t-2-3q-4-1-3-3l1-2q-3-2-1-4l3-1q2-6 5-1 2 4 6 4l3-1 12-6v-3l-5 3v-1l-5-1 2-3-6-1 1-4h-5l2-3-6-1 4-3q-5-1-7-3l4-1q-3-1-3-4l-2 2-4-1q-2-4 1-5a2 2 0 0 1-1-4q1-2 3-1l2 2-1-4q1-2 3-2t2 3l1 4 1-2q1-3 4-1 2 1 0 5v3q6 9 14 10 0-3 3-5l1-3q0-5 3-4l-1-1q-3-3-2-6 3-2 5 0 1-5 3-7 2 2 1 5l6-6 2 6q3-4 7-4l-1 4 5-2-2 4h4l-2 4q3-2 5 1 1 2-2 5z"/><g fill="none"><path d="M858 262q-4 3-5 7"/><path d="M858 266q-7 4-6 10m8 4q4-1 7-6m-1 2q0 4-2 6l5-6m-2 5 6-7-1 5 4-6v2l2-4m0 1v3l3-6"/><path d="M880 272q4-3 3-9m0 4q3-1 3-6m-7-13q-2 0-2 2l-1 4q0 2-3 1l-1-2 2-4 2-3q-5 3-7-2m15 5h-6"/><path d="M877 252h5q-4 0-1-3m-8-2q-4 0-3 3h4m-5 21 1-2 3-1q3 0 4-3l2-3 1-2q2 1 3-2m-19-3-2 2-1 4-1 3 1 3m5-22q-2 5 1 6"/><path d="m867 253-1 7q-3 3 2 6 6 3 9-7m7 19-1 1m5-2-2 2m5-3-1 3m-28-33 1 2q-2-1-2 3m-1 3-2 2m1 2-1 1m-22-9v-1m-4-1h-1m1 7h1m-3-3-3-1m30 19q-5 4-6 8m9-6-4 5m-15 10a11 11 0 0 1-9-2l-2-1m26-4-2 5q7-3 7-9m-33 13h4m79-16 3 2 4-3m-41 11q0-3 3-5m-22 13 1-3m-22 5-1 3m-6-2 1-1 2-2m62-4h-2m2 2-1 1m3 2-1 1m15 0 2-4m-8 3 4-3m9-1 1-2m35 7v-4l3-1"/><path d="M925 276c-8-3-8-8-14-7m48 22v2m4-2-1 3m-36-48h-4m-36 16q0 2 5 3h-1m-2-9h-1q-1-1 2-3h-4q-2 5-5 2-2 4-5 4-3-1-2-4-4 3-6 0-1-2 1-6"/></g><path stroke="none" d="m918 275-4 1 1 2q-1 2 2 2l2 3 1-4q-3-3-2-4"/><path fill="#073163" stroke="none" d="M875 259q-3-1-2-3l-3 1q-3 7-7 8c-3 0-3 4 0 4q6 3 12-10m-48-11q2-3 0-4-3-1-6 3h3q2 2 3 1m3-9q4 0 4 2 1 2-1 2l-2-1zm9 8q5 0 2-3 0-3-4-2c2 1 0 4 2 5m-17 8 4 2 2-3q-2-2-3 0-2 2-4 1m8 29q-2-3-6 0l3 1 2 1zm3-3q-1-3-5-2l3 2 2 2zm-4 9q-5 0-5 5l4-2 2-1zm0 8q2 1 3-2h2q2 1-1 3-2 2-4-1m67-14q-3-2-5 0 2-1 2 1l2 1zm-5 3q-3-1-4 3l3-1zm3 4q-3 0-3 4 0-2 2-1l2-2zm4 4q-2-1-2 1l-1 4 3-2zm54-5q-2-1-3 1l1 5 2-2zm3 2q-3 3 0 7l1-3q3-1 2-3zm6 2-2 2 2 4 1-2q2-2-1-4m4 0q-2 0-1 3l4 1-1-2q1-2-2-2"/></g><g id="ky-h"><path fill="#f9d050" d="m831 383 24-73 24 73-63-45h78Z"/><path fill="#024919" d="m836 377 50-37h-62l50 37-19-59z"/></g><use xlink:href="#ky-h" width="100%" height="100%" x="90"/><use xlink:href="#ky-h" width="100%" height="100%" x="45" y="52"/><path fill="none" stroke="#000" d="M990 233v93c0 81-39 109-90 131-51-22-90-50-90-131v-93z"/></g></svg>