<svg xmlns="http://www.w3.org/2000/svg" viewBox="0 0 640 480"><path fill="#fff" d="M0 0h640v480H0z"/><path fill="#009543" d="M0 336h640v144H0z"/><path fill="#00209f" d="M0 0h640v144H0z"/><path stroke="#000" stroke-width="2" d="m320 153-6 3 1 32-11 11h9v19l-49 66-8-3-12 27s31 20 76 19c50 0 77-20 77-20l-13-26-6 2-50-65v-19h8l-11-11v-32s-3-3-5-3z"/><path fill="none" stroke="#000" stroke-width="8" d="M337 230h-34s-12-25-10-44q4-27 26-27 25-1 28 27c3 18-10 44-10 44z"/><path fill="#fff" d="m261 292-5 9 7-1zm4 11-8 2 9 4zm3-11 4 11 9-2-3-6zm6 15 1 5 12 3-5-11zm13-9 4 10 9-3-3-5zm6 14 1 3 14 3-6-10zm13-11 5 9 13-5-1-3zm8 12 3 5 16-1-6-9zm17-12 4 8 11-5-3-4zm17 6-10 5 2 5 14-3zm3-8 6 7 8-7-3-3zm16 3-8 7 2 4 11-3zm12-13 2 3-6 9-6-8zm3 8 4 7-7 2-1-3z"/></svg>