<svg xmlns="http://www.w3.org/2000/svg" viewBox="0 0 640 480"><g fill-rule="evenodd"><path fill="#3b5aa3" d="M0 0h640v480H0z"/><path fill="#e2ae57" d="M0 467 640 0v87L0 480z"/><path fill="#fff" d="m22 480 618-301V84L0 480zM175 15l-6 103-27-66 10 70-41-56 27 64-55-42 43 53-62-27 54 41-68-9 64 25-100 9 101 7-64 26 67-9-54 40 63-27-43 54 54-42-27 63 44-55-12 69 27-64 7 101 9-101 24 64-9-69 43 55-28-64 54 44-43-55 65 27-57-42 69 12-67-26 105-6-104-10 68-23-71 9 59-41-66 27 45-55-55 43 26-66-43 56 10-70-26 66z"/></g></svg>