<svg xmlns="http://www.w3.org/2000/svg" viewBox="0 0 640 480"><defs><clipPath id="mp-a"><path d="M0 0h640v480H0z"/></clipPath></defs><g clip-path="url(#mp-a)"><path fill="#0071bc" fill-rule="evenodd" d="M-160 0h960v480h-960z"/><path fill="#fff" fill-rule="evenodd" stroke="#000" stroke-width="2" d="M370 366s15-16 30-13c4-17 21-19 21-19s-2-18 19-22c1-13 14-24 14-24s-3-20 11-24c-9-16 2-27 2-27 0-1-14-25-1-32-13-11-9-24-9-24s-14-3-9-20c-12-2-14-21-14-21s-18 3-20-12c-12 2-14-10-14-10s-23 6-28-11c-9 4-13-4-13-4s-13 6-21-6c-15 10-24-1-24-1s-20 14-27 3c-12 13-23 7-23 7s-9 16-24 12c-3 15-20 16-20 16s2 13-18 16c-3 16-13 18-13 18s1 16-9 20c4 9-5 19-5 19s9 12-4 25c13 3 4 25 4 25s17 7 6 21c12 4 9 14 9 20 7 3 14 1 11 17 24 3 13 16 13 16s11 0 6 9c21 0 24 15 24 15s18-5 21 3-8 56-8 56-16 0-28-13c-28 0-22-19-22-19-1 0-9 4-14-11-19 3-18-12-18-12 0-1-8-4-5-12-20 2-18-17-18-17q-6-4-5-9c-3-1-20-2-11-24-16-10-6-21-6-21s-22-12-5-25c-13-19 1-29 1-29s-18-18 0-31c-3-27 14-34 14-34s-9-22 14-31c2-23 18-24 18-24s1-18 26-16c5-16 23-13 23-13s5-19 29-10c12-24 30-12 30-12s12-7 17-5c8-12 23 0 33 2 4-1 17-11 27 1 13-8 24 7 24 7s18-9 27 12c38-3 33 22 33 22s30-7 23 23c28 2 25 20 25 20s18 13 10 25c15 1 10 16 10 16s12 4 2 23c22 18 4 36 4 36s12 14 1 31c3 27-10 34-10 34s3 18-12 23c0 20-20 23-20 23s6 9-14 18c0 14-20 15-20 15s-2 25-28 18c-6 20-36 14-36 14z"/><path fill="#217900" fill-rule="evenodd" stroke="#000" stroke-linejoin="round" stroke-width="2" d="M185 124s6 6 5 14-6 20-5 29v9c1 0-5-8-5-17s6-17 6-23zm-3 3s-9 8-10 15l-1 31-1 16c-1 4 6-6 6-14l1-28 2-11z"/><g fill="#ffd200" fill-rule="evenodd" stroke="#ef8a10"><path stroke-width="2" d="M366 101s11-5 14-15-9-9-11-6 1 10 0 12c0 2-5 7-3 8z"/><path stroke-width="3" d="M270 104s7-10 5-19c-2-10-13-4-13-1s6 9 7 11c0 2-2 8 1 9zm-19 6s7-10 5-20c-2-9-13-3-13 0s6 8 7 11c0 2-2 8 1 9zm-21 6s7-9 5-19-13-4-13 0c0 3 6 8 7 10 0 2-2 8 1 9zm-15 15s7-10 5-19c-2-10-13-4-13-1 0 4 6 9 7 11 0 2-2 8 1 9zm-16 14s7-9 5-19-13-4-13 0 7 8 7 10-1 9 1 9z"/><path stroke-width="2" d="M235 62s-9 7-10 17 11 7 12 4c1-4-4-10-3-12 0-2 3-8 1-9zm31-10s-9 8-10 17c-1 10 11 7 12 4s-3-10-3-12 3-8 1-9zm-116 85s2 11 10 17c8 5 11-7 9-9s-10-1-12-3c-2-1-5-6-7-5zm-16 40s0 12 7 18c8 7 13-4 11-7s-10-3-12-5c-1-1-4-7-6-6zm36 44s-4-11-13-15c-9-3-10 9-7 11 2 2 10-1 12 0s6 6 8 4zm-7-19s7-10 5-19c-1-10-12-4-13-1 0 4 6 9 7 11 0 2-2 8 1 9zm225-92s11-5 14-14-9-10-11-7 2 11 1 13-5 6-4 8zm33 16s6-10 4-19c-3-10-13-3-13 0 0 4 7 8 7 10 1 2 0 9 2 9zm90 93s-5-11-14-14c-9-4-10 8-7 10s11-1 12 0c2 1 7 6 9 4zm-44 7s0-12 7-18c8-7 13 5 11 7-2 3-10 3-12 5-1 1-4 7-6 6zm-7-126s-11-5-20 0c-9 4 0 13 3 12s6-8 8-9 9-1 9-3zm-26-22s-11-4-20 0c-9 5 0 14 3 13s7-9 8-9c3-1 9-1 9-4zm-38-20s-9 7-10 17 11 7 12 4-4-10-4-12c1-2 4-8 2-9zm-25-6s-4 11 0 20 13 0 12-3c0-3-8-7-9-8 0-2 0-9-3-9zm-70 43s7-9 6-19-12-5-12-1c-1 3 5 9 5 11s-2 8 1 9z"/></g><path fill="#8c8a8c" fill-rule="evenodd" stroke="#000" stroke-width="2" d="M343 114s18 2 19 12-4 17-4 17 2 23-16 30c-19 2-50 1-50 1s-9 2-12-17l-5-31s2-11 15-11z"/><path fill="none" stroke="#000" stroke-linecap="round" stroke-width="2" d="M358 143s-10 13-9 18"/><path fill="#8c8a8c" fill-rule="evenodd" stroke="#000" stroke-width="2" d="M344 172q5 2 6 12l1 16 13 116 11 85 1 13s-3 9-11 10c-5 12-35 15-38 15s-13-4-18-4c-6 1-16 5-21 4-4-1-15-4-16-11-13-4-15-14-15-14l14-98 13-123s1-16 8-19c7-1 42 1 52-2z"/><path fill="none" stroke="#000" stroke-width="2" d="m274 341-2 86m86-74 8 71"/><path fill="none" stroke="#000" d="m137 296-1 1m359-4v1"/><path fill="none" stroke="#6b18b5" stroke-linejoin="round" stroke-width="2" d="M127 180s6 8 7 12c1 5 3 14 5 17 3 4 17 24 17 33 1 5-5 15-14 15-6-1-20-4-21-16 0-13 5-13 5-20z"/><path fill="none" stroke="#6b18b5" stroke-linejoin="round" d="M225 73s-6 0-11 3q-6 3-14 11c-10 8-26 12-31 19-3 4-3 15 5 20 4 3 19 7 25-3 7-10 3-13 7-19a117 117 0 0 1 19-31zm142-15s-4-4-9-5l-18-2c-13-2-27-11-35-10-6 1-13 9-12 18 2 5 8 16 20 14s12-5 19-7c17-10 35-8 35-8zm141 137-2-11q-1-6-8-16c-5-12-4-29-9-35-4-4-15-7-21 0-4 4-12 16-4 25 9 9 12 6 18 11 13 9 20 25 26 26zm-4 107c1-2 5-7 4-11l2-18c1-13 10-24 7-36-1-5-9-12-18-10-5 1-17 8-14 20s7 11 9 18c8 15 3 32 10 37z"/><path fill="none" stroke="#000" stroke-width="2" d="M406 387s-3 4 6 8m12-18s10-3 16 0m14-26s-2 5 6 11m-1-22s6 4 16 4m-75 9s0 11-6 16m26-34s9 2 17-2m45-15s2 3 13 3m-55-10s13 4 20 1m5-48 4 13m5-51s0 7-6 11m43-40s-9 7-7 10m-35-15s5 8-2 13m-19-44s8 0 11 6m-25-27h6m24-26-2 4m-51-4s4 7 3 14m20-35 7-3m-33-22s-2 8 2 11m-12 25c0 8 7 6 2 14m-18-21-10 9m-17-13s5 4 4 10m-16-14s-2 7-5 9m-18-10-6 9m-26-9s4 7-1 12m-6-48q1 1-3 10m-29 1c0 1 2 6-7 8m-10 46 9 1m-31 19 11-4m-28 17h9m-14 6s2 1 1 13m-35-43 5 6m-19 26c0-1 4 6 10 7m23 25 8-2m-11 26q-1-1 5-7m-12 18s5 6 9 7m-12 5q2-3 12-5m-14 21s0 5 16 4m-14 15s5-11 14-15m-1 28s1-4 9-7m0 25 7-5m0 19s3 4 12-3m-54 6c1 0 14-3 18 4m-13 7s13-2 15-1m33 3s-2 4 14-2m6 9c-3 5 1 9-3 11m-47-4c1 0 6-2 5-10m0 22c1 0 10-4 12-2m6 14s1-9 4-9m10 21s8 0 11-3m4-25s7 4 22 0m-17 33 2 13"/><g fill="#de2010" fill-rule="evenodd" stroke="#000" stroke-width="2"><path d="m233 119-2-5h-4l-2 5q0 3 2 5h4z" transform="matrix(1.60885 -.2011 .2072 1.65762 95 75)"/><path d="m233 119-2-5h-4l-2 5q0 3 2 5h4z" transform="matrix(1.60885 -.2011 .2072 1.65762 93 57)"/><path d="m233 119-2-5h-4l-2 5q0 3 2 5h4z" transform="matrix(1.58497 -.3417 .35206 1.633 78 74)"/><path d="m233 119-2-5h-4l-2 5q0 3 2 5h4z" transform="matrix(1.4455 -.73446 .7567 1.4893 56 163)"/><path d="m233 119-2-5h-4l-2 5q0 3 2 5h4z" transform="matrix(1.4455 -.73446 .7567 1.4893 49 147)"/><path d="m233 119-2-5h-4l-2 5q0 3 2 5h4z" transform="matrix(1.3781 -.85423 .88011 1.41987 40 167)"/><path d="m233 119-2-5h-4l-2 5q0 3 2 5h4z" transform="matrix(1.28907 -.98346 1.01327 1.32812 34 193)"/><path d="m233 119-2-5h-4l-2 5q0 3 2 5h4z" transform="matrix(1.1329 -1.15994 1.19508 1.16722 35 239)"/><path d="m233 119-2-5h-4l-2 5q0 3 2 5h4z" transform="matrix(1.02138 -1.25922 1.29739 1.05234 34 263)"/><path d="m233 119-2-5h-4l-2 5q0 3 2 5h4z" transform="matrix(.79817 -1.41132 1.45408 .82236 52 315)"/><path d="m233 119-2-5h-4l-2 5q0 3 2 5h4z" transform="matrix(.66642 -1.4781 1.52289 .6866 57 337)"/><path d="m233 119-2-5h-4l-2 5q0 3 2 5h4z" transform="matrix(.56582 -1.51945 1.5655 .58296 58 352)"/><path d="m233 119-2-5h-4l-2 5q0 3 2 5h4z" transform="matrix(.4482 -1.5582 1.60543 .46178 63 370)"/><path d="m233 119-2-5h-4l-2 5q0 3 2 5h4z" transform="matrix(.20288 -1.60864 1.65738 .20903 95 409)"/><path d="m233 119-2-5h-4l-2 5q0 3 2 5h4z" transform="matrix(.06506 -1.62008 1.66918 .06703 106 427)"/><path d="m233 119-2-5h-4l-2 5q0 3 2 5h4z" transform="matrix(.06506 -1.62008 1.66918 .06703 89 428)"/><path d="m233 119-2-5h-4l-2 5q0 3 2 5h4z" transform="matrix(-.36132 -1.5806 1.62852 -.37226 173 474)"/><path d="m233 119-2-5h-4l-2 5q0 3 2 5h4z" transform="matrix(-.49045 -1.54542 1.59227 -.50531 188 486)"/><path d="m233 119-2-5h-4l-2 5q0 3 2 5h4z" transform="matrix(-.67103 -1.476 1.52073 -.69138 222 499)"/><path d="m233 119-2-5h-4l-2 5q0 3 2 5h4z" transform="matrix(-.7945 -1.41337 1.4562 -.81858 241 508)"/><path d="m233 119-2-5h-4l-2 5q0 3 2 5h4z" transform="matrix(-.94339 -1.31867 1.35863 -.97197 272 515)"/><path d="m233 119-2-5h-4l-2 5q0 3 2 5h4z" transform="matrix(-1.05159 -1.2341 1.27151 -1.08344 292 520)"/><path d="m233 119-2-5h-4l-2 5q0 3 2 5h4z" transform="matrix(-1.13737 -1.15553 1.19056 -1.17183 309 526)"/><path d="m233 119-2-5h-4l-2 5q0 3 2 5h4z" transform="matrix(-1.2301 -1.05628 1.08829 -1.26738 331 530)"/><path d="m233 119-2-5h-4l-2 5q0 3 2 5h4z" transform="matrix(-1.33573 -.91908 .94693 -1.3762 363 526)"/><path d="m233 119-2-5h-4l-2 5q0 3 2 5h4z" transform="matrix(-1.47374 -.67597 .69645 -1.51841 416 504)"/><path d="m233 119-2-5h-4l-2 5q0 3 2 5h4z" transform="matrix(-1.52895 -.53958 .55593 -1.5753 439 498)"/><path d="m233 119-2-5h-4l-2 5q0 3 2 5h4z" transform="matrix(-1.61445 -.12005 .15429 -1.33344 501 406)"/><path d="m233 119-2-5h-4l-2 5q0 3 2 5h4z" transform="matrix(-1.58082 -.36035 .37125 -1.62873 468 481)"/></g><path fill="#ffe300" fill-rule="evenodd" d="M480 195q3-4 7-2-2-10-6-8-3 1-1 10m3 18q4-3 7-2 0-9-4-7-4 0-3 9m-7-35q2-4 6-4-4-8-7-6-4 3 1 10m-9-17q3-4 6-3-4-9-7-6-3 1 1 9m-19-30q1-5 5-5-5-7-8-4-4 4 3 9m-13-13q1-5 5-5-5-7-8-5-3 3 3 9m-27-22q0-4 4-6-7-6-9-2-3 5 5 8m14 11q1-5 5-6-7-6-9-3t4 9m-30-20q0-4 3-6-7-4-9-1-1 4 6 7m-16-7q-1-4 2-7-9-3-9 1-2 4 7 6m-17-5q-2-4 1-7-9-3-9 1t8 6m-18-4q-2-4 1-7-9-1-9 2 0 5 8 5m-18-1v-7q-9-1-8 3 0 4 8 4m-36 2q-3-3-1-6-9 1-8 4 2 5 9 2m18-2q-3-3-1-7-9 0-8 4 0 4 9 3m-35 6-3-6q-7 2-6 6 2 4 9 0m-33 15q-4-2-4-5-8 4-5 7 2 4 9-2m16-8q-3-1-3-6-9 3-6 6 2 4 9 0m-45 29q-5-1-5-5-7 6-4 8 2 3 9-3m14-12q-5-1-5-5-7 5-5 8 3 3 10-3m-27 24q-5 0-5-4-7 6-4 8 3 3 9-4m-11 15q-5 0-6-4-6 7-3 9t9-5m-10 15q-4 0-6-3-6 7-1 9 6 2 7-6m-8 16q-4 1-7-2-3 8 0 9 4 2 7-7m-7 16q-4 2-7-1-2 9 2 9t5-8m-4 18q-4 3-7 0-3 8 2 9 4 0 5-9m-2 16h-7q-1 7 3 7t4-7m307-73q2-4 5-4-4-7-7-5-3 3 2 9m25 85q4-3 7-1 0-9-5-8-3 2-2 9"/><path fill="#217900" fill-rule="evenodd" stroke="#000" stroke-linejoin="round" stroke-width="2" d="M461 132s-7 7-5 15c1 8 6 19 5 27l-2 15s8-9 8-18-6-20-6-27zm13 28s-5 4-5 13c1 9 10 26 10 26s7 14 7 18v-12c-1-8-11-26-11-26s-2-3-2-10z"/><path fill="#6b18b5" fill-rule="evenodd" d="M313 47q0-2-5-3-6 0-5 3 3 4 5 4 4-1 5-4m2 8q0-2-5-3-5 1-5 3 0 3 5 4 6 0 5-4m6-9s-6 4-3 6c2 1 8-4 8-4zm163 95-1-2h-3l-1 2 1 3h3zm-2-8q0-3-3-3-4 1-3 4 1 4 3 3zm2 17-2-2-1 2 2 1q1 1 1-1m5-15-2-2-1 2 1 2zm-14 2-1-2-1 2 1 1zm2 11-2-3-3 3q0 3 3 3t2-3m-6-5-2-2q-3 0-3 2 0 3 3 2zm-1-7-1-2-2 1-1 1 1 2h2zm30 35q-5-7-10-4-4 4 0 10 5 5 10 3 4-4 0-9m8 66q0-7-5-8-5 0-7 7 0 7 5 9 5 0 7-8m1 39q1-7-4-9-5-1-7 7-1 7 4 9 5-1 7-7m8-36q0-3-3-3-4 0-3 3l3 3zm-7 7-5 6s-5 0-5 2 7 7 7 9 4-1 4-1l4-11s0-8-2-8zm-357-2a3 3 0 1 0-5 0 3 3 0 0 0 5 0m2-8q0-3-2-3-3 0-3 3t3 2zm-21-38-4-3q-3 2-1 6 3 5 4 2 3-1 1-5m7 24q-3-5-7-4-4 2-1 7 4 6 6 3 3-4 1-6m7 17q1-6-3-7-3-1-5 5 0 6 4 7t4-5m-11 2q2-5-1-8c-3-3-5 1-6 4s-1 7 1 8 5 0 6-4"/><path fill="#6b18b5" fill-rule="evenodd" d="M131 235q0-3-3-3t-2 3q1 4 3 3 3-1 2-3m-2-8q0-2-3-2l-2 2q0 3 2 3 3 0 3-3m2-14q0-5-2-5-3 0-3 5 1 5 3 5 3 0 2-5m8-1q1-5-2-5l-3 4q0 5 2 5t3-4m55-110q1-6-2-8-4-1-6 5-1 6 2 8 4 1 6-5m-10 16q5-5 3-8-3-3-8 1-7 6-3 8 2 3 8-1m-6-9q5-3 3-7c-2-4-5-1-8 1q-6 5-3 7 4 2 8-1m23-15q3-3 2-5-2-2-5 1-4 4-2 4z"/><path fill="#6b18b5" fill-rule="evenodd" d="M189 109q2-4 0-6l-5 3q-2 3 0 5 2 1 5-3m18-9q3-3 2-5-3-2-7 1-3 4-1 5 1 3 6-1m-32 22q3 0 3-2-1-2-4-2-4 0-3 2zm38-33q3-4 1-5-3-1-5 2-3 5 0 5 2 1 4-2"/><path fill="#ffd200" fill-rule="evenodd" stroke="#ef8a10" d="M447 153s6-10 4-19c-3-10-13-3-13 0 0 4 7 8 7 10 1 2-1 9 2 9z"/><path fill="#217900" fill-rule="evenodd" stroke="#000" stroke-linejoin="round" stroke-width="2" d="M325 69s23 1 23 16l-1 12q8-6 7-14c0-15-20-25-29-14z"/><path fill="#217900" fill-rule="evenodd" stroke="#000" stroke-linejoin="round" stroke-width="2" d="M310 69s19-4 19 11-6 17-6 17 14-3 14-18-18-22-27-10z"/><path fill="#f7df73" fill-rule="evenodd" stroke="#000" stroke-linejoin="round" stroke-width="3" d="M373 390s87-25 113-131c-15 109-110 144-110 144z"/><path fill="#8c1800" fill-rule="evenodd" d="M382 397c3 0 9-8 13-9 4 0 5-4 0-4-4-1-8 5-8 5s-4 3-8 3c-4 1-1 6 3 5"/><path fill="#8c1800" fill-rule="evenodd" stroke="#8c1800" stroke-width="3" d="M432 359s-9 6-8 7c2 1 10-5 10-5s3-4-2-2z"/><path fill="#8c1800" fill-rule="evenodd" d="M401 383s-3-1 4-4c7-2 6-5 9-7q5-3 8-2c3 1-5 6-7 6-1 0-8 7-10 7z"/><path fill="none" stroke="#8c1800" stroke-linecap="round" stroke-width="3" d="m446 346-6 7m15-18-6 7m14-21-6 10"/><path fill="none" stroke="#8c1800" stroke-linecap="round" stroke-width="2" d="m471 307-5 10m8-18-1 4"/><path fill="none" stroke="#8c1800" stroke-linecap="round" d="m478 289-1 4"/><path fill="#f7df73" fill-rule="evenodd" stroke="#000" stroke-linejoin="round" stroke-width="2" d="M160 216s52-15 68-78c-9 65-66 86-66 86z" transform="matrix(-1.65528 0 0 1.70062 525 20)"/><path fill="#8c1800" fill-rule="evenodd" d="M251 394c-3 0-10-7-13-8q-7-3 0-5c4 0 8 5 8 5l8 4c4 0 1 5-3 4"/><path fill="#8c1800" fill-rule="evenodd" stroke="#8c1800" stroke-width="2" d="M196 198s-6 3-5 4l6-4z" transform="matrix(-1.65528 0 0 1.70062 525 20)"/><path fill="#8c1800" fill-rule="evenodd" d="M232 381s3-1-4-4-6-6-8-7q-5-4-8-3c-3 1 5 6 6 6l10 8z"/><path fill="none" stroke="#8c1800" stroke-linecap="round" stroke-width="2" d="m204 190-4 4m9-11-3 4m8-12-4 6" transform="matrix(-1.65528 0 0 1.70062 525 20)"/><path fill="none" stroke="#8c1800" stroke-linecap="round" d="m219 166-4 6m6-10-1 2m3-8-1 2" transform="matrix(-1.65528 0 0 1.70062 525 20)"/><path fill="#217900" fill-rule="evenodd" stroke="#000" stroke-linejoin="round" stroke-width="2" d="M490 239c1 7 7 13 5 25-3 13-15 45-13 50q-4-7-3-15c0-7 9-31 10-40z"/><path fill="#217900" fill-rule="evenodd" stroke="#000" stroke-linejoin="round" stroke-width="2" d="M490 239s11 14 10 25c0 10-6 23-4 28a22 22 0 0 1-5-14c0-6 6-14 4-21zm-349 3c0 7-5 13-3 25 3 13 15 30 13 49q6-7 5-17c0-6-13-28-14-36z"/><path fill="#217900" fill-rule="evenodd" stroke="#000" stroke-linejoin="round" stroke-width="2" d="M141 243s-10 13-10 23c0 7 13 37 11 43 4-5 5-4 5-12-4-18-11-29-10-36z"/><path fill="#fff" stroke="#000" stroke-dashoffset="1" stroke-linecap="square" stroke-linejoin="round" stroke-width="2" d="m100 126 22 68h72l-58 42 22 68-58-42-58 42 22-68-58-42h72z" transform="matrix(1.16516 0 0 1.16534 202 -24)"/></g></svg>