<svg xmlns="http://www.w3.org/2000/svg" viewBox="0 0 640 480"><path fill="#012169" d="M0 0h640v480H0z"/><path fill="#fff" d="M385 111h205v146c2 59-35 96-102 112-48-12-103-36-103-110z"/><path fill="#00a2bd" stroke="#000" stroke-width="2" d="M389 115h197v141q0 84-98 107c-46-12-99-35-99-106z"/><path fill="#a53d08" d="M584 272c-7 54-48 77-96 90-43-12-88-30-97-90z"/><path d="M480 142v-18h14v18h38v13h-38v162h-14V155h-38v-14z"/><path fill="#ff9a08" fill-rule="evenodd" stroke="#000" d="m449 279 35 36c12-13 4-63-12-72q-3 11-9 15c-7 5-26 11-20 15q4-4 7 1c2 7-8 7-8 7s-6-1-7-7 9-12 10-12c1-1 15-4 17-16 3-12 6-10 6-11 18 2 29 34 30 56s-9 37-11 38c-1 1-42-48-42-48z"/><path fill="#ff9a08" stroke="#000" d="M475 245v66m-4-65v60m-5-51 1 47m-4-44v39m-4-37v33m-4-30v26m-3-24v20"/><path fill="none" stroke="#ffdf00" stroke-linecap="round" d="m449 283 36 41m1-67s17 36 2 65m-44-47s2-3 3-1m-5-8s-7 6-3 10"/><path fill="#008021" d="m494 175 5-3h17q2-1 5 2 4 2 4 14l-1 17q-1 14-6 15l8 20q5 9 3 29c-1 13-4 40 6 59q-4 2-9-4c-5-6-5-4-8-2-9 7-17 15-29 7q-5-2-2-10c5-13 8-33 7-42z"/><path fill="#ffe1cf" d="M502 167v7l1 8c2-4 6-3 9-5q2-5 4-5-3-2-4-8c1-4 7-8 2-14a8 8 0 0 0-14 1l-1 3-2 2v2h1l-1 2 1 1-1 2q-1 2 1 3zm-22 23h-12q-4 0-3-3v-7l3-14 4-12 2-5 2-2 2-1-1 2 4-2 2-1h2l-1 1q2 0 0 2 2 0 1 2l-3 2-4 3-2 3c0 18-2 16-2 21l1 2 5-1zm1 38q9-4 14-4l10-5 6-3 4-4a50 50 0 0 0 7-21c0-4-1-9-5-6a30 30 0 0 0-9 13l-3 10-4 1a27 27 0 0 0-13 7l-14 9q-5 2-6 4l-2 3-1 3v5l1 2 1-2q1 2 2 0 1 3 2-1h2l1-3 3-4 3-4m37 95 1 3v2l-3 9-1 3v2l3-1h2l2-1 1-1q2 1 2-2v-1l1-2 1-2 1-4-2-4-5-3zm-33 9q3 3 8-1l-4-2z"/><path fill="#870f00" d="M501 149q2-5 6-3l4-1q5-1 6 4 2 1 1 4l2 2q3 0 2 4 3 2 2 5-2 3-5 1l-4-1h-4l-2-2q-2-1 1-3v-2l-1-2v-4q-4 1-5-2z"/><g fill="none" stroke-width="0"><path d="m502 167 5-2m-9-4h1m-1-3 1 1m4-10c-1-1 3-4 6 0h3m-4 2q4 0 6 2c0 2 2 0 3 3q2 4 5 3m-7 5-1-3v-3m-4 1 2 2m7 4v-4"/><path d="m511 153 1 3 4 2m1-9-6-3m-8 36q-4 4-3 12 3 9-1 16m19 10q-5-2-9 1h-8"/><path d="M512 220q-3 0-3 6l-1 17m0-22q-3 0-3 5m-5 0q0-4 3-4m14 5q-1-9-3-7c2 0 4 0 5 9 0 7 2 9 3 14 4 14 2 35 4 42m-12-57a71 71 0 0 1-1 49l11 29m-24-48c1-3-2-3 0-13l1-9"/><path d="M501 242c-1 5 3 13 1 19m-6 1 1 14 3 9q11 18 11 35 1 6-2 9m-12 3 2-2a65 65 0 0 0 2-23m2 10q1 5-2 12m6-20v14m-2 0c0 2 1 8-1 9m10-36c4 7 7 23 11 27m-8-3-1-5m-45-76 1-4m-3 5 1-6m-3 6 1-6m15-89-4 4m5-3-5 4m5-2-4 3m-3-3-1 1m42 192v-2m2 2v-3m2 2v-2m1 1v-2"/></g><path d="m501 153 1 1 1 1h-3v-1zm0-1 3 1v1l-1-1zq-1 0 0 0"/><path fill="#012169" d="M0 0h320v240H0z"/><path fill="#FFF" d="m38 0 122 91L281 0h39v31l-120 90 120 89v30h-40l-120-89-119 89H0v-30l120-89L0 32V0z"/><path fill="#C8102E" d="m212 141 108 79v20l-135-99zm-92 10 3 17-96 72H0zM320 0v2L196 96l1-22 98-74zM0 0l120 88H90L0 21z"/><path fill="#FFF" d="M121 0v240h80V0zM0 80v80h320V80z"/><path fill="#C8102E" d="M0 97v48h320V97zM137 0v240h48V0z"/></svg>