<svg xmlns="http://www.w3.org/2000/svg" viewBox="0 0 640 480"><g fill-rule="evenodd"><path fill="#f41408" d="M0 0h640v480H0z"/><path fill="#21873b" d="M0 320h640v160H0z"/><path fill="#000001" d="M0 0h640v160H0z"/><path fill="#f31509" d="M221 141c22-49 84-73 138-52a98 98 0 0 1 58 52zm-26 6a332 332 0 0 1-53-7q-5-3-4-6l6-3c6 2 29 7 50 16m125-86c-4-21-5-44-5-48q2-4 5-4 5 0 5 5c0 5 0 27-5 48zm12 1a249 249 0 0 1-1-48q3-6 5-4 5 0 5 5c-1 5-3 26-9 47m10 1c0-21 3-44 4-48q2-5 6-4t3 6c0 5-5 26-13 46m11 2c2-21 7-43 9-47q2-5 6-3 4 0 3 5c-2 5-8 26-18 45m11 4c4-21 12-43 13-47q4-5 7-3t2 6a264 264 0 0 1-22 44m10 4c6-21 16-42 18-46q3-4 6-2 4 1 2 6c-2 4-12 24-26 42m10 4a263 263 0 0 1 22-44q4-4 7-1a4 4 0 0 1 1 6c-3 4-15 23-30 39m10 6c9-20 23-39 26-42q4-4 6-2a4 4 0 0 1 1 7c-3 4-17 22-34 37m8 6c12-19 27-37 30-40q5-3 7-1a4 4 0 0 1 1 7c-4 4-19 20-38 34m9 7a284 284 0 0 1 33-37q6-4 7-1a4 4 0 0 1 0 7c-4 3-21 19-40 31m7 7a278 278 0 0 1 37-34q6-2 7 0 3 4-1 6a306 306 0 0 1-43 28m7 8a297 297 0 0 1 40-31q6-2 7 0 2 4-2 7c-4 3-24 15-45 24m6 8a307 307 0 0 1 43-28q6-1 7 2 1 2-2 6a321 321 0 0 1-48 20m5 10a313 313 0 0 1 46-24q6-2 6 1 2 4-2 6c-5 2-27 12-50 17m4 9a320 320 0 0 1 48-21q6-1 7 3 0 3-4 5c-5 2-28 10-51 13m4 10a325 325 0 0 1 49-17q7-1 6 3 2 4-3 5c-6 2-29 7-52 9M308 62a252 252 0 0 1-10-47q1-5 4-5 4 0 6 4c0 5 2 27 0 48m-11 1a251 251 0 0 1-14-46q-1-5 3-5 4-1 6 3a263 263 0 0 1 5 48m-11 2a259 259 0 0 1-19-45q-1-5 3-5 4-1 6 3c2 5 8 26 10 47m-11 4a264 264 0 0 1-22-44q-2-5 2-6t6 3c2 5 11 25 14 46m-10 3a270 270 0 0 1-27-41q-1-6 2-6 4-2 7 2c2 5 12 24 18 45m-10 5a276 276 0 0 1-31-39q-2-5 1-6 3-2 7 2c3 4 15 23 23 43m-10 5a285 285 0 0 1-34-36q-2-5 1-7 4-2 7 2c3 4 17 22 26 41m-8 6a292 292 0 0 1-38-33q-3-5 0-7a6 6 0 0 1 7 1c4 4 19 21 31 39m-9 7a299 299 0 0 1-41-30q-3-4 0-7a6 6 0 0 1 7 1c4 3 21 19 34 36m-7 7a307 307 0 0 1-44-27q-4-4-1-6 4-3 7-1a292 292 0 0 1 38 35m-7 9a313 313 0 0 1-46-24q-5-4-2-6 2-3 7-1c5 3 24 15 41 31m-6 8c-23-7-45-17-49-19q-4-4-2-6 3-3 7-2c5 3 26 14 44 27m-6 9c-23-5-46-14-50-16q-5-3-2-5 1-4 6-2c5 2 27 11 46 23m-4 9a329 329 0 0 1-51-12q-5-3-4-5 2-4 7-3c5 2 28 9 48 20"/><path fill="#f31509" d="M195 147a332 332 0 0 1-53-7q-5-3-4-6l6-3c6 2 29 7 50 16"/><path d="M129 142h382v12H129z"/></g></svg>