<svg xmlns="http://www.w3.org/2000/svg" viewBox="0 0 640 480"><defs><clipPath id="na-a"><path d="M0 0h640v480H0z"/></clipPath></defs><g fill-rule="evenodd" clip-path="url(#na-a)"><path fill="#fff" d="M0 0h640v480H0z"/><path fill="#3662a2" d="M-26 0v346L513 0z"/><path fill="#38a100" d="m666 480-1-360-543 360z"/><path fill="#c70000" d="M-26 372v108H92L665 95V1L549 0z"/><path fill="#ffe700" d="m220 172-22-13-13 22-12-22-22 13 1-26h-26l13-21-22-13 22-12-12-22h25V53l22 13 12-22 13 22 22-13-1 26h25l-13 21 22 13-22 12 13 22-26-1z"/><path fill="#3662a2" d="M232 112a46 46 0 1 1-47-46c27 0 47 21 47 46"/><path fill="#ffe700" d="M222 112a37 37 0 1 1-73 0 37 37 0 0 1 73 0"/></g></svg>