<svg xmlns="http://www.w3.org/2000/svg" viewBox="0 0 640 480"><path fill="#fedd00" d="M0 0h640v480H0z"/><path fill="#012169" d="M0 0h320v240H0z"/><path fill="#fff" d="m38 0 122 91L281 0h39v31l-120 90 120 89v30h-40l-120-89-119 89H0v-30l120-89L0 32V0z"/><path fill="#c8102e" d="m212 141 108 79v20l-135-99zm-92 10 3 17-96 72H0zM320 0v2L196 96l1-22 98-74zM0 0l120 88H90L0 21z"/><path fill="#fff" d="M121 0v240h80V0zM0 80v80h320V80z"/><path fill="#c8102e" d="M0 97v48h320V97zM137 0v240h48V0z"/><circle cx="160" cy="120" r="41" fill="#012169"/><path fill="#fedd00" d="m160 79 24 74-63-46h78l-63 46M67 98l14 44-37-27h46l-37 27m200-44 14 44-37-27h46l-37 27m-79 36 14 44-37-27h46l-37 27m14-204 14 44-37-27h46l-37 27"/></svg>