<svg xmlns="http://www.w3.org/2000/svg" xmlns:xlink="http://www.w3.org/1999/xlink" viewBox="0 0 640 480"><path fill="#003da5" d="M0 0h640v480H0z"/><use xlink:href="#pc-a" width="1000" height="700" transform="rotate(164 312 242)"/><path id="pc-a" fill="#fff" fill-opacity="1" fill-rule="nonzero" stroke="none" stroke-width="1" d="m473 263-9 1-1 9-4-8-8 2 6-6-4-8 7 4 6-6-1 8z"/><use xlink:href="#pc-a" width="1000" height="700" transform="rotate(-10 312 242)"/><use xlink:href="#pc-a" width="1000" height="700" transform="rotate(-31 312 242)"/><use xlink:href="#pc-a" width="1000" height="700" transform="rotate(-21 312 242)"/><use xlink:href="#pc-a" width="1000" height="700" transform="rotate(-51 312 242)"/><use xlink:href="#pc-a" width="1000" height="700" transform="rotate(-72 312 242)"/><use xlink:href="#pc-a" width="1000" height="700" transform="rotate(-62 312 242)"/><use xlink:href="#pc-a" width="1000" height="700" transform="rotate(-41 312 242)"/><use xlink:href="#pc-a" width="1000" height="700" transform="rotate(-93 312 242)"/><use xlink:href="#pc-a" width="1000" height="700" transform="rotate(-113 312 242)"/><use xlink:href="#pc-a" width="1000" height="700" transform="rotate(-103 312 242)"/><use xlink:href="#pc-a" width="1000" height="700" transform="rotate(-134 312 242)"/><use xlink:href="#pc-a" width="1000" height="700" transform="rotate(-154 312 242)"/><use xlink:href="#pc-a" width="1000" height="700" transform="rotate(-144 312 242)"/><use xlink:href="#pc-a" width="1000" height="700" transform="rotate(-124 312 242)"/><use xlink:href="#pc-a" width="1000" height="700" transform="rotate(-82 312 242)"/><use xlink:href="#pc-a" width="1000" height="700" transform="rotate(-175 312 242)"/><use xlink:href="#pc-a" width="1000" height="700" transform="rotate(175 312 242)"/><use xlink:href="#pc-a" width="1000" height="700" transform="rotate(144 312 242)"/><use xlink:href="#pc-a" width="1000" height="700" transform="rotate(123 312 242)"/><use xlink:href="#pc-a" width="1000" height="700" transform="rotate(133 312 242)"/><use xlink:href="#pc-a" width="1000" height="700" transform="rotate(154 312 242)"/><use xlink:href="#pc-a" width="1000" height="700" transform="rotate(-165 312 242)"/><use xlink:href="#pc-a" width="1000" height="700" transform="rotate(113 312 242)"/><use xlink:href="#pc-a" width="1000" height="700" transform="rotate(103 312 242)"/><path fill="none" stroke="#00aec7" stroke-width="14" d="M445 313a151 151 0 0 1-152 79"/><path fill="#fff" d="M474 289s-25-12-76-12-105 14-135 14c-30-1-39-1-57-4 0 0 27 9 56 11 29 3 95-10 128-12q50-4 84 3"/><path fill="#00aec7" d="M275 303s19 1 56-3 63-9 92-10 61 4 68 6c0 0-48-1-69 2-20 3-73 9-100 10-28 1-38-3-47-5m-80-28s51 14 97 5c52-10 83-10 106-10 24 0 48 6 48 6s-96-100-196-153c0 0-8 84-55 152"/><path fill="#fff" d="M274 198s-1-6-8-5l6-1q3 0 2 6m-17-10h3l3 4q-1 1-6-4m23 5a13 13 0 0 0-9-5c-2 0-6 4-6 4l-1-4 4 1-2-3q8 0 9 2a17 17 0 0 0-11-7l-3 2c-8 0-10 4-10 4 4 5 10 6 10 6-11-1-11 8-11 8l11-5c-4 24-21 35-23 36q-1 2 2 3 1 2 6-3a65 65 0 0 0 16-36l1 1v7c0 2 5 6 5 6l2-7-6-8c8-1 8 12 8 12l3-7c-1 0 6-5 5-7"/></svg>