<svg xmlns="http://www.w3.org/2000/svg" viewBox="0 0 640 480"><defs><clipPath id="pf-a"><path d="M0 0h640v480H0z"/></clipPath></defs><g clip-path="url(#pf-a)"><path fill="#fff" d="M0 0h640v480H0z"/><path fill="#fff" d="M80 0h480v480H80z"/><path fill="#083d9c" fill-rule="evenodd" stroke="#083d9c" stroke-width="3" d="M277 341s11-9 22-9 13 7 20 8c8 0 14-7 23-8 9 0 21 7 21 7l-40 12zm-23-13 136 1s-12-13-26-13c-13-1-10 6-20 6-11 1-13-6-23-6s-15 6-23 7c-7 0-16-8-22-7-5 0-25 8-25 8zm-17-16h167c3-3-8-13-18-13-8 0-14 8-21 8-7 1-14-8-22-8-7 1-15 8-23 8s-13-8-23-8-14 9-21 9c-7-1-14-10-21-10s-19 11-21 10c-2 0 3 5 3 4z"/><path fill="red" fill-rule="evenodd" stroke="#000" stroke-linejoin="round" stroke-width="3" d="m301 219 39 10v-55c-18 1-33-33-2-35-30-5-33 3-37 12z"/><path fill="#083d9c" fill-rule="evenodd" stroke="#083d9c" stroke-linecap="round" stroke-width="5" d="M277 259h87"/><path fill="none" stroke="#000" stroke-linecap="round" stroke-width="4" d="m281 238 10 14m-10 0 11-14m-5-1v9m10-8 11 14m-10 0 11-14m-6-1v9m11-8 11 14m-11 0 11-14m-5-1v9m12-8 10 14m-10 0 11-14m-6-1v9m11-8 10 14m-10 0 11-14m-5-1v9"/><path fill="#ef7d08" fill-rule="evenodd" d="M219 260h37v-23l-43-2zm-2-32 39 4v-17l-39-15zm8-33 30 15 4-5s-3-2-2-4l2-4-3-3 3-4-27-24zm198 65h-39v-23l42-3zm-39-28 46-6-9-26-37 15zm34-40-33 18q0-3-4-5l2-4-2-3 2-5-2-5 26-20zm-73 40 17-1v-7zm-50-1h-18v-7zm0-2-18-9v-12s-2 0-2-2c0-5 13 9 20 14zm51-1v-8l19-17-2 6v11zm-103-64 18 20q1-3 8-2 7-1 8 2 0 3-2 5c-2 2 3 2 3 4l-2 4 2 2 17 16v-17l-35-54zm27-21 24 48s0-44 4-46l-7-12zm101 2-26 47v-20s3-3-1-3h-7l10-37zm27 20-17 18q-2-2-11-1-7 1-6 3c1 3 2 1 2 4l-2 4c0 3 3 2 1 4l-20 19v-18l38-58z"/><path fill="red" fill-rule="evenodd" stroke="#000" stroke-linejoin="round" stroke-width="3" d="M310 268c-8 14-31 10-36 0-2 0-1-59-1-59s-2-1-2-3l3-4c2-2-4-2-4-4s4-2 4-4c0-3-4-2-4-4l3-4h-9c-4 0 0 1 0 3l-2 5 3 4-3 3 3 5c0 2-4 2-4 3l1 61c5 30 38 37 48-2zm22 0c8 14 30 10 35 0 2 0 1-59 1-59s3-1 3-3l-3-4c-2-2 3-2 3-4l-3-4c0-3 3-2 3-5q-1-3-3-3h9c5 0 0 1 0 3l3 5-4 4c0 2 4 2 4 3l-3 5 3 3v61c-6 30-39 37-48-2z"/><path fill="#083d9c" fill-rule="evenodd" stroke="#083d9c" stroke-width="3" d="M302 296h37c0-1-8-13-19-12-11 0-19 12-18 12zm119-1h-51s6-4 8-8c3 2 2 4 9 4s13-7 19-7 15 11 15 11zm-201 0h51s-7-4-9-8c-3 2-2 4-9 4-6 0-13-7-19-7s-14 11-14 11zm3-16h37s-3-5-3-11c-9-3-17 7-24 7-6 0-13-7-13-7zm194 0h-36l3-11c9-3 17 7 23 7 7 0 14-7 14-7zm-106 0h18s1-6-9-6-9 6-9 6zm-11-8 8-7h-13s-5 3-8 7zm41 0-9-7h13s6 3 9 7z"/><path fill="#de2010" fill-rule="evenodd" d="M-40 360h720v120H-40zm0-360h720v120H-40z"/></g></svg>