<svg xmlns="http://www.w3.org/2000/svg" viewBox="0 0 640 480"><defs><clipPath id="pk-a"><path d="M-52 0h682v512H-52z"/></clipPath></defs><g fill-rule="evenodd" clip-path="url(#pk-a)" transform="translate(49)scale(.9375)"><path fill="#0c590b" d="M-95 0h768v512H-95z"/><path fill="#fff" d="M-95 0H98v512H-95z"/><g fill="#fff"><path d="m404 225-32-6-16 27-3-31-31-8 29-13-3-31 21 23 30-12-16 27z"/><path d="M415 306a121 121 0 0 1-161 59 122 122 0 0 1-59-162 119 119 0 0 1 71-64l-12 11a112 112 0 0 0 162 156z"/></g></g></svg>