<svg xmlns="http://www.w3.org/2000/svg" viewBox="0 0 640 480"><path fill="#00247d" d="M0 0h640v480H0z"/><path fill="#012169" d="M0 0h320v240H0Z"/><path fill="#fff" d="m38 0 122 91L281 0h39v31l-120 90 120 89v30h-40l-120-89-119 89H0v-30l120-89L0 32V0Z"/><path fill="#c8102e" d="m212 141 108 79v20l-135-99Zm-92 10 3 17-96 72H0ZM320 0v2L196 96l1-22 98-74ZM0 0l120 88H90L0 21Z"/><path fill="#fff" d="M121 0v240h80V0ZM0 80v80h320V80Z"/><path fill="#c8102e" d="M0 97v48h320V97zM137 0v240h48V0Z"/><path fill="#f7e017" d="M410 252a57 57 0 0 0-19 28q-8 39-25 28c0 14 13 15 19 7q0 21 16 36 8 5 3-4c-2-4-2-20-7-28 8 5 18 2 18-12-10 5-19 5-20-8-1-15 5-37 15-47m-11-108q2-9-4-15-12-8-21 1c-8-4-13 12-22 9q2 8 9 6c-5 4 0 10-6 15q16 3 15-13a10 10 0 0 0 14 0q-7-4-3-12c3-6 19-6 18 9"/><path fill="#337321" d="M424 222c-12 6-34 4-36-12-2-15 13-22 17-24 6-4 11 2 9 9 7-3 9-11 5-16q16 0 22-16-7 3-20 1 4-6 2-10c-8 8-19 4-33 27l9-37c1-15-15-16-18-9q5 6 0 17c-1 8-5 29-8 36-1-11-8-12-9-17q-3 3-3 8c-2-3-11 0-14-4q-3 12 8 17c-3 0-4 4-8 4q7 8 16 8 9 1 13 10c6 11 27 18 48 8"/><path fill="#f7e017" d="M453 208c-6 19-25 32-33 34-14 4-43 18-51 25l-3-1c-4-3-7-12-1-19 22-20 44-11 59-25-12 6-34 4-36-12a55 55 0 0 0 54-16z"/><path fill="#337321" d="M410 252c-11 9-16 32-15 47l3 9c1-9 7-31 22-41 13-8 33-27 41-48a17 17 0 0 0-8-10c-8 21-27 30-43 43"/><path fill="#316d3a" d="M447 200a50 50 0 0 1-21 16l2-6a77 77 0 0 1-40 0 55 55 0 0 0 54-16z"/><path fill="#337321" d="M365 247c-17 16-5 30 1 33-2 12 9 10 9 20q5-5 5-15c5 6 19 0 22 11 2-12-8-24-19-23 5-4 2-11-3-13-1 9-10 9-14 6s-7-12-1-19"/><path fill="#f7e017" d="M403 350q-3 2-1 5c2 3-2 10 6 12q3 0 5-4c2-7-5-8-6-11q-1-5-4-2"/><path fill="#f7e017" d="M409 363q-4 0-4 11c1 3 1 11-2 11q3 2 7 0 4 4 6-1 4 1 5-3 3 1 4-6 3 1 5-2c-3 0-10-4-12-7q-4-4-9-3"/><path fill="none" d="m370 135 4-5m39 35q3-3 8-1m-11 221-1-9m7 8-4-7m9 4-7-9m10 3c-1 0-7-4-10-8"/><path fill="#f7e017" d="M529 247c27 23 29 42 25 53-3-10-14-26-26-30z"/><path fill="#337321" d="M479 234h51v61c0 52-29 83-58 99a108 108 0 0 1-58-99v-61h36q-1 5 4 13c9-1 18-8 25-13"/><path fill="#006ec7" d="M530 234v61q0 24-7 41l-51-93-51 93q-6-17-7-41v-61z"/><path fill="#f7e017" d="m525 332-4 10-49-91-49 91-3-10 52-98z"/><path fill="#f7e017" d="m495 365 5 3a36 36 0 0 0 3-20c-3 7-13 7-16 12l5 2c-4 4-12 9-16 11v-49l-2-9v-10q1-4-2-5-3 0-2 5v10l-1 9v49c-3-7-13-5-17-12h5c-3-12-13-13-14-16 0 5-2 16 1 20l3-2c4 8 21 8 25 22 3-5 15-11 23-20"/><path fill="#f7e017" d="m472 325 21-1 2-4-2-4-21-1-20 1-2 4 2 4zm-2-20-3-1q-5 0-5 4 0 5 5 5 4 0 4-5h3q-1 7-7 7-9 0-8-7 1-5 8-6h3z"/><path fill="#f7e017" d="m452 324 2-4-2-4"/><path fill="#f7e017" d="m453 324 2-4-2-4m11 9q3 0 3-5t-2-5m2 10q3 0 3-5t-3-5m9 10q2 0 2-5 0-6-2-5m3 10q2 0 2-5t-2-5m12 9 2-4-2-4m-44 47 5-2m41 2-1-1m3 3q5-5 8-11"/><path fill="#fff" d="m462 277 2-2 3-2h14q3 0 2 2v20l-1 1h-20z"/><path fill="#e5e5e5" d="M478 298q2 1 3-2l1-2v-19l-1-1h-14l-3 2-1 2v20z"/><path fill="#fff" d="m479 297-1 2h-15l-1-2v-20l1-1h15l1 1z"/><path fill="#96877d" d="M508 222q5 6 2 12h-4q4-8-7-11c-11-1-25 21-45 24-6-7-5-21 2-27a82 82 0 0 0-18-28l-10-1q6-11 18-16l3-4c1-9 42-5 51 0 0 10 4 43 8 51"/><path d="M458 228q-2-23-16-36a24 24 0 0 0 18-3c8-5 27-13 34-10l1 6c-2-4-21 3-26 5q-8 2-5 13c-3-3-2-5-5-7l2 12q-1-6-7-13a74 74 0 0 1 5 35c3 0 10-3 13-5q-6 5-14 6l-3 12c0-4 1-14 3-15m50-6q-6-6-20-4l7-2-3-15 3-1 4 16 4 1-5-21 4-2z"/><path fill="#96877d" d="M506 234q4-8-7-11-8 0-20 11zm-50-48-15-2 1-3-8 7c5 1 17 1 22-2"/><path fill="none" d="m456 220 2 10m-12-55-5 9 15 2"/><path fill="none" d="M438 192h4c4 2 13 2 18-3 6-4 21-16 39-18"/><path fill="none" d="M434 188c5 1 16 1 22-3a76 76 0 0 1 38-14"/><path fill="#337321" d="M529 247q30 18 37 46c7 28 11 26 21 20-2 12-14 14-24 5 1 13-5 29-19 35-1-8 5-14 3-21 0-3-1-10 3-13-7 3-19-2-20-13 9 4 20 5 24-6s2-30-25-53m23-105c6-16 22-14 27-8 15-8 17 11 30 7q-1 7-9 7c5 5-2 11 8 15-9 5-22 0-25-12-3 6-13 6-18 1 9-2 9-11 4-14-6-4-15-2-17 4m-45 33a82 82 0 0 0 22 35c11 10 27 8 36-2 0 19-19 20-30 15-5-3-9-2-4 3q12 9 40 14c32 7 21 32 11 32q6-1 1-6c-27-25-83-15-82-70-6 14-30 8-19-9q7 5 12-1 4-7-6-15 3 1 3-3 1 4 6 3l3 3 1-3q1 5 6 4"/><path fill="#f7e017" d="M535 223c13 8 28 8 42-8q8-8 15-9c5-1 5-5 8-6q-2-3-6-3c8-3 6-10 10-13-3 1-9-4-13 2q1-5-2-7c0 3-7 4-8 12q-3 8-4-3c0-5-3-20-6-28s-4-18 0-20l-2-2c-6-4-15-2-17 4-5 15 11 24 10 40-3-12-23-15-23-27q-7 5-3 12c-4-6-13 4-21-4-1 11 9 15 17 16-4 7 1 13 7 15 0-12 26-7 26 14 0 19-19 20-30 15m36 17c32 7 21 32 11 32q-10-1-11-9c-7 3-5 10 0 13-14-1-20 8-21 18 3-5 11-5 14-4s10 2 13-2c-2 2 2 7-2 11 12 0 17-11 15-16 16-14 13-37-19-43m-24 108q3 3 1 5c-3 4 1 12-8 13q-3 1-5-4c-2-8 6-8 7-12q3-5 5-2"/><path fill="#f7e017" d="M540 362q5 1 3 13c0 3 0 12 3 13q-5 2-8-1-4 4-7-2-4 2-5-4-4 3-4-5-4 0-6-3c3 0 11-4 13-8q4-4 11-3"/><path fill="none" d="m538 387 1-10m-8 8q3-2 5-8m-10 5 7-10m-11 4q5-2 11-9"/><path fill="#f7e017" d="M501 196q1 33 23 42c-5-3-3-13-10-16l8 1c-2-4-5-11-12-12h9c-4-6-14-3-18-15m-2-22-2-2q-5-1-6-3 0 3-3 2 10 9 6 15-5 7-12 1c0 10 13 13 17 1l3 5q4-9-3-19"/><path fill="#337321" d="M479 128a27 27 0 0 1-8-19q-1-9 10-8c-3 0-1 4-3 5q3 1 4-2l4 3q1-3-2-6l2-6q-3 1-4 4 2-4-3-7v6q-5-1-8 4l2-10q0-3-2-1c-2-4-8-6-10-4-3 2-6-1-9 2-2 4-9 4-9 8q1 4-1 6c-3 3 1 5 2 8 0-9 13-25 27-19l-3 12q-1 13 8 25z"/><path fill="#c8102e" d="M483 101q1-4 8-5c6 1 10 6 15 5s2 2 1 3l-1 3q1 2-2 1c-4-3-8 1-14-1q-7-2-7-6"/><path fill="#96877d" d="M460 154a34 34 0 0 0-15-16v-4l10-8c17 8 40-3 50-15l4 2-2 3-2-1-15 14 11 2q14-12 20-13l3 4-2 2-2-2a109 109 0 0 0-27 39c-6-1-29 0-33-7"/><path fill="none" d="m490 129-3-1-13 3m-13 21c-2-8 1-18 5-21a34 34 0 0 0 35 0"/><path fill="none" d="M461 148c7-1 23 1 26 1 4 1 11 2 10 4m-33-7 2-2-2-2-2 2z"/><path fill="#337321" d="M469 104c-3-3-10-5-11 0q-1 4-4 6-3 3 0 5 0 6 3 9 1-5 7-6 7-2 10-7c0-3 1-6-5-7"/><path fill="#96877d" d="M453 137v6l5-3 1 1-5 3v1l5 3-6-3v7h-1v-6l-1-1-5 4-1-1 6-3v-1l-6-3 1-1 5 3h1z"/><path fill="#96877d" d="M461 152a11 11 0 1 1 1-14l-2 6a7 7 0 1 0-7 8q5-1 7-6z"/><path fill="#337321" d="m449 162-2-4 4 1-1-5 5 4v-6l4 4 2-7 3 4q0-3 3-5l3 7 3-3v4q3-1 3-4l3 4v-5l3 4 3-5 1 6 3-4v6l3-3v3l3-6 4 5 4-3v4l1-2v5l3-1-2 7c-11-3-34-4-56-5"/><path fill="#f7e017" d="M486 102q0-2 5-2l11 2q4 0 1 1l-1 2h-10q-5-1-6-3m-34 67q-6 5-7 1c-1-3 2-4 1-6s1-4 2-3 5-2 7 1l2 7q-2 2-5 0m15-6c-1-2 3-5 4-3 2 2 5-2 7 1l3 7c0 2-5 3-6 1 0 1-5 2-6-1zm23 2q0-4 6-1 2-3 5 2v7q0 3-4-1-5-1-6-3z"/><path fill="#337321" d="M454 162q1-3 6-1c2 1 5-2 7 1l2 8q-3 2-6-1h-5q-3-3-4-7m24 1c-1-2 5-4 7-1q3-2 5 3 3 5 1 6t-5-1q-3 1-6-2zm23 3q1-3 3 0c1 2 5 0 5 4l-1 5c-1 1-7 0-7-3z"/><path fill="none" d="M452 169q-2-5-5-2m16 2-2-4m14 4-3-3m2-3 4 3 3 3m5 1-1-3m0-5 2 3m10 7-4-4m3-3c0 4 5 4 5 6m3-5 1 3"/></svg>