<svg xmlns="http://www.w3.org/2000/svg" viewBox="0 0 640 480"><path fill="#012169" d="M0 0h640v480H0Z"/><path fill="url(#sh-ac-ac-h)" d="M395 251s-18-21-32-23q-21-4-26 3c-5 3-18 14-20 22l18 1s4-8 16-7 14 4 13 5q-2 3 4 7c5 2 7 7 7 7l8-4 3-3 4-2 3-2z" transform="translate(317 146)scale(.58162)"/><path fill="#d5ccc0" d="M527 278s12 9 13 12c1 4-6 9-6 9v1l5-2 1-1 2-1 1-1 2-1 1-1 1-2h-1s-7-8-15-12z"/><path fill="#fdf2e8" d="M503 293s9-15 15-16l-5 2q-6 4-12 14"/><path fill="#494037" d="m546 293-1-2h-2v3zm-5 2-1 1-1 1-2-1v-3zm-2 4-2-1-2-2-1 2-1 1 1 2zm-7-2h2q1-2-1-2h-3zm-4-2h1l1 2zm2-3 2 1 1 1q-3 1-3-2m0-3q0 3 3 2l3-2-3-3-3-1zm7 1 2-3 4 2-1 2-3 1zm0-6s0 4-1 3l-4-3q0-3 2-3zm-11 4 1 2 3-1-2-2zm2-4 3-1 1-2-1-1-3-1-1 2zm-4-3 3 1-1-2zm-2 8q3 0 2-2l-4 1q0 2 2 1m2 1h2zm0-4q3-1 0-2l-5 1 3 2zm-3-4q2 1 2-1zm-3-4 2 3q1 3-2 2h-4q-2-1-1-3zm-5 9 2-3 2 1 2 2v1l-3 1zm-1-2q0-2-1-1l-4 2v3h3l2-3zm2 5-3-1-1 2 4 1zm-10 4 1-4h2l2 3-1 1zm0-4v1l-1 1z"/><path fill="none" stroke="#000" stroke-miterlimit="10" d="M546 291s-10-12-18-13q-12-2-16 2c-2 2-10 8-11 13h10s3-4 10-4q10 2 7 3l2 4 4 4"/><path fill="url(#sh-ac-ac-d)" d="M122 251s18-21 32-23q21-4 27 3c4 3 18 14 19 22l-18 1s-4-8-16-7-14 4-13 5q2 3-3 7c-5 2-7 7-7 7l-9-4-2-3-5-2-3-2z" transform="translate(317 146)scale(.58162)"/><path fill="#d5ccc0" d="M407 278s-13 9-14 12c0 4 7 9 7 9l-1 1-4-2-1-1-2-1-1-1-2-1-1-1-1-2h1s6-8 15-12z"/><path fill="#fdf2e8" d="M431 293s-9-15-16-16l6 2q6 4 12 14"/><path fill="#494037" d="M388 293q-1-2 1-2h2v3zm5 2 1 1 1 1 2-1-1-3zm2 4 2-1 2-2 1 2 1 1-1 2zm7-2h-2v-2h3zm4-2h-2v2zm-2-3q-2-1-2 1l-1 1q2 1 3-2m-1-3q1 3-2 2l-3-2 3-3 3-1zm-7 1-2-3-3 2q-1 2 1 2l3 1q2 0 1-2m0-6s0 4 2 3l3-3-1-3zm11 4v2l-3-1zm-1-4-4-1v-2l1-1 3-1zm4-3-3 1 1-2zm2 8q-2 0-2-2l4 1q0 2-2 1m-2 1h-2zm0-4q-4-1 0-2l5 1-3 2zm3-4q-2 1-2-1 3 0 2 1m3-4-2 3q0 3 2 2h4l1-3zm5 9-2-3-2 1-2 2v1l3 1zm0-2q0-2 2-1l3 2 1 3h-3q-2-1-2-3zm-2 5 3-1 2 2-4 1zm11 4-2-4h-1l-2 3 1 1zm0-4-1 1 2 1z"/><path fill="none" stroke="#000" stroke-miterlimit="10" d="M387 291s11-12 19-13q12-2 16 2c2 2 10 8 11 13h-11s-2-4-9-4q-10 2-7 3 1 2-3 4l-4 4"/><path fill="#fff" d="m410 292 2 66c1 6 4 41 54 62 0 0 39-17 49-40s8-66 8-66v-23z"/><path fill="#1b81b6" d="M523 312s-8-6-16-6-14 10-20 10-10-8-21-8c-10 0-11 8-18 8-6 0-14-10-21-10-6 0-15 6-15 6v21s9-6 16-6 14 10 21 10c6 0 7-8 18-8 10 0 13 8 20 8 6 0 12-10 20-10s16 5 16 5zm-101 74 6-1c7 0 14 10 21 10 6 0 8-7 18-7s13 7 20 7 12-10 20-10l5 1c6 1-35 35-45 35s-50-33-45-35m98-18-13-3c-8 0-13 9-20 9s-10-7-20-7-12 7-18 7-14-9-21-9l-14 5c-1 1-2-16-2-16s9-6 16-6 14 9 21 9c6 0 8-7 18-7s13 7 20 7 12-9 20-9 16 5 16 5-1 16-3 16"/><path fill="url(#sh-ac-ac-i)" d="m643-62-1 2zm-89-17 1 3zm51-51-50 54 9 16 39-42h1l1-1 38 41q6-8 9-17z" transform="translate(-136 449)"/><path d="m416 372 51-55 51 55v-1l-4 8-7 11-40-44-41 44h1l-5-7zh-1l6 13 5 7 41-43 40 43 8-12 3-7 1-1-52-56-52 56zm-5-81"/><path d="M470 290v2h53l-1 37-1 19v5l-1 5-2 9q-2 9-7 17l-12 14-16 12-8 4-8 4h-1 1l-8-4-9-4-15-12a73 73 0 0 1-20-31l-2-9v-10l-1-19-1-37h-1l1-1v1h37l-1-2h-38v1l1 57 1 3v7l2 10 8 18 12 15 16 11 8 5 9 4h2l9-4 8-5 16-11 12-15 8-18 2-10v-10l1-19v-39z"/><path fill="#979696" d="m517 366-1 3 1 2 1-4h1zm2-35v19l2 1v-3l1-16zm2-39-1 18 2 1 1-19z"/><path fill="#2a647e" d="m520 310-1 21 2 1v-3l1-18zm-1 40-2 16 2 1 1-9 1-5v-3zm-14 40a112 112 0 0 1-38 27v1l8-4 8-4 16-11z"/><path fill="url(#sh-ac-ac-j)" d="M652-79a58 58 0 0 1-10 19l1 1 4-6 6-12z" transform="translate(-136 449)"/><path d="m506 389 1 1zm10-20v2l1 1 1-1zm-49 49"/><path d="M522 320v12l-1 16v5l-1 5-1 9-2 5-6 12-5 7-8 7-15 12-8 4-8 4v1l19-10c35-22 35-46 36-78zm1-28h-2zl-1 11z"/><path fill="#fff" d="m417 367-2 1z"/><path fill="#00b5d2" d="m415 351-2 1v6l2 9v1l2-1z"/><path d="m413 352 2 16-2-10v-5z"/><path fill="#00b5d2" d="m414 311-2 1v21l2-1z"/><path d="M412 324v9-4zm7 45-1 1z"/><path fill="#00b5d2" d="m429 390-1 1 7 8 15 11 9 4 8 4h-1 1v-1a112 112 0 0 1-38-27"/><path fill="url(#sh-ac-ac-l)" d="m603-131-49 52 1 3-1-3-1 2 6 12 4 6 1-1-9-16 50-53z" transform="translate(-136 449)"/><path d="m428 389-1 1h2zm-10-19-1 1v1zm49-53-48 52-1 1zl1 2 1-1zm0 101"/><path d="M417 371q5 19 32 37l19 10v-1h-1 1l-8-4-9-4-15-12-7-8-5-6z"/><path fill="url(#sh-ac-ac-m)" d="m605-103-2 1 39 42 1-2z" transform="translate(-136 449)"/><path d="m467 347 38 43 1-1z"/><g transform="translate(317 146)scale(.58162)"><path fill="#fff" stroke="#000" stroke-miterlimit="10" d="m248 298-20-7a13 13 0 0 0-10 1q-5 3-6 1l3-4 8-3-6 1-6-1q-4 1-7 6h-5q-4-2-10-1l-20 7q-4 2 5 3l14-2q4-1 7 3 4 3 6 0 3-2 3 1l1 4c-2 1-7 4-6 5l2 1c0 7 7 5 7 5s8 2 8-5l2-1-6-5c-2-1 1-2 1-4q0-4 2-1 4 3 7 0 4-4 7-3l14 2q9-1 5-3z"/><circle cx="211" cy="289" r="1"/><path fill="#fed468" stroke="#000" stroke-miterlimit="10" d="M206 303v7q3 1 2-1l-1-5m4-1v7q-2 1-2-1l1-5"/><path fill="#b5b5b6" d="M189 293h5l7 3-2 1-6-3q-3 2-4-1m14 8c-2 0 3-5 2-3v5q0 4-1 0zm22-8q-2-2-5 1l-6 2q-2 2 1 2l6-3c3-2 4 0 4-2m-12 8c2 0-2-5-2-3l1 5q-1 4 1 0zm-6 10h6q3 0 0 1l-4 2q-4-1-3-3m-35-14s-2 3 2 2l9-1q6-2 9 0 0 3-1 1h-4l-13 2c-3-1-8-1-6-3zm73 0s2 3-2 2l-9-1q-7-2-9 0-1 3 1 1h4l13 2q6-1 6-3z"/><path fill="#fff" stroke="#000" stroke-miterlimit="10" d="m348 298-20-7a13 13 0 0 0-10 1q-4 3-6 1l3-4 8-3-6 1-6-1q-4 1-7 6h-5q-4-2-10-1l-20 7q-4 2 5 3l14-2q4-1 7 3 4 3 6 0 3-2 3 1l1 4c-2 1-7 4-6 5l2 1c0 7 7 5 7 5s8 2 8-5l2-1-6-5c-2-1 1-2 1-4q0-4 2-1 4 3 7 0 4-4 7-3l14 2q9-1 5-3z"/><circle cx="311" cy="289" r="1"/><path fill="#fed468" stroke="#000" stroke-miterlimit="10" d="M306 303v7q3 1 2-1l-1-5m4-1v7q-2 1-2-1l1-5"/><path fill="#b5b5b6" d="M289 293h5l7 3-2 1-6-3q-3 2-4-1m14 8c-2 0 3-5 2-3v5q0 4-1 0zm22-8q-2-2-5 1l-6 2q-2 2 1 2l6-3c3-2 4 0 4-2m-12 8c2 0-2-5-2-3l1 5q-1 4 1 0zm-6 10h6q3 0 0 1l-4 2q-4-1-3-3m-35-14s-2 3 2 2l9-1q6-2 9 0 0 3-2 1h-3l-13 2c-3-1-8-1-6-3zm73 0s2 3-2 2l-9-1q-7-2-9 0-1 3 1 1h4l13 2q6-1 6-3z"/><path fill="#fff" stroke="#000" stroke-miterlimit="10" stroke-width="2" d="m311 433-27-9c-3-1-10 0-12 2-3 2-9 2-8 0q3-2 4-5c1-3 9-4 9-4l-8 1h-6c-4 0-8 5-10 7a5 5 0 0 1-7 1c-2-3-9-4-12-2l-28 9q-4 2 7 3c8 1 17 0 19-2 3-2 7 2 9 4s7 2 9 0q3-3 3 2 2 4 1 5c-3 1-8 5-7 6l2 1c0 9 10 8 10 8s10 1 10-8l2-1c1-1-5-5-7-6-3-1 0-2 0-5q1-5 4-2 4 3 8 0c3-2 7-6 9-4a48 48 0 0 0 20 2q11-1 6-3z"/><circle cx="262" cy="421" r="1"/><path fill="#fed468" stroke="#000" stroke-miterlimit="10" d="M256 440v9q3 0 2-1l-1-7m5-1v6q2 2 0 3l-2-1 1-7"/><path fill="#b5b5b6" d="M234 427c0-2 5-1 6 0l8 3q3 1-1 2l-8-4q-5 2-5-1m18 10c-3 0 3-7 2-3v6q0 4-1-1zm28-11q-1-1-6 2l-8 3q-3 2 1 2 5-1 8-4c4-2 6 0 5-3m-15 11c2 0-3-7-3-3l1 6q-1 4 1-1zm-9 13c2-1 4 2 5 0h4q3 2 0 2c-3 0-2 2-5 1q-6 1-4-3m-46-18s-2 4 3 2l12-1q9-3 12 0 0 3-2 1-3-1-5 1c-2 2-14 2-17 2-4-1-10-2-7-4zm97 0s2 4-3 2l-12-1q-9-3-12 0 0 3 2 1 3-1 5 1c2 2 14 2 17 2 4-1 10-2 7-4z"/><path fill="url(#sh-ac-ac-n)" d="m204 137 13 30h84l12-30-54-126Z"/><path fill="#83c453" d="m204 137 13 30h3l-13-30 52-122 52 122-13 30h3l12-30-54-126Z"/></g><path d="m467 152 32 73-8 18h-48l-8-18zm0-3-1 2-32 74v1l8 17v1h50v-1l8-17v-1l-32-74z"/><g transform="translate(317 146)scale(.58162)"><path fill="#fff" d="M446 111c21 9 19 24 10 27h-19c16-4 9-27 9-27m-81 75-16-29c-15-21-16-28-16-28l4 2-1-5q-1-6 9-15c3-2 9-1 9-1l-1 7c0 3 0 8 8 23l3 6-6 4a10 10 0 0 0 9 2q9 20 10 33c0 11-8 31-36 35q17-3 18-21c1-11-10-17-22-15 0 0 5-6 14-6s14 8 14 8m-203 19 13 2a52 52 0 0 0 30-12l22 29c-8 4-11 17-11 17a19 19 0 0 1-3-19v1c-3 5-13 7-13 7l4-18q2 1-12 9c-14 8-31 3-43-11-9-10-8-25-6-36v3q1 23 19 28m-8-104q10-1 13 13c-7-1-18 9-18 20q0 8 5 13l6 6a22 22 0 0 1-17-11q1 1-2 13c-11 21-27 19-27 19a52 52 0 0 0 12-19l11-22q2-7-3-4s-21 16-31 19q-4 2-12 0a26 26 0 0 1-14-10c22 0 57-23 58-24 0 0-13 5-25 1-12-3-27 7-27 7s1-7 7-11c5-3 19-3 19-3s-3-1-6-6c-3-4 2-12 2-12a33 33 0 0 0 11 12c4 3 18 0 24-1z"/><path fill="#dedede" d="m210 202-3 7 5-5zm8 10-5 10 7-8zm-71-89s-5 5-4 13 3 2 3 0v-4zm6-9s-10 9-16 10c-5 0 1 2 3 3q3 0 3-2c0-1 13-12 10-11m-17-7s5-3 14-2 17 3 9 3-25 7-25 7 15-6 7-7c-8 0-5-1-5-1"/><path fill="#2b5f31" d="M170 109s-1 18-11 33a73 73 0 0 0-14 35c0 7 17 24 17 24s4-18 10-19c7-1-1-5-8 0q-11 9-8-1c2-6 12-19 18-26 5-7 16-22 10-20q-6 2-4-1c0-4 2-17-4-23q-7-9-6-2"/><path fill="#294527" d="m158 174-7-5c-3-2-2-6 3-3l6 5m-13-2 9 8s-4 9-3 12 7-7 11-7-2 5-2 9v13q-1 1-11-5c-5-5-6-21-4-30m23-50s5 4 5 10c1 7-4-4-5 2-2 5 6 4 2 7-3 2-7-5-7-5s5-9 5-14"/><path fill="#172716" d="M170 120s5 5 6 9c1 3 1 8-1 4l-7-9zm-19 79s-2-8-1-16-2-10-2-3l-1 15z"/><path fill="#294527" d="M78 114s-5 10-5 15c2 11 12 17 12 17s-26-6-26-18c-1-12 19-14 19-14"/><path fill="#fff" stroke="#000" stroke-miterlimit="10" d="m301 96 5-1q3 2 6 1l3-12-8-1-4-1"/><path fill="#2b5f31" d="M371 114s6 26-10 34c0 0-4 4 3 4s13-10 13-10l2 9 4-3-4-27z"/><path fill="#294527" d="M456 138s-23 5-54-14c-18-12-16-13-16-13s-14-9-17-4c-3 6 9 13 11 26 3 14 5 0 5 0l-2-5s26 21 36 23c9 2 36-15 37-13"/><path fill="#294527" d="M374 106s9 8 21 12h21c7 1 16-1 19 2 1 0-9-13-25-13-15 1-36-1-36-1"/><path fill="#2b5f31" d="M423 119s-2-10-19-11c-16 0-28-1-6-3 18-6 10-14 10-14s12 1 11 8c-1 8-3 8-3 8s16 2 22 15c0 0-4-5-15-3"/><path fill="#172716" d="M412 110s6 1 5 4-3 2-4 1q-3-2-1-5"/><path fill="#294527" d="M346 110s13-4 20 3c8 8-2-9 13-6s-16-6-27-3c-11 4-15 14-15 14s6-7 9-8"/><path fill="#2b5f31" d="m455 138-10 3c-4 2-19 6-25 3-7-3-5-4-3-5q1-4-3-2c-2 2-7 2-4 0q3-5-1-3c-2 1-5-5-7-4-3 1-2 4-6 4-4-1-19-20-16 1 2 20-2 13 1 18q3 11 17 14-1 1-6-12l-4-14-4-9-2-5 11 9s13 10 19 12l15 4z"/><path fill="#2b5f31" d="m400 125-8 3c-1 1 2 6 5 4l5-6h2l-6 6q-1 2 2 3c2 2 17 14 31 11 0 0-2 4 1 4l-5 2s-9 1-19-6l-26-19 12-8z"/><path fill="#294527" d="M432 150s-19-2-34-13l-19-15s8 17 5 18q-7 3-2 4 4 2 0 3c-1 0-5 1-2 1s-3 4 0 12c4 7 16 12 23 13l-5-6s-6 0-11-6c-3-3 6 5 4-4q-2-8-6-8h5l-1-5s-5 1-3-1l2-1-5-13 14 10s17 13 29 13z"/><path fill="#172716" d="m420 149 10-6q2-1-2-3-5-2-7-1l-5 6z"/><path fill="#294527" d="M414 96s2 1 2 5-8 5-8 5z"/><path fill="url(#sh-ac-ac-z)" d="m235 90-1-9v-5l-1-19h-3l1 19v15"/><path fill="url(#sh-ac-ac-y)" d="m284 84-1-11V55h-3v19l1 10"/><path fill="url(#sh-ac-ac-x)" d="m299 109 2-11 1-4 3-14h-3l-3 13-1 6-2 10"/><path fill="url(#sh-ac-ac-w)" d="M259 84V74l-1-5V49h3v20l1 5v10"/><path fill="#fff" d="m270 85 25-1s-2 4-6 4-2-1-4 1q-4 2-8 0l-3-1zm-47-9 23-1s-2 4-5 4c-4 0-2-1-4 1q-3 2-7 0c-2-1 0 1-3 1s-6-5-4-5"/><path fill="#bbbaba" d="M231 80s6 1 5-1q-2-2 1-2 2 1 0 3-4 2-6 0m-1-4s-6 1-6 3l-2-1z"/><path fill="url(#sh-ac-ac-v)" d="m304 130 7-13q1-5-2-6l-1-7-21-2-18 4 16 32 17 1z"/><path fill="#804e2d" d="M296 103s-11 1-15 14c-1 4 3 12 3 12s-6-5-6-11-1-14-7-13c-7 1 0 0 0 0s10-4 21-3"/><path fill="#523822" d="m291 111 2-5h-2l-3 5zm5 0 2-4h-2l-3 4zm4 1 2-5h-2l-2 4zm5 0 2-4h-2l-2 4zm-16 17 2-4h-2l-3 4zm4 0 2-4h-2l-2 4zm-6-8 2-6h-2l-3 6zm6 0 2-6h-2l-2 6zm5 1 2-6h-2l-2 6zm6 0 2-5h-2l-2 5z"/><path fill="url(#sh-ac-ac-u)" d="M242 139c-11-5-9-12-18-18l-24-21s18 12 29 15q1 2 10 2v-1h4v1h11q7 2 11-2l4-9 18-2s-7 10-7 13c0 4 2 14 14 22z"/><path fill="#806245" d="M240 138h16l-14-3c-6-1-11-6-11-6"/><path fill="#804e2d" d="m239 130-7-7 3 1c2 1 9 1 12 3l12 8s2 2 9-2c6-3-1 5-1 5s-21 3-28-8"/><g fill="none" stroke-miterlimit="10" stroke-width="0"><path d="m228 120 8 11c4 5 32 8 32 8"/><path d="M268 138s-20-2-33-7m32 5s-20-2-33-7"/><path d="M266 135s-21-2-33-7"/></g><path fill="#804e2d" d="M256 129h12q0 3-5 5c-2 0-9-5-7-5"/><g fill="none" stroke-miterlimit="10" stroke-width="0"><path d="M265 133s-21-2-33-7"/><path d="M264 131s-21-1-33-6m32 4s-21-1-33-6"/><path d="M262 127s-21 0-33-5m32 3s-21 0-33-5"/></g><path fill="#379cd1" d="M321 153s-9 3-11-1c-3-4 0 9 9 7s10-9 10-9z"/><path fill="#dce8f7" d="M202 139s-12-2-13 4 1 14 10 14 21-12 21-15c0 0 14 6 19 3 5-2 8-10 8-10s7 9 17 8c10-2 11-8 11-8s10 11 16 11c6-1 12-9 12-9s4 18 12 18 19-10 12-16c-9-8-12-1-12-1s-2 4-4 1c-2-4-10-12-13-12q-4-1-1 3c0 3 3 9-4 10-5 0-18-14-24-14-5 0-3 0-2 6 2 6 0 5-4 5s-12-7-14-7l-12-2s5 4 5 7q1 4-5 5-9-1-14-4-5-4-11-3-4 1-1 1c1 1 7 5 2 11s-8 4-8 4 2-8-3-10"/><path fill="#1b81b6" d="M317 141s5-4 10 0c0 0-2-6-6-6s-5 6-5 6"/><path fill="#379cd1" d="M201 147s2 4-1 4q-6 3-6-4c2-6 7-4 8-3l2 7s-2-6-3-4"/><path fill="#1b81b6" d="M199 147s2-1 2 1 0 3-3 3q-5-1-3-4l4 1"/><path fill="#379cd1" d="M204 161c-6-1-15-6-16-11v-1a14 14 0 0 0 13 5q9-1 14-8 3-3 2-7v-1h1l3 2a17 17 0 0 0 14 3q7-1 9-6l1-3-1-3h1l7 5q4 4 9 5h1l11-5v-5h1l3 2c2 3 9 10 14 10q5 0 8-3l2-5v-2h1q3 1 3 5c1 4 4 16 10 20l-1 1c-1-1-10-3-11-13v-1l-1-1q-4 5-12 6h-1c-5 0-11-7-13-9l-6 6h-16l-5-6-4 6-9 1-3 2-11-4-3 6-10 8z"/><path fill="#1b81b6" d="M188 150s4 6 13 5c9 0 19-10 17-16l3 2q6 4 14 3 12-3 11-10c-3-5 3 0 5 3q5 4 11 5c4-1 13-4 12-7q-2-6 2-1c3 3 9 10 15 10q10-1 11-9 0-3 2 3c1 4 4 17 10 21 0 0-10-3-11-13v-2s-8 6-14 6c-5 0-13-9-13-9l-6 6-16-1-5-4-5 5-8 2-3 1-11-4-2 6c-1 2-11 9-16 9-5-1-15-7-16-11"/><path fill="#172716" d="M293 191s-2 17 1 24c4 7 18 10 13 4s-14-28-14-28"/><path fill="#405d66" d="m291 246 4 4h-11z"/><path fill="#9bc4c4" d="m290 245 2 2-10 3z"/><path fill="#fff" d="M275 244s7 4 7 6c0 3 0 0 0 0l8-5-6-4z"/><path fill="#9bc4c4" d="m276 244 11-2-5-3-9 4z"/><path fill="#689f9e" d="M274 244s6-3 11-3l-9-5-5 7z"/><path fill="#2b5f31" d="M309 189c6 6 13 17 35 17s9 2 6 6c-4 4-18 9-26 4l-9-4 6 9v11l-11-12-14-38 6-1zm-33 0s1 8 6 17 7 17 22 20c14 3-11-2-11-18v-21zm-14-21s-9 12-6 25c4 13 1 1 7-5l10-11z"/><path fill="#294527" d="M308 198s6 2 10 6a22 22 0 0 0 15 7c4-1 16 0 12 2-5 3-8 7-21 2-14-5-16-17-16-17"/><path fill="#294527" d="M269 163s-9 10-9 13q1 4 6 5c3 0 7-4 7-4s1 15 7 17 12 3 12 0v-9l5 17c2 6 24 36 21 28l-13-29c-4-7-10-23-4-18l8 8-9-17s-15-14-31-11"/><path fill="#3e7438" d="M314 210s-21-35-13-19q13 22 14 21"/><path fill="#172716" d="m315 209-14-26c-1-2-4-1-1 4l13 22z"/><path fill="#3e7438" d="m292 171-1 7q2 2 3-1l2-5zm-24-4 2-4h-3s-8 9-8 15c-1 6 5 7 5 7l2-2s-4-1-5-5l2-6z"/><path fill="#5fa654" d="m294 168 7-7c2-3 1 5 2 7 0 2 5 6 7 0q4-8 0-11c-3-1-9-6-11-5-2 0-4 4-4 4z"/><path fill="#3b7f3d" d="M293 170s5-6 6-10q3-6 4-4l1 13c0 2 5 0 6-3q1-7 2-5 2 3-1 9-5 5-9 5z"/><path fill="#32517f" d="M275 149s5-2 8 0l11 4s2 9 1 14q-2 6-5 2-2-3-10-5l-3-1s5-2 2-8c-3-7-4-6-4-6"/><path fill="#fff" d="M257 148s17-3 19 2c3 5 7 13-1 13h-13z"/><path fill="#3b7f3d" d="m257 149 5 12q-2 4-8 3l-10 2-4-14s1-3 4-3z"/><path fill="#5fa654" d="M246 165s2-2 0-7q-6-8-2-8 6 1 7 7c2 2 7 6 6 0q-2-8 1-8-2-2-5-2h-9c-3 0-7 4-7 4s7 9 7 12z"/><path fill="#32517f" d="m221 157 7 10q0 3 6 0c4-3 4-1 7-3q3-4-1-7c-1-2-14-5-17-4z"/><path fill="#6488bd" d="M233 156s-1 6 4 5c5 0 3-5 2-6l-7-5q-6 0-5 2z"/><path fill="#161341" d="M227 151s9 4 10 6q0 5-3 2l-6-5q-4-1-1-3"/><path fill="#491918" d="M295 250s-8-10-21-14c-12-4 19-11 24-10 5 2 13 5-3 24"/><path fill="#fff" d="M295 250h6s11-10 12-18l-10 4z"/><path fill="#9bc4c4" d="m303 237 10-5s-10 12-14 13c0 0 1 1 3-8"/><path fill="#689f9e" d="M273 193h-62l21 31s-11 15-4 26l8 13 28-10s8-24 29-26l-3-9s-13-9-15-25z"/><path fill="#405d66" d="M251 199s-7-1-15 2-6-1-4-2c1-2-6 0-5 0 2 1-2 1 1 4q3 3-2 3-4 1-5-4-2-7 5-6h28z"/><path fill="#fff" d="M256 236s2-2 3 0c1 1 5 7 2 5z"/><path fill="#405d66" d="M243 242q-1 2 6 2c7 0 4-2 2-6s-19-30-21-30c-3 0 13 23 13 34m21-46s4 8 4 16q1 10 2-2-2-11 1-11 2 1 1 12 1 10-2 11l5-3 4-2 7-2s-9-10-10-19z"/><path fill="#689f9e" d="m276 197-1 14v8l4-2c2 0 0-12 0-12s-3-4-3-8"/><path fill="#405d66" d="m256 196-23 9c-4 2 4-1 6 2l10 20c1 1 6 0 4-4-3-3-9-18-10-18-2-1 6-7 24-8 19-2-11-1-11-1"/><path fill="#9bc4c4" d="M236 261s-3-19 4-16c6 3 6-14-17-38-12-12-6-11-1-11h50s-8-8-14-1l-2-7h-3c-18-1-39 1-47 2s-1 5 1 7l22 29s-8 9-6 16c3 7 13 19 13 19"/><path fill="#689f9e" d="M262 190c-1 0 7-8 10-8 4 0 1 14 1 14s-8-3-13-3"/><path fill="#405d66" d="M261 191s13-13 11-5c-1 9 1 10-3 10h7l-2-19s-9 7-13 14"/><path fill="#689f9e" d="M219 186s3-19 31-22q18 0 16 1c-2 1-10 7-10 21z"/><path fill="#405d66" d="M233 170s-13 6-14 15q0 3 7 1c4 1-2-2-2-3-1 0-3-3 7-9 8-5 11-9 27-8l-3 14c1 1 8-13 9-13l3-4s-32 3-34 6"/><path fill="#fff" d="M228 186s3-8 6-11q5-3 2 2c-2 1 0 4 2 0q3-5 8-7 4 0-2 4c-4 2 6 1 10 6 3 5 0 6 0 6zm-7-1s0-4 5-9c4-5 11-10 11-10s-8 0-25 15c-4 3 9 4 9 4"/><path fill="url(#sh-ac-ac-s)" d="m221 181 35 5v-5z"/><path fill="#405d66" d="m236 166-11 11c-3 3 9-9 26-13m-35 20 40 2v2l-56 1m23 16-8-8q-1-1 5-2h56v2h-50c-2 0 3 6 4 6 1 1-7 3-7 2"/><path fill="#405d66" d="m235 198-4 3 6-1 9-3m16-8s10-8 12-8l1-6s-6 2-13 14m-13-25s8 2 9 4-1 0-9 3c-8 4-4 3-2 3l10 5v-2l-6-4 10-2 1-3-3-2q-1-2 3-1l3 1 2-2-4-1-6 1zm26 19s-3 6-10 7h10m4 30 2-1 7 8m3 0-7-8 5-2 7 6q6 3 5 4zm-10-10v-9l-2-4-1 14m-3 1v-19h-1v20m-47-10s2-2 5-2q4 3-2 4-4-1-3-2m3 5s2-2 5-2q4 3-2 3-4-1-3-2m3 4 5-1q2 2-2 3-4-1-3-2m4 5h3q3 1-2 2-2-1-1-2m3 5h3q2 1-2 2-2-1-1-2m11 2 3-1q3 2-2 3zm3 5 3-1q2 2-2 2-2 0-1-1m-21-6 9 14q0 2 5 1 6-1 2 2-5 2-10 0l-7-16q0-2 1-1"/><path d="M257 180h-31l-6 1h36"/><path fill="#689f9e" d="m235 192 21-2 1 3z"/><path fill="#fff" d="M256 190h-45c-3 0-6 5-6 5h-13l11-9 53 1z"/><path fill="#fff" d="m205 195 24 31s-6 10-6 15l2 6c1 0 3-12 7-17 3-6 3-8-5-15l-21-22m51 11q3-1 4 2t-2 4l-8 2-2-2c-1-1-4-4 0-5zm4 12q5 1 5 4 0 4 2 4l-9 7q-2 0-3-5c-1-2-5-6-2-8zm14 19-8-8-7 4q-2 1 2 4l8 6zm-6-12c-1 1-3 6 1 3s11-7 18-9l-2-2s-9 2-17 8m-15 20q0 6 5 6l1-2-2-3c-1-3-6-5-4-1"/><path fill="#689f9e" d="m295 215 9 9q2 2-4 1c-4-1 1 3 1 3s4 2 3 4l-2 6c-1 1 4 2 10-5 7-7-9-16-17-18"/><path fill="#331312" d="M276 236s32-14 25 7c0 0 8-14-1-16a26 26 0 0 0-25 8z"/><path fill="#6488bd" d="m229 169-4-9q-3-4-2-5l6 2q2 0-4-6l-8 3-3 2 5 3 8 9z"/><path fill="#161341" d="M231 168q0-3-3-7-4-4-1-3 3 5 14 6l-6 2z"/><path fill="#1f411d" d="M243 164s3 1 3-1l-7-11c-2-1 2-5 4-5l-6 2q-3 0-1 3c3 3 8 8 7 12m3-17s4 3 6 8c2 6 4 2 1-2q-3-7-4-6zm9 17-9-9 2 5 1 4zm4-6c0-1 0-4 1-1q3 4 2 6l-5 1q1 1 2-6"/><path fill="#dedede" d="M260 156s3 4 4 3q4-3 8-2c2 1 5 5 5 3l-3-7q-1-5 2-4c1 2 6 12 2 14h-15z"/><path fill="#bbbaba" d="m265 163 1-3 3 3zm12-12s2 9 0 12c0 0 4-1 3-5z"/><path fill="#6488bd" d="M278 153s3-3 3 0c0 2 2 12 2 6s-2-7 2-6c4 0 1-4-1-4l-5-1z"/><path fill="#6488bd" d="m292 152-1 8q-1 2-3-3c-1-2-3-5-2-1q2 7 5 8l2-11z"/><path fill="#161341" d="m280 157 3 8-5-2s2-2 2-6m5 9-2-10q0-3 2 2l5 11c0 1-3-3-5-3m3-15v4c1 1 3 7 3 4l-1-7zm6 2-1 7q2 4 1 8c0 3 2-9 0-15"/><path fill="#1f411d" d="M296 172s3-2 4-6q1-5 1 4c0 5 5 5 6 4 0 0-6 3-8 0s-3-2-3-2m4-20s6 4 5 9c0 4 1 10 2 4v-9zm11 6s3 9-3 15c0 0 6-5 5-8z"/><path fill="#172716" d="M283 165q-6 2-8 6-4 1-6-1c-2-2 1-7 1-7s9 0 13 2"/><path fill="#172716" d="m290 169-1 12q-3 3-7-1c-3-2-2-8 0-10v-5q1-1 8 4m3 1v9c-1 3 2 10 4 12q3 2 2-3c-1-3-2-18 2-10 4 9 16 28 33 27 16 0 0 0 0 0s-12-1-25-17c-4-5-7-13-7-13m-37-3 1 3q2 4 0 2-4-4-3-5l1-1zm-8 21s4-2 6-5q1-2 0 0l-5 8zm21-9 7 5-8-2z"/><g fill="#b2d9bd"><ellipse cx="293" cy="179" rx="2" ry="1"/><ellipse cx="292" cy="176" rx="2" ry="1"/><ellipse cx="304" cy="190" rx="2" ry="1"/><ellipse cx="307" cy="195" rx="2" ry="1"/><ellipse cx="309" cy="200" rx="2" ry="1"/><circle cx="312" cy="205" r="2"/></g><path fill="#3e7438" d="m270 178 9-11c2 0 2-1-1 10-3 10 0 14 0 14s2 8 7 9q7 0 6 4 1 5-5 4c-4-1-1 1 1 4s15 15 9 11a49 49 0 0 1-19-24c-4-11-2-24-2-24zm23 7 6 13c2 5 6 15 8 15h8q0 2-3 3l-4 1q0 2 5 2t5 2s-6 1-5 2l8 8v5s-27-27-28-51m21 25 5 1c2 2 6 6 11 4 4-2 7-9 7-9h4s-1 7-4 9c-3 1 5 3 10-9 0 0 8-2 12-6 0 0 2 13-13 19-17 7-32-9-32-9l10 7m-67-36 3 8-3 4s-2-7 0-12"/><ellipse cx="278" cy="172" fill="#b2d9bd" rx="2" ry="1"/><path fill="#405d66" d="M272 243s3-6 8-5c6 1-5-2-5-2l-6 6z"/><path fill="#294527" d="m296 213-2-11q-1-6 2 1l6 12c0 1-5 1-6-2"/><path fill="#2b5f31" d="m294 201 1 7c1 3 5 5 4 2z"/><ellipse cx="295" cy="204" fill="#3e7438" rx="1" ry="4" transform="rotate(-9 295 204)"/><path fill="#095378" d="M188 151s6 7 16 7c10 1 16-8 18-12 0 0-3 14-17 15-13 0-17-10-17-10"/><path fill="#2b5f31" d="m299 214 3 2z"/><path fill="#095378" d="m222 146-2-3s8 6 14 6c5 0-6 2-12-3m25-1-4 2c-2-1 4-4 4-6q-2-3 4 1l10 5-4 1-8-6zm24 1 4-7q0-2 3 2 2 4 14 9s-10-1-15-8l-4 2zm33-3 3 7c1 2-3 0-2 3 0 0-4-4-1-11m7 8s3 4 7 5c5 0 6 0 11-5q4-5 1-4l-3 3c-1 1-9 8-16 1"/><circle cx="199" cy="148" r="1" fill="#161341"/><path fill="#161341" d="M197 139s7 0 8 11c0 0 2-7 0-9-3-4-8-2-8-2"/><path fill="#379cd1" d="m314 144 4-3c2-1 1-7-2-4l-4 3zm4 0-2 3c1 0 6 1 5-1q-1-2-3-2"/><path fill="#1b81b6" d="M319 144h-1l3 2q1-2-2-2"/><path fill="#161341" d="M320 144h-1l3 1z"/><path fill="#fff" d="M212 157s-9 7-6 13c3 7 11 7 11 7l10-8s-3-10-15-12"/><path fill="#806245" d="m271 114 3-7h-3l-3 7zm7 1 3-7h-3l-3 6z"/><path fill="#523822" d="M297 138s-8-2-10-5l7 7z"/><path fill="#dedede" d="m228 76-5 2c0 1 6 3 4 1-1-3 0 0 0 0l2 1s-2 2-4 1l-5-5zm9 0s5 3 6 2q1-1 0 0h-7c-3-2 0-2 1-2"/><path fill="#dedede" d="M227 79h3q4 2 2 2z"/><path fill="#bbbaba" d="M244 75s0 3-3 3c-4 0 1 2 3-1s2-1 0-2"/><path fill="#fff" d="m250 69 25-1s-1 4-6 4c-4 0-2-1-4 1q-4 3-8 0c-4-3 0 1-3 1s-6-5-4-5"/><path fill="#bbbaba" d="M258 73s7 1 6-1l1-2q2 1 0 3-3 2-7 0m-1-4s-6 1-6 3l-3-1z"/><path fill="#dedede" d="m255 69-5 2c0 1 6 4 5 1-2-3 0 0 0 0l1 1s-1 3-4 1q-6-3-5-5zm10-1s6 4 7 3q2-1 0 0-3 2-7 0c-4-3-1-2 0-3"/><path fill="#dedede" d="m254 72 4 1 2 1z"/><path fill="#bbbaba" d="M273 68s1 3-3 3 1 2 4-1q2-3-1-2"/><path fill="#fff" d="m251 85 23-2s-1 5-5 4l-4 1q-4 3-7 1c-2-2 0 1-3 0-3 0-6-4-4-4"/><path fill="#bbbaba" d="M258 88h6q-2-3 1-2 2 0 0 2-3 3-7 0m-1-4s-5 1-5 4l-3-2z"/><path fill="#dedede" d="M256 84s-5 1-5 3c0 1 5 3 4 0q-1-1 0 0l1 1s-1 3-4 1q-6-3-4-4zm9 0 6 3q2-1 0 0-3 2-7-1c-4-3 0-2 1-2"/><path fill="#dedede" d="m255 87 3 1q4 2 2 2z"/><path fill="#bbbaba" d="M272 84s1 2-3 3c-4 0 2 1 4-1q2-3-1-2"/><path fill="#fff" d="m270 69 23-1s-2 4-6 4-1-1-3 1q-4 2-8 0h-3c-2 0-5-4-3-4"/><path fill="#bbbaba" d="M277 73s7 1 6-1v-2q3 1 1 3-3 2-7 0"/><path fill="#dedede" d="M284 69s5 3 6 2q2-1 0 0h-7c-3-2 0-2 1-2m-10 3h3l2 2z"/><path fill="#bbbaba" d="M291 68s0 3-3 3c-4 0 1 2 3-1s2-2 0-2m-13 21s6 1 6-1v-2q3 1 1 3-4 2-7 0"/><path fill="#dedede" d="M285 85s5 3 7 2q2-1 0 0-2 2-8-1c-3-1 0-1 1-1m-11 3 3 1 3 1z"/><path fill="#bbbaba" d="M293 84s0 3-4 3c-3 0 2 2 4-1q4-3 0-2"/><path fill="#fff" d="m222 91 28-2s-2 5-7 5-2-1-4 1q-5 3-9 1c-2-2 0 1-4 0-3 0-7-5-4-5"/><path fill="#bbbaba" d="M231 95s7 2 7 0v-3q3 1 1 3-6 3-8 0m-1-4s-7 1-7 4c0 0-4-1-3-2 0-2 10-2 10-2"/><path fill="#dedede" d="m227 91-5 2c0 2 7 4 5 1l2 1s-2 3-6 2q-6-5-5-6zm12-1s5 4 7 3q1-1 0 0-2 3-8 0c-4-3-1-2 1-3"/><path fill="#dedede" d="m226 94 4 1 3 2q-5-1-7-3"/><path fill="#bbbaba" d="M247 90s1 3-4 3c-4 0 2 2 5-1q3-3-1-2"/><path fill="url(#sh-ac-ac-r)" d="M235 97v10l1 10h-3l-1-20"/><path fill="url(#sh-ac-ac-q)" d="M281 90v13h3V89"/><path fill="url(#sh-ac-ac-p)" d="m259 90 1 28 2-1 1-1-1-27"/><path fill="none" stroke="#48484a" stroke-miterlimit="10" d="M239 118h4"/><path fill="none" d="M230 51v2m-2-1h3"/><path fill="#dedede" d="M212 175v-6c-1-4 7 0 12 0s-7 8-7 8z"/><path fill="#bbbaba" d="M215 177v-5q0-2 3 0c3 2 9-1 8-5l1 2z"/><path fill="#dedede" d="M206 165s5-4 9-1 11 2 8-2q-6-6-11-5-2 0 0 0c2 0-4 3-6 8"/><path fill="#bbbaba" d="M212 158h4l2 4c-4-3-10-1-9-2z"/><path fill="#dedede" d="m258 150 4-1 6 3c1 1 6 5 5 3v-7s-18-3-15 2"/><path fill="#bbbaba" d="m264 148 5 2 2 1q0-3-2-4z"/><path fill="#dedede" d="m259 151 3 2v4"/><path fill="#3e7438" d="M369 141c-2 3-7 10-4 8 14-10 9-26 8-32-2-5-12-11-18-11q-7 0-10 5l7-2c5 1 17 5 19 16 3 10-2 16-2 16m2-37s7 4 13 5l12 1-9 6 7 1 8-7s15-1 23 4l8 5 5 1s-8-9-20-10c-13-2-14-1-14-1s13-6 9-17l-3-1s5 12-9 15c-14 4-15 0-15 0zm6 40s2-5 2 2q1 11 9 18 9 4 10 3l4 4s-23-2-25-27m1-24 2 14c0 3 6 5 4 0l-3-9s14 12 26 18c13 7 14 6 18 6s20-8 20-8h-4s-12 7-16 7q-6 1-25-11c-14-8-11-9-11-9l8-4-4-3-6 5s-9-8-9-6"/><path fill="#172716" d="M381 153q-2-2 2-2 5 0 5 4 3 4 0 6-3 0-7-9"/><path fill="#2b5f31" d="M397 106s12 1 14-8v-6s8 1 7 8q-4 9-6 8l10 1-5-2 2-8c1-8-5-8-10-8q-2 0 0 2c1 1 5 7-12 13"/><path fill="#172716" d="m405 119-18-4q-5-1 9 8 16 9 18 8l-19-12zm-42 27-1 4c2 0 9-1 11-3 0 0-5 6-11 5l-4-2z"/><path fill="#294527" d="M369 145s2 2 5 0c3-3 1-10 1-10z"/><g fill="#b2d9bd"><circle cx="397" cy="108" r="1"/><circle cx="402" cy="108" r="1"/><circle cx="406" cy="107" r="1"/><circle cx="377" cy="130" r="1"/><circle cx="377" cy="127" r="1"/><circle cx="379" cy="123" r="1"/><circle cx="376" cy="120" r="1"/><circle cx="373" cy="118" r="1"/><circle cx="386" cy="115" r="1"/><circle cx="383" cy="113" r="1"/><circle cx="380" cy="110" r="1"/><circle cx="371" cy="116" r="1"/><circle cx="377" cy="108" r="1"/><circle cx="403" cy="105" r="1"/><circle cx="377" cy="133" r="1"/></g><path fill="#3e7438" d="M79 141s-16-6-17-13 14-11 14-11l2-3s-19 2-19 14 27 19 27 19z"/><path fill="#2b5f31" d="m75 119-5 3h4v1l-10 2c0 2-2 6 12 13 14 8 0 0 0 0l1 2s-15-6-15-12 8-9 13-11 0 2 0 2"/><path fill="#b2d9bd" d="m61 131 3 5 6 3-4-4z"/><path fill="#172716" d="M69 124s-3 5-1 7q3 4-1 1-4-2-3-8 4-3 5-1z"/><path fill="#3e7438" d="M181 126s-2-10-9-15c0 0-1 15-8 24l-8 13 4 5-6-2q-5 12-6 20-1 16 1 25c2 7 0 0 0 0s-8-11-6-24c2-12 9-21 9-21l8 2-6-6s16-22 13-35c-4-14-13-11-13-11s17 0 25 13z"/><path fill="#3e7438" d="m149 161 5 3c2 1 4 5-2 2s-3-5-3-5m11 43c0-17 11-23 11-23s-9 2-15 12c-7 9-5-4-4-12s15-17 15-17-11 14-11 19l5-2s8-4 14-3 5 3 5 3-7 0-10 4a28 28 0 0 0-8 19z"/><path fill="#172716" d="m158 204 2-11c1-3-2-7-8 7"/><path fill="#294527" d="M176 138q-1 3 2 4c3 1-10 14-17 26l4-3 18-23s8-13-7-3z"/><path fill="#3e7438" d="m180 134-4 4c0 2 10-1 10-4l-1-4q-1 3-5 4"/><path fill="#294527" d="M168 137c-1-1-5 0-14 19l-1-2s6-12 12-20zm-4 29s-6-5-7-4q-1 2 1 4l4 3z"/><path fill="#3e7438" d="m153 154 5 6c2 2 1 6-3 3l-5-5z"/><g fill="#b2d9bd"><ellipse cx="152" cy="193" rx="2" ry="1"/><ellipse cx="176" cy="138" rx="2" ry="1"/><ellipse cx="174" cy="143" rx="2" ry="1"/><ellipse cx="171" cy="147" rx="2" ry="1"/><ellipse cx="169" cy="151" rx="2" ry="1"/><ellipse cx="167" cy="156" rx="2" ry="1"/><ellipse cx="152" cy="189" rx="2" ry="1"/></g><path fill="none" stroke="#000" stroke-linecap="round" stroke-miterlimit="10" d="m114 109 1 3m4-3 1 3m5-4v3m18 28 3-1m-3-4h3m-3-5 3 1m-1-4 2 1m-18-20 1 3m85 106 3 1m-5 2 2 2m-9-13 2 2m1-6 2 2m-75-100v3m3 16 2 2m1-4 2 2m2-6 2 2m0-5 2 2m3-6 1 2"/><path fill="#dedede" d="M337 120s11-8 16-6l1-4s-7-2-12 4zm5 18 10 14-7-13zm29 46s-2 0-4 11l-3 12s10-7 7-23m-12 18s1 11-2 14q-7 4-9 3c-2-1 7-3 11-17"/><path fill="none" stroke="#000" stroke-linecap="round" stroke-miterlimit="10" d="m366 202 3 1m-1-5h3m-2-5h2m-2-4h3"/><path fill="none" stroke="#c8102e" stroke-miterlimit="10" d="m310 84-3 11m-4-7 10 2"/><path d="M287 216q-7 0-13 4l-11 8v-1l11-8q6-4 13-4z"/><g fill="none" stroke="#000" stroke-miterlimit="10"><path d="M219 76s3 5 6 5l4-1"/><path stroke-linecap="round" d="m246 75-27 1"/><path d="M236 77s1 2 4 2c5 0 6-4 6-4m-20 3s4 3 7 3l5-2m9 6s3 5 6 5q5-1 4-2"/><path stroke-linecap="round" d="m274 84-27 1"/><path d="M264 86s1 2 4 2q7-3 6-4"/><path d="m254 87 6 3q5-1 6-3m5-15 3 2 2-1"/><path stroke-linecap="round" d="m293 68-18 1"/><path d="M283 70s1 2 4 2q7-3 6-4"/><path d="M273 71s4 3 7 3q3 0 5-3"/><path stroke-linecap="round" d="m295 84-21 1"/><path d="M283 86s2 2 5 2c7 0 7-4 7-4"/><path d="m271 87 9 3q5 0 6-3m-40-18s3 6 7 6q5-1 3-2"/><path stroke-linecap="round" d="m275 68-29 1"/><path d="M264 70s1 2 5 2c5 0 6-4 6-4m-21 3s3 3 6 3q6 1 6-2m-49 19s3 6 8 6q5-1 4-2"/><path stroke-linecap="round" stroke-width="2" d="m249 90-32 1"/><path d="M237 92s1 2 5 2c7 0 7-4 7-4m-24 3s5 4 8 4q6-1 6-3m36-7 1 2m-44 8v20h4l-1-10m-4-26v10m3-15-1-19h-3l1 19m3 5v9m1 17V97m48-29V54h-3v15m4 15-1-11m-2 17v13h3V89m-4-15 1 10m-20-15-1-20h-2v20m4 15v-9m-3 15 1 28 2-1 1-1-1-26m-3-16v10m-28-27v-6h-3v2h3"/></g><path d="m294 139-8-7-5-9-1-5v-3l1-2 6-9v1h-15l-1 1h-1l-4 7-1 2-1 2-4 1h-17v-2h-4v2h-6l-2-1-3-1-10-5-9-5-9-6v-1l5 5 6 5 11 10 5 4 5 6 5 5 5 3v2h-2l-2-1-3-2-4-7-7-8-3-2-10-10-11-9v-1l19 12 9 4 3 1h3l5 1h-1v-2h6v2h-1 17l3-1 2-3 4-8h9l9-1v1l-5 8-2 5 1 5a32 32 0 0 0 13 16"/><path fill="none" stroke="#000" stroke-miterlimit="10" d="M269 106s10-4 18-4l21 2 1 7q3 1 2 6l-7 13"/><path d="m215 177-6-3-3-3-1-3v-4a14 14 0 0 1 8-8l5 2 5 3 3 3 2 5v1zm0-1 12-7-1 1-2-5-2-2-1-1-4-3-4-1-6 7-1 3v1l1 2 2 2z"/><g fill="none" stroke="#000" stroke-miterlimit="10" stroke-width="2"><path d="m213 157 3-1c2 0-1-2 5-4s5 0 5 0l3-1h6l6 6 2 7-7 2c-4 0-8 5-9 3"/><path d="m235 151 3-2c2 0 1-2 6-2h5q5-1 8 2c2 2 5 11 5 13 1 2-7 3-9 2h-11"/><path d="m256 148 14-1q8 1 9 9 3 7-5 7h-12"/><path d="M275 148h8l8 4q3-1 4 5c1 6 0 15-4 13s-4-4-8-5l-5-2"/><path d="m295 154 6-2 8 5c3 1 6 8 3 13s-10 7-13 4l-6-4"/></g><path d="m226 171-8 6-4 3-2 2-1 1v-1l1 1h5l1 2-1 1-4 1-4 1h-6l1-1-12 9v-2l13-1h1v1l24 32v1l-4 9-1 2v2l2 4 3 4 2 5 6 9-2-1 28-9-1 1 10-17 7-6 9-4 5-1h1l4 1 5 2 1 6-4 9-5 8-1-2h7-1l7-9 3-5 1-6v-1l-1-1-1-2-5-4-10-5v-1q6 0 11 4l5 4 2 3 1 1 1 2-1 7-3 5-8 10h-10l2-1 5-8 3-9-1-4-3-2h-5l-4 1q-9 2-16 9-6 7-9 16v1h-1l-27 10h-1l-1-1-12-17-1-2-1-3v-4l1-2 6-9v1l-24-31h1-16l2-2 11-9h11l2-1v1h1v1h-1l-2-1h-2l-2-1v-3l1-1 3-2 4-3 8-6z"/><path fill="none" stroke="#000" stroke-miterlimit="10" stroke-width="2" d="M268 163s-12 9-12 21 2 12 2 12 8-17 16-21c1 0 0 18 4 28s13 20 24 22c10 3-6-4-8-12-3-7-1-26-1-26s2 16 10 27l18 22 1-14-9-13s10 12 24 12 21-10 22-22c0 0-6 7-20 7q-21 0-38-31"/><path d="M311 158h6l6-2q4-4 5-10l-1-5-2-2-3-2q-5-1-10 4v1l-1-1-3-5-4-4-4-3-5-2v-1q3 2 3 5l1 4-1 3-4 2-1 1h-2l-6-3-4-4-5-4-5-2-6-1v-1l4 5 1 3-1 3-3 1-9-1-5-4-4-3-11-2v-1l6 7v4l-1 1-1 1-3 1h-7l-6-2-4-3-5-2h-6v-1l4 5v6l-4 4-5 3h-1v-1l1-7-2-3-3-1-7 1-4 5v7l1 2h1v1l3 2q7 5 15 3v1h-8l-7-3-4-2h-1v-1l-1-2-1-8 2-4 3-3 4-1h4l4 2 2 3v4l-1 4 5-3 3-4v-5l-3-4h-1l1-1 6-1 6 2 4 3 6 2 3 1h2l3-1 2-2-1-2-1-3-4-4-1-1h1l12 1 6 3 4 4h2l5 1 2-1v-3l-2-6h-1 7l6 2 5 4 4 4 5 3q3 1 5-2l1-2-1-3-2-6h1l6 1 4 4 7 9h-1l2-2 3-3 4-1h3l4 2 2 3 3 7q0 4-3 7l-2 3-1 1-1 1-4 2h-7z"/><g fill="none" stroke="#000" stroke-miterlimit="10"><path d="M219 153s3-4 3-7c0 0 6 4 10 4m12-3s4-2 5-5q0 2 7 5m14 0 6-6s7 8 13 9 14-6 14-6-2 10 9 14m0-17q2 5 7 6c3 0 3-4 1-4l-3 1"/><path stroke-width="2" d="M275 236a49 49 0 0 1 20 14m0 0h-13s1-3-13-8"/><g stroke-width="2"><path d="M367 152q9 20 10 33c0 12-8 32-37 35"/><path d="M359 199c1-11-10-17-22-15 0 0 5-6 14-6s14 8 14 8-4-12-16-29c-15-21-16-28-16-28l4 2s-5-11 8-20c3-2 9-1 9-1l-1 7c0 3 0 8 8 23l3 6"/><path d="M336 126c-2-7 6-23 22-23q23 3 37 3c9-1 20-9 13-15 0 0 11 0 11 8 0 9-5 8-5 8s18 1 24 15c0 0-6-4-14-4l-29 1s10 9 23 13c12 4 18 8 38 6 0 0-26 14-30 14s-18-2-43-24l6 15c2 9 7 25 15 30 0 0-11 0-20-8-8-8-7-23-7-23s-8 16-19 8c0 0 14-6 14-19a20 20 0 0 0-18-21"/></g><path stroke-linecap="round" d="m341 137 5 3m0 4 2 1m1 3 1 1m2 3v1"/><g stroke-width="2"><path d="M154 147c6-10 13-20 13-31 0-21-22-15-27-15-6 1-20 4-24 1a33 33 0 0 1-11-12s-5 8-2 12q5 7 6 6c1-1-14 0-19 3-6 4-7 10-7 10s15-9 27-6 25-1 25-1-35 24-58 24m128 57s-14 12-30 12-32-8-32-30q1-15 9-26"/><path d="M167 114c-7-1-18 9-18 20 0 12 11 19 11 19-13-1-17-11-17-11s2 6-2 13c-11 21-27 19-27 19a52 52 0 0 0 12-19l11-22q2-7-3-4s-21 16-31 19c-6 2-18 2-26-10-8-11 1-24 1-24s-19 2-19 14 30 21 38 21m48 16c-3 12-7 32 5 45 11 14 33 16 42 11l13-9-5 18s11-2 13-8c0 0-5 10 4 19 0 0 3-13 10-17"/><path d="M162 205c1-24 18-24 18-24s0-3-9-3-16 6-16 6c-1-6 23-34 28-41 4-8 2-12 2-12q-3 3-5 3c-2 0 1-3 0-13-1-15-16-20-26-20"/></g></g><path fill="#291c11" d="m290 105 4 1-4 1 1-1-3 5h-1zm6 1h3v1h-3l-3 5v-1zm4 1h3v1h-3zl-3 4h-1zm-12 17 3 1-3 1 1-1-3 5h-1zm5 1h3v1l-3 1zl-2 5h-1zm12-17h2zl-3 5h-1zm-19 6h4v1l-4 1 1-1-3 7h-1zm6 1h4v1h-4 1l-3 6zm6 1h3l-3 1zl-3 6h-1zm6 0h2v1l-2 1zl-3 6h-1zm-33-9h4v1h-4 1l-4 6h-1zm7 0 4 1-4 1 1-1-4 7-1-1z"/><path fill="none" stroke="#291c11" stroke-miterlimit="10" d="M287 104s4-2 8-1"/><path fill="#291c11" d="M264 120h3l7 1 5 2 3 3-3-3-5-2-7-1z"/><path fill="none" stroke="#291c11" stroke-miterlimit="10" d="M265 114q-2 2 4 3 8 3 11-1"/><path fill="none" stroke="#291c11" stroke-miterlimit="10" d="M261 117h6m7 1q5 1 7 4"/><path fill="#291c11" d="M266 121a65 65 0 0 1-36-2l-9-4-7-5-15-11 15 10 16 9 18 3 18-1z"/><path fill="none" stroke="#000" stroke-miterlimit="10" stroke-width="2" d="M456 138c9-3 11-18-10-27 0 0 7 23-9 27"/><path fill="#74948f" d="M318 463c1-2 4-8 6-8q4 2 7-2c3-4 8-13 12-13 4-1 14-9 28-16 11-6 19-13 29-13s6 8 17 8c10 0 35 4 41 16a42 42 0 0 0 20 20c6 2 27 9 19 11l-19 7a38 38 0 0 1-24 5c-9-1-10-1-14 1-3 1-22 2-24 0-2-3-3 1-8 0-5-2-24 1-33-2q-13-3-25-2c-9 0-34-8-32-12"/><path fill="#3c4544" d="M452 428s9 16 8 21c-1 6-3 1 5 6s17 4 11 6c-5 1-16-2-12 5 3 7 3 6-4 6-6 0-15-4-20 1-4 5-13 7-13 7l13-1q4-3 15-1a51 51 0 0 0 26-7c4-2 20-4 18-7l-21-9c-8-2-15-12-17-16z"/><path fill="#202926" d="M353 463s5-2 8 2c4 4 10 10 17 10q9 0 14-4s-9 3-14 2q-8-3-15-11c-3-3-10 1-10 1m46 5s6-1 10 1c3 3 11 8 14 6l18-9 5 5q-2 1 4 2h17q7-3 6 1l-4 3 8-3 7-4-12-4c-4-1-11-2-8 0 2 2-3 7-7 5l-12-10q-1-2-4 0l-18 10a11 11 0 0 1-11-1q-7-5-13-2"/><g fill="#cfdcd9"><path d="M424 419q-8 0-2 3 5 5 0 8c-5 1-7 5-12 1l-7-8 4-2c2-3 13-2 17-2"/><path d="M393 412s8 0 10 4q3 7-4 6-8-2-3 3c4 3 10 9 17 10 6 2 13 4 9 5l-19-2c-5 0-7 3-15 4q-12 2-14 6h10c11-1 23 0 25 2 3 2 16 2 20 4 3 2 9 0 9 0l-7 6q-11 7-17 7c-4-1-16-8-19-8s-16 6-18 7l-18-8q-6-2-13 2l-13 3-6 2c-2 0-9 1-9-1l2-6s2-3 7-3c5 1 3-2 5-4 1-2 7-11 13-12 5-1 10-7 48-27"/><path d="M382 468q3-4 11-3c5 0 9 1 4 3l-9 3q-8-1-6-3m-37 1q9 1 11-2 4-2-2-2c-5 0-16 4-8 4"/></g><path fill="#74948f" d="M364 431c4-2 4-4 12-2l10 4c2 0 6 2 0 2s-4-1-8 1l-13 4c-2 0-9 2-11 1l-9 2c-2 1-6 0 2-5l24-14c2-1-14 9-7 7m-34 23q7-2 4 0-6 4-10 3-3-2 0-2z"/><path fill="#202926" d="M335 447s-3 4-1 3c2 0 6-1 3 1l-3 2-5 1z"/></g><path d="m501 415 2-4 1-1h2l2-1 1-1 4-6 2-1h2l3-2 3-2 6-4 4-2 3-1 6-4 8-2 1 1 2 1 1 1 2 1 3 1 18 4 6 5 1 1 1 2 2 3q2 3 6 5l3 1 3 2 4 1 3 2h1v1l-1 1h-1l-4 1-7 3a22 22 0 0 1-14 3h-7l-2 1h-11l-1-1h-15l-10-1h-1l-4-1h-11l-4-1-7-2-5-2-1-1zm1 0 2 1 3 1 7 2 7 1h8l7 2h23l1 1h11l1-1h8a21 21 0 0 0 14-3l7-2 4-1 1-1v-1l-7-3-3-1-4-2-5-5-3-3-1-1v-2l-6-5-7-2-7-2h-7l-2-2-1-1-3-1-7 1-7 4-3 2-10 5-3 2-3 2-1 1h-1l-1 1-5 6-1 1-2 1h-2l-1 1z"/><path fill="#74948f" d="M428 416q0-4-4-5c-4-1-3 0-5-3s-7-11-12-13c-5-1-5-9-11-11-7-3-20-2-25 2-5 5-14 3-17 5-2 3-6 15-12 16s-15 3-15 6q3 5 10 6c4-1 13 1 19 4 7 3 11-1 16 0s9 3 14 1l13-3h15c3 0 15-3 14-5"/><path fill="#3c4544" d="M369 418s3-2 9-2c5 1 6 4 12 3q7 2 0 2c-4 0-29-1-21-3"/><path fill="#cfdcd9" d="M366 395c1-2 6-10 8-8 1 2 8 0 12 0 3-1 3 4 4 4s5-1 3 1q-2 4-3 3v3c-1 1 1 2-4 3l-11 4-9 3q-3 3 2 1l10 1 6 3c2 0 8 3 3 4-4 0-14-2-16-1q-5-1-8 1-5 2-8 1l2 1q3 2-1 1l-7-1-6-2c-1 0-5 2-2-1 2-3 7-4 7-4h4c4 1 4 3 8-5zm23-12 3 2 2 1-5-1z"/><path fill="#cfdcd9" d="M391 408c0-2-6-5-9-4q-6 1-4 2l8 3q3 4 5-1"/><path fill="#3c4544" d="M397 384s5 6 5 9-5 3 1 3q8 0 12 10c4 5 2 9 6 7s-1 4-3 5l-14 3h10c3 0 15-3 14-6q-1-4-4-4t-4-2c-1-1-4-7-8-10l-7-5c-1-2-4-8-8-10m-66 25-4 3q1 4 5 6l5 1c-1-1-11-4-6-10"/><path fill="#3c4544" d="M351 396c-1 8 3 15-6 13h-13l9-2c3-1 5-2 10-11m49 8q-5-4-8-3c-2 0 3-4 7-1q4 4 1 4"/><path fill="#cfdcd9" d="m369 390-10 4c-2 1-6 4-2 5q5 0 3 5-4 4-2 4c1-1 1 3-1 4l10-13c6-9 2-9 2-9"/><path fill="#74948f" d="M369 395c0-4 5 0 7 0q4 0 0 2-4 0-6 2z"/><path d="m428 416-2-3-3-2h-1l-1-1h-1l-2-4-4-5-6-5h-1l-1-1-1-1-2-3-4-6-7-2h-15l-6 3q-3 3-7 3l-7 1-3 2-2 3-3 6-3 3-3 3h-3l-4 1-3 1-4 2-1 1v1l2 3 6 2h4l4 1 7 1 3 1 2 1 2 1h7l3-1h4l7 2 7-1 7-2h22l10-3 2-1zm1 0-1 1h-1l-4 2-7 2h-22l-7 2-7 1-7-2-7 1-4 1-4-1-1-1-2-1-4-1-7-1-3-1h-4l-7-3-1-1-1-2v-2l2-1 3-2 4-1h4l1-1h2l3-2 2-3 4-6 2-3v-1l1-1h2l4-1h3l7-3 6-3 15-1 4 1 3 2 2 3 2 3 2 3 2 1h2l5 5 5 6 2 3v1h3l3 2z"/><path fill="#202926" d="M422 412c-2-1 0 0-4-6a98 98 0 0 0-19-21c-5-3-6 0-8-1l2 2c1 1-1 2 3 3q4 1 1 4 0 2 4 3 2 1 1 3h5l8 5 3 3q-1 2-3-1l-4-1-1 1 3 1 4 2q2 2 0 2l-4 1h-3l-6 1-6-1q-3 1-1 2h9l8 1q2 2 0 2l-5-1-6 1q-3-1-4 1l-8 1h-8c-2 1 8 1 12 1q5 0 4-1 2-2 3 0 2 1 5-1 3-1 4 1l8-1-2 1q-5 3 0 1c4-1 11-1 11-5q-2-3-6-3"/><path fill="url(#sh-ac-ac-Z)" d="m97 396 1-8c-1-5-3 0-4-2s-4-3-4 0-6 1-3 5q6 7 10 5" transform="translate(317 146)scale(.58162)"/><path fill="url(#sh-ac-ac-aa)" d="M21 451c1 3-7 7-8 8l-2-1q0-2-5-1-5 0-3-2t-1-3q-3-2 2-2c4 0-1-3 4-2s0-5 3-4z" transform="translate(317 146)scale(.58162)"/><path fill="url(#sh-ac-ac-ab)" d="M22 450s-6-6-6-8q-2-4 1-3c3 1 0-1 1-4q2-4 3 0l1 4h3v4q2-2 1 1l-1 4z" transform="translate(317 146)scale(.58162)"/><path fill="url(#sh-ac-ac-ac)" d="m37 451-13 6q-3 4 0 4c2-2-1 1-1 5q1 4 3 1l4-4c0 2 4 3 4 1 1-2 3-7 3-4q1 3 1-1l2-6s-1-2-3-2" transform="translate(317 146)scale(.58162)"/><path fill="url(#sh-ac-ac-ad)" d="m32 449-3-5q-1-2 1-2l1-4q2-3 2 0l2 5c0-3 2 1 0 3q-2 3-3 2" transform="translate(317 146)scale(.58162)"/><path fill="url(#sh-ac-ac-ae)" d="M100 399s0-7 3-8q3 0 2 2l7-1q2 1 0 4l-2 3q3 0-1 2-6 2-9-2" transform="translate(317 146)scale(.58162)"/><path fill="url(#sh-ac-ac-af)" d="M98 400h-9q-6 0-1 2 3 0-1 2-4 4 0 4 5 0 3 3 0 4 2 1c2-2 10-11 6-12" transform="translate(317 146)scale(.58162)"/><path fill="url(#sh-ac-ac-ag)" d="M123 400s-6-2-7-4 5 1 4-2-2-8 0-6 3-2 3-4q0-3 2 0 1 5 2 3 3-3 3 1l-1 3q3-1 0 3l-3 4q-2 3-3 2" transform="translate(317 146)scale(.58162)"/><path fill="url(#sh-ac-ac-ah)" d="M133 393q1-5-1-9-2-6 1-6c0 2 0-3 2-4q3-1 3 2-2 4 1 3 2-2 3 1c-1 1 1 5 1 2 0-4 2-10 3-8q2 2 5-1 3-1 2 2v3q3-1 2 2l-6 4q-3 1 1 2c4 0 5 4 3 3q-3 2 2 2c2-1 7 1 2 2-5 2 2 4-4 4q-10 2-17 0-4-3-3-4" transform="translate(317 146)scale(.58162)"/><path fill="url(#sh-ac-ac-ai)" d="M138 404c2-1 5-5 7-4q5 0 2 1-4 3 2 3h6q-2 1 0 2 3 3 0 2c-3-1-8 0-6 1q1 3-2 2l-5-2c2 1 2 4-2 1s-11-6-2-6" transform="translate(317 146)scale(.58162)"/><path fill="url(#sh-ac-ac-aj)" d="M150 424q5 0 3-1h4c3 2 2-2-1-2s0-2 2-2q4-1-2-1-3 0 1-5 3-4-4 1-3 5-2 0 0-4-1-1l-1 3q-2-2-1 3c0 1-3-3-2 0l-1 4q0 5 2 3 4 0 3-2" transform="translate(317 146)scale(.58162)"/><path fill="url(#sh-ac-ac-ak)" d="M163 418c1-4 3 0 2 2q0 4 4 1c2-3 7-2 4 1q-3 2 2 1c3 0 8 1 5 2q-3 2 1 2l6 2q0 3-3 2-2 1 1 4 1 3-2 2-4 0-3 2 0 3-2 1-3-3-3-1 0 3-4 2c-1-2-3 1-3 1q0 2-4-2l-3-3q0 3-2-2 0-4-4-6-4 0-1-2c2-2 6 0 9-9" transform="translate(317 146)scale(.58162)"/><path fill="url(#sh-ac-ac-al)" d="M141 433s5 4 2 5q-6 3-3 4 6 0 3 2-5 5 0 5 1-1 1 4c0 2 4 6 4 2q0-7 1-3c1 4 7 6 5 2s-2-8 0-6 6 5 4 1-4-6-1-5c2 1 9 2 4-1q-8-4-4-4 3 0-2-2c-4-1-1-3-6-4-4-1-10-2-8 0" transform="translate(317 146)scale(.58162)"/><g stroke="#174520" stroke-miterlimit="10"><path fill="none" stroke="none" d="M373 376v-5c0-3-2 0-2-1q-2-3-2 0c0 2-4 1-2 3q4 4 6 3m-45 32c1 1-3 4-4 4h-1l-3-1q-3 1-2-1v-2q-2-1 1-1l2-1c3 0 0-3 2-2q5 2 5 4m1-1-3-5v-1l1-2q1-3 1 0l1 2h2v2l1 1-1 2zm9 1-8 3v2q2 0 0 3 0 3 2 1l2-2h2l2-2 1-1v-3zm-3-2-2-2q-1-3 1-1l1-3h1l1 3v2q-1 2-2 1m39-28s0-4 2-5l2 1h3l1 2-1 1q1 1-1 2zm-1 0h-5q-3 1 0 1 1 1-1 2t0 2q3 0 2 1 0 2 1 1c1-1 6-6 3-7m15 0-4-2 2-1v-4q2 1 2-2 1-2 1 0l1 1q3-2 2 1v4l-2 2q-1 2-2 1m6-4-1-5v-3l2-3q1-1 1 1l1 2h2q0 3 1 1l1-4q1 1 3-1l2 1v2l1 1-4 3q-2 1 1 1 3 1 1 2l2 1q3-1 1 1c-3 1 1 2-3 3h-9zm2 6 5-2q2 0 1 1-3 2 1 1h4q-2 1 0 1 2 2-1 2h-3q1 2-1 2l-3-2q2 3-1 1c-2-2-6-4-2-4m8 12h4q3-1-1-2l2-1h-2q-2-1 1-3 1-3-2 0-2 3-2 0h-1v1l-1 2h-1l-1 3q-1 2 2 1z"/><path fill="none" stroke="none" d="M411 389q2-2 2 1h2q3-2 2 1-1 1 1 1l4 1q-3 1 0 1l3 1-1 1v3q1 1-1 1l-2 1q0 2-1 1-2-3-2-1t-2 1-2 1l-2-2-2-1-1-1q0-3-2-4-3 0-1-1c1-2 4 0 5-6m-13 8s3 2 2 3q-4 2-2 2 3 0 1 2v3q1-1 1 2c0 1 2 4 2 1s1-4 1-2q3 4 3 1v-3q2 3 3 1-3-4-1-3c1 0 5 1 2-1q-5-3-2-2 2 0-1-1l-4-3z"/><path fill="url(#sh-ac-ac-am)" d="M92 387q0-1 0 0l9 20 3 9 1 2 3-4-5-8z" transform="translate(317 146)scale(.58162)"/><path fill="url(#sh-ac-ac-an)" d="M175 430a57 57 0 0 0-28-3s0-2 2-5 2-3 0-2l-4 8c-12 2-20 8-20 8l2 2s0-2 10-5c12 1 13 7 13 11 0 3 1 7 1-2s-11-10-11-10l5-2c20-5 43 5 30 0zm-38 3 3-1z" transform="translate(317 146)scale(.58162)"/><path fill="url(#sh-ac-ac-ao)" d="M125 409c3-3 12-3 15-3 3-1 9-1 4-1l-16 1 5-6 13-18v-1l-15 17-6 6 1-7c0-4-3-10-2-5 1 4 0 13-1 14l-8 6-4 3 1 4 6-3zm-2-3 1-1z" transform="translate(317 146)scale(.58162)"/><path fill="url(#sh-ac-ac-Y)" d="m25 449-3-6q-2-4-1 1l2 5h1l-15 3h4l34-1 1-2z" transform="translate(317 146)scale(.58162)"/></g><path fill="url(#sh-ac-ac-X)" d="m413 400-3-8c-1-4 3 0 4-3q1-5 3-1c2 4 6 0 4 4s-6 9-8 8" transform="translate(317 146)scale(.58162)"/><path fill="url(#sh-ac-ac-W)" d="M346 431c0 3-8 5-10 5q-2 0-2-2c2-1-2-1-4-1q-5-2-2-4 2 0 0-2-2-3 3-2c5 1 0-3 4-1 5 2 1-4 4-2z" transform="translate(317 146)scale(.58162)"/><path fill="url(#sh-ac-ac-V)" d="m348 430-4-9q0-4 2-2l2-4q3-2 3 1v4q3-1 3 1l-1 4v1l-2 4z" transform="translate(317 146)scale(.58162)"/><path fill="url(#sh-ac-ac-U)" d="M362 435s-12 1-14 3q-5 3-2 3c3 0-1 1-2 4q-1 6 3 3 4-5 4-2l4 2 4-4q-1 3 2 0l2-5s1-3-1-4" transform="translate(317 146)scale(.58162)"/><path fill="url(#sh-ac-ac-T)" d="m358 432-3-5q1-4 2-1c1 1 2-3 3-4q2-3 2 0v5c1-2 1 2-1 4s-3 2-3 1" transform="translate(317 146)scale(.58162)"/><path fill="url(#sh-ac-ac-R)" d="M412 404s-2-7-5-7c-4-1-2 2-2 2l-7 1q-3 2 1 4l3 2q-3 2 1 2 6 0 9-4" transform="translate(317 146)scale(.58162)"/><path fill="url(#sh-ac-ac-Q)" d="m414 404 9-3q5-1 1 2c-4 3-1 1 1 2q6 3 1 4-3 1-2 3 3 3-1 2c-3-2-13-8-9-10" transform="translate(317 146)scale(.58162)"/><path fill="url(#sh-ac-ac-P)" d="M383 401s7-2 8-4c0-2-5 1-4-2s2-8 0-6-3-2-3-4c0-1-2-4-3-1q0 6-1 4-3-3-4 1 3 4 1 3v3l4 4z" transform="translate(317 146)scale(.58162)"/><path fill="url(#sh-ac-ac-O)" d="m373 394 2-9q1-6-1-6l-2-4q-3-1-3 2 0 4-1 2-3-1-3 2c1 1-1 5-1 1l-3-8q-2 2-5-1-3 0-3 3 2 2 0 3-2-1-1 2l5 4q5 1-1 2c-4 0-4 4-2 3q2 2-3 2c-2-1-6 0-1 2 4 2-2 4 4 4q10 2 16 0 4-3 3-4" transform="translate(317 146)scale(.58162)"/><path fill="url(#sh-ac-ac-N)" d="M369 405c-3 0-5-5-7-4q-5 0-2 1 4 3-3 3h-5q2 2-1 2c-2 0-1 4 1 2 2-1 8 0 6 1q-2 3 2 2 7-3 5-3-4 5 2 2c4-3 11-6 2-6" transform="translate(317 146)scale(.58162)"/><path fill="url(#sh-ac-ac-M)" d="M487 446q4 0 2-1h3q3-1-1-2c-3 0 0-1 1-2h-1q-3 1 0-4 1-4-3 2-2 3-2-1 0-2-1 0v5c0 1-3-2-2 0v4q-1 3 2 2 3-2 2-3" transform="translate(317 146)scale(.58162)"/><path fill="url(#sh-ac-ac-b)" d="M496 440q2-3 2 1 0 2 3 0c1-3 5-3 4 0q-2 2 1 0 6 0 5 1-3 2 0 1l5 1q1 2-2 2l2 3q1 3-2 2-3 0-1 2 1 2-2 1h-3q1 3-2 2l-2 1q-1 3-3-1-3-3-3-1l-2-1q-1-4-4-5-3 1-1-1c1-2 4-1 5-8" transform="translate(317 146)scale(.58162)"/><path fill="url(#sh-ac-ac-K)" d="M481 455s5 2 3 3q-4 3-2 4 4 0 3 1-2 4 1 4 1-1 1 2 3 5 4 2v-3c2 2 6 4 4 0q-3-5-1-4 4 4 4 0-4-4-2-3c2 0 7 0 3-2q-7-2-4-2 4 0-2-1c-6-1-1-3-5-3z" transform="translate(317 146)scale(.58162)"/><g stroke="#174520" stroke-miterlimit="10"><path fill="none" stroke="none" d="m557 378-2-5 2-1q0-4 2-1c1 2 4 0 2 3q-2 4-4 4m-39 18c0 2-5 3-6 3q-2 0-1-1l-3-1q-2 0-1-2v-1q-1-2 2-1c2 0 0-2 2-1 3 1 1-2 3-1zm1 0-3-6q1-2 2-1l1-2q2-2 1 1l1 2q1-1 1 1v2q1-1 0 0l-1 3zm8 3-8 1q-3 2-1 2l-1 3q-1 3 1 1l3-1 2 1 2-2h1l2-3zm-3-2-1-3q1-3 1-1l2-2h1v5zm32-17-3-4q-2 1-1 2h-4v3l2 1q-1 1 1 1 3 0 5-3m1 1 5-2q4-1 1 1-2 1 1 1 3 1 0 2-2 0-1 2 2 2-1 1c-1-1-7-4-5-5m-17-2 4-3-2-1v-3q-2 1-2-2t-2-1q0 3-1 2-1-2-2 1l1 2v1l2 3zm-6-5 1-5-1-3-1-2-2 1v1l-2 1q0 3-1 1 0-5-2-5h-3q-1-1-1 1v2q-1-1-1 1l3 2q2 1 0 2-4 1-2 2h-1c-1 0-4 1-1 2s-1 2 2 2h10q3-2 2-3m-3 7-4-3q-3 1-1 2l-2 1h-3v3h4q-1 2 1 1l3-1q-2 3 1 1c2-2 6-4 1-4m69 24h1q-1-1 2-1l-1-1q-2 0 1-1h-1v-2q0-2-2 1h-1q0-2-1-1v3h-1v2l1 2zm5-4q1-2 1 1h2q3-2 2 0h1l2 1h1l2 1v1l1 2-1 1q-2 0-1 1l-1 1-2-1-1 2h-3l-2-1-1-1q-1-2-3-2v-1zm-8 9s2 1 1 2l-1 2q3 0 2 1v2q1-1 1 2 1 2 2 0v-1q3 2 2 0v-3l2 1-1-3q3 1 2-1l-3-1h-1l-3-2z"/><path fill="url(#sh-ac-ac-J)" d="m416 389-3 22-1 10v2l-4-3 2-9z" transform="translate(317 146)scale(.58162)"/><path fill="url(#sh-ac-ac-I)" stroke="none" d="M507 447q-13-1-22 2l1-4v-1l-3 6c-8 4-13 10-13 10l2 1 7-5c9-2 11 3 11 6 1 2 2 5 1-2-2-7-10-6-10-6l3-2c15-7 34-4 23-5m-28 8 2-1z" transform="translate(317 146)scale(.58162)"/><path fill="url(#sh-ac-ac-H)" d="m382 410 7 7 5 3 2-4-4-3-8-6c-1-1-2-10-1-14 1-5-2 1-2 5v6l-5-5-15-17-1 1 14 17 5 7-16-1c-6 0 1 0 4 1 3 0 11 0 14 3zm1-4 1 1z" transform="translate(317 146)scale(.58162)"/><path fill="url(#sh-ac-ac-C)" d="M362 434z" transform="translate(317 146)scale(.58162)"/><path fill="url(#sh-ac-ac-B)" d="m350 431-1-7q0-5-1 0l1 6q-13-3-15-1l5 1 30 8 2-2z" transform="translate(317 146)scale(.58162)"/></g><path fill="url(#sh-ac-ac-bx)" d="M505 393c-2 14 1 27-2 33-2 7-10 3-15-1l-18-17-15-16-14-18-6-9-11-21c-3-4-6-5-9-13-4-9-1-19-2-21l-2-10q-2-9-1-41c0-4 8-16 12-18l4-1a15 15 0 0 1 13 0c6 4 22 20 27 27a217 217 0 0 1 26 49q11 34 11 48c0 10 3 14 2 29" transform="translate(317 146)scale(.58162)"/><path fill="url(#sh-ac-ac-S)" d="m440 394 1-20 14 18 15 16c4 9 0 16 2 20a37 37 0 0 1 4 17l3 9c0 1 0 8-4 8-3 0-11-4-13-6l-10-15-6-10a73 73 0 0 1-6-37" transform="translate(317 146)scale(.58162)"/><path fill="url(#sh-ac-ac-L)" d="M452 441c1 1-8 6-9 8q-3 3-5 1-4-1-9-25c-2-18 3-38 3-38l8 7a73 73 0 0 0 6 37z" transform="translate(317 146)scale(.58162)"/><path fill="#e6c7ac" d="m573 363-1 11-4-3c-28-26-27-47-27-53l5 4c4 2 10 1 10-2l1 6q-1 3 1 12 3 6 5 7l7 13z"/><path fill="url(#sh-ac-ac-e)" d="M381 199q-3-1-2-3s10-8 19-3 24 15 24 25a45 45 0 0 0 4 22l-4 2c-5 1-12 13-12 17q-1 32 1 41c1 5-9 7-16 4l-9-7q-2-2-4-1l-1 2-8 23q0 5 2 9c-1 4 2 7 0 15q-6 11-11 6l-12-21c-2-4 0-15 0-21s2-23 5-24c4-2 6-9 14-16 7-6 12-5 13-8 0-2 6-3 6-3l3-3 3-4c-2-4 0-13 0-13-4-4-12-13-13-18 0-6-5-20-2-21m19 6-1-5-6-1q-1 2 2 4 3 3 5 2" transform="translate(317 146)scale(.58162)"/><path fill="#f0ceb8" d="m548 262 1 3-3-1-1-3zm-1 1v1zm0 0"/><g fill="none" stroke-linecap="round" stroke-linejoin="round" stroke-width="0"><path d="m546 275-3-5-2-5-3-4-1-1s6-5 11-2 14 8 14 14q0 13 2 13"/><path d="m548 285-1-1-8-11c0-3-3-11-1-12m9 23v8l-2 2m8 0s-3-3-7-1h-1l-2 3-3 1c-1 2-4 1-8 5l-8 9c-2 1-3 11-3 14v13l7 12q3 2 6-4 2-5 0-8v-6l4-13 1-1 4-3 8-6m5 11q-2-5-1-24c0-2 4-9 7-10l2-1h7c4 2 13 12 16 16a123 123 0 0 1 22 56c0 6 2 9 1 17l-1 20c-1 4-6 1-8-1l-11-10-9-10-8-10-3-5-7-13q-2-1-5-7-2-9-1-12z"/><path d="m541 318 5 4c4 2 10 1 10-2m-17-2h2m0 0c0 6-1 27 27 53l4 3m1-11-1 11q-1 11 4 22l3 6 6 8 8 4q3-2 2-5l-1-5-3-10-1-11m-42-121 1 3-3-1q-2-1-1-3z"/><path d="M568 372s-3 11-2 22q3 14 5 14 2 1 3-1c1-1 6-3 5-4"/></g><path fill="url(#sh-ac-ac-g)" d="m410 273 5 29 2 15s1 9 4 13l11 19c5 9 8 16 24 35l42 46-6-2-24-23s-12-11-28-33-12-25-18-31a34 34 0 0 1-9-22v-8l-3-23z" transform="translate(317 146)scale(.58162)"/><path fill="#f0955d" d="m568 341-5-12-1-1-3 1 1 6 5 9 1 2 2-1zm-5-19-4-12q0-2-2-2l-2 1 3 15 1 2q5-1 4-4m19 43-7-9-4-7q0-2-2-2l-2 1 6 10 8 10zm26 28-9-8-10-13q-1-2-3-1l-1 1 7 9 15 14zm-53-86q5-1 3-3l-1-8q2-6 6-9 4-2 2-2l-5 2-5 10zm15-4h3l5 3 2 2 1 3-1 7-3 3-9 3q-3 0-3-3l-1-8c-1-1-3-8-1-8z"/><path fill="#fdf2e8" d="M556 283s-7 0-6 1q2 3 3 2c1-1 6-3 3-4"/><g fill="#d5ccc0"><path d="m538 264 1 2 2 7 8 11-1 2v4q0 2 2 2 1 0 0 0-3 0-4 3l-1 1c1 2 0 6-1 4l-3-3-2 2-5 3-7 7-5 9c-1 5 0 0 0 0l2-7 5-5 7-6 4-3 2-1 1-1 2-2 1-1v-6l1-2-6-7-2-7z"/><path d="M549 311h2q4 1 4-2v-12l2-6 5-5-2-5c0-3 0-9-1-7q1 5-1 7l-7 1-2-3-3-3v1l3 4q-1 1 1 2 2 2 3 1l4-1h1l-5 3h-4l3 1q3 2 5-1l2-3v3l-7 5-1 1 3 2-1 2-6 13q-4 5-2 5zm-11 7-7 15c-1 3 3 5 2 8 0 4-2 10-3 8s-5-3-3-2q1 5 4 3 4-1 4-8l-1-6-1-4z"/><path d="M551 312s-1 3-2 2h-2l-1 2-3 1-1 1 3 3-4-3-1-1 8-6z"/></g><path fill="#fdf2e8" d="M543 270q1-3 4-1 3 5 6 5c2-1 7-3 6-1q-1 5-5 6-3 0-11-9m6 9 5 1q4 0 1 1l-4 1zm7 8-3 3-2-3zm-19-27s5-3 8-2l8 4c1 0 3 4 4 3v-2c-2-1-8-6-11-6l-8 2zm24 13v3l2 10 1-1z"/><path fill="#d5ccc0" d="M555 309s-2 1-2 3v9c-1 1-8 2-5 2l7-1q1-1 0 0l1-2z"/><path fill="#ad5f38" d="m570 303 5 2-7-2zm-5 1 6 3-8-2m-1 2 7 1h-7m1 3 11-2-10 5m0 1 11-3-10 8m0 0 11-6-10 9m1 1 5-5-3 5m3-1 5-7-2 6m2-1 2-4-1 3"/><path fill="#f0955d" d="m576 289-3 3-1 6 2 3 8 4 4-1 3-2m-14-14-3 3-8-2 6-4m-7 6 7 1 1 5-1 4-9 3-1-8q1-5 3-5m28 15h-6l-2 2-1 10 1 3 5 3 5 1 7-2m-22-1q2-1 4 1l5 6v9q0 3-4 5c-2 1-8 4-10 0-3-4-7-14-7-15l2-2zm6 22q4-1 6 1l5 10c1 1 2 6 0 7l-7 5q-3 1-4-2l-9-12q-2-4 1-6zm11 23h2l9 7 1 3 1 11q1 3-2 1l-13-13c-1-2-4-8-2-8zm15 6-3-1-7-6-2-2v-6l2-1 9 1m0-1-9-1-3-3-2-4 1-1 11-5m-1-4-6 5-5 2-3-1-3-3 1-3 1-11 1-1 8-3"/><path fill="none" stroke="#af6d4a" stroke-miterlimit="10" d="M565 285q2 0-2 2-5 3-6 9l1 8q1 2-3 3"/><path fill="#ad5f38" d="M561 292h7l-6-1m-1 2h8l-9 1m0 2 8-1-8 4m0 1 7-2-7 5m2 0 5-3-2 3m0-14h6l-5-2zm3-3 3 1zm5-1v1l-2-1zm2 5 2 1h-3m0 1h1l-1 2m0 2 3-2-3 4m0 1 5-2-3 4zm5 4 2-5-4 4m4 2 1-5 1 6m1 0 1-4 1 3m2 0-1-2zm0 3 2 1h-5zm-4 3 6-1-6 3m0 2 6-2-7 4m0 2 8-4-8 6m1 2 8-7-6 8m2 2 6-7-2 8m3-1 2-6v6m2-1v-4l2 3zm-1 2h3l-5 1m-3 1h7l-8 2s0-3 1-2m-2 4h8l-8 2m0 2 7-2-8 5m0 1 8-3-8 6m2 1 6-6-4 8m2 0 6-8-2 7m3-1 2-6v4m-5 6 5-1-9 3s1-2 4-2m-3 3 7-2-7 4m1 2 6-5-4 7m2 0 4-6-2 6m2 1 2-7v7m-9 6 5-2-4 4m1 1 5-3-3 4m1 2 4-7-2 8m1 1 3-9-2 10m1 1 1-6 1 6m-37-48h6l-13 2m0 1 13-1-12 3 13-1-13 3m1 2 13-3-12 5m1 3 9-5-7 8m1 1 9-7-6 9zm4 2 7-9-3 8m2-1 2-6 1 4m-11 8 8-2-9 4 11-3-9 5z"/><path fill="#ad5f38" d="m576 353 10-3-9 5m1 0 9-3-8 6m1 1 8-5-6 8m0 1 7-7-6 8m1 1 6-8-4 10zm4 2 3-8-1 6m2-1 1-4 1 3m-3 7 4-2-3 5m1 1 4-3-3 5m1 1 4-5-3 7m2 1 3-7-2 9m1 1 4-8-2 10m2 1 1-10 2 13"/><path fill="#d5ccc0" d="M576 366s-3 12-1 23-2-2-2-2v-24zm9 44s9 6 8 2q0-5-2-7c0-1 0-5 1-3l-1-6-2-6 1-5c0-2-5 3-10-13l10 10 1 7 1 8 2 7 1 6q1 3-2 4-3 0-8-4"/><path fill="#fdf2e8" d="m590 389-1-1zm2 12q0-2-1-1z"/><path fill="#d5ccc0" d="M572 381s-1-5-3-4c-3 2-3 11-3 11s0-9 2-17l4 4zm3 13s-2 13-3 11l-6-13s1 8 4 14q3 3 5 0l4-4z"/><path fill="#c6ac95" d="M553 323s2 1 1 3l1 8 4 8 6 7-3-5q-3-3-5-10v-8l-1-5s-1 2-3 2m-6 0s-5 2-5 5l-1-9z"/><path fill="#caa178" d="m552 323 2 5q-2 4-8 4h-4l-1-13 6 4zm-9 10 7-1q4 0 4 2l3 7q1 3-2 5l-6 3s-5-9-6-16m9 19 5-4q1-2 4 1l5 9v4l-3 4zm21 15q-2-5-5-4l-4 4 8 7z"/><path fill="#c6ac95" d="m570 363 3 4v-4l-6-9 1 6 1 2z"/><path fill="#b28f6b" d="M570 363q2 5-2 8l5 4 1-7z"/><path fill="none" stroke="#9f8d79" stroke-miterlimit="10" d="M549 286s4 3 7 1c4-3 3-9 3-9"/><g fill="#494037"><path d="m553 261-2 1 2 2 1-2q0-1 0 0zm3 2s-2 3-1 4l2 1 2-2q0-1 0 0zm0 8 1-1h-4v2zm5-3-2 2 3 2zm-9-9-3 1q-2-2 0-2c3 0 0 0 0 0zm-8-2 3-1zm-2 3 1 3h2v-2q2 0 0-2zm3 5q-3 1-1 3l2-1zm2 1 2 1q1 2-1 2zm-3 4 2 2h2v-2l-3-1zm11 2q2-2 3 1l-2 2v-2zm3 3 1-1 2-1-2-1zm5 0-1 1v1h1zm-13-1h-2v-2l2-1zm2-2v2q-1 2 2 2v-2l-1-1zm-2-2 1 1 1-1-1-2zm3-3 1 1v-2h-2zm-2 9v1h1zm4 0v1l2-1zm-4 13h3l-1-1q-2 0-1 1zm4 1 2-1v2zm-3 3 1-1 2 1zm8-6h-1zm1-2 1-1zm3-3-1 1 2 1m-10 17q0-5-4-2-5 4-2 5 4 2 6 0zm-7-6 1 1q2 2 2-1c0-2-4-1-3 0m-5 4h-5l1 3c2 0 6-2 4-3m0 4q0 3 3 1 2 0 1-2-2-1-4 1m4 10-3-4q-2-2 1-2c2 0 5 4 4 4m-5 4q0-4-5-6-3 1-2-1l-3 1q-1 2 2 2 5 1 6 5m-1-9 1-3-3-1q-2-1-2 1l-1 2zm-5-7 1 2-2 2h-4zm-6 5s4-1 3 1l-1 3-3 2h-3zm15-11s2 0 2 2l-1 1-2-1m-3 2q0-2 1-1v-1zm4 3 2-1zm3-3-2 1zm-24 15q2 0 3 2l-2 4h-2zm6 0h3l-1 3q2 2 0 2l-2-1q-2 0 0-4m-4 7-1 1-1 2v-2zm1-2 2 2 3-1-3-2q-1-1-2 1"/><path d="M533 312q-1 2 1 3v2l-2 3 2 2q2 2 3 1l1-5 2-1-3-3zm-6 9 2 2q4-2 0-3zm4 2 1 3 2 1q3-2 0-4zm1 4 2 2-1 3q-2 1-2-1zm-2 7 3-1 1 2v3h-2l-1-2zm5 7q-1-2-3-1v2q0 3 2 3zm-7 9q2 1 3-2 0-4-4-6l-3 1zm-7-12 2 4s2-2 1-3"/><path d="M524 339v-2q-3-1-3 1m0-6q0 3 2 3l1-4-1-2-2 1zm2-7v2q3 2 2-1h2q-2 2 1 2t2-2l-5-2zm3 3-1 4q-1 2 2 2 2 0 2-2 1-3-3-4m0 9 1 3 3 1 1-2-2-3q-2-2-3 1"/></g><path fill="none" stroke="#9f8d79" stroke-miterlimit="10" d="M559 275s1 6-1 6l-6 1-3-3-3-4m9 35-4 2-3-1m7 1s-3 4-6 3l-3-2m9 3-2 1-4 1-7-3m-2 2 3 2c2 1 8 4 12 0m-4-10 2-1m0 1h-1"/><path fill="#494037" d="m548 308 2 2 2-3-4-2z"/><g fill="none" stroke-miterlimit="10"><path stroke="#af6d4a" d="m576 289-3 3-1 6 2 3 8 4 4-1 3-2m-14-14-3 3-8-2 6-4m-7 6 7 1 1 5-1 4-9 3-2-7zm28 15h-6l-2 2-1 10 1 3 5 3 5 1 7-2m-22 0h4l5 6v10q0 2-4 4c-2 1-8 4-10 0-3-4-7-14-7-15l2-2zm6 22q3-2 6 0l5 10v7l-7 5q-3 1-4-2l-9-12q-2-4 1-5zm11 22h2l9 8 1 2 1 11q1 3-2 1l-13-13c-1-2-4-8-2-8zm15 6-3-1-7-6-2-2v-6l2-1 9 1m0-1-9-1q-2 0-3-3l-2-4 1-1 11-5m-1-4-6 4-5 2h-3l-3-3v-3l2-11 1-1 8-3"/><path stroke="#af6d4a" d="M565 285q2 0-2 2-5 3-6 9l1 8q1 2-3 3m16-4h3l5 3 1 2 1 3-1 7-3 3-9 3q-3 0-3-3l-1-8c-1-1-3-8-1-8zm-3 38-5-12-1-1-3 1 1 6 5 9 1 2 2-1zm-5-19-4-12q0-3-2-2l-2 1 3 15 1 2q5-1 4-4zm19 43-7-9-4-7q0-2-2-2l-2 1 6 10 8 10zm26 28-9-8-10-13q-1-2-3-1l-1 1 7 9 15 14z"/><path stroke="#000" d="m555 303 3 21 2 11 5 9 8 14 19 23c3 2 15 16 16 14"/><path stroke="#b49578" d="m552 323 2 5q-2 4-8 4h-4m0 1 8-1q3 0 4 2l3 7q1 3-2 5l-6 3m2 3 6-4q1-2 4 1l5 9v4l-3 4m1 1 4-5q2 0 5 5"/></g><path fill="#494037" d="M578 369h-3l4 4 1-1zm-3 3-1 5h2l2-4zm-3 5s0-4 1-2l1 4q3 0 1 2l-3 1zm2 7 1 5h2l1-3q1-1-2-3-2-1-2 1m3 7 2 3q0 3 1 2l1-3-1-2zm4 5v4h2l1-2q0-2-3-2m0-6 1 3h2q2-1 0-3zm2-6-1 3 2 1 3-1-2-3zm2 5 1 2q0 2 2 1 3-2 2-3l-3-1zm6 3-2 1-2 2 2 2 2 1h2z"/><path fill="#494037" d="M586 395q-1-2-2-1v3l2 1h2l-1-2zm-2 6-1 3 1 3 4 3q3 0 1-2c-1-2-4-8-5-7m1 10 3 1 2 1q1 2-1 1zm8-10-2-1-3 1 1 4 1 3h2l2-1zm1 9h-3v2l2-1zm-16-32q2 3 3 1 2-2 1-3l-3-1zm-1 2v2l1 2 3 2 1-5zm7-2-1 1v3q2 2 4 1l1-1zm4 5q-2 0-1 2l2 2 1-1zm-16 18-1-3c-1 2 2 6 1 3m-4-5q0 2 2 1l-1-2zm-1-4q0-3 1-2l2 1c-1 0-2 3-3 1m4 0v3q2 0 2-3zm-3-11 1 3q0 3 1 2l1-4-1-2q-2-1-2 1m-2 4s1-2 2-1l1 3-3 1z"/><g fill="none" stroke="#000" stroke-miterlimit="10"><path d="m546 275-3-5-2-5c-1-3-5-5-4-5 0 0 6-5 11-2s14 8 14 14q0 13 2 13"/><path d="M548 285s-8-8-9-11c0-4-3-12-1-13"/><path d="M547 284v8l-2 2"/><path d="M553 294s-3-3-7-1l-3 2-3 2c-1 2-3 1-8 5l-8 9c-2 1-3 11-3 14v13l7 12q3 2 6-4v-14l4-13 5-5c2 0 8-5 8-5m4-13c0-2 4-9 7-10s6-3 10-1l15 16a123 123 0 0 1 22 56c0 6 2 8 1 17l-1 19c-1 5-6 2-8 0l-20-20-11-15-7-13q-3-1-5-7-2-9-1-12c0-1-3-6-2-30z"/><path d="M539 318c1-2 4 3 7 4 4 2 10 1 10-2"/><path d="M541 318c0 6-1 29 31 56"/><path d="M573 363c0 8-3 22 3 33l9 14q3 4 8 4 2-2 2-5l-2-5-2-10-1-11"/></g><path d="m548 262 1 3-3-1-1-3z"/><path fill="none" stroke="#000" stroke-miterlimit="10" d="M568 371s-3 11-2 22q3 14 5 14 2 1 3-1c1-1 6-3 5-4"/><path fill="none" stroke="#000" stroke-miterlimit="10" d="M609 357q0-9-6-28a126 126 0 0 0-16-28c-3-4-12-14-16-16h-7q-2-1-2-13c0-6-9-12-14-14-5-3-11 2-11 2l1 1c-2 1 1 9 1 12l8 11-1 3v3c-3-2-11-11-18-12q-12-2-16 2c-2 1-8 6-10 11h12l7-2q10 2 7 3l2 4 4 4-2 2-8 9c-2 1-3 11-3 14v13l7 12q3 2 6-4 2-6 0-8v-6l4-13 1-1h2c0 6-1 27 27 53 0 0-3 11-2 22q2 14 5 14 1 1 3-1c1-1 6-3 5-4l6 8q3 3 8 4 3-2 2-5l-2-5-2-10-1-11 10 10q4 4 8 2l1-2 1-19c1-9-1-11-1-17z"/><path fill="url(#sh-ac-ac-bw)" d="m13 393 1 33c3 7 11 3 15-1l18-17 15-16 14-18 6-9 12-21c2-4 5-5 9-13 3-9 1-19 1-21l2-10q2-9 2-41c0-4-8-16-13-17l-4-2a15 15 0 0 0-12 0 139 139 0 0 0-27 27 217 217 0 0 0-26 49q-12 34-11 48c0 10-4 14-2 29" transform="translate(317 146)scale(.58162)"/><path fill="url(#sh-ac-ac-D)" d="m78 394-2-20-14 18-15 16c-3 9 1 16-2 20a37 37 0 0 0-4 17l-3 9c0 1 0 8 4 8q8-1 14-6l9-15 6-10a73 73 0 0 0 7-37" transform="translate(317 146)scale(.58162)"/><path fill="url(#sh-ac-ac-E)" d="m65 441 10 8q3 4 5 1 3-1 8-25c2-18-3-38-3-38l-7 7a73 73 0 0 1-7 37z" transform="translate(317 146)scale(.58162)"/><path fill="#e6c7ac" d="m361 363 1 11 4-3c28-26 27-47 27-53l-6 4c-3 2-9 1-9-2l-1 6q1 3-1 12-2 6-5 7l-7 13z"/><path fill="url(#sh-ac-ac-F)" d="m135 296 1 2 8 23-1 9c0 4-3 7 0 15 2 7 8 9 10 6l13-21c1-4-1-15-1-21s-2-23-5-24l-13-16c-8-6-13-5-13-8-1-2-6-3-6-3l-4-3-2-4c1-4-1-13-1-13 4-4 13-13 13-18 1-6 5-20 2-21q4-2 3-3s-11-8-20-3-23 15-23 24a45 45 0 0 1-5 23l5 2c4 1 12 13 12 17q0 32-2 41c0 5 9 7 16 4l9-7q3-2 4-1m-17-91q-2-4 1-5l5-1q2 1-1 4-4 3-5 2" transform="translate(317 146)scale(.58162)"/><path fill="#f0ceb8" d="m386 262-1 3 3-1 1-3zm1 1v1zm0 0h1z"/><g fill="none" stroke-linecap="round" stroke-linejoin="round" stroke-width="0"><path d="m388 275 3-5 2-5 3-4 1-1s-6-5-11-2c-6 3-14 8-14 14l-2 13"/><path d="M386 285c2-2 7-8 7-10 1-4 3-12 2-13m-8 22v8l1 2m-8 0s4-3 8-1v1l3 2 3 1c0 2 3 1 8 5l8 9 3 14v13l-8 12q-2 2-6-4v-8l1-6-4-13-1-1-4-3-9-6m-4 11 1-24c0-2-5-9-7-10l-3-1h-7l-16 16q-6 7-15 28a85 85 0 0 0-6 28c0 6-2 9-1 17l1 20c1 4 6 1 8-1l11-10 9-10 8-10 3-5 7-13q2-1 5-7 2-9 1-12z"/><path d="m393 318-6 4c-3 2-9 1-9-2m17-2h-2m0 0c0 6 1 27-27 53l-4 3h-1"/><path d="m361 363 1 11q0 11-4 22l-4 6-5 8-8 4q-2-2-2-5l1-5 3-10 1-11m42-121-1 3 3-1q2-1 1-3z"/><path d="M387 263h1zm-21 109s3 11 2 22q-3 14-5 14-2 1-3-1c-1-1-6-3-5-4"/></g><path fill="url(#sh-ac-ac-G)" d="m108 273-6 29-2 15s-1 9-4 13l-11 19c-4 9-7 16-24 35l-27 30s-14 14-17 15q-1 1 2 1l6-2 25-23 27-33c16-21 13-24 19-31a34 34 0 0 0 9-22l-1-8 4-23z" transform="translate(317 146)scale(.58162)"/><path fill="#f0955d" d="M366 341c0-3 4-11 5-12q0-2 1-1l3 1-1 6-6 9-1 2-1-1q-2 0-1-4m6-19 3-12 2-2 2 1-3 15v2q-6-1-4-4m-19 43 7-9 4-7 1-2 2 1-5 10-8 10zm-26 28 9-8 10-13q2-2 3-1l1 1-7 9-15 14zm53-86-4-3 2-8q-1-6-7-9l-2-2 6 2 5 10zm-16-4h-3l-5 3-1 2-1 3 1 7 3 3 9 3q2 0 3-3l1-8c1-1 3-8 1-8z"/><path fill="#fdf2e8" d="m377 283 7 1q-2 3-3 2c-2 0-7-3-4-4"/><g fill="#d5ccc0"><path d="m396 264-1 2-2 7-8 11q0 3 1 2v4l-2 2q-1 0 0 0 3 0 4 3l1 1c-1 2 0 6 1 4l3-3 2 2 5 3 7 7 5 9c1 5 0 0 0 0l-2-7-5-5-7-6-4-3-2-1-1-1-3-2v-1l-1-1v-7l6-7 2-7z"/><path d="M385 311h-3q-2 1-3-2v-12s1-2-2-6l-5-5h-1s2-2 2-5c1-3 1-9 2-7v7l8 1 2-3 3-3v1l-3 4q1 1-1 2-2 2-3 1l-4-1h-1l5 3h4l-4 1q-1 2-4-1l-2-3v3l6 5 2 1-3 2 1 2 6 13q4 5 2 5zm11 7 7 15-2 8c0 4 1 10 3 8l3-2q-1 5-4 3-3-1-4-8l1-6v-4z"/><path d="M383 312s0 3 2 2h2q-1 2 1 2l3 1 1 1-3 3 4-3 1-1-9-6z"/></g><path fill="#fdf2e8" d="M391 270q0-3-4-1c-4 2-3 6-6 5-2-1-7-3-6-1q1 5 5 6 3 0 11-9m-6 9-5 1q-3 0-1 1l3 1zm-7 8 3 3 2-3zm19-27s-5-3-8-2l-8 4c-1 0-3 4-4 3v-2c2-1 8-6 11-6l8 2zm-25 13 1 3-2 10-1-1z"/><path fill="#d5ccc0" d="M379 309s2 1 2 3v9c1 1 8 2 5 2l-7-1q-1-1 0 0l-1-2z"/><path fill="#ad5f38" d="m364 303-5 2 7-2zm5 1-6 3 8-2m1 2-8 1h7m0 3-12-2 11 5m0 1-12-3 11 8m0 0-11-6 10 9m-1 1-5-5 3 5m-3-1-5-7 2 6m-2-1-2-4 1 3"/><path fill="#f0955d" d="m357 289 4 3v6l-1 3-8 4-4-1-3-2m14-14 3 3 8-2-6-4m7 6-7 1-1 5v4l10 3 1-8q-1-5-3-5m-28 15h6l1 2 2 10q1 2-2 3l-4 3-5 1-7-2m22-1q-2-1-4 1l-5 6-1 2 1 7 3 5c3 1 9 4 11 0 3-4 7-14 7-15l-2-2zm-6 22q-4-1-6 1l-5 10c-1 1-2 6 0 7l7 5q3 1 4-2l9-12q2-4-2-6zm-11 23h-2l-9 7-2 3v11q0 3 2 1l12-13c1-2 5-8 3-8zm-15 6 3-1 7-6 2-2v-6l-3-1-8 1m0-1 9-1 3-3 2-4-1-1-11-5m1-4a19 19 0 0 0 11 6h3l2-3v-3l-1-11-2-1-8-3"/><path fill="none" stroke="#af6d4a" stroke-miterlimit="10" d="M369 285q-3 0 2 2 5 3 6 9l-2 8 4 3"/><path fill="#ad5f38" d="M373 292h-7l5-1m2 2h-8l9 1m0 2-8-1 8 4m0 1-8-2 7 5m-2 0-4-3 2 3m0-14h-6l5-2zm-3-3-3 1zm-5-1v1l2-1zm-2 5-2 1h3m0 1h-1l1 2m0 2-3-2 3 4m0 1-5-2 3 4zm-5 4-2-5 3 4m-3 2-1-4-1 5m-1 0-1-3-2 3m-1-1 1-2zm0 3-2 1h5zm4 3-6-1 6 3m0 2-6-2 7 4m0 2-8-4 8 6m-1 2-8-7 6 8m-2 2-6-7 2 8m-3-1-2-5v5m-2-1v-4l-2 4zm1 2h-3l5 1m3 1h-7l8 2zm2 4h-8l8 3m0 1-7-2 8 5m0 2-8-4 8 6m-2 1-6-6 4 8m-2 0-6-7 2 6m-3-1-2-6v4m5 6-5-1 9 3s-1-2-4-2m3 3-7-2 6 4m-1 2-5-5 4 7m-2 0-5-6 3 6m-2 1-3-7 1 7m8 6-5-2 5 4m-2 1-4-3 3 4m-1 2-5-7 3 8m-1 1-3-9 1 10m-1 1-1-6v6m37-48h-6l12 2m1 1-13-1 12 3-13-1 12 3m0 2-14-3 12 5m-1 3-9-5 8 8m-1 1-9-7 6 9zm-5 2-6-9 3 8m-3-1-1-6-1 4m11 8-9-2 9 4-10-3 9 5z"/><path fill="#ad5f38" d="m358 353-11-3 10 5m-1 0-10-3 9 6m-1 1-8-5 6 8m0 1-7-7 6 8m-1 1-6-8 4 10zm-4 2-3-8v6m-1-1-1-4-1 3m3 7-4-2 3 5m-1 1-4-3 3 5m-1 1-4-5 3 7m-2 1-4-7 3 9m-2 1-3-8 2 10m-2 1-2-10-1 13"/><path fill="#d5ccc0" d="M358 366s3 12 1 23 2-2 2-2v-24zm-9 44s-9 6-9 2l3-7c0-1 0-5-1-3-1 1-1-4 1-6s3-6 2-6q-2-2-1-5c0-2 5 3 10-13l-10 10-1 7-1 8-2 7-1 6q0 3 2 4 3 0 8-4"/><path fill="#fdf2e8" d="M344 389q-1-1 1-1zm-3 12q0-2 1-1z"/><path fill="#d5ccc0" d="M362 381s1-5 3-4c2 2 3 11 3 11s0-9-2-17l-5 4zm-3 13s2 13 3 11l6-13s-1 8-4 14q-3 3-5 0l-5-4z"/><path fill="#c6ac95" d="M381 323s-2 1-2 3v8l-4 8-6 7 3-5q3-3 5-10v-8l1-5s1 2 3 2m6 0s5 2 5 5l1-9z"/><path fill="#caa178" d="m381 323-1 5q2 4 8 4h4l1-13-6 4zm10 10-7-1q-4 0-4 2l-3 7q-1 3 2 5l5 3zm-9 19-5-4q-2-2-4 1l-5 9v4l3 4zm-21 15q3-5 4-4c2 0 5 4 5 4l-9 7z"/><path fill="#c6ac95" d="m364 363-3 4v-4l6-9-1 6z"/><path fill="#b28f6b" d="M364 363q-2 5 1 8l-4 4-1-7z"/><path fill="none" stroke="#9f8d79" stroke-miterlimit="10" d="M385 286s-4 3-7 1c-4-3-3-9-3-9"/><g fill="#494037"><path d="m381 261 2 1-2 2-1-2q0-1 0 0zm-3 2s2 3 1 4l-2 1-2-2q0-1 0 0zm0 8-1-1h4v2zm-5-3 1 2-2 2zm10-9 3 1q2-2 0-2c-3 0 0 0 0 0zm8-2-3-1zm2 3-1 3h-2l-1-3v-1zm-3 5q3 1 1 2l-2-1zm-2 1-2 1q-1 2 1 2zm3 3-2 2-2 1v-2zm-11 3q-2-2-3 1l1 2 1-2zm-3 2q-1 1-1-1h-2l2-1zm-5 1 1 1v1h-1zm13-1h2v-2l-3-1zm-2-2v2q1 2-2 2v-2l1-2zm2-2-1 1q-2 0-1-2l1-1zm-3-4-1 2-1-3 3 1zm2 10v1l-1-1zm-5 0 1 1zm4 13h-2l1-1q2 0 1 1m-3 1-2-1v2zm3 3-1-1-2 1h1zm-10-8q1 0 0 0m-2-4 1 2-2 1m9 17q1-5 5-2 6 5 2 5-4 2-6 0zm7-6-1 1q-1 2-2-1c1-2 5-1 3 0m6 4h5l-1 3c-2 0-6-2-4-3m-1 4q1 3-2 1-2 0-1-2 2-1 3 1m-4 10 4-4q1-2-1-2c-2 0-5 4-4 4m5 4q0-4 5-6 3 1 2-1l3 1q1 2-2 2-5 1-6 5m1-9q-2-1-1-3l3-1q2-1 2 1 2 3 0 2zm5-7-1 2 2 2h4zm6 5h-4l2 4 3 1q1 2 3 0zm-16-11-1 1v2l3-2m3 2-1-1zm-5 3-1-1zm-2-3h2zm23 15-2 1 1 5 3-1zm-5 0h-3l1 3-1 2q2-2 3-1 2 0 0-4m4 7h-1v2l2 2v-2zm-2-3-1 2h-3z"/><path d="M401 312q1 2-1 3v2l2 3-2 2q-2 2-3 1l-2-5-1-1 3-3zm6 9-2 2q-3-2-1-3zm-5 2v3l-2 1q-3-2 0-4zm0 4-2 2 1 3q2 1 2-1zm2 7-3-1-1 2-1 3h3l1-2zm-5 7q1-2 3-1v2l-2 3zm7 9q-2 1-3-2 1-4 4-6l3 1zm7-12-2 4s-2-2-1-3"/><path d="M410 339v-2q2-1 3 1m0-6q0 3-2 3-2-1-1-4-1-1 1-2l2 1zm-2-7q1 3-1 2-1 2-1-1h-2q1 2-1 2-3 0-2-2l5-2zm-4 3 2 4-2 2q-2 0-2-2-1-3 3-4zm0 9-1 3-2 1-1-2 2-3q2-2 3 1z"/></g><path fill="none" stroke="#9f8d79" stroke-miterlimit="10" d="M375 275s-1 6 1 6l5 1q4-1 4-3l3-4m-9 35 4 2 2-1m-6 1s3 4 6 3l3-2m-9 3 2 1 4 1 7-3m2 2-3 2c-2 1-8 4-13 0m4-10-1-1m-1 1h2"/><path fill="#494037" d="m386 308-2 2-2-3 4-2z"/><g fill="none" stroke-miterlimit="10"><g stroke="#af6d4a"><path d="m357 289 4 3v6l-1 3-8 4-4-1-3-2m14-14 3 3 8-2-6-4m7 6-7 1-1 5v4l10 3 1-8q-1-5-3-5zm-28 15h6l1 2 2 10q1 2-2 3l-4 3-5 1-7-2m22-1q-2-1-4 1l-5 6-1 2 1 8 3 4c3 1 9 4 11 0l7-15-2-2zm-6 22q-4-1-6 1l-5 10c-1 1-2 6 0 7l7 5q2 1 4-2l8-12q3-4-1-6zm-11 23h-2l-9 7q-2 1-2 3v11q0 3 2 0c2-3 12-11 12-13 1-1 5-7 3-7zm-15 6 3-1 7-6 2-2v-6l-3-1-8 1m0-1 9-1 3-3 2-4-1-1-11-5m1-4a19 19 0 0 0 11 6h3l2-3v-3l-1-11-2-1-8-3"/><path d="M369 285q-3 0 2 2 5 3 6 9l-2 8q-1 2 3 3m-15-4h-3l-5 3-1 2-1 3 1 7 3 3 9 3q3 0 3-3l1-8c1-1 3-8 1-8zm3 38c0-3 4-11 5-12q0-2 1-1l3 1-1 6-6 9-1 2-1-1q-2 0 0-4zm5-19 4-12q0-3 2-2l1 1-2 15-1 2q-6-1-4-4zm-19 43 7-9 4-7 1-2 2 1-5 10-8 10zm-26 28 9-8 10-13q2-2 3-1l1 1-7 9-15 14z"/></g><path stroke="#000" d="m379 303-4 21-1 11-6 9-7 14-19 23c-3 2-16 16-17 14"/><path stroke="#b49578" d="m381 323-1 5q2 4 8 4h4m0 1-8-1q-4 0-4 2l-3 7q-1 3 2 5l5 3m-2 3-5-4q-2-2-4 1l-5 9v4l3 4m-1 1-5-5-4 5"/></g><path fill="#494037" d="M356 369h2l-3 4-1-1zm3 3v5h-2l-1-4zm3 5c-1 0 0-4-1-2q-2 3-1 4-3 0-1 2l2 1zm-2 7-1 5h-3l-1-3 2-3q3-1 3 1m-3 7-2 3q0 3-1 2l-1-3 1-2zm-4 5v4h-2l-1-2q0-2 3-2m0-6-1 3h-2q-2-1-1-3zm-2-6 1 3-2 1-3-1 2-3zm-2 5-1 2q1 2-2 1l-2-3 3-1zm-6 3 2 1 2 2-2 2-2 1h-2z"/><path fill="#494037" d="m348 395 1-1 1 3-2 1h-2l1-2zm2 6 1 3-1 3q0 2-4 3-3 0-1-2c1-2 4-8 5-7m-1 10-3 1-2 1q-2 2 1 1zm-8-10 2-1 3 1-1 4-1 3h-2l-2-1zm-1 9h3v2l-2-1zm16-32q-1 3-3 1t-1-3l3-1zm1 2v2l-1 2-3 2-1-5zm-7-2 1 1v3q-2 2-4 1l-1-1zm-4 5q2 0 1 2l-2 2-2-1zm16 18 1-3c1 2-2 6-1 3m4-5q0 2-2 1l1-2zm0-4q1-3-1-2l-1 1c1 0 2 3 2 1m-3 0v3q-2 0-2-3zm3-11-2 3v2l-1-4 1-2q2-1 2 1m2 4s-1-2-2-1l-1 3 3 1z"/><g fill="none" stroke="#000" stroke-miterlimit="10"><path d="m388 275 3-5 2-5c0-3 5-5 4-5 0 0-6-5-11-2-6 3-14 8-14 14l-2 13"/><path d="M386 285s8-8 8-11c1-4 3-12 2-13"/><path d="M387 284v8l1 2"/><path d="M380 294s4-3 8-1l3 2 3 2c0 2 3 1 8 5l8 9 3 14v13l-8 12q-2 2-6-4v-8l1-6-4-13-5-5-9-5m-3-13c0-2-5-9-7-10s-6-3-10-1l-16 16q-6 7-15 28a85 85 0 0 0-6 28c0 6-2 8-1 17l1 19c1 5 6 2 8 0l20-20 11-15 7-13q3-1 5-7 2-9 1-12c0-1 3-6 2-30z"/><path d="M395 318c-1-2-4 3-7 4-4 2-10 1-10-2"/><path d="M393 318c0 6 1 29-32 56"/><path d="M361 363c0 8 3 22-3 33l-9 14-8 4q-2-2-2-5l1-5 3-10 1-11"/></g><path d="m386 262-1 3 3-1 1-3z"/><path fill="#fff" d="M387 263h1z"/><g fill="none" stroke="#000" stroke-miterlimit="10"><path d="M366 371s3 11 2 22q-2 14-5 14-1 1-3-1l-6-4"/><path d="M325 357a82 82 0 0 1 6-28 126 126 0 0 1 16-28l15-16h8q2-1 2-13c0-6 8-12 14-14 5-3 11 2 11 2l-1 1c2 1-1 9-2 12 0 3-5 9-7 11v3l1 3c2-2 11-11 18-12q12-2 16 2c2 1 8 6 10 11h-12l-7-2q-9 2-7 3 1 2-3 4l-4 4 3 2 8 9 3 14v13l-8 12q-2 2-6-4v-8l1-6-4-13-1-1h-2c0 6 1 27-27 53 0 0 3 11 2 22q-3 14-5 14-2 1-3-1l-6-4-5 8-8 4q-2-2-2-5l1-5 3-10 1-11-11 10q-4 4-7 2h-1v-2l-1-19c-1-9 1-11 1-17z"/></g><path fill="#012169" d="M0 0h320v240H0Z"/><path fill="#fff" d="m38 0 122 91L281 0h39v31l-120 90 120 89v30h-40l-120-89-119 89H0v-30l120-89L0 32V0Z"/><path fill="#c8102e" d="m212 141 108 79v20l-135-99Zm-92 10 3 17-96 72H0ZM320 0v2L196 96l1-22 98-74ZM0 0l120 88H90L0 21Z"/><path fill="#fff" d="M121 0v240h80V0ZM0 80v80h320V80Z"/><path fill="#c8102e" d="M0 97v48h320V97zM137 0v240h48V0Z"/></svg>