<svg xmlns="http://www.w3.org/2000/svg" viewBox="0 0 640 480"><path fill="#006" d="M640 480V0H0v480z"/><path fill="#012169" d="M0 0h320v240H0Z"/><path fill="#fff" d="m38 0 122 91L281 0h39v31l-120 90 120 89v30h-40l-120-89-119 89H0v-30l120-89L0 32V0Z"/><path fill="#c8102e" d="m212 141 108 79v20l-135-99Zm-92 10 3 17-96 72H0ZM320 0v2L196 96l1-22 98-74ZM0 0l120 88H90L0 21Z"/><path fill="#fff" d="M121 0v240h80V0ZM0 80v80h320V80Z"/><path fill="#c8102e" d="M0 97v48h320V97zM137 0v240h48V0Z"/><path fill="#128bbf" d="M581 197c0 68-11 141-99 176-89-35-100-108-100-176z"/><path fill="#e8ece9" d="M482 373c40-16 65-42 79-69h-9c-2-1-85-7-95-10-9-3-41 2-56 8 14 29 38 54 81 71"/><path fill="#69522b" d="m420 331 5-1h2q0-2 2-1 2 2 3-1h2l2 1 3-3 2-1 2 1v2h3q2 2 2-1l-1-9-2-5q1-4-4-7 0-2-4-1l-1-3v-2l3-1h11l5-3q3-1 3-3l-2-10-3-8-4-7-1-2-2-4q-4-6-6-20c0-4 0-13-2-15l-6-3-3-9-5 3q-2 1-2 3l-3 8c-2 3-5 2-8 6q-7-9-6-11l-5-5v-7q-5-2-6 0l-4 5-7 9c3 38 11 75 37 105"/><path fill="#bca76b" d="m581 197-1-72c-33-15-76-18-98-18-23 0-66 3-99 18l-1 72z"/><path fill="#cfa763" d="m388 227 3 6 1-3q2-2 1-4 0-2 1-1v4l-3 10c3 7 1 10 4 17h9q3 1 4 4v3l2 3v5q-2 1 1 3c1 2 4 9 4 13s0 6 2 6q3 1 2 4l1 12 1 2 4 1h5l4 9 1 5q2 1 1-3l-1-4-1-3v-4q-1-2 2 0l3 3v4q0 2 1 1 2-1 1 2l2 3 2 1q1 2 1 0l-1-8-1-5-1-3-2-1-1-1-1-1-1-1-2-1-1-2-1-4-1-3-3-4q0-2-1 0 0 3 2 4l1 1v5h-1l-1-4q-1-2-2-1l-1-1v-2l1-2-4-11v-2l3 5 1 3 1-1v-3q-4-3-6-13-1-10-3-13l-1-4-1-5q-1-2-1 1v10q-1 2 2 5 2 2 1 3l-1-1-2-3-1-2v-3h-1l-1 4-1-1 1-6 1-8q-1-5-3-7l-7-9-2-8-5-4v-5q1-2-2-1l-3 3-2 3q-3 4-3 8"/><path fill="#cfa763" d="M395 258h8q3 4 3 7-1 5 2 9 5 4 5 9l1 9 2 4 2 6v5q0 3-1 2l-2-2v1q1 3 3 3l3 1 2 1 4 1h2l2 2 2 6v5l-1-1h-2l-2-2-1-1-1 2h-3l-2-2-1-1-2-1-1-1-1-1-1-2-1-1-1-1v-5l-1-2-2-3q-2 0-3-4l-2-12-3-2q-2 1-2-2l-2-6-2-2v-17z"/><path fill="#d7c99c" d="M429 317q-1 2-3 1l-1-2v-2l-1-1h-1l-2-1h-1l-1 2-1-2v-1l-4-3q1-3 1-1l2 2q1 1 1-2v-1l-1-1q-2-1-1-2 0-3-2-1-1 1-1-2t-2-1q0 2-1-1-2-4-2-1t-1 1v3l3 4 2 3 1 2v5l1 1h1l1-1q2-1 4 2 0 3 2 1 1-2 2 0l1 1h2q1 1 3-2 0-2-1 0"/><g fill="#7fb8c1" stroke-width="4"><path d="m429 332 11-3 6 3h-5l2 2-6-1q-4 1-8-1m5 4 6 1q-1 2 3 2l-2 1 9-2c-2 3-12 5-16-2m4 6h6zm5 0h11l-6 2zm2 3 10-1 6 2h-6a11 11 0 0 1-10-1"/><path d="M448 346q4 1 7-1l4 1 4 2-8-1-8 2zm-3-12c2 1 9 0 12-1q3-1 1 1-9 3-13 1-3-2 0-1m34-9c-9 4-14 5-26 1q-2 0-1 1l9 3q3 1 1 1-2 1 0 0l11 1h1l2-1v-2l-1-1h3z"/><path d="M465 326c4 0 13-2 18-7l5 3 1 1-6-1q-11 6-18 4-3 0 0 0m-8-14-4 1-2 1q1 1-1 1h-2l1 1h3l4-2q3-1 1-2"/><path d="m453 316 9 2q3 1 0 1a13 13 0 0 1-10-2q-1-2 1-1"/><path d="M481 319h-13q3 3 7 2-11 3-12 1h-11q-1-2 1-1 4 0 1-1-4 0-2 2l12 1a20 20 0 0 0 18-4l-1-1zm-10-5-4-1q-2 0-1 1 3 2 6 1h3l4 1q2 0 0 0l-2-2h4l3-1 1-1-4 1h-3l-2-1q-1 0 0 0v-1h-6l-3-1v1l5 2h-1q-2 0 0 1m39-3q-5 4-12 3v1q9 0 13-3 0-2-1-1m-22 6 8 2 1-1q-1-1 2-1h8l3-2-11 1h-7z"/><path d="m507 317 3-2 4 1 1-1q-1-1 2-1h13q0 3 1 1l3 1 11 1 2 1-2 2h-1l-3 1-3 1h-8l-5-1-5 1q-2 0-1-1l3-1q4-1 2-2h-3q-2 2-5 1l-4-1zm6 3-5-1q-3 0-1 1l6 1q2 0 0-1m-3 2h6l1 1h-6q-2 0-1-1m-26 7c2 0 9 0 11-6h1q1 2 10 3 3 1 0 1l-10-2q-5 5-12 5-2 0 0-1"/><path d="m498 322-5 3-6-1q-3 0-1 1l6 2 5-1 4 2h5q2 2 0 1h-5q2 3 6 4v1h4l1 1q1 0 0 0h-4a20 20 0 0 0 13 3q2 0 0-1h-4v-1l5-1q2 0 0 0l-6-1q-2 0-1-1l3-1q-7 0-6-4v-1l-5-1q-1-1 1-2-4 1-10-2m32 0-7 2q-2 0 0 0h3l1 1h4l6-1q2 0 0 0h-7s-3 0-1-1l2-1zm-1 4-6 2 5 3-2 1q2 1 6-1 5 2 9-1l-6-1 2-2q-4 1-8-1"/><path d="m526 333 2-2c-2 1-9 0-12-2q-3-2 0 1 1 2 10 3m6 5h-9q0 2-1 1l-5 1q-2 1 0 1l6-1h7q2 0 0 0t0-1zm-46-6-10 3-5 1 5 1-3 2h5l-7 2 2 1-6 1 2 1h-6q3 3 10 2l9-4h-6l10-4h-3l8-1-4-3a37 37 0 0 0 19 1q2-2-1-2-6 1-11-1l5 2q-4 2-13-2"/><path d="m473 338 3-2-5-1 5-1-8-1h-5q-2 1 4 1l-9 1 1 4 11 3q-5-1-2-3zm-7 7q10 1 18-5h1q-5 6-17 7-5-1-2-2m39-8-6 1h-3v1h4l-2 2h6-2c3 3 11 3 13 3l-2 1 8-1-5-1 2-1h-5l2-1-12-1 8-2zm-11 2-7 2q-1 1 1 1v-1q-2 0 0 0zm-5 5 6-1 5 2q3 1 0 1l-5-2zm-25 15q6 2 11 1l8 1h6l8 2h-4l1 1-12 3q2-3 6-4l-10 1-1-2q-7 2-13-4m-8-5 8-3h6v2l-8 1q-3 2-6 1t0-2"/><path d="m471 352-8 1 1 2 16-1-6 2h9l1 2v1l7-1-3-1 3-2h-5v-2l2-1q-4 1-8-1l4-1-2-1q3-3 12 1h7l4-3c-6 0-18-1-18-4q-4 4-9 3l2 3-8 1 4 1z"/><path d="m484 359 7-1-3-1 3-2 11-1h8l-6 1 3 2-5 2-4 1-6 2q-3-2-7-1 3-1-1-2m21-12h6l-2 1h10q-3-1-4 1v1q3 1 1 1h-8v-1l4-1h-5v-1zl-5 2zm-17 2q2 3 8 3 2 1 0 1-7 0-9-4zm58-25q-3 2-1 5l14-20v-1l-5 3q-1 3-4 5l-1 3-2 1-3 2h3l-1 1-2 1q4-1 2 1m-95-24q2 2 8 3l6 3-6 2-3-1v2l7 1q3-1 1 1-6 2-11-3-2-5-9-2l-1-2-2-1z"/><path d="m452 307-5 2q-2 1 0 1l5-2zm7 5v1l1 1 1-1h4v-1zm26 0 9 1 2-1h5l3-1 3-1h1-6l-5 1h-11m31-1 11 2q2 1 0 1-6 1-12-2-1-1 1-1m2 0 8 1 7-1h-1l-8-1-7 1zm14 2 9-1h7l-6 2h-3q-2-2-7-1"/><path d="M548 312h-7l-8 1 4-3h3l4 1q2 1 1-1h5l3-1z"/></g><path fill="none" stroke="#000" stroke-width="2" d="M581 197c0 68-11 141-99 176-89-35-100-108-100-176z"/><g stroke-width="4"><path fill="#cfa763" d="m422 228-5 5q-4 1-4 5 3 2 3 4l2 4q2-1 2 3-1 5 2 5l1 5 3 13 5 13q-1 3 1 5l3 6q-1 2 2 2l3-2h4q2 2 5 1l3-2 4-5-1-2-1-4-2-7-4-8-2-4q0-3-2-3l-3-8-2-9-1-1-1-3v-11l-3-4q-3 0-4-3l-2-6-2 1q-3 2-3 5l1 3 1 4q3 5 0 10-4 3-3 4 0 3-1 1-1-4 2-5l2-4-2-7q0-3-1-1"/><path fill="#d7c99c" d="M396 264v13q3-2 1-4l1-3v-5q0-3-2-1m18 28-1-9q0-5-4-9-4-3-3-7-3-2-2 1l2 6q-2 3 1 3l1 3v2l1 3 1 2v3l1 2q1-1 2 1l2 1zm-8-60q-2 0-1 4 0 4-2 1l-2-5q-1-1-1 3 0 2 2 3 1 2-1 2v4q0 3-1 1v-6q1-3-2-3l-1-2q2-1 1-3v-1l2-1q2 0 2-2-1-3 2-2zm26 26 2-7q2-5 3 1l-2 6q-2 1-1 3 2 2 1 5l1 5 2 4 3 4 3 7q1 3 4 5 1 2-2 2-2-1-2 1-1 2-2-1t-4-3l-3-4-4-3v2q-1 3 1 5l3 6q-1 3 2 2l3-2h4q2 2 5 1l4-2 3-5-1-2-1-4-2-7-4-8-2-4q0-3-2-3l-3-8-2-8q-1 2-2 1 0-3-1-1l-1-2-1-1v-3q-1-3-1 0-2 4-1 5l-1 3v9q0 4 1 1m-12-9q0 4 2 5l2 5 2 13 2 4 2-2-2-5q-1-2 1-5 1-2-1-2-2-1-3-5v-4l-1-3-1-3q2-1-1-1l-2 1z"/></g><path fill="none" stroke="#000" d="m448 248-4 38m14-15-5 20m51-38 10 5m7 12-2 14m0-14-3 15m-60-13-6 17"/><path fill="#666" d="m531 307-1 1v1h-1l-3 1h-9l-2 1h-9l-2 1-5-1-3-1-3 1h-7l-3-1h-3l-3 1-3-1-4-1-3 1h-3q-3 0-4-4l-8-7v-5l-2-2-2-1-2-1-3-1-1-2-2-1-2-1-2-1-3-2 1-1 2 1 3 1 3 1 2 1 3 2 2 1 1 1 2 1 2 1 4 2 10 2h31l10-5 4-5 16-3s28-1 29 2v3c-1 0-27-3-28-1l1 9v3l1 3v3z"/><path fill="none" stroke="#000" d="m450 267-15 14m42-37 15-13m-23 27 12 5m-14-26q3 5 11 8m-15-39-10 8m16 11 8 5m-8 42 4 21m-6 0q12-13 20-28m16-30q4 4 10 6m2-16 7 10m-31-23-5 12m10-10q-4 6-9 9m10-23-7 4m36 26-8 9m9 15-10 8m28 9-18 11m3 1 15-12m-16-40 5 7"/><path fill="#bca76b" d="m526 205-1 78h6l-3-78z"/><g stroke="#000"><path fill="#333" d="m529 305 3 3q4 3 8 0l4 1 4-1 2-3 3-4 3-4 1-4v-4l1-5-4-1-6-1h-5l-5-1h-6l-4 1-1 4v11l1 5z"/><path fill="none" d="m536 268 8 14m11 1-5-9"/></g><path fill="#472b1f" d="m555 260 2 2zm-6 1-4 14zm17 0-2 1zh2zm-16 13h-1zm1 1 3 1zm8 1-5 1z"/><path fill="#fff" d="m549 260-4 15 5-1 4 3 7-2 3 1q1-8 4-15l-3 1-4 1-4-1-3-2z"/><path fill="#c8102e" d="m556 262-2 4-3-1h-3l-1 4h4l2 1-1 6h1l2 1v-1l2-5 4 1 4-1 1-3h-5l-3-1 1-4z"/><path fill="none" stroke="#000" d="m546 260-5-20"/><g stroke="#472b1f"><path fill="none" d="m548 261 6-1 5 4 7-2h3l-1 5-2 5v4l-5-1-7 2-4-3-5 1z"/><g fill="#bca76b" stroke="none" stroke-width="0"><path d="M549 261h-2l-6 20h3z"/><path d="m547 261-1-2 3-1q3 0 2 2-1 3-4 1"/></g></g><path fill="#472b1f" d="M568 262q-3 6-4 14h3v-4l1-5 1-5z"/><path fill="none" stroke="#000" d="m535 245 10 11m-4-18-4-21m-4 53 4 12m0-70q-7-2-8-6m-17 9c2 0 11-6 12-9m10 62 6 14m-6-9 4-2m-4 4 5-2m-3 7 5-2m-10-23 6 6m-19 10-5 14m4-11h4m-5 4h5m-7 3 6 1"/><g fill="#bca76b" stroke="#472b1f"><path stroke="none" d="m529 203-5 1 1 2 4-1z"/><path d="M513 215c2 8 10 6 10 0"/><path d="M520 215c3 9 13 7 13-1"/><path d="M529 215q4 8 10-1m2-2-29 1v2l30-1zm-27 29c2 9 10 7 10 0"/><path d="M522 241c2 10 13 8 13 0"/><path d="M531 241q4 10 10-1m3-2-31 1v2l31-1zm-31 27c2 8 11 7 10-1"/><path d="M521 265c2 12 14 8 13-1"/><path d="M531 264q4 11 10 0m3-3-32 2v2l32-2z"/><path stroke="none" d="M533 227h-12v3h12zm0 25h-12v3h12z"/></g><g stroke="#000"><path fill="none" d="m504 265 8 21m-52-14-4 21"/><path stroke="none" d="M557 284a88 88 0 0 0-27-1l-17 2-2 1-3 6-8 6q-18 1-42-3l-2-2-1-1 2 1h20l17-1h10l2-1 2-3 2-2q3-2 8-2l9-2 12-1h7q5-1 11 2l1 2z"/><path fill="none" d="M500 200q3 3 8 4m-12 49q-6 5-13 6m24 31-7-18m1-6 8 21m-9-16 6-1"/></g><path fill="#bca76b" d="m497 198-2 95h6l-1-95z"/><path fill="none" stroke="#000" d="M504 212q3 7 10 10"/><g fill="#bca76b" stroke="#472b1f"><path d="M485 207c2 8 10 7 10-1"/><path d="M493 206c2 10 13 8 12 0"/><path d="M502 206q3 11 10 0m2-3-31 2v2l32-2zm-29 23c2 8 10 7 10-1"/><path d="M493 226c2 9 13 8 12-1"/><path d="M502 226c2 7 9 5 10-1m2-3-31 2v2l32-1z"/></g><path fill="none" stroke="#000" d="m494 237-9 5"/><g fill="#bca76b" stroke="#472b1f"><path d="M484 244c2 8 10 7 10 0"/><path d="M492 244c2 9 13 8 13-1"/><path d="M501 244c2 7 9 4 10-1m2-2-30 1v2l31-1z"/></g><path fill="none" stroke="#000" d="m488 266-7 27m10-27q-1 14-6 26m9-27-4 27"/><g fill="#bca76b" stroke="#472b1f"><path d="M484 261c2 9 11 7 10 0"/><path d="M492 261c2 10 13 8 13 0"/><path d="M501 261c3 7 9 6 10-1m3-2-31 1v2l31-1z"/><path stroke="none" d="m504 216-11 1v3h11zm0 19h-10v3h10zm0 18h-10v3h10z"/></g><path fill="none" stroke="#000" d="m488 269 5 1m-7 5h7m-8 4 7 2m-9 4 9-1m-10 5h9m-11-23c-1 9 5 19 9 27m17-5 5-2m-6-1 6-3m-8-2 6-2m-8-2 7-2"/><path d="m468 310-2-1h-2l-2-2-2-1-2-2-2-2-1-2-1-2-2-1-1-1h-1l-1 1 1 2 2 1 2 2 1 2 2 1 1 2 2 1 1 1 3 1 2 1zq1 0 0 0m45-22-5 8q10 0 18-2v-8z"/><path fill="#333" d="m513 289-3 6q8 1 15-2v-6z"/><path d="m457 298 19 2 48-2h2l-2 2q-26 2-53 1l-10-1z"/><path fill="none" stroke="#000" d="M464 255q-7 7-16 10m16-28q-6 7-13 9"/><path fill="#bca76b" d="M463 204v90l4-1-3-89z"/><path fill="none" stroke="#000" d="m465 204 10 9"/><path fill="#bca76b" stroke="#472b1f" d="m466 201-5 1 1 3 4-1z"/><path stroke="#000" d="m463 305 1-1h3l1 1 1 1 2-1h2l1 1 1 1h2q0-2 2-2h3l2 1 1 1 1-1 2-1h2l2 1 1 1h1l2-1h1l1-1 2-1 3 1 1 1h1l1-1 2-1 3 1 2 1h1l1-2h6l1 1 2 1v-1l-1-1h2l1 1h2q1 2-1 1l-2 1h-18l-4 1h-28l-2-1h-7z"/><g fill="#bca76b" stroke="#472b1f"><path stroke="none" d="M452 215c2 6 9 5 9 0"/><path d="M459 215c2 7 12 6 11 0"/><path stroke="none" d="M467 215q4 8 9 0m2-2-27 1v1h27z"/></g><path fill="none" stroke="#000" d="m460 226-9 5m4-12-21 64"/><g fill="#bca76b" stroke="#472b1f"><path stroke="none" d="M452 232c1 6 9 5 9 0"/><path d="M458 232c2 8 12 7 12 0"/><path d="M467 232q4 8 10 0m1-3-27 1v2l27-1zm-28 19c2 8 10 7 10 0"/><path d="M458 248c2 11 14 10 13-1"/><path d="M467 248q4 10 10-1m2-2-31 1v2l31-1zm-29 22c2 8 11 7 10-1"/></g><path fill="none" stroke="#000" d="m473 271 7 22m-9-22 5 22"/><g fill="#bca76b" stroke="#472b1f"><path d="M458 266c2 11 14 10 13 0"/><path d="M468 266q4 11 10 0m3-3-35 1v3l35-1z"/><path stroke="none" d="M469 224h-10v2h11zm0 16h-10v2h11zm1 18h-11v2h11z"/></g><path fill="none" stroke="#000" d="m474 273-6 1m7 3-6 2m7 3h-5m7 5-6 1m-21-2 6 1m-4-6 5 1m-4-5 5 1m-4-4 5 1m67 19q16-2 30 1m-29 2q15-3 28 1m-27 6a53 53 0 0 1 22 0m-22 1a48 48 0 0 0 21 1"/><path d="m432 282 21 13h1l-7-5z"/><path fill="none" stroke="#000" d="M536 293v-7m2 0v7m4 0v-8m4 1v8m3-8v8m4-7v7m2-7v8m-18 1v7m-3-7v7m6-7v7m3-7-1 6m4-6-1 6m4-5-1 6m-21-17q15-1 30 1"/><path fill="none" stroke="#000" stroke-width="2" d="m581 197-1-72c-33-15-76-18-98-18-23 0-66 3-99 18l-1 72z"/><path fill="#69737c" stroke="#000" d="m476 155 4 9 1 4-2 8q-2 3-1 5l1 1 1-1 1-1h2v-1h-3v-2l1-4 2-4v-3h1q0-3-3-4v-2l-2-3z"/><path fill="#66452b" stroke="#000" d="m487 160 3 6v2l1 2-3 8-1 7 2-1v-3l2-6 1-4 1-2v-4l-1-1-2-2-1-3z"/><path fill="#fff" d="m472 152 2 2 4 3h6l2 2 1 1 2-1 1-1 4-6-1-10-19 2z"/><path fill="#fff" d="m492 135 7 7 5 6c4 3 17 7 17 8-3-1-4 3-7 3l-8-2q-6-1-11 2h-6m-17-7-6-4q-4-3-4-7-1-6 1-10l-4-6q-3-3-2-7l6-5 7 1q4 0 6 4l3 10q3 3 7 4l6 3"/><path d="M507 153q-2 1-3-1h-8l-8-3q-5 1-8-2-4 0-7-2l-4-7q-1-4 2-7 3 0 5-2l7 1 7 4 7 5 4 6q3 4 7 5c1 1 4 2 1 3z"/><path fill="#69737c" d="m481 145-4-2q-2-1-2-3h4l4-1 5-1 2-2v2l2 2-2 2-5-1-1 2h-4zm29 10h-3l-2-1q-1-1-3 1l1 1-4-1h-1q1 1-1 1l-3-1q-1 2 2 2h-4v1l3 1 4-2h7l3-1zq0-1 0 0"/><path d="m506 157 1-1h2v-1l-1-1-1-1 1-1h4l2 1 1 1h2l2 1 1 1h1-2l-2 2-2 1h-1l-2-1h-3zm-41-44h-2l-2 2-3 2-1 1h2l2-2 3 1h2l1 1h6v2l1 2 1 1v2l1 1 1 1 1 2h3-1l-1-1v-3l-1-1v-2l-1-1-1-2v-1h-1v-1l-1-2-3-1-3-1z"/><path fill="#69737c" d="M475 127h-2l-1 1-3 1-1 2-2 1v3l2 1 1-2 3-2 1-1 1-1 1-1z"/><path fill="#66452b" stroke="#000" d="M485 185h-4l-1-1-2 1-2 1v1l2-1h4l2 1h-1l-2 1h-3l-2 1v1h2l3-1 3-1 1 1-2 1-2 1-1 1h2l2-1 2-1 2-1 2-1 1-2h2v-1l-1-2h-3l-1 1-2 1zm-18 5 2-4c2-2 7-3 7-3l-7 1-5 3 2-4q5-4 10-2h3l1 1-4 2q-5 2-9 6z"/><path fill="#69737c" stroke="#000" d="m478 181-9 5 8-2 3-2-1-1z"/><path fill="#69737c" d="m492 165-1 2v2l1-2z"/><path fill="#69737c" stroke="#000" d="M489 184h-1l-2 1-1 1-3 2h-2 2l3-1h1l2-1 1-1zm-7 6h2l2-1 2-1v-2l-1 1-1 1-1 1h-1z"/><path fill="none" stroke="#000" d="m489 153 1 1v1l-1 2v2l-2 1-1-1-1-1-1-1-1-2m1 2h-5l-1-1v-1l-1-1-1-1m3 4-1-1h-1l-1-1h-1l-1-1-1-1-1-1v-1l-1-1"/><path fill="#bca76b" d="M507 157h3l1-1h4l1 1q1 0 0 0h-1l-1 1-1 1h-2l-1-1h-1z"/><path stroke="#000" d="M460 123h-8l-4 1h-5v-1l5-2h4l3-1h3l3-1 4-1 2-1 3 1-1 3h-3l-3-2-1 2h-4l2 1z"/><path fill="#fff" d="M465 119v-1zm2-2h2l4 3 3 6 1 2q2 2 1 3l-2-1v3l-2-1v-1l1-2-1-3-1-3q0-3-4-4z"/><path fill="#bca76b" d="m474 118 1 2 1 1v1l1 1v1h-1l-1-1v-1l-1-1v-1zm-6-2v-1h-1v-1h2l1 1v1z"/><path fill="#fff" d="M467 116h-2v-2h2v1zm2-1 1 1h2v1h1l1 1h-1l-1-1h-2z"/><path d="M472 120h-3l-2 1-1 1-2-1 3 3 3 1 1 1-2 2-1 2-1 2 1-1 1-1h3l1-1 1-1 1-2-1-2v-2z"/><path fill="#69737c" d="m499 147-3 1 1 1 3 2h4v-2l-3-2z"/><path fill="#fff" d="M498 150h-1l-2-1-1-1h2l2 1zm6-1h-3l-2-1q-2 0-1-1l2-1 2 1 1 1z"/><path fill="#69737c" d="m489 144-3 1h-3l1 2 6 1 2-1zm9 0-1-1-2-1q-1 0 0 0h1l1 1zm-1 2h-4l-2-1v-2h2l2 1zm-13-12 3 2q1 2-2 1l-4-2q-2 1 1 1l1 2h-3q-2 0-3-2h-2l1 2 1 2-3-2v-3l4-1z"/><path fill="#fff" d="M472 135v1l1 1 1 1 1 1h2v-1h-1l-1-1v-1l-1-1zm10 4-2-1-3-1-2-2v1l1 2 2 2h3l2-1zm-2 5h-2l-1-1-1-2-1 1v2l3 1h2zm6-2v2l-1 1-2-1h-2l-1-2h1l2 1h2zm5-1-1 2h-1l-2-1-1-1q-1-1 1-1l2 1z"/><path fill="none" stroke="#000" d="m492 135 7 7 5 6c4 3 17 7 17 8-3-1-4 3-7 3l-8-2q-6-1-11 2h-6m-17-7-6-4q-4-3-4-7-1-6 1-10l-4-6q-3-3-2-7l6-5 7 1q4 0 6 4l3 10q3 3 7 4l6 3"/></svg>