<svg xmlns="http://www.w3.org/2000/svg" viewBox="0 0 640 480"><path fill="#006" d="M640 480V0H0v480z"/><path fill="#8fc5ff" stroke="#fff" stroke-width="4" d="M575 200c0 63-11 132-93 165-83-33-93-102-94-165z"/><path fill="#366cc9" stroke="#000" stroke-width="4" d="M481 365a134 134 0 0 0 74-63h-8c-2 0-79-8-88-12-8-2-39 3-53 8a133 133 0 0 0 76 67z"/><path fill="#5d3100" d="M424 326h4l2-2h2l3-1h4l2-2h4l1 2 2-1q2 2 2 0l-1-9-2-5q1-4-4-6l-4-1v-4q2 0 2-2h11l5-2q2-1 2-3l-2-10-3-7-3-6-1-2-2-4q-4-7-5-19c-1-4 0-13-2-14l-6-2-3-9-5 3-1 2-3 7c-1 4-5 2-8 7l-6-11q0-2-4-5v-6q-4-2-5 0l-4 4-7 9c3 35 11 70 34 99z"/><path fill="#ff0" stroke="#fff" stroke-width="4" d="m575 200-1-68a249 249 0 0 0-93-17c-20 0-61 3-92 17l-1 68z"/><path fill="#cf6200" d="m394 227 3 6 1-3 1-3v-1l1 3-3 10c3 7 1 9 4 16h8q3 1 3 4l1 2 1 4 1 2-1 2 1 3q4 5 4 12 0 6 2 6 3 2 2 3l1 12 1 1q1 2 3 2h5l4 8 1 5 1-3-1-4q-2-1-1-3v-3q-1-2 2 0l2 3 1 3q0 2 1 1l1 2q-1 2 1 3l2 1q2 2 2 0l-2-7-1-6-1-2-1-1-1-1-2-1-1-1h-1l-1-3-1-3-1-4-3-3q-1-2-1 0-1 3 2 3l1 2v4h-1l-1-3q0-2-2-1v-5l-3-11v-1l3 4v3q1 1 1-1v-3q-3-2-5-12l-3-12-1-4-1-4q-1-2-1 0v7l1 3q-2 1 1 4l1 3h-1l-2-3-1-3v-3l-1 1-1 4v-7q2-3 1-8c-1-5 0-4-3-6l-6-8-2-8-4-3v-5l-2-2-3 3-3 4z"/><path fill="#cf6200" d="M401 257h3q1-2 4 0l3 7 2 8q4 4 4 8l2 9 1 4 2 5v6q0 2-1 1l-2-2v1l3 3 3 1 2 1h5l2 2 2 6v5l-1-1h-2l-1-2-2-1v2h-3l-2-2-1-1-2-1-1-1-1-1-1-2h-1v-2l-1-2v-2l-1-2-1-3q-3 0-3-3l-3-12-2-2q-2 1-2-2 1-3-2-5l-2-3zm24-29-4 5q-4 1-3 5l2 4 2 4q3-1 2 3 0 3 2 5t1 4l2 12c2 4 6 11 5 13q-1 1 1 4l3 6q0 2 2 1l3-1h3l5 1 3-2 3-5q1-1-1-2v-3l-2-7-4-7-2-5-2-3-2-6-2-9-1-2-1-2-1-2 1-3v-5l-3-4q-3 0-4-3l-2-5h-2q-3 2-2 5l1 3 1 4q2 4-1 9-3 2-2 4-1 4-1 1-1-4 1-5 3-2 2-4l-1-7q-1-2-2-1"/><path fill="#00b800" d="M401 263v11q3-1 2-3v-8zm18 26-2-9q0-4-4-8-2-2-3-7-2-1-1 2l1 5 1 3 1 3v2l1 2 2 2v5q1-1 2 1l2 1zm13 24h-2l-1-2-1-2h-1l-2-1-1-1v1l-1 1q-1 1-1-2l-3-3v-1l2 2q1 1 1-1v-2l-1-1q-2 0-1-2l-1-1q-1 1-1-2-1-3-2 0l-1-2q-2-3-2 0 0 2-2 1l1 3q0 3 3 3l2 3v4l1 3v1h1l1-1q2-1 4 1 0 3 2 1h1l2 1h2q0 2 2-1 0-2-1 0m3-56q0-5 2-7 2-3 2 1l-1 6q-2 1-1 3l1 4 1 6 2 3 2 4q2 2 3 7l4 4q1 2-2 2-1-1-2 1t-1-1q-2-3-5-3l-3-4-3-3v3q-1 1 1 4l3 6q0 2 2 1l3-1h3l5 1 3-2 3-5q1-1-1-2v-3l-2-7-4-7-2-5-2-3-3-6-1-8q-2 2-2 0l-2-1v-1l-1-1v-3q-1-3-1 0-2 4-1 5l-1 3v8q0 4 1 1m-24-24q-2 0-2 4 0 2-1 0l-2-4q-1-1-1 2 0 2 2 3 1 2-1 2-2 1 0 4l-1 1v-6q1-2-2-2v-5q-1-1 1-1l1-1q2 0 2-2t2-2zm13 16q0 4 2 5t1 4l2 12 2 4 2-2-2-4q-1-2 1-5 1-3-1-2-2-1-3-5v-4q2-2-1-2v-3q1-1-1-1l-2 1z"/><path fill="#5d3100" d="m440 254-1 3 1 3v3q-1 2 1 3l1 2 2 5 1 3 2 2 1 1h1l3 3 3 1q1-3-2-4l-3-7-4-7-1-4-2-3-1-3z"/><path fill="#00d860" d="m433 327 9-3 6 3h-4l1 2-5-2zm4 3 6 1q-2 2 2 2l-2 1 9-2c-2 3-11 5-15-2m4 6h5z"/><path d="M445 336h10q-2 2-5 2l-4-1z"/><path fill="#00d860" d="m447 339 9-1 7 1h-6a11 11 0 0 1-10 0"/><path fill="#00d860" d="m450 340 7-1 3 1 4 2-7-1-8 1z"/><path d="M447 329c2 0 9 0 12-2q2 1 0 1-8 4-12 1-2-1 0 0"/><path fill="#00d860" d="M479 320c-8 4-13 5-24 1q-2 0-1 1l9 2v2q-1 0 0 0c1-1 8-1 10 1h2q-1-1 1-1l1-1-1-1q2 0 0 0v-1l2-1z"/><path d="M466 321a26 26 0 0 0 17-6l5 2q2 1 0 1l-5-1a30 30 0 0 1-17 4q-2 0 0 0"/><path fill="#00d860" d="m452 296 8 3 6 3-6 2-3-1v2l7 1q2-1 1 1-6 2-10-3-2-5-8-2l-2-1q-3-1-1-2 3 0 8-3"/><path fill="#00d860" d="m454 303-4 2q-3 1-1 1l4-2q3-1 1-1m5 5-4 1h-2q1 1-1 1l-2 1h4l3-1q3-1 2-2"/><path d="m455 311 8 3q3 0 1 1a12 12 0 0 1-10-3q-1-1 1-1"/><path fill="#00d860" d="M481 314h-10q-4 0-2 1 2 2 7 1l-12 2-7-1h-3q-2-1 1-1h1q-4-1-2 2h11a19 19 0 0 0 16-3zm-21-6v1h6v-1h-3zm11 2-3-1q-2-2-1 1l6 1 2-1 3 2q2 0 1-1l-2-1h4l3-1v-1h-3l-3 1-2-1v-1q1 0 0 0h-5l-3-1v1l4 1v1q-3-2-1 1m13-2 8 1q1-2 2-1h5l2-1 3-1h1-5l-5 1h-11z"/><path d="M508 307q-5 3-11 3-2 0 0 1l12-3q0-2-1-1"/><path fill="#00d860" d="m487 312 7 2 2-1q-2 0 1-1h8l3-1h-10l-3 1z"/><path fill="#00d860" d="m505 312 3-1h4q-1-2 2-2l6 1h6l2 1 2 1h11q3 1 1 1-3 0-1 2l-1 1h-3l-3 1h-7l-5-1-5 1v-1l3-1q3 0 1-1h-11zm6 3-5-1-1 1 6 1q2 0 0-1m-3 2h5l1 1h-5q-2 0-1-1m-24 7c2 0 8-1 10-6h1q2 2 9 3 4 1 0 1l-9-2q-5 5-11 4-3 0 0 0"/><path fill="#00d860" d="m497 317-5 3-6-1q-2 0-1 1l6 1h5l4 2h4q2 1 0 1l-4-1q2 4 5 4v1h4v1l1 1h-4q4 3 12 2 2-1 0 0l-4-1 1-1h4q2 0 0-1h-6v-2l2-1q-6-1-5-3v-1l-5-1q-1-1 1-2-4 1-9-2m30 0-7 2q-2 0 0 0l3 1h5l5-1q2 0 0 0h-6l-2-1zm-1 4-6 2 5 3-2 1 5-1q6 1 8-1l-5-1 2-2q-4 1-7-1"/><path fill="#00d860" d="m523 327 2-1-11-3q-3-2-1 1a11 11 0 0 0 10 3m5 5h-7q-2 0-1 1h-1l-4 1q-2 1 0 1l5-1h7q1 0 0 0v-1zm-42-6-10 2-4 2 4 1-2 1 4 1-7 1 2 1-5 1 2 1h-6q3 2 9 2l9-4h-5l8-3-3-1 8-1-3-2a34 34 0 0 0 17 0q2 0-1-1l-10-1 4 1q-3 3-11-1"/><path fill="#00d860" d="m474 332 2-1-4-1 4-2-7-1h-5q-2 1 3 2l-7 1v3l11 3q-5-1-2-3z"/><path d="M467 339q9 1 17-5 2-2 1 1a29 29 0 0 1-16 6q-5-1-2-2"/><path fill="#00d860" d="m504 331-6 1h-3v1h3l-2 2h6-2c3 3 11 3 12 3l-1 1 7-1-4-1 2-1h-5l1-1-10-1 7-2zm-10 2-6 2q-2 1 0 1v-1q-1 0 0 0zm-4 5 5-1 5 2v1l-6-2zm-24 14 10 1 8 1h5l8 2h-4l1 1-12 3a6 6 0 0 1 6-4c-1 0-7-1-9 1l-1-2q-7 1-12-3m-8-6 7-3h7l-1 2-7 2h-6z"/><path fill="#00d860" d="m471 345-7 2 1 2 15-2-6 2 9 1v1q-1 1 1 1l6-1-2-1 2-2h-4l-1-1 2-2q-3 2-7-1h4l-3-1q3-2 12 0l7 1 3-4c-6 1-16 0-16-3q-5 4-9 3l2 3h-7l3 2z"/><path fill="#00d860" d="m484 352 6-1-2-1 2-2 10-1h8l-5 2 2 1-5 2-3 1-6 1h-6q2-2-1-2m19-12h6l-2 2 9-1-4 2 1 1h1-8q-1 0 0 0l3-1h-4v-1h-1l-4 2z"/><path d="m488 343 7 3q2 0 0 1-6 0-8-4zm25-36 10 2 1 1z"/><path fill="#00d860" d="m516 307 7 1 6-1q2 1 0 0l-8-1-7 1zm14 1h15l-6 2h-3z"/><path fill="#00d860" d="M544 308h-15q3 0 4-2h3l4 1 1-1h4l4-1z"/><path fill="#ff0" d="m472 291-1-87q-1-5-2 0v86zm28-91 3 91v1h-2l-2-92zm26 77-1-74q-1-4-2 0l1 74z"/><path fill="#fff" d="M484 215h-27c-1 5 5 5 8 4h13q6 3 6-4m2 13h-27c-5 5 1 7 6 4q2 3 7 1 4 3 7-1 4 3 7-4m-1 18h-26c-1 4 5 4 7 3q4 4 8 0 5 3 6 0 5 2 5-3m2 17h-30c-2 5 3 6 5 4q3 4 6 0 2 2 4 0 1 4 7 0c5 4 10 0 8-4m26-7h-24q1 8 7 3 6 4 9 1c6 4 8-1 8-4m-2-17-24-1c0 6 6 6 9 4q4 3 8 0 6 4 7-3m3-19h-26c0 4 6 6 10 2q3 6 8 2c3 4 10-1 8-4m-2-13h-23c0 4 5 6 7 2q4 3 7 0 3 3 4 0 5 3 5-2m27 8h-28q1 5 5 3 1 5 7 1 3 4 8 0 8 5 8-4m0 23h-27q1 6 7 4 2 4 6 1 4 4 9 0 5 0 5-5m-2 21h-21q2 6 6 2 5 4 8 1c2 2 7 1 7-3"/><path d="m503 292-32-1c-9-1-11-2-17-6l-22-13q-4-1-1 2l22 14 13 12q7 7 10 4l9-1 10 1q4 3 10 1l7-1h27l8-1 4-5 3-2 2-6h1v-3l-1-2v-4l2-1v-4l-35 1-2 4-10 2q-3-1-4 2z"/><path d="m544 277 5-20q0-2-2 1l-5 19z"/><path fill="#fff" d="M564 255q-7 3-9 2h-6v1l-4 14q6 3 10 0l7-1 1-4v-4z"/><path fill="none" d="M465 218a208 208 0 0 1-31 55m7 5a213 213 0 0 0 45-49m-27 16-6 39m10-15-13 13m49-34q-4 5-10 8m12-7 11 7m-13-24-11 6m13-6 9 7m-21-20 10-5m1 0 11 6m-22-13a16 16 0 0 0 10-5m1-1 10 6m13 3q-4 4-9 5m11-5q2 4 6 5m-19 23 11-7m2 0 8 7m-16 21 7-5m2-2 8 7m-73 3c5-1 15-7 20-13m-10 7q7 5 13 7m-25-18 10-6m2 0c1 2 9 7 13 7m-15-23-10 5m12-5q5 4 12 5m-14-21-9 7m11-7q4 6 9 7m32 11c7 12 20 29 34 37m-55-52c11 16 32 50 52 62m4-13a72 72 0 0 1-19 18m17-14q-8-15-15-43m-55 49 8 23m-10-24 8 24m-10-25 7 24m-7-23 5 23m0 0h7m-1-3h-6m5-2h-6m5-2h-6m5-2h-5m0-2h5m-6-2h5m-5-2h5m-5-1h4m-5-2h4m-4-2h4m-5-1h4m-4-1h4m-10 0-5 19m6-19-4 20m5-21-3 22m5-22-3 22m3-1h-8m8-2h-9m9-3h-8m7-2h-7m8-2h-7m7-2h-7m7-2h-7m7-2h-6m5-2h-4m5-2h-5m5-1h-5m4 22v-23m25-8-15 32m17-32-13 32m14-33-11 33m12-32-9 32m1-1h-10m10-3h-9m10-3h-8m9-2h-8m9-2h-8m8-3h-7m8-3h-6m7-1h-6m6-3h-5m6-1h-5m5-2h-5m5-2h-4m4-1h-4m4-1h-3m4-2h-3m3-1h-3m13 0 7 22m-5-22 8 21m-7-21 10 21m2-2-11-19m11 19h-8m7-3h-8m7-2h-7m5-3h-6m5-2h-6m4-3h-5m4-3h-5m3-2h-3m12 0-7 21m9-21-6 20m3 0 4-20m1 1-4 18m-6-1h6m-5-2h6m-6-3h7m-5-2h6m-6-3h6m-5-2h5m-4-3h5m-4-2h4m4 0 3 14m-2-15 4 15m-3-15 5 15m-3-14 5 14m0-2h-7m6-2h-6m5-1h-5m5-3h-6m4-2h-5m5-2h-5m4-2h-5"/><path fill="#00b800" d="M468 299q6-3 11 1 6-3 12 1 6-5 12-1a11 11 0 0 1 11 0q6-3 12 1a9 9 0 0 0-12 1q-6-5-11 0a8 8 0 0 0-12 0q-7-4-12-1a13 13 0 0 0-11-2"/><path fill="#cf6200" d="M523 295a228 228 0 0 1-59-2c9 2 28 2 39 1l6-8q1-2 3-2l9-2v2h-1l1 9h1z"/><path fill="#cf6200" d="M550 296h2l2-2 2-6-2-3 1-5 2-1v-2l-32 1-2 1a24 24 0 0 0 8 24q2 0 1-1l-5-6h6l2 6q0 2 0 0l-1-6h5v5h1v-5h5l-1 5h1l1-5h3l-2 5h1z"/><path d="M527 295q-2-2-3-8h7l1 8zm5-8 1 8h6v-8zm-8-7v6l7-1-1-6zm8-1v6h7l-1-6zm8 0v6h6v-6zm7 0v6h6l1-6zm6 7h-6l-1 8h6l3-6zm-13 1v8l5-1v-8zm-27-2h-3l-6 9h9zm1 0v9l6-1-1-9zm-27-22h-30v-1zm23-24q1 0 0 0l-23-1q-2 0 0 0zm-25 6h-26v-1zm1-17h-28v-1zm-2-13h-27v-1z"/><path fill="#fff" d="M512 207h-23z"/><path d="M514 220h-26zm25 18h-28zm0-23q1 0 0 0h-28zm-26 41h-25zm24 3q2 0 0 0h-22z"/><path fill="#ef072d" d="M557 263v-5h-2l-1-1-2 7-5-1-1 4h6l-2 6 4-1q3-3 2-5l2-1h2l3-1v-4z"/><path d="m460 131-11 1q-3 1 0 1l9 3q4 3 4 8a24 24 0 0 0 12 25v2l-1 4 1 2-4 6q-10-2-12 7h1q1-3 5-4l-2 7q0 2 2 0l3-5v1l2 4q1 2 0 0 0-4 2-5 5-2 6 0 2 2 0-1l-3-4 4-6q0-2 1-1l1-1 3-6h2l4 6v2l-2 6q-6-1-8 3-1 2 1 1l4-1v1q-4 1-4 6h1l5-4q0 4 2 6 1 1 1-1-1-3 1-5c2-3 6 1 8 1v-1q-1-4-8-5l5-16c2 1 4-2 7-1l15 9h6v-2l-9-10 7-1-7-2 7-3-4-1q-11 1-16-3l-15-10-4-5q-1-8-7-11-9-2-15 3"/><path fill="#fff" d="M461 132h-7s-1 0 0 0l6 2v1h-1c4 3 5 5 4 15l2 2q1 0 0 0t-1 1l1 1q-2 0 0 0 4 1 0 1-3 1 0 1 3 1 1 1h4v2h1v1l2 1q-1 0 0 0 3 1 1 1v1l2 1q-2 1 0 1v1h-2q0-1 0 0l-1-1q-1-3-1 0h-2a13 13 0 0 0 16 3l1 1 2 4q1 1 1-1l3-6q0-3 1 1h10l10 6h2q2 0 0-2-2-3 0-2 2 2 1-1l-4-3-3-1h-6l1 1 8 5q2 2 0 0l-14-7c-11 1-20 2-26-5-3-3-3-11 2-14v-4l-2-2-4-1h-3l-2-1-2-1h3q4 3 7-1 1-3-4-5l-8 3z"/><path fill="#fff" d="m478 131-4-2-1 1v4q-1 2 1 2h1l1 1v2h1l-1 2h2l2 3h-2l-2 1v1q2 1 0 1l-2 1v2l3-2h2q1 2-1 2h-2l-2 1-1 2q1 8 12 9h13l-5-2h-1v-1h-2l-4 2q-2 0-1-1l4-2v-1h1l7 3 1-1-1-2h2l5 3q2 0 0-1l-9-7q-1-1-1 1h-2v-3h-2l-1 2-1-2q2-1 0-2t-1 0h-2l-1-1h1q2 1 1-1-3-2-2 0h-2v-3c-3-5-1-8-5-12z"/><path fill="#cf6200" d="M478 132v1l2-1zm-3-3-1 2q1 0 0 0h1l1 1 1-1zm-1 5v2l1 1 2-1q1-1-1-1-3 0-1-1 1-1-1-1zm6 6 1-2v-3l-1 2-1 1q-2-1-2 1h1v1q2 0 2 2h1z"/><path fill="#ff0" d="m480 150-2 1-3 1-2 1 1 2 1 1v1l3 1 1 3 2 1h6v-1l-2-1v-4q1-3-2-3z"/><path fill="#cf6200" d="m473 161 2 1-1 1 1 1 1 1 1 1h-2l-1-1h-1l-1-1-2 1 3 2h3l3 1q2 0 1-1h-1v-2h-1v-1h-1v-1l-1-1-1-1z"/><path fill="#ff0" d="M486 168q-9 3-13-1h3l3 1q2 0 1-1l2 1zm-12-26-1-1-2-1q-2 0-2 2l-2 2-1 3-1 2-1 1 1 1v1h-1l1 1q-3 1 0 1 4 1 0 1-2 1 0 1h1q-2 1 1 1v-1l2-4 1-2 3-5z"/><path fill="#cf6200" d="M472 142q-2-1-2 1l-1 2-2 2-1 3v2l1 1 1-1 1-1 2-3v-2l2-1v-2z"/><path d="M472 141v1zm0 2q3 0 1-1m-3 3q2-2-1-1m0 4q-2 1 0 0m-2 0 1 1q2-2-1-1m1 1q2-2-1-1zm-1 1q2-1-1-1m1 1q0 2 1 1 2-1-1-1"/><path fill="#cf6200" d="m467 159-1 1 1 1 2 2 1-1-2-2z"/><path fill="#ff0" d="m492 153 2-1q-1-1 1-1l9 7v1l-5-2-2-1v2l-2-1z"/><path fill="#00d860" d="M542 320q-2 1-2 4h1l12-19v-1l-4 3q-1 3-4 4 2 2-1 3l-2 2-2 1h2v1l-2 1z"/><path d="M482 151h-2q1 2-1 2h-4q-2 1 0 1l6-1q2 0 0-2zm3 2q-2-1-2 1l-1 1-5 1q-3 1 0 1l6-2h1q2 1 1-2m1 4-4 2q-2 0 0 1 3 0 5-3h1s2-1 0-2h-2zm-16-26c-3-2-6 2-3 4q5 0 3-4"/><path fill="#fff" d="m467 133 2 1q-2 1-2-1m9 37h5l-2 2q0 2 0 0l-1-1-1 2h-1z"/><path fill="none" stroke="#000" d="M575 200c0 63-11 132-93 165-83-33-93-102-94-165zm0 0-1-68a249 249 0 0 0-93-17c-20 0-61 3-92 17l-1 68z"/><path fill="#012169" d="M0 0h320v240H0Z"/><path fill="#fff" d="m38 0 122 91L281 0h39v31l-120 90 120 89v30h-40l-120-89-119 89H0v-30l120-89L0 32V0Z"/><path fill="#c8102e" d="m212 141 108 79v20l-135-99Zm-92 10 3 17-96 72H0ZM320 0v2L196 96l1-22 98-74ZM0 0l120 88H90L0 21Z"/><path fill="#fff" d="M121 0v240h80V0ZM0 80v80h320V80Z"/><path fill="#c8102e" d="M0 97v48h320V97zM137 0v240h48V0Z"/></svg>