<svg xmlns="http://www.w3.org/2000/svg" viewBox="0 0 640 480"><defs><clipPath id="sx-a"><path d="M0 0h683v512H0z"/></clipPath></defs><g clip-path="url(#sx-a)" transform="scale(.9375)"><path fill="#ed2939" fill-rule="evenodd" d="M0 0h768v256H341z"/><path fill="#002395" fill-rule="evenodd" d="M0 512h768V256H341z"/><path fill="#fff" fill-rule="evenodd" d="m0 0 341 256L0 512z"/><path fill="#ff0" d="M172 193v-4s-2-3 1-7c0 0-5-3-4-7 0 0-5-1-5-6 0 0-5-1-5-5q-2 2-8-3s-5 1-6-3c0 0-5 2-8-2 0 0-5 2-7-2-2 4-7 1-7 1-3 5-8 3-8 3-1 3-6 2-6 2q-6 6-8 4c0 4-5 5-5 5a6 6 0 0 1-5 6c2 4-4 7-4 7q3 7 1 7v4z"/><path fill="none" d="M172 193v-4s-2-3 1-7c0 0-5-3-4-7 0 0-5-1-5-6 0 0-5-1-5-5q-2 2-8-3s-5 0-6-3c0 0-5 2-8-2 0 0-5 2-7-2-2 4-7 2-7 2-3 4-8 2-8 2-1 3-6 3-6 3q-6 5-8 3c0 4-5 5-5 5a6 6 0 0 1-5 6c2 4-4 7-4 7q3 7 1 7v4z"/><path fill="red" d="M170 188c-13-1-28-4-40 2q-13-5-28-3l-17 2h-1q-13 0-27-6 5 22 7 46c4 24-11 44-5 67 4 11 16 18 27 19l32 5 6 1 6 5q10-8 24-9c16-2 35-1 45-15v-1q7-14 2-29l-1-9c-10-25-1-54 3-80l-17 6h-14z"/><path fill="#80cfe1" d="m190 262 1 4c2 11 4 26-7 33-13 8-30 4-45 9l-9 5-4-3c-12-6-28-4-41-8q-12-3-16-14c-5-19 6-34 5-53q-1-21-7-40 17 8 35 3a52 52 0 0 1 28 3l15-3 29 2q10 0 18-5c-3 22-10 45-2 67"/><path fill="#fff" d="M171 266v-21h2l-31-20v-10h3l-15-11-16 11h3v10l-31 20h3v21z"/><path fill="none" stroke="#000" d="M376 907v-18h2l-27-18v-9h3l-14-10-13 10h2v9l-27 18h2v17z" transform="matrix(1.1464 0 0 1.1461 -260 -773)"/><path fill="#fff" d="M181 293v6H81v-7z"/><path fill="none" stroke="#000" d="M384 930v5h-87v-5z" transform="matrix(1.1464 0 0 1.1461 -260 -773)"/><path fill="#fff" d="M87 292v-21h4v21-21h-6v-5h90v5h-6v21-21h4v21"/><path fill="none" stroke="#000" d="M303 929v-18h3v19-19h-5v-4h78v4h-4v19l-1-19h4v19" transform="matrix(1.1464 0 0 1.1461 -260 -773)"/><path fill="none" stroke="#000" d="M320 925v-13h-11v13h11" transform="matrix(1.1464 0 0 1.1461 -260 -773)"/><path fill="none" stroke="#000" d="M312 914v8h5v-8h-5m59 11v-13h-11v13h11" transform="matrix(1.1464 0 0 1.1461 -260 -773)"/><path fill="none" stroke="#000" d="M363 915v7h5v-7h-5m8-11v-13h-11v13z" transform="matrix(1.1464 0 0 1.1461 -260 -773)"/><path fill="none" stroke="#000" d="M363 893v8h5v-8h-5m-43 11v-14h-11v13z" transform="matrix(1.1464 0 0 1.1461 -260 -773)"/><path fill="none" stroke="#000" d="M312 893v8h5v-8h-5m26 11v-14h-10v13h11" transform="matrix(1.1464 0 0 1.1461 -260 -773)"/><path fill="none" stroke="#000" d="M331 893v8h5v-8h-5m22 11v-13l-10-1v13h10" transform="matrix(1.1464 0 0 1.1461 -260 -773)"/><path fill="none" stroke="#000" d="M345 893v8h5v-8h-5" transform="matrix(1.1464 0 0 1.1461 -260 -773)"/><path fill="#fff" d="M148 258v34h-35v-34z"/><path fill="none" stroke="#000" d="M356 900v30h-30l-1-30zm-31 8h31m-27 22v-22m23 22v-22m15-21-17-13h-19l-17 13h53m-35-23v7h16v-7h-16" transform="matrix(1.1464 0 0 1.1461 -260 -773)"/><path fill="none" stroke="#000" d="M336 866v4h8v-4h-8m4-11 9 6h-18l9-6" transform="matrix(1.1464 0 0 1.1461 -260 -773)"/><path fill="#fff" d="M171 202c3 0 4 12 4 18l11 7h-29l11-7c0-6 0-18 3-18"/><path fill="none" stroke="#000" d="M376 851c3 0 4 10 4 16q5 1 9 6h-25q5-5 9-6c0-6 1-16 3-16m-49 49h2l-1 1v4l1 1h-2v-6m4 0h3l-1 1v5h-2l1-1v-3l-1-2m5 0h2v6h-2l1-1v-3zm6 0h2l-1 2v2l1 1h-2v-4zm5 0h2l-1 2v2l1 1h-2v-5m5 0h2l-1 2v2l1 1h-2v-5" transform="matrix(1.1464 0 0 1.1461 -260 -773)"/><path fill="#ff0" d="M131 337c13 0 29-3 36-7l17-1v20c-14 8-46 9-53 9s-40-1-54-9v-20l17 1a98 98 0 0 0 37 7"/><path fill="none" d="M131 337c13 0 29-3 36-7l17-1v20c-14 8-46 9-53 9s-40-1-54-9v-20l17 1c7 4 24 7 37 7"/><path fill="#ff0" d="m34 251 15 5-5 23-13 2s-2-12 3-30"/><path fill="none" d="m35 251 14 5-4 23-14 2s-2-12 4-30"/><path fill="#7e7e7e" d="m45 279-14 2 9-12z"/><path fill="none" d="m45 279-14 2 9-12z"/><path fill="#ff0" d="m26 268 14 1c0 12 2 57 56 60l-2 16c-66 1-71-55-68-77"/><path fill="none" d="m26 268 14 1c0 12 2 57 56 60l-2 16c-66 1-71-55-68-77m51 80 17-3"/><path fill="#ff0" d="m225 251-14 5 5 23 13 2s3-12-4-30"/><path fill="none" d="m226 251-15 5 5 23 13 3s3-13-3-31"/><path fill="#7e7e7e" d="m216 279 13 3-9-13z"/><path fill="none" d="m216 279 13 2-8-12z"/><path fill="#ff0" d="m234 268-14 1c0 12-1 57-55 60l2 16c66 1 70-55 67-77"/><path fill="none" d="m234 268-14 1c0 12-1 57-55 60l2 16c66 1 70-55 67-77m-50 80-17-3"/><path fill="#009fc5" d="M122 347h-4v-4l3 1h1zm-5 5 1-4h3l2-1 1-2-1-2h-2l-4-1zm10-8h4l1 2-1 1h-4zm0 8v-4h4l1 2v2h1v-4h-1l1-1v-2l-1-2h-7v9zm10-2-1-2 1-3 2-1h2l2 3-1 3-3 1zm-2-6-1 4 2 3 3 1 4-1 1-4-1-3-4-2zm44-13h3l2 2h-1l-2-1zl-2 1v3l1 3 3 1 2-2v-2h-3v-1h4l1 5h-1v-1l-1 1-2 1-3-1-2-4v-3zm10-1 3-1h1l1 1v1l-1 1-3 1zm3 8-2-4 3-1h1l1 1 1 1v1h2v-1h-1v-2l-1-1h-1v-3l-2-1h-2l-4 2 4 8zm11-5-6-8 6-3 1 1-5 3 2 2 4-3 1 1-5 3 2 3 5-4 1 1zm4-14 2-1 2-1 3 1 1 2v3l-2 1zm9 4v-4l-2-2-3-1q-1-1-3 1l-2 3 7 6zm5-7-8-5v-1l9 5zm3-6-9-3 3-7 1 1-2 5 3 1 2-5 1 1-2 4 3 2 2-6 1 1zm4-11-9-2v-1l9-3-8-2 1-1 9 2v1l-9 3zm0-12h1l1-2v-2l-1-1h-1l-1 2v1l-1 2-2 1-2-1-1-3 1-2 3-1-1 1h-1l-1 2 1 2h2l1-2v-1l1-1 2-1 2 1v3l-1 3zm-196 0h-1l-1 3 1 1 2 1 1-1v-4l2-2 2 1 1 2v3l-2 1v-1l1-1v-2l-1-1h-2v5l-2 1-3-1-1-2 1-3zm-1 12 10-3 2 7h-1l-2-5-3 1 2 5h-1l-2-5-3 1 2 5-1 1zm4 11 9-4 1 1-6 7 9-2v2l-8 4-1-1 5-3h1l2-1-9 2-1-1 6-6h-1l-1 1-5 2zm16 13-2-2 3-2 1 2 1 1v1zm-7 1 3-3 2 2 3 1 2-1v-4l-3-3-7 7zm9 7 5-8 6 4-1 1-5-3-1 2 4 3v1l-5-3-1 3 5 3-1 1zm15-1 3 1h1v2l-1 1h-1l-3-1zm-3 7 2-3 2 1h1l1 1-1 2v1h2-1l1-1v-3h-1l2-1v-4l-2-1-4-1-3 9z"/><path fill="#bc715f" d="M79 176c1-3 11-10 44-7l9 3-3-2q-5-4 2-6c6 0 28 1 28 3s-11 3-16 3q-6 1 1 2c14-1 28-6 44 5 2 2-5 2-10 0h-20l-10 3c1 2-2 9-21 4-3 1-15 3-14-1q-6 1-9-1l11-5s-21 0-25-2c0 0-12 3-11 1"/><path fill="#008737" d="m85 205 2-2c2 1 3 5 6 2l2 2c0 2 2-1 3-1l10-1q-1 4-4 6l2 5-1 3-4-2h-1l1 2q-1 2-3 0v3l-3-3 1 2-3 8-2 1-1-5-3 5-4-5 2-6-3-3c-3-2-5 4-6 1a9 9 0 0 1 2-8l-3-1q-4-2-5-6a14 14 0 0 1 15 3"/><path fill="#ff0" d="M88 205q0 2 3 2-1 2-3 0l-1 1 1 2-2-2h-2v-1l2-1 1-2zm6 2 1 1 2 1-1 1h-1v-1l-2 1 1 1h-2v-2l-2 1v-2h1c1 0 1-4 3-1m-8 3 1 3q2-2 3 0v1h-4l-1 1q2 0 1 2-2 2-3-1 1-1-1-2 1 2-2 1l-1-2 4-1 1-3z"/><path fill="#fff" d="M91 211q-2 2-3 0zm5 3-2-2 1-1z"/><path fill="#ff0" d="m94 213 1 2v-1l3 2-2 2h-1l-1-1h-1q2 2 0 3l-3-1v-3q-1 3-3 2v-2l4-1v-3q3-1 3 1"/><path d="m93 216-1 1-1-1 1-1z"/><path fill="#fff" d="M93 216h-1v-1z"/></g></svg>