<svg xmlns="http://www.w3.org/2000/svg" xmlns:xlink="http://www.w3.org/1999/xlink" viewBox="0 0 640 480"><path fill="#3e5eb9" d="M0 0h640v480H0Z"/><path fill="#ffd900" d="M0 90h640v300H0Z"/><path fill="#b10c0c" d="M0 120h640v240H0Z"/><g fill="#ffd900" stroke="#000" transform="translate(-43)scale(1.2)"><g id="sz-a"><path fill="#fff" d="m493 154-24 9 24 8 24-8z"/><rect width="357" height="6" x="123" y="160" rx="3" ry="3"/><path d="m471 166 3-3-3-3m-2 6 2-3-2-3m-3 6 3-3-3-3"/></g><use xlink:href="#sz-a" width="100%" height="100%" x="-23" y="17"/><rect width="486" height="9" x="60" y="196" rx="4" ry="4"/></g><path fill="#fff" stroke="#000" d="M488 240c-34 34-80 103-171 103-80 0-137-69-172-103 35-34 92-103 172-103 91 0 137 69 171 103z"/><path d="M305 173c9 10 1 14 11 15s4 11 13 11c6 0-1 24 5 32s11 3 11 9-16 5-16 24c-1 11-14 12-14 19-1 6 25 10 25 16s-29 5-30 12c-1 6 39 11 42 28-6 2-23 4-35 4-80 0-137-69-172-103 35-34 92-103 172-103 0 0-24 22-12 36"/><g stroke="#fff" transform="translate(-43)scale(1.2)"><g id="sz-d" stroke-width="7"><g id="sz-c"><path id="sz-b" d="M214 192v-22m14 0v22m14-22v22"/><use xlink:href="#sz-b" width="100%" height="100%" y="38"/></g><use xlink:href="#sz-c" width="100%" height="100%" x="42"/></g></g><use xlink:href="#sz-d" width="100%" height="100%" x="105" stroke="#000" transform="translate(-43)scale(1.2)"/><g fill="#a70000"><path fill="#333" stroke="#000" d="M570 236c-5 9 4-3 27 12a22 22 0 0 1 8 15l-3-3c-2 2 1 9 2 13q-5-2-5-6l1 14-4-3v11l-4-3-4 8-2-3-8 13c-4-4-16-14-18-20q-1 4-7 6c-2-8-8-17-4-25l-7 5a50 50 0 0 1 28-34z"/><path fill="#b3b3b3" d="m551 281 6-9q2-8 5-8t-1 7q-3 6-10 9m15 11v-13q3-1 3 4 1 5-3 9m11 6-1-9q-3-9-1-10 3 0 4 7 1 6-2 12m11-32-6-3q-4-5-5-4-2 2 3 5c5 3 4 2 8 2m-2 15-3-5q-2-7-4-6-3 1 0 6 2 3 7 5"/><path fill="#333" stroke="#000" d="M54 245q0-3-2-5 3 3 6 1v-3l14 4c4 0 12-5 17 1 5 5 3 10 3 17l-3-4c2 6 0 17 0 24l-1-3c-2 6-5 7-5 14l-1-3c-2 4-16 8-11 12q-6-2-9-5l-2 4c-9-4-6-13-12-18l-2 6-3-13-4 5-2-13-3 3c2-16 12-28 20-25z"/><path fill="#b3b3b3" d="M43 272c2-6 4-7 6-11q2-10 5-10 3 1-1 9c-3 6-4 7-10 12m9 13 2-10q1-8 3-9 3-1 1 8-1 6-6 11m9 9 2-9q-1-8 1-9 3 0 2 7 0 6-5 11m22-30-9-7q-7-8-9-8-3 3 4 8c5 5 7 5 14 7m-3 16-6-8q-4-8-6-8-3 1 2 8 4 5 10 8"/><path fill="#333" stroke="#000" d="M261 155c-4 10 9-3 29 13a35 35 0 0 1 9 19l-12-5s9 9 9 19q-4-1-6-4l3 11-6-4c3 5-5 15-1 19a27 27 0 0 1-18-11q-2 1-2 4s-11-8-10-12l-3 6a32 32 0 0 1-9-14l-4 5c-1-8-1-8 1-16l-5 5a50 50 0 0 1 25-35z"/><path fill="#b3b3b3" d="m250 200 3-13q-1-11 2-12 3 0 2 10c-1 7-2 9-7 15m13 12v-22q3 0 3 8c1 6 0 8-3 14m21 9-6-9q-3-8-5-8-3 0 1 8 3 6 10 9m7-41-13-5q-9-7-11-5-3 3 7 7c7 3 9 3 17 3m2 17-9-6q-7-7-9-6-3 1 4 7c5 4 7 4 14 5"/></g></svg>