<svg xmlns="http://www.w3.org/2000/svg" xmlns:xlink="http://www.w3.org/1999/xlink" viewBox="0 0 640 480"><path fill="#1eb53a" d="M0 320h640v160H0z"/><path fill="#0099b5" d="M0 0h640v160H0z"/><path fill="#ce1126" d="M0 154h640v172H0z"/><path fill="#fff" d="M0 163h640v154H0z"/><circle cx="134" cy="77" r="58" fill="#fff"/><circle cx="154" cy="77" r="58" fill="#0099b5"/><g fill="#fff" transform="translate(261 123)scale(1.92)"><g id="uz-e"><g id="uz-d"><g id="uz-c"><g id="uz-b"><path id="uz-a" d="m0-6-2 6 3 1"/><use xlink:href="#uz-a" width="100%" height="100%" transform="scale(-1 1)"/></g><use xlink:href="#uz-b" width="100%" height="100%" transform="rotate(72)"/></g><use xlink:href="#uz-b" width="100%" height="100%" transform="rotate(-72)"/><use xlink:href="#uz-c" width="100%" height="100%" transform="rotate(144)"/></g><use xlink:href="#uz-d" width="100%" height="100%" y="-24"/><use xlink:href="#uz-d" width="100%" height="100%" y="-48"/></g><use xlink:href="#uz-e" width="100%" height="100%" x="24"/><use xlink:href="#uz-e" width="100%" height="100%" x="48"/><use xlink:href="#uz-d" width="100%" height="100%" x="-48"/><use xlink:href="#uz-d" width="100%" height="100%" x="-24"/><use xlink:href="#uz-d" width="100%" height="100%" x="-24" y="-24"/></g></svg>