<svg xmlns="http://www.w3.org/2000/svg" xmlns:xlink="http://www.w3.org/1999/xlink" viewBox="0 0 640 480"><defs><linearGradient id="vg-a" x1="103" x2="93" y1="111" y2="108" gradientTransform="matrix(.99614 0 0 2.25255 704 -75)" gradientUnits="userSpaceOnUse"><stop offset="0" stop-color="red"/><stop offset="1" stop-color="#ff0"/></linearGradient></defs><path fill="#006" d="M0 0h640v480H0Z"/><path fill="#012169" d="M0 0h320v240H0Z"/><path fill="#fff" d="m38 0 122 91L281 0h39v31l-120 90 120 89v30h-40l-120-89-119 89H0v-30l120-89L0 32V0Z"/><path fill="#c8102e" d="m212 141 108 79v20l-135-99Zm-92 10 3 17-96 72H0ZM320 0v2L196 96l1-22 98-74ZM0 0l120 88H90L0 21Z"/><path fill="#fff" d="M121 0v240h80V0ZM0 80v80h320V80Z"/><path fill="#c8102e" d="M0 97v48h320V97zM137 0v240h48V0Z"/><g transform="translate(-217 -9)scale(.77497)"><path fill="#fff" d="m776 144 251-1-1 223s9 34-105 86c41-5 86-48 86-48s18-23 27-10q14 18 23 24c7 5 12 19 2 29-10 11-25 12-29-1-7 4-46 52-128 54-83-1-129-54-129-54s-11 18-27 4c-15-18-4-30-4-30s13-7 17-12c6-7 8-17 18-17 12 1 17 11 17 11s42 44 87 50c-102-49-106-79-105-87z"/><path fill="#006129" stroke="#000" stroke-width="2" d="m782 150 239-1v214c1 28-46 57-120 93-76-39-119-63-120-93z"/><g id="vg-b" fill="#ffc72c" stroke="#000" stroke-width="1"><path fill="none" stroke="#ffc72c" stroke-width="2" d="m815 182 14-21 14 21"/><path d="M832 174a3 3 0 1 1-6 0 3 3 0 0 1 6 0z"/><path d="M817 197h22s1-3-2-4c12-2 9-12 18-13 2 1-5 5-5 5s-6 4-3 6q3 2 3-3c1-2 10-3 8-9-2-5-14 3-14 3h-9q-1-3-6-5c-3 0-5 5-5 5h-21s0 5 10 6q3 4 6 5zm2-4h18"/><path d="M811 182s1 9 8 11"/><path fill="url(#vg-a)" d="m810 182 3-8-2-6q2-5-3-8c1 4-4 7-4 10l2 7-1 5z"/><path d="M832 162a3 3 0 1 1-6 0 3 3 0 0 1 5 0z"/></g><use xlink:href="#vg-b" width="100%" height="100%" x="-1" y="41"/><use xlink:href="#vg-b" width="100%" height="100%" x="-1" y="82"/><use xlink:href="#vg-b" width="100%" height="100%" x="26" y="126"/><use xlink:href="#vg-b" width="100%" height="100%" x="-5" y="162"/><use xlink:href="#vg-b" width="100%" height="100%" x="-4" y="205"/><use xlink:href="#vg-b" width="100%" height="100%" x="146" y="1"/><use xlink:href="#vg-b" width="100%" height="100%" x="145" y="41"/><use xlink:href="#vg-b" width="100%" height="100%" x="143" y="83"/><use xlink:href="#vg-b" width="100%" height="100%" x="145" y="123"/><use xlink:href="#vg-b" width="100%" height="100%" x="145" y="164"/><use xlink:href="#vg-b" width="100%" height="100%" x="145" y="205"/><g fill="#ffc6b5" stroke="#000"><path fill="#ffc72c" d="M916 406s5 14 12 5c7-8 4-11 4-11l-14-8-5 9z"/><path d="m928 405 2-2-3-3-1 2zm-33-4-12 7h-7q-2-2 3-2c4-1 13-9 13-9zm1-228v5c0 1-2 5-3 4l-1 2 2 1v3c1 1-2 5 0 6l7 2c2 0 0 6 0 6l-4 10 24-3-5-8s-2-2-2-6v-25l-17-3zm-5 36s-8 4-7 14l-4 19-12 14-9 14c-1 2-7 9-7 11 0 3-2 14 5 15 1 1 6-13 6-13s1-6-1-7 4-5 4-5l13-9 8-9z"/><path fill="#fff" d="M900 202s2 5 7 4 10-5 10-5l5 1s11 11 11 14c0 4-5 3-7 5q-4 5-4 12 3 7 3 11l-2 4 2 5-2 7v36l2 3 11 47-2 2 4 9 6 20-2 8s4 10 3 11c0 2-7 2-7 2l-2-1-1 3-10-1s-3 4-5 4l-4-2 1 4s-8 2-10-2c-2-3 1-2 0-3l-5-3c-1 1 3 2 3 4l-5 4c-1 0-4-6-9-6l-7 2-7 2-4-3 2-7-2-4 4-9v-29s-3 0-4-2l6-49 3-13s-2 2-2 0l7-26 1-16-1-8s-6-2-6-7c-1-6 6-10 7-12l3-9s3-6 9-7z"/><path fill="#ffc72c" d="m898 403-18 9q-3-1-1-4l5-1-4-4 7-3 3 4 6-3z"/><path d="M919 407q1 4 6 4c3-2-2-6-2-6zm7 0h3c1-1-3-4-3-4l-2 2zm6-190 6 20c1 4 3 19 2 22l-10 15-6 13-2 11 1 4c0 1-5 5-7 5q-4-2-5-5c0-2 0-9 2-11l9-20c1-1 7-15 7-18q0-5-4-9-8-22 7-27z"/><path fill="#9c5100" d="M895 172h6q3-2 5 0l3 2s-2 6 0 7l4 1-2 3 2 3-1 4 3 3c1 0 0 4 3 3q4-2 3-3c-1-1 3-1 4-4l2-3c1 0 4-2-1-5 0-22-15-20-15-20s-1-4-4-3l-5 3-3-2-2 5s-5-1-5 3q2 5 3 3z"/><g fill="none"><path d="M921 208s-14 9-14 12m17-10-3 3m7 0s-7 6-6 10m-27-16-1 6c0 1 4 7 4 10v6m-6-14 1 6 4 7m-7 8s4 2 8-6m6-5s-3 7 2 10q8 4 12 2l4-2m-20-1s1 11 16 21m-15-11s0 9 6 13m-9-24s-5 14-9 15m7-5-1 14m-1 2s3 4 6 4c4-1 5-5 8-4l10 2m-8 4 1 9c2 1 1 8 1 8m-22-21-1 10q-3 5-2 12m-6 4 3-3m2 2s-7 29-5 47m6-45s-3 21-2 26m1-27 13 1m2-2s3 2 8 2m-10 9-1 46m21-38s4 33 6 36m-14-31s2 29 4 31m-40 10s5-1 9-6c5 7 13 0 13 0s12 8 17-1c9 6 13-1 13-1s3 5 5 5m-13 3s6 29 15 37m-47-40 2 41m-3-14-2 17m-7 2s1 7 10 0c9-6 9 3 9 3 0 1 2 8 5 3m7-10s-1 14 11 4c13-10 15 0 15 3m-26-230s-1 7 7 6q0 5 2 5m5 5s3 2 0 4m-11 1 4 2 4 1 3 1m-20 2s5 2 9-6m-19-3h3m-38 100v7m-7-8s5 8 4 12"/><path stroke-linejoin="round" d="M894 188h3l-2 1m17 111s3 0 3 5q5-9 6-7"/><path stroke-linejoin="round" stroke-width="2" d="M898 179h3z"/></g></g><g fill="none" stroke="#000" stroke-width="2"><path fill="#ffc72c" d="M900 459a160 160 0 0 0 110-51c-1 0 9-13 16-12 8 2 18 24 31 29 7 10-2 19-4 21-3 2-16 7-17 0-2-8-6-6-6-6s-60 58-128 55c-71 1-130-55-130-55l-5 5s-6 6-8 6c-3-1-15-9-16-17-1-7 7-13 7-13s21-15 23-24c5-4 14 4 14 4s53 61 113 58z"/><path d="M749 423s5-2 7 1l16 16"/><path d="m762 429-6 4s14 3 11 12m285-23s-2-1-7 2l-15 15"/><path d="m1040 429 6 4s-13 1-10 13"/></g><path d="m820 437-2 1-6 2-19 11v-2l5-23v-4q-1-1 0 0l10 7h-2q-2-2-3 1l-3 15 13-7q2-2 1-4l-1-1zm6 32-11-6 1-1h4l4-7 5-10q1-3-1-4h-1 2l10 6h-4l-4 7-6 11q-1 1 2 3zm43-10-3 9-1-3a10 10 0 0 0-7-8q-5-1-8 3l-4 12a7 7 0 0 0 3 7l6 1 2-6-2-3h1l11 4h-3l-2 4-1 3q-7 2-15-3-7-4-6-13 2-7 7-10 6-3 12 0l6 3q2 3 3 0zm18 29-12-2v-1q2 2 3-1l1-5 2-14q1-2-1-3l-2-1h1l13 2h-1l-3 1-1 5-2 15q-1 2 1 3zm34-8v9l-23 1v-1l3-1v-7l-1-14-2-2h-1 1l12-1v1l-3 1v20q0 2 3 2h5q4-2 5-6zm18-22-1 1-3 23-2 4v1l8-2-3-1q-2-1-1-3v-3l9-2 3 4q1 2-2 2v1l11-4-2-1-5-5zm0 9 6 7-8 3zm38-26 3 6-2-1a5 5 0 0 0-6 0l-2 1 10 18q2 2 4 1h1l-5 3-7 3 1-1 1-3-10-18q-3 0-5 4l1 4q-1 1-1-1l-3-5zm15-9 7 9 2-5-1-4 1 1 7 10q-1 1-3-2h-4q-2 0-1 2l5 6q2 1 4-1 4-2 4-7l-1-4 1 1 4 6-18 13 1-1v-4l-12-15h-4q-1 1 0 0l17-13 4 6-3-1q-3-1-7 1z"/></g></svg>