<svg xmlns="http://www.w3.org/2000/svg" viewBox="0 0 640 480"><path fill="#244AA5" d="M0 0h640v480H0z"/><path fill="#D0A650" d="m253 225 2-1 2-1h1l2 1 2 1h3l1-1v-2h1l2-2 2-1h2l2-1 1-1h1v-2l-2-1-1-1q-2 0-1-1l-1-1-1-1v-1l-1-1 1-1 1-1-1-2 1-1 3-2h2l1 1h1l1-3 1-2 1-1 1-1 1-1h2l1 1h2l1-1h1l1-2 1-1 1-1h1l1-1-1-3v-2h-1v-2h3l2-2v-5l-2-2-1-1-2-1 1-2-2-2-1-1-4-1q-2 0-1-1l1-2-2-2q-2 0-1-1l1-1h12l1-1 1-2 2-1 1-1v-2h2l2 1h6l1-1-1-1v-2h4l2 1 1 1 1 2h1l1 1 1 1 1 2v1l1 1s1 2-1 1l-2-1-1 1h-2v1l1 1v1h-2l-1 2 1 1h2l2 1h2l1 1 1 1 1 1h3l1 1v2h2l1 1 1 1h1l1-1 1-1h2l2-1 3 1 1 2 2 1v1h2l2-1h1l-1-2 1-1 1 1 1 1 2 2h4v2l1 2-1 2v2l1 1 1 2v3l1 1h1v2l-1 1 2 1 1 1 1-1 1-1v-2h3l1 1 1 2v3l1 1v4l-1 2 1 2 1 1 1 2 2 1 1 2v2h2l1-1 2-1 2 1h2l1 1q2 0 1 2v1l2 1q0 1 0 0h1l2 1h1l2-1h4v4l-1 1h-1v2l-1 1v1l1 1v2h-1l-2 1v4l1 1-2 2h-1v2l1 1 1-1 2 1 2-1h2l1 2h2q0-2 2-1l1 1 1 1h1l1 1h4l2-1h1l2 1h2v2l-1 2 2 1 3 1h3l1 2v2l1 1h2l1-1v-2h2l2-1h4l2-1h1l1 2v1l1 1 1 2 1 1 1 1v1l-1 1-1 1-1-1-1 1-1 2v1l-1 2h-2l1 3 1 1 1 1v1l-1 2v2h-2l-1 1h-3l-1 1v2l1 1v2h-2l-1 2-2 1v2l-1 1-1 1-1 1-1 1-3 1v2l2 2 1 2v1l1 1-1 1-1 2v1l-1 1-1 1-2 1-1-1-2-1-1 1-1 1v2h-3l-3-1 1 3-1 1-1 2 1 2 1 2 1 1 1-1q2-1 2 1l1 3 2 1 1 3-2 2-2 1v1l-2-1q-1 2-2 1l-2-3-1-2-3-1-1-1c-3 0-1 1-2 2l-3-1v1l-1 3 1 2q1 4-3 2l-3-3-1 1-1-1v2l-1 1-2 1-1 1-2 3h-2v1q1 3-2 5v2l-1 2-1 1h-1l1 1v1l2 2q0-1 0 0v1l1 1-2 1-1-2-1 2h-1l-2 2h-4l-2-1h-1l-1-1v-5l-2-3-2-3-1-2v-1l-1-1-1-2-5-1h-1l-1-1h-2l-2 3-3 2-2 2-1 1-2 1v1h-3l-2 2h-2l-2 1h-3l-2 1h-1l-1 3-2 2-1 1h-7l-2 2-4 1-1-1-1 2-2 2v1l-2 1 1 2-2 3v8h1l1 4c1 2-3 1-1 3l1 1 3 3-2 1-3 3-2 1v3h-2l-5 3-1-1-1-1h-4v1l-2 1-1 1-2-2-2-2-3-8h1q1-2 4-2l1-1c1-1 2-6 1-7l-2-3v-2l-1-3h-1v-3q-1-4-3-4l-1-2-1-2v-1l1-2-1-2 1-2-1-4v-1l-2-2v-2q-1 0 0 0l-1-2-2-6-1-1v-1l-2-1-1-2v-1h-1l-2-3-2-1v-1h-2l-2-1h-1l-3-1-1-3h-1l-4-1h-1l1-2-2-1-1-1-2 1-1 1h-2l-1-1c-1-1-4 2-5 0h-2q1-1-1-4l1-1v-1l1-2-1-1v-1l-1-1-2-1-2-2h1v-1l2-2-1-3h-1l-1-2q-3-1-1-3l-2-2-1-2-1-2-1-1v-1l-5-3h-1l-3-2-1-1-1-1-1-2 1-2v-4q-2-2-1-4v-2l1-1 1-2 2-1 1-2h-3v-1h-2l-1-1-3-2h-3l-2-1h-2v-1h-1l-1-2-1-1-1-2h2v-1l1-2-1-1c1-3 2-1 3-3l1-1h1l1-1q3 0 3-2h2l2 1 4 1 1 1h1l4 2h1l2-1 1 1 1-1h2l1-3 2 1v-1l-1-2h1l2-1 1-2v-1h1l1-2 4-2h1v1l2 1v-1h2v-1l1-1z"/><path fill="#FFF" d="m352 73 16 50-42-31h52l-42 31zm63 12 16 49-42-31h52l-43 31zm60 21 16 50-43-31h53l-43 31zM288 73l-16 50 42-31h-52l42 31zm-63 12-16 49 42-31h-52l43 31zm-59 21 16 50-42-31h52l-42 31z"/></svg>