<svg xmlns="http://www.w3.org/2000/svg" xmlns:xlink="http://www.w3.org/1999/xlink" viewBox="0 0 640 480"><defs><clipPath id="zw-a"><rect width="546" height="420" x="2" fill="#00f" fill-rule="evenodd" ry="0"/></clipPath></defs><g clip-path="url(#zw-a)" transform="matrix(1.1722 0 0 1.1426 -2 0)"><path fill="#006400" d="M0 0h840v420H0z"/><path fill="#ffd200" d="M0 60h840v300H0z"/><path fill="#d40000" d="M0 120h840v180H0z"/><path fill="#000001" d="M0 180h840v60H0z"/><path stroke="#000" stroke-width="20" d="M0 0v420l280-210z"/><path fill="#fff" d="M0 0v420l280-210z"/><path fill="#d40000" d="m107 104 55 171L17 170h179L51 275z"/><path fill="#fc0" d="m83 254 10-2 18-1 6 1 15 2 1-1v-11l2-9 3-10 4-7 4-8 7 2h1l1-2-15-12-15-11-22-17h-2l-2-17-2-5-2-2-4-2-5 1-2 1-5 1h-2l-2 2v2l7 1h1v1l-4 1h-1l2 2 2 1 3 1v2l1 25-2 4v8l2 9-6 6-3 6-1 4-1 3v2l1 3 4 14z"/><path d="m88 142-4 1-5 1q-4 1-4 5v1h3c11 0 1 1 0 1q-2 2 4 4c3 1 3 0 3 15l-1 16v14l1 4-3 4q-6 6-6 11l-1 3v5c1 2 7 22 7 26h8a129 129 0 0 1 39 1q6 3 5-4a74 74 0 0 1 5-27l7-14 4 1q6 2 5-1c0-1-4-5-25-21l-26-20-2-1-1-9-2-11q-2-5-9-5zm0 1h2c7 0 8 2 10 14l1 9-3 4-10 9-2 2v-16c0-9 0-9-3-10q-4-1-4-3h4l1-1q0-3-5-2-4 0-3-1 0-3 4-3l4-1zm15 26 50 40-27-7c-24-7-27-8-28-10a5 5 0 0 1-1-6l1-2-3 4 2 6 10 4c9 2 9 2 10 4q0 5-8 8l-5 2-17 11-1 3-2 4v-6l-1 2-1 2v-5l-2 5h-1l1-4 1-3q-1-2 6-8l8-9q2-2 2-5v-4q-2 1-1 5 1 1-4 6l-7 7q-5 6-5 8l-1 3-1 3v-6q-1-1-2 3v2-4l1-4 6-10 3-4-1-3a25 25 0 0 1 0-14q2-6 8-12 7-6 10-6m15 32 1 1a1 1 0 0 1-2 0zm3 0a1 1 0 0 1-2 0zm2 1h1a1 1 0 0 1-2 0zm3 0a1 1 0 0 1-2 0zm-7 1 1 1zm3 0a1 1 0 0 1-2 0zm5 1a1 1 0 0 1-2 0zm-3 0h1a1 1 0 0 1-2 0zm5 0 8 2 8 2-1 3-3 5q0 3-6 0l-22-3h-8l3-1 6-3 6-1q6 1 8-2zm-9 1h1zm6 0a1 1 0 0 1-2 0zm-8 0a1 1 0 0 1-2 0zm5 0h1zm-6 1a1 1 0 0 1-2 0zm2 0 1 1a1 1 0 0 1-2 0zm3 0a1 1 0 0 1-2 0zm3 0a1 1 0 0 1-2 0zm-21 8 35 5-1 5-2 6h-3a213 213 0 0 0-47 0l1-3 1-3 5-3zm-27 15h2l3 1q3-1 6 16l1 5-3 2h-3l-4-18zm29 2h3l-1 1q-3 3-4 0l-1-1zm6 0h5l-1 1h-3zm8 0h6l-2 1-1 2-2-2zm9 0 3 1h2l-1 1-2 1-2-2zm-31 0-1 2-1 1-2-1-1-1 2-1zm3 0 1 1 2 2h-6l1-1zm18 0 1 2-1 1h-3l-1-1 1-1zm-9 0 2 1q2 3-2 2h-3l2-2zm17 0 2 1v2h-5l2-1zm-35 1 2 1 1 1-2 1h-4l1-1zm-3 0-1 2-1 1-1-1 1-2zm46 2-2 1zm-22 1 18 1 3 1q1 3-5 1l-11-1-28 1h-3q1-3 26-3m-10 3h5l-1 2h-3zm7 0 1 2 2 1h-6l1-1zm2 0h5l-1 2h-3zm-13 0-1 2-1 1-2-1-1-1h2zm2 1 1 1 2 1-3 1h-3l2-2zm18 0 1 1q3 3-2 2l-2-1 1-1zm2 0h2q4 0 1 2-1 2-2-1zm-31 0v2h-2zm39 1h4l-1 1-1 1-2-1zm-36 0v1h-4l1-1zm34 0 1 1 1 2h-2l-2-1zm6 2q0 2-1 1zm-26 1 24 1 2 1v4l-1 5-5-1a126 126 0 0 0-35-1h-2l-1-4v-4h5z"/><path id="zw-b" d="M125 218q-5 0-5 5 2 8 8 4c6-4 1-9-3-9m0 1a4 4 0 0 1 4 4q-1 5-6 4-4-4 0-8z"/><use xlink:href="#zw-b" width="100%" height="100%" x="-20" y="-1"/><path d="m88 145-2 2a2 2 0 1 0 4 0zm0 1 1 1a1 1 0 1 1-2 0z"/></g></svg>